<svg width="949" height="150" viewBox="0 0 949 150" fill="none" xmlns="http://www.w3.org/2000/svg">
<path d="M0 107V2.59999H54C60.2667 2.59999 65.4667 3.86665 69.6 6.39999C73.7333 8.79999 76.8 11.9333 78.8 15.8C80.9333 19.6667 82 23.8 82 28.2C82 33.8 80.6667 38.8667 78 43.4C75.3333 47.8 71.4667 51.1333 66.4 53.4C72.4 55.1333 77.2667 58.2667 81 62.8C84.7333 67.2 86.6 72.6667 86.6 79.2C86.6 85.0667 85.2 90.0667 82.4 94.2C79.6 98.3333 75.6667 101.533 70.6 103.8C65.5333 105.933 59.6667 107 53 107H0ZM16.8 94.6H52.6C55.8 94.6 58.6667 93.8 61.2 92.2C63.8667 90.6 65.9333 88.4667 67.4 85.8C68.8667 83.1333 69.6 80.3333 69.6 77.4C69.6 74.2 68.8667 71.3333 67.4 68.8C66.0667 66.1333 64.1333 64.0667 61.6 62.6C59.2 61 56.4 60.2 53.2 60.2H16.8V94.6ZM16.8 48.6H49.4C52.6 48.6 55.4 47.8 57.8 46.2C60.2 44.4667 62.0667 42.2667 63.4 39.6C64.7333 36.9333 65.4 34.1333 65.4 31.2C65.4 26.8 63.9333 23 61 19.8C58.2 16.6 54.5333 15 50 15H16.8V48.6Z" fill="white"/>
<path d="M215.775 109C207.242 109 199.642 106.867 192.975 102.6C186.308 98.3333 181.042 92.9333 177.175 86.4V149.6H159.575V2.59999H175.175V22.2C179.308 15.8 184.708 10.6666 191.375 6.79998C198.042 2.79998 205.308 0.799988 213.175 0.799988C220.375 0.799988 226.975 2.26665 232.975 5.19999C238.975 8.13332 244.175 12.1333 248.575 17.2C252.975 22.2667 256.375 28.0667 258.775 34.6C261.308 41 262.575 47.7333 262.575 54.8C262.575 64.6667 260.575 73.7333 256.575 82C252.708 90.2667 247.242 96.8667 240.175 101.8C233.108 106.6 224.975 109 215.775 109ZM210.375 93.8C215.575 93.8 220.242 92.7333 224.375 90.6C228.642 88.3333 232.242 85.4 235.175 81.8C238.242 78.0667 240.575 73.8667 242.175 69.2C243.775 64.5333 244.575 59.7333 244.575 54.8C244.575 49.6 243.642 44.6667 241.775 40C240.042 35.3333 237.508 31.2 234.175 27.6C230.975 24 227.175 21.2 222.775 19.2C218.508 17.0667 213.842 16 208.775 16C205.575 16 202.242 16.6 198.775 17.8C195.442 19 192.242 20.7333 189.175 23C186.108 25.1333 183.508 27.6 181.375 30.4C179.242 33.2 177.842 36.2 177.175 39.4V69.2C179.175 73.7333 181.842 77.8667 185.175 81.6C188.508 85.3333 192.375 88.3333 196.775 90.6C201.175 92.7333 205.708 93.8 210.375 93.8Z" fill="white"/>
<path d="M330.384 109C322.518 109 315.318 107.6 308.784 104.8C302.384 101.867 296.784 97.9333 291.984 93C287.318 87.9333 283.651 82.1333 280.984 75.6C278.451 69.0667 277.184 62.1333 277.184 54.8C277.184 44.9333 279.451 35.9333 283.984 27.8C288.518 19.6667 294.784 13.1333 302.784 8.19999C310.918 3.26666 320.184 0.799988 330.584 0.799988C341.118 0.799988 350.251 3.33332 357.984 8.39999C365.851 13.3333 371.918 19.8667 376.184 28C380.584 36 382.784 44.6667 382.784 54C382.784 55.3333 382.718 56.6667 382.584 58C382.584 59.2 382.518 60.1333 382.384 60.8H295.784C296.318 67.6 298.184 73.6667 301.384 79C304.718 84.2 308.984 88.3333 314.184 91.4C319.384 94.3333 324.984 95.8 330.984 95.8C337.384 95.8 343.384 94.2 348.984 91C354.718 87.8 358.651 83.6 360.784 78.4L375.984 82.6C373.718 87.6667 370.318 92.2 365.784 96.2C361.384 100.2 356.118 103.333 349.984 105.6C343.984 107.867 337.451 109 330.384 109ZM295.184 48.6H366.384C365.851 41.8 363.918 35.8 360.584 30.6C357.251 25.4 352.984 21.3333 347.784 18.4C342.584 15.4667 336.851 14 330.584 14C324.451 14 318.784 15.4667 313.584 18.4C308.384 21.3333 304.118 25.4 300.784 30.6C297.584 35.8 295.718 41.8 295.184 48.6Z" fill="white"/>
<path d="M394.148 76.8C394.148 70.1333 396.015 64.4 399.748 59.6C403.615 54.6666 408.882 50.8667 415.548 48.2C422.215 45.5333 429.948 44.2 438.748 44.2C443.415 44.2 448.348 44.6 453.548 45.4C458.748 46.0667 463.348 47.1333 467.348 48.6V41C467.348 33 464.948 26.7333 460.148 22.2C455.348 17.5333 448.548 15.2 439.748 15.2C434.015 15.2 428.482 16.2667 423.148 18.4C417.948 20.4 412.415 23.3333 406.548 27.2L400.148 14.8C406.948 10.1333 413.748 6.66665 420.548 4.39999C427.348 1.99999 434.415 0.799988 441.748 0.799988C455.082 0.799988 465.615 4.53332 473.348 12C481.082 19.3333 484.948 29.6 484.948 42.8V87C484.948 89.1333 485.348 90.7333 486.148 91.8C487.082 92.7333 488.548 93.2667 490.548 93.4V107C488.815 107.267 487.282 107.467 485.948 107.6C484.748 107.733 483.748 107.8 482.948 107.8C478.815 107.8 475.682 106.667 473.548 104.4C471.548 102.133 470.415 99.7333 470.148 97.2L469.748 90.6C465.215 96.4667 459.282 101 451.948 104.2C444.615 107.4 437.348 109 430.148 109C423.215 109 417.015 107.6 411.548 104.8C406.082 101.867 401.815 98 398.748 93.2C395.682 88.2667 394.148 82.8 394.148 76.8ZM462.148 84.2C463.748 82.3333 465.015 80.4667 465.948 78.6C466.882 76.6 467.348 74.9333 467.348 73.6V60.6C463.215 59 458.882 57.8 454.348 57C449.815 56.0667 445.348 55.6 440.948 55.6C432.015 55.6 424.748 57.4 419.148 61C413.682 64.4667 410.948 69.2667 410.948 75.4C410.948 78.7333 411.815 82 413.548 85.2C415.415 88.2667 418.082 90.8 421.548 92.8C425.148 94.8 429.548 95.8 434.748 95.8C440.215 95.8 445.415 94.7333 450.348 92.6C455.282 90.3333 459.215 87.5333 462.148 84.2Z" fill="white"/>
<path d="M503.891 107.8V92C507.357 92 510.424 91.1333 513.091 89.4C515.891 87.5333 518.357 84.4667 520.491 80.2C522.624 75.8 524.291 69.8 525.491 62.2C526.824 54.4667 527.691 44.6667 528.091 32.8L529.291 2.59999H600.291V107H582.691V18.2H544.891L544.491 34.4C543.957 48.6667 542.757 60.5333 540.891 70C539.024 79.4667 536.424 86.9333 533.091 92.4C529.757 97.8667 525.624 101.8 520.691 104.2C515.891 106.6 510.291 107.8 503.891 107.8Z" fill="white"/>
<path d="M625.516 76L638.916 6.99999H654.316L641.316 73.8C639.716 81.8 640.316 88 643.116 92.4C645.916 96.8 650.516 99 656.916 99C664.782 99 672.916 95.8667 681.316 89.6C689.716 83.2 696.782 74.8 702.516 64.4C696.382 77.7333 688.316 88.4 678.316 96.4C668.316 104.4 658.049 108.4 647.516 108.4C638.582 108.4 632.182 105.533 628.316 99.8C624.449 94.0667 623.516 86.1333 625.516 76ZM711.116 107H695.716L715.116 6.99999H730.516L711.116 107Z" fill="white"/>
<path d="M749.431 107L779.031 65C772.231 63.6667 766.765 60.4667 762.631 55.4C758.498 50.2 756.431 43.2667 756.431 34.6C756.431 28.3333 757.898 22.8 760.831 18C763.765 13.2 767.831 9.39998 773.031 6.59998C778.365 3.79999 784.565 2.39999 791.631 2.39999H834.431V107H816.831V67.8H796.431L768.831 107H749.431ZM792.831 54.8H816.831V16.2H794.831C788.565 16.2 783.565 18 779.831 21.6C776.098 25.0667 774.231 29.5333 774.231 35C774.231 40.4667 775.765 45.1333 778.831 49C782.031 52.8667 786.698 54.8 792.831 54.8Z" fill="white"/>
<path d="M870.695 2.59999L898.295 41L899.895 44.2L901.695 41L929.095 2.59999H948.695L910.095 55L948.895 107H929.295L901.695 68.8L899.895 65.8L898.295 68.8L870.695 107H851.095L889.895 55L851.295 2.59999H870.695Z" fill="white"/>
</svg>
