<svg width="1087" height="189" viewBox="0 0 1087 189" fill="none" xmlns="http://www.w3.org/2000/svg">
<path d="M52.8031 148C44.9365 148 37.8031 146.6 31.4031 143.8C25.0031 140.867 19.4698 136.933 14.8031 132C10.1365 126.933 6.53646 121.133 4.00313 114.6C1.46979 108.067 0.203125 101.2 0.203125 94C0.203125 86.6667 1.46979 79.7333 4.00313 73.2C6.53646 66.6667 10.1365 60.9333 14.8031 56C19.4698 50.9333 25.0031 47 31.4031 44.2C37.9365 41.2667 45.1365 39.8 53.0031 39.8C60.7365 39.8 67.8031 41.2667 74.2031 44.2C80.6031 47 86.1365 50.9333 90.8031 56C95.6031 60.9333 99.2698 66.6667 101.803 73.2C104.336 79.7333 105.603 86.6667 105.603 94C105.603 101.2 104.336 108.067 101.803 114.6C99.2698 121.133 95.6698 126.933 91.0031 132C86.3365 136.933 80.7365 140.867 74.2031 143.8C67.8031 146.6 60.6698 148 52.8031 148ZM18.2031 94.2C18.2031 101.4 19.7365 107.933 22.8031 113.8C26.0031 119.667 30.2031 124.333 35.4031 127.8C40.6031 131.133 46.4031 132.8 52.8031 132.8C59.2031 132.8 65.0031 131.067 70.2031 127.6C75.5365 124.133 79.7365 119.467 82.8031 113.6C86.0031 107.6 87.6031 101 87.6031 93.8C87.6031 86.6 86.0031 80.0667 82.8031 74.2C79.7365 68.3333 75.5365 63.6667 70.2031 60.2C65.0031 56.7333 59.2031 55 52.8031 55C46.4031 55 40.6031 56.8 35.4031 60.4C30.2031 63.8667 26.0031 68.5333 22.8031 74.4C19.7365 80.2667 18.2031 86.8667 18.2031 94.2Z" fill="white"/>
<path d="M223.716 148C215.849 148 208.649 146.6 202.116 143.8C195.716 140.867 190.116 136.867 185.316 131.8C180.649 126.733 176.982 120.933 174.316 114.4C171.782 107.867 170.516 100.933 170.516 93.6C170.516 83.7333 172.716 74.7333 177.116 66.6C181.516 58.4667 187.716 52 195.716 47.2C203.716 42.2667 212.982 39.8 223.516 39.8C233.782 39.8 242.716 42.1333 250.316 46.8C258.049 51.3333 263.782 57.4667 267.516 65.2L250.316 70.6C247.649 65.6667 243.916 61.8667 239.116 59.2C234.316 56.4 228.982 55 223.116 55C216.716 55 210.849 56.6667 205.516 60C200.316 63.3333 196.182 67.9333 193.116 73.8C190.049 79.5333 188.516 86.1333 188.516 93.6C188.516 100.933 190.049 107.6 193.116 113.6C196.316 119.467 200.516 124.133 205.716 127.6C211.049 131.067 216.916 132.8 223.316 132.8C227.449 132.8 231.382 132.067 235.116 130.6C238.982 129.133 242.316 127.2 245.116 124.8C248.049 122.267 250.049 119.533 251.116 116.6L268.316 121.8C266.182 126.867 262.916 131.4 258.516 135.4C254.249 139.267 249.116 142.333 243.116 144.6C237.249 146.867 230.782 148 223.716 148Z" fill="white"/>
<path d="M319.858 147.4C305.191 147.4 294.324 142.933 287.258 134C280.324 124.933 278.324 112.8 281.258 97.6C283.924 83.4667 289.791 71.6667 298.858 62.2C308.058 52.7333 318.924 47.2 331.458 45.6C323.724 48.1333 316.858 53.5333 310.858 61.8C304.858 70.0667 300.791 79.8667 298.658 91.2C295.724 106.133 296.991 117.933 302.458 126.6C308.058 135.133 317.058 139.4 329.458 139.4C343.858 139.4 356.524 134.467 367.458 124.6C355.591 139.8 339.724 147.4 319.858 147.4ZM304.258 96.8C321.191 95.4667 334.591 92.2 344.458 87C354.458 81.6667 360.258 74.9333 361.858 66.8C362.791 61.7333 362.191 57.3333 360.058 53.6C357.924 49.7333 354.591 47.0667 350.058 45.6C358.991 46.1333 365.724 48.4667 370.258 52.6C374.924 56.7333 376.591 62.0667 375.258 68.6C373.524 77.6667 366.524 84.6667 354.258 89.6C341.991 94.4 325.324 96.8 304.258 96.8Z" fill="white"/>
<path d="M456.567 148C448.034 148 440.434 145.867 433.767 141.6C427.101 137.333 421.834 131.933 417.967 125.4V188.6H400.367V41.6H415.967V61.2C420.1 54.8 425.501 49.6667 432.167 45.8C438.834 41.8 446.101 39.8 453.967 39.8C461.167 39.8 467.767 41.2667 473.767 44.2C479.767 47.1333 484.967 51.1333 489.367 56.2C493.767 61.2667 497.167 67.0667 499.567 73.6C502.101 80 503.367 86.7333 503.367 93.8C503.367 103.667 501.367 112.733 497.367 121C493.501 129.267 488.034 135.867 480.967 140.8C473.901 145.6 465.767 148 456.567 148ZM451.167 132.8C456.367 132.8 461.034 131.733 465.167 129.6C469.434 127.333 473.034 124.4 475.967 120.8C479.034 117.067 481.367 112.867 482.967 108.2C484.567 103.533 485.367 98.7333 485.367 93.8C485.367 88.6 484.434 83.6667 482.567 79C480.834 74.3333 478.301 70.2 474.967 66.6C471.767 63 467.967 60.2 463.567 58.2C459.301 56.0667 454.634 55 449.567 55C446.367 55 443.034 55.6 439.567 56.8C436.234 58 433.034 59.7333 429.967 62C426.9 64.1333 424.301 66.6 422.167 69.4C420.034 72.2 418.634 75.2 417.967 78.4V108.2C419.967 112.733 422.634 116.867 425.967 120.6C429.301 124.333 433.167 127.333 437.567 129.6C441.967 131.733 446.501 132.8 451.167 132.8Z" fill="white"/>
<path d="M573.177 188.6V146H569.177C558.643 146 549.51 143.6 541.777 138.8C534.177 134 528.31 127.667 524.177 119.8C520.043 111.933 517.977 103.333 517.977 94C517.977 84.5333 520.043 75.8667 524.177 68C528.443 60.1333 534.377 53.8 541.977 49C549.71 44.2 558.777 41.8 569.177 41.8H573.177V0H590.777V41.8H594.977C605.377 41.8 614.377 44.2 621.977 49C629.71 53.8 635.643 60.1333 639.777 68C644.043 75.8667 646.177 84.5333 646.177 94C646.177 103.333 644.11 111.933 639.977 119.8C635.843 127.667 629.91 134 622.177 138.8C614.577 143.6 605.51 146 594.977 146H590.777V188.6H573.177ZM569.177 131.6H573.977V56.2H569.177C562.643 56.2 556.777 57.9333 551.577 61.4C546.51 64.7333 542.51 69.2667 539.577 75C536.643 80.7333 535.177 87.1333 535.177 94.2C535.177 101.267 536.577 107.667 539.377 113.4C542.31 119 546.31 123.467 551.377 126.8C556.443 130 562.377 131.6 569.177 131.6ZM589.977 131.6H594.977C601.643 131.6 607.51 130 612.577 126.8C617.777 123.467 621.777 119 624.577 113.4C627.51 107.667 628.977 101.267 628.977 94.2C628.977 87.1333 627.51 80.7333 624.577 75C621.643 69.2667 617.643 64.7333 612.577 61.4C607.51 57.9333 601.643 56.2 594.977 56.2H589.977V131.6Z" fill="white"/>
<path d="M667.355 146V41.8H684.955V122.4L743.355 41.6H759.355V146H741.755V67L684.155 146H667.355Z" fill="white"/>
<path d="M787.277 146V41.6H804.877V84.8H859.277V41.6H876.877V146H859.277V100.4H804.877V146H787.277Z" fill="white"/>
<path d="M905.05 146V41.6H969.45V57.2H922.65V146H905.05Z" fill="white"/>
<path d="M1033.68 148C1025.81 148 1018.61 146.6 1012.08 143.8C1005.68 140.867 1000.08 136.933 995.277 132C990.61 126.933 986.943 121.133 984.277 114.6C981.743 108.067 980.477 101.133 980.477 93.8C980.477 83.9333 982.743 74.9333 987.277 66.8C991.81 58.6667 998.077 52.1333 1006.08 47.2C1014.21 42.2667 1023.48 39.8 1033.88 39.8C1044.41 39.8 1053.54 42.3333 1061.28 47.4C1069.14 52.3333 1075.21 58.8667 1079.48 67C1083.88 75 1086.08 83.6667 1086.08 93C1086.08 94.3333 1086.01 95.6667 1085.88 97C1085.88 98.2 1085.81 99.1333 1085.68 99.8H999.077C999.61 106.6 1001.48 112.667 1004.68 118C1008.01 123.2 1012.28 127.333 1017.48 130.4C1022.68 133.333 1028.28 134.8 1034.28 134.8C1040.68 134.8 1046.68 133.2 1052.28 130C1058.01 126.8 1061.94 122.6 1064.08 117.4L1079.28 121.6C1077.01 126.667 1073.61 131.2 1069.08 135.2C1064.68 139.2 1059.41 142.333 1053.28 144.6C1047.28 146.867 1040.74 148 1033.68 148ZM998.477 87.6H1069.68C1069.14 80.8 1067.21 74.8 1063.88 69.6C1060.54 64.4 1056.28 60.3333 1051.08 57.4C1045.88 54.4667 1040.14 53 1033.88 53C1027.74 53 1022.08 54.4667 1016.88 57.4C1011.68 60.3333 1007.41 64.4 1004.08 69.6C1000.88 74.8 999.01 80.8 998.477 87.6Z" fill="white"/>
</svg>
