<svg width="658" height="150" viewBox="0 0 658 150" fill="none" xmlns="http://www.w3.org/2000/svg">
<path d="M0 107V2.59999H64.4V18.2H17.6V107H0Z" fill="white"/>
<path d="M124.627 107.8C133.16 105.533 140.693 99.8667 147.227 90.8C153.76 81.7333 158.36 70.4667 161.027 57C163.56 43.5333 163.293 32.2667 160.227 23.2C157.293 14.1333 151.96 8.46665 144.227 6.19999C157.16 7.79999 166.627 13.1333 172.627 22.2C178.627 31.2667 180.293 42.8667 177.627 57C174.827 71.1333 168.627 82.7333 159.027 91.8C149.56 100.867 138.093 106.2 124.627 107.8ZM108.827 107.8C95.8932 106.2 86.4266 100.867 80.4266 91.8C74.5599 82.7333 73.0266 71.1333 75.8266 57C78.4932 42.8667 84.4932 31.2667 93.8266 22.2C103.293 13.1333 114.827 7.79999 128.427 6.19999C119.893 8.46665 112.36 14.1333 105.827 23.2C99.2932 32.2667 94.7599 43.5333 92.2266 57C89.6932 70.6 89.8932 81.9333 92.8266 91C95.7599 99.9333 101.093 105.533 108.827 107.8Z" fill="white"/>
<path d="M263.041 109C254.507 109 246.907 106.867 240.241 102.6C233.574 98.3333 228.307 92.9333 224.441 86.4V149.6H206.841V2.59999H222.441V22.2C226.574 15.8 231.974 10.6666 238.641 6.79998C245.307 2.79998 252.574 0.799988 260.441 0.799988C267.641 0.799988 274.241 2.26665 280.241 5.19999C286.241 8.13332 291.441 12.1333 295.841 17.2C300.241 22.2667 303.641 28.0667 306.041 34.6C308.574 41 309.841 47.7333 309.841 54.8C309.841 64.6667 307.841 73.7333 303.841 82C299.974 90.2667 294.507 96.8667 287.441 101.8C280.374 106.6 272.241 109 263.041 109ZM257.641 93.8C262.841 93.8 267.507 92.7333 271.641 90.6C275.907 88.3333 279.507 85.4 282.441 81.8C285.507 78.0667 287.841 73.8667 289.441 69.2C291.041 64.5333 291.841 59.7333 291.841 54.8C291.841 49.6 290.907 44.6667 289.041 40C287.307 35.3333 284.774 31.2 281.441 27.6C278.241 24 274.441 21.2 270.041 19.2C265.774 17.0667 261.107 16 256.041 16C252.841 16 249.507 16.6 246.041 17.8C242.707 19 239.507 20.7333 236.441 23C233.374 25.1333 230.774 27.6 228.641 30.4C226.507 33.2 225.107 36.2 224.441 39.4V69.2C226.441 73.7333 229.107 77.8667 232.441 81.6C235.774 85.3333 239.641 88.3333 244.041 90.6C248.441 92.7333 252.974 93.8 257.641 93.8Z" fill="white"/>
<path d="M377.05 109C369.183 109 362.05 107.6 355.65 104.8C349.25 101.867 343.717 97.9333 339.05 93C334.383 87.9333 330.783 82.1333 328.25 75.6C325.717 69.0667 324.45 62.2 324.45 55C324.45 47.6667 325.717 40.7333 328.25 34.2C330.783 27.6667 334.383 21.9333 339.05 17C343.717 11.9333 349.25 7.99998 355.65 5.19999C362.183 2.26665 369.383 0.799988 377.25 0.799988C384.983 0.799988 392.05 2.26665 398.45 5.19999C404.85 7.99998 410.383 11.9333 415.05 17C419.85 21.9333 423.517 27.6667 426.05 34.2C428.583 40.7333 429.85 47.6667 429.85 55C429.85 62.2 428.583 69.0667 426.05 75.6C423.517 82.1333 419.917 87.9333 415.25 93C410.583 97.9333 404.983 101.867 398.45 104.8C392.05 107.6 384.917 109 377.05 109ZM342.45 55.2C342.45 62.4 343.983 68.9333 347.05 74.8C350.25 80.6667 354.45 85.3333 359.65 88.8C364.85 92.1333 370.65 93.8 377.05 93.8C383.45 93.8 389.25 92.0667 394.45 88.6C399.783 85.1333 403.983 80.4667 407.05 74.6C410.25 68.6 411.85 62 411.85 54.8C411.85 47.6 410.25 41.0667 407.05 35.2C403.983 29.3333 399.783 24.6667 394.45 21.2C389.25 17.7333 383.45 16 377.05 16C370.65 16 364.85 17.8 359.65 21.4C354.45 24.8667 350.25 29.5333 347.05 35.4C343.983 41.2667 342.45 47.8667 342.45 55.2Z" fill="white"/>
<path d="M439.577 131.6V91.4H441.777C444.71 91.4 447.377 90.5333 449.777 88.8C452.31 87.0667 454.51 84.0667 456.377 79.8C458.377 75.4 459.977 69.4 461.177 61.8C462.377 54.2 463.177 44.5333 463.577 32.8L464.577 2.59999H535.577V91.4H549.777V131.6H534.177V107H455.177V131.6H439.577ZM466.377 91.4H517.977V18.2H480.177L479.577 34.4C479.177 45.7333 478.377 55.2667 477.177 63C476.11 70.6 474.643 76.6667 472.777 81.2C471.043 85.7333 468.91 89.1333 466.377 91.4Z" fill="white"/>
<path d="M561.141 76.8C561.141 70.1333 563.007 64.4 566.741 59.6C570.607 54.6666 575.874 50.8667 582.541 48.2C589.207 45.5333 596.941 44.2 605.741 44.2C610.407 44.2 615.341 44.6 620.541 45.4C625.741 46.0667 630.341 47.1333 634.341 48.6V41C634.341 33 631.941 26.7333 627.141 22.2C622.341 17.5333 615.541 15.2 606.741 15.2C601.007 15.2 595.474 16.2667 590.141 18.4C584.941 20.4 579.407 23.3333 573.541 27.2L567.141 14.8C573.941 10.1333 580.741 6.66665 587.541 4.39999C594.341 1.99999 601.407 0.799988 608.741 0.799988C622.074 0.799988 632.607 4.53332 640.341 12C648.074 19.3333 651.941 29.6 651.941 42.8V87C651.941 89.1333 652.341 90.7333 653.141 91.8C654.074 92.7333 655.541 93.2667 657.541 93.4V107C655.807 107.267 654.274 107.467 652.941 107.6C651.741 107.733 650.741 107.8 649.941 107.8C645.807 107.8 642.674 106.667 640.541 104.4C638.541 102.133 637.407 99.7333 637.141 97.2L636.741 90.6C632.207 96.4667 626.274 101 618.941 104.2C611.607 107.4 604.341 109 597.141 109C590.207 109 584.007 107.6 578.541 104.8C573.074 101.867 568.807 98 565.741 93.2C562.674 88.2667 561.141 82.8 561.141 76.8ZM629.141 84.2C630.741 82.3333 632.007 80.4667 632.941 78.6C633.874 76.6 634.341 74.9333 634.341 73.6V60.6C630.207 59 625.874 57.8 621.341 57C616.807 56.0667 612.341 55.6 607.941 55.6C599.007 55.6 591.741 57.4 586.141 61C580.674 64.4667 577.941 69.2667 577.941 75.4C577.941 78.7333 578.807 82 580.541 85.2C582.407 88.2667 585.074 90.8 588.541 92.8C592.141 94.8 596.541 95.8 601.741 95.8C607.207 95.8 612.407 94.7333 617.341 92.6C622.274 90.3333 626.207 87.5333 629.141 84.2Z" fill="white"/>
</svg>
