<svg width="22" height="22" viewBox="0 0 22 22" fill="none" xmlns="http://www.w3.org/2000/svg">
<path d="M19.8 17.6H15.8775L17.05 15.8415C17.4099 15.3028 17.6 14.6744 17.6 14.025C17.6 13.3756 17.4099 12.7472 17.05 12.2085L16.5 11.3835V9.89999C16.5 8.68668 15.5133 7.69998 14.3 7.69998H9.47997C9.20282 7.69998 9.0605 7.51734 9.01214 7.43892C8.96326 7.36049 8.8639 7.15156 8.98796 6.90396L10.754 3.37193C10.9151 3.05018 11 2.68981 11 2.32995C11 1.04522 9.9548 0 8.67002 0H8.24999C8.09747 0 7.95191 0.0633703 7.8477 0.174539L1.92338 6.52265C0.683203 7.8509 0 9.58366 0 11.4017V16.5C0 19.5325 2.46747 22 5.50001 22H19.8C21.0133 22 22 21.0134 22 19.8C22 18.5866 21.0133 17.6 19.8 17.6Z" fill="#101010" fill-opacity="0.3"/>
</svg>
