<svg width="1117" height="109" viewBox="0 0 1117 109" fill="none" xmlns="http://www.w3.org/2000/svg">
<path d="M0 106.2V1.8H17.6V90.8H58.8V1.8H76.6V90.8H117.6V1.8H135.2V106.2H0Z" fill="white"/>
<path d="M155.477 76C155.477 69.3333 157.343 63.6 161.077 58.8C164.943 53.8667 170.21 50.0667 176.877 47.4C183.543 44.7333 191.277 43.4 200.077 43.4C204.743 43.4 209.677 43.8 214.877 44.6C220.077 45.2667 224.677 46.3333 228.677 47.8V40.2C228.677 32.2 226.277 25.9333 221.477 21.4C216.677 16.7333 209.877 14.4 201.077 14.4C195.343 14.4 189.81 15.4667 184.477 17.6C179.277 19.6 173.743 22.5333 167.877 26.4L161.477 14C168.277 9.33333 175.077 5.86666 181.877 3.6C188.677 1.2 195.743 0 203.077 0C216.41 0 226.943 3.73333 234.677 11.2C242.41 18.5333 246.277 28.8 246.277 42V86.2C246.277 88.3333 246.677 89.9333 247.477 91C248.41 91.9333 249.877 92.4667 251.877 92.6V106.2C250.143 106.467 248.61 106.667 247.277 106.8C246.077 106.933 245.077 107 244.277 107C240.143 107 237.01 105.867 234.877 103.6C232.877 101.333 231.743 98.9333 231.477 96.4L231.077 89.8C226.543 95.6667 220.61 100.2 213.277 103.4C205.943 106.6 198.677 108.2 191.477 108.2C184.543 108.2 178.343 106.8 172.877 104C167.41 101.067 163.143 97.2 160.077 92.4C157.01 87.4667 155.477 82 155.477 76ZM223.477 83.4C225.077 81.5333 226.343 79.6667 227.277 77.8C228.21 75.8 228.677 74.1333 228.677 72.8V59.8C224.543 58.2 220.21 57 215.677 56.2C211.143 55.2667 206.677 54.8 202.277 54.8C193.343 54.8 186.077 56.6 180.477 60.2C175.01 63.6667 172.277 68.4667 172.277 74.6C172.277 77.9333 173.143 81.2 174.877 84.4C176.743 87.4667 179.41 90 182.877 92C186.477 94 190.877 95 196.077 95C201.543 95 206.743 93.9333 211.677 91.8C216.61 89.5333 220.543 86.7333 223.477 83.4Z" fill="white"/>
<path d="M274.219 106.2V1.8H338.619V17.4H291.819V106.2H274.219Z" fill="white"/>
<path d="M407.031 106.2V1.8H424.631V44.8H436.231L469.031 1.8H489.031L450.031 52.4L493.631 106.2H473.231L436.231 61H424.631V106.2H407.031Z" fill="white"/>
<path d="M561.328 106.2V1.8H579.528L618.328 70.2L657.328 1.8H675.128V106.2H658.328V27.2L623.928 87.6H612.728L578.128 27.2V106.2H561.328Z" fill="white"/>
<path d="M735.12 107.6C720.454 107.6 709.587 103.133 702.52 94.2C695.587 85.1333 693.587 73 696.52 57.8C699.187 43.6667 705.054 31.8667 714.12 22.4C723.32 12.9333 734.187 7.4 746.72 5.8C738.987 8.33333 732.12 13.7333 726.12 22C720.12 30.2667 716.054 40.0667 713.92 51.4C710.987 66.3333 712.254 78.1333 717.72 86.8C723.32 95.3333 732.32 99.6 744.72 99.6C759.12 99.6 771.787 94.6667 782.72 84.8C770.854 100 754.987 107.6 735.12 107.6ZM719.52 57C736.454 55.6667 749.854 52.4 759.72 47.2C769.72 41.8667 775.52 35.1333 777.12 27C778.054 21.9333 777.454 17.5333 775.32 13.8C773.187 9.93333 769.854 7.26666 765.32 5.8C774.254 6.33333 780.987 8.66667 785.52 12.8C790.187 16.9333 791.854 22.2667 790.52 28.8C788.787 37.8667 781.787 44.8667 769.52 49.8C757.254 54.6 740.587 57 719.52 57Z" fill="white"/>
<path d="M874.83 106.2V64.4C870.696 66.4 866.363 67.8667 861.83 68.8C857.43 69.7333 852.563 70.2 847.23 70.2C835.896 70.2 827.23 67.2667 821.23 61.4C815.363 55.4 812.43 46.4667 812.43 34.6V1.8H830.03V32.2C830.03 40.6 831.763 46.7333 835.23 50.6C838.696 54.4667 844.23 56.4 851.83 56.4C856.096 56.4 860.296 55.9333 864.43 55C868.696 54.0667 872.163 52.8 874.83 51.2V1.8H892.63V106.2H874.83Z" fill="white"/>
<path d="M946.498 106.2V17.4H910.498V1.8H1000.1V17.4H964.098V106.2H946.498Z" fill="white"/>
<path d="M1063.98 108.2C1056.11 108.2 1048.91 106.8 1042.38 104C1035.98 101.067 1030.38 97.1333 1025.58 92.2C1020.91 87.1333 1017.24 81.3333 1014.58 74.8C1012.04 68.2667 1010.78 61.3333 1010.78 54C1010.78 44.1333 1013.04 35.1333 1017.58 27C1022.11 18.8667 1028.38 12.3333 1036.38 7.4C1044.51 2.46667 1053.78 0 1064.18 0C1074.71 0 1083.84 2.53333 1091.58 7.6C1099.44 12.5333 1105.51 19.0667 1109.78 27.2C1114.18 35.2 1116.38 43.8667 1116.38 53.2C1116.38 54.5333 1116.31 55.8667 1116.18 57.2C1116.18 58.4 1116.11 59.3333 1115.98 60H1029.38C1029.91 66.8 1031.78 72.8667 1034.98 78.2C1038.31 83.4 1042.58 87.5333 1047.78 90.6C1052.98 93.5333 1058.58 95 1064.58 95C1070.98 95 1076.98 93.4 1082.58 90.2C1088.31 87 1092.24 82.8 1094.38 77.6L1109.58 81.8C1107.31 86.8667 1103.91 91.4 1099.38 95.4C1094.98 99.4 1089.71 102.533 1083.58 104.8C1077.58 107.067 1071.04 108.2 1063.98 108.2ZM1028.78 47.8H1099.98C1099.44 41 1097.51 35 1094.18 29.8C1090.84 24.6 1086.58 20.5333 1081.38 17.6C1076.18 14.6667 1070.44 13.2 1064.18 13.2C1058.04 13.2 1052.38 14.6667 1047.18 17.6C1041.98 20.5333 1037.71 24.6 1034.38 29.8C1031.18 35 1029.31 41 1028.78 47.8Z" fill="white"/>
</svg>
