<svg width="78" height="114" viewBox="0 0 78 114" fill="none" xmlns="http://www.w3.org/2000/svg">
<path d="M45.6548 51.8731L32.3704 48.9908C29.5268 48.3858 26.7918 47.3516 24.2593 45.9238C23.2551 45.2002 22.332 44.3701 21.5063 43.4479C18.7895 40.4085 17.353 36.4364 17.497 32.3622C17.439 29.918 17.9614 27.4948 19.0213 25.2916C20.0811 23.0883 21.6483 21.1678 23.5942 19.6875C28.0791 16.1997 33.6602 14.4245 39.3359 14.6804C42.5079 14.5771 45.6662 15.1404 48.6069 16.3338C51.5476 17.5273 54.2052 19.3244 56.408 21.609C59.2967 24.6148 61.3534 28.3206 62.3758 32.3622L69.988 26.69L75.5309 22.8469C75.1244 21.9231 74.6625 20.9993 74.1821 20.1125C73.9234 19.669 73.6833 19.2256 73.4061 18.8006C70.0497 13.1991 65.1745 8.66352 59.3457 5.71947C53.0747 2.4602 46.088 0.821501 39.0218 0.952604C32.2663 0.833156 25.5672 2.20198 19.4001 4.96195C13.9925 7.29394 9.37783 11.1449 6.11564 16.0477C2.88531 20.8674 1.20884 26.561 1.31181 32.3622C1.31181 48.6582 11.252 58.8633 31.1325 62.9773L44.2691 65.8966C49.2273 66.8198 53.8286 69.1109 57.5535 72.5111C59.0655 73.8854 60.2846 75.5507 61.1379 77.4073C61.7578 79.0162 62.0711 80.727 62.0617 82.4513C62.1051 84.9869 61.5487 87.4969 60.4377 89.7766C59.3267 92.0563 57.6927 94.0412 55.6689 95.5694C50.8609 99.0909 44.994 100.864 39.0403 100.595C32.2913 100.846 25.7189 98.4069 20.7673 93.8141C17.6139 90.7105 15.4039 86.7773 14.393 82.4697L12.8225 83.4859L0 91.6709C0.29562 92.41 0.628192 93.1305 0.97924 93.8511C1.33029 94.5717 1.92153 95.6987 2.45734 96.5117C6.00255 101.992 10.9713 106.405 16.8319 109.279C23.4242 112.455 30.6709 114.037 37.9872 113.898C45.0179 114.041 51.9999 112.7 58.4773 109.962C64.0739 107.512 68.8875 103.568 72.3899 98.5625C75.7261 93.7005 77.4693 87.9221 77.3785 82.0263C77.3785 66.3462 66.8039 56.2951 45.6548 51.8731Z" fill="#2763BD"/>
</svg>
