<svg width="79" height="88" viewBox="0 0 79 88" fill="none" xmlns="http://www.w3.org/2000/svg">
<path d="M78.2102 43.3081C78.3602 35.7282 76.6606 28.2259 73.2586 21.4507C70.2335 15.2306 65.5543 9.96332 59.734 6.22629C53.8599 2.5811 47.0615 0.701921 40.1492 0.812753C32.9097 0.681089 25.7911 2.67919 19.6775 6.55887C13.6669 10.3255 8.80387 15.6678 5.61708 22.005C2.23482 28.9 0.531732 36.4974 0.646968 44.1765C0.520898 52.0392 2.27564 59.8182 5.76492 66.8653C9.03535 73.3139 14.0725 78.6992 20.2883 82.3927C26.5042 86.0862 33.6424 87.9356 40.8698 87.725C47.3051 87.8628 53.7076 86.7717 59.734 84.5101C64.1931 82.5073 68.0943 79.4435 71.0969 75.5861C72.0794 74.4936 72.8725 73.2447 73.4434 71.8909L65.0182 63.632C63.2291 66.7673 60.7684 69.4678 57.8125 71.5398C52.8032 74.9926 46.8214 76.7535 40.7404 76.5654C36.1303 76.4859 31.6404 75.0812 27.8071 72.5191C24.0364 69.9673 20.9575 66.5202 18.8461 62.4865C16.6889 58.0902 15.5941 53.2488 15.6497 48.3521L77.8592 48.3521C78.1254 46.6845 78.2428 44.9965 78.2102 43.3081V43.3081ZM15.6867 38.7075C15.689 31.7399 18.2461 25.0151 22.8739 19.8063C25.0285 17.4191 27.6717 15.5235 30.6238 14.2483C33.5759 12.9731 36.7678 12.3481 39.9829 12.4158C44.288 12.3385 48.5193 13.541 52.1403 15.8709C55.7929 18.2052 58.7281 21.5049 60.6209 25.4046C62.6894 29.5361 63.7289 34.1063 63.6509 38.726L15.6867 38.7075Z" fill="#2763BD"/>
</svg>
