<svg width="140" height="140" viewBox="0 0 140 140" fill="none" xmlns="http://www.w3.org/2000/svg">
<path fill-rule="evenodd" clip-rule="evenodd" d="M0 70C0 108.66 31.3401 140 70 140C108.66 140 140 108.66 140 70C140 31.3401 108.66 0 70 0C31.3401 0 0 31.3401 0 70Z" fill="#424242"/>
<path d="M103.409 49.7338L81.6961 87.6704C79.7098 91.6272 76.8802 95.0939 73.4094 97.8232C70.4332 99.953 66.8502 101.052 63.1997 100.955C59.938 101.013 56.7128 100.257 53.8117 98.7558C51.1733 97.3702 48.9745 95.2669 47.4656 92.6852C45.9284 90.0131 45.1315 86.9749 45.1579 83.8873C45.193 81.4348 45.5998 79.002 46.3642 76.673C47.1809 74.0569 48.2525 71.5284 49.5635 69.1244L69.1437 33.2817L57.955 27L38.0076 62.0861C35.8798 65.7041 34.1225 69.5303 32.7629 73.5058C31.6926 76.6956 31.1033 80.0289 31.0147 83.3946C30.8415 88.7419 32.204 94.026 34.9388 98.6136C37.6737 103.201 41.6649 106.898 46.4341 109.26C51.6511 111.82 57.3968 113.099 63.1997 112.991C69.3301 113.139 75.3701 111.482 80.5772 108.222C86.1269 104.404 90.6691 99.2826 93.8114 93.3011L115 56.3498L103.409 49.7338Z" fill="#9F9F9F"/>
<circle opacity="0.6" r="70" transform="matrix(-1 0 0 1 70 70)" fill="#101010"/>
<path d="M80.5199 57.9326L80.8663 58.5216H85.5509C86.9484 58.5216 88.2885 59.0679 89.2728 60.0321C90.257 60.9987 90.8064 62.3074 90.8064 63.6659V82.6659C90.8056 83.3424 90.6697 84.012 90.4064 84.6358C90.1431 85.2596 89.7578 85.8251 89.2728 86.2996C88.2804 87.2707 86.9433 87.8142 85.5509 87.8125H55.4509C54.0534 87.8125 52.7132 87.2662 51.729 86.2996C51.244 85.8251 50.8586 85.2596 50.5954 84.6358C50.3321 84.012 50.1961 83.3424 50.1953 82.6659V63.6659C50.1953 62.3074 50.7448 60.9987 51.729 60.0321C52.7217 59.0619 54.0588 58.5193 55.4509 58.5216H60.1355L60.4819 57.9326L63.5086 52.7765C63.6138 52.5972 63.7645 52.4485 63.9456 52.3451C64.1266 52.2418 64.3318 52.1874 64.5406 52.1875H76.4611C76.6699 52.1874 76.8751 52.2418 77.0562 52.3451C77.2372 52.4485 77.3879 52.5972 77.4931 52.7765L80.5199 57.9302V57.9326Z" stroke="white" stroke-width="2"/>
<path d="M70.5017 80.6875C75.1194 80.6875 78.8628 76.9659 78.8628 72.375C78.8628 67.7841 75.1194 64.0625 70.5017 64.0625C65.884 64.0625 62.1406 67.7841 62.1406 72.375C62.1406 76.9659 65.884 80.6875 70.5017 80.6875Z" stroke="white" stroke-width="2"/>
</svg>
