<svg width="40" height="40" viewBox="0 0 40 40" fill="none" xmlns="http://www.w3.org/2000/svg">
<path fill-rule="evenodd" clip-rule="evenodd" d="M20.0003 38.3332C9.8751 38.3332 1.66699 30.1251 1.66699 19.9998C1.66699 9.87462 9.8751 1.6665 20.0003 1.6665C30.1255 1.6665 38.3337 9.87462 38.3337 19.9998C38.3337 30.1251 30.1255 38.3332 20.0003 38.3332ZM32.3328 28.541C34.0146 26.1171 35.0003 23.1736 35.0003 20C35.0003 11.7157 28.2845 4.99997 20.0002 4.99997C11.716 4.99997 5.00025 11.7157 5.00025 20C5.00025 23.1737 5.98591 26.1172 7.66782 28.5411C9.54353 26.0634 13.9513 25 20.0004 25C26.0493 25 30.457 26.0634 32.3328 28.541ZM29.9415 31.2328C29.4536 29.4788 25.9492 28.3333 20.0004 28.3333C14.0513 28.3333 10.5469 29.4789 10.0592 31.233C12.7058 33.577 16.1869 35 20.0002 35C23.8137 35 27.2948 33.5769 29.9415 31.2328ZM20.0004 9.99997C15.9656 9.99997 13.3337 12.9262 13.3337 16.6666C13.3337 22.3789 16.2685 25 20.0004 25C23.6972 25 26.6671 22.466 26.6671 17C26.6671 13.2026 24.0241 9.99997 20.0004 9.99997ZM16.667 16.6664C16.667 20.4485 18.0307 21.6664 20.0003 21.6664C21.9632 21.6664 23.3337 20.497 23.3337 16.9997C23.3337 14.9171 22.0264 13.333 20.0003 13.333C17.8899 13.333 16.667 14.6927 16.667 16.6664Z" fill="#9F9F9F"/>
</svg>
