<svg width="28" height="28" viewBox="0 0 28 28" fill="none" xmlns="http://www.w3.org/2000/svg">
<path fill-rule="evenodd" clip-rule="evenodd" d="M14.0008 26.8337C6.91316 26.8337 1.16748 21.088 1.16748 14.0003C1.16748 6.91267 6.91316 1.16699 14.0008 1.16699C21.0885 1.16699 26.8341 6.91267 26.8341 14.0003C26.8341 21.088 21.0885 26.8337 14.0008 26.8337ZM22.6325 19.9792C23.8099 18.2825 24.4999 16.222 24.4999 14.0003C24.4999 8.2013 19.7989 3.50029 13.9999 3.50029C8.20091 3.50029 3.4999 8.2013 3.4999 14.0003C3.4999 16.2218 4.18981 18.2822 5.36705 19.9789C6.68014 18.2447 9.76551 17.5003 13.9997 17.5003C18.2341 17.5003 21.3196 18.2447 22.6325 19.9792ZM20.9585 21.8635C20.6172 20.6356 18.1641 19.8336 13.9997 19.8336C9.83558 19.8336 7.38256 20.6355 7.04093 21.8632C8.8936 23.5041 11.3304 24.5003 13.9999 24.5003C16.6692 24.5003 19.1059 23.5042 20.9585 21.8635ZM14.0017 7.00029C11.1773 7.00029 9.33506 9.04868 9.33506 11.667C9.33506 15.6656 11.3894 17.5003 14.0017 17.5003C16.5895 17.5003 18.6684 15.7265 18.6684 11.9003C18.6684 9.24213 16.8183 7.00029 14.0017 7.00029ZM11.6675 11.6668C11.6675 14.3142 12.6221 15.1668 14.0008 15.1668C15.3748 15.1668 16.3341 14.3482 16.3341 11.9001C16.3341 10.4422 15.4191 9.33343 14.0008 9.33343C12.5235 9.33343 11.6675 10.2852 11.6675 11.6668Z" fill="#424242"/>
</svg>
