<svg width="140" height="140" viewBox="0 0 140 140" fill="none" xmlns="http://www.w3.org/2000/svg">
<path fill-rule="evenodd" clip-rule="evenodd" d="M0 70C0 108.66 31.3401 140 70 140C108.66 140 140 108.66 140 70C140 31.3401 108.66 0 70 0C31.3401 0 0 31.3401 0 70Z" fill="#424242"/>
<path d="M103.409 49.7338L81.6961 87.6704C79.7098 91.6272 76.8802 95.0939 73.4094 97.8232C70.4332 99.953 66.8502 101.052 63.1997 100.955C59.938 101.013 56.7128 100.257 53.8117 98.7558C51.1733 97.3702 48.9745 95.2669 47.4656 92.6852C45.9284 90.0131 45.1315 86.9749 45.1579 83.8873C45.193 81.4348 45.5998 79.002 46.3642 76.673C47.1809 74.0569 48.2525 71.5284 49.5635 69.1244L69.1437 33.2817L57.955 27L38.0076 62.0861C35.8798 65.7041 34.1225 69.5303 32.7629 73.5058C31.6926 76.6956 31.1033 80.0289 31.0147 83.3946C30.8415 88.7419 32.204 94.026 34.9388 98.6136C37.6737 103.201 41.6649 106.898 46.4341 109.26C51.6511 111.82 57.3968 113.099 63.1997 112.991C69.3301 113.139 75.3701 111.482 80.5772 108.222C86.1269 104.404 90.6691 99.2826 93.8114 93.3011L115 56.3498L103.409 49.7338Z" fill="#9F9F9F"/>
</svg>
