<svg width="40" height="40" viewBox="0 0 40 40" fill="none" xmlns="http://www.w3.org/2000/svg">
<path fill-rule="evenodd" clip-rule="evenodd" d="M20.0013 38.3332C9.87608 38.3332 1.66797 30.1251 1.66797 19.9998C1.66797 9.87462 9.87608 1.6665 20.0013 1.6665C30.1265 1.6665 38.3346 9.87462 38.3346 19.9998C38.3346 30.1251 30.1265 38.3332 20.0013 38.3332ZM32.3338 28.541C34.0156 26.1171 35.0012 23.1736 35.0012 20C35.0012 11.7157 28.2855 4.99997 20.0012 4.99997C11.717 4.99997 5.00122 11.7157 5.00122 20C5.00122 23.1737 5.98689 26.1172 7.6688 28.5411C9.5445 26.0634 13.9523 25 20.0014 25C26.0503 25 30.458 26.0634 32.3338 28.541ZM29.9425 31.2328C29.4546 29.4788 25.9502 28.3333 20.0014 28.3333C14.0523 28.3333 10.5479 29.4789 10.0602 31.233C12.7068 33.577 16.1878 35 20.0012 35C23.8147 35 27.2958 33.5769 29.9425 31.2328ZM20.0014 9.99997C15.9665 9.99997 13.3347 12.9262 13.3347 16.6666C13.3347 22.3789 16.2695 25 20.0014 25C23.6982 25 26.6681 22.466 26.6681 17C26.6681 13.2026 24.025 9.99997 20.0014 9.99997ZM16.668 16.6664C16.668 20.4485 18.0317 21.6664 20.0013 21.6664C21.9641 21.6664 23.3346 20.497 23.3346 16.9997C23.3346 14.9171 22.0274 13.333 20.0013 13.333C17.8909 13.333 16.668 14.6927 16.668 16.6664Z" fill="#424242"/>
</svg>
