<svg width="525" height="204" viewBox="0 0 525 204" fill="none" xmlns="http://www.w3.org/2000/svg">
<path d="M67.104 90V37.968L44.64 78H39.36L16.8 37.968V90H8.16V21.84H17.28L41.952 66.096L66.72 21.84H75.744V90H67.104ZM112.055 90.96C108.279 90.96 104.823 90.288 101.687 88.944C98.6145 87.536 95.9265 85.648 93.6225 83.28C91.3825 80.848 89.6225 78.064 88.3425 74.928C87.1265 71.792 86.5185 68.464 86.5185 64.944C86.5185 60.208 87.6065 55.888 89.7825 51.984C91.9585 48.08 94.9665 44.944 98.8065 42.576C102.711 40.208 107.159 39.024 112.151 39.024C117.207 39.024 121.591 40.24 125.303 42.672C129.079 45.04 131.991 48.176 134.039 52.08C136.151 55.92 137.207 60.08 137.207 64.56C137.207 65.2 137.175 65.84 137.111 66.48C137.111 67.056 137.079 67.504 137.015 67.824H95.4465C95.7025 71.088 96.5985 74 98.1345 76.56C99.7345 79.056 101.783 81.04 104.279 82.512C106.775 83.92 109.463 84.624 112.343 84.624C115.415 84.624 118.295 83.856 120.983 82.32C123.735 80.784 125.623 78.768 126.647 76.272L133.943 78.288C132.855 80.72 131.223 82.896 129.047 84.816C126.935 86.736 124.407 88.24 121.463 89.328C118.583 90.416 115.447 90.96 112.055 90.96ZM95.1585 61.968H129.335C129.079 58.704 128.151 55.824 126.551 53.328C124.951 50.832 122.903 48.88 120.407 47.472C117.911 46.064 115.159 45.36 112.151 45.36C109.207 45.36 106.487 46.064 103.991 47.472C101.495 48.88 99.4465 50.832 97.8465 53.328C96.3105 55.824 95.4145 58.704 95.1585 61.968ZM143.333 65.04C143.333 60.304 144.293 55.984 146.213 52.08C148.197 48.112 150.885 44.944 154.277 42.576C157.733 40.208 161.669 39.024 166.085 39.024C170.117 39.024 173.733 40.08 176.933 42.192C180.133 44.304 182.629 46.864 184.421 49.872V19.92H192.869V80.4C192.869 81.424 193.061 82.192 193.445 82.704C193.893 83.152 194.597 83.408 195.557 83.472V90C193.957 90.256 192.709 90.384 191.813 90.384C190.149 90.384 188.677 89.808 187.397 88.656C186.181 87.504 185.573 86.224 185.573 84.816V80.592C183.589 83.792 180.933 86.32 177.605 88.176C174.277 90.032 170.821 90.96 167.237 90.96C163.781 90.96 160.581 90.288 157.637 88.944C154.757 87.536 152.229 85.616 150.053 83.184C147.941 80.752 146.277 78 145.061 74.928C143.909 71.792 143.333 68.496 143.333 65.04ZM184.421 72.432V58.032C183.653 55.856 182.405 53.904 180.677 52.176C178.949 50.384 176.997 48.976 174.821 47.952C172.709 46.864 170.597 46.32 168.485 46.32C165.989 46.32 163.717 46.864 161.669 47.952C159.685 48.976 157.957 50.384 156.485 52.176C155.077 53.904 153.989 55.888 153.221 58.128C152.453 60.368 152.069 62.704 152.069 65.136C152.069 67.632 152.485 70 153.317 72.24C154.213 74.48 155.429 76.464 156.965 78.192C158.565 79.92 160.389 81.264 162.437 82.224C164.549 83.184 166.821 83.664 169.253 83.664C170.789 83.664 172.357 83.376 173.957 82.8C175.621 82.224 177.189 81.424 178.661 80.4C180.133 79.376 181.381 78.192 182.405 76.848C183.429 75.44 184.101 73.968 184.421 72.432ZM206.972 90V39.888H215.42V90H206.972ZM206.972 30.48V19.92H215.42V30.48H206.972ZM228.617 69.936V39.888H237.065V68.304C237.065 73.424 237.961 77.264 239.753 79.824C241.545 82.384 244.201 83.664 247.721 83.664C250.025 83.664 252.233 83.184 254.345 82.224C256.521 81.2 258.473 79.76 260.201 77.904C261.929 76.048 263.273 73.84 264.233 71.28V39.888H272.681V80.4C272.681 81.424 272.873 82.192 273.257 82.704C273.705 83.152 274.409 83.408 275.369 83.472V90C274.409 90.128 273.641 90.192 273.065 90.192C272.553 90.256 272.041 90.288 271.529 90.288C269.929 90.288 268.553 89.808 267.401 88.848C266.249 87.824 265.641 86.576 265.577 85.104L265.385 79.248C263.209 82.96 260.265 85.84 256.553 87.888C252.905 89.936 248.905 90.96 244.553 90.96C239.305 90.96 235.337 89.2 232.649 85.68C229.961 82.096 228.617 76.848 228.617 69.936ZM362.306 90H353.858V61.968C353.858 56.72 352.994 52.848 351.266 50.352C349.602 47.856 347.106 46.608 343.778 46.608C340.386 46.608 337.314 47.856 334.562 50.352C331.81 52.784 329.858 55.952 328.706 59.856V90H320.258V61.968C320.258 56.656 319.426 52.784 317.762 50.352C316.098 47.856 313.602 46.608 310.274 46.608C306.946 46.608 303.874 47.824 301.058 50.256C298.306 52.624 296.354 55.792 295.202 59.76V90H286.754V39.888H294.434V50.64C296.482 46.928 299.138 44.08 302.402 42.096C305.666 40.048 309.346 39.024 313.442 39.024C317.602 39.024 320.93 40.176 323.426 42.48C325.922 44.72 327.458 47.632 328.034 51.216C330.274 47.248 332.994 44.24 336.194 42.192C339.394 40.08 343.042 39.024 347.138 39.024C350.018 39.024 352.418 39.568 354.338 40.656C356.322 41.68 357.89 43.152 359.042 45.072C360.194 46.928 361.026 49.136 361.538 51.696C362.05 54.256 362.306 57.04 362.306 60.048V90Z" fill="white"/>
<path d="M10.944 142.168H29.664V160.888H31.872V142.168H50.496V139.96H31.872V121.24H29.664V139.96H10.944V142.168ZM63.8063 175H71.1983L85.2143 102.424L77.6303 103.576L63.8063 175ZM89.0273 175H96.4193L105.827 126.616C104.867 127 103.427 127.192 101.987 127.192C100.547 127.192 99.2032 127 98.4353 126.616L89.0273 175ZM100.451 110.392C99.9713 113.368 101.411 115.192 104.291 115.192C107.267 115.192 109.571 113.368 110.051 110.392C110.627 107.416 109.187 105.592 106.211 105.592C103.331 105.592 101.027 107.416 100.451 110.392ZM127.394 175.672C137.09 175.672 147.17 167.32 153.026 154.552C147.362 164.44 138.914 171.064 131.81 171.064C124.514 171.064 120.962 163.48 123.266 151.864C126.049 137.656 134.978 128.344 145.442 128.344C150.05 128.344 154.658 129.976 157.25 132.664C154.178 128.92 148.322 126.52 141.986 126.52C128.834 126.52 118.273 136.792 115.105 152.728C112.514 166.648 117.314 175.672 127.394 175.672ZM157.058 175.768L166.466 127H159.074L149.186 178.36C147.266 188.344 139.874 195.832 130.562 197.464C144.194 196.792 154.658 188.248 157.058 175.768ZM123.842 197.464C118.466 196.792 115.49 193.048 116.546 188.152C117.026 185.368 118.562 182.584 120.194 181.048C119.426 180.472 118.37 180.088 117.026 180.088C113.858 180.088 111.361 182.488 110.689 186.232C109.345 192.952 114.338 197.176 123.842 197.464ZM174.994 175H182.386L196.402 102.424L188.818 103.576L174.994 175ZM188.53 147.448C194.098 137.464 202.93 130.84 210.61 130.84C216.85 130.84 219.73 135.256 218.194 142.84L212.05 175H219.442L225.874 141.88C227.698 132.184 223.762 126.328 215.122 126.328C204.85 126.328 194.386 134.68 188.53 147.448ZM240.635 165.112C239.387 171.64 242.651 175.672 249.179 175.672C253.883 175.672 258.875 173.464 261.947 170.104C259.643 171.544 256.379 172.6 253.787 172.6C249.467 172.6 247.163 169.816 248.027 165.4L255.035 129.112H267.899L268.283 127H255.419L257.435 116.824L248.123 127H241.307L240.827 129.112H247.739L240.635 165.112ZM300.621 175H308.013L317.421 126.616C316.461 127 315.021 127.192 313.581 127.192C312.141 127.192 310.797 127 310.029 126.616L300.621 175ZM312.045 110.392C311.565 113.368 313.005 115.192 315.885 115.192C318.861 115.192 321.165 113.368 321.645 110.392C322.221 107.416 320.781 105.592 317.805 105.592C314.925 105.592 312.621 107.416 312.045 110.392ZM330.635 165.112C329.387 171.64 332.651 175.672 339.179 175.672C343.883 175.672 348.875 173.464 351.947 170.104C349.643 171.544 346.379 172.6 343.787 172.6C339.467 172.6 337.163 169.816 338.027 165.4L345.035 129.112H357.899L358.283 127H345.419L347.435 116.824L338.123 127H331.307L330.827 129.112H337.739L330.635 165.112ZM375.644 175.672C385.34 175.672 395.42 167.32 401.276 154.552C395.612 164.44 387.164 171.064 380.06 171.064C372.764 171.064 369.212 163.48 371.516 151.864C374.299 137.656 383.228 128.344 393.692 128.344C398.3 128.344 402.908 129.976 405.5 132.664C402.428 128.92 396.572 126.52 390.236 126.52C377.084 126.52 366.523 136.792 363.355 152.728C360.764 166.648 365.564 175.672 375.644 175.672ZM398.012 175H405.404L414.716 127H407.324L398.012 175ZM423.244 175H430.636L444.652 102.424L437.068 103.576L423.244 175ZM448.465 175H455.857L465.265 126.616C464.305 127 462.865 127.192 461.425 127.192C459.985 127.192 458.641 127 457.873 126.616L448.465 175ZM459.889 110.392C459.409 113.368 460.849 115.192 463.729 115.192C466.705 115.192 469.009 113.368 469.489 110.392C470.065 107.416 468.625 105.592 465.649 105.592C462.769 105.592 460.465 107.416 459.889 110.392ZM493.263 175.672C502.383 175.672 510.639 171.736 516.303 164.728C511.503 169.048 504.015 171.832 497.487 171.832C485.775 171.832 480.399 163.096 483.183 148.984C485.295 137.848 492.111 129.208 500.271 126.808C487.407 128.344 477.423 138.232 474.735 151.864C471.951 166.36 479.151 175.672 493.263 175.672ZM507.855 126.808C513.039 127.48 515.631 131.128 514.575 136.792C514.191 138.808 513.519 140.536 511.983 142.648C512.655 143.032 513.519 143.32 514.383 143.32C516.783 143.32 519.567 140.44 520.335 136.6C521.487 130.84 516.783 127.192 507.855 126.808Z" fill="white"/>
</svg>
