<svg width="443" height="120" viewBox="0 0 443 120" fill="none" xmlns="http://www.w3.org/2000/svg">
<path d="M210.666 15.0707C208.754 17.1522 207.273 19.5918 206.308 22.2486C205.344 24.9054 204.915 27.7269 205.047 30.5502V101.756H217.802V55.2091H232.182V44.6831H217.802V29.3738C217.645 26.6382 218.529 23.9446 220.279 21.8353C221.258 20.9006 222.423 20.181 223.697 19.7225C224.971 19.264 226.327 19.0767 227.678 19.1728C229.757 19.1956 231.83 19.4133 233.87 19.8229V10.0708C231.029 9.48794 228.131 9.22829 225.232 9.29685C222.537 9.20364 219.852 9.66842 217.346 10.662C214.839 11.6556 212.565 13.1566 210.666 15.0707Z" fill="black"/>
<path d="M38.707 50.9997L27.5772 48.5849C25.1948 48.078 22.9034 47.2116 20.7817 46.0153C19.9403 45.4091 19.167 44.7136 18.4752 43.941C16.199 41.3945 14.9955 38.0667 15.1161 34.6533C15.0676 32.6055 15.5052 30.5754 16.3932 28.7295C17.2812 26.8836 18.5941 25.2746 20.2244 24.0344C23.9819 21.1123 28.6578 19.625 33.413 19.8394C36.0704 19.7529 38.7165 20.2248 41.1802 21.2246C43.644 22.2245 45.8705 23.7302 47.716 25.6443C50.1363 28.1625 51.8594 31.2673 52.7159 34.6533L59.0935 29.9011L63.7374 26.6814C63.3968 25.9074 63.0098 25.1334 62.6074 24.3904C62.3906 24.0189 62.1894 23.6474 61.9572 23.2914C59.1452 18.5984 55.0607 14.7984 50.1773 12.3319C44.9234 9.60122 39.0699 8.2283 33.1498 8.33814C27.49 8.23807 21.8775 9.38488 16.7105 11.6972C12.1801 13.651 8.31385 16.8773 5.58076 20.9849C2.87437 25.0229 1.4698 29.793 1.55608 34.6533C1.55608 48.3063 9.88406 56.8561 26.54 60.3029L37.546 62.7487C41.7 63.5222 45.555 65.4417 48.6758 68.2903C49.9425 69.4418 50.9639 70.837 51.6788 72.3924C52.1982 73.7404 52.4607 75.1737 52.4528 76.6183C52.4892 78.7427 52.0229 80.8456 51.0922 82.7555C50.1614 84.6655 48.7924 86.3284 47.0969 87.6088C43.0687 90.5592 38.1533 92.0447 33.1653 91.8192C27.511 92.0294 22.0045 89.9861 17.856 86.1382C15.2141 83.5379 13.3625 80.2427 12.5156 76.6338L11.1998 77.4852L0.457031 84.3426C0.704704 84.9618 0.983335 85.5655 1.27745 86.1692C1.57156 86.7729 2.0669 87.7172 2.51581 88.3983C5.48601 92.9898 9.6489 96.6871 14.5589 99.0946C20.082 101.756 26.1533 103.081 32.283 102.964C38.1734 103.084 44.0229 101.961 49.4498 99.6674C54.1386 97.6148 58.1715 94.3103 61.1058 90.1165C63.9009 86.043 65.3613 81.2019 65.2853 76.2623C65.2853 63.1253 56.4259 54.7045 38.707 50.9997Z" fill="black"/>
<path d="M136.493 46.3081L117.267 79.682C115.508 83.1629 113.003 86.2126 109.93 88.6137C107.295 90.4873 104.122 91.4543 100.89 91.3691C98.0017 91.4197 95.146 90.7549 92.5772 89.4341C90.2411 88.2152 88.2942 86.3648 86.9581 84.0937C85.5971 81.7429 84.8914 79.0701 84.9148 76.3539C84.9459 74.1964 85.3061 72.0562 85.9829 70.0073C86.7061 67.7058 87.6549 65.4814 88.8157 63.3666L106.153 31.8348L96.2459 26.3086L78.5837 57.1748C76.6996 60.3577 75.1437 63.7237 73.9399 67.221C72.9921 70.0272 72.4704 72.9596 72.3919 75.9205C72.2386 80.6246 73.445 85.2732 75.8665 89.3091C78.288 93.345 81.822 96.597 86.0448 98.6754C90.6642 100.927 95.7516 102.052 100.89 101.957C106.318 102.088 111.666 100.63 116.276 97.7621C121.19 94.4029 125.212 89.8975 127.994 84.6355L146.756 52.1285L136.493 46.3081Z" fill="black"/>
<path d="M174.266 38.5327C170.504 41.9537 168.693 44.7246 167.532 50.9164H167.13L167.671 34.4926H155.148V101.829H167.671V69.7085C167.716 65.8532 168.347 62.0271 169.544 58.362C170.997 54.7443 173.447 51.6133 176.609 49.3333C179.772 47.0534 183.516 45.7182 187.408 45.4831H187.578C189.521 45.4736 191.46 45.6551 193.367 46.0248V34.214C191.916 33.8455 190.423 33.6635 188.925 33.6722C183.46 33.6722 178.12 35.0344 174.266 38.5327Z" fill="black"/>
<path d="M442.992 65.61C443.118 59.2595 441.694 52.974 438.844 47.2977C436.309 42.0864 432.389 37.6735 427.513 34.5426C422.591 31.4886 416.896 29.9142 411.104 30.0071C405.039 29.8968 399.075 31.5708 393.953 34.8212C388.917 37.977 384.843 42.4528 382.173 47.7621C379.34 53.5388 377.913 59.904 378.009 66.3375C377.904 72.925 379.374 79.4422 382.297 85.3464C385.037 90.749 389.257 95.2609 394.465 98.3554C399.673 101.45 405.653 102.999 411.708 102.823C417.1 102.938 422.464 102.024 427.513 100.129C431.249 98.4514 434.517 95.8845 437.033 92.6527C437.856 91.7375 438.52 90.6911 438.999 89.5568L431.94 82.6375C430.441 85.2643 428.379 87.5268 425.903 89.2627C421.706 92.1555 416.695 93.6308 411.6 93.4732C407.737 93.4066 403.976 92.2298 400.764 90.0831C397.605 87.9453 395.026 85.0573 393.257 81.6778C391.449 77.9945 390.532 73.9384 390.579 69.8359H442.698C442.921 68.4388 443.02 67.0246 442.992 65.61ZM390.61 61.7556C390.612 55.9181 392.754 50.2839 396.631 45.92C398.436 43.92 400.651 42.3319 403.124 41.2635C405.597 40.1951 408.272 39.6715 410.965 39.7282C414.572 39.6635 418.117 40.6709 421.151 42.6229C424.211 44.5786 426.67 47.3431 428.256 50.6103C429.989 54.0717 430.86 57.9006 430.794 61.7711L390.61 61.7556Z" fill="black"/>
<path d="M293.733 58.9534C293.733 53.6904 292.866 47.7772 290.436 43.6751C288.052 39.5422 284.533 36.1793 280.296 33.9849C275.772 31.5686 270.704 30.3484 265.575 30.4401C260.586 30.3396 255.642 31.3994 251.133 33.536C249.607 34.2667 248.138 35.1101 246.737 36.0592C245.809 36.6825 244.934 37.3815 244.121 38.1489L247.217 48.9846C248.573 47.394 250.258 46.116 252.155 45.2386C255.943 42.9041 260.305 41.6663 264.755 41.6628C269.399 41.6628 274.368 42.1427 277.34 45.2386C280.312 48.3345 281.241 53.5201 281.241 58.3342V61.4302L267.603 62.653C257.882 63.4786 250.411 65.8005 245.189 69.6188C242.735 71.2368 240.73 73.4491 239.361 76.05C237.991 78.6508 237.302 81.5558 237.356 84.4947C237.221 87.0388 237.654 89.5811 238.623 91.9372C239.592 94.2933 241.074 96.4042 242.96 98.1166C246.83 101.398 252.051 103.039 258.625 103.039C264.662 103.039 269.941 101.909 273.996 98.8132C278.052 95.7173 278.919 94.1694 281.396 89.2004H281.86C281.86 96.7545 282.309 98.6275 283.207 101.801H295.358C294.215 95.3644 293.697 88.8326 293.81 82.2966L293.733 58.9534ZM281.349 74.2472C281.564 79.6329 279.727 84.8995 276.21 88.9837C274.593 90.8556 272.578 92.3417 270.312 93.3328C268.046 94.3239 265.586 94.7949 263.114 94.7112C259.621 94.8879 256.178 93.8242 253.393 91.7081C252.203 90.7408 251.253 89.5103 250.619 88.1135C249.985 86.7167 249.684 85.1917 249.74 83.6588C249.697 81.7738 250.134 79.909 251.008 78.2386C251.883 76.5682 253.167 75.147 254.74 74.1079C258.073 71.6415 262.846 70.14 269.058 69.6034L281.349 68.5043V74.2472Z" fill="black"/>
<path d="M330.66 44.7939C334.309 42.7749 338.409 41.71 342.58 41.698C346.157 41.6727 349.685 42.54 352.843 44.2212C355.995 45.9085 358.883 48.0465 361.418 50.5678L368.957 43.0138C367.262 40.7107 365.164 38.7335 362.765 37.178C359.989 35.1951 356.917 33.6643 353.663 32.6425C350.094 31.4106 346.34 30.7981 342.564 30.8314C337.862 30.8066 333.203 31.7278 328.865 33.5403C324.58 35.2601 320.669 37.7939 317.348 41.0014C313.988 44.2227 311.318 48.0936 309.5 52.3789C307.602 56.926 306.669 61.8175 306.76 66.7439C306.607 73.4179 308.208 80.0153 311.404 85.8766C314.382 91.1515 318.716 95.534 323.958 98.5698C329.409 101.56 335.542 103.086 341.759 102.997C345.419 103.031 349.066 102.557 352.595 101.588C355.732 100.76 358.753 99.5435 361.589 97.9661C363.889 96.7618 365.98 95.1936 367.78 93.3222L362.13 84.4524C359.906 86.5792 357.362 88.3446 354.592 89.6845C351.207 91.2837 347.499 92.0784 343.756 92.0065C339.422 92.0345 335.135 91.1041 331.202 89.2821C327.369 87.4009 324.148 84.47 321.914 80.8302C319.477 76.5414 318.281 71.6584 318.463 66.7284C318.328 62.0583 319.525 57.4463 321.914 53.4315C324.022 49.8354 327.038 46.8567 330.66 44.7939Z" fill="black"/>
<path d="M38.707 50.9997L27.5772 48.5849C25.1948 48.078 22.9034 47.2116 20.7817 46.0153C19.9403 45.4091 19.167 44.7136 18.4752 43.941C16.199 41.3945 14.9955 38.0667 15.1161 34.6533C15.0676 32.6055 15.5052 30.5754 16.3932 28.7295C17.2812 26.8836 18.5941 25.2746 20.2244 24.0344C23.9819 21.1123 28.6578 19.625 33.413 19.8394C36.0704 19.7529 38.7165 20.2248 41.1802 21.2246C43.644 22.2245 45.8705 23.7302 47.716 25.6443C50.1363 28.1625 51.8594 31.2673 52.7159 34.6533L59.0935 29.9011L63.7374 26.6814C63.3968 25.9074 63.0098 25.1334 62.6074 24.3904C62.3906 24.0189 62.1894 23.6474 61.9572 23.2914C59.1452 18.5984 55.0607 14.7984 50.1773 12.3319C44.9234 9.60122 39.0699 8.2283 33.1498 8.33814C27.49 8.23807 21.8775 9.38488 16.7105 11.6972C12.1801 13.651 8.31385 16.8773 5.58076 20.9849C2.87437 25.0229 1.4698 29.793 1.55608 34.6533C1.55608 48.3063 9.88406 56.8561 26.54 60.3029L37.546 62.7487C41.7 63.5222 45.555 65.4417 48.6758 68.2903C49.9425 69.4418 50.9639 70.837 51.6788 72.3924C52.1982 73.7404 52.4607 75.1737 52.4528 76.6183C52.4892 78.7427 52.0229 80.8456 51.0922 82.7555C50.1614 84.6655 48.7924 86.3284 47.0969 87.6088C43.0687 90.5592 38.1533 92.0447 33.1653 91.8192C27.511 92.0294 22.0045 89.9861 17.856 86.1382C15.2141 83.5379 13.3625 80.2427 12.5156 76.6338L11.1998 77.4852L0.457031 84.3426C0.704704 84.9618 0.983335 85.5655 1.27745 86.1692C1.57156 86.7729 2.0669 87.7172 2.51581 88.3983C5.48601 92.9898 9.6489 96.6871 14.5589 99.0946C20.082 101.756 26.1533 103.081 32.283 102.964C38.1734 103.084 44.0229 101.961 49.4498 99.6674C54.1386 97.6148 58.1715 94.3103 61.1058 90.1165C63.9009 86.043 65.3613 81.2019 65.2853 76.2623C65.2853 63.1253 56.4259 54.7045 38.707 50.9997Z" fill="black"/>
<path d="M136.493 46.3081L117.267 79.682C115.508 83.1629 113.003 86.2126 109.93 88.6137C107.295 90.4873 104.122 91.4543 100.89 91.3691C98.0017 91.4197 95.146 90.7549 92.5772 89.4341C90.2411 88.2152 88.2942 86.3648 86.9581 84.0937C85.5971 81.7429 84.8914 79.0701 84.9148 76.3539C84.9459 74.1964 85.3061 72.0562 85.9829 70.0073C86.7061 67.7058 87.6549 65.4814 88.8157 63.3666L106.153 31.8348L96.2459 26.3086L78.5837 57.1748C76.6996 60.3577 75.1437 63.7237 73.9399 67.221C72.9921 70.0272 72.4704 72.9596 72.3919 75.9205C72.2386 80.6246 73.445 85.2732 75.8665 89.3091C78.288 93.345 81.822 96.597 86.0448 98.6754C90.6642 100.927 95.7516 102.052 100.89 101.957C106.318 102.088 111.666 100.63 116.276 97.7621C121.19 94.4029 125.212 89.8975 127.994 84.6355L146.756 52.1285L136.493 46.3081Z" fill="black"/>
<path d="M442.992 65.61C443.118 59.2595 441.694 52.974 438.844 47.2977C436.309 42.0864 432.389 37.6735 427.513 34.5426C422.591 31.4886 416.896 29.9142 411.104 30.0071C405.039 29.8968 399.075 31.5708 393.953 34.8212C388.917 37.977 384.843 42.4528 382.173 47.7621C379.34 53.5388 377.913 59.904 378.009 66.3375C377.904 72.925 379.374 79.4422 382.297 85.3464C385.037 90.749 389.257 95.2609 394.465 98.3554C399.673 101.45 405.653 102.999 411.708 102.823C417.1 102.938 422.464 102.024 427.513 100.129C431.249 98.4514 434.517 95.8845 437.033 92.6527C437.856 91.7375 438.52 90.6911 438.999 89.5568L431.94 82.6375C430.441 85.2643 428.379 87.5268 425.903 89.2627C421.706 92.1555 416.695 93.6308 411.6 93.4732C407.737 93.4066 403.976 92.2298 400.764 90.0831C397.605 87.9453 395.026 85.0573 393.257 81.6778C391.449 77.9945 390.532 73.9384 390.579 69.8359H442.698C442.921 68.4388 443.02 67.0246 442.992 65.61ZM390.61 61.7556C390.612 55.9181 392.754 50.2839 396.631 45.92C398.436 43.92 400.651 42.3319 403.124 41.2635C405.597 40.1951 408.272 39.6715 410.965 39.7282C414.572 39.6635 418.117 40.6709 421.151 42.6229C424.211 44.5786 426.67 47.3431 428.256 50.6103C429.989 54.0717 430.86 57.9006 430.794 61.7711L390.61 61.7556Z" fill="black"/>
<rect x="91.1836" y="2.77734" width="58.3272" height="116.654" fill="white"/>
<path fill-rule="evenodd" clip-rule="evenodd" d="M91.1836 117.869C94.3237 118.785 97.5944 119.225 100.886 119.164C106.314 119.295 111.662 117.837 116.272 114.969C121.186 111.61 125.208 107.105 127.99 101.842L146.752 69.3355L136.489 63.5152L117.263 96.889C115.504 100.37 112.999 103.42 109.926 105.821C107.291 107.694 104.118 108.661 100.886 108.576C97.9978 108.627 95.1421 107.962 92.5733 106.641C92.093 106.391 91.6291 106.113 91.1836 105.811V117.869ZM91.1836 76.2599V52.3555L96.2419 43.5156L106.149 49.0418L91.1836 76.2599Z" fill="black"/>
<rect x="178.215" y="2.77734" width="87.9537" height="105.544" fill="white"/>
<path fill-rule="evenodd" clip-rule="evenodd" d="M266.169 21.1522C265.971 21.1518 265.773 21.1534 265.575 21.1569C260.586 21.0564 255.642 22.1162 251.133 24.2528C249.607 24.9835 248.138 25.8269 246.737 26.776C245.809 27.3993 244.934 28.0983 244.121 28.8657L247.217 39.7014C248.573 38.1108 250.258 36.8328 252.155 35.9554C255.943 33.6209 260.305 32.3831 264.755 32.3796C265.224 32.3796 265.696 32.3845 266.169 32.3964V21.1522ZM266.169 53.5042C257.144 54.4302 250.151 56.7074 245.189 60.3356C242.735 61.9536 240.73 64.1659 239.361 66.7668C237.991 69.3676 237.302 72.2726 237.356 75.2115C237.221 77.7556 237.654 80.2979 238.623 82.654C239.592 85.0101 241.074 87.121 242.96 88.8334C246.83 92.1151 252.051 93.7559 258.625 93.7559C261.302 93.7559 263.83 93.5337 266.169 93.0164V85.2486C265.161 85.402 264.139 85.4626 263.114 85.428C259.621 85.6047 256.178 84.541 253.393 82.4249C252.203 81.4576 251.253 80.2271 250.619 78.8303C249.985 77.4335 249.684 75.9085 249.74 74.3756C249.697 72.4906 250.134 70.6257 251.008 68.9554C251.883 67.285 253.167 65.8638 254.74 64.8247C257.536 62.7555 261.346 61.3655 266.169 60.6545V53.5042Z" fill="black"/>
<path fill-rule="evenodd" clip-rule="evenodd" d="M206.312 12.9634C207.277 10.3066 208.758 7.86707 210.67 5.78556C212.569 3.87142 214.843 2.37046 217.35 1.37686C219.856 0.383267 222.541 -0.0815115 225.236 0.0116938C228.135 -0.0568616 231.033 0.202781 233.873 0.78567V10.5378C231.834 10.1282 229.761 9.91049 227.682 9.88763C226.331 9.79159 224.975 9.97882 223.701 10.4373C222.427 10.8958 221.262 11.6154 220.282 12.5501C218.533 14.6594 217.648 17.353 217.806 20.0886V35.3979H232.186V45.924H217.806V92.4709H205.051V21.2651C204.919 18.4417 205.348 15.6202 206.312 12.9634Z" fill="black"/>
<path fill-rule="evenodd" clip-rule="evenodd" d="M178.219 39.0007V26.5982C181.429 25.0387 185.149 24.387 188.929 24.387C190.427 24.3783 191.919 24.5604 193.371 24.9288V36.7397C191.464 36.3699 189.525 36.1884 187.582 36.1979H187.412C184.16 36.3944 181.011 37.3588 178.219 39.0007Z" fill="black"/>
<rect x="305.055" y="12.0352" width="46.2914" height="92.5828" fill="white"/>
<path fill-rule="evenodd" clip-rule="evenodd" d="M351.346 100.848V111.815C348.208 112.567 344.989 112.933 341.759 112.903C335.542 112.992 329.409 111.467 323.958 108.476C318.716 105.44 314.382 101.058 311.404 95.7828C308.208 89.9216 306.607 83.3242 306.76 76.6501C306.669 71.7238 307.602 66.8323 309.5 62.2851C311.318 57.9998 313.988 54.1289 317.348 50.9077C320.669 47.7001 324.58 45.1664 328.865 43.4465C333.203 41.6341 337.862 40.7129 342.564 40.7376C345.531 40.7115 348.485 41.0841 351.346 41.8427V53.4033C348.588 52.1984 345.602 51.5829 342.58 51.6042C338.409 51.6163 334.309 52.6811 330.66 54.7001C327.038 56.7629 324.022 59.7417 321.914 63.3377C319.525 67.3526 318.328 71.9645 318.463 76.6346C318.281 81.5646 319.477 86.4476 321.914 90.7365C324.148 94.3762 327.369 97.3071 331.202 99.1883C335.135 101.01 339.422 101.941 343.756 101.913C346.334 101.962 348.895 101.601 351.346 100.848Z" fill="black"/>
</svg>
