<svg width="15" height="14" viewBox="0 0 15 14" fill="none" xmlns="http://www.w3.org/2000/svg">
<path d="M1.56249 6.41538V4.66538C1.73499 4.66538 1.875 4.53471 1.875 4.37371C1.875 4.21271 1.73499 4.08203 1.56249 4.08203C0.700635 4.08203 0 4.73653 0 5.54038V6.12371C0 6.60613 0.420615 6.99871 0.9375 6.99871H1.56249C1.73499 6.99871 1.875 6.86803 1.875 6.70703C1.875 6.54603 1.73499 6.41538 1.56249 6.41538Z" fill="#9F9F9F"/>
<path d="M13.4375 4.08203C13.265 4.08203 13.125 4.21271 13.125 4.37371C13.125 4.53471 13.265 4.66538 13.4375 4.66538V6.41538C13.265 6.41538 13.125 6.54606 13.125 6.70706C13.125 6.86806 13.265 6.99871 13.4375 6.99871H14.0625C14.5794 6.99871 15 6.60613 15 6.12371V5.54038C15 4.73653 14.2994 4.08203 13.4375 4.08203Z" fill="#9F9F9F"/>
<path d="M5.31253 12.25C5.14003 12.25 5.00002 12.3807 5.00002 12.5417H3.12502C3.12502 12.3807 2.98501 12.25 2.81251 12.25C2.64001 12.25 2.5 12.3807 2.5 12.5417V13.125C2.5 13.6074 2.92062 14 3.4375 14H4.68754C5.20442 14 5.62504 13.6074 5.62504 13.125V12.5417C5.62504 12.3807 5.48503 12.25 5.31253 12.25Z" fill="#9F9F9F"/>
<path d="M12.1875 12.25C12.015 12.25 11.875 12.3807 11.875 12.5417H9.99999C9.99999 12.3807 9.85998 12.25 9.68748 12.25C9.51498 12.25 9.375 12.3807 9.375 12.5417V13.125C9.375 13.6074 9.79562 14 10.3125 14H11.5625C12.0794 14 12.5 13.6074 12.5 13.125V12.5417C12.5 12.3807 12.36 12.25 12.1875 12.25Z" fill="#9F9F9F"/>
<path d="M12.1875 0H2.81249C1.95061 0 1.25 0.6545 1.25 1.45832V11.375C1.25 12.1788 1.95063 12.8333 2.81249 12.8333H12.1875C13.0494 12.8333 13.75 12.1788 13.75 11.375V1.45832C13.75 0.6545 13.0494 0 12.1875 0ZM4.0625 1.16668H10.9375C11.4544 1.16668 11.875 1.55925 11.875 2.04168C11.875 2.5241 11.4544 2.91668 10.9375 2.91668H4.0625C3.54562 2.91668 3.125 2.5241 3.125 2.04168C3.125 1.55925 3.54562 1.16668 4.0625 1.16668ZM4.0625 11.0833C3.54562 11.0833 3.125 10.6907 3.125 10.2083C3.125 9.7259 3.54562 9.33332 4.0625 9.33332C4.57939 9.33332 5 9.7259 5 10.2083C5 10.6907 4.57936 11.0833 4.0625 11.0833ZM10.9375 11.0833C10.4206 11.0833 9.99998 10.6907 9.99998 10.2083C9.99998 9.7259 10.4206 9.33332 10.9375 9.33332C11.4544 9.33332 11.875 9.7259 11.875 10.2083C11.875 10.6907 11.4544 11.0833 10.9375 11.0833ZM12.5 7.29167C12.5 7.7741 12.0794 8.16667 11.5625 8.16667H3.43748C2.9206 8.16667 2.49998 7.7741 2.49998 7.29167V4.375C2.49998 3.89257 2.9206 3.5 3.43748 3.5H11.5625C12.0794 3.5 12.5 3.89257 12.5 4.375V7.29167H12.5Z" fill="#9F9F9F"/>
</svg>
