<svg width="22" height="21" viewBox="0 0 22 21" fill="none" xmlns="http://www.w3.org/2000/svg">
<g clip-path="url(#clip0)">
<path d="M2.48046 9.62547V7.00047C2.72196 7.00047 2.91797 6.80445 2.91797 6.56295C2.91797 6.32145 2.72196 6.12544 2.48046 6.12544C1.27386 6.12544 0.292969 7.10719 0.292969 8.31297V9.18795C0.292969 9.91159 0.88183 10.5005 1.60547 10.5005H2.48046C2.72196 10.5005 2.91797 10.3044 2.91797 10.0629C2.91797 9.82144 2.72196 9.62547 2.48046 9.62547Z" fill="#424242"/>
<path d="M19.1055 6.12544C18.864 6.12544 18.668 6.32145 18.668 6.56295C18.668 6.80445 18.864 7.00047 19.1055 7.00047V9.62547C18.864 9.62547 18.668 9.82148 18.668 10.063C18.668 10.3045 18.864 10.5005 19.1055 10.5005H19.9805C20.7041 10.5005 21.293 9.91159 21.293 9.18795V8.31297C21.293 7.10719 20.3121 6.12544 19.1055 6.12544Z" fill="#424242"/>
<path d="M7.73051 18.375C7.48901 18.375 7.293 18.571 7.293 18.8125H4.668C4.668 18.571 4.47198 18.375 4.23048 18.375C3.98898 18.375 3.79297 18.571 3.79297 18.8125V19.6875C3.79297 20.4111 4.38183 21 5.10547 21H6.85552C7.57916 21 8.16802 20.4111 8.16802 19.6875V18.8125C8.16802 18.571 7.97201 18.375 7.73051 18.375Z" fill="#424242"/>
<path d="M17.3555 18.375C17.114 18.375 16.918 18.571 16.918 18.8125H14.293C14.293 18.571 14.0969 18.375 13.8554 18.375C13.6139 18.375 13.418 18.571 13.418 18.8125V19.6875C13.418 20.4111 14.0068 21 14.7305 21H16.4805C17.2041 21 17.793 20.4111 17.793 19.6875V18.8125C17.793 18.571 17.597 18.375 17.3555 18.375Z" fill="#424242"/>
<path d="M17.3555 0H4.23046C3.02382 0 2.04297 0.98175 2.04297 2.18749V17.0625C2.04297 18.2682 3.02386 19.25 4.23046 19.25H17.3555C18.5621 19.25 19.5429 18.2682 19.5429 17.0625V2.18749C19.5429 0.98175 18.5621 0 17.3555 0ZM5.98047 1.75001H15.6055C16.3291 1.75001 16.918 2.33887 16.918 3.06251C16.918 3.78615 16.3291 4.37501 15.6055 4.37501H5.98047C5.25683 4.37501 4.66797 3.78615 4.66797 3.06251C4.66797 2.33887 5.25683 1.75001 5.98047 1.75001ZM5.98047 16.625C5.25683 16.625 4.66797 16.0361 4.66797 15.3125C4.66797 14.5888 5.25683 14 5.98047 14C6.70411 14 7.29297 14.5888 7.29297 15.3125C7.29297 16.0361 6.70407 16.625 5.98047 16.625ZM15.6054 16.625C14.8818 16.625 14.2929 16.0361 14.2929 15.3125C14.2929 14.5888 14.8818 14 15.6054 14C16.3291 14 16.9179 14.5888 16.9179 15.3125C16.9179 16.0361 16.3291 16.625 15.6054 16.625ZM17.793 10.9375C17.793 11.6612 17.2041 12.25 16.4805 12.25H5.10544C4.3818 12.25 3.79294 11.6612 3.79294 10.9375V6.5625C3.79294 5.83886 4.3818 5.25 5.10544 5.25H16.4804C17.2041 5.25 17.7929 5.83886 17.7929 6.5625V10.9375H17.793Z" fill="#424242"/>
</g>
<defs>
<clipPath id="clip0">
<rect width="21" height="21" fill="white" transform="translate(0.292969)"/>
</clipPath>
</defs>
</svg>
