<svg width="16" height="16" viewBox="0 0 16 16" fill="none" xmlns="http://www.w3.org/2000/svg">
<g clip-path="url(#clip0)">
<path d="M15.5835 13.6039L9.30956 7.33L1.97957 0H1.40672L1.28975 0.297219C0.981034 1.08172 0.849128 1.88409 0.908346 2.6175C0.975846 3.4535 1.29344 4.17728 1.82685 4.71069L7.54903 10.4329L8.30378 9.67813L13.5939 15.5935C14.1202 16.1198 15.026 16.151 15.5835 15.5935C16.132 15.045 16.132 14.1525 15.5835 13.6039Z" fill="#9F9F9F"/>
<path d="M4.89687 9.10864L0.415281 13.5902C-0.133219 14.1387 -0.133219 15.0313 0.415281 15.5798C0.936344 16.1008 1.83775 16.1468 2.40481 15.5798L6.88644 11.0981L4.89687 9.10864Z" fill="#9F9F9F"/>
<path d="M15.3211 2.66422L12.7788 5.20641L12.1156 4.54322L14.6578 2.00101L13.9947 1.33782L11.4525 3.88001L10.7893 3.21682L13.3315 0.674631L12.6683 0.0114746L9.35241 3.32741C8.94675 3.73307 8.70453 4.27169 8.67028 4.84413C8.66163 4.98916 8.62875 5.13182 8.57422 5.26751L10.7283 7.42154C10.8639 7.36694 11.0066 7.3341 11.1516 7.32544C11.7241 7.29129 12.2627 7.04901 12.6683 6.64335L15.9843 3.32744L15.3211 2.66422Z" fill="#9F9F9F"/>
</g>
<defs>
<clipPath id="clip0">
<rect width="16" height="16" fill="white"/>
</clipPath>
</defs>
</svg>
