<svg width="35" height="35" viewBox="0 0 35 35" fill="none" xmlns="http://www.w3.org/2000/svg">
<ellipse rx="17.3883" ry="17.3353" transform="matrix(-1 0 0 1 17.3881 17.3353)" fill="white"/>
<path d="M25.7854 12.351L20.4143 21.6813C19.923 22.6544 19.2231 23.5071 18.3645 24.1783C17.6283 24.7021 16.742 24.9724 15.839 24.9486C15.0322 24.9628 14.2344 24.7769 13.5168 24.4077C12.8641 24.0669 12.3202 23.5496 11.947 22.9147C11.5668 22.2575 11.3696 21.5102 11.3762 20.7509C11.3848 20.1477 11.4855 19.5494 11.6746 18.9766C11.8766 18.3331 12.1417 17.7113 12.4659 17.12L17.3094 8.30472L14.5417 6.75977L9.60745 15.389C9.0811 16.2788 8.64642 17.2198 8.3101 18.1976C8.04534 18.9821 7.89957 19.8019 7.87765 20.6297C7.83482 21.9448 8.17185 23.2444 8.84835 24.3727C9.52485 25.501 10.5121 26.4102 11.6919 26.9912C12.9823 27.6208 14.4036 27.9352 15.839 27.9087C17.3555 27.9452 18.8495 27.5376 20.1376 26.7359C21.5103 25.7968 22.6339 24.5372 23.4112 23.0661L28.6525 13.9782L25.7854 12.351Z" fill="#9F9F9F"/>
</svg>
