<svg width="20" height="20" viewBox="0 0 20 20" fill="none" xmlns="http://www.w3.org/2000/svg">
<path fill-rule="evenodd" clip-rule="evenodd" d="M8.33268 1.6665H16.666C17.6263 1.6665 18.3327 2.37293 18.3327 3.33317V11.6665C18.3327 12.6267 17.6263 13.3332 16.666 13.3332H13.3327V16.6665C13.3327 17.6267 12.6263 18.3332 11.666 18.3332H3.33268C2.37245 18.3332 1.66602 17.6267 1.66602 16.6665V8.33317C1.66602 7.37293 2.37245 6.6665 3.33268 6.6665H6.66602V3.33317C6.66602 2.37293 7.37245 1.6665 8.33268 1.6665ZM6.66602 8.33317H3.33268V16.6665H11.666V13.3332H8.33268C7.37245 13.3332 6.66602 12.6267 6.66602 11.6665V8.33317ZM8.33268 3.33317V11.6665H16.666V3.33317H8.33268Z" fill="#101010"/>
</svg>
