<svg width="1312" height="86" viewBox="0 0 1312 86" fill="none" xmlns="http://www.w3.org/2000/svg">
<rect width="1312" height="86" fill="#101010"/>
<rect x="282" width="243" height="86" rx="43" fill="#A7D22C"/>
<rect x="39" width="243" height="86" rx="43" fill="#A7D22C"/>
<rect x="787" width="243" height="86" rx="43" fill="#A7D22C"/>
<rect x="1030" width="243" height="86" rx="43" fill="#A7D22C"/>
<rect x="525" width="262" height="86" rx="43" fill="#101010"/>
<path d="M1308.79 22.7276C1310.93 28.2458 1312 34.9799 1312 42.9299C1312 50.6928 1310.97 57.2866 1308.9 62.7113C1306.83 68.1359 1304.03 72.5318 1300.48 75.8989C1296.87 79.3594 1292.7 81.8847 1287.97 83.4747C1283.17 85.1582 1278.08 86 1272.69 86L1312 86L1312 42.9299L1312 -3.90846e-06L1272.69 4.42583e-06C1277.78 4.57531e-06 1282.69 0.748237 1287.42 2.2447C1292.14 3.8347 1296.35 6.26645 1300.04 9.53997C1303.73 12.907 1306.65 17.3029 1308.79 22.7276Z" fill="#A7D22C"/>
<path d="M3.21149 63.2724C1.07061 57.7542 0.000168488 51.0201 0.0001695 43.0701C0.000170489 35.3072 1.0337 28.7134 3.10075 23.2887C5.1678 17.864 7.97308 13.4682 11.5166 10.1011C15.1339 6.64058 19.305 4.11528 24.0296 2.52528C28.8282 0.841765 33.9219 -6.43184e-07 39.311 0L0.000174986 -4.69172e-06L0.0001695 43.0701L0.000164032 86L39.311 86C34.2172 86 29.308 85.2518 24.5833 83.7553C19.8586 82.1653 15.6507 79.7335 11.9595 76.46C8.26837 73.093 5.35236 68.6971 3.21149 63.2724Z" fill="#A7D22C"/>
</svg>
