<svg width="216" height="240" viewBox="0 0 216 240" fill="none" xmlns="http://www.w3.org/2000/svg">
<g clip-path="url(#clip0)">
<rect width="216" height="240" fill="#2763BD"/>
<path d="M136.542 4.13611C143.471 1.37863 151.928 -0.000110856 161.912 -0.000109174C171.661 -0.000107532 179.941 1.33109 186.754 3.99348C193.566 6.65587 199.086 10.2691 203.315 14.8332C207.661 19.4924 210.832 24.8647 212.829 30.9502C214.943 37.1307 216 43.6916 216 50.6328L216 -0.000100063L161.912 -0.000109174L108 -0.000118256L108 50.6328C108 44.0719 108.94 37.7488 110.819 31.6633C112.816 25.5778 115.87 20.158 119.98 15.4037C124.209 10.6494 129.729 6.89358 136.542 4.13611Z" fill="#101010"/>
<path d="M79.4584 235.864C72.5285 238.621 64.0718 240 54.0881 240C44.3393 240 36.0587 238.669 29.2463 236.007C22.4339 233.344 16.9135 229.731 12.6852 225.167C8.33932 220.508 5.16802 215.135 3.17128 209.05C1.05709 202.869 5.88e-06 196.308 7.62939e-06 189.367L-5.13162e-06 240L54.0881 240L108 240L108 189.367C108 195.928 107.06 202.251 105.181 208.337C103.184 214.422 100.13 219.842 96.0196 224.596C91.7912 229.351 86.2708 233.106 79.4584 235.864Z" fill="#101010"/>
<path d="M28.5416 4.13611C35.4715 1.37863 43.9282 -0.000110478 53.9119 -0.00010871C63.6607 -0.000106984 71.9413 1.33109 78.7537 3.99348C85.5661 6.65587 91.0865 10.2691 95.3148 14.8332C99.6607 19.4924 102.832 24.8647 104.829 30.9502C106.943 37.1307 108 43.6916 108 50.6328L108 -9.91333e-05L53.9119 -0.00010871L1.62494e-06 -0.000118256L5.55801e-06 50.6328C6.5923e-06 44.0719 0.939649 37.7488 2.81893 31.6633C4.81567 25.5778 7.8695 20.158 11.9804 15.4037C16.2088 10.6494 21.7292 6.89358 28.5416 4.13611Z" fill="#101010"/>
<path d="M187.458 235.864C180.529 238.621 172.072 240 162.088 240C152.339 240 144.059 238.669 137.246 236.007C130.434 233.344 124.914 229.731 120.685 225.167C116.339 220.508 113.168 215.135 111.171 209.05C109.057 202.869 108 196.308 108 189.367L108 240L162.088 240L216 240L216 189.367C216 195.928 215.06 202.251 213.181 208.337C211.184 214.422 208.13 219.842 204.02 224.596C199.791 229.351 194.271 233.106 187.458 235.864Z" fill="#101010"/>
</g>
<defs>
<clipPath id="clip0">
<rect width="216" height="240" fill="white"/>
</clipPath>
</defs>
</svg>
