<svg width="216" height="240" viewBox="0 0 216 240" fill="none" xmlns="http://www.w3.org/2000/svg">
<rect width="216" height="240" fill="#101010"/>
<path fill-rule="evenodd" clip-rule="evenodd" d="M53.9119 0C43.9282 0 35.4715 1.47043 28.5416 4.41128C21.7292 7.35212 16.2088 11.3577 11.9804 16.4282C7.86951 21.4986 4.81567 27.2789 2.81894 33.769C0.939654 40.2592 1.27999e-05 47.0028 1.29316e-05 54L0 0H53.9119ZM108 0H53.9119C63.6607 0 71.9413 1.41972 78.7537 4.25916C85.5661 7.09859 91.0865 10.9521 95.3148 15.8197C99.6607 20.7887 102.832 26.5183 104.829 33.0085C106.943 39.6 108 46.5972 108 54C108 47.0028 108.94 40.2592 110.819 33.769C112.816 27.2789 115.87 21.4986 119.98 16.4282C124.209 11.3577 129.729 7.35212 136.542 4.41128C143.471 1.47043 151.928 0 161.912 0C171.661 0 179.941 1.41972 186.754 4.25916C193.566 7.09859 199.086 10.9521 203.315 15.8197C207.661 20.7887 210.832 26.5183 212.829 33.0085C214.943 39.6 216 46.5972 216 54L216 0H161.912H108Z" fill="#A7D22C"/>
<path fill-rule="evenodd" clip-rule="evenodd" d="M54.0881 240C64.0718 240 72.5285 238.53 79.4584 235.589C86.2708 232.648 91.7912 228.642 96.0196 223.572C100.13 218.501 103.184 212.721 105.181 206.231C107.06 199.741 108 192.997 108 186L108 240L54.0881 240ZM54.0881 240L0 240L3.75387e-06 186C3.23926e-06 193.403 1.05709 200.4 3.17128 206.992C5.16802 213.482 8.33932 219.211 12.6852 224.18C16.9135 229.048 22.4339 232.901 29.2463 235.741C36.0587 238.58 44.3393 240 54.0881 240ZM162.088 240L108 240L108 186C108 193.403 109.057 200.4 111.171 206.992C113.168 213.482 116.339 219.211 120.685 224.18C124.914 229.048 130.434 232.901 137.246 235.741C144.059 238.58 152.339 240 162.088 240ZM162.088 240C172.072 240 180.529 238.53 187.458 235.589C194.271 232.648 199.791 228.642 204.02 223.572C208.13 218.501 211.184 212.721 213.181 206.231C215.06 199.741 216 192.997 216 186V240L162.088 240Z" fill="#A7D22C"/>
</svg>
