<svg width="216" height="240" viewBox="0 0 216 240" fill="none" xmlns="http://www.w3.org/2000/svg">
<g clip-path="url(#clip0)">
<rect width="216" height="240" fill="#101010"/>
<path d="M4.90141 88.6591C1.6338 80.9268 -8.58727e-06 71.4908 -7.07102e-06 60.351C-5.59044e-06 49.4733 1.57746 40.2338 4.7324 32.6325C7.88733 25.0313 12.169 18.8716 17.5775 14.1536C23.0986 9.30453 29.4648 5.766 36.6761 3.53804C44 1.17902 51.7747 -0.000481571 60 -0.000480652L1.14351e-06 -0.000487353L-7.07102e-06 60.351L-1.52588e-05 120.506L60 120.506C52.2253 120.506 44.7324 119.457 37.5211 117.36C30.3099 115.133 23.8873 111.725 18.2535 107.138C12.6197 102.42 8.16901 96.2604 4.90141 88.6591Z" fill="#A7D22C"/>
<path d="M4.90141 208.421C1.6338 200.754 -8.64333e-06 191.397 -7.13982e-06 180.351C-5.67169e-06 169.564 1.57746 160.403 4.7324 152.865C7.88733 145.328 12.169 139.22 17.5775 134.541C23.0986 129.733 29.4648 126.224 36.6761 124.015C44 121.676 51.7747 120.506 60 120.506L1.00568e-06 120.506L-7.13982e-06 180.351L-1.52588e-05 240L60 240C52.2253 240 44.7324 238.96 37.5211 236.881C30.3099 234.672 23.8873 231.293 18.2535 226.745C12.6197 222.066 8.16901 215.958 4.90141 208.421Z" fill="#A7D22C"/>
<path d="M211.099 31.8467C214.366 39.579 216 49.0151 216 60.1549C216 71.0326 214.423 80.272 211.268 87.8733C208.113 95.4746 203.831 101.634 198.423 106.352C192.901 111.201 186.535 114.74 179.324 116.968C172 119.327 164.225 120.506 156 120.506L216 120.506L216 60.1549L216 -5.466e-06L156 6.20163e-06C163.775 6.41248e-06 171.268 1.04846 178.479 3.14536C185.69 5.37332 192.113 8.78078 197.746 13.3678C203.38 18.0858 207.831 24.2454 211.099 31.8467Z" fill="#A7D22C"/>
<path d="M211.099 152.085C214.366 159.752 216 169.109 216 180.155C216 190.941 214.423 200.103 211.268 207.641C208.113 215.178 203.831 221.286 198.423 225.964C192.901 230.773 186.535 234.281 179.324 236.491C172 238.83 164.225 240 156 240L216 240L216 180.155L216 120.506L156 120.506C163.775 120.506 171.268 121.546 178.479 123.625C185.69 125.834 192.113 129.213 197.746 133.761C203.38 138.44 207.831 144.548 211.099 152.085Z" fill="#A7D22C"/>
</g>
<defs>
<clipPath id="clip0">
<rect width="216" height="240" fill="white"/>
</clipPath>
</defs>
</svg>
