<svg width="216" height="240" viewBox="0 0 216 240" fill="none" xmlns="http://www.w3.org/2000/svg">
<g clip-path="url(#clip0)">
<rect width="216" height="240" fill="#2763BD"/>
<path d="M158.917 231.177C145.057 237.059 128.144 240 108.176 240C88.6786 240 72.1175 237.161 58.4927 231.482C44.8679 225.803 33.8271 218.096 25.3703 208.361C16.6786 198.423 10.3361 186.963 6.34256 173.983C2.11418 160.8 -1.36029e-05 146.806 -1.52588e-05 132L-3.17958e-06 240L108.176 240L216 240L216 132C216 145.994 214.121 159.482 210.362 172.462C206.369 185.442 200.261 197.003 192.039 207.144C183.582 217.284 172.542 225.296 158.917 231.177Z" fill="#101010"/>
<path d="M56.8189 8.74086C70.6145 2.91363 87.4497 0 107.325 0C126.732 0 143.216 2.81315 156.778 8.43944C170.34 14.0657 181.33 21.7014 189.747 31.3465C198.399 41.1925 204.712 52.5456 208.687 65.4056C212.896 78.4667 215 92.3315 215 107L215 0H107.325H-1.57355e-05L1.10646e-05 107C1.06654e-05 93.1352 1.87059 79.7728 5.61176 66.9127C9.58674 54.0526 15.6661 42.5991 23.8499 32.5521C32.2675 22.5052 43.2572 14.5681 56.8189 8.74086Z" fill="#101010"/>
</g>
<defs>
<clipPath id="clip0">
<rect width="216" height="240" fill="white"/>
</clipPath>
</defs>
</svg>
