<svg width="416" height="290" viewBox="0 0 416 290" fill="none" xmlns="http://www.w3.org/2000/svg">
<path d="M306.062 181.825C279.369 192.608 246.795 198 208.339 198C170.788 198 138.893 192.794 112.652 182.383C86.4121 171.972 65.1484 157.842 48.8613 139.994C32.1218 121.775 19.9064 100.766 12.2153 76.969C4.07174 52.7999 -3.24778e-05 27.1436 -3.05176e-05 -3.63679e-05L-4.48167e-05 198L208.339 198L416 198L416 0C416 25.6563 412.381 50.3831 405.142 74.1803C397.451 97.9775 385.688 119.172 369.853 137.763C353.566 156.355 332.302 171.042 306.062 181.825Z" fill="#101010"/>
<path d="M0 198H416V258C416 275.673 401.673 290 384 290H32C14.3269 290 0 275.673 0 258V198Z" fill="#101010"/>
</svg>
