<svg width="205" height="119" viewBox="0 0 205 119" fill="none" xmlns="http://www.w3.org/2000/svg">
<g clip-path="url(#clip0)">
<rect width="205" height="119" fill="#2C2D2E"/>
<path d="M5.15299 87.4209C1.71781 79.7536 0.000216763 70.3968 0.000218344 59.3506C0.000219887 48.5644 1.65858 39.4025 4.97531 31.8651C8.29203 24.3277 12.7933 18.2199 18.4791 13.5415C24.2834 8.73315 30.976 5.22435 38.5571 3.01512C46.2567 0.675924 54.43 -0.493661 63.0772 -0.49366L0.000226907 -0.493667L0.000218344 59.3506L0.000209808 119L63.0771 119C54.9038 119 47.0266 117.96 39.4455 115.881C31.8644 113.672 25.1125 110.293 19.1898 105.745C13.2671 101.066 8.58816 94.9583 5.15299 87.4209Z" fill="#A7D22C"/>
<path d="M199.929 31.0849C203.364 38.7523 205.082 48.109 205.082 59.1552C205.082 69.9415 203.423 79.1033 200.107 86.6407C196.79 94.1781 192.289 100.286 186.603 104.964C180.799 109.773 174.106 113.281 166.525 115.491C158.825 117.83 150.652 119 142.005 119L205.082 119L205.082 59.1552L205.082 -0.494146L142.005 -0.494134C150.178 -0.494134 158.055 0.545506 165.637 2.62479C173.218 4.83402 179.969 8.21285 185.892 12.7613C191.815 17.4397 196.494 23.5476 199.929 31.0849Z" fill="#A7D22C"/>
</g>
<defs>
<clipPath id="clip0">
<rect width="205" height="119" fill="white"/>
</clipPath>
</defs>
</svg>
