<svg width="14" height="14" viewBox="0 0 14 14" fill="none" xmlns="http://www.w3.org/2000/svg">
<path d="M7.48792 0.326867L7.12265 0L6.75534 0.332117C4.85006 2.05507 3.85226 4.46045 4.01775 6.93145L4.01948 6.95726C4.04008 7.2648 4.07922 7.57479 4.13583 7.87858L5.27659 14L7.12638 13.0488L9.00382 13.9949L10.1436 7.87861C10.2002 7.57496 10.2394 7.26499 10.26 6.95729C10.4266 4.46901 9.41625 2.05234 7.48792 0.326867ZM9.37945 6.90591C9.36084 7.18361 9.32551 7.46342 9.27441 7.73752L8.34458 12.727L7.56536 12.3343V7.7198H6.68309V12.3367L5.93393 12.7219L5.00504 7.73752C4.95394 7.46328 4.9186 7.1835 4.90002 6.90596L4.89829 6.88015C4.77025 4.96855 5.41393 3.10064 6.68312 1.62657V6.3312H7.56539V1.61818C8.85441 3.09725 9.50858 4.97768 9.37945 6.90591Z" fill="#424242"/>
</svg>
