<svg width="487" height="280" viewBox="0 0 487 280" fill="none" xmlns="http://www.w3.org/2000/svg">
<g clip-path="url(#clip0)">
<rect width="487" height="280" fill="#101010"/>
<path d="M232.677 96.7506C230.806 98.7872 229.357 101.174 228.413 103.774C227.47 106.373 227.05 109.134 227.179 111.896V181.566H239.659V136.023H253.729V125.724H239.659V110.745C239.505 108.069 240.371 105.433 242.082 103.369C243.041 102.455 244.18 101.751 245.427 101.302C246.674 100.853 248 100.67 249.322 100.764C251.357 100.787 253.385 101 255.38 101.4V91.8586C252.601 91.2883 249.766 91.0342 246.929 91.1013C244.292 91.0101 241.665 91.4648 239.213 92.437C236.76 93.4092 234.535 94.8778 232.677 96.7506Z" fill="#A7D22C"/>
<path d="M64.4249 131.904L53.5352 129.541C51.2041 129.045 48.9622 128.197 46.8862 127.027C46.063 126.434 45.3064 125.753 44.6295 124.997C42.4025 122.506 41.2248 119.25 41.3429 115.91C41.2954 113.906 41.7236 111.92 42.5924 110.114C43.4612 108.308 44.7459 106.733 46.341 105.52C50.0174 102.661 54.5925 101.206 59.2451 101.415C61.8452 101.331 64.4342 101.792 66.8448 102.771C69.2554 103.749 71.4339 105.222 73.2396 107.095C75.6076 109.559 77.2936 112.597 78.1317 115.91L84.3717 111.26L88.9154 108.11C88.5822 107.353 88.2035 106.595 87.8097 105.868C87.5977 105.505 87.4008 105.141 87.1736 104.793C84.4222 100.201 80.4259 96.4831 75.6478 94.0698C70.5072 91.3981 64.78 90.0548 58.9876 90.1622C53.4498 90.0643 47.9584 91.1864 42.9029 93.4488C38.4702 95.3604 34.6873 98.5172 32.0132 102.536C29.3652 106.487 27.9909 111.154 28.0753 115.91C28.0753 129.268 36.2237 137.634 52.5204 141.006L63.2889 143.399C67.3534 144.156 71.1252 146.034 74.1787 148.821C75.4181 149.948 76.4174 151.313 77.1169 152.835C77.6251 154.154 77.8819 155.556 77.8742 156.97C77.9098 159.048 77.4536 161.106 76.5429 162.974C75.6323 164.843 74.2928 166.47 72.6338 167.723C68.6925 170.61 63.8832 172.063 59.0027 171.843C53.4704 172.048 48.0827 170.049 44.0237 166.284C41.4388 163.74 39.6271 160.516 38.7985 156.985L37.5111 157.818L27 164.527C27.2423 165.133 27.515 165.724 27.8027 166.314C28.0905 166.905 28.5751 167.829 29.0144 168.495C31.9205 172.988 35.9936 176.605 40.7977 178.961C46.2017 181.565 52.142 182.862 58.1394 182.747C63.9028 182.865 69.6262 181.766 74.9359 179.521C79.5237 177.513 83.4695 174.28 86.3406 170.177C89.0753 166.191 90.5043 161.454 90.4299 156.621C90.4299 143.768 81.7616 135.528 64.4249 131.904Z" fill="#A7D22C"/>
<path d="M160.102 127.314L141.291 159.968C139.57 163.374 137.119 166.358 134.112 168.707C131.534 170.54 128.429 171.487 125.267 171.403C122.441 171.453 119.647 170.802 117.134 169.51C114.848 168.317 112.943 166.507 111.636 164.285C110.304 161.985 109.614 159.37 109.637 156.712C109.667 154.601 110.019 152.507 110.682 150.502C111.389 148.25 112.318 146.074 113.453 144.005L130.416 113.153L120.723 107.746L103.442 137.946C101.599 141.061 100.076 144.354 98.8984 147.776C97.9711 150.522 97.4606 153.391 97.3838 156.288C97.2338 160.891 98.4142 165.439 100.783 169.388C103.153 173.336 106.61 176.518 110.742 178.552C115.262 180.755 120.24 181.856 125.267 181.763C130.578 181.891 135.811 180.464 140.322 177.658C145.13 174.372 149.065 169.963 151.787 164.815L170.143 133.009L160.102 127.314Z" fill="#A7D22C"/>
<path d="M197.056 119.705C193.376 123.052 191.604 125.763 190.468 131.822H190.074L190.604 115.752H178.352V181.636H190.604V150.209C190.648 146.436 191.266 142.693 192.437 139.107C193.858 135.567 196.255 132.504 199.35 130.273C202.444 128.042 206.108 126.736 209.915 126.506H210.082C211.983 126.496 213.88 126.674 215.746 127.036V115.48C214.326 115.119 212.865 114.941 211.399 114.95C206.053 114.95 200.828 116.282 197.056 119.705Z" fill="#A7D22C"/>
<path d="M459.993 146.199C460.116 139.986 458.723 133.836 455.934 128.282C453.454 123.183 449.618 118.865 444.847 115.802C440.032 112.814 434.459 111.274 428.793 111.364C422.858 111.256 417.023 112.894 412.011 116.075C407.084 119.162 403.098 123.542 400.486 128.736C397.713 134.389 396.317 140.616 396.411 146.911C396.308 153.357 397.747 159.733 400.607 165.51C403.288 170.796 407.417 175.211 412.512 178.238C417.608 181.266 423.459 182.782 429.384 182.609C434.659 182.722 439.907 181.828 444.847 179.974C448.503 178.332 451.7 175.821 454.162 172.659C454.967 171.763 455.617 170.739 456.085 169.63L449.179 162.86C447.712 165.43 445.695 167.643 443.272 169.342C439.166 172.172 434.262 173.616 429.277 173.461C425.498 173.396 421.818 172.245 418.676 170.145C415.585 168.053 413.061 165.227 411.33 161.921C409.562 158.317 408.664 154.348 408.71 150.334H459.705C459.923 148.967 460.02 147.583 459.993 146.199ZM408.74 142.428C408.742 136.717 410.838 131.204 414.632 126.934C416.398 124.977 418.565 123.423 420.985 122.378C423.404 121.333 426.021 120.82 428.657 120.876C432.186 120.812 435.654 121.798 438.622 123.708C441.617 125.622 444.023 128.326 445.574 131.523C447.27 134.91 448.122 138.656 448.058 142.443L408.74 142.428Z" fill="#A7D22C"/>
<path d="M313.946 139.69C313.946 134.54 313.098 128.755 310.72 124.741C308.387 120.697 304.945 117.407 300.799 115.26C296.372 112.896 291.414 111.702 286.396 111.792C281.515 111.693 276.677 112.73 272.265 114.821C270.772 115.536 269.334 116.361 267.964 117.289C267.056 117.899 266.199 118.583 265.404 119.334L268.433 129.936C269.76 128.38 271.408 127.129 273.265 126.271C276.971 123.987 281.239 122.776 285.593 122.772C290.137 122.772 294.999 123.242 297.907 126.271C300.815 129.3 301.723 134.374 301.723 139.084V142.113L288.38 143.31C278.869 144.117 271.558 146.389 266.449 150.125C264.048 151.708 262.086 153.873 260.746 156.418C259.407 158.962 258.732 161.805 258.785 164.68C258.653 167.169 259.076 169.657 260.025 171.962C260.973 174.267 262.423 176.333 264.268 178.008C268.055 181.219 273.164 182.825 279.596 182.825C285.502 182.825 290.667 181.719 294.635 178.69C298.603 175.661 299.451 174.146 301.875 169.284H302.329C302.329 176.675 302.768 178.508 303.647 181.613H315.536C314.418 175.315 313.911 168.925 314.022 162.529L313.946 139.69ZM301.829 154.654C302.039 159.923 300.242 165.076 296.801 169.072C295.219 170.904 293.247 172.358 291.03 173.328C288.813 174.297 286.406 174.758 283.988 174.676C280.57 174.849 277.201 173.808 274.476 171.738C273.311 170.792 272.382 169.588 271.762 168.221C271.142 166.854 270.847 165.362 270.902 163.862C270.86 162.018 271.287 160.193 272.143 158.559C272.998 156.925 274.255 155.534 275.794 154.517C279.055 152.104 283.725 150.635 289.804 150.11L301.829 149.035V154.654Z" fill="#A7D22C"/>
<path d="M350.082 125.834C353.653 123.859 357.664 122.817 361.744 122.805C365.245 122.781 368.696 123.629 371.786 125.274C374.87 126.925 377.696 129.017 380.177 131.484L387.552 124.093C385.894 121.839 383.842 119.905 381.494 118.383C378.779 116.443 375.773 114.945 372.589 113.945C369.096 112.74 365.424 112.141 361.729 112.173C357.129 112.149 352.57 113.05 348.325 114.824C344.133 116.506 340.306 118.985 337.057 122.124C333.769 125.276 331.157 129.063 329.378 133.256C327.522 137.705 326.609 142.491 326.697 147.311C326.548 153.841 328.114 160.296 331.241 166.031C334.155 171.192 338.395 175.48 343.524 178.45C348.858 181.376 354.859 182.869 360.942 182.782C364.522 182.815 368.09 182.351 371.544 181.404C374.613 180.594 377.569 179.403 380.343 177.86C382.594 176.681 384.64 175.147 386.401 173.316L380.873 164.638C378.697 166.718 376.208 168.446 373.497 169.757C370.186 171.322 366.557 172.099 362.895 172.029C358.655 172.056 354.46 171.146 350.612 169.363C346.861 167.522 343.71 164.655 341.525 161.094C339.14 156.897 337.97 152.119 338.147 147.296C338.016 142.726 339.187 138.214 341.525 134.286C343.587 130.767 346.538 127.853 350.082 125.834Z" fill="#A7D22C"/>
<path d="M64.4249 131.904L53.5352 129.541C51.2041 129.045 48.9622 128.197 46.8862 127.027C46.063 126.434 45.3064 125.753 44.6295 124.997C42.4025 122.506 41.2248 119.25 41.3429 115.91C41.2954 113.906 41.7236 111.92 42.5924 110.114C43.4612 108.308 44.7459 106.733 46.341 105.52C50.0174 102.661 54.5925 101.206 59.2451 101.415C61.8452 101.331 64.4342 101.792 66.8448 102.771C69.2554 103.749 71.4339 105.222 73.2396 107.095C75.6076 109.559 77.2936 112.597 78.1317 115.91L84.3717 111.26L88.9154 108.11C88.5822 107.353 88.2035 106.595 87.8097 105.868C87.5977 105.505 87.4008 105.141 87.1736 104.793C84.4222 100.201 80.4259 96.4831 75.6478 94.0698C70.5072 91.3981 64.78 90.0548 58.9876 90.1622C53.4498 90.0643 47.9584 91.1864 42.9029 93.4488C38.4702 95.3604 34.6873 98.5172 32.0132 102.536C29.3652 106.487 27.9909 111.154 28.0753 115.91C28.0753 129.268 36.2237 137.634 52.5204 141.006L63.2889 143.399C67.3534 144.156 71.1252 146.034 74.1787 148.821C75.4181 149.948 76.4174 151.313 77.1169 152.835C77.6251 154.154 77.8819 155.556 77.8742 156.97C77.9098 159.048 77.4536 161.106 76.5429 162.974C75.6323 164.843 74.2928 166.47 72.6338 167.723C68.6925 170.61 63.8832 172.063 59.0027 171.843C53.4704 172.048 48.0827 170.049 44.0237 166.284C41.4388 163.74 39.6271 160.516 38.7985 156.985L37.5111 157.818L27 164.527C27.2423 165.133 27.515 165.724 27.8027 166.314C28.0905 166.905 28.5751 167.829 29.0144 168.495C31.9205 172.988 35.9936 176.605 40.7977 178.961C46.2017 181.565 52.142 182.862 58.1394 182.747C63.9028 182.865 69.6262 181.766 74.9359 179.521C79.5237 177.513 83.4695 174.28 86.3406 170.177C89.0753 166.191 90.5043 161.454 90.4299 156.621C90.4299 143.768 81.7616 135.528 64.4249 131.904Z" fill="#A7D22C"/>
<path d="M160.102 127.314L141.291 159.968C139.57 163.374 137.119 166.358 134.112 168.707C131.534 170.54 128.429 171.487 125.267 171.403C122.441 171.453 119.647 170.802 117.134 169.51C114.848 168.317 112.943 166.507 111.636 164.285C110.304 161.985 109.614 159.37 109.637 156.712C109.667 154.601 110.019 152.507 110.682 150.502C111.389 148.25 112.318 146.074 113.453 144.005L130.416 113.153L120.723 107.746L103.442 137.946C101.599 141.061 100.076 144.354 98.8984 147.776C97.9711 150.522 97.4606 153.391 97.3838 156.288C97.2338 160.891 98.4142 165.439 100.783 169.388C103.153 173.336 106.61 176.518 110.742 178.552C115.262 180.755 120.24 181.856 125.267 181.763C130.578 181.891 135.811 180.464 140.322 177.658C145.13 174.372 149.065 169.963 151.787 164.815L170.143 133.009L160.102 127.314Z" fill="#A7D22C"/>
<path d="M459.993 146.199C460.116 139.986 458.723 133.836 455.934 128.282C453.454 123.183 449.618 118.865 444.847 115.802C440.032 112.814 434.459 111.274 428.793 111.364C422.858 111.256 417.023 112.894 412.011 116.075C407.084 119.162 403.098 123.542 400.486 128.736C397.713 134.389 396.317 140.616 396.411 146.911C396.308 153.357 397.747 159.733 400.607 165.51C403.288 170.796 407.417 175.211 412.512 178.238C417.608 181.266 423.459 182.782 429.384 182.609C434.659 182.722 439.907 181.828 444.847 179.974C448.503 178.332 451.7 175.821 454.162 172.659C454.967 171.763 455.617 170.739 456.085 169.63L449.179 162.86C447.712 165.43 445.695 167.643 443.272 169.342C439.166 172.172 434.262 173.616 429.277 173.461C425.498 173.396 421.818 172.245 418.676 170.145C415.585 168.053 413.061 165.227 411.33 161.921C409.562 158.317 408.664 154.348 408.71 150.334H459.705C459.923 148.967 460.02 147.583 459.993 146.199ZM408.74 142.428C408.742 136.717 410.838 131.204 414.632 126.934C416.398 124.977 418.565 123.423 420.985 122.378C423.404 121.333 426.021 120.82 428.657 120.876C432.186 120.812 435.654 121.798 438.622 123.708C441.617 125.622 444.023 128.326 445.574 131.523C447.27 134.91 448.122 138.656 448.058 142.443L408.74 142.428Z" fill="#A7D22C"/>
<rect x="115.777" y="84.7188" width="57.069" height="114.138" fill="#101010"/>
<path fill-rule="evenodd" clip-rule="evenodd" d="M115.777 197.329C118.849 198.224 122.049 198.654 125.268 198.595C130.579 198.723 135.812 197.296 140.323 194.49C145.131 191.204 149.066 186.795 151.788 181.647L170.145 149.841L160.103 144.146L141.293 176.8C139.572 180.206 137.12 183.19 134.113 185.539C131.535 187.372 128.431 188.319 125.268 188.235C122.443 188.285 119.649 187.634 117.135 186.342C116.666 186.097 116.213 185.826 115.777 185.531V197.329ZM115.777 156.613V133.224L120.725 124.578L130.418 129.985L115.777 156.613Z" fill="#A7D22C"/>
<rect x="200.926" y="84.7227" width="86.0565" height="103.268" fill="#101010"/>
<path fill-rule="evenodd" clip-rule="evenodd" d="M286.983 102.697C286.789 102.697 286.594 102.698 286.4 102.702C281.518 102.603 276.681 103.64 272.269 105.731C270.776 106.446 269.338 107.271 267.968 108.2C267.06 108.809 266.203 109.493 265.408 110.244L268.437 120.846C269.764 119.29 271.412 118.039 273.269 117.181C276.975 114.897 281.243 113.686 285.597 113.682C286.057 113.682 286.52 113.687 286.983 113.699V102.697ZM286.983 134.351C278.152 135.257 271.308 137.485 266.453 141.035C264.052 142.618 262.09 144.783 260.75 147.328C259.41 149.872 258.736 152.715 258.789 155.59C258.657 158.079 259.08 160.567 260.029 162.872C260.977 165.178 262.426 167.243 264.272 168.918C268.058 172.129 273.168 173.735 279.599 173.735C282.22 173.735 284.695 173.517 286.983 173.01V165.41C285.997 165.561 284.995 165.62 283.992 165.586C280.574 165.759 277.205 164.719 274.48 162.648C273.315 161.702 272.386 160.498 271.766 159.131C271.146 157.764 270.851 156.272 270.906 154.772C270.864 152.928 271.291 151.103 272.147 149.469C273.002 147.835 274.259 146.444 275.798 145.428C278.535 143.403 282.263 142.042 286.983 141.347V134.351Z" fill="#A7D22C"/>
<path fill-rule="evenodd" clip-rule="evenodd" d="M228.413 94.6838C229.357 92.0843 230.806 89.6974 232.677 87.6608C234.535 85.7879 236.76 84.3193 239.213 83.3472C241.665 82.375 244.292 81.9202 246.929 82.0114C249.766 81.9444 252.601 82.1984 255.38 82.7687V92.3105C253.385 91.9097 251.357 91.6967 249.322 91.6744C248 91.5804 246.674 91.7636 245.427 92.2122C244.18 92.6608 243.041 93.3649 242.082 94.2794C240.371 96.3432 239.505 98.9787 239.659 101.655V116.634H253.729V126.933H239.659V172.476H227.179V102.806C227.05 100.044 227.47 97.2833 228.413 94.6838Z" fill="#A7D22C"/>
<path fill-rule="evenodd" clip-rule="evenodd" d="M200.922 120.156V108.022C204.062 106.497 207.701 105.86 211.398 105.86C212.863 105.851 214.324 106.029 215.745 106.39V117.946C213.878 117.584 211.981 117.407 210.08 117.416H209.913C206.733 117.608 203.653 118.551 200.922 120.156Z" fill="#A7D22C"/>
<rect x="325.027" y="93.7812" width="45.2929" height="90.5858" fill="#101010"/>
<path fill-rule="evenodd" clip-rule="evenodd" d="M370.322 180.675V191.405C367.252 192.141 364.102 192.499 360.942 192.47C354.859 192.556 348.858 191.064 343.524 188.138C338.395 185.168 334.155 180.88 331.241 175.718C328.114 169.984 326.548 163.529 326.697 156.998C326.609 152.178 327.522 147.392 329.378 142.943C331.157 138.75 333.769 134.963 337.057 131.811C340.306 128.673 344.133 126.194 348.325 124.511C352.57 122.738 357.129 121.836 361.729 121.861C364.632 121.835 367.522 122.2 370.322 122.942V134.253C367.623 133.074 364.701 132.472 361.744 132.493C357.664 132.505 353.653 133.547 350.082 135.522C346.538 137.54 343.587 140.455 341.525 143.973C339.187 147.901 338.016 152.414 338.147 156.983C337.97 161.807 339.14 166.585 341.525 170.781C343.71 174.342 346.861 177.21 350.612 179.051C354.46 180.833 358.655 181.744 362.895 181.716C365.418 181.765 367.924 181.411 370.322 180.675Z" fill="#A7D22C"/>
</g>
<defs>
<clipPath id="clip0">
<rect width="487" height="280" fill="white"/>
</clipPath>
</defs>
</svg>
