<svg width="27" height="23" viewBox="0 0 27 23" fill="none" xmlns="http://www.w3.org/2000/svg">
<g clip-path="url(#clip0)">
<path d="M2.84536 16.6432L3.98203 17.0881L4.19959 16.5308L3.89403 16.0174L2.84536 16.6432V16.6432ZM6.36781 20.2879L7.02781 19.26L6.38736 18.8481L5.73592 19.2429L6.36781 20.2879ZM2.52636 11.0234C2.52636 5.62366 6.89703 1.24566 12.2895 1.24566V0.0234375C7.09137 0.0234375 1.26503 4.02866 1.26503 11.0234H2.52636ZM3.89525 16.0174C2.99622 14.5069 2.52277 12.7812 2.52514 11.0234H1.26503C1.26503 12.8568 1.83581 15.3012 2.84536 16.6432L3.89403 16.0174H3.89525ZM1.11959 21.5174C2.04848 20.4932 3.26336 18.93 3.98203 17.0881L2.84536 16.6432C2.2807 18.0903 1.35059 19.2465 0.179698 20.6998L1.11959 21.5187V21.5174ZM0.585476 20.6081C0.731189 20.59 0.878699 20.6224 1.00348 20.6998C1.09678 20.7561 1.17156 20.8385 1.21859 20.9369C1.26049 21.0328 1.27345 21.1388 1.25586 21.242C1.23827 21.3451 1.1909 21.4409 1.11959 21.5174L0.179698 20.6985C0.179698 20.6985 -0.108746 20.9528 0.0452538 21.4123C0.216365 21.9257 0.748032 21.8193 0.748032 21.8193L0.585476 20.6081V20.6081ZM5.73592 19.2441C5.21159 19.5619 4.38659 19.8503 3.40392 20.0911C2.44448 20.3258 1.42881 20.4944 0.585476 20.6081L0.748032 21.8181C1.64025 21.6983 2.6327 21.5529 3.70581 21.2901C4.75692 21.0334 5.51959 20.7401 6.36781 20.2891L5.73592 19.2441ZM12.2895 20.8012C10.4236 20.8047 8.59627 20.27 7.02659 19.2612L6.36781 20.2891C8.13132 21.4302 10.189 22.0328 12.2895 22.0234V20.8012ZM15.9097 20.8012H12.2895V22.0234H15.9097V20.8012ZM25.6716 11.0234C25.6716 16.4232 21.3009 20.8012 15.9085 20.8012V22.0234C22.4999 22.0234 26.8926 16.5234 26.8926 11.0234H25.6716V11.0234ZM15.9085 1.24566C21.3009 1.24566 25.6716 5.62366 25.6716 11.0234H26.8926C26.8926 4.42344 21.4011 0.0234375 15.9097 0.0234375V1.24566H15.9085ZM12.2895 1.24566H15.9097V0.0234375H12.2895V1.24566Z" fill="#101010" fill-opacity="0.3"/>
</g>
<defs>
<clipPath id="clip0">
<rect width="26.8926" height="22.0001" fill="white" transform="translate(0 0.0234375)"/>
</clipPath>
</defs>
</svg>
