<svg width="22" height="22" viewBox="0 0 22 22" fill="none" xmlns="http://www.w3.org/2000/svg">
<path fill-rule="evenodd" clip-rule="evenodd" d="M3.66634 1.83334H18.333C19.3455 1.83334 20.1663 2.65415 20.1663 3.66668V18.3333C20.1663 19.3459 19.3455 20.1667 18.333 20.1667H3.66634C2.65382 20.1667 1.83301 19.3459 1.83301 18.3333V3.66668C1.83301 2.65415 2.65382 1.83334 3.66634 1.83334ZM3.66633 3.66668V14.287L7.333 10.6203L10.5413 13.8286L16.4997 7.87031L18.333 9.70366V3.66668H3.66633ZM3.66633 18.3333V16.8797L7.333 13.213L12.4533 18.3333H3.66633ZM18.333 18.3333H15.046L11.8377 15.125L16.4997 10.463L18.333 12.2964V18.3333ZM12.833 7.33334C12.833 5.81456 11.6018 4.58334 10.083 4.58334C8.56422 4.58334 7.33301 5.81456 7.33301 7.33334C7.33301 8.85213 8.56422 10.0833 10.083 10.0833C11.6018 10.0833 12.833 8.85213 12.833 7.33334ZM9.16633 7.33334C9.16633 6.82708 9.57674 6.41668 10.083 6.41668C10.5893 6.41668 10.9997 6.82708 10.9997 7.33334C10.9997 7.8396 10.5893 8.25001 10.083 8.25001C9.57674 8.25001 9.16633 7.8396 9.16633 7.33334Z" fill="#9F9F9F"/>
</svg>
