<svg width="22" height="22" viewBox="0 0 22 22" fill="none" xmlns="http://www.w3.org/2000/svg">
<path fill-rule="evenodd" clip-rule="evenodd" d="M4.58333 12.8332C3.57081 12.8332 2.75 12.0124 2.75 10.9998C2.75 9.98732 3.57081 9.1665 4.58333 9.1665C5.59585 9.1665 6.41667 9.98732 6.41667 10.9998C6.41667 12.0124 5.59585 12.8332 4.58333 12.8332ZM11 12.8332C9.98749 12.8332 9.16667 12.0124 9.16667 10.9998C9.16667 9.98732 9.98749 9.1665 11 9.1665C12.0125 9.1665 12.8333 9.98732 12.8333 10.9998C12.8333 12.0124 12.0125 12.8332 11 12.8332ZM15.5833 10.9998C15.5833 12.0124 16.4041 12.8332 17.4167 12.8332C18.4292 12.8332 19.25 12.0124 19.25 10.9998C19.25 9.98732 18.4292 9.1665 17.4167 9.1665C16.4041 9.1665 15.5833 9.98732 15.5833 10.9998Z" fill="#9F9F9F"/>
</svg>
