<svg width="19" height="19" viewBox="0 0 19 19" fill="none" xmlns="http://www.w3.org/2000/svg">
<path fill-rule="evenodd" clip-rule="evenodd" d="M17.4173 15.8335V10.2918H15.834V15.8335H3.16732V3.16683H8.70898V1.5835H3.16732C2.29287 1.5835 1.58398 2.29238 1.58398 3.16683V15.8335C1.58398 16.7079 2.29287 17.4168 3.16732 17.4168H15.834C16.7084 17.4168 17.4173 16.7079 17.4173 15.8335ZM15.1833 2.15621C14.8204 1.79045 14.3236 1.5835 13.8052 1.5835C13.2875 1.5835 12.7911 1.78999 12.4262 2.15716L5.8008 8.78245C5.20877 9.30409 4.82067 10.0803 4.75323 10.9151L4.75066 13.4603V14.252H8.02388C8.92187 14.1904 9.70572 13.7985 10.2587 13.1606L16.8465 6.57562C17.212 6.21012 17.4174 5.71441 17.4174 5.19752C17.4174 4.68063 17.212 4.18491 16.8465 3.81942L15.1833 2.15621ZM7.96797 12.6706C8.3909 12.6407 8.78458 12.4439 9.1007 12.0823L13.8997 7.28329L11.7192 5.10268L6.88507 9.93523C6.56432 10.2189 6.3659 10.6158 6.33399 10.9788V12.6691L7.96797 12.6706ZM12.839 3.98328L15.0192 6.16371L15.7269 5.45601C15.7955 5.38745 15.834 5.29446 15.834 5.1975C15.834 5.10053 15.7955 5.00754 15.7269 4.93898L14.0615 3.27357C13.9937 3.20524 13.9015 3.16681 13.8052 3.16681C13.709 3.16681 13.6167 3.20524 13.5489 3.27357L12.839 3.98328Z" fill="#101010"/>
</svg>
