<svg width="31" height="34" viewBox="0 0 31 34" fill="none" xmlns="http://www.w3.org/2000/svg">
<path d="M29.2888 3.84592e-08H1.70969C0.76535 0.0006226 -0.000189174 0.840662 3.50658e-08 1.87681V32.1249C0.000567664 33.1606 0.766486 34.0002 1.71121 34H16.5596V20.8516H12.5332V15.7051H16.5596V11.9176C16.5596 7.52549 19.0043 5.13486 22.5766 5.13486C24.2876 5.13486 25.758 5.27473 26.1865 5.33719V9.92773H23.7232C21.7797 9.92773 21.4033 10.9406 21.4033 12.4273V15.7051H26.0503L25.4448 20.8516H21.4033V34H29.2888C30.2337 34.0002 30.9998 33.1604 31 32.124C31 32.1238 31 32.1236 31 32.1232V1.87515C30.9996 0.839417 30.2335 -0.000207481 29.2888 3.84592e-08Z" fill="#9F9F9F"/>
</svg>
