<svg width="17" height="17" viewBox="0 0 17 17" fill="none" xmlns="http://www.w3.org/2000/svg">
<path d="M16.0616 1.92296e-08H0.937573C0.419708 0.0003113 -0.000103741 0.420331 1.92296e-08 0.938403V16.0624C0.0003113 16.5803 0.420331 17.0001 0.938403 17H9.08105V10.4258H6.87305V7.85254H9.08105V5.95882C9.08105 3.76274 10.4217 2.56743 12.3807 2.56743C13.319 2.56743 14.1253 2.63737 14.3604 2.6686V4.96387H13.0095C11.9437 4.96387 11.7373 5.47032 11.7373 6.21365V7.85254H14.2856L13.9536 10.4258H11.7373V17H16.0616C16.5798 17.0001 16.9999 16.5802 17 16.062V16.062V0.937573C16.9998 0.419708 16.5797 -0.000103741 16.0616 1.92296e-08Z" fill="white"/>
</svg>
