<svg width="20" height="19" viewBox="0 0 20 19" fill="none" xmlns="http://www.w3.org/2000/svg">
<path d="M19.4807 4.83498C19.0187 4.78477 9.59637 3.76066 9.17184 3.71454C9.10203 3.70697 9.02383 3.71313 8.96305 3.72756L4.74063 4.73085C4.4798 4.79282 4.29688 5.01544 4.29688 5.27087V5.67918L2.53906 6.64332V3.62551C3.33062 3.38853 3.90625 2.68471 3.90625 1.85547C3.90625 0.832363 3.03008 0 1.95312 0C0.876172 0 0 0.832363 0 1.85547C0 2.68471 0.575625 3.38853 1.36719 3.62551V18.4434C1.36719 18.7508 1.62953 19 1.95312 19C2.27672 19 2.53906 18.7508 2.53906 18.4434V8.57156L4.29688 9.5357V9.94401C4.29688 10.1994 4.47984 10.4221 4.74063 10.484L8.96305 11.4873C9.02727 11.5026 9.10141 11.508 9.17184 11.5003C9.34434 11.4816 19.3077 10.3987 19.4807 10.3799C19.7766 10.3477 20 10.1098 20 9.82686V5.38802C20 5.10506 19.7766 4.86715 19.4807 4.83498ZM1.95312 2.59766C1.52234 2.59766 1.17188 2.26471 1.17188 1.85547C1.17188 1.44623 1.52234 1.11328 1.95312 1.11328C2.38391 1.11328 2.73438 1.44623 2.73438 1.85547C2.73438 2.26471 2.38391 2.59766 1.95312 2.59766ZM4.29688 8.25016L3.125 7.60742L4.29688 6.96465V8.25016ZM8.5193 10.2343L5.46875 9.50939V5.70545L8.5193 4.9806V10.2343ZM12.2577 10.0444L9.69117 10.3233V4.89153L12.2577 5.17049V10.0444ZM15.8805 9.65063L13.4296 9.91704V5.29785L15.8805 5.56425V9.65063V9.65063ZM18.8281 9.33022L17.0524 9.52323V5.69161L18.8281 5.88462V9.33022Z" fill="#424242"/>
</svg>
