<svg width="260" height="320" viewBox="0 0 260 320" fill="none" xmlns="http://www.w3.org/2000/svg">
<path d="M2.53 58V45.22H4.15V56.56H11.278V58H2.53ZM12.7897 58V48.604H14.3737V58H12.7897ZM12.7897 46.84V44.86H14.3737V46.84H12.7897ZM20.6822 58.108C20.0462 58.108 19.4582 57.982 18.9182 57.73C18.3902 57.466 17.9342 57.112 17.5502 56.668C17.1662 56.212 16.8662 55.696 16.6502 55.12C16.4462 54.544 16.3442 53.944 16.3442 53.32C16.3442 52.66 16.4462 52.036 16.6502 51.448C16.8662 50.86 17.1662 50.344 17.5502 49.9C17.9462 49.444 18.4082 49.09 18.9362 48.838C19.4642 48.574 20.0522 48.442 20.7002 48.442C21.4802 48.442 22.1582 48.634 22.7342 49.018C23.3222 49.402 23.8142 49.888 24.2102 50.476V48.604H25.6142V57.892C25.6142 58.78 25.3982 59.53 24.9662 60.142C24.5462 60.754 23.9702 61.216 23.2382 61.528C22.5182 61.852 21.7142 62.014 20.8262 62.014C19.7702 62.014 18.9062 61.828 18.2342 61.456C17.5622 61.084 17.0042 60.58 16.5602 59.944L17.4782 59.134C17.8502 59.686 18.3302 60.1 18.9182 60.376C19.5182 60.652 20.1542 60.79 20.8262 60.79C21.4022 60.79 21.9302 60.682 22.4102 60.466C22.9022 60.262 23.2922 59.944 23.5802 59.512C23.8802 59.08 24.0302 58.54 24.0302 57.892V56.236C23.6822 56.812 23.2022 57.268 22.5902 57.604C21.9902 57.94 21.3542 58.108 20.6822 58.108ZM21.1682 56.812C21.5042 56.812 21.8282 56.752 22.1402 56.632C22.4522 56.512 22.7402 56.356 23.0042 56.164C23.2682 55.96 23.4902 55.732 23.6702 55.48C23.8502 55.228 23.9702 54.97 24.0302 54.706V52.006C23.8622 51.574 23.6222 51.196 23.3102 50.872C22.9982 50.536 22.6442 50.278 22.2482 50.098C21.8522 49.906 21.4442 49.81 21.0242 49.81C20.5442 49.81 20.1122 49.912 19.7282 50.116C19.3562 50.32 19.0382 50.596 18.7742 50.944C18.5102 51.28 18.3062 51.658 18.1622 52.078C18.0182 52.498 17.9462 52.924 17.9462 53.356C17.9462 53.824 18.0302 54.268 18.1982 54.688C18.3662 55.096 18.5942 55.462 18.8822 55.786C19.1702 56.11 19.5122 56.362 19.9082 56.542C20.3042 56.722 20.7242 56.812 21.1682 56.812ZM36.3246 58H34.7406V52.744C34.7406 51.784 34.5666 51.064 34.2186 50.584C33.8826 50.104 33.3966 49.864 32.7606 49.864C32.3526 49.864 31.9386 49.972 31.5186 50.188C31.1106 50.404 30.7506 50.698 30.4386 51.07C30.1266 51.43 29.8986 51.85 29.7546 52.33V58H28.1706V44.86H29.7546V50.62C30.1266 49.948 30.6306 49.42 31.2666 49.036C31.9146 48.64 32.6106 48.442 33.3546 48.442C33.9186 48.442 34.3866 48.544 34.7586 48.748C35.1426 48.94 35.4486 49.216 35.6766 49.576C35.9046 49.936 36.0666 50.356 36.1626 50.836C36.2706 51.304 36.3246 51.82 36.3246 52.384V58ZM43.5599 57.532C43.4279 57.592 43.2479 57.67 43.0199 57.766C42.7919 57.862 42.5279 57.946 42.2279 58.018C41.9279 58.09 41.6099 58.126 41.2739 58.126C40.8899 58.126 40.5359 58.06 40.2119 57.928C39.8879 57.784 39.6299 57.568 39.4379 57.28C39.2459 56.98 39.1499 56.608 39.1499 56.164V49.846H37.8719V48.604H39.1499V45.472H40.7339V48.604H42.8399V49.846H40.7339V55.678C40.7579 56.014 40.8719 56.266 41.0759 56.434C41.2799 56.59 41.5199 56.668 41.7959 56.668C42.1079 56.668 42.3959 56.614 42.6599 56.506C42.9239 56.398 43.0979 56.32 43.1819 56.272L43.5599 57.532ZM49.5807 58V48.604H51.1647V58H49.5807ZM49.5807 46.84V44.86H51.1647V46.84H49.5807ZM58.5892 57.532C58.4572 57.592 58.2772 57.67 58.0492 57.766C57.8212 57.862 57.5572 57.946 57.2572 58.018C56.9572 58.09 56.6392 58.126 56.3032 58.126C55.9192 58.126 55.5652 58.06 55.2412 57.928C54.9172 57.784 54.6592 57.568 54.4672 57.28C54.2752 56.98 54.1792 56.608 54.1792 56.164V49.846H52.9012V48.604H54.1792V45.472H55.7632V48.604H57.8692V49.846H55.7632V55.678C55.7872 56.014 55.9012 56.266 56.1052 56.434C56.3092 56.59 56.5492 56.668 56.8252 56.668C57.1372 56.668 57.4252 56.614 57.6892 56.506C57.9532 56.398 58.1272 56.32 58.2112 56.272L58.5892 57.532ZM59.3193 55.282C59.3193 54.682 59.4873 54.166 59.8233 53.734C60.1713 53.29 60.6453 52.948 61.2453 52.708C61.8453 52.468 62.5413 52.348 63.3333 52.348C63.7533 52.348 64.1973 52.384 64.6653 52.456C65.1333 52.516 65.5473 52.612 65.9073 52.744V52.06C65.9073 51.34 65.6913 50.776 65.2593 50.368C64.8273 49.948 64.2153 49.738 63.4233 49.738C62.9073 49.738 62.4093 49.834 61.9293 50.026C61.4613 50.206 60.9633 50.47 60.4353 50.818L59.8593 49.702C60.4713 49.282 61.0833 48.97 61.6953 48.766C62.3073 48.55 62.9433 48.442 63.6033 48.442C64.8033 48.442 65.7513 48.778 66.4473 49.45C67.1433 50.11 67.4913 51.034 67.4913 52.222V56.2C67.4913 56.392 67.5273 56.536 67.5993 56.632C67.6833 56.716 67.8153 56.764 67.9953 56.776V58C67.8393 58.024 67.7013 58.042 67.5813 58.054C67.4733 58.066 67.3833 58.072 67.3113 58.072C66.9393 58.072 66.6573 57.97 66.4653 57.766C66.2853 57.562 66.1833 57.346 66.1593 57.118L66.1233 56.524C65.7153 57.052 65.1813 57.46 64.5213 57.748C63.8613 58.036 63.2073 58.18 62.5593 58.18C61.9353 58.18 61.3773 58.054 60.8853 57.802C60.3933 57.538 60.0093 57.19 59.7333 56.758C59.4573 56.314 59.3193 55.822 59.3193 55.282ZM65.4393 55.948C65.5833 55.78 65.6973 55.612 65.7813 55.444C65.8653 55.264 65.9073 55.114 65.9073 54.994V53.824C65.5353 53.68 65.1453 53.572 64.7373 53.5C64.3293 53.416 63.9273 53.374 63.5313 53.374C62.7273 53.374 62.0733 53.536 61.5693 53.86C61.0773 54.172 60.8313 54.604 60.8313 55.156C60.8313 55.456 60.9093 55.75 61.0653 56.038C61.2333 56.314 61.4733 56.542 61.7853 56.722C62.1093 56.902 62.5053 56.992 62.9733 56.992C63.4653 56.992 63.9333 56.896 64.3773 56.704C64.8213 56.5 65.1753 56.248 65.4393 55.948ZM70.0601 44.86H71.6441V55.57C71.6441 56.086 71.7161 56.404 71.8601 56.524C72.0041 56.644 72.1781 56.704 72.3821 56.704C72.6341 56.704 72.8741 56.68 73.1021 56.632C73.3301 56.572 73.5221 56.512 73.6781 56.452L73.9301 57.748C73.6661 57.856 73.3541 57.946 72.9941 58.018C72.6341 58.09 72.3161 58.126 72.0401 58.126C71.4281 58.126 70.9421 57.952 70.5821 57.604C70.2341 57.256 70.0601 56.77 70.0601 56.146V44.86ZM75.1745 58V48.604H76.7585V58H75.1745ZM75.1745 46.84V44.86H76.7585V46.84H75.1745ZM83.4809 58.18C82.7729 58.18 82.1249 58.054 81.5369 57.802C80.9609 57.538 80.4569 57.178 80.0249 56.722C79.6049 56.266 79.2749 55.744 79.0349 55.156C78.8069 54.568 78.6929 53.944 78.6929 53.284C78.6929 52.396 78.8909 51.586 79.2869 50.854C79.6829 50.122 80.2409 49.54 80.9609 49.108C81.6809 48.664 82.5149 48.442 83.4629 48.442C84.3869 48.442 85.1909 48.652 85.8749 49.072C86.5709 49.48 87.0869 50.032 87.4229 50.728L85.8749 51.214C85.6349 50.77 85.2989 50.428 84.8669 50.188C84.4349 49.936 83.9549 49.81 83.4269 49.81C82.8509 49.81 82.3229 49.96 81.8429 50.26C81.3749 50.56 81.0029 50.974 80.7269 51.502C80.4509 52.018 80.3129 52.612 80.3129 53.284C80.3129 53.944 80.4509 54.544 80.7269 55.084C81.0149 55.612 81.3929 56.032 81.8609 56.344C82.3409 56.656 82.8689 56.812 83.4449 56.812C83.8169 56.812 84.1709 56.746 84.5069 56.614C84.8549 56.482 85.1549 56.308 85.4069 56.092C85.6709 55.864 85.8509 55.618 85.9469 55.354L87.4949 55.822C87.3029 56.278 87.0089 56.686 86.6129 57.046C86.2289 57.394 85.7669 57.67 85.2269 57.874C84.6989 58.078 84.1169 58.18 83.4809 58.18Z" fill="white"/>
<path d="M8.416 89.462L11.926 101H13.51L9.712 88.4H9.136L8.416 89.462ZM0.37 101H1.234L3.268 97.742L10.54 96.95H3.754L8.362 89.57L0.37 101ZM18.0484 101.126C19.8664 101.126 21.7564 99.56 22.8544 97.166C21.7924 99.02 20.2084 100.262 18.8764 100.262C17.5084 100.262 16.8424 98.84 17.2744 96.662C17.7964 93.998 19.4704 92.252 21.4324 92.252C22.2964 92.252 23.1604 92.558 23.6464 93.062C23.0704 92.36 21.9724 91.91 20.7844 91.91C18.3184 91.91 16.3384 93.836 15.7444 96.824C15.2584 99.434 16.1584 101.126 18.0484 101.126ZM22.2424 101H23.6284L25.3744 92H23.9884L22.2424 101ZM33.6559 101L36.1039 88.4H34.6639L32.2159 101H33.6559ZM34.3399 101H36.6079C39.7039 101 41.7199 99.74 42.1339 97.508C42.5839 95.276 41.0359 93.998 37.9939 93.998C37.3639 93.998 36.4459 94.052 35.6719 94.142L37.8139 94.214C40.0099 94.304 40.9999 95.456 40.6039 97.418C40.2259 99.398 38.7859 100.604 36.5359 100.838L34.3399 101ZM36.2479 88.4L42.7639 89.282L42.9259 88.4H36.2479ZM53.6504 96.518C54.1544 93.98 52.9844 92.252 50.6624 91.964C52.0484 92.378 52.6244 94.088 52.1564 96.518C51.6884 98.948 50.4284 100.658 48.8984 101.072C51.3284 100.784 53.1644 99.056 53.6504 96.518ZM47.4764 101.072C46.0904 100.658 45.5144 98.948 45.9824 96.518C46.4504 94.088 47.7104 92.378 49.2404 91.964C46.8104 92.252 44.9924 93.98 44.4884 96.518C44.0024 99.056 45.1544 100.784 47.4764 101.072ZM50.7164 87.806C47.7104 88.148 45.6764 90.416 44.9204 94.286C45.7844 91.226 47.8004 89.354 50.6804 89.03L54.6764 88.58L54.9104 87.356L50.7164 87.806ZM62.8341 101H65.2101C68.4681 101 70.5561 99.83 70.9701 97.688C71.2941 95.996 70.3581 94.898 68.3241 94.538C70.1781 94.124 71.3481 93.098 71.6361 91.532C72.0321 89.534 70.5381 88.4 67.4961 88.4H65.2821L67.3701 88.544C69.4761 88.778 70.4301 89.84 70.0881 91.604C69.7101 93.566 67.9281 94.322 66.4341 94.466C66.1281 94.502 65.2821 94.538 65.0301 94.556C65.3181 94.574 66.3081 94.61 66.5961 94.646C68.1621 94.826 69.8361 95.546 69.4401 97.67C69.0801 99.488 67.5861 100.604 65.1741 100.838L62.8341 101ZM60.7101 101H62.1501L64.5981 88.4H63.1581L60.7101 101ZM76.8768 101C79.4148 101 81.0528 100.118 81.3588 98.606C81.5928 97.382 80.7108 96.554 78.8568 96.284C80.5488 96.014 81.6468 95.276 81.8628 94.16C82.1328 92.81 80.9088 92 78.5508 92H76.9848L78.6048 92.108C80.0268 92.252 80.6748 93.008 80.4408 94.232C80.1168 95.798 78.3348 96.086 77.0568 96.284C78.3708 96.5 80.2428 96.914 79.9008 98.624C79.6668 99.902 78.6408 100.694 77.0208 100.874L75.2388 101H76.8768ZM74.5548 101L76.3008 92H74.9148L73.1688 101H74.5548ZM90.1696 101L92.6176 88.4H91.1776L88.7296 101H90.1696ZM92.7616 88.4L99.4216 89.282L99.5836 88.4H92.7616ZM100.352 101.126C102.008 101.126 103.556 100.514 104.366 99.596C103.682 100.136 102.476 100.496 101.342 100.496C99.7041 100.496 98.7681 99.758 99.0021 98.588C99.1641 97.724 100.028 96.914 101.18 96.536C99.2541 96.86 97.8681 97.85 97.6161 99.074C97.3821 100.316 98.4621 101.126 100.352 101.126ZM98.8941 93.386C99.5601 92.846 100.64 92.486 101.684 92.486C103.178 92.486 104.024 93.26 103.79 94.448C103.628 95.294 102.89 96.104 101.936 96.428C103.664 96.14 104.924 95.15 105.158 93.944C105.41 92.684 104.402 91.874 102.638 91.874C101.144 91.874 99.6681 92.468 98.8941 93.386ZM109.921 104.15L111.397 101H122.179L122.467 104.15L123.169 100.478H121.855L124.195 88.4H122.755L120.415 100.478H112.495C113.863 99.236 114.871 96.392 116.257 89.3C114.619 96.338 113.143 99.596 111.739 100.478H110.641L109.921 104.15ZM116.257 89.156L122.593 88.4H116.311L116.257 89.156ZM130.019 101.072C132.449 100.784 134.285 99.056 134.771 96.518C135.275 93.98 134.105 92.252 131.783 91.964C133.169 92.378 133.745 94.088 133.277 96.518C132.809 98.948 131.549 100.658 130.019 101.072ZM128.597 101.072C127.211 100.658 126.635 98.948 127.103 96.518C127.571 94.088 128.831 92.378 130.361 91.964C127.931 92.252 126.113 93.98 125.609 96.518C125.123 99.056 126.275 100.784 128.597 101.072ZM135.113 94.286C135.941 90.02 133.385 87.356 128.489 87.356L128.291 88.31C132.881 88.31 135.509 90.632 135.113 94.286ZM141.921 101H143.361L145.809 88.4H144.369L141.921 101ZM150.813 101L150.975 100.118L143.505 101H150.813ZM145.953 88.4L153.009 89.282L153.171 88.4H145.953ZM150.831 95.078L151.011 94.232L144.747 94.628L150.831 95.078ZM157.419 101.126C159.147 101.126 160.677 100.388 161.703 99.074C160.785 99.902 159.507 100.406 158.283 100.406C156.051 100.406 154.989 98.768 155.511 96.068C155.907 94.034 157.077 92.414 158.463 91.964C156.213 92.252 154.431 94.106 153.945 96.644C153.405 99.38 154.791 101.126 157.419 101.126ZM156.015 96.572C159.813 96.572 162.099 95.654 162.405 94.034C162.639 92.864 161.757 92.054 160.137 91.964C160.947 92.216 161.361 92.954 161.199 93.872C160.911 95.33 159.075 96.32 156.015 96.572ZM170.519 101L172.967 88.4H171.527L169.079 101H170.519ZM177.971 101L178.133 100.118L170.663 101H177.971ZM180.167 89.282L180.329 88.4H173.111L180.167 89.282ZM171.905 94.628L177.989 95.078L178.169 94.232L171.905 94.628ZM177.737 85.682C177.665 86.15 177.899 86.456 178.367 86.456C178.835 86.456 179.195 86.15 179.285 85.682C179.375 85.214 179.141 84.908 178.673 84.908C178.205 84.908 177.827 85.214 177.737 85.682ZM173.975 85.682C173.903 86.15 174.137 86.456 174.605 86.456C175.073 86.456 175.433 86.15 175.523 85.682C175.613 85.214 175.379 84.908 174.911 84.908C174.443 84.908 174.065 85.214 173.975 85.682ZM184.577 101.126C186.305 101.126 187.835 100.388 188.861 99.074C187.943 99.902 186.665 100.406 185.441 100.406C183.209 100.406 182.147 98.768 182.669 96.068C183.065 94.034 184.235 92.414 185.621 91.964C183.371 92.252 181.589 94.106 181.103 96.644C180.563 99.38 181.949 101.126 184.577 101.126ZM183.173 96.572C186.971 96.572 189.257 95.654 189.563 94.034C189.797 92.864 188.915 92.054 187.295 91.964C188.105 92.216 188.519 92.954 188.357 93.872C188.069 95.33 186.233 96.32 183.173 96.572ZM188.681 89.606C189.149 89.606 189.509 89.3 189.599 88.832C189.689 88.364 189.455 88.058 188.987 88.058C188.519 88.058 188.141 88.364 188.051 88.832C187.979 89.3 188.213 89.606 188.681 89.606ZM184.919 89.606C185.387 89.606 185.747 89.3 185.837 88.832C185.927 88.364 185.693 88.058 185.225 88.058C184.757 88.058 184.379 88.364 184.289 88.832C184.217 89.3 184.451 89.606 184.919 89.606ZM9.442 124L11.89 111.4H10.468L8.02 124H9.442ZM0.298 124H1.936L8.272 117.394H6.652L0.298 124ZM15.526 124H17.146L13.384 117.394H11.764L15.526 124ZM19.144 111.4H17.92L12.484 117.25L19.144 111.4ZM3.214 111.4L7.606 117.25L4.438 111.4H3.214ZM25.9141 124L27.6601 115H26.3101L24.5641 124H25.9141ZM30.5401 124H32.1061L29.4241 119.32H27.8581L30.5401 124ZM18.3721 124H19.9201L24.4381 119.32H22.8901L18.3721 124ZM33.5461 115H32.4121L28.5061 119.158L33.5461 115ZM20.4241 115L23.8261 119.158L21.5581 115H20.4241ZM43.5562 124.054C46.8502 124 49.0822 122.722 49.4962 120.598C49.8022 119.014 48.9202 117.898 47.0122 117.538C48.8122 117.196 49.9462 116.134 50.2522 114.64C50.6482 112.588 49.0822 111.4 46.0222 111.346C48.1642 111.688 49.0642 112.822 48.7222 114.586C48.3442 116.512 46.6702 117.43 45.1942 117.538C46.8682 117.718 48.3442 118.582 47.9482 120.598C47.5702 122.578 45.9862 123.694 43.5562 124.054ZM45.0502 111.346C42.5122 111.346 41.5402 112.174 41.0542 114.676C41.8642 113.002 43.4302 111.688 45.0502 111.346ZM40.0642 123.388C40.4602 123.82 41.2342 124.054 42.4762 124.054C40.9822 123.712 39.9562 122.398 39.8122 120.724C39.5602 122.02 39.5782 122.866 40.0642 123.388ZM44.9422 117.538L43.1422 117.178L42.9982 117.898L44.9422 117.538ZM55.3247 124.036C57.4127 124.036 58.9247 123.136 59.2307 121.624C59.4827 120.346 58.7267 119.518 57.2147 119.302C58.6007 119.068 59.4827 118.294 59.6987 117.178C59.9687 115.774 58.9607 114.964 57.1067 114.964C58.0967 115.144 58.5827 115.972 58.3667 117.142C58.1507 118.186 57.3947 119.032 56.1347 119.302C57.5207 119.608 58.0067 120.508 57.7727 121.66C57.5207 122.938 56.5847 123.838 55.3247 124.036ZM53.9927 124.072C52.9667 123.928 52.4267 123.226 52.5887 122.326C52.6607 121.948 52.8587 121.534 53.0747 121.21C52.9487 121.138 52.7687 121.084 52.5707 121.084C52.0487 121.084 51.6167 121.552 51.4907 122.182C51.2747 123.28 52.2467 123.982 53.9927 124.072ZM53.2727 117.916C53.4707 117.916 53.6507 117.88 53.7947 117.808C53.7047 117.484 53.6867 117.052 53.7587 116.674C53.9207 115.792 54.7307 115.072 55.7567 114.946C54.0287 115.018 52.8407 115.72 52.6247 116.836C52.4987 117.466 52.7507 117.916 53.2727 117.916ZM55.8467 119.302L54.5867 119.014L54.4607 119.608L55.8467 119.302ZM78.3883 113.362C78.5683 113.182 78.7483 112.894 78.8563 112.678L78.9103 112.696C78.8023 112.912 78.6583 113.218 78.6043 113.452L76.5703 124H77.9743L80.4223 111.4H79.0723L68.4163 122.956L78.3883 113.362ZM68.0563 124L70.5043 111.4H69.0643L66.6163 124H68.0563ZM82.0408 121.21C81.6808 123.028 82.4188 124.126 84.0208 124.126C85.9288 124.126 87.8728 122.56 88.9708 120.166C87.9268 122.038 86.2888 123.28 84.8668 123.28C83.7148 123.28 83.1748 122.452 83.4628 121.012L84.6328 115H83.2468L82.0408 121.21ZM89.7448 124L91.4908 115H90.1048L88.3588 124H89.7448ZM100.11 122.956L110.082 113.362C110.262 113.182 110.442 112.894 110.55 112.678L110.604 112.696C110.496 112.912 110.352 113.218 110.298 113.452L108.264 124H109.668L112.116 111.4H110.766L100.11 122.956ZM99.7497 124L102.198 111.4H100.758L98.3097 124H99.7497ZM104.088 109.042C103.926 109.978 104.736 110.5 106.266 110.572C105.384 110.464 104.916 109.924 105.078 109.15C105.132 108.808 105.294 108.502 105.51 108.214C105.42 108.16 105.258 108.124 105.096 108.124C104.61 108.124 104.196 108.502 104.088 109.042ZM106.914 110.572C108.48 110.5 109.506 109.978 109.668 109.042C109.776 108.502 109.542 108.124 109.056 108.124C108.894 108.124 108.714 108.16 108.606 108.214C108.714 108.502 108.732 108.808 108.678 109.15C108.516 109.924 107.85 110.464 106.914 110.572ZM113.734 121.21C113.374 123.028 114.112 124.126 115.714 124.126C117.622 124.126 119.566 122.56 120.664 120.166C119.62 122.038 117.982 123.28 116.56 123.28C115.408 123.28 114.868 122.452 115.156 121.012L116.326 115H114.94L113.734 121.21ZM121.438 124L123.184 115H121.798L120.052 124H121.438ZM116.812 112.12C116.65 113.056 117.46 113.596 119.008 113.65C118.108 113.56 117.64 113.02 117.802 112.228C117.856 111.904 118.018 111.598 118.234 111.292C118.144 111.238 117.982 111.202 117.82 111.202C117.334 111.202 116.92 111.58 116.812 112.12ZM119.656 113.65C121.204 113.596 122.23 113.056 122.41 112.12C122.518 111.58 122.266 111.202 121.78 111.202C121.618 111.202 121.456 111.238 121.33 111.292C121.438 111.598 121.474 111.904 121.42 112.228C121.258 113.02 120.574 113.56 119.656 113.65ZM130.003 124H131.443L133.891 111.4H132.451L130.003 124ZM137.959 124H139.615L135.331 117.394H133.675L137.959 124ZM134.449 117.25L141.595 111.4H140.371L134.449 117.25ZM143.197 124L144.943 115H143.557L141.811 124H143.197ZM148.057 124H149.623L146.635 119.32H145.069L148.057 124ZM145.753 119.158L150.919 115H149.821L145.753 119.158ZM167.494 124L169.942 111.4H168.502L166.054 124H167.494ZM157.054 124.126C159.052 124.126 160.312 121.138 162.04 112.3C160.204 120.13 159.016 123.082 157.666 123.082C157.288 123.082 157.072 122.848 157.126 122.47C157.18 122.308 157.27 122.056 157.36 121.93C157.252 121.876 157.09 121.822 156.91 121.822C156.388 121.822 156.028 122.218 155.902 122.812C155.74 123.622 156.226 124.126 157.054 124.126ZM162.058 112.156L168.34 111.4H162.094L162.058 112.156ZM178.785 124L180.531 115H179.145L177.399 124H178.785ZM170.847 124.126C172.323 124.126 173.205 122.092 174.429 115.882C173.097 121.264 172.269 123.19 171.351 123.19C171.063 123.19 170.901 123.01 170.973 122.74C170.991 122.596 171.063 122.434 171.171 122.308C171.081 122.254 170.937 122.2 170.775 122.2C170.343 122.2 170.019 122.524 169.929 123.028C169.803 123.712 170.163 124.126 170.847 124.126ZM174.447 115.72L178.983 115H174.501L174.447 115.72ZM195.136 122.83L202.012 112.804C202.156 112.588 202.3 112.282 202.39 112.048L202.444 112.066C202.354 112.282 202.21 112.588 202.174 112.84L199.996 124H201.382L203.83 111.4H202.138L195.136 122.83ZM190.15 111.4L193.768 124H194.362L195.082 122.938L191.716 111.4H190.15ZM188.098 124L190.006 111.4L187.234 124H188.098ZM210.911 122.83L215.465 116.386C215.609 116.17 215.771 115.882 215.861 115.648L215.915 115.666C215.825 115.9 215.681 116.188 215.645 116.44L214.169 124H215.501L217.247 115H215.609L210.911 122.83ZM207.005 115L209.633 124H210.137L210.857 122.938L208.499 115H207.005ZM205.583 124L206.861 115L204.827 124H205.583ZM3.07 147L4.186 141.168L12.592 140.376H4.348L5.518 134.4H4.078L1.63 147H3.07ZM11.458 147H12.898L15.346 134.4H13.906L11.458 147ZM17.8126 147L18.6046 142.914L24.1846 142.176H18.7486L19.5586 138H18.1726L16.4266 147H17.8126ZM23.3926 147H24.7786L26.5246 138H25.1386L23.3926 147ZM40.0541 147.036C43.3301 146.604 45.8141 144.21 46.4981 140.7C47.1821 137.19 45.6341 134.796 42.5201 134.364C44.6441 134.922 45.6161 137.298 44.9501 140.7C44.2841 144.102 42.4121 146.478 40.0541 147.036ZM37.8941 147.036C35.7701 146.478 34.7981 144.102 35.4641 140.7C36.1301 137.298 38.0021 134.922 40.3781 134.364C37.0841 134.796 34.6001 137.19 33.9161 140.7C33.2321 144.21 34.7981 146.604 37.8941 147.036ZM52.7459 147.072C55.1759 146.784 57.0119 145.038 57.5159 142.5C58.0019 139.944 56.8319 138.216 54.5099 137.928C55.8959 138.342 56.4899 140.052 56.0219 142.5C55.5359 144.948 54.2759 146.658 52.7459 147.072ZM51.3239 147.072C49.9379 146.658 49.3619 144.948 49.8299 142.5C50.2979 140.052 51.5579 138.342 53.0879 137.928C50.6579 138.216 48.8399 139.944 48.3539 142.5C47.8499 145.038 49.0019 146.784 51.3239 147.072ZM64.5597 147H65.9997L68.3037 135.174L76.6917 134.4H67.0077L64.5597 147ZM74.3877 147H75.8277L78.2757 134.4H76.8357L74.3877 147ZM81.8943 141.834C82.9383 139.962 84.5943 138.72 86.0343 138.72C87.2043 138.72 87.7443 139.548 87.4563 140.97L86.3043 147H87.6903L88.8963 140.79C89.2383 138.972 88.5003 137.874 86.8803 137.874C84.9543 137.874 82.9923 139.44 81.8943 141.834ZM79.3563 147H80.7423L82.4883 138H81.1023L79.3563 147ZM97.6403 147L100.088 134.4H98.6483L96.2003 147H97.6403ZM99.4763 141.042C100.196 141.132 101.078 141.186 101.708 141.186C104.642 141.186 106.622 139.944 107.036 137.784C107.45 135.624 105.974 134.4 102.986 134.4H100.772L102.824 134.562C104.894 134.796 105.848 135.966 105.47 137.874C105.11 139.764 103.724 140.88 101.582 140.988L99.4763 141.042ZM109.543 145.938C110.101 146.64 111.217 147.09 112.405 147.09C114.853 147.09 116.851 145.164 117.427 142.176C117.931 139.566 117.013 137.874 115.123 137.874C113.305 137.874 111.433 139.44 110.353 141.834C111.397 139.98 112.981 138.738 114.313 138.738C115.681 138.738 116.329 140.16 115.897 142.338C115.393 145.002 113.719 146.748 111.757 146.748C110.893 146.748 110.029 146.424 109.543 145.938ZM106.987 151.14H108.391L110.947 138H109.561L106.987 151.14ZM128.949 147.054C126.807 146.496 125.853 144.12 126.519 140.7C127.185 137.262 129.075 134.886 131.433 134.346C128.139 134.778 125.673 137.172 124.971 140.7C124.287 144.228 125.853 146.622 128.949 147.054ZM135.699 143.652C134.871 145.362 133.233 146.694 131.595 147.054C134.295 147.054 135.177 146.298 135.699 143.652ZM133.971 134.346C135.483 134.688 136.599 136.038 136.761 137.73C137.031 136.38 137.013 135.516 136.527 135.012C136.095 134.526 135.285 134.346 133.971 134.346ZM141.756 147.126C143.466 147.126 145.014 146.388 146.076 145.074C145.176 145.884 143.772 146.406 142.548 146.406C140.352 146.406 139.344 144.768 139.866 142.122C140.262 140.034 141.54 138.414 143.07 137.964C140.658 138.252 138.786 140.106 138.282 142.662C137.76 145.38 139.11 147.126 141.756 147.126ZM144.492 137.964C145.464 138.09 145.95 138.774 145.752 139.836C145.68 140.214 145.554 140.538 145.266 140.934C145.392 141.006 145.554 141.06 145.716 141.06C146.166 141.06 146.688 140.52 146.832 139.8C147.048 138.72 146.166 138.036 144.492 137.964ZM157.198 147H158.638L161.086 134.4H159.646L157.198 147ZM166 135.282L166.18 134.4H161.248L166 135.282ZM159.502 134.4H154.57L154.39 135.282L159.502 134.4ZM173.576 141.708C174.566 139.908 176.078 138.72 177.392 138.72C178.472 138.72 178.94 139.548 178.652 140.97L177.5 147H178.886L180.092 140.79C180.434 138.972 179.75 137.874 178.238 137.874C176.456 137.874 174.62 139.386 173.576 141.708ZM167.096 141.708C168.086 139.908 169.598 138.72 170.912 138.72C171.992 138.72 172.46 139.548 172.172 140.97L171.02 147H172.406L173.612 140.79C173.954 138.972 173.27 137.874 171.758 137.874C169.976 137.874 168.14 139.386 167.096 141.708ZM164.54 147H165.926L167.672 138H166.286L164.54 147ZM188.6 134.4L192.812 143.544L193.91 142.212L190.328 134.4H188.6ZM188.744 147.126C189.77 147.126 190.85 146.262 191.912 144.624C190.958 145.686 190.094 146.262 189.482 146.262C189.05 146.262 188.852 145.992 188.942 145.578C188.996 145.308 189.158 145.02 189.356 144.858C189.212 144.786 189.014 144.732 188.798 144.732C188.222 144.732 187.772 145.128 187.646 145.776C187.484 146.586 187.934 147.126 188.744 147.126ZM200.516 134.4H199.436L194.09 142.032L200.516 134.4ZM202.147 151.212C204.649 151.086 206.575 149.484 207.025 147.144L208.807 138H207.421L205.549 147.63C205.189 149.502 203.839 150.906 202.147 151.212ZM199.357 144.21C198.997 146.028 199.735 147.126 201.337 147.126C203.245 147.126 205.189 145.56 206.287 143.166C205.243 145.038 203.605 146.28 202.183 146.28C201.031 146.28 200.491 145.452 200.779 144.012L201.949 138H200.563L199.357 144.21ZM198.475 149.106C198.241 150.366 199.123 151.158 200.815 151.212C199.897 151.086 199.393 150.384 199.573 149.466C199.663 148.944 199.951 148.422 200.275 148.134C200.131 148.026 199.915 147.954 199.681 147.954C199.087 147.954 198.619 148.404 198.475 149.106ZM8.632 170.126L11.134 157.274H9.712L7.21 170.126H8.632ZM6.418 168.686C4.078 168.236 3.088 166.472 3.628 163.7C4.168 160.91 5.842 159.182 8.344 158.714C4.87 159.074 2.656 160.838 2.116 163.7C1.558 166.562 3.07 168.326 6.418 168.686ZM10.054 168.686C13.528 168.326 15.724 166.562 16.282 163.7C16.84 160.838 15.31 159.074 11.98 158.714C14.32 159.182 15.31 160.91 14.77 163.7C14.23 166.472 12.556 168.236 10.054 168.686ZM23.4844 174.14L26.9404 156.392L25.5364 156.608L22.1164 174.14H23.4844ZM19.6144 170.126C21.0364 170.126 22.5664 168.56 23.5384 166.166C22.6564 168.02 21.4504 169.244 20.4784 169.244C19.4704 169.244 19.0924 167.822 19.5064 165.662C20.0284 162.98 21.3424 161.252 22.7824 161.252C23.4124 161.252 23.9884 161.558 24.3304 162.062C23.9164 161.36 23.0884 160.91 22.1524 160.91C20.2264 160.91 18.5884 162.836 17.9944 165.824C17.5084 168.434 18.1384 170.126 19.6144 170.126ZM26.8144 170.09C28.7404 170.09 30.3964 168.164 30.9724 165.176C31.4764 162.566 30.8284 160.874 29.3524 160.874C27.9304 160.874 26.4004 162.44 25.4644 164.834C26.3104 162.98 27.5344 161.756 28.4884 161.756C29.4964 161.756 29.9104 163.178 29.4784 165.338C28.9564 168.02 27.6424 169.748 26.2024 169.748C25.5724 169.748 24.9784 169.424 24.6364 168.938C25.0504 169.64 25.8964 170.09 26.8144 170.09ZM47.198 170H48.962L41.186 157.4H39.422L47.198 170ZM37.874 170L43.184 163.844L36.794 170H37.874ZM51.068 157.4H49.988L44.912 163.124L51.068 157.4ZM57.7481 170H59.4581L53.9141 161H52.2401L57.7481 170ZM50.3501 170H51.3581L54.9581 165.752L50.3501 170ZM61.0601 161H60.0701L56.5601 164.996L61.0601 161ZM68.6749 170H78.6469L78.8989 173.15L79.6189 169.478H78.2869L80.6269 157.4H79.1869L76.8829 169.226L68.6749 170ZM67.0909 170H68.5309L70.9789 157.4H69.5389L67.0909 170ZM82.533 167.21C82.173 169.028 82.911 170.126 84.513 170.126C86.421 170.126 88.365 168.56 89.463 166.166C88.419 168.038 86.781 169.28 85.359 169.28C84.207 169.28 83.667 168.452 83.955 167.012L85.125 161H83.739L82.533 167.21ZM88.851 170H90.633L90.885 172.88L91.551 169.496H90.327L91.983 161H90.597L88.851 170ZM108.925 170L111.373 157.382H109.933L107.485 170H108.925ZM100.447 161.648C100.015 163.808 101.149 165.086 103.525 165.086C105.163 165.086 107.125 164.546 108.547 163.7C107.215 164.168 105.415 164.492 104.281 164.492C102.427 164.492 101.527 163.466 101.869 161.72L102.715 157.382H101.275L100.447 161.648ZM120.142 170L121.888 161H120.502L118.756 170H120.142ZM113.32 163.988C112.996 165.68 113.77 166.742 115.552 166.742C116.794 166.742 118.378 166.202 119.494 165.428C118.504 165.878 117.172 166.166 116.362 166.166C115.03 166.166 114.436 165.356 114.688 164.06L115.282 161H113.896L113.32 163.988ZM147.169 170L149.617 157.4H148.177L145.855 169.244L138.817 170H147.169ZM138.673 170L141.121 157.4H139.681L137.359 169.244L130.321 170H138.673ZM130.177 170L132.625 157.4H131.185L128.737 170H130.177ZM151.211 167.21C150.851 169.028 151.535 170.126 153.047 170.126C154.829 170.126 156.665 168.614 157.709 166.292C156.719 168.092 155.207 169.28 153.911 169.28C152.813 169.28 152.345 168.452 152.633 167.012L153.803 161H152.417L151.211 167.21ZM157.691 167.21C157.331 169.028 158.015 170.126 159.527 170.126C161.309 170.126 163.145 168.614 164.189 166.292C163.199 168.092 161.687 169.28 160.391 169.28C159.293 169.28 158.825 168.452 159.113 167.012L160.283 161H158.897L157.691 167.21ZM165.017 170L166.763 161H165.377L163.631 170H165.017ZM183.677 170H192.497L192.749 173.15L193.451 169.478H192.137L194.477 157.4H193.037L190.715 169.244L183.677 170ZM175.181 170H183.533L185.981 157.4H184.541L182.219 169.244L175.181 170ZM173.597 170H175.037L177.485 157.4H176.045L173.597 170ZM196.386 167.21C196.026 169.028 196.71 170.126 198.222 170.126C200.004 170.126 201.84 168.614 202.884 166.292C201.894 168.092 200.382 169.28 199.086 169.28C197.988 169.28 197.52 168.452 197.808 167.012L198.978 161H197.592L196.386 167.21ZM202.866 167.21C202.506 169.028 203.19 170.126 204.702 170.126C206.484 170.126 208.32 168.614 209.364 166.292C208.374 168.092 206.862 169.28 205.566 169.28C204.468 169.28 204 168.452 204.288 167.012L205.458 161H204.072L202.866 167.21ZM208.806 170H210.588L210.84 172.88L211.506 169.496H210.282L211.938 161H210.552L208.806 170ZM223.028 170H224.468L226.916 157.4H225.476L223.028 170ZM227.402 170C230.48 170 232.478 168.776 232.892 166.616C233.306 164.438 231.794 163.214 228.77 163.214C228.122 163.214 227.222 163.268 226.448 163.358L228.59 163.412C230.75 163.52 231.722 164.618 231.362 166.526C230.984 168.434 229.58 169.604 227.348 169.838L225.152 170H227.402ZM225.332 157.4H220.4L220.22 158.282L225.332 157.4ZM236.668 170H238.054L239.8 161H238.414L236.668 170ZM238.756 170H240.268C242.788 170 244.426 169.1 244.714 167.57C245.02 166.022 243.742 165.14 241.204 165.14H239.692L241.294 165.266C242.86 165.446 243.544 166.238 243.274 167.57C243.022 168.902 242.032 169.694 240.412 169.874L238.756 170ZM234.67 161.828L238.27 161H234.814L234.67 161.828ZM13.348 193H14.788L17.236 180.4H15.796L13.348 193ZM3.07 193L5.518 180.4H4.078L1.63 193H3.07ZM6.004 193C9.082 193 11.062 191.776 11.476 189.616C11.908 187.438 10.378 186.214 7.354 186.214C6.724 186.214 5.806 186.268 5.05 186.358L7.174 186.412C9.352 186.52 10.324 187.618 9.946 189.526C9.586 191.434 8.164 192.604 5.932 192.838L3.754 193H6.004ZM27.9554 193H29.3414L31.0874 184H29.7014L27.9554 193ZM19.6934 193L21.4394 184H20.0534L18.3074 193H19.6934ZM20.3774 193H21.8894C24.4094 193 26.0474 192.1 26.3354 190.57C26.6414 189.022 25.3634 188.14 22.8254 188.14H21.3134L22.9154 188.266C24.4994 188.446 25.1654 189.238 24.9134 190.57C24.6434 191.902 23.6534 192.694 22.0334 192.874L20.3774 193ZM37.9288 193H39.3688L41.8168 180.4H40.3768L37.9288 193ZM42.3028 193C45.3808 193 47.3608 191.776 47.7748 189.616C48.2068 187.438 46.6768 186.214 43.6528 186.214C43.0228 186.214 42.1048 186.268 41.3488 186.358L43.4728 186.412C45.6508 186.52 46.6228 187.618 46.2448 189.526C45.8848 191.434 44.4628 192.604 42.2308 192.838L40.0528 193H42.3028ZM51.0704 193L52.8164 184H51.4304L49.6844 193H51.0704ZM53.2664 193C55.7864 193 57.4244 192.1 57.7124 190.57C58.0184 189.022 56.7404 188.14 54.2024 188.14H52.6904L54.2924 188.266C55.8764 188.446 56.5424 189.238 56.2904 190.57C56.0204 191.902 55.0304 192.694 53.4104 192.874L51.7544 193H53.2664ZM77.0047 186.7C77.7067 183.172 76.1407 180.778 73.0267 180.346C75.1687 180.886 76.1227 183.262 75.4747 186.7C74.8087 190.12 72.9187 192.496 70.5607 193.054C73.8367 192.622 76.3207 190.228 77.0047 186.7ZM69.4807 187.078L75.3127 186.628L69.6607 186.232L69.4807 187.078ZM65.3587 192.388C65.8087 192.874 66.6187 193.054 67.9327 193.054C66.4027 192.694 65.3047 191.362 65.1427 189.652C64.8727 191.002 64.8907 191.884 65.3587 192.388ZM70.4887 180.346C67.8067 180.346 66.8887 181.084 66.3667 183.73C67.1947 182.038 68.8327 180.688 70.4887 180.346ZM85.692 188.572C85.224 190.966 83.964 192.64 82.398 193.036C84.864 192.748 86.718 191.038 87.204 188.5C87.708 185.962 86.52 184.234 84.162 183.964C85.548 184.36 86.16 185.98 85.746 188.302L81.966 188.122L81.84 188.752L85.692 188.572ZM80.94 193.072C79.914 192.928 79.374 192.226 79.536 191.326C79.608 190.948 79.806 190.534 80.022 190.21C79.896 190.138 79.734 190.084 79.536 190.084C78.996 190.084 78.564 190.552 78.438 191.182C78.222 192.28 79.194 192.982 80.94 193.072ZM80.22 186.916C80.418 186.916 80.598 186.88 80.742 186.808C80.652 186.484 80.634 186.052 80.706 185.674C80.868 184.792 81.678 184.072 82.704 183.946C80.976 184.018 79.788 184.72 79.572 185.836C79.446 186.466 79.698 186.916 80.22 186.916ZM94.2667 193H95.7067L96.8227 187.168L100.639 186.376H96.9847L98.1547 180.4H96.7147L94.2667 193ZM112.645 186.7C113.311 183.172 111.853 180.778 108.901 180.346C110.899 180.904 111.763 183.28 111.097 186.7C110.431 190.12 108.631 192.496 106.417 193.054C109.567 192.622 111.961 190.228 112.645 186.7ZM104.455 193.054C102.457 192.496 101.611 190.12 102.259 186.7C102.925 183.28 104.725 180.904 106.939 180.346C103.789 180.778 101.395 183.172 100.729 186.7C100.045 190.228 101.503 192.622 104.455 193.054ZM115.652 193L116.444 188.914L119.054 188.176H116.588L117.398 184H116.012L114.266 193H115.652ZM122.024 193.072C120.692 192.658 120.152 190.948 120.638 188.5C121.106 186.052 122.312 184.342 123.788 183.928C121.412 184.216 119.63 185.944 119.144 188.5C118.64 191.056 119.756 192.784 122.024 193.072ZM123.374 193.072C125.732 192.784 127.514 191.056 128.036 188.5C128.522 185.944 127.388 184.216 125.138 183.928C126.452 184.342 127.01 186.052 126.542 188.5C126.056 190.948 124.832 192.658 123.374 193.072ZM135.821 193L140.321 187.096C141.095 187.096 141.887 187.042 142.661 186.97L140.555 186.898C138.449 186.808 137.477 185.71 137.837 183.82C138.197 181.93 139.601 180.778 141.797 180.562L143.939 180.4H141.707C138.683 180.4 136.721 181.606 136.307 183.73C135.947 185.638 137.063 186.79 139.367 187.042C139.043 187.186 138.719 187.492 138.413 187.906L134.201 193H135.821ZM143.615 193L146.063 180.4H144.623L142.175 193H143.615ZM147.894 193L151.26 188.644C151.332 188.644 151.422 188.644 151.512 188.644H153.042L151.404 188.518C149.82 188.356 149.154 187.6 149.388 186.322C149.64 185.044 150.594 184.288 152.268 184.126L153.942 184H152.394C149.856 184 148.236 184.846 147.948 186.322C147.696 187.618 148.632 188.41 150.54 188.608C150.09 188.716 149.694 189.004 149.406 189.418L146.4 193H147.894ZM154.194 193L155.94 184H154.554L152.808 193H154.194ZM3.394 204.912C4.042 204.912 4.96 204.696 5.914 204.318L3.628 216H5.014L7.48 203.328H7.138C5.788 204.012 4.348 204.48 3.484 204.48L3.394 204.912ZM18.9266 206.568C19.2866 204.75 18.0086 203.472 15.6686 203.364C17.0906 203.652 17.8106 204.804 17.5226 206.244C17.0366 208.818 13.5626 212.238 8.75659 214.956C14.4086 212.58 18.4046 209.268 18.9266 206.568ZM17.2706 216L17.4866 214.884H10.7006L8.72059 215.1L8.55859 216H17.2706ZM11.2046 207.234C11.4026 207.234 11.6366 207.18 11.7806 207.108C11.6906 206.766 11.6726 206.262 11.7626 205.758C12.0146 204.498 13.0226 203.544 14.3006 203.364C12.2486 203.454 10.7726 204.39 10.4846 205.866C10.3226 206.64 10.5926 207.234 11.2046 207.234ZM29.3888 212.688C29.7308 210.942 28.6868 209.736 26.7428 209.448C28.5968 209.178 29.9648 208.062 30.2888 206.46C30.6488 204.57 29.3528 203.4 26.7068 203.346C28.3988 203.67 29.1368 204.768 28.8308 206.334C28.4168 208.44 26.5448 209.34 24.7088 209.448C26.6888 209.628 28.3268 210.51 27.8948 212.778C27.5528 214.47 26.2748 215.658 24.2228 216.054C27.0668 216 29.0108 214.704 29.3888 212.688ZM22.4408 207.216C22.6388 207.216 22.8728 207.18 23.0168 207.108C22.9268 206.748 22.9088 206.244 22.9988 205.758C23.2508 204.48 24.2948 203.526 25.6628 203.346C23.5388 203.454 21.9908 204.372 21.7028 205.866C21.5588 206.622 21.8288 207.216 22.4408 207.216ZM23.1068 216.054C21.8108 215.856 21.1268 214.902 21.3608 213.642C21.4508 213.156 21.6668 212.634 21.9188 212.292C21.7928 212.22 21.5768 212.166 21.3968 212.166C20.7848 212.166 20.2628 212.778 20.1188 213.534C19.8308 215.01 21.0188 215.946 23.1068 216.054ZM31.5609 212.166L39.3009 204.876C39.4989 204.696 39.6969 204.426 39.8229 204.192L39.8769 204.21C39.7509 204.444 39.5889 204.732 39.5529 204.966L37.4109 216H38.7609L39.3909 212.742H41.1009L41.1909 212.31H39.4809L41.2089 203.4H39.8769L31.5609 212.166ZM37.7169 212.742L37.7889 212.31H31.4529L31.3629 212.742H37.7169ZM47.4725 208.908C49.7765 208.908 50.9465 210.312 50.5325 212.49C50.1725 214.326 48.6965 215.748 46.8425 216.072C49.5605 215.91 51.6305 214.326 52.0805 212.058C52.5125 209.808 51.1085 208.35 48.4625 208.35C46.9325 208.35 45.2765 208.836 44.3045 209.574C45.1865 209.16 46.4645 208.908 47.4725 208.908ZM44.4665 209.25L46.2125 204.516H52.5485L52.7645 203.4H46.0145L44.4665 209.25ZM45.7085 216.054C44.4305 215.856 43.7285 214.902 43.9805 213.642C44.0705 213.156 44.2865 212.634 44.5385 212.292C44.4125 212.22 44.1965 212.166 43.9985 212.166C43.3865 212.166 42.8825 212.778 42.7205 213.534C42.4325 215.01 43.6385 215.946 45.7085 216.054ZM57.8752 216.072C56.2912 215.55 55.6792 213.156 56.3632 209.718C57.0472 206.262 58.5592 203.868 60.3412 203.364C57.6772 203.724 55.5712 206.136 54.8692 209.718C54.1672 213.282 55.3372 215.694 57.8752 216.072ZM60.1432 209.196C61.8712 209.196 62.7172 210.492 62.3212 212.562C61.9612 214.362 60.7552 215.748 59.2972 216.072C61.6372 215.82 63.4372 214.308 63.8512 212.166C64.2472 210.114 63.1312 208.764 61.0072 208.764C59.7652 208.764 58.4512 209.25 57.6952 209.97C58.3072 209.502 59.2792 209.196 60.1432 209.196ZM63.3832 205.398C63.2932 205.848 63.0772 206.28 62.8432 206.622C62.9692 206.694 63.1852 206.748 63.4012 206.748C63.9772 206.748 64.4632 206.226 64.5892 205.542C64.8412 204.246 63.7252 203.454 61.7632 203.364C62.9332 203.526 63.5992 204.336 63.3832 205.398ZM67.9267 216H69.3307C70.1047 212.04 72.6967 207.522 75.9367 204.444C71.8867 207.252 68.7367 211.824 67.9267 216ZM74.0107 204.516L75.9727 204.282L76.1347 203.4H67.4947L67.2607 204.516H74.0107ZM81.2862 210.24C83.5542 211.122 84.3822 212.058 84.0942 213.462C83.8422 214.758 82.7982 215.784 81.3042 216.072C83.5362 215.91 85.0482 214.74 85.3902 213.012C85.7142 211.302 84.7062 210.15 82.2222 209.124C79.8822 208.17 79.0362 207.18 79.2882 205.812C79.5402 204.57 80.6022 203.616 82.0782 203.328C79.8462 203.49 78.3522 204.606 78.0102 206.298C77.6862 207.972 78.7122 209.196 81.2862 210.24ZM79.6302 216.072C77.9382 215.82 77.0382 214.578 77.3622 212.922C77.6142 211.608 78.7122 210.402 80.1342 209.916C78.1362 210.258 76.6422 211.554 76.3362 213.156C75.9762 214.92 77.2902 216.072 79.6302 216.072ZM82.9062 209.16C84.6522 208.71 85.9662 207.45 86.2542 205.974C86.5602 204.372 85.4982 203.328 83.5542 203.328C84.9042 203.598 85.5882 204.696 85.3182 206.154C85.0662 207.36 84.1302 208.548 82.9062 209.16ZM97.6071 209.664C98.2731 206.136 97.1031 203.724 94.5831 203.364C96.1671 203.868 96.7611 206.262 96.1131 209.61C95.4111 213.156 93.8091 215.55 91.8651 216.072C94.6911 215.694 96.8871 213.282 97.6071 209.664ZM91.5591 210.726C92.8011 210.726 94.1151 210.222 94.8891 209.466C94.2951 209.952 93.3051 210.276 92.4411 210.276C90.7491 210.276 89.8851 208.962 90.2991 206.838C90.6591 205.056 91.7931 203.67 93.1611 203.364C90.9291 203.598 89.2011 205.128 88.7871 207.252C88.3731 209.358 89.4891 210.726 91.5591 210.726ZM90.4611 216.072C89.3091 215.892 88.6791 215.082 88.8771 214.038C88.9671 213.606 89.1831 213.156 89.4171 212.814C89.2911 212.742 89.0751 212.688 88.8771 212.688C88.2831 212.688 87.8151 213.21 87.6711 213.894C87.4191 215.172 88.5351 215.964 90.4611 216.072ZM3.718 229.28C3.916 229.28 4.096 229.226 4.24 229.154C4.096 228.866 4.078 228.38 4.186 227.894C4.366 226.94 4.942 225.95 5.698 225.356C4.348 225.716 3.322 226.724 3.07 227.984C2.926 228.776 3.178 229.28 3.718 229.28ZM9.29603 235.058C9.38603 235.04 9.54803 235.04 9.65603 235.04C9.76403 235.04 9.90803 235.04 9.98003 235.058L10.412 233.204C12.716 232.484 14.444 230.918 14.786 229.208C15.092 227.57 13.994 226.472 11.942 226.364C13.13 226.634 13.724 227.66 13.472 228.938C13.166 230.558 11.636 232.16 9.62003 232.988L9.29603 235.058ZM7.47803 230.234C7.67603 230.234 7.89203 230.198 8.05403 230.108C7.96403 229.766 7.94603 229.262 8.03603 228.758C8.28803 227.498 9.29603 226.544 10.574 226.364C8.52203 226.454 7.04603 227.39 6.75803 228.866C6.59603 229.64 6.86603 230.234 7.47803 230.234ZM8.84603 239.126C9.38603 239.126 9.78203 238.784 9.89003 238.262C9.98003 237.722 9.72803 237.398 9.18803 237.398C8.66603 237.398 8.25203 237.722 8.16203 238.262C8.05403 238.784 8.32403 239.126 8.84603 239.126ZM19.1254 226.652C19.2694 225.86 19.0354 225.356 18.4954 225.356C18.2974 225.356 18.1174 225.41 17.9554 225.482C18.0994 225.77 18.1174 226.256 18.0274 226.742C17.8294 227.696 17.2534 228.686 16.5154 229.28C17.8654 228.92 18.8914 227.912 19.1254 226.652ZM21.8235 229.28C22.0215 229.28 22.2015 229.226 22.3455 229.154C22.2015 228.866 22.1835 228.38 22.2915 227.894C22.4715 226.94 23.0475 225.95 23.8035 225.356C22.4535 225.716 21.4275 226.724 21.1755 227.984C21.0315 228.776 21.2835 229.28 21.8235 229.28ZM24.3075 229.28C24.4875 229.28 24.6855 229.226 24.8295 229.154C24.6675 228.866 24.6675 228.38 24.7575 227.894C24.9555 226.94 25.5135 225.95 26.2875 225.356C24.9195 225.716 23.9115 226.724 23.6595 227.984C23.5155 228.776 23.7495 229.28 24.3075 229.28ZM26.586 235.058C26.676 235.04 26.838 235.04 26.946 235.04C27.054 235.04 27.198 235.04 27.288 235.058L29.358 226.4H27.882L26.586 235.058ZM25.452 238.262C25.344 238.784 25.614 239.126 26.154 239.126C26.676 239.126 27.09 238.784 27.18 238.262C27.288 237.722 27.018 237.398 26.496 237.398C25.956 237.398 25.542 237.722 25.452 238.262ZM33.2231 226.652C33.3671 225.86 33.1331 225.356 32.5931 225.356C32.3951 225.356 32.2151 225.41 32.0531 225.482C32.1971 225.77 32.2151 226.256 32.1251 226.742C31.9271 227.696 31.3511 228.686 30.6131 229.28C31.9631 228.92 32.9891 227.912 33.2231 226.652ZM35.6891 226.652C35.8511 225.86 35.6171 225.356 35.0591 225.356C34.8791 225.356 34.6811 225.41 34.5371 225.482C34.6811 225.77 34.6811 226.256 34.5911 226.742C34.4111 227.696 33.8351 228.686 33.0791 229.28C34.4291 228.92 35.4551 227.912 35.6891 226.652ZM38.8496 242.276C37.5176 241.124 37.1576 237.722 37.9496 233.636C38.7416 229.568 40.4336 226.13 42.2336 224.924C39.6776 225.986 37.5176 229.406 36.7076 233.618C35.8796 237.848 36.7256 241.268 38.8496 242.276ZM42.5855 239L55.5995 226.4H54.9875L41.9735 239H42.5855ZM51.6035 239.108C53.0435 238.91 54.1595 237.686 54.5195 235.85C54.8615 234.014 54.2315 232.79 52.8815 232.592C53.6015 232.898 53.8715 234.104 53.5295 235.85C53.2055 237.596 52.4495 238.802 51.6035 239.108ZM48.3095 229.55C48.6695 227.714 48.0395 226.49 46.6715 226.292C47.4095 226.598 47.6615 227.804 47.3375 229.55C46.9955 231.296 46.2575 232.502 45.4115 232.808C46.8335 232.61 47.9495 231.386 48.3095 229.55ZM44.6915 232.808C43.9535 232.502 43.7015 231.296 44.0255 229.55C44.3675 227.804 45.1055 226.598 45.9515 226.292C44.5295 226.49 43.4135 227.714 43.0535 229.55C42.6935 231.386 43.3235 232.61 44.6915 232.808ZM50.8835 239.108C50.1455 238.802 49.8935 237.596 50.2355 235.85C50.5775 234.104 51.2975 232.898 52.1615 232.592C50.7215 232.79 49.6055 234.014 49.2635 235.85C48.9035 237.686 49.5335 238.91 50.8835 239.108ZM60.5128 233.618C61.3408 229.406 60.4948 225.986 58.3708 224.924C59.7028 226.13 60.0628 229.568 59.2708 233.636C58.4788 237.722 56.7868 241.124 54.9868 242.276C57.5428 241.268 59.7028 237.848 60.5128 233.618ZM65.1486 242.24L65.2386 241.844H63.1866L66.3906 225.356H68.4426L68.5146 224.96H65.2926L61.9266 242.24H65.1486ZM68.5018 235.4H70.6618L69.9598 239H70.6258L72.2098 230.792H71.5618L70.7518 234.968H68.5918L68.5018 235.4ZM75.5938 234.608L76.3858 230.432H78.5458L78.6358 230H76.4758L77.1778 226.4H76.5298L74.9278 234.608H75.5938ZM69.4558 230.432H75.3778L75.4678 230H72.3718L73.0738 226.4H72.4078L71.7058 230H69.5458L69.4558 230.432ZM71.6878 235.4H74.7838L74.0818 239H74.7298L75.4318 235.4H77.5918L77.6818 234.968H71.7598L71.6878 235.4ZM84.8688 224.96H81.6468L81.5748 225.356H83.6268L80.4228 241.844H78.3527L78.2808 242.24H81.5028L84.8688 224.96ZM88.978 242.24C87.934 241.988 87.376 241.106 87.592 239.954L88.492 235.382C88.654 234.5 88.348 233.852 87.682 233.6C88.456 233.33 89.014 232.664 89.194 231.8L90.076 227.228C90.292 226.112 91.192 225.212 92.344 224.96C90.49 224.96 89.176 225.86 88.888 227.336L87.988 231.944C87.826 232.808 87.142 233.384 86.278 233.384L86.188 233.816C87.052 233.816 87.52 234.392 87.34 235.256L86.458 239.864C86.17 241.34 87.142 242.24 88.978 242.24ZM97.6662 239.126C99.4302 239.126 101.41 238.55 102.472 237.668C101.536 238.28 99.8802 238.694 98.3862 238.694C94.7862 238.694 92.9142 236.372 93.6162 232.754C94.2822 229.334 96.8382 226.778 100.096 226.364C96.2982 226.652 93.3642 229.334 92.6622 232.934C91.9422 236.624 93.9942 239.126 97.6662 239.126ZM97.6122 236.264C99.0882 236.264 100.618 234.752 101.536 232.43C100.672 234.212 99.4482 235.4 98.4042 235.4C97.4322 235.4 96.9822 234.338 97.3062 232.718C97.6842 230.738 98.9082 229.442 100.276 229.442C100.978 229.442 101.626 229.766 101.968 230.252C101.572 229.55 100.726 229.1 99.7542 229.1C97.9542 229.1 96.4602 230.594 95.9922 232.934C95.5962 234.95 96.2442 236.264 97.6122 236.264ZM101.59 226.364C104.758 226.634 106.36 229.208 105.622 232.952C105.28 234.698 104.542 236.03 103.732 236.264C105.1 236.084 106.252 234.572 106.648 232.466C107.332 228.938 105.352 226.526 101.59 226.364ZM103.246 236.264C102.58 236.156 102.274 235.454 102.472 234.5L103.48 229.226H102.31L101.338 234.32C101.104 235.526 101.788 236.264 103.246 236.264ZM110.073 239.864L110.955 235.256C111.135 234.392 111.819 233.816 112.683 233.816L112.773 233.384C111.909 233.384 111.441 232.808 111.603 231.944L112.503 227.336C112.791 225.86 111.837 224.96 109.983 224.96C111.027 225.212 111.567 226.112 111.351 227.228L110.469 231.8C110.289 232.664 110.613 233.33 111.261 233.6C110.505 233.852 109.929 234.5 109.767 235.382L108.867 239.954C108.651 241.106 107.769 241.988 106.617 242.24C108.471 242.24 109.785 241.34 110.073 239.864ZM112.713 241.808L121.785 225.554L121.389 225.392L112.299 241.646L112.713 241.808ZM130.65 239.126C126.762 236.984 124.692 233.168 125.412 229.442C125.736 227.75 126.6 226.544 127.59 226.364C125.718 226.526 124.242 227.984 123.828 230.126C123.126 233.798 125.79 237.362 130.65 239.126ZM122.352 239.126C124.044 239.126 125.664 238.334 126.51 237.128C125.718 237.902 124.458 238.406 123.27 238.406C121.416 238.406 120.408 237.164 120.786 235.292C121.056 233.834 122.154 232.7 123.558 232.394C121.398 232.646 119.742 234.014 119.382 235.904C119.004 237.848 120.192 239.126 122.352 239.126ZM131.064 232.412C131.172 231.818 131.046 231.026 130.29 231.026C130.074 231.026 129.84 231.08 129.696 231.152C129.858 231.512 129.93 232.052 129.822 232.664C129.57 233.906 128.472 234.914 126.978 235.166C129.174 235.076 130.758 233.996 131.064 232.412ZM133.653 225.392L133.185 225.554L135.957 241.808L136.407 241.646L133.653 225.392ZM147.613 235.922V235.472L140.575 232.628L147.613 229.802V229.352L140.017 232.412V232.862L147.613 235.922ZM150.612 234.356L154.068 234.194L154.14 233.78H150.72L150.612 234.356ZM157.687 232.844H161.197V236.354H161.611V232.844H165.103V232.43H161.611V228.92H161.197V232.43H157.687V232.844ZM176.616 232.844V232.43H169.2V232.844H176.616ZM172.242 229.766C172.242 230.162 172.512 230.432 172.908 230.432C173.322 230.432 173.574 230.162 173.574 229.766C173.574 229.352 173.322 229.1 172.908 229.1C172.512 229.1 172.242 229.352 172.242 229.766ZM172.908 234.86C172.512 234.86 172.242 235.112 172.242 235.526C172.242 235.922 172.512 236.174 172.908 236.174C173.322 236.174 173.574 235.922 173.574 235.526C173.574 235.112 173.322 234.86 172.908 234.86ZM181.29 229.802L184.134 232.628L181.29 235.49L181.596 235.76L184.422 232.934L187.266 235.76L187.554 235.49L184.71 232.628L187.554 229.802L187.266 229.514L184.422 232.358L181.596 229.496L181.29 229.802ZM192.228 230.864H199.644V230.45H192.228V230.864ZM192.228 234.41V234.824H199.644V234.41H192.228ZM203.741 235.472V235.922L211.337 232.862V232.412L203.741 229.352V229.802L210.779 232.628L203.741 235.472ZM220.727 229.622C221.681 229.748 222.221 230.324 222.221 231.332C222.221 232.358 221.681 232.808 220.367 232.826L222.599 235.85H223.661L221.411 232.88C222.545 232.808 223.211 232.25 223.211 231.26C223.211 230.162 222.347 229.55 220.871 229.55H219.809L220.727 229.622ZM214.427 232.52H215.021C215.111 229.442 217.595 226.958 220.673 226.868V226.274C217.271 226.364 214.517 229.118 214.427 232.52ZM221.033 239.126C224.435 239.036 227.189 236.282 227.279 232.88H226.685C226.595 235.958 224.111 238.442 221.033 238.532V239.126ZM220.673 239.126V238.532C217.595 238.442 215.111 235.958 215.021 232.88H214.427C214.517 236.282 217.271 239.036 220.673 239.126ZM221.033 226.868C224.111 226.958 226.595 229.442 226.685 232.52H227.279C227.189 229.118 224.435 226.364 221.033 226.274V226.868ZM218.585 235.85H219.503V229.55H218.585V235.85ZM236.326 239.126C239.728 239.036 242.482 236.282 242.572 232.88H241.978C241.888 235.958 239.404 238.442 236.326 238.532V239.126ZM236.326 226.868C239.404 226.958 241.888 229.442 241.978 232.52H242.572C242.482 229.118 239.728 226.364 236.326 226.274V226.868ZM229.72 232.52H230.314C230.404 229.442 232.888 226.958 235.966 226.868V226.274C232.564 226.364 229.81 229.118 229.72 232.52ZM229.72 232.88C229.81 236.282 232.564 239.036 235.966 239.126V238.532C232.888 238.442 230.404 235.958 230.314 232.88H229.72ZM233.068 232.7C233.068 234.482 234.094 235.688 235.732 235.886C234.688 235.598 234.04 234.41 234.04 232.7C234.04 230.972 234.688 229.784 235.732 229.496C234.094 229.694 233.068 230.9 233.068 232.7ZM238.666 231.242C238.666 229.838 238.27 229.496 236.884 229.496C237.622 229.694 238.396 230.45 238.666 231.242ZM238.702 234.14C238.432 234.95 237.658 235.688 236.92 235.886C238.306 235.886 238.702 235.544 238.702 234.14ZM249.693 233.258C252.141 234.14 253.077 235.076 252.807 236.444C252.555 237.758 251.313 238.784 249.513 239.072C252.123 238.91 253.869 237.74 254.211 235.922C254.535 234.248 253.455 233.078 250.755 232.07C248.235 231.152 247.263 230.162 247.533 228.758C247.767 227.57 248.829 226.616 250.287 226.328C248.019 226.49 246.489 227.606 246.147 229.316C245.823 231.026 246.921 232.25 249.693 233.258ZM245.121 238.208C245.571 238.766 246.435 239.036 247.839 239.036C246.129 238.604 244.995 237.02 244.869 234.896C244.527 236.552 244.617 237.596 245.121 238.208ZM254.661 230.252C254.967 228.704 254.913 227.768 254.445 227.174C254.013 226.616 253.221 226.364 251.889 226.364C253.455 226.796 254.517 228.254 254.661 230.252ZM248.631 240.98L248.937 239.432H248.469L248.181 240.98H248.631ZM251.079 225.968H251.529L251.799 224.6H251.349L251.079 225.968ZM2.602 257.212C2.584 259.912 4.114 261.694 6.742 262.054C4.924 261.586 3.97 259.822 4.096 257.212H9.91L10 256.762H4.15C4.222 256.042 4.366 255.322 4.582 254.638H10.432L10.522 254.17H4.708C5.554 251.578 7.228 249.796 9.226 249.346C6.436 249.706 4.222 251.488 3.196 254.17H1.864L1.774 254.638H3.034C2.854 255.358 2.692 256.024 2.62 256.762H1.342L1.252 257.212H2.602ZM13.492 258.652C12.664 260.362 11.026 261.694 9.388 262.054C12.088 262.054 12.97 261.298 13.492 258.652ZM11.764 249.346C13.276 249.688 14.392 251.038 14.554 252.73C14.824 251.38 14.806 250.516 14.32 250.012C13.888 249.526 13.078 249.346 11.764 249.346ZM15.6292 260.956C17.5552 260.29 18.9952 258.886 19.3372 257.14C19.3732 256.978 19.3912 256.834 19.3912 256.69H21.8572L21.9652 256.24H19.4092C19.3552 254.836 18.5452 253.9 18.8692 252.316C19.1752 250.768 20.3272 249.67 21.8212 249.364C19.4812 249.472 17.7532 250.696 17.3572 252.694C17.0512 254.296 17.8252 255.16 18.1672 256.24H16.5472L16.4392 256.69H18.2752C18.3292 257.014 18.3292 257.374 18.2572 257.788C18.0052 259.102 16.9972 260.218 15.6292 260.956ZM15.4132 262H24.0352L24.2512 260.884H17.5912L15.5932 261.1L15.4132 262ZM23.1892 249.364C24.3952 249.526 25.0612 250.372 24.8632 251.452C24.7552 251.92 24.5392 252.406 24.2692 252.748C24.4132 252.82 24.6292 252.874 24.8272 252.874C25.4392 252.874 25.9072 252.406 26.0512 251.704C26.3032 250.336 25.1872 249.418 23.1892 249.364ZM28.1644 249.4L31.9624 256.51L31.9444 256.564H29.5864L29.4964 257.032H31.8544L31.4764 259.03H29.1184L29.0284 259.48H31.3864L30.9004 262H32.3404L32.8264 259.48H35.2024L35.2924 259.03H32.9164L33.2944 257.032H35.6704L35.7604 256.564H33.3844L33.4924 256.024L29.8924 249.4H28.1644ZM33.5464 255.79L39.9184 249.4H38.8384L33.5464 255.79ZM43.3188 262.126C45.0288 262.126 46.5768 261.388 47.6388 260.074C46.7388 260.884 45.3348 261.406 44.1108 261.406C41.9148 261.406 40.9068 259.768 41.4288 257.122C41.8248 255.034 43.1028 253.414 44.6328 252.964C42.2208 253.252 40.3488 255.106 39.8448 257.662C39.3228 260.38 40.6728 262.126 43.3188 262.126ZM46.0548 252.964C47.0268 253.09 47.5128 253.774 47.3148 254.836C47.2428 255.214 47.1168 255.538 46.8288 255.934C46.9548 256.006 47.1168 256.06 47.2788 256.06C47.7288 256.06 48.2508 255.52 48.3948 254.8C48.6108 253.72 47.7288 253.036 46.0548 252.964ZM43.3548 263.98L43.6608 262.432H43.1928L42.8868 263.98H43.3548ZM45.1008 252.568H45.5688L45.8388 251.2H45.3708L45.1008 252.568ZM49.252 261.226C49.162 261.784 49.432 262.126 49.99 262.126C50.53 262.126 50.962 261.784 51.052 261.226C51.16 260.668 50.89 260.326 50.332 260.326C49.792 260.326 49.36 260.668 49.252 261.226ZM50.71 253.774C50.602 254.314 50.872 254.674 51.43 254.674C51.988 254.674 52.402 254.314 52.51 253.774C52.618 253.216 52.33 252.874 51.772 252.874C51.232 252.874 50.818 253.216 50.71 253.774ZM54.863 261.802C55.025 260.938 54.755 260.416 54.143 260.416C53.927 260.416 53.711 260.47 53.531 260.542C53.693 260.866 53.711 261.388 53.621 261.91C53.405 262.936 52.793 263.98 52.001 264.592C53.477 264.232 54.611 263.152 54.863 261.802ZM55.385 254.674C55.943 254.674 56.357 254.314 56.465 253.774C56.573 253.216 56.285 252.874 55.727 252.874C55.187 252.874 54.773 253.216 54.665 253.774C54.557 254.314 54.827 254.674 55.385 254.674ZM58.8181 261.802C58.9801 260.938 58.7101 260.416 58.0981 260.416C57.8821 260.416 57.6661 260.47 57.4861 260.542C57.6481 260.866 57.6661 261.388 57.5581 261.91C57.3601 262.936 56.7481 263.98 55.9561 264.592C57.4141 264.232 58.5481 263.152 58.8181 261.802ZM61.0996 261.226C61.0096 261.784 61.2796 262.126 61.8376 262.126C62.3776 262.126 62.8096 261.784 62.8996 261.226C63.0076 260.668 62.7376 260.326 62.1796 260.326C61.6396 260.326 61.2076 260.668 61.0996 261.226ZM68.0773 252.172L69.1933 249.4H68.0593L68.0773 252.172ZM67.8433 252.334L65.6653 250.93L65.0893 252.01L67.8433 252.334ZM67.8973 252.568L65.4313 254.476L66.2233 255.16L67.8973 252.568ZM70.9933 250.93L68.2573 252.334L71.1553 252.01L70.9933 250.93ZM69.8413 254.476L68.1313 252.568L68.7973 255.16L69.8413 254.476Z" fill="white"/>
<path d="M3.04 22V4.96H10.144C10.896 4.96 11.584 5.12 12.208 5.44C12.832 5.744 13.376 6.16 13.84 6.688C14.304 7.2 14.664 7.784 14.92 8.44C15.176 9.08 15.304 9.736 15.304 10.408C15.304 11.336 15.096 12.224 14.68 13.072C14.264 13.904 13.68 14.584 12.928 15.112C12.176 15.624 11.296 15.88 10.288 15.88H5.2V22H3.04ZM5.2 13.96H10.168C10.76 13.96 11.272 13.8 11.704 13.48C12.152 13.16 12.496 12.728 12.736 12.184C12.992 11.64 13.12 11.048 13.12 10.408C13.12 9.736 12.976 9.136 12.688 8.608C12.4 8.064 12.024 7.64 11.56 7.336C11.096 7.032 10.584 6.88 10.024 6.88H5.2V13.96ZM22.8948 22.24C21.9508 22.24 21.0948 22.072 20.3268 21.736C19.5588 21.384 18.8948 20.912 18.3348 20.32C17.7748 19.712 17.3428 19.016 17.0388 18.232C16.7348 17.448 16.5828 16.624 16.5828 15.76C16.5828 14.88 16.7348 14.048 17.0388 13.264C17.3428 12.48 17.7748 11.792 18.3348 11.2C18.8948 10.592 19.5588 10.12 20.3268 9.784C21.1108 9.432 21.9748 9.256 22.9188 9.256C23.8468 9.256 24.6948 9.432 25.4628 9.784C26.2308 10.12 26.8948 10.592 27.4548 11.2C28.0308 11.792 28.4708 12.48 28.7748 13.264C29.0788 14.048 29.2308 14.88 29.2308 15.76C29.2308 16.624 29.0788 17.448 28.7748 18.232C28.4708 19.016 28.0388 19.712 27.4788 20.32C26.9188 20.912 26.2468 21.384 25.4628 21.736C24.6948 22.072 23.8388 22.24 22.8948 22.24ZM18.7428 15.784C18.7428 16.648 18.9268 17.432 19.2948 18.136C19.6788 18.84 20.1828 19.4 20.8068 19.816C21.4308 20.216 22.1268 20.416 22.8948 20.416C23.6628 20.416 24.3588 20.208 24.9828 19.792C25.6228 19.376 26.1268 18.816 26.4948 18.112C26.8788 17.392 27.0708 16.6 27.0708 15.736C27.0708 14.872 26.8788 14.088 26.4948 13.384C26.1268 12.68 25.6228 12.12 24.9828 11.704C24.3588 11.288 23.6628 11.08 22.8948 11.08C22.1268 11.08 21.4308 11.296 20.8068 11.728C20.1828 12.144 19.6788 12.704 19.2948 13.408C18.9268 14.112 18.7428 14.904 18.7428 15.784ZM42.6619 22H40.5499V14.992C40.5499 13.664 40.3419 12.696 39.9259 12.088C39.5259 11.464 38.9099 11.152 38.0779 11.152C37.5019 11.152 36.9259 11.296 36.3499 11.584C35.7899 11.872 35.2859 12.264 34.8379 12.76C34.4059 13.24 34.0939 13.8 33.9019 14.44V22H31.7899V9.472H33.7099V12.16C34.0459 11.568 34.4779 11.056 35.0059 10.624C35.5339 10.192 36.1339 9.856 36.8059 9.616C37.4779 9.376 38.1819 9.256 38.9179 9.256C39.6379 9.256 40.2379 9.392 40.7179 9.664C41.2139 9.92 41.5979 10.288 41.8699 10.768C42.1579 11.232 42.3579 11.784 42.4699 12.424C42.5979 13.064 42.6619 13.76 42.6619 14.512V22ZM44.9622 20.632L52.8582 11.008H45.1782V9.472H55.2342V10.84L47.3862 20.464H55.2582V22H44.9622V20.632ZM57.6621 16.984V9.472H59.7741V16.576C59.7741 17.856 59.9981 18.816 60.4461 19.456C60.8941 20.096 61.5581 20.416 62.4381 20.416C63.0141 20.416 63.5661 20.296 64.0941 20.056C64.6381 19.8 65.1261 19.44 65.5581 18.976C65.9901 18.512 66.3261 17.96 66.5661 17.32V9.472H68.6781V19.6C68.6781 19.856 68.7261 20.048 68.8221 20.176C68.9341 20.288 69.1101 20.352 69.3501 20.368V22C69.1101 22.032 68.9181 22.048 68.7741 22.048C68.6461 22.064 68.5181 22.072 68.3901 22.072C67.9901 22.072 67.6461 21.952 67.3581 21.712C67.0701 21.456 66.9181 21.144 66.9021 20.776L66.8541 19.312C66.3101 20.24 65.5741 20.96 64.6461 21.472C63.7341 21.984 62.7341 22.24 61.6461 22.24C60.3341 22.24 59.3421 21.8 58.6701 20.92C57.9981 20.024 57.6621 18.712 57.6621 16.984Z" fill="white"/>
</svg>
