<svg width="60" height="47" viewBox="0 0 60 47" fill="none" xmlns="http://www.w3.org/2000/svg">
<path fill-rule="evenodd" clip-rule="evenodd" d="M16.0794 7.35055C16.2713 7.09611 16.4844 6.78462 16.7562 6.36461C16.8555 6.21116 17.1262 5.78513 17.3278 5.4679L17.3287 5.4664C17.4359 5.29774 17.5234 5.16007 17.5549 5.1109C19.8 1.60783 21.4321 0 24.375 0H35.2083C38.1512 0 39.7833 1.60783 42.0284 5.1109C42.06 5.16018 42.1478 5.29837 42.2554 5.46756L42.2559 5.46837C42.4574 5.78555 42.7279 6.21124 42.8272 6.36461C43.0989 6.78462 43.312 7.09611 43.5039 7.35055C43.6304 7.51835 43.741 7.65168 43.8311 7.75H51.4583C55.9456 7.75 59.5833 11.2198 59.5833 15.5V38.75C59.5833 43.0302 55.9456 46.5 51.4583 46.5H8.125C3.63769 46.5 0 43.0302 0 38.75V15.5C0 11.2198 3.63769 7.75 8.125 7.75H15.7522C15.8424 7.65168 15.9529 7.51835 16.0794 7.35055ZM8.12508 12.916C6.62931 12.916 5.41675 14.0726 5.41675 15.4993V38.7493C5.41675 40.1761 6.62931 41.3327 8.12508 41.3327H51.4584C52.9542 41.3327 54.1668 40.1761 54.1668 38.7493V15.4993C54.1668 14.0726 52.9542 12.916 51.4584 12.916H43.3334C41.5342 12.916 40.3208 11.9767 39.1068 10.3669C38.8274 9.99653 38.5507 9.59209 38.2177 9.07741C38.1037 8.9011 37.8075 8.43495 37.6042 8.11504L37.6037 8.11432C37.5076 7.963 37.4323 7.84451 37.4071 7.80512C36.1821 5.8938 35.4433 5.16602 35.2084 5.16602H24.3751C24.1402 5.16602 23.4014 5.8938 22.1765 7.80512C22.1512 7.84455 22.0758 7.96321 21.9795 8.11472L21.9792 8.11515C21.776 8.43505 21.4798 8.90112 21.3658 9.07741C21.0328 9.59209 20.7561 9.99653 20.4767 10.3669C19.2628 11.9767 18.0493 12.916 16.2501 12.916H8.12508ZM51.4584 18.0833C51.4584 19.5101 50.2458 20.6667 48.7501 20.6667C47.2543 20.6667 46.0417 19.5101 46.0417 18.0833C46.0417 16.6566 47.2543 15.5 48.7501 15.5C50.2458 15.5 51.4584 16.6566 51.4584 18.0833ZM16.25 25.8327C16.25 32.9664 22.3128 38.7494 29.7917 38.7494C37.2705 38.7494 43.3333 32.9664 43.3333 25.8327C43.3333 18.699 37.2705 12.916 29.7917 12.916C22.3128 12.916 16.25 18.699 16.25 25.8327ZM37.9168 25.834C37.9168 30.1142 34.2791 33.584 29.7917 33.584C25.3044 33.584 21.6667 30.1142 21.6667 25.834C21.6667 21.5538 25.3044 18.084 29.7917 18.084C34.2791 18.084 37.9168 21.5538 37.9168 25.834Z" fill="#C4C4C4"/>
</svg>
