<svg width="36" height="36" viewBox="0 0 36 36" fill="none" xmlns="http://www.w3.org/2000/svg">
<path d="M24.8317 0H11.5705C5.46817 0 0.519531 4.94864 0.519531 11.051V24.3122C0.519531 30.4146 5.46817 35.3632 11.5705 35.3632H24.8317C30.9341 35.3632 35.8827 30.4146 35.8827 24.3122V11.051C35.8827 4.94864 30.9341 0 24.8317 0ZM32.5674 24.3122C32.5674 28.5779 29.0974 32.0479 24.8317 32.0479H11.5705C7.30485 32.0479 3.83483 28.5779 3.83483 24.3122V11.051C3.83483 6.78532 7.30485 3.3153 11.5705 3.3153H24.8317C29.0974 3.3153 32.5674 6.78532 32.5674 11.051V24.3122Z" fill="#9F9F9F"/>
<path d="M18.2002 8.83984C13.3178 8.83984 9.35938 12.7983 9.35938 17.6806C9.35938 22.563 13.3178 26.5214 18.2002 26.5214C23.0825 26.5214 27.041 22.563 27.041 17.6806C27.041 12.7983 23.0825 8.83984 18.2002 8.83984ZM18.2002 23.2061C15.1545 23.2061 12.6747 20.7263 12.6747 17.6806C12.6747 14.6328 15.1545 12.1551 18.2002 12.1551C21.2458 12.1551 23.7257 14.6328 23.7257 17.6806C23.7257 20.7263 21.2458 23.2061 18.2002 23.2061Z" fill="#9F9F9F"/>
<path d="M27.7039 9.35509C28.3543 9.35509 28.8815 8.82789 28.8815 8.17755C28.8815 7.52721 28.3543 7 27.7039 7C27.0536 7 26.5264 7.52721 26.5264 8.17755C26.5264 8.82789 27.0536 9.35509 27.7039 9.35509Z" fill="#9F9F9F"/>
</svg>
