<svg width="17" height="17" viewBox="0 0 17 17" fill="none" xmlns="http://www.w3.org/2000/svg">
<path d="M11.6875 0H5.3125C2.37894 0 0 2.37894 0 5.3125V11.6875C0 14.6211 2.37894 17 5.3125 17H11.6875C14.6211 17 17 14.6211 17 11.6875V5.3125C17 2.37894 14.6211 0 11.6875 0ZM15.4062 11.6875C15.4062 13.7381 13.7381 15.4062 11.6875 15.4062H5.3125C3.26188 15.4062 1.59375 13.7381 1.59375 11.6875V5.3125C1.59375 3.26188 3.26188 1.59375 5.3125 1.59375H11.6875C13.7381 1.59375 15.4062 3.26188 15.4062 5.3125V11.6875Z" fill="white"/>
<path d="M8.49988 4.24573C6.15282 4.24573 4.24988 6.14866 4.24988 8.49573C4.24988 10.8428 6.15282 12.7457 8.49988 12.7457C10.8469 12.7457 12.7499 10.8428 12.7499 8.49573C12.7499 6.14866 10.8469 4.24573 8.49988 4.24573ZM8.49988 11.152C7.03575 11.152 5.84363 9.95985 5.84363 8.49573C5.84363 7.03054 7.03575 5.83948 8.49988 5.83948C9.964 5.83948 11.1561 7.03054 11.1561 8.49573C11.1561 9.95985 9.964 11.152 8.49988 11.152Z" fill="white"/>
<path d="M13.0677 4.49611C13.3803 4.49611 13.6337 4.24266 13.6337 3.93003C13.6337 3.61739 13.3803 3.36395 13.0677 3.36395C12.755 3.36395 12.5016 3.61739 12.5016 3.93003C12.5016 4.24266 12.755 4.49611 13.0677 4.49611Z" fill="white"/>
</svg>
