<svg width="14" height="14" viewBox="0 0 14 14" fill="none" xmlns="http://www.w3.org/2000/svg">
<path d="M13.7404 4.47546C13.3314 3.36757 12.5729 2.366 11.5471 1.57904C10.4847 0.763982 9.20581 0.240568 7.84858 0.0654039C6.02658 -0.169807 4.21033 0.234005 2.73439 1.20238C1.67865 1.89506 0.891398 2.83024 0.465766 3.86856C0.461363 3.87827 0.456934 3.88809 0.452586 3.89785L0.45368 3.89834C0.319395 4.23196 0.222461 4.57608 0.165832 4.92611L0.160664 4.92545C0.156152 4.96032 0.15309 4.99515 0.150684 5.02991C0.148742 5.04396 0.146363 5.05793 0.144531 5.07202L0.148305 5.07297C0.130449 5.47832 0.254426 5.87308 0.505113 6.19806C0.786152 6.56236 1.19223 6.79547 1.64855 6.85436C1.723 6.86399 1.79721 6.86869 1.87088 6.86869C1.9035 6.86869 1.93596 6.8676 1.9683 6.86574L4.97754 14H9.02075L12 6.99748C12.5621 6.99297 13.0899 6.73897 13.4479 6.28961C13.8597 5.77276 13.969 5.09458 13.7404 4.47546ZM1.75371 6.04081C1.31225 5.98382 0.986172 5.61506 0.967852 5.1847L0.970176 5.17874L0.967523 5.1777C0.966758 5.15593 0.966812 5.134 0.96766 5.11197C1.01327 4.80131 1.09702 4.49523 1.21704 4.19825C1.55038 3.46984 2.08003 2.94902 2.83516 2.60673C3.50606 2.30264 4.35399 2.14848 5.35537 2.14848C6.13027 2.14848 6.85693 2.31642 7.50219 2.63254C5.45346 2.70435 3.60726 3.82851 2.64703 5.60388C2.46314 5.91576 2.11284 6.08713 1.75371 6.04081ZM6.58948 13.1797H5.52184L2.75635 6.62325C2.99922 6.47749 3.20714 6.27129 3.35619 6.01603C3.3595 6.01043 3.36322 6.00389 3.36688 5.99706C4.03771 4.75434 5.21907 3.88437 6.58945 3.57445V13.1797H6.58948ZM8.47833 13.1797H7.40976V3.45849C7.50968 3.45261 7.61009 3.44914 7.71112 3.44914H8.66523C8.97459 3.74762 9.24792 4.09319 9.47755 4.48298C9.62294 4.74581 10.3138 5.99399 10.3805 6.10268C10.5756 6.42072 10.8555 6.66722 11.1839 6.82054L8.47833 13.1797ZM12.8064 5.77847C12.5737 6.07047 12.214 6.21627 11.8442 6.16853C11.526 6.12746 11.2473 5.9471 11.0797 5.67391C11.0308 5.59346 10.5097 4.65426 10.1926 4.08116L10.1873 4.07189C9.16255 2.32824 7.40137 1.32822 5.35529 1.32822C4.88383 1.32822 4.44023 1.35997 4.02655 1.42308C5.16009 0.904283 6.44915 0.711837 7.74358 0.878908C8.9575 1.03559 10.1001 1.50273 11.0478 2.22985C11.9505 2.92242 12.6155 3.7972 12.9709 4.75959C13.0992 5.10713 13.0377 5.48802 12.8064 5.77847Z" fill="white"/>
</svg>
