<svg width="22" height="22" viewBox="0 0 22 22" fill="none" xmlns="http://www.w3.org/2000/svg">
<path d="M19.8 17.6H15.8775L17.05 15.8415C17.4099 15.3028 17.6 14.6744 17.6 14.025C17.6 13.3756 17.4099 12.7472 17.05 12.2085L16.5 11.3835V9.89999C16.5 8.68668 15.5133 7.69998 14.3 7.69998H9.47997C9.20282 7.69998 9.0605 7.51734 9.01214 7.43892C8.96326 7.36049 8.8639 7.15156 8.98796 6.90396L10.754 3.37193C10.9151 3.05018 11 2.68981 11 2.32995C11 1.04522 9.9548 0 8.67002 0H8.24999C8.09747 0 7.95191 0.0633703 7.8477 0.174539L4.27763 4L1.92338 6.52265C0.683203 7.8509 0 9.58366 0 11.4017V16.5C0 19.5325 2.46747 22 5.50001 22H19.8C21.0133 22 22 21.0134 22 19.8C22 18.5866 21.0133 17.6 19.8 17.6ZM19.8 20.9H5.50001C3.0739 20.9 1.10003 18.9261 1.10003 16.5V11.4017C1.10003 9.86349 1.67795 8.39715 2.7275 7.2735L8.48909 1.09998H8.67007C9.34843 1.09998 9.90004 1.6516 9.90004 2.32995C9.90004 2.51955 9.85493 2.71023 9.77005 2.87997L8.00404 6.412C7.74623 6.92711 7.77361 7.52755 8.07602 8.0174C8.37895 8.50724 8.9037 8.79996 9.48002 8.79996H14.3C14.9064 8.79996 15.4 9.29357 15.4 9.89994V11.5499C15.4 11.6584 15.4322 11.7648 15.4924 11.855L16.1348 12.8186C16.3738 13.1769 16.5 13.5937 16.5 14.025C16.5 14.4563 16.3738 14.8731 16.1348 15.2313L14.3924 17.8449C14.2801 18.0136 14.2694 18.2306 14.365 18.4095C14.4606 18.5883 14.647 18.7 14.85 18.7H19.8C20.4064 18.7 20.9 19.1936 20.9 19.8C20.9 20.4064 20.4064 20.9 19.8 20.9Z" fill="#9F9F9F"/>
</svg>
