<svg width="176" height="38" viewBox="0 0 176 38" fill="none" xmlns="http://www.w3.org/2000/svg">
<path d="M83.2101 2.66917C82.4532 3.49315 81.8669 4.45886 81.4852 5.51058C81.1034 6.5623 80.9337 7.67921 80.9858 8.79687V36.9843H86.035V18.5583H91.7276V14.3915H86.035V8.33116C85.9727 7.24825 86.323 6.18196 87.0154 5.34697C87.4033 4.97698 87.8642 4.6921 88.3686 4.5106C88.873 4.3291 89.4098 4.25499 89.9445 4.29301C90.7677 4.30206 91.5883 4.38822 92.3955 4.55037V0.68992C91.271 0.459179 90.1239 0.356397 88.9763 0.383535C87.9095 0.346639 86.8467 0.530626 85.8544 0.923948C84.8621 1.31727 83.9619 1.91144 83.2101 2.66917Z" fill="#ECC126"/>
<path d="M15.1416 16.8904L10.7357 15.9344C9.79264 15.7338 8.88557 15.3908 8.04568 14.9172C7.71262 14.6773 7.40649 14.402 7.13265 14.0961C6.23161 13.0881 5.75517 11.7707 5.80294 10.4195C5.78371 9.60888 5.95696 8.80523 6.30846 8.07452C6.65997 7.34381 7.17973 6.70685 7.82508 6.21591C9.31252 5.05918 11.1635 4.47042 13.0459 4.5553C14.0979 4.52103 15.1453 4.70784 16.1206 5.10365C17.0959 5.49946 17.9773 6.09548 18.7079 6.85319C19.6659 7.85006 20.3481 9.07912 20.6871 10.4195L23.2117 8.53831L25.0501 7.26375C24.9152 6.95736 24.7621 6.65098 24.6027 6.35685C24.5169 6.20978 24.4373 6.06272 24.3454 5.92178C23.2322 4.06402 21.6153 2.55977 19.6822 1.58337C17.6024 0.502418 15.2852 -0.0410626 12.9417 0.00241824C10.7012 -0.0371972 8.47946 0.416778 6.43409 1.33213C4.64067 2.10554 3.11019 3.38272 2.02827 5.00875C0.956922 6.60723 0.400914 8.49552 0.435067 10.4195C0.435067 15.8241 3.73177 19.2087 10.3252 20.5731L14.682 21.5413C16.3264 21.8475 17.8524 22.6073 19.0878 23.735C19.5893 24.1908 19.9936 24.7431 20.2766 25.3589C20.4822 25.8925 20.5861 26.4599 20.583 27.0317C20.5974 27.8727 20.4128 28.7051 20.0444 29.4612C19.6759 30.2173 19.134 30.8755 18.4628 31.3824C16.8682 32.5503 14.9224 33.1384 12.9478 33.0491C10.7095 33.1323 8.52975 32.3234 6.88754 30.8003C5.84171 29.7709 5.10875 28.4664 4.77348 27.0378L4.25263 27.3749V27.3136L0 30.0894C0.0980433 30.3345 0.208342 30.5735 0.324768 30.8125C0.441195 31.0515 0.637282 31.4253 0.814985 31.6949C1.99077 33.5125 3.63868 34.9761 5.58234 35.9291C7.76871 36.9826 10.1721 37.5073 12.5986 37.4611C14.9303 37.5086 17.2459 37.0638 19.3942 36.1559C21.2503 35.3433 22.8468 34.0352 24.0083 32.3751C25.1148 30.7626 25.6929 28.8462 25.6628 26.8908C25.6628 21.6904 22.1557 18.3569 15.1416 16.8904Z" fill="#ECC126"/>
<path d="M53.8565 15.0342L46.2459 28.2455C45.5497 29.6234 44.5579 30.8307 43.3414 31.7812C42.2982 32.5229 41.0423 32.9057 39.7628 32.8719C38.6196 32.892 37.4891 32.6288 36.4722 32.106C35.5475 31.6234 34.7768 30.891 34.2479 29.9919C33.7091 29.0613 33.4298 28.0033 33.439 26.9281C33.4513 26.074 33.5939 25.2268 33.8618 24.4157C34.1481 23.5046 34.5237 22.6241 34.9832 21.7869L41.8462 9.30478L37.9245 7.11719L30.9328 19.3358C30.187 20.5958 29.571 21.9283 29.0945 23.3127C28.7193 24.4236 28.5128 25.5844 28.4817 26.7565C28.421 28.6186 28.8986 30.4588 29.8572 32.0565C30.8157 33.6541 32.2147 34.9414 33.8863 35.7642C35.7149 36.6556 37.7288 37.1008 39.7628 37.0633C41.9116 37.115 44.0286 36.5378 45.8537 35.4027C47.7989 34.0729 49.391 32.2894 50.4924 30.2064L57.9192 17.3382L53.8565 15.0342Z" fill="#ECC126"/>
<path d="M68.8021 11.9555C67.3131 13.3097 66.5961 14.4065 66.1365 16.8576H65.9772L66.1917 10.3561H61.2344V37.0116H66.1917V24.2967C66.2093 22.7705 66.4593 21.2559 66.9331 19.8051C67.5082 18.3729 68.478 17.1335 69.7299 16.231C70.9817 15.3284 72.4641 14.7999 74.0045 14.7068H74.0719C74.841 14.7031 75.6086 14.7749 76.3637 14.9213V10.2458C75.7889 10.1 75.198 10.0279 74.605 10.0314C72.4419 10.0314 70.3279 10.5706 68.8021 11.9555Z" fill="#ECC126"/>
<path d="M175.183 22.6739C175.233 20.16 174.669 17.6718 173.541 15.4248C172.538 13.3619 170.986 11.615 169.056 10.3756C167.107 9.16663 164.853 8.54339 162.56 8.58015C160.159 8.53649 157.798 9.19916 155.771 10.4859C153.777 11.7351 152.164 13.5069 151.107 15.6086C149.986 17.8954 149.421 20.4151 149.459 22.9619C149.417 25.5696 149.999 28.1495 151.157 30.4867C152.241 32.6254 153.912 34.4114 155.973 35.6364C158.035 36.8614 160.402 37.4747 162.799 37.4049C164.933 37.4506 167.057 37.0887 169.056 36.3386C170.534 35.6744 171.828 34.6583 172.824 33.379C173.15 33.0166 173.413 32.6024 173.602 32.1534L170.808 29.4143C170.215 30.4542 169.399 31.3498 168.418 32.037C166.757 33.1821 164.773 33.7661 162.756 33.7037C161.227 33.6774 159.738 33.2115 158.467 32.3618C157.216 31.5155 156.195 30.3722 155.495 29.0344C154.779 27.5764 154.416 25.9707 154.435 24.3467H175.067C175.155 23.7937 175.194 23.2338 175.183 22.6739ZM154.447 21.1481C154.448 18.8372 155.296 16.6069 156.831 14.8794C157.545 14.0877 158.422 13.459 159.401 13.0361C160.38 12.6132 161.439 12.4059 162.505 12.4283C163.933 12.4027 165.336 12.8015 166.537 13.5742C167.748 14.3484 168.722 15.4428 169.35 16.7361C170.036 18.1063 170.38 19.6221 170.355 21.1542L154.447 21.1481Z" fill="#ECC126"/>
<path d="M116.092 20.0398C116.092 17.9564 115.749 15.6156 114.787 13.9918C113.843 12.3557 112.451 11.0245 110.773 10.1558C108.982 9.19929 106.976 8.71627 104.946 8.75259C102.971 8.71278 101.014 9.13232 99.2289 9.97813C98.6248 10.2674 98.0431 10.6012 97.4886 10.9769C97.1212 11.2237 96.7748 11.5004 96.453 11.8042L97.6786 16.0936C98.2154 15.4639 98.8823 14.958 99.6333 14.6107C101.133 13.6866 102.86 13.1966 104.621 13.1952C106.46 13.1952 108.427 13.3851 109.603 14.6107C110.78 15.8362 111.147 17.889 111.147 19.7947V21.0203L105.749 21.5043C101.901 21.8312 98.9429 22.7503 96.8758 24.2618C95.9044 24.9023 95.1107 25.7781 94.5686 26.8076C94.0265 27.8372 93.7536 28.9872 93.7752 30.1505C93.7217 31.1576 93.8929 32.164 94.2766 33.0967C94.6603 34.0294 95.2467 34.865 95.9934 35.5429C97.5254 36.842 99.5924 37.4915 102.195 37.4915C104.584 37.4915 106.674 37.0442 108.279 35.8187C109.885 34.5931 110.228 33.9803 111.209 32.0134H111.392C111.392 35.0037 111.57 35.7451 111.925 37.0013H116.736C116.283 34.4534 116.078 31.8678 116.123 29.2804L116.092 20.0398ZM111.19 26.094C111.275 28.226 110.548 30.3108 109.156 31.9276C108.516 32.6686 107.718 33.2568 106.821 33.6492C105.924 34.0415 104.95 34.228 103.972 34.1948C102.589 34.2648 101.226 33.8437 100.124 33.006C99.6522 32.6231 99.2763 32.136 99.0254 31.5831C98.7744 31.0301 98.6553 30.4265 98.6774 29.8196C98.6606 29.0735 98.8333 28.3352 99.1795 27.674C99.5256 27.0128 100.034 26.4502 100.657 26.0388C101.976 25.0625 103.865 24.4681 106.325 24.2557L111.19 23.8206V26.094Z" fill="#ECC126"/>
<path d="M130.715 14.4339C132.16 13.6347 133.783 13.2132 135.433 13.2084C136.85 13.1984 138.246 13.5417 139.496 14.2072C140.744 14.8752 141.887 15.7215 142.891 16.7196L145.875 13.7293C145.204 12.8176 144.374 12.0349 143.424 11.4191C142.325 10.6342 141.109 10.0282 139.821 9.6237C138.408 9.13606 136.922 8.89359 135.427 8.90676C133.566 8.89696 131.722 9.26164 130.004 9.97911C128.308 10.6599 126.76 11.6629 125.445 12.9327C124.115 14.2078 123.058 15.7402 122.339 17.4365C121.587 19.2366 121.218 21.1729 121.254 23.123C121.193 25.765 121.827 28.3766 123.092 30.6969C124.271 32.785 125.987 34.5198 128.062 35.7216C130.22 36.9054 132.648 37.5093 135.109 37.4741C136.557 37.4874 138.001 37.2998 139.398 36.9165C140.64 36.5888 141.836 36.1071 142.958 35.4826C143.869 35.0059 144.697 34.3851 145.409 33.6443L143.173 30.1331C142.292 30.975 141.285 31.6738 140.189 32.2043C138.849 32.8373 137.381 33.1519 135.899 33.1234C134.183 33.1345 132.486 32.7663 130.93 32.045C129.412 31.3003 128.137 30.1401 127.253 28.6992C126.288 27.0015 125.815 25.0685 125.887 23.1169C125.833 21.2682 126.307 19.4425 127.253 17.8532C128.087 16.4297 129.281 15.2505 130.715 14.4339Z" fill="#ECC126"/>
</svg>
