<svg width="354" height="76" viewBox="0 0 354 76" fill="none" xmlns="http://www.w3.org/2000/svg">
<path d="M167.68 5.37664C166.155 7.03699 164.974 8.98291 164.205 11.1022C163.435 13.2214 163.093 15.472 163.198 17.7241V74.5223H173.373V37.3936H184.843V28.9973H173.373V16.7857C173.247 14.6036 173.953 12.455 175.348 10.7725C176.13 10.0269 177.058 9.45289 178.075 9.08717C179.091 8.72145 180.173 8.57211 181.25 8.64872C182.909 8.66695 184.563 8.84057 186.189 9.16731V1.38842C183.923 0.92347 181.612 0.716362 179.299 0.771046C177.15 0.6967 175.008 1.06744 173.009 1.85999C171.009 2.65254 169.195 3.84981 167.68 5.37664Z" fill="black"/>
<path d="M30.5105 34.0344L21.6327 32.1082C19.7324 31.7039 17.9046 31.0128 16.2122 30.0586C15.5411 29.575 14.9242 29.0202 14.3724 28.404C12.5568 26.3727 11.5968 23.7182 11.693 20.9955C11.6543 19.3621 12.0034 17.7427 12.7117 16.2703C13.42 14.7979 14.4673 13.5144 15.7677 12.5252C18.7649 10.1943 22.4947 9.00799 26.2877 9.17903C28.4075 9.10997 30.5182 9.48639 32.4834 10.284C34.4486 11.0815 36.2247 12.2825 37.6968 13.8093C39.6273 15.818 41.0017 18.2946 41.685 20.9955L46.7721 17.2049L50.4764 14.6366C50.2047 14.0192 49.896 13.4019 49.575 12.8092C49.4021 12.5128 49.2416 12.2165 49.0564 11.9325C46.8133 8.18909 43.5553 5.15799 39.66 3.19051C35.4692 1.01238 30.8001 -0.0827419 26.0778 0.00487281C21.5632 -0.0749532 17.0863 0.839816 12.9648 2.68427C9.35104 4.24271 6.26709 6.81625 4.08701 10.0927C1.92822 13.3137 0.80785 17.1186 0.876669 20.9955C0.876669 31.886 7.51959 38.7059 20.8055 41.4553L29.5845 43.4062C32.898 44.0232 35.973 45.5542 38.4623 47.8265C39.4728 48.745 40.2875 49.8579 40.8577 51.0986C41.272 52.1739 41.4814 53.3172 41.4751 54.4695C41.5041 56.164 41.1322 57.8414 40.3898 59.3649C39.6473 60.8884 38.5554 62.2149 37.2029 63.2361C33.9897 65.5895 30.0689 66.7745 26.0902 66.5947C21.5799 66.7623 17.1876 65.1324 13.8785 62.0631C11.7712 59.989 10.2942 57.3605 9.61866 54.4818L8.56913 55.1609V55.0374L0 60.6308C0.197559 61.1247 0.419813 61.6063 0.654414 62.0878C0.889016 62.5694 1.28414 63.3226 1.64221 63.8659C4.01143 67.5283 7.33201 70.4776 11.2485 72.3979C15.6541 74.5206 20.497 75.578 25.3864 75.4848C30.0849 75.5805 34.7509 74.6844 39.0797 72.8548C42.8198 71.2175 46.0367 68.5817 48.3773 65.2364C50.6068 61.9872 51.7718 58.1256 51.7111 54.1855C51.7111 43.7066 44.6443 36.9896 30.5105 34.0344Z" fill="black"/>
<path d="M108.512 30.2927L93.1767 56.9138C91.7738 59.6904 89.7754 62.1231 87.324 64.0383C85.222 65.5328 82.6914 66.3041 80.1131 66.2362C77.8094 66.2765 75.5316 65.7463 73.4825 64.6927C71.6191 63.7205 70.0661 62.2445 69.0004 60.4329C67.9147 58.5578 67.3519 56.4258 67.3705 54.2591C67.3953 52.5381 67.6826 50.831 68.2225 49.1967C68.7993 47.3609 69.5562 45.5866 70.4821 43.8996L84.3112 18.7479L76.4089 14.3398L62.3204 38.9607C60.8176 41.4995 59.5765 44.1845 58.6162 46.9741C57.8603 49.2126 57.444 51.5516 57.3815 53.9134C57.2592 57.6657 58.2214 61.3737 60.153 64.593C62.0846 67.8123 64.9035 70.4063 68.2719 72.0642C71.9566 73.8604 76.0146 74.7575 80.1131 74.6818C84.4429 74.7861 88.7088 73.6231 92.3865 71.3357C96.3061 68.6561 99.5142 65.0624 101.733 60.865L116.699 34.9354L108.512 30.2927Z" fill="black"/>
<path d="M138.64 24.0922C135.639 26.821 134.195 29.0312 133.269 33.9701H132.948L133.38 20.8695H123.391V74.5809H133.38V48.9599C133.415 45.8847 133.919 42.8328 134.874 39.9093C136.032 37.0235 137.987 34.526 140.509 32.7074C143.032 30.8888 146.019 29.8238 149.123 29.6362H149.259C150.808 29.6286 152.355 29.7734 153.876 30.0683V20.6472C152.718 20.3534 151.528 20.2082 150.333 20.2151C145.974 20.2151 141.714 21.3017 138.64 24.0922Z" fill="black"/>
<path d="M352.995 45.6884C353.095 40.6228 351.96 35.6091 349.686 31.0813C347.664 26.9245 344.537 23.4045 340.648 20.907C336.722 18.471 332.179 17.2152 327.559 17.2892C322.721 17.2013 317.964 18.5366 313.878 21.1293C309.862 23.6465 306.612 27.2167 304.482 31.4518C302.222 36.0596 301.083 41.1369 301.16 46.2687C301.076 51.5232 302.249 56.7218 304.581 61.4314C306.766 65.7408 310.133 69.3398 314.287 71.8081C318.441 74.2765 323.211 75.5124 328.041 75.3716C332.342 75.4637 336.62 74.7346 340.648 73.2232C343.628 71.8847 346.235 69.8372 348.241 67.2594C348.898 66.5293 349.428 65.6946 349.809 64.7899L344.179 59.2706C342.983 61.3659 341.339 63.1706 339.363 64.5553C336.016 66.8627 332.018 68.0395 327.954 67.9138C324.874 67.8607 321.873 66.922 319.311 65.2097C316.791 63.5044 314.734 61.2007 313.323 58.505C311.881 55.567 311.149 52.3316 311.187 49.0592H352.76C352.938 47.9448 353.017 46.8167 352.995 45.6884ZM311.211 42.6139C311.213 37.9575 312.922 33.4633 316.014 29.9824C317.454 28.3871 319.221 27.1203 321.194 26.2681C323.166 25.4159 325.3 24.9982 327.448 25.0434C330.325 24.9918 333.153 25.7954 335.573 27.3524C338.014 28.9124 339.975 31.1176 341.24 33.7237C342.623 36.4847 343.317 39.5389 343.265 42.6262L311.211 42.6139Z" fill="black"/>
<path d="M233.934 40.3781C233.934 36.18 233.243 31.4633 231.304 28.1912C229.403 24.8945 226.596 22.212 223.216 20.4617C219.607 18.5342 215.565 17.5609 211.474 17.6341C207.495 17.5539 203.551 18.3993 199.954 20.1036C198.737 20.6865 197.564 21.3592 196.447 22.1162C195.707 22.6135 195.009 23.171 194.36 23.7832L196.83 32.4264C197.912 31.1576 199.255 30.1382 200.769 29.4383C203.791 27.5762 207.27 26.5888 210.82 26.586C214.524 26.586 218.487 26.9688 220.858 29.4383C223.229 31.9078 223.97 36.0442 223.97 39.8842V42.3537L213.092 43.3292C205.337 43.9877 199.378 45.8398 195.212 48.8855C193.255 50.1761 191.656 51.9408 190.563 54.0154C189.471 56.09 188.921 58.4072 188.965 60.7514C188.857 62.7807 189.202 64.8087 189.975 66.688C190.748 68.5674 191.93 70.2512 193.434 71.6172C196.521 74.2348 200.686 75.5437 205.93 75.5437C210.746 75.5437 214.956 74.6423 218.191 72.1728C221.426 69.7033 222.118 68.4686 224.093 64.505H224.464C224.464 70.5306 224.822 72.0246 225.538 74.5559H235.231C234.319 69.4218 233.905 64.2117 233.996 58.9981L233.934 40.3781ZM224.056 52.5774C224.227 56.8734 222.762 61.0743 219.957 64.3322C218.667 65.8253 217.06 67.0107 215.252 67.8012C213.444 68.5918 211.483 68.9675 209.511 68.9007C206.724 69.0417 203.978 68.1932 201.757 66.5053C200.807 65.7338 200.049 64.7522 199.544 63.638C199.038 62.5238 198.798 61.3074 198.843 60.0847C198.809 58.5811 199.157 57.0936 199.854 55.7612C200.552 54.4288 201.576 53.2951 202.831 52.4663C205.49 50.4989 209.297 49.3012 214.252 48.8732L224.056 47.9965V52.5774Z" fill="black"/>
<path d="M263.393 29.0837C266.304 27.4732 269.574 26.6238 272.9 26.6142C275.754 26.5941 278.568 27.2858 281.087 28.6269C283.601 29.9728 285.905 31.6782 287.927 33.6893L293.94 27.6638C292.589 25.8267 290.915 24.2496 289.001 23.0088C286.787 21.4271 284.337 20.2061 281.741 19.391C278.894 18.4084 275.9 17.9198 272.888 17.9463C269.137 17.9266 265.421 18.6614 261.96 20.1071C258.543 21.479 255.423 23.5001 252.774 26.0586C250.094 28.6281 247.964 31.7158 246.514 35.134C245 38.7611 244.256 42.6629 244.328 46.5924C244.206 51.9161 245.483 57.1785 248.033 61.8539C250.408 66.0614 253.865 69.5572 258.046 71.9788C262.394 74.3642 267.287 75.5809 272.246 75.5101C275.165 75.537 278.074 75.1588 280.889 74.3865C283.391 73.7261 285.801 72.7555 288.063 71.4972C289.898 70.5366 291.566 69.2857 293.002 67.793L288.495 60.7179C286.721 62.4143 284.692 63.8225 282.482 64.8913C279.782 66.1669 276.824 66.8008 273.839 66.7435C270.381 66.7658 266.962 66.0237 263.825 64.5703C260.767 63.0697 258.198 60.7319 256.416 57.8286C254.472 54.4075 253.518 50.5125 253.663 46.5801C253.556 42.8549 254.511 39.1761 256.416 35.9736C258.098 33.1052 260.504 30.7292 263.393 29.0837Z" fill="black"/>
</svg>
