<svg width="148" height="140" viewBox="0 0 148 140" fill="none" xmlns="http://www.w3.org/2000/svg">
<path d="M60.4995 61.3416C60.4976 62.4129 60.7078 63.474 61.1181 64.4636C61.5284 65.4532 62.1305 66.3518 62.8899 67.1075L81.1123 87.0157L84.6784 83.7515L72.7665 70.7376L76.7871 67.0574L74.0934 64.1145L70.0728 67.7946L66.155 63.5144C65.4109 62.7898 64.969 61.8102 64.9182 60.7729C64.953 60.2608 65.0944 59.7616 65.3333 59.3073C65.5722 58.8531 65.9034 58.4537 66.3056 58.1349C66.8929 57.6091 67.5282 57.1394 68.2031 56.7321L65.7075 54.0056C64.764 54.5696 63.8875 55.2385 63.0944 55.9996C62.3172 56.6632 61.6854 57.4803 61.2389 58.3995C60.7923 59.3188 60.5406 60.3204 60.4995 61.3416Z" fill="white"/>
<path d="M21.6133 115.391L17.8836 117.564C17.0878 118.032 16.2254 118.376 15.3261 118.584C14.9357 118.63 14.5415 118.634 14.1504 118.595C12.8623 118.465 11.6742 117.843 10.8344 116.858C10.2968 116.298 9.89961 115.618 9.67549 114.875C9.45137 114.131 9.40668 113.345 9.5451 112.581C9.84785 110.803 10.7746 109.19 12.1589 108.034C12.8798 107.329 13.7403 106.784 14.685 106.433C15.6297 106.082 16.6376 105.933 17.6434 105.996C18.9645 106.081 20.2408 106.508 21.3468 107.235L21.9137 104.275L22.3881 102.186C22.0949 102.057 21.7886 101.939 21.4859 101.835C21.3303 101.786 21.1789 101.734 21.0229 101.694C19.0357 101.101 16.9213 101.084 14.9247 101.644C12.757 102.225 10.7691 103.34 9.14203 104.885C7.534 106.306 6.2583 108.063 5.40545 110.031C4.63878 111.737 4.38349 113.628 4.67054 115.476C4.94724 117.298 5.77527 118.991 7.0432 120.328C10.5371 124.145 15.0535 124.404 20.5924 121.105L24.2954 118.973C25.6548 118.126 27.2238 117.676 28.8253 117.674C29.4742 117.672 30.1168 117.8 30.7147 118.052C31.2049 118.296 31.6451 118.63 32.0126 119.036C32.5664 119.62 32.9742 120.328 33.2027 121.1C33.4313 121.872 33.4741 122.687 33.3277 123.479C32.9565 125.335 31.9624 127.008 30.5101 128.221C28.983 129.727 26.9206 130.565 24.776 130.551C23.3719 130.5 22.011 130.053 20.8506 129.26L20.7006 129.835L20.661 129.792L19.452 134.502C19.6797 134.611 19.9121 134.709 20.1488 134.802C20.3855 134.896 20.7657 135.033 21.0655 135.109C23.0709 135.632 25.181 135.601 27.1699 135.017C29.3951 134.348 31.4318 133.165 33.1156 131.563C34.7932 130.089 36.1412 128.278 37.0715 126.248C37.8571 124.475 38.139 122.519 37.8862 120.595C37.6252 118.741 36.7946 117.014 35.5093 115.652C32.1474 111.979 27.5154 111.892 21.6133 115.391Z" fill="white"/>
<path d="M47.7544 89.0592L50.9199 103.31C51.319 104.733 51.399 106.227 51.1542 107.685C50.8969 108.883 50.2574 109.965 49.3319 110.769C48.5374 111.522 47.5689 112.067 46.5127 112.355C45.5476 112.612 44.5297 112.593 43.575 112.3C42.5928 111.991 41.7116 111.424 41.023 110.659C40.4795 110.048 40.0325 109.357 39.6974 108.611C39.3106 107.783 39.0067 106.918 38.79 106.03L35.5679 92.7769L31.3838 93.7672L34.3447 106.917C34.6325 108.289 35.0589 109.628 35.6173 110.914C36.0705 111.941 36.675 112.895 37.4108 113.742C38.5718 115.097 40.0987 116.088 41.8086 116.597C43.5184 117.105 45.3387 117.11 47.0512 116.611C48.919 116.058 50.6292 115.07 52.0415 113.729C53.5926 112.377 54.7146 110.6 55.2698 108.619C55.784 106.422 55.7555 104.133 55.1868 101.95L52.1132 88.0601L47.7544 89.0592Z" fill="white"/>
<path d="M56.3232 77.2167C56.147 79.1358 56.3498 80.374 57.6097 82.4022L57.4972 82.5052L53.4456 77.7747L49.9444 80.9795L67.1764 99.8057L70.6777 96.6009L62.4578 87.6206C61.4836 86.5313 60.681 85.3 60.0778 83.9689C59.5581 82.5857 59.4418 81.0834 59.7425 79.6366C60.0432 78.1899 60.7485 76.8583 61.7763 75.7967L61.8239 75.7531C62.3647 75.2533 62.9532 74.8078 63.5811 74.4231L60.5586 71.1209C60.0584 71.3894 59.5944 71.7206 59.1779 72.1063C57.6501 73.5047 56.5056 75.2522 56.3232 77.2167Z" fill="white"/>
<path d="M138.384 16.0157C136.794 14.208 134.787 12.8151 132.538 11.9574C130.496 11.149 128.27 10.9185 126.106 11.291C123.948 11.6966 121.953 12.714 120.357 14.222C118.633 15.7434 117.394 17.7377 116.794 19.9572C116.194 22.1282 116.2 24.4223 116.812 26.5899C117.498 28.9302 118.728 31.075 120.402 32.849C122.058 34.7178 124.137 36.1637 126.465 37.0663C128.614 37.8756 130.948 38.0571 133.196 37.5895C135.444 37.122 137.513 36.0247 139.161 34.4258C140.697 33.0783 141.963 31.45 142.89 29.6282C143.505 28.203 143.762 26.6489 143.638 25.1016C143.634 24.635 143.552 24.1724 143.396 23.7329L139.651 23.6048C139.905 24.7227 139.907 25.8829 139.659 27.002C139.226 28.8848 138.202 30.5798 136.738 31.8395C135.641 32.8093 134.288 33.443 132.84 33.6647C131.41 33.8754 129.95 33.7281 128.59 33.2359C127.143 32.6687 125.848 31.7693 124.811 30.6104L139.383 17.2724C139.088 16.8247 138.754 16.4042 138.384 16.0157ZM122.752 28.3434C121.259 26.7108 120.416 24.5873 120.383 22.375C120.376 21.3538 120.589 20.3431 121.007 19.4115C121.425 18.4798 122.039 17.649 122.806 16.9756C123.798 16.0344 125.047 15.4089 126.395 15.1783C127.751 14.9419 129.146 15.0855 130.425 15.5932C131.796 16.1175 133.019 16.9651 133.991 18.0639L122.752 28.3434Z" fill="white"/>
<path d="M94.9502 52.3488C93.6034 50.8773 91.8478 49.4459 90.1185 48.921C88.3944 48.3755 86.55 48.3357 84.8039 48.8064C82.9204 49.2888 81.1914 50.2444 79.781 51.5826C78.3604 52.8312 77.2493 54.3928 76.5353 56.1442C76.2957 56.739 76.1007 57.3508 75.9519 57.9746C75.852 58.3864 75.7862 58.8058 75.7553 59.2284L79.3939 61.4656C79.366 60.6738 79.5099 59.8854 79.8158 59.1546C80.2776 57.5324 81.1803 56.0701 82.4236 54.9303C83.722 53.7419 85.234 52.6044 86.8572 52.7094C88.4805 52.8144 90.0672 54.0265 91.2992 55.3725L92.0915 56.2381L88.5916 60.07C86.0849 62.7885 84.5902 65.3497 84.1074 67.7536C83.8354 68.834 83.841 69.9656 84.1237 71.0432C84.4064 72.1208 84.9571 73.1095 85.7244 73.9171C86.3377 74.6631 87.1092 75.2631 87.9832 75.6738C88.8571 76.0845 89.8115 76.2956 90.7771 76.2916C92.6989 76.2188 94.5788 75.3413 96.4167 73.659C98.1045 72.114 99.2912 70.4473 99.6328 68.5438C99.9744 66.6404 99.8206 65.9857 99.2415 63.9627L99.3713 63.8438C101.304 65.9558 101.909 66.3646 102.972 67.0221L106.37 63.9124C104.403 62.4053 102.587 60.7118 100.946 58.8554L94.9502 52.3488ZM95.4018 59.7938C96.8401 61.2447 97.6743 63.1872 97.7362 65.2291C97.7632 66.1662 97.58 67.0975 97.2001 67.9545C96.8201 68.8115 96.2531 69.5726 95.5405 70.1818C94.6091 71.1251 93.3742 71.7089 92.0541 71.8299C91.4737 71.8642 90.8933 71.7631 90.3586 71.5348C89.8239 71.3065 89.3495 70.9572 88.9728 70.5143C88.4786 69.9982 88.1233 69.3651 87.9403 68.6743C87.7574 67.9835 87.7526 67.2576 87.9265 66.5645C88.2273 65.0219 89.1775 63.3807 90.777 61.6408L93.9321 58.1882L95.4018 59.7938Z" fill="white"/>
<path d="M101.653 38.9414C102.157 37.4431 103.03 36.0962 104.193 35.0256C105.187 34.103 106.395 33.4427 107.708 33.1046C109.021 32.7697 110.376 32.6282 111.73 32.6844L111.905 28.6432C110.841 28.433 109.749 28.4171 108.68 28.5962C107.397 28.7521 106.146 29.1102 104.975 29.6574C103.661 30.2264 102.455 31.0158 101.408 31.9913C100.087 33.1877 99.0203 34.6375 98.2711 36.2546C97.5133 37.8319 97.0682 39.5412 96.9606 41.2879C96.8454 43.0484 97.0895 44.814 97.678 46.4773C98.3111 48.2342 99.3021 49.8405 100.588 51.1947C102.253 53.0999 104.389 54.5346 106.783 55.3555C108.965 56.0683 111.299 56.1843 113.541 55.6917C115.83 55.1328 117.936 53.9896 119.651 52.3739C120.683 51.4467 121.581 50.381 122.32 49.2071C122.985 48.1728 123.519 47.0594 123.908 45.8928C124.243 44.9673 124.426 43.9938 124.45 43.0099L120.601 41.9759C120.523 43.1397 120.264 44.2843 119.832 45.3679C119.295 46.6812 118.461 47.8524 117.397 48.7901C116.192 49.9071 114.755 50.744 113.19 51.241C111.636 51.6962 109.986 51.7009 108.43 51.2549C106.651 50.6796 105.067 49.6203 103.856 48.1956C102.623 46.9243 101.778 45.3285 101.418 43.5945C101.087 42.0497 101.168 40.445 101.653 38.9414Z" fill="white"/>
</svg>
