<svg width="100" height="22" viewBox="0 0 100 22" fill="none" xmlns="http://www.w3.org/2000/svg">
<path d="M47.4996 1.52195C47.0675 1.9923 46.7329 2.54356 46.5149 3.14391C46.297 3.74427 46.2001 4.38183 46.2299 5.01982V21.11H49.1121V10.5919H52.3616V8.21338H49.1121V4.75398C49.0766 4.13582 49.2765 3.52715 49.6718 3.05052C49.8932 2.83931 50.1563 2.6767 50.4442 2.57309C50.7321 2.46949 51.0385 2.42718 51.3437 2.44888C51.8137 2.45405 52.2821 2.50323 52.7429 2.5958V0.392136C52.101 0.260422 51.4462 0.201751 50.7911 0.217242C50.1822 0.196181 49.5754 0.301206 49.009 0.525726C48.4426 0.750246 47.9287 1.08941 47.4996 1.52195V1.52195Z" fill="white"/>
<path d="M8.64325 9.64152L6.12827 9.09585C5.58993 8.98131 5.07215 8.78552 4.59271 8.5152C4.40259 8.37821 4.22784 8.22106 4.07152 8.04649C3.55719 7.47106 3.28522 6.71907 3.31249 5.94776C3.30151 5.48503 3.40041 5.02628 3.60106 4.60917C3.80171 4.19206 4.0984 3.82847 4.46678 3.54822C5.31586 2.88793 6.37246 2.55185 7.44697 2.6003C8.04748 2.58074 8.64541 2.68737 9.20213 2.91331C9.75885 3.13926 10.262 3.47948 10.679 3.912C11.2259 4.48104 11.6153 5.18263 11.8088 5.94776L13.2499 4.87392L14.2993 4.14636C14.2224 3.97147 14.1349 3.79657 14.044 3.62867C13.995 3.54473 13.9495 3.46078 13.897 3.38033C13.2616 2.31986 12.3387 1.46119 11.2352 0.903831C10.048 0.286795 8.72526 -0.0234397 7.38751 0.0013804C6.10857 -0.0212333 4.84032 0.237909 3.67277 0.760419C2.64903 1.20191 1.77539 1.93095 1.1578 2.85914C0.546239 3.7716 0.228853 4.84949 0.248349 5.94776C0.248349 9.03289 2.1302 10.9649 5.89392 11.7437L8.38091 12.2964C9.31958 12.4712 10.1907 12.9049 10.8959 13.5486C11.1821 13.8088 11.4129 14.1241 11.5745 14.4756C11.6918 14.7802 11.7511 15.1041 11.7494 15.4305C11.7576 15.9105 11.6522 16.3857 11.4419 16.8173C11.2316 17.2489 10.9222 17.6247 10.5391 17.914C9.62885 18.5807 8.51814 18.9164 7.39101 18.8654C6.11331 18.9129 4.86903 18.4512 3.93161 17.5817C3.33462 16.9941 2.91622 16.2495 2.72484 15.434L2.42752 15.6264L0 17.1759C0.055966 17.3158 0.118928 17.4523 0.185387 17.5887C0.251847 17.7251 0.363779 17.9385 0.465217 18.0924C1.13639 19.1299 2.07706 19.9654 3.18656 20.5094C4.43461 21.1107 5.80653 21.4103 7.19163 21.3839C8.52267 21.411 9.84448 21.1571 11.0708 20.6388C12.1303 20.175 13.0416 19.4283 13.7047 18.4806C14.3363 17.5602 14.6663 16.4662 14.6491 15.35C14.6491 12.3815 12.6471 10.4787 8.64325 9.64152Z" fill="white"/>
<path d="M30.7396 8.58224L26.3952 16.1237C25.9978 16.9102 25.4317 17.5994 24.7372 18.1419C24.1417 18.5653 23.4249 18.7838 22.6945 18.7645C22.0419 18.776 21.3966 18.6258 20.8161 18.3273C20.2882 18.0519 19.8483 17.6338 19.5464 17.1205C19.2388 16.5894 19.0794 15.9854 19.0847 15.3716C19.0917 14.8841 19.1731 14.4005 19.326 13.9375C19.4894 13.4174 19.7038 12.9148 19.9661 12.4369L23.8837 5.31173L21.6451 4.06299L17.654 11.0377C17.2283 11.757 16.8767 12.5176 16.6047 13.3079C16.3905 13.942 16.2726 14.6046 16.2549 15.2737C16.2202 16.3367 16.4928 17.3871 17.04 18.2991C17.5872 19.211 18.3858 19.9459 19.34 20.4155C20.3838 20.9244 21.5334 21.1785 22.6945 21.1571C23.921 21.1866 25.1295 20.8572 26.1714 20.2092C27.2817 19.4501 28.1905 18.432 28.8192 17.243L33.0587 9.89744L30.7396 8.58224Z" fill="white"/>
<path d="M39.2769 6.82472C38.4269 7.59775 38.0177 8.22387 37.7553 9.62302H37.6644L37.7868 5.91177H34.957V21.1275H37.7868V13.8694C37.7968 12.9983 37.9396 12.1337 38.2101 11.3055C38.5383 10.488 39.0919 9.7805 39.8065 9.2653C40.5211 8.75011 41.3673 8.4484 42.2466 8.39526H42.2851C42.7241 8.39312 43.1623 8.43413 43.5933 8.51769V5.84881C43.2652 5.76556 42.9279 5.72442 42.5894 5.72639C41.3546 5.72639 40.1479 6.0342 39.2769 6.82472Z" fill="white"/>
<path d="M99.9978 12.942C100.026 11.507 99.7044 10.0867 99.0603 8.80403C98.4876 7.62645 97.6018 6.62927 96.4999 5.92179C95.3878 5.23169 94.1008 4.87593 92.7922 4.89691C91.4216 4.87198 90.0739 5.25026 88.9165 5.98475C87.7786 6.69784 86.8579 7.70924 86.2546 8.90897C85.6143 10.2143 85.2919 11.6526 85.3137 13.1064C85.2898 14.595 85.622 16.0677 86.2826 17.4018C86.9018 18.6226 87.8554 19.6422 89.0322 20.3414C90.2089 21.0407 91.5603 21.3908 92.9286 21.3509C94.1469 21.377 95.359 21.1704 96.4999 20.7423C97.3441 20.3631 98.0826 19.7831 98.6511 19.0528C98.8371 18.846 98.9872 18.6095 99.0953 18.3532L97.5003 16.7897C97.1616 17.3832 96.6957 17.8945 96.1361 18.2868C95.1878 18.9404 94.0553 19.2738 92.9041 19.2382C92.0313 19.2231 91.1813 18.9572 90.4556 18.4722C89.7417 17.9891 89.1588 17.3365 88.7591 16.5728C88.3507 15.7405 88.1435 14.824 88.154 13.8969H99.9313C99.9817 13.5812 100.004 13.2617 99.9978 12.942V12.942ZM88.161 12.071C88.1614 10.752 88.6455 9.47883 89.5216 8.49272C89.9295 8.04078 90.4299 7.68192 90.9888 7.4405C91.5477 7.19908 92.152 7.08076 92.7607 7.09357C93.5757 7.07894 94.3768 7.30659 95.0623 7.74768C95.7538 8.1896 96.3095 8.81429 96.6678 9.55258C97.0594 10.3347 97.2562 11.1999 97.2415 12.0745L88.161 12.071Z" fill="white"/>
<path d="M66.2701 11.4389C66.2701 10.2497 66.0743 8.91348 65.5251 7.98654C64.9864 7.05263 64.1913 6.29272 63.234 5.79688C62.2115 5.25085 61.0665 4.97513 59.9075 4.99586C58.7802 4.97314 57.6629 5.21263 56.644 5.69544C56.2991 5.86055 55.9671 6.05113 55.6506 6.26559C55.4409 6.40644 55.2431 6.56438 55.0594 6.7378L55.759 9.18631C56.0655 8.82689 56.4461 8.5381 56.8748 8.33983C57.7309 7.81232 58.7165 7.53261 59.7221 7.53182C60.7715 7.53182 61.8943 7.64025 62.5659 8.33983C63.2375 9.0394 63.4473 10.2112 63.4473 11.299V11.9986L60.3657 12.2749C58.169 12.4615 56.4807 12.9862 55.3008 13.849C54.7463 14.2146 54.2932 14.7145 53.9838 15.3022C53.6743 15.8899 53.5185 16.5463 53.5309 17.2104C53.5003 17.7853 53.5981 18.3598 53.8171 18.8922C54.0361 19.4246 54.3709 19.9016 54.7971 20.2886C55.6716 21.0301 56.8515 21.4009 58.3369 21.4009C59.7011 21.4009 60.8939 21.1455 61.8103 20.446C62.7268 19.7464 62.9227 19.3966 63.4823 18.2738H63.5873C63.5873 19.9807 63.6887 20.404 63.8916 21.1211H66.6374C66.3792 19.6666 66.262 18.1907 66.2876 16.7137L66.2701 11.4389ZM63.4718 14.8948C63.5203 16.1118 63.1053 17.3019 62.3105 18.2248C61.9452 18.6478 61.4898 18.9836 60.9777 19.2076C60.4657 19.4315 59.9099 19.5379 59.3513 19.519C58.562 19.559 57.784 19.3186 57.1547 18.8404C56.8856 18.6219 56.6711 18.3438 56.5278 18.0282C56.3846 17.7125 56.3166 17.3679 56.3292 17.0215C56.3196 16.5956 56.4182 16.1742 56.6158 15.7968C56.8134 15.4193 57.1035 15.0982 57.459 14.8634C58.2122 14.306 59.2907 13.9667 60.6945 13.8455L63.4718 13.5971V14.8948Z" fill="white"/>
<path d="M74.6159 8.23984C75.4404 7.78361 76.3669 7.54298 77.3092 7.54027C78.1176 7.53456 78.9147 7.73053 79.6283 8.11042C80.3406 8.4917 80.9934 8.97483 81.5661 9.54455L83.2696 7.83759C82.8867 7.31716 82.4126 6.87039 81.8705 6.51889C81.2433 6.07082 80.5491 5.72491 79.8137 5.49401C79.0072 5.21566 78.1589 5.07725 77.3057 5.08476C76.2433 5.07917 75.1905 5.28734 74.2101 5.69689C73.2419 6.08552 72.3581 6.65806 71.6077 7.38286C70.8484 8.11076 70.245 8.98547 69.8343 9.9538C69.4055 10.9813 69.1947 12.0866 69.2152 13.1998C69.1806 14.7079 69.5424 16.1987 70.2645 17.5232C70.9374 18.7152 71.9168 19.7055 73.1013 20.3915C74.3331 21.0672 75.719 21.4119 77.1238 21.3918C77.9508 21.3994 78.7748 21.2923 79.5724 21.0735C80.2812 20.8865 80.964 20.6115 81.6046 20.255C82.1245 19.9829 82.597 19.6285 83.0038 19.2057L81.727 17.2014C81.2244 17.682 80.6496 18.0809 80.0236 18.3837C79.2588 18.745 78.4208 18.9246 77.5751 18.9084C76.5957 18.9147 75.627 18.7045 74.7383 18.2927C73.872 17.8676 73.1442 17.2054 72.6396 16.3829C72.0887 15.4137 71.8186 14.3103 71.8595 13.1963C71.8291 12.141 72.0997 11.0989 72.6396 10.1917C73.1159 9.37907 73.7974 8.70597 74.6159 8.23984V8.23984Z" fill="white"/>
</svg>
