<svg width="488" height="136" viewBox="0 0 488 136" fill="none" xmlns="http://www.w3.org/2000/svg">
<rect x="33.3281" y="34.0234" width="67.32" height="67.32" stroke="#2763BD"/>
<rect x="0.5" y="1.19531" width="487" height="32.7164" stroke="#2763BD"/>
<rect x="0.5" y="101.457" width="487" height="33.6036" stroke="#2763BD"/>
<rect x="100.762" y="134.695" width="133.499" height="32.6249" transform="rotate(-90 100.762 134.695)" stroke="#2763BD"/>
<rect x="0.5" y="135.062" width="133.865" height="32.7164" transform="rotate(-90 0.5 135.062)" stroke="#2763BD"/>
<rect x="454.875" y="134.699" width="133.499" height="32.6249" transform="rotate(-90 454.875 134.699)" stroke="#2763BD"/>
<line y1="-0.5" x2="75.189" y2="-0.5" transform="matrix(-0.44725 0.894409 -0.894446 -0.447177 133.891 34.3203)" stroke="#009EF5" stroke-opacity="0.4"/>
<line y1="-0.5" x2="62.5016" y2="-0.5" transform="matrix(-0.442761 0.896639 -0.898846 -0.438264 133.535 45.5312)" stroke="#009EF5" stroke-opacity="0.4"/>
<line y1="-0.5" x2="49.7206" y2="-0.5" transform="matrix(-0.443852 0.8961 -0.898317 -0.439349 133.535 57.0156)" stroke="#009EF5" stroke-opacity="0.4"/>
<line y1="-0.5" x2="37.4391" y2="-0.5" transform="matrix(-0.43975 0.89812 -0.898156 -0.439677 133.535 67.9492)" stroke="#009EF5" stroke-opacity="0.4"/>
<line y1="-0.5" x2="24.9083" y2="-0.5" transform="matrix(-0.435965 0.899964 -0.899999 -0.435892 133.535 79.1523)" stroke="#009EF5" stroke-opacity="0.4"/>
<line y1="-0.5" x2="12.3788" y2="-0.5" transform="matrix(-0.42447 0.905442 -0.905476 -0.424398 133.535 90.3633)" stroke="#009EF5" stroke-opacity="0.4"/>
<line y1="-0.5" x2="62.5016" y2="-0.5" transform="matrix(0.442761 -0.896639 0.898846 0.438264 100.613 90.3633)" stroke="#009EF5" stroke-opacity="0.4"/>
<line y1="-0.5" x2="49.7206" y2="-0.5" transform="matrix(0.443852 -0.8961 0.898317 0.439349 100.613 78.875)" stroke="#009EF5" stroke-opacity="0.4"/>
<line y1="-0.5" x2="37.4391" y2="-0.5" transform="matrix(0.43975 -0.89812 0.898156 0.439677 100.613 67.9492)" stroke="#009EF5" stroke-opacity="0.4"/>
<line y1="-0.5" x2="24.9083" y2="-0.5" transform="matrix(0.435965 -0.899964 0.899999 0.435892 100.613 56.7383)" stroke="#009EF5" stroke-opacity="0.4"/>
<line y1="-0.5" x2="12.3788" y2="-0.5" transform="matrix(0.42447 -0.905442 0.905476 0.424398 100.613 45.5312)" stroke="#009EF5" stroke-opacity="0.4"/>
<path d="M286.548 38.5585C285.16 40.0692 284.086 41.8398 283.386 43.768C282.686 45.6963 282.374 47.7441 282.47 49.7933V101.474H291.727V67.6904H302.165V60.0507H291.727V48.9394C291.613 46.954 292.256 44.999 293.525 43.4681C294.236 42.7897 295.081 42.2674 296.006 41.9346C296.931 41.6019 297.915 41.466 298.895 41.5357C300.405 41.5523 301.909 41.7103 303.389 42.0075V34.9296C301.327 34.5066 299.224 34.3181 297.12 34.3679C295.164 34.3002 293.216 34.6375 291.396 35.3587C289.577 36.0798 287.927 37.1692 286.548 38.5585Z" fill="#2763BD"/>
<path d="M161.742 64.6317L153.664 62.8791C151.935 62.5112 150.272 61.8823 148.732 61.0141C148.121 60.5741 147.56 60.0693 147.058 59.5086C145.406 57.6604 144.532 55.2451 144.62 52.7677C144.585 51.2815 144.902 49.808 145.547 48.4683C146.191 47.1286 147.144 45.9607 148.327 45.0606C151.054 42.9398 154.448 41.8604 157.899 42.016C159.828 41.9531 161.749 42.2956 163.537 43.0213C165.325 43.7471 166.941 44.8398 168.28 46.229C170.037 48.0567 171.288 50.3102 171.909 52.7677L176.538 49.3186L179.908 46.9818C179.661 46.42 179.38 45.8583 179.088 45.319C178.931 45.0494 178.785 44.7797 178.616 44.5213C176.576 41.1152 173.611 38.3573 170.067 36.5671C166.254 34.5852 162.005 33.5888 157.708 33.6685C153.601 33.5959 149.527 34.4282 145.777 36.1065C142.489 37.5245 139.683 39.8661 137.699 42.8474C135.735 45.7781 134.716 49.2402 134.778 52.7677C134.778 62.6768 140.822 68.8822 152.911 71.3838L160.899 73.1589C163.914 73.7203 166.712 75.1135 168.977 77.181C169.896 78.0167 170.638 79.0293 171.157 80.1582C171.533 81.1366 171.724 82.1769 171.718 83.2253C171.745 84.7672 171.406 86.2934 170.731 87.6796C170.055 89.0659 169.062 90.2728 167.831 91.2021C164.907 93.3434 161.34 94.4216 157.72 94.2579C153.616 94.4105 149.619 92.9275 146.608 90.1348C144.691 88.2475 143.347 85.8559 142.732 83.2366L141.777 83.8545L133.98 88.8315C134.16 89.2809 134.362 89.7191 134.576 90.1572C134.789 90.5954 135.149 91.2807 135.475 91.7751C137.63 95.1075 140.652 97.791 144.215 99.5383C148.224 101.47 152.63 102.432 157.079 102.347C161.354 102.434 165.6 101.619 169.539 99.954C172.942 98.4643 175.869 96.0659 177.999 93.0221C180.027 90.0657 181.087 86.552 181.032 82.9669C181.032 73.4323 174.602 67.3206 161.742 64.6317Z" fill="#2763BD"/>
<path d="M232.713 61.2263L218.759 85.4486C217.482 87.975 215.664 90.1885 213.434 91.9311C211.521 93.291 209.218 93.9928 206.872 93.9309C204.776 93.9677 202.704 93.4852 200.839 92.5266C199.144 91.6419 197.731 90.2989 196.761 88.6506C195.773 86.9444 195.261 85.0046 195.278 83.0332C195.301 81.4672 195.562 79.9139 196.053 78.4269C196.578 76.7565 197.267 75.142 198.109 73.6071L210.692 50.7218L203.502 46.7109L190.683 69.1132C189.316 71.4233 188.186 73.8663 187.313 76.4046C186.625 78.4413 186.246 80.5696 186.189 82.7186C186.078 86.1328 186.953 89.5066 188.711 92.4358C190.468 95.365 193.033 97.7253 196.098 99.2338C199.451 100.868 203.143 101.684 206.872 101.616C210.812 101.71 214.694 100.652 218.04 98.5709C221.606 96.1328 224.525 92.8629 226.545 89.0438L240.161 65.4506L232.713 61.2263Z" fill="#2763BD"/>
<path d="M260.125 55.5865C257.395 58.0694 256.08 60.0805 255.238 64.5744H254.946L255.339 52.6543H246.25V101.526H255.339V78.2135C255.371 75.4153 255.83 72.6384 256.698 69.9784C257.753 67.3526 259.531 65.0802 261.826 63.4255C264.121 61.7707 266.839 60.8017 269.663 60.631H269.787C271.197 60.6241 272.604 60.7558 273.989 61.0242V52.452C272.935 52.1846 271.852 52.0525 270.764 52.0588C266.799 52.0588 262.922 53.0475 260.125 55.5865Z" fill="#2763BD"/>
<path d="M455.168 75.2345C455.259 70.6253 454.225 66.0635 452.157 61.9436C450.317 58.1614 447.472 54.9585 443.933 52.6861C440.361 50.4696 436.227 49.3269 432.024 49.3943C427.622 49.3143 423.293 50.5293 419.576 52.8884C415.921 55.1788 412.964 58.4273 411.026 62.2807C408.969 66.4734 407.934 71.0931 408.004 75.7625C407.927 80.5436 408.994 85.2737 411.116 89.5589C413.105 93.48 416.167 96.7547 419.947 99.0006C423.727 101.247 428.067 102.371 432.462 102.243C436.375 102.327 440.268 101.663 443.933 100.288C446.644 99.0703 449.016 97.2073 450.842 94.8617C451.44 94.1974 451.922 93.438 452.269 92.6147L447.146 87.5928C446.058 89.4993 444.562 91.1414 442.764 92.4013C439.718 94.5008 436.081 95.5715 432.383 95.4572C429.58 95.4089 426.85 94.5547 424.519 92.9967C422.226 91.4451 420.354 89.349 419.07 86.8962C417.758 84.223 417.093 81.2791 417.127 78.3016H454.954C455.116 77.2875 455.188 76.2611 455.168 75.2345ZM417.149 72.437C417.15 68.2002 418.705 64.111 421.519 60.9437C422.83 59.4922 424.437 58.3395 426.232 57.5641C428.027 56.7887 429.968 56.4087 431.923 56.4498C434.541 56.4028 437.114 57.134 439.315 58.5507C441.536 59.9701 443.321 61.9766 444.472 64.3479C445.73 66.8601 446.362 69.6391 446.315 72.4482L417.149 72.437Z" fill="#2763BD"/>
<path d="M346.833 70.4024C346.833 66.5826 346.204 62.2909 344.44 59.3137C342.71 56.314 340.156 53.8733 337.081 52.2806C333.797 50.5269 330.12 49.6413 326.397 49.7079C322.776 49.6349 319.188 50.4041 315.915 51.9548C314.807 52.4852 313.741 53.0973 312.724 53.7861C312.051 54.2385 311.416 54.7458 310.826 55.3028L313.073 63.1672C314.057 62.0128 315.28 61.0852 316.657 60.4484C319.406 58.7541 322.572 57.8557 325.802 57.8531C329.172 57.8531 332.779 58.2014 334.936 60.4484C337.093 62.6953 337.767 66.459 337.767 69.953V72.2L327.869 73.0876C320.813 73.6868 315.391 75.372 311.601 78.1432C309.82 79.3175 308.365 80.9232 307.371 82.8109C306.377 84.6985 305.876 86.8069 305.916 88.9399C305.818 90.7864 306.132 92.6316 306.835 94.3416C307.539 96.0516 308.614 97.5837 309.983 98.8266C312.792 101.208 316.582 102.399 321.353 102.399C325.734 102.399 329.565 101.579 332.509 99.3321C335.452 97.0852 336.082 95.9617 337.879 92.3553H338.216C338.216 97.8379 338.542 99.1973 339.194 101.5H348.013C347.184 96.829 346.807 92.0884 346.889 87.3446L346.833 70.4024ZM337.845 81.5025C338.001 85.4113 336.668 89.2337 334.115 92.198C332.942 93.5566 331.479 94.6352 329.835 95.3545C328.19 96.0738 326.405 96.4157 324.611 96.3549C322.076 96.4832 319.577 95.7112 317.555 94.1753C316.691 93.4733 316.002 92.5802 315.542 91.5664C315.082 90.5526 314.863 89.4458 314.904 88.3332C314.873 86.9652 315.19 85.6117 315.824 84.3993C316.459 83.187 317.391 82.1555 318.533 81.4013C320.952 79.6113 324.416 78.5215 328.925 78.132L337.845 77.3343V81.5025Z" fill="#2763BD"/>
<path d="M373.639 60.1269C376.287 58.6616 379.263 57.8887 382.29 57.88C384.886 57.8616 387.447 58.4911 389.739 59.7113C392.026 60.9359 394.123 62.4876 395.963 64.3175L401.434 58.8349C400.204 57.1634 398.681 55.7284 396.94 54.5994C394.926 53.1603 392.696 52.0492 390.334 51.3076C387.743 50.4135 385.019 49.969 382.279 49.9931C378.866 49.9752 375.485 50.6438 372.336 51.9592C369.226 53.2075 366.387 55.0464 363.977 57.3744C361.538 59.7123 359.6 62.5218 358.281 65.632C356.904 68.9323 356.227 72.4825 356.292 76.0579C356.181 80.9019 357.344 85.6902 359.663 89.9442C361.824 93.7726 364.97 96.9534 368.774 99.1568C372.731 101.327 377.182 102.434 381.694 102.37C384.351 102.394 386.997 102.05 389.559 101.348C391.836 100.747 394.028 99.8635 396.086 98.7186C397.756 97.8445 399.274 96.7064 400.58 95.3481L396.479 88.9106C394.865 90.4541 393.019 91.7354 391.008 92.708C388.552 93.8686 385.86 94.4454 383.144 94.3932C379.998 94.4135 376.887 93.7383 374.032 92.4159C371.25 91.0505 368.912 88.9233 367.291 86.2816C365.522 83.1688 364.654 79.6248 364.786 76.0467C364.688 72.6572 365.557 69.3099 367.291 66.396C368.821 63.786 371.01 61.6241 373.639 60.1269Z" fill="#2763BD"/>
<path d="M107.359 64.8562C107.359 63.5461 107.831 62.4544 108.773 61.581C109.716 60.7145 110.895 60.2812 112.309 60.2812C113.647 60.2812 114.78 60.6798 115.709 61.477C116.638 62.2741 117.102 63.2481 117.102 64.3987C117.102 65.2306 116.87 66.0347 116.405 66.811C115.955 67.5735 115.099 68.6064 113.837 69.9095L110.042 73.8295V73.8711H117.352V75.5347H107.453V74.2454L112.735 68.6826C113.74 67.622 114.409 66.818 114.742 66.2703C115.068 65.7227 115.23 65.137 115.23 64.5131C115.23 63.7922 114.943 63.1788 114.367 62.6727C113.785 62.1667 113.082 61.9137 112.257 61.9137C111.376 61.9137 110.642 62.1944 110.052 62.7559C109.463 63.3174 109.169 64.0175 109.169 64.8562V64.8666H107.359V64.8562Z" fill="#2763BD"/>
<path d="M123.517 71.2405L120.783 75.5347H118.766L122.602 69.9303L118.828 64.326H120.845L123.58 68.5578H123.621L126.325 64.326H128.342L124.547 69.8576L128.29 75.5347H126.273L123.559 71.2405H123.517Z" fill="#2763BD"/>
<path d="M57.6719 14.1453C57.6719 12.8352 58.1432 11.7434 59.086 10.87C60.0287 10.0036 61.2071 9.57031 62.6212 9.57031C63.959 9.57031 65.0924 9.96889 66.0213 10.7661C66.9501 11.5632 67.4145 12.5371 67.4145 13.6878C67.4145 14.5196 67.1823 15.3237 66.7179 16.1001C66.2673 16.8626 65.4113 17.8954 64.1497 19.1986L60.3545 23.1186V23.1601H67.6641V24.8238H57.7655V23.5345L63.0475 17.9717C64.0526 16.9111 64.7215 16.107 65.0543 15.5594C65.3801 15.0118 65.543 14.4261 65.543 13.8022C65.543 13.0813 65.2553 12.4678 64.6799 11.9618C64.0977 11.4558 63.3941 11.2028 62.5692 11.2028C61.6889 11.2028 60.9541 11.4835 60.3649 12.045C59.7757 12.6064 59.4811 13.3066 59.4811 14.1453V14.1557H57.6719V14.1453Z" fill="#2763BD"/>
<path d="M73.8299 20.5295L71.0953 24.8238H69.0782L72.9149 19.2194L69.1406 13.615H71.1577L73.8923 17.8469H73.9339L76.6373 13.615H78.6545L74.8593 19.1466L78.6025 24.8238H76.5853L73.8715 20.5295H73.8299Z" fill="#2763BD"/>
<path d="M6.21094 63.8328C6.21094 62.5227 6.6823 61.4309 7.62503 60.5575C8.56776 59.6911 9.74617 59.2578 11.1603 59.2578C12.4981 59.2578 13.6314 59.6564 14.5603 60.4536C15.4892 61.2507 15.9536 62.2246 15.9536 63.3753C15.9536 64.2071 15.7214 65.0112 15.257 65.7876C14.8064 66.5501 13.9503 67.5829 12.6887 68.8861L8.89355 72.8061V72.8476H16.2032V74.5113H6.30452V73.222L11.5866 67.6592C12.5917 66.5986 13.2606 65.7945 13.5933 65.2469C13.9191 64.6993 14.082 64.1136 14.082 63.4897C14.082 62.7688 13.7943 62.1553 13.219 61.6493C12.6367 61.1433 11.9332 60.8903 11.1083 60.8903C10.2279 60.8903 9.49315 61.171 8.90395 61.7325C8.31474 62.2939 8.02014 62.9941 8.02014 63.8328V63.8432H6.21094V63.8328Z" fill="#2763BD"/>
<path d="M22.369 70.217L19.6344 74.5113H17.6172L21.454 68.9069L17.6796 63.3025H19.6968L22.4314 67.5344H22.473L25.1764 63.3025H27.1936L23.3984 68.8341L27.1416 74.5113H25.1244L22.4106 70.217H22.369Z" fill="#2763BD"/>
<path d="M116.549 19.2856L113.814 23.5798H111.797L115.634 17.9755L111.859 12.3711H113.876L116.611 16.603H116.653L119.356 12.3711H121.373L117.578 17.9027L121.321 23.5798H119.304L116.59 19.2856H116.549Z" fill="#2763BD"/>
<path d="M15.4002 122.071L12.6656 126.365H10.6484L14.4852 120.761L10.7108 115.156H12.728L15.4626 119.388H15.5042L18.2076 115.156H20.2247L16.4296 120.688L20.1728 126.365H18.1556L15.4418 122.071H15.4002Z" fill="#2763BD"/>
<path fill-rule="evenodd" clip-rule="evenodd" d="M66.9898 101.843C85.6108 101.843 100.706 86.7476 100.706 68.1265C100.706 49.5055 85.6108 34.4102 66.9898 34.4102C48.3688 34.4102 33.2734 49.5055 33.2734 68.1265C33.2734 86.7476 48.3688 101.843 66.9898 101.843ZM73.3276 77.1073L84.2757 58.4238L90.1201 61.6821L79.4363 79.8804C77.852 82.8262 75.5617 85.3484 72.7634 87.229C70.1379 88.8344 67.0924 89.6506 64.0014 89.5775C61.0754 89.6306 58.1783 89.001 55.5478 87.7403C53.1431 86.5767 51.1306 84.7562 49.7517 82.4968C48.3727 80.2374 47.6857 77.635 47.773 75.0015C47.8177 73.344 48.1148 71.7023 48.6545 70.1313C49.3401 68.1734 50.2261 66.2891 51.299 64.5072L61.3569 47.2275L66.9984 50.3212L57.1257 67.9735C56.4647 69.1575 55.9244 70.4027 55.5126 71.6912C55.1271 72.8382 54.922 74.0363 54.9043 75.2442C54.891 76.7648 55.2928 78.2611 56.0679 79.5771C56.8287 80.8485 57.9374 81.8844 59.2677 82.5668C60.7305 83.3062 62.3567 83.6784 64.0014 83.65C65.842 83.6977 67.6486 83.1564 69.1493 82.1075C70.8993 80.7633 72.326 79.056 73.3276 77.1073Z" fill="#2763BD"/>
</svg>
