<svg width="39" height="39" viewBox="0 0 39 39" fill="none" xmlns="http://www.w3.org/2000/svg">
<path fill-rule="evenodd" clip-rule="evenodd" d="M19.5 39C30.2696 39 39 30.2696 39 19.5C39 8.73045 30.2696 0 19.5 0C8.73045 0 0 8.73045 0 19.5C0 30.2696 8.73045 39 19.5 39ZM23.1667 24.6952L29.4986 13.8895L32.8787 15.7739L26.6997 26.299C25.7834 28.0027 24.4588 29.4614 22.8404 30.5491C21.3219 31.4776 19.5605 31.9496 17.7728 31.9073C16.0806 31.938 14.405 31.5739 12.8837 30.8448C11.4929 30.1718 10.329 29.1189 9.53145 27.8122C8.73392 26.5055 8.3366 25.0004 8.38709 23.4773C8.41294 22.5186 8.58478 21.5692 8.89691 20.6606C9.2934 19.5282 9.80584 18.4384 10.4264 17.4078L16.2434 7.41406L19.5062 9.20332L13.7962 19.4126C13.414 20.0973 13.1014 20.8175 12.8633 21.5627C12.6404 22.2261 12.5217 22.919 12.5115 23.6176C12.5038 24.4971 12.7362 25.3624 13.1845 26.1236C13.6245 26.8589 14.2657 27.458 15.0351 27.8527C15.8811 28.2803 16.8216 28.4956 17.7728 28.4792C18.8374 28.5068 19.8822 28.1937 20.7501 27.587C21.7623 26.8096 22.5874 25.8222 23.1667 24.6952Z" fill="white"/>
</svg>
