<svg width="437" height="152" viewBox="0 0 437 152" fill="none" xmlns="http://www.w3.org/2000/svg">
<rect x="1.17188" y="1.14062" width="435.328" height="37.2329" stroke="#2763BD"/>
<rect x="1.17188" y="114.266" width="435.328" height="37.2329" stroke="#2763BD"/>
<rect x="1.17187" y="151.496" width="150.355" height="36.8387" transform="rotate(-90 1.17187 151.496)" stroke="#2763BD"/>
<rect x="399.66" y="151.496" width="150.355" height="36.8387" transform="rotate(-90 399.66 151.496)" stroke="#2763BD"/>
<line x1="38.9589" y1="38.7041" x2="1.12021" y2="114.382" stroke="#009EF5" stroke-opacity="0.4"/>
<line y1="-0.5" x2="70.3329" y2="-0.5" transform="matrix(-0.442725 0.896658 -0.898828 -0.438301 38.1172 51.1016)" stroke="#009EF5" stroke-opacity="0.4"/>
<line y1="-0.5" x2="55.9505" y2="-0.5" transform="matrix(-0.443815 0.896118 -0.898299 -0.439385 38.1172 64.0273)" stroke="#009EF5" stroke-opacity="0.4"/>
<line x1="38.5663" y1="76.5441" x2="20.041" y2="114.383" stroke="#009EF5" stroke-opacity="0.4"/>
<line x1="38.5672" y1="89.1555" x2="26.3484" y2="114.381" stroke="#009EF5" stroke-opacity="0.4"/>
<line x1="38.5699" y1="101.759" x2="32.6576" y2="114.372" stroke="#009EF5" stroke-opacity="0.4"/>
<line y1="-0.5" x2="70.3329" y2="-0.5" transform="matrix(0.442725 -0.896658 0.898828 0.438301 1.07031 101.547)" stroke="#009EF5" stroke-opacity="0.4"/>
<line y1="-0.5" x2="55.9505" y2="-0.5" transform="matrix(0.443815 -0.896118 0.898299 0.439385 1.07031 88.625)" stroke="#009EF5" stroke-opacity="0.4"/>
<line x1="0.621243" y1="76.1044" x2="19.1465" y2="38.2656" stroke="#009EF5" stroke-opacity="0.4"/>
<line x1="0.620322" y1="63.4969" x2="12.8391" y2="38.2711" stroke="#009EF5" stroke-opacity="0.4"/>
<line x1="0.617583" y1="50.8893" x2="6.52988" y2="38.2764" stroke="#009EF5" stroke-opacity="0.4"/>
<path d="M210.296 43.2409C208.734 44.941 207.525 46.9335 206.737 49.1034C205.949 51.2733 205.599 53.5777 205.706 55.8837V114.041H216.124V76.0237H227.869V67.4266H216.124V54.9229C215.996 52.6886 216.718 50.4886 218.147 48.7658C218.947 48.0024 219.898 47.4147 220.939 47.0402C221.98 46.6657 223.087 46.5128 224.19 46.5913C225.889 46.6099 227.582 46.7877 229.247 47.1223V39.1573C226.927 38.6812 224.561 38.4692 222.193 38.5252C219.992 38.4491 217.799 38.8287 215.752 39.6402C213.704 40.4517 211.847 41.6776 210.296 43.2409Z" fill="#2763BD"/>
<path d="M69.8536 72.5868L60.7634 70.6145C58.8176 70.2005 56.9462 69.4929 55.2133 68.5158C54.5261 68.0207 53.8945 67.4527 53.3295 66.8217C51.4705 64.7418 50.4874 62.0238 50.586 59.236C50.5463 57.5635 50.9038 55.9054 51.629 54.3978C52.3543 52.8902 53.4266 51.576 54.7581 50.5631C57.827 48.1765 61.646 46.9617 65.5298 47.1369C67.7003 47.0662 69.8614 47.4516 71.8736 48.2682C73.8859 49.0849 75.7044 50.3146 77.2117 51.8779C79.1884 53.9347 80.5957 56.4705 81.2953 59.236L86.5042 55.3547L90.297 52.725C90.0189 52.0928 89.7028 51.4607 89.3741 50.8538C89.1971 50.5504 89.0327 50.247 88.8431 49.9562C86.5463 46.1232 83.2104 43.0196 79.2219 41.0051C74.9309 38.7749 70.15 37.6536 65.3148 37.7433C60.6922 37.6615 56.1082 38.5982 51.8882 40.4868C48.188 42.0825 45.0303 44.7176 42.798 48.0724C40.5876 51.3704 39.4405 55.2664 39.5109 59.236C39.5109 70.3869 46.3127 77.37 59.9164 80.1851L68.9054 82.1827C72.2982 82.8144 75.4467 84.3821 77.9956 86.7088C79.0302 87.6492 79.8644 88.7887 80.4483 90.0591C80.8724 91.1601 81.0868 92.3307 81.0804 93.5106C81.1101 95.2457 80.7293 96.9632 79.9691 98.5231C79.2089 100.083 78.0908 101.441 76.706 102.487C73.416 104.897 69.4014 106.11 65.3275 105.926C60.7094 106.097 56.212 104.429 52.8238 101.286C50.666 99.1621 49.1537 96.4708 48.462 93.5232L47.3874 94.2186V94.0922L38.6133 99.8193C38.8156 100.325 39.0431 100.818 39.2833 101.311C39.5236 101.804 39.9281 102.575 40.2948 103.132C42.7207 106.882 46.1207 109.902 50.1309 111.868C54.6418 114.041 59.6005 115.124 64.6069 115.029C69.4178 115.127 74.1954 114.209 78.6277 112.336C82.4573 110.659 85.7511 107.96 88.1477 104.535C90.4305 101.208 91.6234 97.2542 91.5613 93.2198C91.5613 82.4903 84.3254 75.6126 69.8536 72.5868Z" fill="#2763BD"/>
<path d="M149.72 68.7564L134.018 96.0142C132.581 98.8572 130.535 101.348 128.025 103.309C125.873 104.839 123.281 105.629 120.641 105.56C118.283 105.601 115.95 105.058 113.852 103.979C111.944 102.984 110.354 101.472 109.263 99.6174C108.151 97.6974 107.575 95.5145 107.594 93.296C107.619 91.5338 107.914 89.7859 108.466 88.1125C109.057 86.2327 109.832 84.416 110.78 82.6887L124.94 56.9353L116.849 52.4219L102.423 77.6316C100.884 80.2312 99.6136 82.9804 98.6304 85.8368C97.8563 88.1287 97.4302 90.5237 97.3661 92.942C97.2409 96.7841 98.2262 100.581 100.204 103.877C102.182 107.173 105.068 109.829 108.517 111.527C112.29 113.366 116.445 114.285 120.641 114.207C125.075 114.314 129.443 113.123 133.208 110.781C137.222 108.037 140.507 104.358 142.779 100.06L158.102 73.51L149.72 68.7564Z" fill="#2763BD"/>
<path d="M180.567 62.4037C177.495 65.1977 176.016 67.4608 175.067 72.5179H174.739L175.181 59.1039H164.953V114.1H175.181V87.8662C175.217 84.7174 175.733 81.5925 176.711 78.5991C177.897 75.6443 179.898 73.0871 182.481 71.225C185.064 69.3629 188.122 68.2723 191.301 68.0803H191.44C193.027 68.0725 194.61 68.2208 196.168 68.5228V58.8763C194.982 58.5754 193.763 58.4267 192.54 58.4338C188.077 58.4338 183.715 59.5464 180.567 62.4037Z" fill="#2763BD"/>
<path d="M400.051 84.5162C400.154 79.3295 398.991 74.1959 396.663 69.5598C394.593 65.3035 391.391 61.6993 387.409 59.1421C383.389 56.6478 378.737 55.3619 374.007 55.4378C369.053 55.3477 364.182 56.7149 359.999 59.3697C355.886 61.9471 352.559 65.6027 350.378 69.9391C348.064 74.6571 346.898 79.8558 346.977 85.1104C346.891 90.4906 348.091 95.8135 350.479 100.636C352.717 105.048 356.164 108.733 360.417 111.261C364.67 113.788 369.555 115.054 374.5 114.909C378.904 115.004 383.285 114.257 387.409 112.71C390.46 111.339 393.129 109.243 395.184 106.603C395.856 105.856 396.399 105.001 396.79 104.075L391.024 98.4232C389.8 100.569 388.116 102.417 386.094 103.834C382.666 106.197 378.573 107.402 374.412 107.273C371.257 107.219 368.185 106.258 365.562 104.504C362.982 102.758 360.875 100.4 359.43 97.6394C357.954 94.6311 357.205 91.3183 357.243 87.9677H399.811C399.993 86.8265 400.074 85.6715 400.051 84.5162ZM357.268 81.3681C357.27 76.6004 359.02 71.9988 362.186 68.4346C363.661 66.8011 365.469 65.504 367.489 64.6314C369.509 63.7588 371.694 63.3311 373.893 63.3774C376.839 63.3246 379.735 64.1474 382.212 65.7416C384.712 67.3389 386.72 69.5969 388.016 72.2653C389.431 75.0924 390.142 78.2196 390.089 81.3808L357.268 81.3681Z" fill="#2763BD"/>
<path d="M278.143 79.0785C278.143 74.78 277.435 69.9504 275.45 66.6001C273.503 63.2245 270.629 60.4779 267.169 58.6857C263.473 56.7121 259.335 55.7156 255.146 55.7905C251.071 55.7084 247.033 56.574 243.35 58.3191C242.104 58.9158 240.903 59.6047 239.759 60.3798C239.001 60.8889 238.287 61.4598 237.623 62.0866L240.151 70.9366C241.259 69.6374 242.635 68.5937 244.184 67.877C247.279 65.9704 250.841 64.9594 254.476 64.9565C258.268 64.9565 262.327 65.3484 264.754 67.877C267.182 70.4056 267.94 74.6409 267.94 78.5728V81.1013L256.802 82.1001C248.862 82.7744 242.76 84.6708 238.495 87.7894C236.491 89.1109 234.853 90.9177 233.735 93.042C232.616 95.1662 232.053 97.5388 232.098 99.9391C231.987 102.017 232.341 104.093 233.132 106.018C233.924 107.942 235.134 109.666 236.675 111.065C239.835 113.745 244.1 115.085 249.469 115.085C254.4 115.085 258.711 114.162 262.023 111.634C265.336 109.105 266.044 107.841 268.067 103.783H268.446C268.446 109.952 268.813 111.482 269.546 114.074H279.47C278.537 108.817 278.114 103.482 278.206 98.1438L278.143 79.0785ZM268.029 91.5696C268.204 95.9683 266.704 100.27 263.831 103.606C262.511 105.134 260.865 106.348 259.014 107.158C257.163 107.967 255.154 108.352 253.136 108.283C250.283 108.428 247.47 107.559 245.196 105.831C244.223 105.041 243.448 104.036 242.93 102.895C242.412 101.754 242.167 100.508 242.212 99.2564C242.177 97.7169 242.534 96.1938 243.248 94.8295C243.962 93.4652 245.011 92.3045 246.296 91.4558C249.018 89.4414 252.916 88.215 257.99 87.7767L268.029 86.8791V91.5696Z" fill="#2763BD"/>
<path d="M308.31 67.5142C311.29 65.8652 314.639 64.9955 318.045 64.9857C320.967 64.965 323.848 65.6733 326.427 67.0464C329.001 68.4245 331.361 70.1708 333.431 72.23L339.588 66.0603C338.204 64.1793 336.491 62.5644 334.531 61.294C332.264 59.6745 329.755 58.4242 327.097 57.5896C324.182 56.5835 321.116 56.0833 318.032 56.1104C314.192 56.0902 310.387 56.8426 306.843 58.3229C303.344 59.7276 300.149 61.797 297.437 64.4167C294.693 67.0477 292.512 70.2092 291.027 73.7092C289.477 77.423 288.715 81.4181 288.789 85.4417C288.664 90.8927 289.972 96.281 292.582 101.068C295.014 105.376 298.554 108.956 302.836 111.435C307.288 113.878 312.297 115.124 317.375 115.051C320.364 115.079 323.342 114.691 326.225 113.901C328.787 113.224 331.255 112.231 333.57 110.942C335.449 109.959 337.157 108.678 338.627 107.149L334.013 99.905C332.196 101.642 330.118 103.084 327.856 104.178C325.091 105.484 322.062 106.133 319.006 106.075C315.466 106.098 311.964 105.338 308.752 103.85C305.621 102.313 302.991 99.9193 301.167 96.9466C299.176 93.4437 298.199 89.4556 298.347 85.429C298.237 81.6148 299.215 77.848 301.167 74.5689C302.888 71.6319 305.352 69.199 308.31 67.5142Z" fill="#2763BD"/>
<path d="M8.66016 72.8437C8.66016 71.3694 9.19059 70.1408 10.2515 69.1579C11.3123 68.1828 12.6384 67.6953 14.2297 67.6953C15.7352 67.6953 17.0106 68.1438 18.0559 69.0409C19.1011 69.938 19.6238 71.0339 19.6238 72.3288C19.6238 73.2649 19.3625 74.1697 18.8398 75.0434C18.3328 75.9015 17.3694 77.0637 15.9497 78.5302L11.679 82.9414V82.9882H19.9046V84.8603H8.76546V83.4094L14.7095 77.1495C15.8405 75.9561 16.5933 75.0512 16.9677 74.435C17.3343 73.8187 17.5176 73.1596 17.5176 72.4575C17.5176 71.6463 17.1939 70.9559 16.5465 70.3865C15.8912 69.8171 15.0995 69.5323 14.1712 69.5323C13.1806 69.5323 12.3537 69.8483 11.6907 70.4801C11.0276 71.1119 10.6961 71.8998 10.6961 72.8437V72.8554H8.66016V72.8437Z" fill="#2763BD"/>
<path d="M26.8432 80.0279L23.7659 84.8603H21.4959L25.8135 78.5536L21.5661 72.2469H23.8361L26.9134 77.0091H26.9602L30.0024 72.2469H32.2723L28.0015 78.4717L32.2138 84.8603H29.9439L26.89 80.0279H26.8432Z" fill="#2763BD"/>
<path d="M18.9996 21.5584L15.9223 26.3908H13.6523L17.9699 20.0841L13.7225 13.7773H15.9925L19.0698 18.5396H19.1166L22.1588 13.7773H24.4288L20.158 20.0022L24.3703 26.3908H22.1003L19.0464 21.5584H18.9996Z" fill="#2763BD"/>
</svg>
