<svg width="353" height="112" viewBox="0 0 353 112" fill="none" xmlns="http://www.w3.org/2000/svg">
<path d="M167.207 23.7151C165.686 25.3707 164.508 27.3111 163.741 29.4243C162.974 31.5375 162.633 33.7817 162.737 36.0274V92.6641H172.883V55.6409H184.321V47.2686H172.883V35.0917C172.757 32.9158 173.461 30.7733 174.853 29.0956C175.632 28.3521 176.558 27.7797 177.572 27.4151C178.585 27.0504 179.663 26.9015 180.738 26.9778C182.392 26.996 184.041 27.1692 185.663 27.495V19.7382C183.403 19.2746 181.098 19.0681 178.793 19.1226C176.649 19.0484 174.514 19.4181 172.52 20.2084C170.526 20.9987 168.717 22.1926 167.207 23.7151Z" fill="black"/>
<path d="M30.4238 52.2892L21.5712 50.3685C19.6763 49.9653 17.8537 49.2761 16.1661 48.3246C15.4969 47.8424 14.8818 47.2893 14.3316 46.6748C12.5211 44.6493 11.5638 42.0023 11.6598 39.2874C11.6211 37.6586 11.9692 36.0438 12.6755 34.5756C13.3818 33.1074 14.4261 31.8276 15.7228 30.8411C18.7115 28.5169 22.4307 27.3339 26.213 27.5045C28.3267 27.4356 30.4314 27.811 32.391 28.6063C34.3506 29.4016 36.1216 30.5991 37.5896 32.1216C39.5146 34.1246 40.8851 36.5941 41.5664 39.2874L46.6391 35.5075L50.3328 32.9465C50.0619 32.3309 49.7541 31.7153 49.434 31.1243C49.2616 30.8288 49.1016 30.5333 48.9169 30.2501C46.6802 26.5174 43.4315 23.4949 39.5472 21.533C35.3683 19.3611 30.7125 18.2691 26.0036 18.3564C21.5018 18.2768 17.0377 19.189 12.9279 21.0282C9.32445 22.5822 6.24927 25.1484 4.07538 28.4156C1.92273 31.6274 0.805552 35.4215 0.874176 39.2874C0.874176 50.1469 7.49821 56.9474 20.7463 59.6889L29.5003 61.6343C32.8044 62.2495 35.8707 63.7762 38.3529 66.0421C39.3605 66.9579 40.1729 68.0676 40.7415 69.3048C41.1546 70.377 41.3634 71.5171 41.3571 72.6661C41.3861 74.3558 41.0152 76.0284 40.2749 77.5476C39.5346 79.0668 38.4457 80.3895 37.0971 81.4079C33.893 83.7546 29.9834 84.9361 26.016 84.7568C21.5185 84.924 17.1387 83.2987 13.8391 80.2382C11.7377 78.1699 10.265 75.5489 9.59131 72.6784L8.54476 73.3556V73.2325L0 78.81C0.196997 79.3024 0.418619 79.7826 0.652553 80.2628C0.886488 80.743 1.28048 81.494 1.63754 82.0358C4.00002 85.6878 7.31116 88.6287 11.2165 90.5436C15.6096 92.6602 20.4387 93.7146 25.3142 93.6217C29.9994 93.7171 34.6521 92.8235 38.9685 90.9992C42.698 89.3665 45.9057 86.7382 48.2397 83.4025C50.4629 80.1625 51.6245 76.3118 51.564 72.3829C51.564 61.9339 44.5173 55.236 30.4238 52.2892Z" fill="black"/>
<path d="M108.203 48.5599L92.9108 75.1053C91.5119 77.8739 89.5191 80.2997 87.0748 82.2095C84.9787 83.6997 82.4553 84.4689 79.8844 84.4011C77.5872 84.4413 75.3158 83.9126 73.2726 82.862C71.4145 81.8925 69.8659 80.4207 68.8033 78.6143C67.7207 76.7445 67.1594 74.6186 67.178 72.4581C67.2028 70.742 67.4892 69.0397 68.0276 67.4101C68.6028 65.5795 69.3575 63.8102 70.2807 62.1281L84.0706 37.0478L76.1907 32.6523L62.1423 57.2031C60.6437 59.7348 59.4061 62.4121 58.4486 65.1938C57.6948 67.4259 57.2798 69.7583 57.2174 72.1134C57.0954 75.855 58.055 79.5524 59.981 82.7626C61.9071 85.9727 64.718 88.5593 68.0768 90.2125C71.751 92.0037 75.7975 92.8982 79.8844 92.8227C84.2018 92.9267 88.4556 91.767 92.1228 89.4861C96.0313 86.8142 99.2303 83.2306 101.443 79.0452L116.366 53.1893L108.203 48.5599Z" fill="#DADADA"/>
<path d="M138.245 42.378C135.253 45.0991 133.812 47.303 132.889 52.2279H132.569L133 39.1645H123.039V92.7232H133V67.1751C133.035 64.1085 133.537 61.0653 134.49 58.1501C135.645 55.2726 137.594 52.7822 140.109 50.9688C142.624 49.1553 145.603 48.0933 148.698 47.9063H148.833C150.379 47.8987 151.921 48.0431 153.438 48.3372V38.9429C152.283 38.6499 151.096 38.505 149.905 38.512C145.558 38.512 141.311 39.5954 138.245 42.378Z" fill="black"/>
<path d="M351.996 63.9123C352.096 58.8611 350.963 53.8617 348.696 49.3468C346.68 45.2018 343.562 41.6917 339.684 39.2014C335.769 36.7723 331.239 35.5201 326.633 35.5939C321.808 35.5062 317.065 36.8377 312.991 39.4231C308.985 41.9331 305.745 45.4932 303.621 49.7162C301.367 54.3109 300.232 59.3737 300.309 64.491C300.225 69.7305 301.394 74.9144 303.719 79.6105C305.899 83.9077 309.256 87.4964 313.398 89.9577C317.54 92.4191 322.297 93.6515 327.113 93.5111C331.401 93.603 335.668 92.8759 339.684 91.3688C342.655 90.0341 345.255 87.9924 347.256 85.4219C347.911 84.6939 348.439 83.8616 348.82 82.9595L343.205 77.4558C342.013 79.5452 340.373 81.3448 338.403 82.7255C335.065 85.0264 331.079 86.1998 327.027 86.0745C323.955 86.0215 320.963 85.0855 318.408 83.3781C315.895 81.6776 313.844 79.3805 312.437 76.6925C310.999 73.7628 310.269 70.5366 310.307 67.2735H351.762C351.94 66.1623 352.018 65.0374 351.996 63.9123ZM310.331 60.8465C310.333 56.2034 312.037 51.722 315.121 48.251C316.556 46.6602 318.318 45.397 320.285 44.5472C322.252 43.6974 324.379 43.2809 326.522 43.3261C329.391 43.2746 332.21 44.0759 334.623 45.6285C337.057 47.184 339.013 49.3829 340.275 51.9816C341.653 54.7348 342.346 57.7803 342.294 60.8588L310.331 60.8465Z" fill="black"/>
<path d="M233.267 58.6181C233.267 54.4319 232.578 49.7286 230.644 46.4658C228.748 43.1785 225.95 40.5037 222.58 38.7583C218.981 36.8363 214.95 35.8658 210.871 35.9388C206.903 35.8588 202.97 36.7018 199.383 38.4013C198.17 38.9824 197.001 39.6533 195.887 40.4082C195.149 40.904 194.453 41.4599 193.806 42.0703L196.268 50.689C197.347 49.4238 198.687 48.4073 200.196 47.7094C203.209 45.8526 206.679 44.868 210.218 44.8652C213.912 44.8652 217.864 45.2469 220.228 47.7094C222.592 50.1719 223.331 54.2965 223.331 58.1256V60.5881L212.484 61.5608C204.752 62.2174 198.809 64.0643 194.656 67.1013C192.704 68.3882 191.109 70.1479 190.02 72.2166C188.93 74.2853 188.382 76.5959 188.426 78.9335C188.318 80.957 188.662 82.9792 189.433 84.8532C190.204 86.7272 191.382 88.4062 192.883 89.7683C195.961 92.3785 200.114 93.6836 205.343 93.6836C210.144 93.6836 214.343 92.7848 217.569 90.3224C220.795 87.8599 221.484 86.6287 223.454 82.6764H223.823C223.823 88.6848 224.181 90.1746 224.895 92.6986H234.56C233.651 87.5792 233.239 82.3839 233.329 77.1851L233.267 58.6181ZM223.417 70.7827C223.588 75.0664 222.127 79.2554 219.329 82.504C218.044 83.9929 216.441 85.1749 214.638 85.9632C212.836 86.7516 210.879 87.1262 208.913 87.0596C206.135 87.2001 203.396 86.3541 201.181 84.671C200.234 83.9016 199.479 82.9229 198.975 81.8118C198.47 80.7008 198.231 79.4879 198.275 78.2686C198.242 76.7693 198.589 75.286 199.284 73.9574C199.98 72.6288 201.001 71.4984 202.252 70.6719C204.904 68.7101 208.7 67.5158 213.641 67.089L223.417 66.2148V70.7827Z" fill="black"/>
<path d="M262.643 47.3528C265.546 45.7469 268.807 44.8999 272.124 44.8904C274.969 44.8703 277.775 45.5601 280.287 46.8973C282.794 48.2394 285.092 49.9399 287.108 51.9453L293.104 45.9369C291.756 44.1051 290.087 42.5324 288.179 41.2952C285.971 39.718 283.528 38.5004 280.939 37.6877C278.1 36.7079 275.115 36.2207 272.111 36.2471C268.372 36.2274 264.666 36.9602 261.215 38.4018C257.807 39.7697 254.696 41.785 252.055 44.3363C249.382 46.8985 247.258 49.9774 245.812 53.3859C244.303 57.0027 243.561 60.8933 243.633 64.8117C243.511 70.1202 244.785 75.3677 247.327 80.0298C249.695 84.2254 253.143 87.7112 257.312 90.1259C261.648 92.5045 266.526 93.7178 271.471 93.6472C274.382 93.674 277.283 93.2969 280.09 92.5268C282.585 91.8683 284.988 90.9004 287.243 89.6457C289.073 88.6878 290.736 87.4405 292.168 85.952L287.674 78.897C285.905 80.5886 283.882 81.9928 281.678 83.0586C278.986 84.3306 276.036 84.9627 273.059 84.9055C269.612 84.9277 266.202 84.1878 263.074 82.7385C260.025 81.2422 257.463 78.911 255.687 76.0159C253.748 72.6046 252.797 68.7207 252.941 64.7994C252.834 61.0848 253.786 57.4165 255.687 54.2231C257.363 51.3629 259.762 48.9936 262.643 47.3528Z" fill="black"/>
<g clip-path="url(#clip0)">
<path d="M111.025 23.796L110.276 21.1427L107.557 21.7523C93.4544 24.9156 81.5994 34.0276 75.0321 46.7518L74.9634 46.8847C74.1461 48.4683 73.4088 50.1166 72.7723 51.7834L59.9472 85.3698L71.4936 85.8779L77.5289 95.8752L101.088 68.7573C102.257 67.411 103.363 65.9841 104.375 64.5161C112.559 52.6446 114.983 37.8028 111.025 23.796ZM100.378 61.7735C99.4647 63.0984 98.4661 64.3865 97.4103 65.6016L78.192 87.7235L75.6871 83.5741L89.4081 60.6852L85.2499 58.1925L71.5219 81.0931L66.8455 80.8874L77.2884 53.5394C77.863 52.0348 78.5284 50.5472 79.266 49.1181L79.3346 48.9851C84.4152 39.1415 93.003 31.6949 103.368 27.969L89.3789 51.3049L93.5371 53.7976L107.551 30.4201C109.228 41.3984 106.72 52.5739 100.378 61.7735Z" fill="black"/>
</g>
<defs>
<clipPath id="clip0">
<rect width="82.4362" height="80.9641" fill="white" transform="translate(75) rotate(30.941)"/>
</clipPath>
</defs>
</svg>
