<svg width="445" height="95" viewBox="0 0 445 95" fill="none" xmlns="http://www.w3.org/2000/svg">
<path d="M11.4367 63.5563C11.722 68.6215 12.9244 72.7345 15.044 75.8952C19.0792 81.8114 26.1918 84.7695 36.3819 84.7695C40.947 84.7695 45.1045 84.1212 48.8544 82.8245C56.1097 80.3121 59.7374 75.8142 59.7374 69.3307C59.7374 64.468 58.2089 61.0034 55.1519 58.9367C52.0541 56.9106 47.2037 55.1479 40.6005 53.6486L28.4336 50.9134C20.4854 49.1304 14.8605 47.1651 11.559 45.0174C5.85255 41.2894 2.99935 35.7176 2.99935 28.3021C2.99935 20.2787 5.79141 13.6939 11.3755 8.54757C16.9597 3.40128 24.8671 0.828125 35.0979 0.828125C44.5135 0.828125 52.5025 3.09736 59.0648 7.63583C65.668 12.1338 68.9696 19.3467 68.9696 29.2746H57.5363C56.9249 24.493 55.6206 20.8258 53.6234 18.2729C49.9142 13.6128 43.6168 11.2828 34.7311 11.2828C27.5573 11.2828 22.4011 12.7821 19.2626 15.7808C16.1241 18.7794 14.5548 22.2643 14.5548 26.2354C14.5548 30.6118 16.389 33.8131 20.0574 35.8392C22.4623 37.1359 27.9038 38.7568 36.3819 40.7018L48.9767 43.5586C55.05 44.9364 59.7374 46.8206 63.039 49.2114C68.7454 53.3852 71.5986 59.4433 71.5986 67.3856C71.5986 77.273 67.9709 84.3441 60.7156 88.5989C53.5011 92.8537 45.1045 94.9811 35.5259 94.9811C24.3576 94.9811 15.6146 92.1446 9.29678 86.4715C2.97897 80.8389 -0.118798 73.2005 0.00348267 63.5563H11.4367Z" fill="#DADADA"/>
<path d="M106.458 27.2688V70.4855C106.458 73.8083 106.988 76.5233 108.048 78.6305C110.004 82.5206 113.652 84.4656 118.992 84.4656C126.655 84.4656 131.872 81.0618 134.644 74.2541C136.152 70.6071 136.906 65.6026 136.906 59.2407V27.2688H147.911V92.3674H137.517L137.639 82.7637C136.213 85.2355 134.44 87.3224 132.32 89.0244C128.122 92.4282 123.027 94.1301 117.035 94.1301C107.701 94.1301 101.343 91.0302 97.9597 84.8303C96.1255 81.5075 95.2084 77.0704 95.2084 71.5188V27.2688H106.458Z" fill="#DADADA"/>
<path d="M159.568 27.2688H170.023V38.5136C170.879 36.3254 172.978 33.6712 176.321 30.551C179.663 27.3903 183.515 25.81 187.876 25.81C188.08 25.81 188.427 25.8302 188.916 25.8708C189.405 25.9113 190.24 25.9923 191.422 26.1139V37.6627C190.77 37.5411 190.159 37.4601 189.588 37.4195C189.058 37.379 188.467 37.3588 187.815 37.3588C182.272 37.3588 178.012 39.1417 175.037 42.7077C172.061 46.2331 170.574 50.3055 170.574 54.9251V92.3674H159.568V27.2688Z" fill="#DADADA"/>
<path d="M209.601 17.3611C209.764 12.8227 210.559 9.49984 211.986 7.3927C214.554 3.66467 219.506 1.80065 226.843 1.80065C227.536 1.80065 228.249 1.82092 228.983 1.86144C229.716 1.90196 230.552 1.96274 231.489 2.04379V12.0122C230.348 11.9312 229.513 11.8906 228.983 11.8906C228.494 11.8501 228.025 11.8299 227.576 11.8299C224.234 11.8299 222.237 12.7011 221.585 14.4435C220.933 16.1455 220.607 20.5218 220.607 27.5727H231.489V36.2039H220.484V92.3674H209.601V36.2039H200.491V27.5727H209.601V17.3611Z" fill="#DADADA"/>
<path d="M253.323 75.0443C253.323 78.205 254.485 80.6971 256.808 82.5206C259.132 84.3441 261.883 85.2558 265.062 85.2558C268.934 85.2558 272.684 84.3643 276.312 82.5814C282.426 79.6232 285.483 74.7809 285.483 68.0542V59.2407C284.138 60.0916 282.406 60.8008 280.286 61.3681C278.167 61.9354 276.088 62.3406 274.05 62.5837L267.386 63.4347C263.391 63.9615 260.395 64.7922 258.398 65.9268C255.015 67.8313 253.323 70.8705 253.323 75.0443ZM279.98 52.9192C282.508 52.595 284.199 51.5415 285.055 49.7585C285.544 48.786 285.789 47.388 285.789 45.5645C285.789 41.8364 284.444 39.1417 281.753 37.4803C279.104 35.7784 275.293 34.9274 270.32 34.9274C264.573 34.9274 260.497 36.4673 258.092 39.5469C256.747 41.2489 255.87 43.7815 255.463 47.1448H245.191C245.395 39.1215 248.004 33.5497 253.017 30.4295C258.071 27.2688 263.921 25.6884 270.565 25.6884C278.269 25.6884 284.525 27.1472 289.335 30.0648C294.104 32.9824 296.488 37.5208 296.488 43.6802V81.1833C296.488 82.318 296.712 83.2297 297.161 83.9186C297.65 84.6075 298.649 84.9519 300.157 84.9519C300.646 84.9519 301.196 84.9316 301.807 84.8911C302.419 84.8101 303.071 84.7088 303.764 84.5872V92.6713C302.052 93.1576 300.748 93.4615 299.851 93.5831C298.954 93.7047 297.731 93.7654 296.183 93.7654C292.392 93.7654 289.641 92.4282 287.929 89.7538C287.032 88.3355 286.4 86.3296 286.033 83.7362C283.792 86.6538 280.571 89.1864 276.373 91.3341C272.175 93.4818 267.549 94.5556 262.494 94.5556C256.421 94.5556 251.448 92.7321 247.576 89.0851C243.744 85.3976 241.828 80.7984 241.828 75.2874C241.828 69.2496 243.724 64.5693 247.514 61.2465C251.305 57.9237 256.278 55.8773 262.433 55.1074L279.98 52.9192Z" fill="#DADADA"/>
<path d="M339.858 25.3845C347.236 25.3845 353.227 27.1675 357.833 30.7334C362.48 34.2993 365.272 40.4384 366.209 49.1507H355.51C354.858 45.139 353.37 41.8162 351.047 39.1822C348.723 36.5078 344.994 35.1706 339.858 35.1706C332.847 35.1706 327.834 38.5744 324.818 45.3821C322.861 49.799 321.883 55.2492 321.883 61.7328C321.883 68.2568 323.269 73.7476 326.04 78.205C328.812 82.6624 333.173 84.8911 339.124 84.8911C343.689 84.8911 347.297 83.5134 349.946 80.7579C352.636 77.9618 354.491 74.1528 355.51 69.3307H366.209C364.987 77.9618 361.93 84.2833 357.038 88.295C352.147 92.2661 345.89 94.2517 338.268 94.2517C329.709 94.2517 322.881 91.1518 317.786 84.9519C312.691 78.7115 310.144 70.9313 310.144 61.6112C310.144 50.184 312.936 41.2894 318.52 34.9274C324.104 28.5655 331.217 25.3845 339.858 25.3845Z" fill="#DADADA"/>
<path d="M411.517 25.81C416.164 25.81 420.668 26.9041 425.029 29.0923C429.39 31.2399 432.712 34.0359 434.995 37.4803C437.196 40.7626 438.663 44.5919 439.397 48.9683C440.049 51.9669 440.375 56.7486 440.375 63.3131H392.38C392.584 69.9182 394.153 75.2266 397.088 79.2383C400.023 83.2094 404.567 85.195 410.722 85.195C416.469 85.195 421.055 83.3108 424.479 79.5422C426.435 77.354 427.821 74.8214 428.636 71.9443H439.458C439.173 74.3351 438.215 77.0096 436.584 79.9677C434.995 82.8853 433.201 85.2761 431.204 87.1401C427.862 90.3819 423.725 92.57 418.793 93.7047C416.143 94.353 413.147 94.6772 409.805 94.6772C401.653 94.6772 394.744 91.7393 389.079 85.8636C383.413 79.9474 380.58 71.6809 380.58 61.0641C380.58 50.6095 383.433 42.1201 389.14 35.596C394.846 29.072 402.305 25.81 411.517 25.81ZM429.064 54.6211C428.616 49.8801 427.576 46.0913 425.946 43.2547C422.93 37.9868 417.896 35.3529 410.844 35.3529C405.79 35.3529 401.551 37.1764 398.127 40.8234C394.703 44.4298 392.89 49.0291 392.686 54.6211H429.064Z" fill="#DADADA"/>
<path d="M209.671 22.8706V22.8531L209.671 22.8357C209.545 20.1335 209.955 17.4331 210.878 14.8904C211.799 12.3522 213.213 10.0211 215.039 8.03131C216.848 6.21054 219.013 4.78254 221.4 3.83665C223.79 2.88899 226.351 2.44569 228.921 2.53459L228.943 2.53535L228.965 2.53483C231.581 2.47297 234.196 2.68588 236.767 3.16973V11.3249C234.996 11.0187 233.202 10.8542 231.404 10.8333C229.968 10.7343 228.526 10.9349 227.17 11.4226C225.808 11.9129 224.563 12.6823 223.515 13.6817L223.484 13.712L223.456 13.7457C221.604 15.9787 220.665 18.8288 220.826 21.7246V36.8918V37.6418H221.576H235.093V46.5847H221.576H220.826V47.3347V92.764H209.671V22.8706Z" stroke="#287AF5" stroke-width="1.5"/>
<path d="M43.7397 43.893L43.7341 43.8918L32.6952 41.4967C32.6946 41.4966 32.694 41.4964 32.6934 41.4963C30.256 40.9776 27.9118 40.091 25.7411 38.8671L25.7048 38.8466L25.671 38.8223C24.7924 38.1892 23.9848 37.463 23.2624 36.6562L23.262 36.6557C20.8798 33.9905 19.6178 30.5093 19.7384 26.9372C19.691 24.7945 20.1506 22.6709 21.0797 20.7394C22.0115 18.8024 23.389 17.1138 25.0993 15.812C28.9597 12.811 33.7612 11.2808 38.6457 11.4941C41.3772 11.4092 44.0965 11.8962 46.6289 12.924C49.1704 13.9554 51.4672 15.5086 53.371 17.483L53.3718 17.4839C55.6062 19.8088 57.2634 22.6193 58.2175 25.6888L63.6705 21.6255L63.6808 21.6178L63.6913 21.6105L67.784 18.7729C67.5239 18.2181 67.2422 17.6654 66.9509 17.1272C66.8853 17.0147 66.824 16.9074 66.7648 16.8039C66.6183 16.5475 66.4847 16.3138 66.3316 16.079L66.3238 16.0671L66.3164 16.0548C63.5994 11.5205 59.6531 7.84898 54.9348 5.46582L54.927 5.46189L54.927 5.46185C49.8256 2.81047 44.142 1.47741 38.3938 1.58406L38.3802 1.58431L38.3666 1.58407C32.8615 1.48673 27.4025 2.60219 22.3768 4.85129L22.3675 4.85547L22.3675 4.8554C18.006 6.73626 14.2841 9.84221 11.653 13.7965L11.6516 13.7986C9.05188 17.6775 7.70269 22.2595 7.78556 26.9282L7.7858 26.9416H7.78568C7.78568 33.549 9.79475 38.8581 13.7696 42.9388C17.7605 47.0361 23.799 49.9623 31.9743 51.6541L31.985 51.6563L31.985 51.6564L42.8914 54.0801C47.1448 54.8745 51.0919 56.8411 54.2879 59.7581M43.7397 43.893L53.7832 60.3129M43.7397 43.893C52.4541 45.715 58.8965 48.6793 63.1528 52.7249C67.3866 56.7491 69.5116 61.8937 69.5115 68.2219L69.5117 68.2335C69.5847 72.9773 68.1825 77.6267 65.4989 81.5392C62.6678 85.5844 58.7778 88.7721 54.2551 90.753C48.9694 92.9863 43.2722 94.0803 37.5352 93.9634L37.5204 93.9631L37.5056 93.9633C31.5428 94.077 25.6367 92.7877 20.2637 90.1994C15.5156 87.8708 11.49 84.295 8.61758 79.8546L8.61405 79.8493C8.19505 79.2136 7.72011 78.3104 7.43349 77.7221C7.23801 77.3208 7.05163 76.9239 6.87807 76.5252L15.8533 70.6667M43.7397 43.893L15.8533 70.6667M54.2879 59.7581C54.2882 59.7584 54.2885 59.7587 54.2889 59.759L53.7832 60.3129M54.2879 59.7581C54.2878 59.7581 54.2878 59.758 54.2877 59.7579L53.7832 60.3129M54.2879 59.7581C55.6192 60.9683 56.6927 62.4346 57.444 64.0694L57.4539 64.0909L57.4624 64.113C58.0103 65.535 58.2877 67.0469 58.2804 68.5708M53.7832 60.3129C55.04 61.4552 56.0533 62.8394 56.7625 64.3826C57.2778 65.72 57.5382 67.142 57.5304 68.5751M58.2804 68.5708C58.2804 68.5679 58.2803 68.5651 58.2803 68.5623L57.5304 68.5751M58.2804 68.5708C58.3172 70.7936 57.8287 72.9939 56.8548 74.9924C55.8796 76.9935 54.4452 78.7359 52.6687 80.0773L52.66 80.0839L52.66 80.0839C48.5339 83.1059 43.501 84.6305 38.3922 84.4066C32.5947 84.6139 26.9508 82.5154 22.6969 78.5697L22.6887 78.5622L22.6808 78.5544C20.21 76.1226 18.4102 73.1008 17.4464 69.7829L17.0107 70.0648L15.8533 70.8137V70.6667M58.2804 68.5708C58.2804 68.5736 58.2804 68.5764 58.2804 68.5792L57.5304 68.5751M57.5304 68.5751C57.5665 70.6827 57.104 72.769 56.1805 74.6639C55.2571 76.5587 53.899 78.2086 52.2168 79.4788C48.2204 82.4059 43.3439 83.8797 38.3952 83.656C32.7856 83.8645 27.3226 81.8373 23.2069 78.0199C20.774 75.6253 19.0167 72.6368 18.105 69.3568L15.8533 70.6667" stroke="#287AF5" stroke-width="1.5"/>
<path d="M114.986 81.0884L115 81.0785L115.013 81.0681C118.143 78.6223 120.696 75.5168 122.491 71.9726L141.182 39.5255L150.059 44.5596L131.824 76.1554L131.817 76.1674L131.81 76.1797C129.109 81.2878 125.206 85.6619 120.438 88.9249C115.991 91.6871 110.834 93.0913 105.601 92.9653L105.585 92.9649L105.569 92.9652C100.59 93.0571 95.6612 91.9677 91.1855 89.7861C87.1257 87.7878 83.7281 84.6612 81.4 80.7811C79.0718 76.9008 77.912 72.4314 78.0594 67.9086L78.0595 67.904C78.1353 65.0421 78.6396 62.2078 79.5554 59.4953C80.7331 56.0744 82.2551 52.7819 84.0981 49.6685L84.0981 49.6685L84.1036 49.659L101.258 19.6804L109.788 24.4385L92.9466 55.068L92.9464 55.0685C91.7719 57.2084 90.8116 59.4591 90.0796 61.7877C89.3853 63.8913 89.0158 66.0884 88.9839 68.3033L88.9838 68.3077C88.9595 71.1366 89.6944 73.9203 91.1119 76.3686L91.1145 76.3731C92.5112 78.7473 94.5465 80.6817 96.9887 81.956L96.9927 81.958C99.6464 83.3225 102.596 84.0104 105.579 83.9609C108.943 84.046 112.243 83.0382 114.986 81.0884Z" stroke="#287AF5" stroke-width="1.5"/>
<path d="M196.577 37.3287C194.926 37.0598 193.255 36.9286 191.582 36.9366H191.415H191.392L191.369 36.938C187.367 37.1799 183.516 38.5532 180.263 40.8982C177.01 43.2432 174.491 46.4634 172.996 50.1844L172.987 50.2075L172.979 50.2311C171.768 53.9396 171.129 57.8111 171.084 61.7122H171.084V61.7208V92.8371H160.16V27.533H171.059L170.547 43.0523L170.522 43.827H171.297H171.696H172.318L172.433 43.2153C173 40.1923 173.716 38.0555 174.722 36.2716C175.727 34.4896 177.045 33.0158 178.88 31.3466C182.518 28.0451 187.607 26.719 192.92 26.7191L192.924 26.719C194.153 26.7119 195.378 26.8399 196.577 27.1004V37.3287Z" stroke="#287AF5" stroke-width="1.5"/>
<path d="M444.241 57.6401L444.241 57.6548L444.241 57.6694C444.263 58.8156 444.199 59.9615 444.05 61.0975H392.991H392.25L392.241 61.839C392.194 66.0264 393.13 70.1666 394.975 73.9262L394.979 73.935L394.983 73.9436C396.796 77.4063 399.439 80.3654 402.676 82.5559L402.679 82.5583C405.984 84.7671 409.854 85.9784 413.828 86.0478C419.041 86.208 424.168 84.6981 428.462 81.7384L428.467 81.735C430.75 80.1345 432.691 78.0988 434.179 75.7482L440.13 81.5818C439.71 82.4535 439.169 83.262 438.521 83.9826L438.503 84.0024L438.486 84.0234C436.071 87.1268 432.933 89.5931 429.348 91.2078C424.434 93.0484 419.215 93.9364 413.97 93.824L413.951 93.8236L413.932 93.8242C408.067 93.9951 402.274 92.4943 397.23 89.4969C392.186 86.5002 388.099 82.1311 385.445 76.8994C382.599 71.1498 381.168 64.8034 381.271 58.3888L381.271 58.3771L381.271 58.3655C381.177 52.1022 382.566 45.9056 385.324 40.2816C387.911 35.1382 391.858 30.8022 396.737 27.7449L396.741 27.7426C401.698 24.5966 407.471 22.9763 413.341 23.0831L413.354 23.0833L413.367 23.0831C418.966 22.9933 424.474 24.5151 429.233 27.4671C433.953 30.4987 437.747 34.7707 440.201 39.8153L440.2 39.8153L440.205 39.8238C442.978 45.3464 444.363 51.4616 444.241 57.6401ZM392.272 53.8307L392.271 54.5807L393.021 54.581L432.889 54.5963L433.627 54.5966L433.639 53.859C433.706 49.8998 432.815 45.9832 431.043 42.4422C429.41 39.0783 426.877 36.232 423.727 34.218C420.596 32.2042 416.939 31.1635 413.218 31.2274C410.443 31.1711 407.688 31.7115 405.14 32.8122C402.587 33.9148 400.302 35.5539 398.439 37.618L398.439 37.618L398.435 37.6223C394.467 42.089 392.274 47.8558 392.272 53.8307Z" stroke="#287AF5" stroke-width="1.5"/>
<path d="M296.151 51.0485L296.151 51.051L296.227 74.202C296.12 80.4341 296.587 86.6622 297.622 92.8074H287.026C286.259 90.0471 285.872 88.0459 285.872 81.0566V80.3066H285.122H284.661H284.197L283.99 80.722C282.755 83.1988 281.954 84.7537 280.975 86.0755C280.009 87.3805 278.848 88.4832 276.865 89.9973C273.026 92.9277 267.979 94.036 262.07 94.036C255.678 94.036 250.69 92.4436 247.023 89.3385C245.239 87.7159 243.837 85.7171 242.92 83.4864C242 81.2519 241.59 78.8407 241.718 76.4278L241.72 76.401L241.719 76.3741C241.667 73.5849 242.322 70.8278 243.621 68.3594C244.921 65.891 246.824 63.7914 249.153 62.2558L249.168 62.2458L249.183 62.2351C254.21 58.5594 261.469 56.2791 271.041 55.4662L271.044 55.4659L284.574 54.2527L285.257 54.1914V53.5057V50.4342C285.257 45.6187 284.339 40.2151 281.178 36.9226C279.569 35.2467 277.448 34.3084 275.185 33.7856C272.925 33.2634 270.473 33.1444 268.152 33.1444H268.151C263.612 33.148 259.163 34.4064 255.295 36.7801C253.743 37.5037 252.328 38.4844 251.109 39.678L248.529 30.6464C249.209 30.0332 249.933 29.4688 250.694 28.9577L250.697 28.956C252.055 28.0356 253.48 27.2176 254.96 26.509C259.328 24.4394 264.118 23.4128 268.951 23.5102L268.965 23.5105L268.979 23.5103C273.94 23.4215 278.841 24.6017 283.217 26.9388L283.217 26.9388L283.225 26.9432C287.301 29.0542 290.686 32.2895 292.98 36.2656L292.98 36.2656L292.984 36.2732C295.293 40.1705 296.151 45.8753 296.151 51.0485ZM280.084 81.3318L280.084 81.331C283.694 77.1389 285.581 71.7344 285.365 66.2067V60.5239V59.7039L284.548 59.7769L272.356 60.8671C272.356 60.8671 272.356 60.8671 272.355 60.8672C266.129 61.4052 261.245 62.9149 257.785 65.4685C256.126 66.5684 254.772 68.0699 253.849 69.8335C252.926 71.5966 252.464 73.5642 252.505 75.5536C252.449 77.183 252.77 78.8034 253.444 80.2882C254.121 81.7797 255.135 83.0937 256.407 84.1266L256.416 84.1343L256.426 84.1417C259.321 86.3417 262.899 87.4507 266.53 87.2744C269.084 87.3562 271.624 86.8674 273.965 85.8435C276.316 84.8153 278.407 83.2737 280.084 81.3318Z" stroke="#287AF5" stroke-width="1.5"/>
<path d="M333.179 36.3418L333.179 36.3418L333.171 36.3463C329.464 38.4575 326.377 41.5059 324.219 45.186C321.781 49.2839 320.557 53.9901 320.69 58.7563C320.51 63.7782 321.73 68.7515 324.213 73.1204L324.219 73.1314L324.226 73.1421C326.516 76.8741 329.818 79.8793 333.749 81.8082L333.757 81.8119L333.764 81.8154C337.763 83.6682 342.122 84.6149 346.529 84.5878C350.355 84.6599 354.145 83.8469 357.605 82.2123L357.605 82.2123L357.611 82.2093C360.156 80.9781 362.514 79.3939 364.614 77.5048L369.415 85.0419C367.781 86.6564 365.915 88.0195 363.878 89.0859L363.869 89.0903L363.861 89.0949C361.103 90.6295 358.164 91.8133 355.112 92.6187L355.105 92.6206C351.67 93.5629 348.121 94.0242 344.56 93.9915L344.551 93.9914L344.542 93.9915C338.507 94.0777 332.553 92.5976 327.261 89.6959C322.181 86.7522 317.98 82.5045 315.093 77.3924C311.987 71.6939 310.431 65.2802 310.58 58.7919L310.58 58.7764L310.58 58.7609C310.492 53.978 311.398 49.2289 313.24 44.814C315.003 40.657 317.594 36.9019 320.854 33.7769L320.856 33.775C324.081 30.6601 327.879 28.1995 332.04 26.5294L332.04 26.5294L332.05 26.5254C336.261 24.766 340.784 23.8718 345.348 23.8958V23.8959L345.358 23.8958C349.019 23.8635 352.658 24.4573 356.118 25.6516L356.128 25.655L356.138 25.6582C359.291 26.6482 362.268 28.1314 364.957 30.0526L364.971 30.0624L364.985 30.0716C367.109 31.449 368.988 33.1706 370.544 35.1644L364.05 41.6719C361.614 39.3453 358.874 37.3592 355.903 35.7686L355.901 35.7678C352.659 34.0416 349.037 33.151 345.363 33.1766C341.1 33.1891 336.909 34.2778 333.179 36.3418Z" stroke="#287AF5" stroke-width="1.5"/>
</svg>
