<svg width="181" height="29" viewBox="0 0 181 29" fill="none" xmlns="http://www.w3.org/2000/svg">
<path d="M85.5582 2.24385C84.78 2.86001 84.1772 3.58214 83.7847 4.36859C83.3921 5.15504 83.2176 5.99024 83.2712 6.82599V27.9039H88.4627V14.1253H94.3159V11.0095H88.4627V6.47775C88.3987 5.66797 88.7589 4.87063 89.4708 4.24625C89.8696 3.96957 90.3435 3.75655 90.8622 3.62083C91.3808 3.48511 91.9327 3.42969 92.4824 3.45812C93.3289 3.46488 94.1727 3.52932 95.0026 3.65057V0.763819C93.8464 0.591276 92.667 0.514418 91.487 0.534712C90.3901 0.507122 89.2973 0.644702 88.2771 0.938819C87.2568 1.23294 86.3312 1.67724 85.5582 2.24385Z" fill="white"/>
<path d="M15.5684 12.8802L11.0384 12.1654C10.0687 12.0153 9.13607 11.7589 8.27249 11.4047C7.93004 11.2253 7.61529 11.0194 7.33372 10.7907C6.40729 10.0369 5.91741 9.05185 5.96653 8.04145C5.94676 7.43528 6.12489 6.83433 6.48631 6.28792C6.84772 5.74152 7.38213 5.26521 8.04567 4.8981C9.57505 4.03313 11.4782 3.59287 13.4137 3.65634C14.4953 3.63071 15.5723 3.7704 16.5751 4.06638C17.5779 4.36236 18.4841 4.80805 19.2353 5.37464C20.2203 6.12008 20.9217 7.03914 21.2703 8.04145L23.8661 6.63473L25.7562 5.68165C25.6176 5.45254 25.4601 5.22343 25.2963 5.00349C25.2081 4.89352 25.1262 4.78355 25.0317 4.67816C23.8871 3.28898 22.2247 2.16413 20.237 1.434C18.0986 0.625695 15.7161 0.219294 13.3066 0.251808C11.0029 0.222185 8.7185 0.561656 6.61547 1.24613C4.77149 1.82447 3.19787 2.77951 2.08545 3.99542C0.983899 5.19072 0.412216 6.60274 0.447332 8.04145C0.447332 12.0829 3.83697 14.6138 10.6163 15.6341L15.0959 16.358C16.7866 16.587 18.3557 17.1552 19.6259 17.9985C20.1415 18.3393 20.5572 18.7523 20.8482 19.2127C21.0596 19.6118 21.1664 20.036 21.1632 20.4636C21.178 21.0925 20.9883 21.715 20.6094 22.2803C20.2306 22.8457 19.6734 23.338 18.9833 23.717C17.3437 24.5903 15.3431 25.03 13.3128 24.9633C11.0114 25.0255 8.77021 24.4207 7.08171 23.2817C6.00639 22.5119 5.25277 21.5365 4.90805 20.4682L4.37251 20.7202V20.6744L0 22.7501C0.100807 22.9334 0.214215 23.1121 0.333924 23.2908C0.453632 23.4695 0.655247 23.749 0.83796 23.9507C2.04689 25.3098 3.74126 26.4043 5.73971 27.1169C7.98772 27.9046 10.4588 28.297 12.9537 28.2625C15.3512 28.298 17.7321 27.9654 19.9409 27.2865C21.8494 26.6789 23.4908 25.7007 24.6852 24.4593C25.8228 23.2535 26.4172 21.8204 26.3863 20.3583C26.3863 16.4695 22.7803 13.9769 15.5684 12.8802Z" fill="white"/>
<path d="M55.3689 11.4904L47.5437 21.3695C46.8279 22.3999 45.8081 23.3027 44.5573 24.0134C43.4847 24.5681 42.1934 24.8543 40.8779 24.8291C39.7024 24.8441 38.5401 24.6473 37.4945 24.2563C36.5437 23.8955 35.7512 23.3478 35.2074 22.6755C34.6535 21.9796 34.3663 21.1884 34.3758 20.3844C34.3884 19.7457 34.535 19.1122 34.8105 18.5057C35.1049 17.8244 35.4911 17.166 35.9635 16.54L43.02 7.20614L38.9877 5.57031L31.7989 14.7071C31.0321 15.6493 30.3988 16.6457 29.9088 17.6809C29.523 18.5116 29.3107 19.3796 29.2787 20.2561C29.2163 21.6486 29.7073 23.0246 30.693 24.2193C31.6786 25.414 33.1169 26.3766 34.8357 26.9918C36.7159 27.6584 38.7865 27.9913 40.8779 27.9633C43.0872 28.002 45.2639 27.5703 47.1405 26.7215C49.1405 25.7271 50.7775 24.3935 51.9099 22.8358L59.5461 13.2133L55.3689 11.4904Z" fill="white"/>
<path d="M70.742 9.19279C69.211 10.2054 68.4738 11.0256 68.0013 12.8585H67.8375L68.058 7.99685H62.9609V27.9292H68.058V18.4212C68.0761 17.28 68.3331 16.1474 68.8204 15.0625C69.4116 13.9916 70.4088 13.0648 71.6959 12.3899C72.983 11.715 74.5072 11.3198 76.0911 11.2502H76.1604C76.9512 11.2474 77.7404 11.3011 78.5167 11.4105V7.91437C77.9258 7.80531 77.3182 7.75142 76.7085 7.75399C74.4845 7.75399 72.3108 8.15722 70.742 9.19279Z" fill="white"/>
<path d="M180.119 17.2045C180.171 15.3247 179.591 13.4641 178.431 11.7838C177.399 10.2412 175.804 8.93494 173.819 8.00815C171.816 7.10413 169.498 6.63809 167.14 6.66558C164.672 6.63293 162.244 7.12846 160.16 8.09063C158.11 9.02477 156.452 10.3497 155.365 11.9213C154.212 13.6313 153.631 15.5154 153.67 17.4199C153.627 19.3698 154.226 21.299 155.415 23.0467C156.531 24.646 158.248 25.9816 160.368 26.8976C162.488 27.8136 164.922 28.2722 167.386 28.22C169.581 28.2542 171.764 27.9836 173.819 27.4227C175.34 26.926 176.67 26.1662 177.694 25.2095C178.029 24.9386 178.299 24.6288 178.494 24.2931L175.621 22.2449C175.011 23.0224 174.172 23.6922 173.164 24.206C171.456 25.0623 169.416 25.499 167.342 25.4524C165.77 25.4327 164.239 25.0843 162.932 24.4489C161.646 23.816 160.596 22.9612 159.876 21.9608C159.14 20.8705 158.767 19.6698 158.786 18.4554H180C180.09 18.0419 180.131 17.6232 180.119 17.2045ZM158.799 16.0636C158.799 14.3356 159.671 12.6678 161.25 11.376C161.984 10.784 162.886 10.3139 163.892 9.99763C164.899 9.68137 165.987 9.52638 167.084 9.54317C168.552 9.524 169.995 9.82221 171.229 10.4C172.475 10.9789 173.476 11.7973 174.121 12.7644C174.827 13.789 175.181 14.9224 175.155 16.0681L158.799 16.0636Z" fill="white"/>
<path d="M119.366 15.2352C119.366 13.6773 119.013 11.9269 118.024 10.7126C117.054 9.48923 115.622 8.49376 113.897 7.84422C112.056 7.12894 109.993 6.76774 107.906 6.79491C105.875 6.76514 103.863 7.07886 102.027 7.71133C101.406 7.92763 100.808 8.17728 100.238 8.45822C99.8603 8.64274 99.5042 8.84964 99.1733 9.07681L100.433 12.2843C100.985 11.8135 101.671 11.4352 102.443 11.1754C103.985 10.4844 105.761 10.118 107.572 10.117C109.462 10.117 111.484 10.259 112.694 11.1754C113.904 12.0919 114.282 13.6269 114.282 15.0519V15.9684L108.731 16.3303C104.774 16.5747 101.733 17.2621 99.608 18.3923C98.6092 18.8713 97.7932 19.5261 97.2358 20.296C96.6784 21.0659 96.3978 21.9258 96.42 22.7958C96.3649 23.5488 96.541 24.3014 96.9355 24.9988C97.33 25.6963 97.933 26.3211 98.7008 26.828C100.276 27.7995 102.401 28.2852 105.077 28.2852C107.534 28.2852 109.682 27.9507 111.333 27.0342C112.984 26.1178 113.337 25.6596 114.345 24.1887H114.534C114.534 26.4248 114.717 26.9793 115.082 27.9186H120.028C119.563 26.0133 119.352 24.0799 119.398 22.1451L119.366 15.2352ZM114.326 19.7624C114.413 21.3566 113.666 22.9156 112.234 24.1246C111.576 24.6787 110.756 25.1186 109.833 25.412C108.911 25.7053 107.91 25.8447 106.904 25.82C105.482 25.8723 104.081 25.5574 102.947 24.931C102.463 24.6447 102.076 24.2805 101.818 23.867C101.56 23.4535 101.438 23.0021 101.46 22.5483C101.443 21.9904 101.621 21.4383 101.977 20.9439C102.333 20.4494 102.855 20.0287 103.495 19.7211C104.852 18.991 106.795 18.5466 109.323 18.3877L114.326 18.0624V19.7624Z" fill="white"/>
<path d="M134.396 11.0436C135.881 10.446 137.55 10.1308 139.247 10.1272C140.704 10.1197 142.139 10.3764 143.425 10.8741C144.707 11.3736 145.883 12.0064 146.915 12.7528L149.983 10.5167C149.294 9.83494 148.44 9.24967 147.463 8.78922C146.333 8.20226 145.083 7.74912 143.759 7.44665C142.306 7.082 140.778 6.90069 139.241 6.91054C137.327 6.90321 135.431 7.17591 133.665 7.71241C131.921 8.22151 130.329 8.97153 128.978 9.921C127.61 10.8745 126.523 12.0204 125.783 13.2889C125.011 14.6349 124.631 16.0829 124.668 17.5411C124.606 19.5167 125.258 21.4696 126.558 23.2046C127.77 24.7661 129.534 26.0634 131.668 26.962C133.887 27.8472 136.383 28.2988 138.913 28.2725C140.403 28.2825 141.887 28.1421 143.324 27.8555C144.601 27.6104 145.83 27.2502 146.984 26.7833C147.921 26.4268 148.772 25.9626 149.505 25.4087L147.205 22.7831C146.299 23.4126 145.264 23.9352 144.137 24.3319C142.759 24.8052 141.25 25.0405 139.726 25.0192C137.962 25.0275 136.217 24.7521 134.617 24.2127C133.056 23.6559 131.745 22.7883 130.836 21.7109C129.844 20.4413 129.358 18.9959 129.431 17.5365C129.376 16.1541 129.864 14.7889 130.836 13.6005C131.694 12.536 132.922 11.6542 134.396 11.0436Z" fill="white"/>
</svg>
