<svg width="176" height="81" viewBox="0 0 176 81" fill="none" xmlns="http://www.w3.org/2000/svg">
<g clip-path="url(#clip0)">
<path d="M107.577 23.1268L108.594 22.0508L107.56 20.9687C102.199 15.3558 94.7142 12.4163 87.0252 12.9039L86.9449 12.9089C85.9879 12.9696 85.0233 13.0849 84.078 13.2517L65.03 16.6124L67.9898 22.0617L65.0458 27.5926L84.0779 30.9505C85.0228 31.1171 85.9873 31.2325 86.9448 31.2932C94.6876 31.7841 102.207 28.8076 107.577 23.1268ZM87.1047 28.6992C86.2405 28.6444 85.3699 28.5403 84.517 28.3897L68.9912 25.6505L70.2131 23.355L84.5721 23.355L84.5721 20.7558L70.2058 20.7558L69.007 18.5488L84.517 15.8124C85.3703 15.6618 86.2409 15.5577 87.1045 15.503L87.1848 15.4979C93.1331 15.1207 98.9455 17.0169 103.532 20.7559L88.893 20.7559L88.893 23.355L103.558 23.355C98.956 27.1525 93.1047 29.0796 87.1047 28.6992Z" fill="white"/>
</g>
<path d="M83.3706 45.6071C82.6123 46.4327 82.0249 47.4002 81.6424 48.454C81.2599 49.5077 81.0898 50.6267 81.142 51.7465V79.9878H86.2009V61.5266H91.9044V57.3518H86.2009V51.2799C86.1385 50.195 86.4895 49.1266 87.1832 48.2901C87.5718 47.9193 88.0336 47.6339 88.539 47.4521C89.0443 47.2702 89.5821 47.196 90.1178 47.2341C90.9427 47.2431 91.7649 47.3295 92.5736 47.4919V43.6241C91.4469 43.3929 90.2977 43.2899 89.1478 43.3171C88.079 43.2802 87.0141 43.4645 86.02 43.8586C85.0258 44.2527 84.1238 44.848 83.3706 45.6071Z" fill="white"/>
<path d="M15.1705 59.8562L10.7562 58.8985C9.81133 58.6974 8.90253 58.3538 8.06103 57.8793C7.72734 57.6389 7.42063 57.363 7.14626 57.0566C6.24351 56.0467 5.76615 54.7268 5.81401 53.373C5.79475 52.5608 5.96833 51.7556 6.32051 51.0235C6.67269 50.2914 7.19343 49.6532 7.84001 49.1614C9.33029 48.0024 11.1848 47.4125 13.0708 47.4976C14.1248 47.4633 15.1743 47.6504 16.1514 48.047C17.1285 48.4436 18.0116 49.0407 18.7436 49.7999C19.7035 50.7986 20.3869 52.03 20.7266 53.373L23.256 51.4882L25.0979 50.2112C24.9628 49.9042 24.8093 49.5973 24.6497 49.3026C24.5637 49.1552 24.4839 49.0079 24.3918 48.8667C23.2765 47.0054 21.6566 45.4983 19.7198 44.52C17.636 43.437 15.3144 42.8925 12.9664 42.936C10.7216 42.8963 8.49564 43.3512 6.44637 44.2683C4.64953 45.0432 3.11612 46.3228 2.03214 47.9519C0.958749 49.5534 0.401679 51.4453 0.435897 53.373C0.435897 58.7879 3.73889 62.1789 10.3449 63.546L14.71 64.516C16.3575 64.8228 17.8865 65.5841 19.1242 66.7139C19.6266 67.1706 20.0317 67.7239 20.3153 68.3409C20.5213 68.8755 20.6254 69.444 20.6222 70.0169C20.6367 70.8595 20.4518 71.6935 20.0826 72.451C19.7135 73.2085 19.1705 73.8681 18.498 74.3759C16.9004 75.546 14.9509 76.1352 12.9726 76.0458C10.73 76.1292 8.54603 75.3187 6.90069 73.7926C5.85286 72.7613 5.1185 71.4544 4.78259 70.023L4.26074 70.3607V70.2993L0 73.0805C0.0982304 73.326 0.208739 73.5655 0.325388 73.8049C0.442037 74.0444 0.638498 74.4189 0.816541 74.689C1.99457 76.51 3.64562 77.9765 5.59299 78.9313C7.78354 79.9867 10.1915 80.5125 12.6226 80.4662C14.9588 80.5138 17.2788 80.0682 19.4312 79.1585C21.2909 78.3444 22.8904 77.0338 24.0542 75.3705C25.1627 73.7549 25.742 71.8348 25.7118 69.8757C25.7118 64.6654 22.198 61.3256 15.1705 59.8562Z" fill="white"/>
<path d="M53.9597 57.9985L46.3345 71.2351C45.637 72.6156 44.6433 73.8252 43.4244 74.7775C42.3793 75.5206 41.121 75.9041 39.839 75.8703C38.6936 75.8904 37.561 75.6267 36.5422 75.1029C35.6156 74.6194 34.8435 73.8856 34.3136 72.9848C33.7738 72.0524 33.4939 70.9924 33.5032 69.9151C33.5155 69.0594 33.6584 68.2105 33.9268 67.3979C34.2136 66.4851 34.5899 65.6029 35.0503 64.7641L41.9264 52.2582L37.9972 50.0664L30.9922 62.3084C30.2449 63.5707 29.6278 64.9058 29.1503 66.2928C28.7745 67.4058 28.5675 68.5689 28.5364 69.7432C28.4756 71.6089 28.9541 73.4526 29.9145 75.0533C30.8749 76.654 32.2765 77.9438 33.9514 78.7681C35.7834 79.6612 37.8012 80.1073 39.839 80.0697C41.9919 80.1215 44.113 79.5432 45.9416 78.4059C47.8905 77.0736 49.4856 75.2867 50.5891 73.1997L58.0301 60.3069L53.9597 57.9985Z" fill="white"/>
<path d="M68.9337 54.9123C67.4418 56.2691 66.7235 57.368 66.2631 59.8238H66.1035L66.3183 53.3099H61.3516V80.0163H66.3183V67.277C66.336 65.7479 66.5864 64.2305 67.0612 62.7768C67.6373 61.342 68.609 60.1002 69.8633 59.1959C71.1175 58.2917 72.6027 57.7621 74.1461 57.6689H74.2136C74.9842 57.6651 75.7532 57.7371 76.5097 57.8837V53.1994C75.9339 53.0533 75.3418 52.981 74.7477 52.9845C72.5805 52.9845 70.4624 53.5248 68.9337 54.9123Z" fill="white"/>
<path d="M175.514 65.65C175.563 63.1313 174.999 60.6384 173.868 58.3871C172.863 56.3202 171.308 54.57 169.374 53.3282C167.422 52.117 165.163 51.4925 162.866 51.5294C160.461 51.4856 158.095 52.1496 156.064 53.4387C154.067 54.6903 152.451 56.4655 151.392 58.5713C150.268 60.8624 149.702 63.3869 149.74 65.9385C149.698 68.5512 150.282 71.1361 151.441 73.4777C152.528 75.6205 154.202 77.4099 156.267 78.6373C158.332 79.8646 160.704 80.4791 163.106 80.4091C165.244 80.4549 167.372 80.0923 169.374 79.3409C170.856 78.6754 172.152 77.6573 173.15 76.3755C173.476 76.0125 173.74 75.5975 173.93 75.1476L171.13 72.4033C170.536 73.4452 169.718 74.3425 168.736 75.031C167.071 76.1783 165.084 76.7634 163.063 76.7009C161.531 76.6745 160.039 76.2078 158.765 75.3564C157.512 74.5085 156.489 73.363 155.788 72.0227C155.071 70.5619 154.707 68.9532 154.726 67.326H175.397C175.485 66.7719 175.524 66.211 175.514 65.65ZM154.738 64.1213C154.739 61.806 155.588 59.5715 157.126 57.8407C157.842 57.0474 158.72 56.4176 159.701 55.9938C160.682 55.5701 161.743 55.3624 162.811 55.3849C164.242 55.3592 165.648 55.7588 166.851 56.533C168.065 57.3086 169.04 58.4051 169.669 59.7009C170.356 61.0738 170.702 62.5924 170.676 64.1274L154.738 64.1213Z" fill="white"/>
<path d="M116.315 63.0106C116.315 60.9232 115.971 58.5779 115.007 56.951C114.061 55.3118 112.666 53.978 110.986 53.1077C109.191 52.1494 107.181 51.6654 105.147 51.7018C103.168 51.6619 101.207 52.0823 99.419 52.9297C98.8137 53.2195 98.2309 53.554 97.6754 53.9304C97.3073 54.1776 96.9603 54.4549 96.6378 54.7592L97.8657 59.0568C98.4036 58.426 99.0717 57.9191 99.8242 57.5711C101.327 56.6452 103.057 56.1543 104.822 56.1529C106.663 56.1529 108.634 56.3432 109.813 57.5711C110.992 58.799 111.36 60.8557 111.36 62.765V63.9929L105.951 64.4779C102.096 64.8053 99.1325 65.7262 97.0615 67.2406C96.0882 67.8823 95.293 68.7598 94.7498 69.7913C94.2067 70.8229 93.9332 71.975 93.9549 73.1406C93.9013 74.1496 94.0729 75.1579 94.4573 76.0924C94.8417 77.0269 95.4292 77.8641 96.1774 78.5433C97.7122 79.8448 99.7833 80.4956 102.39 80.4956C104.785 80.4956 106.878 80.0474 108.487 78.8195C110.095 77.5917 110.439 76.9777 111.422 75.007H111.606C111.606 78.003 111.784 78.7459 112.14 80.0044H116.959C116.506 77.4517 116.3 74.8611 116.345 72.2688L116.315 63.0106ZM111.403 69.0763C111.488 71.2124 110.76 73.3011 109.365 74.921C108.724 75.6634 107.924 76.2528 107.025 76.6459C106.127 77.039 105.151 77.2258 104.171 77.1926C102.785 77.2627 101.42 76.8408 100.315 76.0016C99.8432 75.6179 99.4665 75.1299 99.2151 74.5759C98.9637 74.0219 98.8443 73.4171 98.8664 72.8091C98.8496 72.0615 99.0227 71.3218 99.3695 70.6594C99.7163 69.9969 100.226 69.4332 100.849 69.0211C102.171 68.0428 104.064 67.4473 106.528 67.2345L111.403 66.7986V69.0763Z" fill="white"/>
<path d="M130.964 57.3937C132.411 56.5929 134.037 56.1706 135.691 56.1658C137.11 56.1558 138.509 56.4998 139.761 57.1666C141.012 57.8358 142.157 58.6837 143.163 59.6837L146.153 56.6877C145.48 55.7742 144.648 54.9901 143.697 54.3731C142.596 53.5867 141.378 52.9796 140.087 52.5743C138.671 52.0857 137.182 51.8428 135.685 51.856C133.82 51.8462 131.972 52.2115 130.252 52.9304C128.552 53.6125 127.001 54.6174 125.684 55.8896C124.351 57.1672 123.292 58.7024 122.571 60.402C121.819 62.2055 121.449 64.1455 121.484 66.0994C121.424 68.7464 122.059 71.363 123.326 73.6877C124.507 75.7798 126.226 77.5179 128.305 78.722C130.467 79.9081 132.9 80.5131 135.366 80.4779C136.817 80.4912 138.263 80.3032 139.663 79.9192C140.907 79.5908 142.106 79.1082 143.23 78.4826C144.143 78.0049 144.972 77.383 145.686 76.6407L143.445 73.1229C142.563 73.9663 141.554 74.6665 140.455 75.198C139.113 75.8322 137.642 76.1474 136.158 76.1189C134.439 76.13 132.738 75.761 131.179 75.0384C129.658 74.2922 128.381 73.1298 127.495 71.6862C126.528 69.9852 126.054 68.0485 126.126 66.0932C126.072 64.241 126.547 62.4118 127.495 60.8195C128.331 59.3933 129.527 58.2119 130.964 57.3937Z" fill="white"/>
<defs>
<clipPath id="clip0">
<rect width="44.1951" height="43.5637" fill="white" transform="translate(108.594) rotate(90)"/>
</clipPath>
</defs>
</svg>
