<svg width="1440" height="389" viewBox="0 0 1440 389" fill="none" xmlns="http://www.w3.org/2000/svg">
<path d="M124.461 166.863L88.246 159.006C80.4939 157.356 73.0379 154.537 66.1341 150.645C63.3964 148.672 60.8801 146.409 58.6292 143.895C51.2228 135.609 47.3065 124.781 47.6992 113.674C47.5411 107.011 48.9652 100.405 51.8545 94.3985C54.7439 88.3922 59.0162 83.1565 64.3208 79.1211C76.5473 69.6129 91.7622 64.7734 107.235 65.4711C115.882 65.1895 124.492 66.725 132.509 69.9785C140.526 73.232 147.771 78.1312 153.776 84.3594C161.651 92.5535 167.258 102.656 170.045 113.674L190.797 98.2108L205.907 87.7341C204.799 85.2157 203.54 82.6972 202.23 80.2795C201.525 79.0707 200.87 77.8618 200.115 76.7034C190.965 61.4329 177.674 49.0682 161.784 41.0423C144.689 32.1571 125.642 27.6898 106.379 28.0472C87.9622 27.7216 69.6997 31.4532 52.8871 38.9772C38.1455 45.3346 25.5652 55.8327 16.672 69.1984C7.86574 82.3377 3.29545 97.8591 3.57618 113.674C3.57618 158.099 30.6745 185.919 84.8713 197.135L120.683 205.093C134.2 207.61 146.744 213.856 156.899 223.125C161.02 226.872 164.344 231.412 166.67 236.473C168.36 240.859 169.214 245.523 169.188 250.223C169.307 257.136 167.79 263.979 164.761 270.193C161.733 276.408 157.278 281.819 151.761 285.985C138.654 295.585 122.66 300.419 106.429 299.686C88.0305 300.369 70.1131 293.721 56.6144 281.2C48.0179 272.739 41.9931 262.017 39.2372 250.274L34.9559 253.044L0 275.357C0.805899 277.372 1.71253 279.337 2.66954 281.301C3.62655 283.265 5.23835 286.338 6.69904 288.554C16.3638 303.494 29.9093 315.525 45.8859 323.359C63.8575 332.018 83.6129 336.331 103.558 335.951C122.725 336.341 141.759 332.686 159.417 325.222C174.674 318.544 187.796 307.791 197.345 294.145C206.439 280.89 211.192 265.138 210.944 249.065C210.944 206.319 182.116 178.918 124.461 166.863Z" fill="white"/>
<path d="M1439.98 214.4C1440.39 193.736 1435.75 173.284 1426.48 154.814C1418.23 137.857 1405.48 123.497 1389.61 113.31C1373.59 103.373 1355.06 98.2497 1336.22 98.5518C1316.48 98.1929 1297.08 103.64 1280.41 114.216C1264.02 124.485 1250.77 139.049 1242.08 156.325C1232.86 175.122 1228.21 195.833 1228.53 216.767C1228.19 238.202 1232.97 259.408 1242.48 278.62C1251.4 296.199 1265.13 310.881 1282.07 320.95C1299.02 331.019 1318.48 336.06 1338.18 335.486C1355.73 335.862 1373.18 332.887 1389.61 326.722C1401.76 321.262 1412.4 312.91 1420.58 302.394C1423.26 299.416 1425.43 296.011 1426.98 292.32L1404.01 269.805C1399.14 278.353 1392.43 285.715 1384.37 291.363C1370.71 300.776 1354.41 305.576 1337.83 305.063C1325.26 304.847 1313.02 301.018 1302.57 294.033C1292.29 287.076 1283.9 277.679 1278.14 266.683C1272.26 254.698 1269.28 241.499 1269.43 228.15L1439.02 228.15C1439.75 223.604 1440.07 219.003 1439.98 214.4ZM1269.53 201.858C1269.54 182.863 1276.51 164.531 1289.12 150.331C1295 143.823 1302.2 138.655 1310.25 135.179C1318.3 131.703 1327 129.999 1335.76 130.183C1347.5 129.973 1359.04 133.251 1368.91 139.602C1378.86 145.966 1386.87 154.961 1392.03 165.593C1397.66 176.856 1400.5 189.314 1400.29 201.908L1269.53 201.858Z" fill="white"/>
<path d="M124.461 166.863L88.246 159.006C80.4939 157.356 73.0379 154.537 66.1341 150.645C63.3964 148.672 60.8801 146.409 58.6292 143.895C51.2228 135.609 47.3065 124.781 47.6992 113.674C47.5411 107.011 48.9652 100.405 51.8545 94.3985C54.7439 88.3922 59.0162 83.1565 64.3208 79.1211C76.5473 69.6129 91.7622 64.7734 107.235 65.4711C115.882 65.1895 124.492 66.725 132.509 69.9785C140.526 73.232 147.771 78.1312 153.776 84.3594C161.651 92.5535 167.258 102.656 170.045 113.674L190.797 98.2108L205.907 87.7341C204.799 85.2157 203.54 82.6972 202.23 80.2795C201.525 79.0707 200.87 77.8618 200.115 76.7034C190.965 61.4329 177.674 49.0682 161.784 41.0423C144.689 32.1571 125.642 27.6898 106.379 28.0472C87.9622 27.7216 69.6997 31.4532 52.8871 38.9772C38.1455 45.3346 25.5652 55.8327 16.672 69.1984C7.86574 82.3377 3.29545 97.8591 3.57618 113.674C3.57618 158.099 30.6745 185.919 84.8713 197.135L120.683 205.093C134.2 207.61 146.744 213.856 156.899 223.125C161.02 226.872 164.344 231.412 166.67 236.473C168.36 240.859 169.214 245.523 169.188 250.223C169.307 257.136 167.79 263.979 164.761 270.193C161.733 276.408 157.278 281.819 151.761 285.985C138.654 295.585 122.66 300.419 106.429 299.686C88.0305 300.369 70.1131 293.721 56.6144 281.2C48.0179 272.739 41.9931 262.017 39.2372 250.274L34.9559 253.044L0 275.357C0.805899 277.372 1.71253 279.337 2.66954 281.301C3.62655 283.265 5.23835 286.338 6.69904 288.554C16.3638 303.494 29.9093 315.525 45.8859 323.359C63.8575 332.018 83.6129 336.331 103.558 335.951C122.725 336.341 141.759 332.686 159.417 325.222C174.674 318.544 187.796 307.791 197.345 294.145C206.439 280.89 211.192 265.138 210.944 249.065C210.944 206.319 182.116 178.918 124.461 166.863Z" fill="white"/>
<path d="M1439.98 214.4C1440.39 193.736 1435.75 173.284 1426.48 154.814C1418.23 137.857 1405.48 123.497 1389.61 113.31C1373.59 103.373 1355.06 98.2497 1336.22 98.5518C1316.48 98.1929 1297.08 103.64 1280.41 114.216C1264.02 124.485 1250.77 139.049 1242.08 156.325C1232.86 175.122 1228.21 195.833 1228.53 216.767C1228.19 238.202 1232.97 259.408 1242.48 278.62C1251.4 296.199 1265.13 310.881 1282.07 320.95C1299.02 331.019 1318.48 336.06 1338.18 335.486C1355.73 335.862 1373.18 332.887 1389.61 326.722C1401.76 321.262 1412.4 312.91 1420.58 302.394C1423.26 299.416 1425.43 296.011 1426.98 292.32L1404.01 269.805C1399.14 278.353 1392.43 285.715 1384.37 291.363C1370.71 300.776 1354.41 305.576 1337.83 305.063C1325.26 304.847 1313.02 301.018 1302.57 294.033C1292.29 287.076 1283.9 277.679 1278.14 266.683C1272.26 254.698 1269.28 241.499 1269.43 228.15L1439.02 228.15C1439.75 223.604 1440.07 219.003 1439.98 214.4ZM1269.53 201.858C1269.54 182.863 1276.51 164.531 1289.12 150.331C1295 143.823 1302.2 138.655 1310.25 135.179C1318.3 131.703 1327 129.999 1335.76 130.183C1347.5 129.973 1359.04 133.251 1368.91 139.602C1378.86 145.966 1386.87 154.961 1392.03 165.593C1397.66 176.856 1400.5 189.314 1400.29 201.908L1269.53 201.858Z" fill="white"/>
<path fill-rule="evenodd" clip-rule="evenodd" d="M295.23 115.281L254.217 186.956C248.087 197.313 243.024 208.265 239.106 219.645C236.023 228.776 234.325 238.318 234.07 247.952C233.571 263.259 237.496 278.385 245.376 291.517C253.255 304.65 264.754 315.231 278.495 321.994C283.898 324.628 289.497 326.788 295.23 328.46V289.224C289.629 285.425 284.92 280.418 281.467 274.547C277.038 266.898 274.742 258.201 274.818 249.363C274.919 242.342 276.091 235.378 278.293 228.711C280.646 221.223 283.734 213.985 287.511 207.103L295.23 193.063V115.281Z" fill="white"/>
<path fill-rule="evenodd" clip-rule="evenodd" d="M295.23 384.449C305.446 387.427 316.086 388.857 326.794 388.66C344.457 389.085 361.858 384.341 376.861 375.01C392.85 364.079 405.937 349.419 414.99 332.297L476.037 226.523L442.642 207.584L380.084 316.179C374.361 327.505 366.209 337.429 356.21 345.242C347.635 351.338 337.312 354.485 326.794 354.207C317.397 354.372 308.105 352.209 299.746 347.911C298.186 347.097 296.678 346.196 295.23 345.214V384.449ZM295.23 249.043V171.261L311.684 142.508L343.92 160.489L295.23 249.043Z" fill="white"/>
<path fill-rule="evenodd" clip-rule="evenodd" d="M864.594 333.785C874.145 331.673 882.725 328.047 890.071 322.439C903.267 312.366 906.088 307.329 914.147 291.16H915.658C915.658 315.74 917.119 321.835 920.04 332.16H959.58C955.861 311.217 954.174 289.964 954.543 268.696L954.291 192.74C954.291 175.615 951.47 156.374 943.562 143.026C935.806 129.578 924.356 118.635 910.571 111.495C896.413 103.935 880.624 99.9732 864.594 99.9453V136.533C878.304 136.879 892.254 139.055 900.95 148.113C910.621 158.187 913.643 175.061 913.643 190.725V200.799L869.269 204.778C867.692 204.912 866.134 205.058 864.594 205.216V228.483C867.609 228.038 870.745 227.675 874.003 227.394L913.996 223.817V242.504C914.694 260.029 908.718 277.165 897.274 290.455C892.013 296.546 885.455 301.382 878.081 304.607C873.762 306.496 869.227 307.804 864.594 308.509V333.785Z" fill="white"/>
<path fill-rule="evenodd" clip-rule="evenodd" d="M578.396 117.677C573.74 119.939 569.412 122.788 565.545 126.299C553.306 137.43 547.412 146.446 543.635 166.594H542.325L544.088 113.152H503.34V332.256H544.088V227.741C544.233 215.196 546.288 202.747 550.183 190.821C554.909 179.049 562.881 168.861 573.171 161.443C574.864 160.222 576.608 159.085 578.396 158.033V117.677Z" fill="white"/>
<path fill-rule="evenodd" clip-rule="evenodd" d="M864.602 69.7441C863.957 69.7429 863.312 69.748 862.667 69.7596C846.433 69.4323 830.346 72.8809 815.673 79.8333C810.707 82.2109 805.926 84.9552 801.368 88.0434C798.348 90.0716 795.501 92.346 792.856 94.8432L802.929 130.101C807.342 124.926 812.824 120.767 818.997 117.912C831.324 110.316 845.517 106.288 859.997 106.277C861.524 106.277 863.061 106.293 864.602 106.332V69.7441ZM864.602 175.014C835.234 178.026 812.477 185.436 796.331 197.243C788.346 202.507 781.822 209.706 777.366 218.169C772.91 226.632 770.667 236.084 770.844 245.647C770.404 253.925 771.812 262.198 774.966 269.864C778.119 277.531 782.94 284.399 789.078 289.971C801.67 300.65 818.661 305.989 840.051 305.989C848.764 305.989 856.992 305.265 864.602 303.581V278.306C861.322 278.806 857.994 279.003 854.658 278.89C843.292 279.465 832.088 276.004 823.026 269.119C819.153 265.971 816.063 261.967 814 257.422C811.937 252.877 810.958 247.915 811.139 242.927C811.001 236.794 812.421 230.726 815.266 225.29C818.112 219.855 822.289 215.231 827.408 211.85C836.509 205.116 848.906 200.593 864.602 198.28V175.014Z" fill="white"/>
<path fill-rule="evenodd" clip-rule="evenodd" d="M669.821 43.1034C672.959 34.4584 677.778 26.5204 684 19.7474C690.179 13.519 697.579 8.63508 705.736 5.40203C713.892 2.16898 722.629 0.656645 731.397 0.959925C740.831 0.736854 750.259 1.5817 759.503 3.47836V35.2106C752.868 33.8778 746.122 33.1695 739.355 33.0951C734.96 32.7826 730.548 33.3918 726.402 34.8837C722.256 36.3756 718.467 38.7172 715.279 41.7586C709.588 48.622 706.708 57.3867 707.22 66.2881V116.103L754.013 116.103V150.353L707.22 150.353V301.812H665.716V70.1161C665.288 60.9292 666.683 51.7484 669.821 43.1034Z" fill="white"/>
<path fill-rule="evenodd" clip-rule="evenodd" d="M578.422 127.814V87.4585C588.866 82.3863 600.969 80.2666 613.265 80.2666C618.139 80.2383 622.996 80.8307 627.721 82.0295V120.461C621.514 119.258 615.205 118.667 608.883 118.698H608.329C597.751 119.337 587.507 122.474 578.422 127.814Z" fill="white"/>
<path fill-rule="evenodd" clip-rule="evenodd" d="M1141.75 332.526C1143.11 332.201 1144.46 331.853 1145.81 331.483C1156.02 328.789 1165.85 324.829 1175.08 319.696C1182.56 315.778 1189.37 310.675 1195.22 304.586L1176.84 275.725C1169.6 282.645 1161.33 288.389 1152.31 292.749C1148.88 294.369 1145.35 295.735 1141.75 296.841V332.526ZM1141.75 142.461C1143.4 143.182 1145.02 143.967 1146.62 144.816C1156.87 150.307 1166.28 157.264 1174.52 165.468L1199.05 140.888C1193.54 133.394 1186.71 126.96 1178.9 121.899C1169.87 115.447 1159.88 110.466 1149.29 107.141C1146.8 106.282 1144.29 105.516 1141.75 104.844V142.461Z" fill="white"/>
<path fill-rule="evenodd" clip-rule="evenodd" d="M1141.76 329.064V364.749C1131.55 367.195 1121.08 368.385 1110.57 368.288C1090.34 368.577 1070.38 363.613 1052.64 353.882C1035.59 344.004 1021.48 329.744 1011.8 312.58C1001.4 293.508 996.187 272.041 996.685 250.324C996.39 234.295 999.426 218.378 1005.6 203.582C1011.51 189.638 1020.2 177.043 1031.14 166.561C1041.94 156.124 1054.67 147.88 1068.61 142.284C1082.73 136.386 1097.89 133.388 1113.19 133.469C1122.84 133.384 1132.45 134.596 1141.76 137.064V174.681C1132.79 170.761 1123.07 168.758 1113.24 168.828C1099.67 168.867 1086.33 172.332 1074.45 178.902C1062.67 185.614 1052.85 195.306 1046 207.007C1038.22 220.071 1034.33 235.078 1034.76 250.274C1034.17 266.316 1038.06 282.204 1046 296.16C1053.26 308.003 1063.74 317.54 1076.22 323.661C1089.01 329.59 1102.96 332.617 1117.07 332.526C1125.45 332.687 1133.79 331.511 1141.76 329.064Z" fill="white"/>
</svg>
