<svg width="440" height="131" viewBox="0 0 440 131" fill="none" xmlns="http://www.w3.org/2000/svg">
<rect y="0.539062" width="440" height="130.286" fill="white"/>
<path d="M206.446 24.9994C204.693 26.9077 203.335 29.1442 202.451 31.5799C201.567 34.0156 201.174 36.6023 201.295 39.1907V104.471H212.988V61.7975H226.172V52.1474H212.988V38.1122C212.844 35.6042 213.656 33.1348 215.259 31.201C216.157 30.3441 217.225 29.6844 218.393 29.264C219.561 28.8437 220.804 28.672 222.042 28.7601C223.949 28.781 225.85 28.9806 227.719 29.3561V20.4156C225.115 19.8812 222.458 19.6432 219.8 19.706C217.33 19.6206 214.868 20.0467 212.57 20.9576C210.272 21.8685 208.187 23.2446 206.446 24.9994Z" fill="#101010"/>
<path d="M48.7933 57.9372L38.5898 55.7233C36.4056 55.2587 34.3049 54.4643 32.3598 53.3676C31.5884 52.8118 30.8795 52.1742 30.2453 51.4659C28.1585 49.1314 27.0551 46.0805 27.1657 42.9512C27.1212 41.0738 27.5224 39.2126 28.3365 37.5203C29.1506 35.828 30.3543 34.3529 31.8489 33.2159C35.2937 30.537 39.5805 29.1735 43.9399 29.3701C46.3762 29.2907 48.8021 29.7233 51.0608 30.64C53.3195 31.5567 55.3607 32.937 57.0527 34.6918C59.2715 37.0005 60.8512 39.8469 61.6365 42.9512L67.4833 38.5944L71.7407 35.6426C71.4285 34.9331 71.0737 34.2235 70.7047 33.5423C70.506 33.2017 70.3216 32.8611 70.1087 32.5347C67.5306 28.2323 63.7861 24.7486 59.3091 22.4873C54.4924 19.9839 49.1261 18.7252 43.6986 18.8259C38.5098 18.7342 33.3644 19.7855 28.6275 21.9054C24.474 23.6966 20.9295 26.6544 18.4239 30.4202C15.9427 34.1222 14.6551 38.4953 14.7341 42.9512C14.7341 55.4679 22.3691 63.3062 37.6389 66.4662L47.729 68.7084C51.5373 69.4175 55.0715 71.1773 57.9325 73.7889C59.0939 74.8445 60.0303 76.1236 60.6856 77.5496C61.1618 78.7854 61.4024 80.0995 61.3952 81.4238C61.4286 83.3714 61.0011 85.2993 60.1478 87.0503C59.2945 88.8013 58.0395 90.3259 56.485 91.4996C52.792 94.2045 48.2857 95.5664 43.7128 95.3597C38.5291 95.5524 33.4808 93.6791 29.6776 90.1515C27.2555 87.7676 25.5581 84.7466 24.7816 81.438L23.5753 82.2185V82.0766L13.7266 88.5053C13.9536 89.0729 14.2091 89.6264 14.4787 90.1799C14.7483 90.7333 15.2025 91.599 15.614 92.2234C18.337 96.4328 22.1535 99.8225 26.6549 102.03C31.7183 104.469 37.2844 105.685 42.9039 105.577C48.3041 105.687 53.6669 104.657 58.6421 102.555C62.9407 100.673 66.638 97.6434 69.3282 93.7986C71.8906 90.0642 73.2295 85.6259 73.1598 81.0974C73.1598 69.0537 65.0377 61.3336 48.7933 57.9372Z" fill="#101010"/>
<path d="M138.438 53.636L120.813 84.2324C119.2 87.4236 116.903 90.2196 114.086 92.4208C111.67 94.1385 108.762 95.025 105.798 94.9469C103.151 94.9933 100.533 94.3839 98.1775 93.173C96.0358 92.0555 94.2509 90.3591 93.0261 88.277C91.7783 86.1219 91.1314 83.6715 91.1528 81.1813C91.1813 79.2033 91.5115 77.2412 92.132 75.3629C92.795 73.2529 93.6649 71.2136 94.7291 69.2748L110.623 40.3671L101.541 35.3008L85.3486 63.5983C83.6213 66.5163 82.1949 69.6022 81.0912 72.8084C80.2224 75.3811 79.744 78.0695 79.6721 80.784C79.5315 85.0966 80.6375 89.3583 82.8575 93.0583C85.0775 96.7584 88.3174 99.7397 92.1888 101.645C96.4237 103.71 101.088 104.741 105.798 104.654C110.775 104.774 115.678 103.437 119.904 100.808C124.409 97.7282 128.097 93.5978 130.647 88.7737L147.847 58.9719L138.438 53.636Z" fill="#101010"/>
<path d="M173.069 46.5071C169.621 49.6434 167.96 52.1837 166.896 57.8602H166.527L167.024 42.8032H155.543V104.535H167.024V75.0885C167.064 71.5539 167.643 68.0463 168.741 64.6862C170.073 61.3695 172.319 58.4991 175.218 56.4089C178.117 54.3187 181.55 53.0946 185.118 52.879H185.274C187.055 52.8704 188.833 53.0367 190.581 53.3757V42.5477C189.25 42.21 187.882 42.0431 186.508 42.0511C181.499 42.0511 176.603 43.2999 173.069 46.5071Z" fill="#101010"/>
<path d="M419.436 71.3283C419.551 65.5063 418.245 59.7439 415.632 54.54C413.309 49.7624 409.715 45.7167 405.244 42.8463C400.732 40.0465 395.511 38.6032 390.201 38.6883C384.641 38.5872 379.173 40.1219 374.477 43.1018C369.861 45.9949 366.126 50.0983 363.678 54.9657C361.08 60.2617 359.772 66.0971 359.86 71.9953C359.764 78.0345 361.111 84.0094 363.791 89.4223C366.303 94.3753 370.172 98.5116 374.947 101.349C379.721 104.186 385.204 105.606 390.755 105.444C395.698 105.55 400.615 104.712 405.244 102.975C408.669 101.437 411.666 99.0834 413.972 96.1206C414.726 95.2814 415.336 94.3221 415.774 93.2823L409.303 86.9388C407.929 89.347 406.039 91.4212 403.768 93.0127C399.921 95.6647 395.326 97.0172 390.656 96.8727C387.115 96.8117 383.666 95.7328 380.722 93.7648C377.825 91.8048 375.461 89.1572 373.839 86.0589C372.182 82.6822 371.341 78.9636 371.384 75.2025H419.166C419.37 73.9217 419.461 72.6252 419.436 71.3283ZM371.412 67.7947C371.414 62.443 373.378 57.2777 376.932 53.277C378.587 51.4434 380.618 49.9874 382.885 49.0079C385.153 48.0285 387.604 47.5484 390.074 47.6004C393.38 47.5411 396.63 48.4647 399.412 50.2542C402.217 52.0471 404.472 54.5816 405.925 57.5769C407.514 60.7503 408.313 64.2605 408.253 67.8089L371.412 67.7947Z" fill="#101010"/>
<path d="M282.594 65.2323C282.594 60.4073 281.799 54.9862 279.571 51.2255C277.386 47.4365 274.16 44.3534 270.276 42.3417C266.127 40.1265 261.482 39.0078 256.78 39.0919C252.206 38.9997 247.673 39.9714 243.539 41.9302C242.14 42.6001 240.793 43.3733 239.509 44.2434C238.658 44.8148 237.856 45.4556 237.111 46.1592L239.949 56.0931C241.192 54.6349 242.737 53.4633 244.476 52.6588C247.949 50.5187 251.948 49.3839 256.028 49.3806C260.285 49.3806 264.84 49.8206 267.565 52.6588C270.29 55.4971 271.141 60.2512 271.141 64.6647V67.503L258.639 68.6241C249.727 69.3809 242.877 71.5096 238.09 75.0102C235.84 76.4935 234.002 78.5217 232.746 80.9061C231.491 83.2905 230.859 85.9537 230.909 88.648C230.785 90.9804 231.182 93.3111 232.07 95.4712C232.959 97.6312 234.317 99.5664 236.046 101.136C239.594 104.145 244.381 105.649 250.408 105.649C255.942 105.649 260.782 104.613 264.5 101.775C268.218 98.9367 269.013 97.5176 271.283 92.9622H271.709C271.709 99.8876 272.121 101.605 272.944 104.514H284.084C283.036 98.6132 282.561 92.625 282.665 86.6329L282.594 65.2323ZM271.241 79.2534C271.437 84.1909 269.754 89.0191 266.529 92.7635C265.047 94.4796 263.199 95.842 261.122 96.7506C259.044 97.6592 256.79 98.091 254.523 98.0143C251.321 98.1763 248.164 97.2012 245.611 95.2612C244.52 94.3744 243.649 93.2463 243.068 91.9657C242.487 90.6851 242.211 89.2871 242.262 87.8817C242.223 86.1536 242.623 84.4439 243.425 82.9126C244.226 81.3812 245.403 80.0783 246.846 79.1256C249.902 76.8645 254.277 75.4879 259.973 74.996L271.241 73.9884V79.2534Z" fill="#101010"/>
<path d="M316.448 52.2471C319.793 50.3961 323.552 49.4198 327.375 49.4088C330.655 49.3856 333.889 50.1807 336.784 51.722C339.674 53.2689 342.322 55.229 344.646 57.5404L351.557 50.6151C350.004 48.5036 348.08 46.691 345.881 45.2649C343.336 43.4471 340.52 42.0437 337.536 41.1069C334.264 39.9775 330.823 39.416 327.361 39.4465C323.05 39.4238 318.779 40.2684 314.802 41.93C310.874 43.5067 307.288 45.8296 304.243 48.7702C301.163 51.7234 298.715 55.2721 297.048 59.2008C295.309 63.3696 294.454 67.854 294.537 72.3703C294.396 78.489 295.864 84.5373 298.794 89.9108C301.524 94.7467 305.498 98.7645 310.303 101.548C315.301 104.289 320.924 105.688 326.623 105.606C329.978 105.637 333.321 105.203 336.557 104.315C339.433 103.556 342.203 102.44 344.802 100.994C346.911 99.8902 348.828 98.4525 350.479 96.7369L345.299 88.6052C343.26 90.5549 340.928 92.1734 338.388 93.4019C335.285 94.868 331.885 95.5965 328.454 95.5306C324.48 95.5563 320.55 94.7034 316.945 93.0329C313.43 91.3083 310.477 88.6213 308.43 85.2845C306.195 81.3525 305.099 76.8759 305.265 72.3562C305.142 68.0747 306.239 63.8465 308.43 60.1658C310.362 56.869 313.127 54.1382 316.448 52.2471Z" fill="#101010"/>
</svg>
