<svg width="536" height="301" viewBox="0 0 536 301" fill="none" xmlns="http://www.w3.org/2000/svg">
<g filter="url(#filter0_d)">
<rect x="4" y="4" width="528" height="293" fill="#101010"/>
</g>
<path d="M15.355 81.4323C7.78502 100.233 4.00001 123.176 4.00001 150.261C4.00001 176.709 7.65447 199.174 14.9634 217.656C22.2723 236.138 32.1915 251.114 44.7211 262.586C57.5117 274.376 72.2601 282.979 88.9662 288.396C105.933 294.132 123.945 297 143 297L4 297L4.00001 150.261L4.00002 3.99998L143 4.00002C124.989 4.00001 107.63 6.54922 90.9239 11.6476C74.2178 17.0647 59.339 25.3497 46.2873 36.5025C33.2357 47.9739 22.9249 62.9505 15.355 81.4323Z" fill="#A7D22C"/>
<path d="M520.645 219.568C528.215 200.767 532 177.824 532 150.739C532 124.291 528.346 101.826 521.037 83.3442C513.728 64.8624 503.808 49.8858 491.279 38.4144C478.488 26.6243 463.74 18.0207 447.034 12.6036C430.067 6.86786 412.055 4 393 4L532 4L532 150.739L532 297L393 297C411.011 297 428.37 294.451 445.076 289.352C461.782 283.935 476.661 275.65 489.713 264.498C502.764 253.026 513.075 238.049 520.645 219.568Z" fill="#A7D22C"/>
<defs>
<filter id="filter0_d" x="0" y="0" width="536" height="301" filterUnits="userSpaceOnUse" color-interpolation-filters="sRGB">
<feFlood flood-opacity="0" result="BackgroundImageFix"/>
<feColorMatrix in="SourceAlpha" type="matrix" values="0 0 0 0 0 0 0 0 0 0 0 0 0 0 0 0 0 0 127 0"/>
<feOffset/>
<feGaussianBlur stdDeviation="2"/>
<feColorMatrix type="matrix" values="0 0 0 0 0 0 0 0 0 0 0 0 0 0 0 0 0 0 0.1 0"/>
<feBlend mode="normal" in2="BackgroundImageFix" result="effect1_dropShadow"/>
<feBlend mode="normal" in="SourceGraphic" in2="effect1_dropShadow" result="shape"/>
</filter>
</defs>
</svg>
