<svg width="1312" height="202" viewBox="0 0 1312 202" fill="none" xmlns="http://www.w3.org/2000/svg">
<g clip-path="url(#clip0)">
<g filter="url(#filter0_d)">
<rect x="-28" width="1360" height="202" rx="16" fill="white"/>
</g>
<path d="M7.86564 53.3834C2.62149 66.3448 -0.000613655 82.162 -0.000614406 100.835C-0.00061514 119.069 2.53105 134.557 7.59438 147.299C12.6577 160.04 19.5293 170.365 28.2093 178.274C37.0701 186.402 47.2872 192.334 58.8605 196.069C70.6147 200.023 83.0922 202 96.293 202L-0.000618474 202L-0.000614406 100.835L-0.000610352 -4.51912e-06L96.293 2.22857e-05C83.8155 2.17001e-05 71.7901 1.7575 60.2168 5.27245C48.6435 9.00709 38.336 14.7189 29.2943 22.4079C20.2527 30.3165 13.1098 40.6417 7.86564 53.3834Z" fill="#2763BD"/>
<path d="M1304.51 148.617C1309.7 135.655 1312.29 119.838 1312.29 101.165C1312.29 82.9309 1309.79 67.4432 1304.77 54.7015C1299.76 41.9598 1292.96 31.6346 1284.37 23.726C1275.61 15.5976 1265.5 9.66614 1254.04 5.93149C1242.41 1.97717 1230.06 3.19038e-07 1217 0L1312.29 2.32723e-06L1312.29 101.165L1312.29 202L1217 202C1229.35 202 1241.25 200.243 1252.7 196.728C1264.15 192.993 1274.35 187.281 1283.3 179.592C1292.25 171.684 1299.32 161.358 1304.51 148.617Z" fill="#2763BD"/>
</g>
<defs>
<filter id="filter0_d" x="-32" y="-4" width="1368" height="210" filterUnits="userSpaceOnUse" color-interpolation-filters="sRGB">
<feFlood flood-opacity="0" result="BackgroundImageFix"/>
<feColorMatrix in="SourceAlpha" type="matrix" values="0 0 0 0 0 0 0 0 0 0 0 0 0 0 0 0 0 0 127 0"/>
<feOffset/>
<feGaussianBlur stdDeviation="2"/>
<feColorMatrix type="matrix" values="0 0 0 0 0 0 0 0 0 0 0 0 0 0 0 0 0 0 0.1 0"/>
<feBlend mode="normal" in2="BackgroundImageFix" result="effect1_dropShadow"/>
<feBlend mode="normal" in="SourceGraphic" in2="effect1_dropShadow" result="shape"/>
</filter>
<clipPath id="clip0">
<path d="M0 16C0 7.16344 7.16344 0 16 0H1296C1304.84 0 1312 7.16344 1312 16V186C1312 194.837 1304.84 202 1296 202H16C7.16343 202 0 194.837 0 186V16Z" fill="white"/>
</clipPath>
</defs>
</svg>
