<svg width="24" height="33" viewBox="0 0 24 33" fill="none" xmlns="http://www.w3.org/2000/svg">
<path d="M12 0C5.38316 0 0 5.35244 0 11.9315C0 17.4794 2.35372 22.6289 5.71577 26.9698C8.51871 30.5888 11.2931 32.7129 11.4098 32.8015C11.7582 33.0661 12.2418 33.0662 12.5902 32.8015C12.7069 32.7129 15.4813 30.5888 18.2842 26.9698C21.6474 22.6275 24 17.478 24 11.9315C23.9999 5.35244 18.6168 0 12 0Z" fill="#101010"/>
<path d="M12 0C5.38316 0 0 5.35244 0 11.9315C0 17.4794 2.35372 22.6289 5.71577 26.9698C8.51871 30.5888 11.2931 32.7129 11.4098 32.8015C11.7582 33.0661 12.2418 33.0662 12.5902 32.8015C12.7069 32.7129 15.4813 30.5888 18.2842 26.9698C21.6474 22.6275 24 17.478 24 11.9315C23.9999 5.35244 18.6168 0 12 0ZM16.7753 25.7487C14.8691 28.2181 12.9402 29.9806 11.9994 30.7815C11.0655 29.9872 9.15819 28.2453 7.25654 25.79C4.16086 21.7932 1.94469 17.0391 1.94469 11.9314C1.94469 6.41862 6.45546 1.93359 12 1.93359C17.5445 1.93359 22.0552 6.41862 22.0552 11.9315C22.0552 17.0124 19.8621 21.7503 16.7753 25.7487Z" fill="#EEF2F6"/>
<ellipse cx="12.0696" cy="11.5106" rx="6.03444" ry="6.13954" fill="#101010"/>
<path d="M11.9989 4.57031C7.91567 4.57031 4.59375 7.87327 4.59375 11.9332C4.59375 11.9417 4.59407 11.9501 4.59407 11.9586V11.9587C4.60801 16.0069 7.92422 19.2961 11.9989 19.2961C16.0735 19.2961 19.3898 16.0069 19.4037 11.9587V11.9586C19.4037 11.9501 19.404 11.9417 19.404 11.9332C19.404 7.87327 16.0821 4.57031 11.9989 4.57031ZM11.9989 6.50384C14.4813 6.50384 16.5806 8.16002 17.2417 10.419C16.4398 10.3907 15.6806 10.7149 15.1531 11.2678C14.8368 11.5994 14.307 11.5991 13.9909 11.2678C12.9096 10.1345 11.0885 10.134 10.0068 11.2678C9.69039 11.5994 9.16072 11.599 8.84458 11.2678C8.31777 10.7155 7.55888 10.3905 6.75605 10.419C7.41705 8.16002 9.51641 6.50384 11.9989 6.50384ZM11.9989 17.3624C9.14808 17.3624 6.80201 15.1786 6.56035 12.4054C6.85679 12.2901 7.2019 12.3555 7.43371 12.5985C8.51489 13.7317 10.336 13.7323 11.4177 12.5985C11.7341 12.2669 12.2639 12.2672 12.58 12.5985C13.6609 13.7315 15.4803 13.7346 16.564 12.5985C16.7956 12.3558 17.1406 12.29 17.4374 12.4054C17.1957 15.1786 14.8497 17.3624 11.9989 17.3624Z" fill="#EEF2F6"/>
</svg>
