<svg width="24" height="23" viewBox="0 0 24 23" fill="none" xmlns="http://www.w3.org/2000/svg">
<g clip-path="url(#clip0)">
<path d="M14.082 9.31752H20.0987C22.5715 6.01213 23.941 2.89821 22.9883 1.03421C22.8384 0.740908 22.6118 0.493888 22.3246 0.330812C20.5919 -0.653222 17.4553 0.707969 14.082 3.18976V9.31752Z" fill="#424242"/>
<path d="M13.364 10.7443C12.9677 10.7443 12.6464 10.4247 12.6464 10.0304V4.2998C11.0806 5.57067 9.49963 7.04061 8.01562 8.59225C8.01832 8.6175 8.01994 8.64312 8.01994 8.66909V15.3472H14.5232C14.5503 15.3472 14.577 15.349 14.6034 15.3519C16.1802 13.8796 17.678 12.3077 18.9722 10.7443H13.364V10.7443Z" fill="#424242"/>
<path d="M7.30296 16.775C6.90666 16.775 6.58541 16.4554 6.58541 16.0611V10.1479C2.94864 14.2616 0.206355 18.66 0.295061 21.313C0.326202 22.2446 1.07041 22.9858 2.0078 22.9906C4.53866 23.0036 8.90061 20.3308 13.0195 16.775H7.30296V16.775Z" fill="#424242"/>
<path d="M17.721 17.5401C17.4442 17.2634 17.0815 17.125 16.7188 17.125C16.356 17.125 15.9933 17.2634 15.7165 17.5401L12.8663 20.3904C12.3128 20.9438 12.3128 21.8413 12.8663 22.3948L13.0413 22.5699C13.3181 22.8466 13.6808 22.985 14.0436 22.985C14.4063 22.985 14.769 22.8466 15.0458 22.5699L17.896 19.7196C18.4496 19.1661 18.4496 18.2687 17.896 17.7152L17.721 17.5401Z" fill="#424242"/>
<path d="M23.076 12.3479C22.8076 12.0793 22.3722 12.0793 22.1037 12.3479L18.2461 16.2055C18.5995 16.4489 18.9331 16.769 19.2205 17.1757L23.076 13.3202C23.3445 13.0517 23.3445 12.6163 23.076 12.3479Z" fill="#424242"/>
</g>
<defs>
<clipPath id="clip0">
<rect width="23" height="23" fill="white" transform="translate(0.292969)"/>
</clipPath>
</defs>
</svg>
