<svg width="24" height="23" viewBox="0 0 24 23" fill="none" xmlns="http://www.w3.org/2000/svg">
<g clip-path="url(#clip0)">
<path d="M14.082 9.31758H20.0987C22.5715 6.01219 23.941 2.89827 22.9883 1.03427C22.8384 0.740969 22.6118 0.49395 22.3246 0.330873C20.5919 -0.653161 17.4553 0.70803 14.082 3.18982V9.31758Z" fill="#424242"/>
<path d="M13.364 10.7445C12.9677 10.7445 12.6464 10.4249 12.6464 10.0306V4.3C11.0806 5.57086 9.49963 7.0408 8.01562 8.59244C8.01832 8.61769 8.01994 8.64331 8.01994 8.66928V15.3473H14.5232C14.5503 15.3473 14.577 15.3491 14.6034 15.3521C16.1802 13.8798 17.678 12.3079 18.9722 10.7445H13.364V10.7445Z" fill="#424242"/>
<path d="M7.30296 16.7752C6.90666 16.7752 6.58541 16.4556 6.58541 16.0613V10.1482C2.94864 14.2619 0.206355 18.6603 0.295061 21.3132C0.326202 22.2449 1.07041 22.986 2.0078 22.9909C4.53866 23.0038 8.90061 20.331 13.0195 16.7752H7.30296V16.7752Z" fill="#424242"/>
<path d="M17.721 17.5404C17.4442 17.2637 17.0815 17.1253 16.7188 17.1253C16.356 17.1253 15.9933 17.2637 15.7165 17.5404L12.8663 20.3907C12.3128 20.9442 12.3128 21.8416 12.8663 22.3951L13.0413 22.5702C13.3181 22.8469 13.6808 22.9853 14.0436 22.9853C14.4063 22.9853 14.769 22.8469 15.0458 22.5702L17.896 19.7199C18.4496 19.1664 18.4496 18.269 17.896 17.7155L17.721 17.5404Z" fill="#424242"/>
<path d="M23.076 12.3481C22.8076 12.0796 22.3722 12.0796 22.1037 12.3481L18.2461 16.2057C18.5995 16.4491 18.9331 16.7692 19.2205 17.1759L23.076 13.3204C23.3445 13.0519 23.3445 12.6166 23.076 12.3481Z" fill="#424242"/>
</g>
<defs>
<clipPath id="clip0">
<rect width="23" height="23" fill="white" transform="translate(0.292969)"/>
</clipPath>
</defs>
</svg>
