<svg width="18" height="18" viewBox="0 0 18 18" fill="none" xmlns="http://www.w3.org/2000/svg">
<path fill-rule="evenodd" clip-rule="evenodd" d="M9 17.25C4.44365 17.25 0.75 13.5563 0.75 9C0.75 4.44365 4.44365 0.75 9 0.75C13.5563 0.75 17.25 4.44365 17.25 9C17.25 13.5563 13.5563 17.25 9 17.25ZM14.5496 12.8435C15.3065 11.7527 15.75 10.4282 15.75 8.99999C15.75 5.27207 12.7279 2.24999 9 2.24999C5.27207 2.24999 2.24999 5.27207 2.24999 8.99999C2.24999 10.4282 2.69353 11.7527 3.45037 12.8435C4.29446 11.7285 6.27795 11.25 8.99999 11.25C11.722 11.25 13.7055 11.7285 14.5496 12.8435ZM13.4735 14.0548C13.254 13.2655 11.677 12.75 8.99999 12.75C6.32296 12.75 4.746 13.2655 4.52648 14.0548C5.71747 15.1096 7.28395 15.75 9 15.75C10.716 15.75 12.2825 15.1096 13.4735 14.0548ZM9.00001 4.49999C7.18433 4.49999 6.00001 5.81681 6.00001 7.49999C6.00001 10.0705 7.32065 11.25 9.00001 11.25C10.6636 11.25 12 10.1097 12 7.64999C12 5.94118 10.8107 4.49999 9.00001 4.49999ZM7.5 7.50001C7.5 9.20195 8.11366 9.75001 9 9.75001C9.88328 9.75001 10.5 9.2238 10.5 7.65001C10.5 6.71282 9.91174 6.00001 9 6.00001C8.0503 6.00001 7.5 6.61188 7.5 7.50001Z" fill="#101010"/>
</svg>
