<svg width="1440" height="672" viewBox="0 0 1440 672" fill="none" xmlns="http://www.w3.org/2000/svg">
<rect width="1440" height="672" fill="#2763BD"/>
<path d="M10.5381 388.729C3.51271 374.338 1.42945e-05 356.776 1.75433e-05 336.043C2.07156e-05 315.799 3.39158 298.603 10.1747 284.456C16.9578 270.309 26.1634 258.845 37.7916 250.064C49.662 241.039 63.3493 234.453 78.8536 230.307C94.6001 225.916 111.316 223.721 129 223.721L3.5144e-05 223.721L1.75433e-05 336.043L0 448L129 448C112.285 448 96.1746 446.049 80.6704 442.146C65.1662 438 51.3578 431.658 39.2451 423.121C27.1324 414.34 17.5634 402.876 10.5381 388.729Z" fill="#101010"/>
<path d="M10.5381 164.392C3.51271 150.055 1.42412e-05 132.559 1.74778e-05 111.904C2.06383e-05 91.7343 3.39158 74.6025 10.1747 60.5082C16.9578 46.414 26.1634 34.9928 37.7916 26.2447C49.662 17.2536 63.3493 10.6925 78.8536 6.5614C94.6001 2.18733 111.316 0.000288201 129 0.000289917L3.50128e-05 0.000277402L1.74778e-05 111.904L0 223.442L129 223.442C112.285 223.442 96.1746 221.498 80.6704 217.61C65.1662 213.479 51.3578 207.161 39.2451 198.656C27.1324 189.908 17.5634 178.487 10.5381 164.392Z" fill="#101010"/>
<path d="M10.5381 612.729C3.51271 598.338 1.42945e-05 580.776 1.75433e-05 560.043C2.07156e-05 539.799 3.39158 522.603 10.1747 508.456C16.9578 494.309 26.1634 482.845 37.7916 474.064C49.662 465.039 63.3493 458.453 78.8536 454.307C94.6001 449.916 111.316 447.721 129 447.721L3.5144e-05 447.721L1.75433e-05 560.043L0 672L129 672C112.285 672 96.1746 670.049 80.6704 666.146C65.1662 662 51.3578 655.658 39.2451 647.121C27.1324 638.34 17.5634 626.876 10.5381 612.729Z" fill="#101010"/>
<path d="M709.462 283.271C716.487 297.662 720 315.224 720 335.957C720 356.201 716.608 373.397 709.825 387.544C703.042 401.691 693.837 413.155 682.208 421.936C670.338 430.961 656.651 437.547 641.146 441.693C625.4 446.084 608.684 448.279 591 448.279L720 448.279L720 335.957L720 224L591 224C607.715 224 623.825 225.951 639.33 229.854C654.834 234.001 668.642 240.342 680.755 248.879C692.868 257.66 702.437 269.124 709.462 283.271Z" fill="#101010"/>
<path d="M730.538 388.729C723.513 374.338 720 356.776 720 336.043C720 315.799 723.392 298.603 730.175 284.456C736.958 270.309 746.163 258.845 757.792 250.064C769.662 241.039 783.349 234.453 798.854 230.307C814.6 225.916 831.316 223.721 849 223.721L720 223.721L720 336.043L720 448L849 448C832.285 448 816.175 446.049 800.67 442.146C785.166 437.999 771.358 431.658 759.245 423.121C747.132 414.34 737.563 402.876 730.538 388.729Z" fill="#101010"/>
<path d="M709.462 507.608C716.487 521.945 720 539.441 720 560.096C720 580.266 716.608 597.398 709.825 611.492C703.042 625.586 693.837 637.007 682.208 645.755C670.338 654.746 656.651 661.308 641.146 665.439C625.4 669.813 608.684 672 591 672L720 672L720 560.096L720 448.558L591 448.558C607.715 448.558 623.825 450.502 639.33 454.39C654.834 458.521 668.642 464.839 680.755 473.344C692.868 482.092 702.437 493.513 709.462 507.608Z" fill="#101010"/>
<path d="M730.538 164.392C723.513 150.055 720 132.559 720 111.904C720 91.7342 723.392 74.6025 730.175 60.5082C736.958 46.414 746.163 34.9928 757.792 26.2447C769.662 17.2536 783.349 10.6925 798.854 6.56139C814.6 2.18732 831.316 0.000285109 849 0.000289917L720 0.000254847L720 111.904L720 223.442L849 223.442C832.285 223.442 816.175 221.498 800.67 217.61C785.166 213.479 771.358 207.161 759.245 198.656C747.132 189.908 737.563 178.487 730.538 164.392Z" fill="#101010"/>
<path d="M709.462 59.2712C716.487 73.6621 720 91.2239 720 111.957C720 132.201 716.608 149.397 709.825 163.544C703.042 177.691 693.837 189.155 682.208 197.936C670.338 206.961 656.651 213.547 641.146 217.693C625.4 222.084 608.684 224.279 591 224.279L720 224.279L720 111.957L720 1.05912e-05L591 1.15421e-05C607.715 1.46251e-05 623.825 1.95133 639.33 5.85396C654.834 10.0005 668.642 16.3423 680.755 24.8793C692.868 33.6602 702.437 45.1241 709.462 59.2712Z" fill="#101010"/>
<path d="M730.538 612.729C723.513 598.338 720 580.776 720 560.043C720 539.799 723.392 522.603 730.175 508.456C736.958 494.309 746.163 482.845 757.792 474.064C769.662 465.039 783.349 458.453 798.854 454.307C814.6 449.916 831.316 447.721 849 447.721L720 447.721L720 560.043L720 672L849 672C832.285 672 816.175 670.049 800.67 666.146C785.166 661.999 771.358 655.658 759.245 647.121C747.132 638.34 737.563 626.876 730.538 612.729Z" fill="#101010"/>
<path d="M1429.46 506.992C1436.49 521.383 1440 538.945 1440 559.677C1440 579.922 1436.61 597.118 1429.83 611.265C1423.04 625.412 1413.84 636.876 1402.21 645.657C1390.34 654.682 1376.65 661.267 1361.15 665.414C1345.4 669.804 1328.68 672 1311 672L1440 672L1440 559.677L1440 447.721L1311 447.721C1327.72 447.721 1343.83 449.672 1359.33 453.575C1374.83 457.721 1388.64 464.063 1400.75 472.6C1412.87 481.381 1422.44 492.845 1429.46 506.992Z" fill="#101010"/>
<path d="M1429.46 282.714C1436.49 297.104 1440 314.666 1440 335.399C1440 355.644 1436.61 372.84 1429.83 386.987C1423.04 401.134 1413.84 412.598 1402.21 421.379C1390.34 430.403 1376.65 436.989 1361.15 441.136C1345.4 445.526 1328.68 447.721 1311 447.721L1440 447.721L1440 335.399L1440 223.442L1311 223.442C1327.72 223.442 1343.83 225.394 1359.33 229.296C1374.83 233.443 1388.64 239.785 1400.75 248.322C1412.87 257.103 1422.44 268.567 1429.46 282.714Z" fill="#101010"/>
<path d="M1429.46 59.05C1436.49 73.3872 1440 90.8835 1440 111.539C1440 131.708 1436.61 148.84 1429.83 162.934C1423.04 177.028 1413.84 188.45 1402.21 197.198C1390.34 206.189 1376.65 212.75 1361.15 216.881C1345.4 221.255 1328.68 223.442 1311 223.442L1440 223.442L1440 111.539L1440 8.80066e-06L1311 1.1499e-05C1327.72 1.43436e-05 1343.83 1.94405 1359.33 5.83211C1374.83 9.96318 1388.64 16.2813 1400.75 24.7864C1412.87 33.5346 1422.44 44.9558 1429.46 59.05Z" fill="#101010"/>
</svg>
