<svg width="23" height="23" viewBox="0 0 23 23" fill="none" xmlns="http://www.w3.org/2000/svg">
<g clip-path="url(#clip0)">
<path d="M22.1208 19.5557L13.3333 10.5369L3.06662 0H2.26427L2.10044 0.427252C1.66803 1.55497 1.48328 2.70838 1.56622 3.76266C1.66077 4.96441 2.1056 6.00484 2.85271 6.77161L10.8674 14.9973L11.9246 13.9123L19.3342 22.4157C20.0713 23.1722 21.34 23.2171 22.1208 22.4157C22.8891 21.6271 22.8891 20.3442 22.1208 19.5557Z" fill="#424242"/>
<path d="M7.15407 13.0938L0.87697 19.536C0.108718 20.3245 0.108718 21.6075 0.87697 22.396C1.60679 23.145 2.86934 23.2111 3.66359 22.396L9.94074 15.9537L7.15407 13.0938Z" fill="#424242"/>
<path d="M21.7507 3.82966L18.19 7.48405L17.261 6.53072L20.8218 2.87628L19.8929 1.92295L16.3322 5.57734L15.4033 4.62401L18.964 0.969614L18.0352 0.0163269L13.3907 4.78299C12.8226 5.36612 12.4833 6.14039 12.4353 6.96327C12.4232 7.17175 12.3772 7.37682 12.3008 7.57187L15.3178 10.6683C15.5079 10.5898 15.7077 10.5426 15.9108 10.5302C16.7126 10.4811 17.467 10.1328 18.0352 9.54965L22.6796 4.78303L21.7507 3.82966Z" fill="#424242"/>
</g>
<defs>
<clipPath id="clip0">
<rect width="22.4103" height="23" fill="white" transform="translate(0.292969)"/>
</clipPath>
</defs>
</svg>
