<svg width="19" height="23" viewBox="0 0 19 23" fill="none" xmlns="http://www.w3.org/2000/svg">
<path fill-rule="evenodd" clip-rule="evenodd" d="M3.83818 0.0262522C3.8563 0.0262558 3.87444 0.0262594 3.89259 0.0262594H15.6069C15.625 0.0262594 15.6432 0.0262558 15.6613 0.0262522C16.0854 0.0261689 16.4975 0.0260879 16.8374 0.0717883C17.2206 0.123308 17.6579 0.24883 18.0211 0.612046C18.3843 0.975261 18.5098 1.41254 18.5613 1.79574C18.607 2.13566 18.607 2.54779 18.6069 2.97187C18.6069 2.98998 18.6069 3.00811 18.6069 3.02626L18.6069 19.1123C18.607 19.9181 18.607 20.6325 18.5273 21.1757C18.4461 21.7288 18.2354 22.4524 17.5032 22.8195C16.771 23.1866 16.0652 22.9225 15.5734 22.6566C15.0905 22.3955 14.5181 21.968 13.8724 21.4859L10.348 18.8543C10.041 18.625 9.87854 18.5057 9.75499 18.4341C9.7532 18.4331 9.74973 18.4311 9.74973 18.4311C9.74973 18.4311 9.74627 18.4331 9.74448 18.4341C9.62093 18.5057 9.45851 18.625 9.15145 18.8543L5.627 21.4859C4.98139 21.9681 4.409 22.3955 3.92608 22.6566C3.43429 22.9225 2.72843 23.1866 1.99625 22.8195C1.26408 22.4524 1.05337 21.7288 0.972174 21.1757C0.892443 20.6326 0.892511 19.9182 0.892588 19.1124L0.892592 3.02626C0.892592 3.0081 0.892589 2.98997 0.892585 2.97185C0.892502 2.54778 0.892421 2.13565 0.938121 1.79574C0.989641 1.41254 1.11516 0.975261 1.47838 0.612046C1.84159 0.24883 2.27887 0.123308 2.66207 0.0717883C3.00199 0.0260879 3.41411 0.0261689 3.83818 0.0262522ZM16.4888 21.1373C16.4888 21.1373 16.4899 21.134 16.493 21.129C16.4904 21.135 16.4888 21.1373 16.4888 21.1373ZM16.7531 20.9986C16.7589 20.9992 16.7623 21.0002 16.7623 21.0002C16.7623 21.0002 16.7595 21.0001 16.7531 20.9986ZM2.73721 21.0002C2.73721 21.0002 2.74055 20.9992 2.74637 20.9986C2.73999 21.0001 2.73721 21.0002 2.73721 21.0002ZM3.00653 21.129C3.00953 21.134 3.01071 21.1373 3.01071 21.1373C3.01071 21.1373 3.00911 21.1351 3.00653 21.129Z" fill="#101010" fill-opacity="0.3"/>
</svg>
