<svg width="376" height="155" viewBox="0 0 376 155" fill="none" xmlns="http://www.w3.org/2000/svg">
<rect width="375" height="154" transform="matrix(1 0 0 -1 0.998047 154.015)" fill="#2763BD"/>
<path d="M60.6901 40.6982C64.23 50.5797 66 62.6384 66 76.8744C66 90.7754 64.2911 102.583 60.8732 112.297C57.4554 122.011 52.8169 129.883 46.9577 135.912C40.9765 142.109 34.0798 146.631 26.2676 149.478C18.3333 152.493 9.91079 154 0.999993 154L66 154L66 76.8744L66 -8.09464e-06L1 7.92532e-06C9.42253 8.05102e-06 17.5399 1.33987 25.3521 4.01958C33.1643 6.86679 40.1221 11.2213 46.2253 17.0832C52.3286 23.1126 57.1502 30.9842 60.6901 40.6982Z" fill="#101010"/>
<path d="M305.69 40.6982C309.23 50.5797 311 62.6384 311 76.8744C311 90.7754 309.291 102.583 305.873 112.297C302.455 122.011 297.817 129.883 291.958 135.912C285.977 142.109 279.08 146.631 271.268 149.478C263.333 152.493 254.911 154 246 154L311 154L311 76.8744L311 -8.09464e-06L246 7.92532e-06C254.423 8.05102e-06 262.54 1.33987 270.352 4.01958C278.164 6.86679 285.122 11.2213 291.225 17.0832C297.329 23.1126 302.15 30.9842 305.69 40.6982Z" fill="#101010"/>
<path d="M71.3099 113.302C67.77 103.42 66 91.3616 66 77.1256C66 63.2246 67.7089 51.4171 71.1268 41.7031C74.5446 31.9891 79.1831 24.1174 85.0423 18.0881C91.0235 11.8913 97.9202 7.36922 105.732 4.52202C113.667 1.50732 122.089 1.50253e-07 131 0L66 1.09603e-06L66 77.1256L66 154L131 154C122.577 154 114.46 152.66 106.648 149.98C98.8357 147.133 91.8779 142.779 85.7747 136.917C79.6714 130.887 74.8498 123.016 71.3099 113.302Z" fill="#101010"/>
<path d="M316.31 113.302C312.77 103.42 311 91.3616 311 77.1256C311 63.2246 312.709 51.4171 316.127 41.7031C319.545 31.9891 324.183 24.1174 330.042 18.0881C336.023 11.8913 342.92 7.36922 350.732 4.52202C358.667 1.50732 367.089 1.50253e-07 376 0L311 1.09603e-06L311 77.1256L311 154L376 154C367.577 154 359.46 152.66 351.648 149.98C343.836 147.133 336.878 142.779 330.775 136.917C324.671 130.887 319.85 123.016 316.31 113.302Z" fill="#101010"/>
</svg>
