<svg width="1440" height="300" viewBox="0 0 1440 300" fill="none" xmlns="http://www.w3.org/2000/svg">
<rect width="1440" height="300" transform="matrix(1 0 0 -1 0 300)" fill="#2763BD"/>
<path d="M5.14648 260.359C1.71549 250.734 -1.10728e-05 238.989 -9.25447e-06 225.122C-7.47892e-06 211.582 1.65634 200.082 4.96902 190.62C8.28169 181.158 12.7775 173.491 18.4563 167.618C24.2535 161.582 30.938 157.178 38.5099 154.405C46.2 151.468 54.3634 150 63 150L5.96639e-07 150L-9.25447e-06 225.122L-1.90735e-05 300L63 300C54.8366 300 46.969 298.695 39.3972 296.085C31.8253 293.312 25.0817 289.07 19.1662 283.361C13.2507 277.488 8.57747 269.821 5.14648 260.359Z" fill="#101010"/>
<path d="M231.854 39.6411C235.285 49.2659 237 61.0114 237 74.8777C237 88.4176 235.344 99.9185 232.031 109.38C228.718 118.842 224.223 126.509 218.544 132.382C212.746 138.418 206.062 142.822 198.49 145.595C190.8 148.532 182.637 150 174 150L237 150L237 74.8777L237 3.99621e-06L174 7.71946e-06C182.163 9.38136e-06 190.031 1.30507 197.603 3.91518C205.175 6.68843 211.918 10.9299 217.834 16.6395C223.749 22.5123 228.423 30.1795 231.854 39.6411Z" fill="#101010"/>
<path d="M1163.85 39.6411C1167.28 49.2659 1169 61.0114 1169 74.8777C1169 88.4176 1167.34 99.9185 1164.03 109.38C1160.72 118.842 1156.22 126.509 1150.54 132.382C1144.75 138.418 1138.06 142.822 1130.49 145.595C1122.8 148.532 1114.64 150 1106 150L1169 150L1169 74.8777L1169 3.99621e-06L1106 7.71946e-06C1114.16 9.38136e-06 1122.03 1.30507 1129.6 3.91518C1137.17 6.68843 1143.92 10.9299 1149.83 16.6395C1155.75 22.5123 1160.42 30.1795 1163.85 39.6411Z" fill="#101010"/>
<path d="M1434.85 39.6411C1438.28 49.2659 1440 61.0114 1440 74.8777C1440 88.4176 1438.34 99.9185 1435.03 109.38C1431.72 118.842 1427.22 126.509 1421.54 132.382C1415.75 138.418 1409.06 142.822 1401.49 145.595C1393.8 148.532 1385.64 150 1377 150L1440 150L1440 74.8777L1440 3.99621e-06L1377 7.71946e-06C1385.16 9.38136e-06 1393.03 1.30507 1400.6 3.91518C1408.17 6.68843 1414.92 10.9299 1420.83 16.6395C1426.75 22.5123 1431.42 30.1795 1434.85 39.6411Z" fill="#101010"/>
<path d="M242.146 260.359C238.715 250.734 237 238.989 237 225.122C237 211.582 238.656 200.082 241.969 190.62C245.282 181.158 249.777 173.491 255.456 167.618C261.254 161.582 267.938 157.178 275.51 154.405C283.2 151.468 291.363 150 300 150L237 150L237 225.122L237 300L300 300C291.837 300 283.969 298.695 276.397 296.085C268.825 293.312 262.082 289.07 256.166 283.36C250.251 277.488 245.577 269.821 242.146 260.359Z" fill="#101010"/>
<path d="M1174.15 260.359C1170.72 250.734 1169 238.989 1169 225.122C1169 211.582 1170.66 200.082 1173.97 190.62C1177.28 181.158 1181.78 173.491 1187.46 167.618C1193.25 161.582 1199.94 157.178 1207.51 154.405C1215.2 151.468 1223.36 150 1232 150L1169 150L1169 225.122L1169 300L1232 300C1223.84 300 1215.97 298.695 1208.4 296.085C1200.83 293.312 1194.08 289.07 1188.17 283.36C1182.25 277.488 1177.58 269.821 1174.15 260.359Z" fill="#101010"/>
<path d="M5.14648 110.359C1.71549 100.734 -1.10728e-05 88.9886 -9.25447e-06 75.1223C-7.47892e-06 61.5824 1.65634 50.0816 4.96902 40.6199C8.28169 31.1582 12.7775 23.491 18.4563 17.6183C24.2535 11.5824 30.938 7.17781 38.5099 4.40455C46.2 1.46818 54.3634 -1.0032e-06 63 0L5.96639e-07 -7.31786e-06L-9.25447e-06 75.1223L-1.90735e-05 150L63 150C54.8366 150 46.969 148.695 39.3972 146.085C31.8253 143.312 25.0817 139.07 19.1662 133.361C13.2507 127.488 8.57747 119.821 5.14648 110.359Z" fill="#101010"/>
<path d="M231.854 189.641C235.285 199.266 237 211.011 237 224.878C237 238.418 235.344 249.918 232.031 259.38C228.718 268.842 224.223 276.509 218.544 282.382C212.746 288.418 206.062 292.822 198.49 295.595C190.8 298.532 182.637 300 174 300L237 300L237 224.878L237 150L174 150C182.163 150 190.031 151.305 197.603 153.915C205.175 156.688 211.918 160.93 217.834 166.639C223.749 172.512 228.423 180.179 231.854 189.641Z" fill="#101010"/>
<path d="M1163.85 189.641C1167.28 199.266 1169 211.011 1169 224.878C1169 238.418 1167.34 249.918 1164.03 259.38C1160.72 268.842 1156.22 276.509 1150.54 282.382C1144.75 288.418 1138.06 292.822 1130.49 295.595C1122.8 298.532 1114.64 300 1106 300L1169 300L1169 224.878L1169 150L1106 150C1114.16 150 1122.03 151.305 1129.6 153.915C1137.17 156.688 1143.92 160.93 1149.83 166.639C1155.75 172.512 1160.42 180.179 1163.85 189.641Z" fill="#101010"/>
<path d="M1434.85 189.641C1438.28 199.266 1440 211.011 1440 224.878C1440 238.418 1438.34 249.918 1435.03 259.38C1431.72 268.842 1427.22 276.509 1421.54 282.382C1415.75 288.418 1409.06 292.822 1401.49 295.595C1393.8 298.532 1385.64 300 1377 300L1440 300L1440 224.878L1440 150L1377 150C1385.16 150 1393.03 151.305 1400.6 153.915C1408.17 156.688 1414.92 160.93 1420.83 166.639C1426.75 172.512 1431.42 180.179 1434.85 189.641Z" fill="#101010"/>
<path d="M242.146 110.359C238.715 100.734 237 88.9886 237 75.1223C237 61.5824 238.656 50.0815 241.969 40.6199C245.282 31.1582 249.777 23.491 255.456 17.6183C261.254 11.5824 267.938 7.1778 275.51 4.40455C283.2 1.46818 291.363 -2.51328e-06 300 0L237 -1.83331e-05L237 75.1223L237 150L300 150C291.837 150 283.969 148.695 276.397 146.085C268.825 143.312 262.082 139.07 256.166 133.36C250.251 127.488 245.577 119.821 242.146 110.359Z" fill="#101010"/>
<path d="M1174.15 110.359C1170.72 100.734 1169 88.9886 1169 75.1223C1169 61.5824 1170.66 50.0815 1173.97 40.6199C1177.28 31.1582 1181.78 23.491 1187.46 17.6183C1193.25 11.5824 1199.94 7.1778 1207.51 4.40455C1215.2 1.46818 1223.36 -2.51328e-06 1232 0L1169 -1.83331e-05L1169 75.1223L1169 150L1232 150C1223.84 150 1215.97 148.695 1208.4 146.085C1200.83 143.312 1194.08 139.07 1188.17 133.36C1182.25 127.488 1177.58 119.821 1174.15 110.359Z" fill="#101010"/>
</svg>
