<svg width="23" height="23" viewBox="0 0 23 23" fill="none" xmlns="http://www.w3.org/2000/svg">
<path fill-rule="evenodd" clip-rule="evenodd" d="M9.58317 17.2503C5.34899 17.2503 1.9165 13.8178 1.9165 9.58366C1.9165 5.34948 5.34899 1.91699 9.58317 1.91699C13.8174 1.91699 17.2498 5.34948 17.2498 9.58366C17.2498 11.3553 16.6489 12.9867 15.6397 14.2849L20.8025 19.4477L19.4472 20.803L14.2844 15.6402C12.9862 16.6494 11.3549 17.2503 9.58317 17.2503ZM15.3332 9.58366C15.3332 12.7593 12.7588 15.3337 9.58316 15.3337C6.40753 15.3337 3.83316 12.7593 3.83316 9.58366C3.83316 6.40802 6.40753 3.83366 9.58316 3.83366C12.7588 3.83366 15.3332 6.40802 15.3332 9.58366Z" fill="#101010"/>
</svg>
