<svg width="27" height="27" viewBox="0 0 27 27" fill="none" xmlns="http://www.w3.org/2000/svg">
<path d="M23.704 18.9341L21.3752 16.5491C20.8743 16.0729 20.2425 15.7574 19.5609 15.6432C18.8792 15.5289 18.179 15.6211 17.5502 15.9078L16.5377 14.8953C17.7309 13.3011 18.2757 11.3141 18.0627 9.33427C17.8497 7.35445 16.8946 5.52883 15.3896 4.22493C13.8846 2.92103 11.9416 2.23566 9.95161 2.30679C7.96163 2.37792 6.07247 3.20027 4.66445 4.6083C3.25642 6.01632 2.43407 7.90547 2.36294 9.89545C2.29181 11.8854 2.97718 13.8285 4.28108 15.3334C5.58499 16.8384 7.4106 17.7935 9.39042 18.0066C11.3702 18.2196 13.3573 17.6747 14.9515 16.4816L15.9527 17.4828C15.6322 18.1124 15.5173 18.8267 15.6243 19.5251C15.7313 20.2234 16.0547 20.8706 16.549 21.3753L18.934 23.7603C19.5668 24.3924 20.4246 24.7474 21.319 24.7474C22.2134 24.7474 23.0712 24.3924 23.704 23.7603C24.0254 23.446 24.2809 23.0706 24.4552 22.6562C24.6296 22.2419 24.7194 21.7968 24.7194 21.3472C24.7194 20.8976 24.6296 20.4526 24.4552 20.0382C24.2809 19.6238 24.0254 19.2484 23.704 18.9341ZM14.164 14.1641C13.3767 14.9493 12.3744 15.4836 11.2837 15.6995C10.1929 15.9154 9.06267 15.8032 8.03566 15.377C7.00865 14.9509 6.13099 14.2299 5.51353 13.3052C4.89608 12.3805 4.56654 11.2935 4.56654 10.1816C4.56654 9.06967 4.89608 7.98269 5.51353 7.05798C6.13099 6.13326 7.00865 5.41228 8.03566 4.98612C9.06267 4.55996 10.1929 4.44774 11.2837 4.66363C12.3744 4.87952 13.3767 5.41383 14.164 6.19908C14.6878 6.72159 15.1034 7.34232 15.387 8.0257C15.6706 8.70908 15.8165 9.4417 15.8165 10.1816C15.8165 10.9215 15.6706 11.6541 15.387 12.3375C15.1034 13.0208 14.6878 13.6416 14.164 14.1641ZM22.1177 22.1178C22.0131 22.2233 21.8887 22.307 21.7516 22.3641C21.6145 22.4212 21.4675 22.4506 21.319 22.4506C21.1705 22.4506 21.0234 22.4212 20.8863 22.3641C20.7492 22.307 20.6248 22.2233 20.5202 22.1178L18.1352 19.7328C18.0298 19.6282 17.9461 19.5038 17.889 19.3667C17.8319 19.2296 17.8025 19.0826 17.8025 18.9341C17.8025 18.7856 17.8319 18.6385 17.889 18.5014C17.9461 18.3643 18.0298 18.2399 18.1352 18.1353C18.2398 18.0299 18.3642 17.9462 18.5013 17.8891C18.6384 17.832 18.7855 17.8026 18.934 17.8026C19.0825 17.8026 19.2295 17.832 19.3666 17.8891C19.5037 17.9462 19.6282 18.0299 19.7327 18.1353L22.1177 20.5203C22.2232 20.6249 22.3069 20.7493 22.364 20.8864C22.4211 21.0235 22.4505 21.1706 22.4505 21.3191C22.4505 21.4676 22.4211 21.6146 22.364 21.7517C22.3069 21.8888 22.2232 22.0132 22.1177 22.1178Z" fill="#424242"/>
</svg>
