<svg width="22" height="21" viewBox="0 0 22 21" fill="none" xmlns="http://www.w3.org/2000/svg">
<path fill-rule="evenodd" clip-rule="evenodd" d="M17.6562 18.9935L19.8733 16.877L19.0925 14.169L19.4327 13.3934L22 12.0105V9.01748L19.44 7.62882L19.1055 6.85459L19.8961 4.14516L17.6774 2.03025L14.8403 2.77545L14.0296 2.45098L12.5808 0H9.44544L7.99072 2.44379L7.17985 2.76302L4.34198 2.00732L2.1267 4.122L2.90748 6.83073L2.56758 7.60459L0 8.98759V11.9797L2.55774 13.3715L2.89252 14.1464L2.10197 16.8554L4.31809 18.9708L7.15567 18.2255L7.96644 18.55L9.41527 21H12.5498L14.0067 18.5583L14.8183 18.2388L17.6562 18.9935ZM17.8526 12.0523L16.9808 14.0399L17.6362 16.3125L17.0678 16.8551L14.692 16.2234L12.6089 17.0435L11.3873 19.0908H10.5829L9.37139 17.0421L7.29153 16.2097L4.90945 16.8354L4.34201 16.2937L5.00384 14.0258L4.1448 12.0375L1.99998 10.8704V10.1024L4.14708 8.94592L5.01918 6.96043L4.36373 4.68651L4.92999 4.14597L7.30574 4.77861L9.38953 3.95824L10.6093 1.90917H11.4129L12.6244 3.95877L14.7044 4.79126L17.0869 4.16546L17.6558 4.7077L16.9941 6.97513L17.8534 8.96411L20 10.1285V10.8956L17.8526 12.0523ZM11 14.3189C8.79088 14.3189 7.00002 12.6093 7.00002 10.5005C7.00002 8.39169 8.79088 6.68216 11 6.68216C13.2092 6.68216 15 8.39169 15 10.5005C15 12.6093 13.2092 14.3189 11 14.3189ZM13 10.5005C13 11.5549 12.1046 12.4097 11 12.4097C9.89543 12.4097 9 11.5549 9 10.5005C9 9.44609 9.89543 8.59132 11 8.59132C12.1046 8.59132 13 9.44609 13 10.5005Z" fill="#9F9F9F"/>
</svg>
