<svg width="15" height="14" viewBox="0 0 15 14" fill="none" xmlns="http://www.w3.org/2000/svg">
<g clip-path="url(#clip0)">
<path d="M4.86328 9.0504H12.8028C12.9995 9.0504 13.1719 8.92906 13.2251 8.75282L14.9831 3.01053C15.0208 2.88673 14.995 2.75375 14.9118 2.65089C14.8285 2.54836 14.6989 2.48779 14.5607 2.48779H3.84876L3.53462 1.16846C3.48999 0.980576 3.31146 0.847168 3.10547 0.847168H0.439453C0.19661 0.847168 0 1.03067 0 1.25732C0 1.48409 0.19661 1.66748 0.439453 1.66748H2.75276L4.33971 8.33252C3.8728 8.522 3.54492 8.95576 3.54492 9.46056C3.54492 10.139 4.13635 10.691 4.86328 10.691H12.8028C13.0458 10.691 13.2423 10.5076 13.2423 10.2809C13.2423 10.0542 13.0458 9.87071 12.8028 9.87071H4.86328C4.62124 9.87071 4.42383 9.68689 4.42383 9.46056C4.42383 9.23422 4.62124 9.0504 4.86328 9.0504Z" fill="#9F9F9F"/>
<path d="M4.42188 11.9219C4.42188 12.6004 5.01331 13.1523 5.74035 13.1523C6.46728 13.1523 7.05871 12.6004 7.05871 11.9219C7.05871 11.2434 6.46728 10.6914 5.74035 10.6914C5.01331 10.6914 4.42188 11.2434 4.42188 11.9219Z" fill="#9F9F9F"/>
<path d="M10.6055 11.9216C10.6055 12.6002 11.1969 13.1521 11.9238 13.1521C12.6509 13.1521 13.2422 12.6002 13.2422 11.9216C13.2422 11.2432 12.6509 10.6912 11.9238 10.6912C11.1969 10.6912 10.6055 11.2432 10.6055 11.9216Z" fill="#9F9F9F"/>
</g>
<defs>
<clipPath id="clip0">
<rect width="15" height="14" fill="white"/>
</clipPath>
</defs>
</svg>
