<svg width="23" height="23" viewBox="0 0 23 23" fill="none" xmlns="http://www.w3.org/2000/svg">
<g clip-path="url(#clip0)">
<path d="M7.42578 14.7223H19.0705C19.3588 14.7223 19.6118 14.5317 19.6898 14.2547L22.2681 5.23111C22.3235 5.03658 22.2856 4.82761 22.1636 4.66597C22.0414 4.50484 21.8514 4.40967 21.6486 4.40967H5.93782L5.47708 2.33643C5.41162 2.04118 5.14978 1.83154 4.84766 1.83154H0.9375C0.581329 1.83154 0.292969 2.1199 0.292969 2.47607C0.292969 2.83241 0.581329 3.12061 0.9375 3.12061H4.33035L6.65788 13.5942C5.97307 13.892 5.49219 14.5736 5.49219 15.3669C5.49219 16.433 6.35962 17.3005 7.42578 17.3005H19.0705C19.4268 17.3005 19.715 17.0123 19.715 16.6559C19.715 16.2998 19.4268 16.0114 19.0705 16.0114H7.42578C7.07079 16.0114 6.78125 15.7225 6.78125 15.3669C6.78125 15.0112 7.07079 14.7223 7.42578 14.7223Z" fill="#424242"/>
<path d="M6.78125 19.2344C6.78125 20.3007 7.64868 21.168 8.71501 21.168C9.78117 21.168 10.6486 20.3007 10.6486 19.2344C10.6486 18.1682 9.78117 17.3008 8.71501 17.3008C7.64868 17.3008 6.78125 18.1682 6.78125 19.2344Z" fill="#424242"/>
<path d="M15.8477 19.2344C15.8477 20.3007 16.7151 21.168 17.7812 21.168C18.8476 21.168 19.7148 20.3007 19.7148 19.2344C19.7148 18.1682 18.8476 17.3008 17.7812 17.3008C16.7151 17.3008 15.8477 18.1682 15.8477 19.2344Z" fill="#424242"/>
</g>
<defs>
<clipPath id="clip0">
<rect width="22" height="22" fill="white" transform="translate(0.292969 0.5)"/>
</clipPath>
</defs>
</svg>
