<svg width="23" height="23" viewBox="0 0 23 23" fill="none" xmlns="http://www.w3.org/2000/svg">
<g clip-path="url(#clip0)">
<path d="M7.42578 14.7226H19.0705C19.3588 14.7226 19.6118 14.5319 19.6898 14.255L22.2681 5.23135C22.3235 5.03682 22.2856 4.82785 22.1636 4.66621C22.0414 4.50508 21.8514 4.40991 21.6486 4.40991H5.93782L5.47708 2.33667C5.41162 2.04143 5.14978 1.83179 4.84766 1.83179H0.9375C0.581329 1.83179 0.292969 2.12015 0.292969 2.47632C0.292969 2.83266 0.581329 3.12085 0.9375 3.12085H4.33035L6.65788 13.5945C5.97307 13.8922 5.49219 14.5739 5.49219 15.3671C5.49219 16.4333 6.35962 17.3007 7.42578 17.3007H19.0705C19.4268 17.3007 19.715 17.0125 19.715 16.6562C19.715 16.3 19.4268 16.0116 19.0705 16.0116H7.42578C7.07079 16.0116 6.78125 15.7228 6.78125 15.3671C6.78125 15.0114 7.07079 14.7226 7.42578 14.7226Z" fill="#424242"/>
<path d="M6.78125 19.2343C6.78125 20.3006 7.64868 21.1678 8.71501 21.1678C9.78117 21.1678 10.6486 20.3006 10.6486 19.2343C10.6486 18.1681 9.78117 17.3007 8.71501 17.3007C7.64868 17.3007 6.78125 18.1681 6.78125 19.2343Z" fill="#424242"/>
<path d="M15.8477 19.2343C15.8477 20.3006 16.7151 21.1678 17.7812 21.1678C18.8476 21.1678 19.7148 20.3006 19.7148 19.2343C19.7148 18.1681 18.8476 17.3007 17.7812 17.3007C16.7151 17.3007 15.8477 18.1681 15.8477 19.2343Z" fill="#424242"/>
</g>
<defs>
<clipPath id="clip0">
<rect width="22" height="22" fill="white" transform="translate(0.292969 0.5)"/>
</clipPath>
</defs>
</svg>
