<svg width="24" height="23" viewBox="0 0 24 23" fill="none" xmlns="http://www.w3.org/2000/svg">
<g clip-path="url(#clip0)">
<path d="M8.75824 3.84302C9.05951 3.62766 9.05082 3.64407 11.169 2.47597C11.1737 2.47372 11.1778 2.47101 11.1824 2.46876C10.0716 0.944866 8.25806 0.0078125 6.29198 0.0078125C2.98436 0.0078125 0.292969 2.63192 0.292969 5.85685V22.7693C0.292969 22.8937 0.39652 22.9947 0.524109 22.9947H2.83551C2.9631 22.9947 3.06665 22.8937 3.06665 22.7693V5.85685C3.06665 4.1157 4.52561 2.70043 6.31417 2.71215C7.27294 2.71846 8.15728 3.14845 8.75824 3.84302Z" fill="#424242"/>
<path d="M13.3405 15.8555C13.7182 15.7941 13.9734 15.4457 13.9104 15.0775L13.8033 14.4512C13.7403 14.0829 13.383 13.8342 13.0053 13.8955C12.6275 13.957 12.3724 14.3053 12.4353 14.6736L12.5424 15.2998C12.6054 15.6681 12.9626 15.9169 13.3405 15.8555Z" fill="#424242"/>
<path d="M16.8562 13.9741C17.1901 13.7914 17.3089 13.3793 17.1215 13.0537L16.8217 12.5328C16.6342 12.2072 16.2116 12.0914 15.8776 12.2742C15.5436 12.4569 15.4248 12.869 15.6123 13.1946L15.9121 13.7154C16.0997 14.0414 16.5226 14.1567 16.8562 13.9741Z" fill="#424242"/>
<path d="M20.3314 12.026C20.582 11.7436 20.5503 11.3166 20.2607 11.0723L19.7682 10.6569C19.4785 10.4127 19.0407 10.4436 18.7901 10.7259C18.5396 11.0083 18.5712 11.4353 18.8608 11.6795L19.3533 12.0949C19.643 12.3392 20.0808 12.3083 20.3314 12.026Z" fill="#424242"/>
<path d="M14.0985 18.4615C14.0432 18.092 13.6913 17.8362 13.3123 17.8899C12.9333 17.9438 12.6709 18.287 12.7261 18.6565L12.8232 19.3059C12.8785 19.6758 13.2309 19.9312 13.6094 19.8774C13.9883 19.8235 14.2508 19.4804 14.1955 19.1109L14.0985 18.4615Z" fill="#424242"/>
<path d="M17.1412 16.6172C16.9976 16.271 16.5935 16.1039 16.2384 16.2438C15.8834 16.3837 15.7119 16.7778 15.8554 17.1239L16.0928 17.6965C16.2364 18.0429 16.6406 18.2099 16.9955 18.07C17.3506 17.9301 17.522 17.536 17.3786 17.1898L17.1412 16.6172Z" fill="#424242"/>
<path d="M20.1408 14.777C19.9125 14.4772 19.4781 14.4146 19.1707 14.6372C18.8632 14.8599 18.7991 15.2833 19.0274 15.5831L19.405 16.0789C19.6333 16.3787 20.0677 16.4412 20.3751 16.2186C20.6826 15.996 20.7467 15.5726 20.5184 15.2728L20.1408 14.777Z" fill="#424242"/>
<path d="M23.6308 13.3913L23.1129 12.9723C22.8182 12.7338 22.381 12.7734 22.1364 13.0607C21.8918 13.3481 21.9325 13.7743 22.2271 14.0128L22.7451 14.4319C23.0398 14.6704 23.477 14.6307 23.7216 14.3434C23.9662 14.056 23.9255 13.6298 23.6308 13.3913Z" fill="#424242"/>
<path d="M8.87988 9.51577L16.6004 5.25779L16.3799 4.87738C15.48 3.32505 13.4578 2.76597 11.8505 3.65187C9.76631 4.80094 9.73316 4.8018 9.4434 5.03333C8.24111 5.99085 7.83388 7.71405 8.65891 9.13491L8.87988 9.51577Z" fill="#424242"/>
<path d="M19.3701 6.7636L19.0641 6.23625C18.8746 5.90808 18.4456 5.79472 18.1127 5.97844C17.7118 6.19902 8.92733 11.0435 8.7409 11.1464C8.40889 11.3289 8.28624 11.7447 8.47693 12.074L8.78296 12.6018C9.0387 13.0426 9.61146 13.1974 10.0639 12.9484L19.0146 8.01255C19.4662 7.76308 19.6262 7.20495 19.3701 6.7636Z" fill="#424242"/>
</g>
<defs>
<clipPath id="clip0">
<rect width="23.5897" height="23" fill="white" transform="translate(0.292969)"/>
</clipPath>
</defs>
</svg>
