<svg width="16" height="16" viewBox="0 0 16 16" fill="none" xmlns="http://www.w3.org/2000/svg">
<path d="M5.74166 2.67187C5.946 2.52206 5.94011 2.53347 7.37681 1.72089C7.37995 1.71932 7.38277 1.71744 7.3859 1.71587C6.63245 0.65577 5.40241 0.00390625 4.06889 0.00390625C1.82547 0.00390625 0 1.82937 0 4.0728V15.838C0 15.9245 0.0702344 15.9948 0.156773 15.9948H1.72451C1.81105 15.9948 1.88128 15.9245 1.88128 15.838V4.0728C1.88128 2.86157 2.87083 1.87703 4.08394 1.88519C4.73424 1.88958 5.33405 2.1887 5.74166 2.67187Z" fill="#9F9F9F"/>
<path d="M8.84696 11.0301C9.10316 10.9874 9.27623 10.745 9.23353 10.4888L9.16088 10.0532C9.11818 9.79699 8.87584 9.62395 8.61961 9.66662C8.36341 9.70936 8.19033 9.9517 8.23304 10.2079L8.30569 10.6435C8.34839 10.8997 8.5907 11.0728 8.84696 11.0301Z" fill="#9F9F9F"/>
<path d="M11.236 9.71943C11.4625 9.59232 11.543 9.30561 11.4159 9.0791L11.2126 8.7168C11.0854 8.49026 10.7988 8.40968 10.5722 8.53685C10.3457 8.66397 10.2652 8.95067 10.3923 9.17718L10.5956 9.53948C10.7229 9.76621 11.0097 9.84641 11.236 9.71943Z" fill="#9F9F9F"/>
<path d="M13.5897 8.36386C13.7597 8.16742 13.7382 7.8704 13.5417 7.70046L13.2077 7.41149C13.0113 7.24158 12.7143 7.26306 12.5443 7.45946C12.3744 7.6559 12.3959 7.95292 12.5923 8.12287L12.9263 8.41183C13.1228 8.58177 13.4198 8.56026 13.5897 8.36386Z" fill="#9F9F9F"/>
<path d="M9.36549 12.84C9.32803 12.583 9.08932 12.4051 8.83224 12.4425C8.5752 12.4799 8.3972 12.7187 8.43467 12.9757L8.50051 13.4275C8.53804 13.6848 8.77703 13.8625 9.03376 13.825C9.29081 13.7876 9.46881 13.5488 9.43134 13.2918L9.36549 12.84Z" fill="#9F9F9F"/>
<path d="M11.4299 11.5598C11.3326 11.319 11.0584 11.2027 10.8176 11.3C10.5768 11.3973 10.4605 11.6715 10.5578 11.9123L10.7188 12.3106C10.8162 12.5516 11.0904 12.6677 11.3311 12.5704C11.572 12.4731 11.6883 12.199 11.5909 11.9582L11.4299 11.5598Z" fill="#9F9F9F"/>
<path d="M13.4612 10.2798C13.3064 10.0713 13.0118 10.0277 12.8032 10.1826C12.5947 10.3375 12.5512 10.632 12.706 10.8406L12.9622 11.1855C13.117 11.3941 13.4117 11.4375 13.6202 11.2827C13.8287 11.1278 13.8722 10.8333 13.7174 10.6247L13.4612 10.2798Z" fill="#9F9F9F"/>
<path d="M15.829 9.31426L15.4778 9.02272C15.2779 8.85682 14.9813 8.88442 14.8154 9.08427C14.6495 9.28416 14.6771 9.58068 14.877 9.74658L15.2283 10.0381C15.4282 10.204 15.7247 10.1764 15.8906 9.97656C16.0565 9.77665 16.0289 9.48016 15.829 9.31426Z" fill="#9F9F9F"/>
<path d="M5.82594 6.61848L11.0625 3.65641L10.9129 3.39177C10.3026 2.31189 8.93096 1.92296 7.84079 2.53924C6.42716 3.3386 6.40468 3.33919 6.20815 3.50026C5.39268 4.16636 5.11647 5.36511 5.67606 6.35353L5.82594 6.61848Z" fill="#9F9F9F"/>
<path d="M12.9379 4.70494L12.7303 4.33809C12.6018 4.1098 12.3109 4.03094 12.085 4.15874C11.8131 4.31219 5.85496 7.68229 5.72851 7.75387C5.50332 7.88082 5.42013 8.17004 5.54947 8.39915L5.75704 8.76631C5.93049 9.07293 6.31898 9.18066 6.62588 9.00743L12.6968 5.57378C13.003 5.40023 13.1116 5.01197 12.9379 4.70494Z" fill="#9F9F9F"/>
</svg>
