<svg width="415" height="254" viewBox="0 0 415 254" fill="none" xmlns="http://www.w3.org/2000/svg">
<path d="M263.175 186.874C252.392 170.576 247 150.687 247 127.207C247 104.279 252.206 84.8046 262.617 68.7829C273.028 52.7611 287.158 39.778 305.006 29.8335C323.225 19.6127 344.234 12.1543 368.031 7.45826C392.2 2.48599 417.856 -0.000123992 445 -0.00012207L247 -0.000136085L247 127.207L247 254L445 254C419.344 254 394.617 251.79 370.82 247.37C347.023 242.674 325.828 235.492 307.237 225.824C288.645 215.879 273.958 202.896 263.175 186.874Z" fill="#101010"/>
<rect x="247" y="-0.00012207" width="254" height="247" transform="rotate(90 247 -0.00012207)" fill="#101010"/>
</svg>
