<svg width="489" height="254" viewBox="0 0 489 254" fill="none" xmlns="http://www.w3.org/2000/svg">
<rect x="291" width="254" height="291" transform="rotate(90 291 0)" fill="#101010"/>
<path d="M307.175 186.874C296.392 170.576 291 150.687 291 127.207C291 104.279 296.206 84.8048 306.617 68.783C317.028 52.7613 331.158 39.7781 349.006 29.8336C367.225 19.6129 388.234 12.1544 412.031 7.4584C436.2 2.48614 461.856 1.33375e-05 489 1.52588e-05L291 1.24363e-06L291 127.207L291 254L489 254C463.344 254 438.617 251.79 414.82 247.37C391.023 242.674 369.828 235.492 351.237 225.824C332.645 215.879 317.958 202.896 307.175 186.874Z" fill="#101010"/>
</svg>
