<svg width="14" height="14" viewBox="0 0 14 14" fill="none" xmlns="http://www.w3.org/2000/svg">
<path d="M13.9958 3.4771C13.9542 2.65083 13.6089 1.87336 13.0235 1.28796L12.7122 0.976563C12.1267 0.391104 11.3492 0.0457786 10.5229 0.00424332C9.77987 -0.0331084 9.05093 0.177029 8.44685 0.599081C8.11897 0.535698 7.76629 0.630691 7.51295 0.884032L6.29486 2.10206C6.09848 2.29845 5.99036 2.55953 5.99034 2.8372C5.99034 2.88325 5.99359 2.92878 5.99947 2.9737L2.97374 5.99941C2.92881 5.99356 2.88331 5.9903 2.83724 5.9903C2.55956 5.9903 2.29845 6.09842 2.1021 6.29481L0.884037 7.51286C0.630642 7.76623 0.535649 8.11899 0.599059 8.44685C0.177034 9.05082 -0.0331304 9.7795 0.00424865 10.5229C0.0458113 11.3492 0.391109 12.1266 0.976541 12.7121L1.28791 13.0234C1.87334 13.6089 2.65081 13.9542 3.47711 13.9958C3.53355 13.9986 3.58987 14 3.64612 14C4.33015 14 4.9942 13.7904 5.55223 13.4007C5.61813 13.4135 5.68507 13.42 5.75198 13.42C6.0182 13.42 6.28447 13.3186 6.48712 13.1159L7.70521 11.8979C7.90159 11.7015 8.00971 11.4405 8.00971 11.1628C8.00971 11.1167 8.00645 11.0712 8.00057 11.0262L11.0263 8.00054C11.0712 8.00639 11.1167 8.00967 11.1628 8.00967C11.4405 8.00967 11.7016 7.90156 11.8979 7.70517L13.116 6.48711C13.3694 6.23372 13.4644 5.88098 13.401 5.5531C13.823 4.94911 14.0332 4.22042 13.9958 3.4771ZM6.883 2.69017L8.10106 1.47214C8.166 1.4072 8.26351 1.39446 8.34144 1.43353C8.35052 1.43807 8.35913 1.44332 8.36736 1.44909C8.36884 1.45013 8.37029 1.45123 8.37171 1.45229C8.37994 1.45836 8.38784 1.46487 8.39512 1.47214L8.7886 1.86565C8.86959 1.94664 8.86964 2.07838 8.78879 2.15946L8.4742 2.47408L7.57054 3.37771C7.55028 3.39797 7.52684 3.41317 7.50179 3.42332C7.43923 3.44867 7.36669 3.44235 7.30905 3.40431C7.29751 3.39671 7.2866 3.38785 7.27645 3.37774L6.88292 2.98418C6.88287 2.98412 6.88284 2.98407 6.88278 2.98401C6.87488 2.97608 6.86791 2.9675 6.86143 2.95858C6.85982 2.95637 6.85837 2.95418 6.85692 2.95196C6.85134 2.94363 6.84625 2.93498 6.84196 2.92593C6.8255 2.89091 6.82203 2.85787 6.82203 2.83718C6.82208 2.80505 6.82998 2.74319 6.883 2.69017ZM1.4722 8.101L2.69026 6.88294C2.74325 6.82992 2.80513 6.82202 2.83729 6.82202C2.85739 6.82202 2.88908 6.82511 2.92296 6.84034L2.92301 6.84037C2.92394 6.84078 2.92493 6.84144 2.92586 6.84187C2.93502 6.84617 2.94371 6.85133 2.95211 6.85694C2.95429 6.85842 2.95648 6.85984 2.95867 6.86142C2.96767 6.86791 2.97631 6.87496 2.98429 6.88294L3.37785 7.2765C3.43082 7.3295 3.43875 7.39135 3.43875 7.4235C3.43875 7.45566 3.43082 7.51751 3.37782 7.57051L3.35803 7.5903L2.15971 8.78856C2.07866 8.86961 1.94676 8.86967 1.86568 8.78856L1.47223 8.39509C1.46496 8.38781 1.45845 8.37988 1.45235 8.37168C1.45123 8.3702 1.45014 8.36875 1.44907 8.36722C1.44333 8.35905 1.43813 8.35052 1.43362 8.34155C1.39446 8.26356 1.40721 8.16594 1.4722 8.101ZM1.8761 12.4353L1.56471 12.124C0.779556 11.3388 0.616067 10.1572 1.10845 9.20755L1.2776 9.37668C1.48032 9.5794 1.74649 9.68071 2.01274 9.68071C2.04905 9.68071 2.08536 9.67866 2.12154 9.67486C2.30895 9.65531 2.49191 9.58495 2.64821 9.46404L4.53594 11.3518C4.39534 11.533 4.31889 11.7542 4.31889 11.9873C4.31889 12.2273 4.39985 12.4548 4.54855 12.639C4.54992 12.6407 4.55115 12.6424 4.55254 12.6441C4.56034 12.6536 4.56851 12.6629 4.57666 12.6722C4.58024 12.6763 4.58363 12.6804 4.58724 12.6844C4.59312 12.6909 4.59933 12.6971 4.60537 12.7035C4.61139 12.7098 4.61718 12.7163 4.62339 12.7225L4.79257 12.8916C3.84286 13.3839 2.66128 13.2205 1.8761 12.4353ZM3.24253 8.88208L3.47137 8.65321L4.21474 9.39658L4.50879 9.10253C4.6159 8.99539 4.79021 8.99534 4.89746 9.10253C5.00459 9.20969 5.00459 9.38403 4.89743 9.49122L4.6034 9.78527L5.34674 10.5286L5.18769 10.6877L5.1179 10.7575L3.24253 8.88208ZM7.11712 11.3098L5.89904 12.5278C5.83404 12.5928 5.73645 12.6056 5.65852 12.5664C5.64952 12.5619 5.64102 12.5567 5.63284 12.551C5.63128 12.5499 5.62978 12.5488 5.62828 12.5476C5.6201 12.5416 5.61225 12.5351 5.60501 12.5279L5.52626 12.4491L5.21145 12.1343C5.20543 12.1283 5.20015 12.1221 5.19526 12.116C5.19343 12.1136 5.19173 12.1112 5.19001 12.1088C5.18733 12.1051 5.18476 12.1014 5.18244 12.0977C5.18041 12.0945 5.1785 12.0912 5.17667 12.0879C5.17508 12.0851 5.1736 12.0822 5.17221 12.0794C5.17038 12.0756 5.16857 12.0719 5.16696 12.068C5.16597 12.0656 5.16507 12.0633 5.16417 12.0609C5.16264 12.0568 5.16113 12.0527 5.1599 12.0486C5.15925 12.0464 5.15867 12.0443 5.1581 12.0422C5.15692 12.0379 5.15583 12.0336 5.15493 12.0292C5.15454 12.0274 5.15424 12.0256 5.15389 12.0237C5.15304 12.0189 5.1523 12.014 5.15178 12.0092C5.15167 12.008 5.15154 12.0069 5.15143 12.0058C5.15033 11.9935 5.15033 11.9811 5.15143 11.9688C5.15154 11.9676 5.15165 11.9665 5.15178 11.9654C5.15227 11.9605 5.15304 11.9557 5.15386 11.9509C5.15419 11.949 5.15449 11.9472 5.15487 11.9453C5.15575 11.941 5.15684 11.9367 5.15802 11.9324C5.15859 11.9303 5.15917 11.9281 5.15982 11.9259C5.16111 11.9218 5.16256 11.9178 5.16409 11.9137C5.16496 11.9113 5.16586 11.909 5.16688 11.9065C5.16849 11.9027 5.17029 11.8989 5.17215 11.8952C5.17355 11.8924 5.17497 11.8895 5.17656 11.8867C5.17842 11.8834 5.18036 11.8801 5.18244 11.8768C5.1847 11.8732 5.18719 11.8696 5.18982 11.866C5.19162 11.8635 5.19337 11.8609 5.19531 11.8585C5.20018 11.8524 5.20543 11.8462 5.21142 11.8402L6.42948 10.6222C6.43541 10.6163 6.44146 10.6111 6.44755 10.6062C6.45018 10.6042 6.45291 10.6023 6.45559 10.6003C6.45898 10.5979 6.46237 10.5956 6.46579 10.5934C6.46921 10.5913 6.47263 10.5892 6.47615 10.5873C6.47883 10.5858 6.48151 10.5845 6.48414 10.5831C6.48799 10.5812 6.49188 10.5794 6.49584 10.5777C6.49817 10.5767 6.50044 10.5759 6.50273 10.575C6.50683 10.5735 6.51096 10.572 6.51515 10.5707C6.51733 10.5701 6.51947 10.5695 6.52163 10.5689C6.52587 10.5677 6.5301 10.5667 6.5344 10.5658C6.53639 10.5654 6.53831 10.5651 6.54022 10.5647C6.5449 10.5639 6.5496 10.5632 6.55433 10.5627C6.55562 10.5626 6.5569 10.5624 6.55813 10.5623C6.56423 10.5618 6.57033 10.5615 6.57645 10.5615C6.58258 10.5615 6.58867 10.5618 6.59477 10.5623C6.596 10.5624 6.59726 10.5626 6.59855 10.5627C6.60328 10.5632 6.60801 10.5639 6.61271 10.5647C6.6146 10.5651 6.61648 10.5654 6.61845 10.5658C6.62277 10.5667 6.62707 10.5678 6.63136 10.5689C6.63346 10.5695 6.63554 10.5701 6.6377 10.5707C6.64194 10.572 6.6461 10.5735 6.65025 10.5751C6.65249 10.5759 6.65471 10.5767 6.65701 10.5777C6.661 10.5794 6.66494 10.5813 6.66882 10.5832C6.67144 10.5845 6.67407 10.5858 6.67669 10.5873C6.68022 10.5892 6.68372 10.5913 6.68711 10.5934C6.6905 10.5956 6.69387 10.5979 6.69723 10.6003C6.69994 10.6023 6.7027 10.6042 6.70532 10.6062C6.71142 10.6111 6.71746 10.6163 6.7234 10.6222L7.11693 11.0157C7.11696 11.0158 7.11698 11.0158 7.11701 11.0159C7.12497 11.0238 7.13197 11.0324 7.13845 11.0414C7.14004 11.0435 7.14146 11.0457 7.14288 11.0479C7.14857 11.0564 7.15376 11.0652 7.15814 11.0745C7.15849 11.0752 7.15898 11.076 7.15934 11.0768L7.15959 11.0773C7.17476 11.1111 7.17782 11.1427 7.17782 11.1627C7.17799 11.195 7.17009 11.2568 7.11712 11.3098ZM7.56414 10.2865L7.3117 10.0341C7.29915 10.0216 7.2863 10.0094 7.27325 9.99757C7.27159 9.99607 7.26984 9.9947 7.26817 9.9932C7.2566 9.98286 7.24487 9.97272 7.23289 9.96296C7.23259 9.96271 7.23227 9.96249 7.23197 9.96224C7.04718 9.81161 6.81817 9.72966 6.57656 9.72966C6.34348 9.72966 6.12224 9.80608 5.94104 9.94671L5.72234 9.72799C5.89198 9.32541 5.81309 8.84197 5.48562 8.51447C5.1581 8.187 4.67474 8.10808 4.2721 8.27775L4.05338 8.05906C4.14162 7.94531 4.20476 7.81592 4.23935 7.67753C4.24345 7.66112 4.24717 7.64458 4.25047 7.62793C4.25706 7.59462 4.26207 7.56088 4.26543 7.52678C4.2688 7.49268 4.27049 7.45823 4.27049 7.4235C4.27049 7.35408 4.26374 7.28569 4.25053 7.21908C4.24394 7.18578 4.23571 7.15294 4.22592 7.12064C4.221 7.10448 4.21575 7.08849 4.21006 7.0726C4.15898 6.92976 4.07643 6.79881 3.96596 6.68837L3.71352 6.43593L6.43596 3.71346L6.6884 3.96593C6.75878 4.03631 6.83698 4.09417 6.92003 4.14014C7.27788 4.33805 7.72831 4.30912 8.05901 4.05329L8.27735 4.27163C8.22031 4.40636 8.19039 4.55243 8.19039 4.70312C8.19039 4.99868 8.30548 5.27658 8.5145 5.48556C8.72349 5.69458 9.00139 5.80967 9.29695 5.80967C9.44766 5.80967 9.59374 5.77973 9.72846 5.72272L9.94672 5.94098C9.80609 6.12221 9.72966 6.34342 9.72966 6.5765C9.72966 6.85421 9.83778 7.11531 10.0342 7.31164L10.2866 7.56408L7.56414 10.2865ZM9.78536 4.60337L9.49131 4.89743C9.43941 4.94935 9.37036 4.97793 9.29695 4.97793C9.22353 4.97793 9.15451 4.94935 9.10261 4.89743C9.05071 4.84553 9.02214 4.77651 9.02214 4.70309C9.02214 4.62967 9.05071 4.56066 9.10261 4.50876L9.3967 4.21468L8.65327 3.47131L8.7154 3.40918L8.88214 3.24244L10.7576 5.11787L10.5287 5.34674L9.78536 4.60337ZM12.5279 5.899L11.3098 7.11706C11.2568 7.17005 11.195 7.17796 11.1628 7.17796C11.1428 7.17796 11.1112 7.17489 11.0774 7.15972L11.0768 7.15947C11.0761 7.15914 11.0753 7.15865 11.0746 7.1583C11.0652 7.15395 11.0564 7.14867 11.0479 7.14296C11.0457 7.14153 11.0436 7.14017 11.0415 7.13861C11.0325 7.1321 11.0238 7.12505 11.0158 7.11706L10.6223 6.7235C10.5892 6.69039 10.5737 6.65383 10.5667 6.6232C10.5625 6.60483 10.5614 6.58862 10.5614 6.57656C10.5614 6.54445 10.5693 6.48271 10.622 6.42977L10.8084 6.24334L11.8403 5.2115C11.8808 5.17097 11.9341 5.15068 11.9873 5.15068C12.0245 5.15068 12.0615 5.16077 12.0944 5.18052C12.1027 5.18555 12.1108 5.19093 12.1186 5.19722C12.124 5.20165 12.1293 5.20641 12.1344 5.21147L12.5278 5.60489C12.5351 5.61222 12.5417 5.62015 12.5478 5.62841C12.5488 5.62983 12.5499 5.63122 12.5509 5.63265C12.5567 5.6409 12.562 5.6496 12.5665 5.65865C12.6056 5.73658 12.5928 5.83409 12.5279 5.899ZM12.8916 4.79245L12.7225 4.62333C12.5234 4.42419 12.2629 4.32312 12.0013 4.31965C11.9967 4.31959 11.992 4.31932 11.9874 4.31932C11.9827 4.31932 11.9779 4.31959 11.9731 4.31965C11.7533 4.3226 11.5344 4.39476 11.3519 4.53594L9.46415 2.64817C9.55496 2.53079 9.61747 2.39847 9.6511 2.26036C9.65507 2.24411 9.65862 2.22779 9.66177 2.21138C9.72509 1.88356 9.6301 1.53091 9.37673 1.27759L9.20759 1.10842C10.1573 0.616035 11.3389 0.779523 12.124 1.56465L12.4353 1.87604C13.2205 2.66122 13.384 3.84277 12.8916 4.79245Z" fill="white"/>
</svg>
