<svg width="15" height="14" viewBox="0 0 15 14" fill="none" xmlns="http://www.w3.org/2000/svg">
<g clip-path="url(#clip0)">
<path d="M8.99219 5.674H12.9161C14.5288 3.66202 15.4219 1.76659 14.8006 0.631983C14.7029 0.45345 14.5551 0.30309 14.3678 0.203826C13.2378 -0.395151 11.1921 0.4334 8.99219 1.94405V5.674Z" fill="#9F9F9F"/>
<path d="M8.52713 6.53992C8.26867 6.53992 8.05916 6.34538 8.05916 6.10539V2.61719C7.03793 3.39076 6.00689 4.2855 5.03906 5.22998C5.04082 5.24535 5.04188 5.26094 5.04188 5.27675V9.34166H9.28313C9.30083 9.34166 9.31824 9.34276 9.33544 9.34453C10.3638 8.44839 11.3406 7.49156 12.1846 6.53994H8.52713V6.53992Z" fill="#9F9F9F"/>
<path d="M4.57174 10.2135C4.31328 10.2135 4.10376 10.019 4.10376 9.77899V6.17969C1.73196 8.68367 -0.0564873 11.361 0.00136443 12.9758C0.0216741 13.5429 0.507025 13.994 1.11837 13.997C2.76893 14.0049 5.61368 12.3779 8.29989 10.2135H4.57174V10.2135Z" fill="#9F9F9F"/>
<path d="M11.3665 10.6785C11.186 10.51 10.9495 10.4258 10.7129 10.4258C10.4763 10.4258 10.2398 10.51 10.0593 10.6785L8.20042 12.4134C7.83944 12.7503 7.83944 13.2966 8.20042 13.6335L8.31457 13.74C8.49507 13.9085 8.73163 13.9927 8.9682 13.9927C9.20476 13.9927 9.44133 13.9085 9.62183 13.74L11.4807 12.0051C11.8417 11.6682 11.8417 11.1219 11.4807 10.785L11.3665 10.6785Z" fill="#9F9F9F"/>
<path d="M14.857 7.51713C14.6819 7.35367 14.398 7.35367 14.2229 7.51713L11.707 9.86522C11.9375 10.0134 12.1551 10.2083 12.3425 10.4558L14.857 8.10896C15.0321 7.94553 15.0321 7.68053 14.857 7.51713Z" fill="#9F9F9F"/>
</g>
<defs>
<clipPath id="clip0">
<rect width="15" height="14" fill="white"/>
</clipPath>
</defs>
</svg>
