<svg width="14" height="14" viewBox="0 0 14 14" fill="none" xmlns="http://www.w3.org/2000/svg">
<path d="M9.4614 3.56584C9.01136 2.37852 8.30369 1.29883 7.35804 0.356699L7 0L6.64196 0.356699C5.69631 1.29883 4.98861 2.37855 4.53857 3.56584C4.0885 4.75316 3.91927 5.98694 4.03556 7.23289L4.03682 7.24626L4.92475 12.4946L4.92748 12.509C5.10984 13.373 5.97599 14 6.98697 14C7.9926 14 8.8579 13.3769 9.04444 12.5184L9.04605 12.511L9.96066 7.2613L9.96447 7.23289C10.0807 5.98694 9.91147 4.75316 9.4614 3.56584ZM8.10934 12.372C8.00441 12.8375 7.53366 13.1746 6.98697 13.1746C6.43729 13.1746 5.96601 12.8352 5.86341 12.3667L5.26554 8.83282H8.72593L8.10934 12.372ZM8.86973 8.00737H5.12589L4.99581 7.23852L7 5.4973L9.00375 7.23814L8.86973 8.00737ZM7 4.32996L4.95956 6.10269C4.99852 5.32993 5.15938 4.56698 5.441 3.82405C5.79224 2.8974 6.31564 2.04269 7 1.27704C7.68435 2.04269 8.20776 2.8974 8.559 3.82405C8.84062 4.56701 9.00148 5.32993 9.04044 6.10269L7 4.32996Z" fill="#424242"/>
</svg>
