<svg width="21" height="23" viewBox="0 0 21 23" fill="none" xmlns="http://www.w3.org/2000/svg">
<g clip-path="url(#clip0)">
<path d="M11.1156 15.6752V2.9455H9.8851V15.6752C8.96758 15.9549 8.29492 16.8431 8.29492 17.8934C8.29492 19.1674 9.28426 20.2038 10.5003 20.2038C11.7164 20.2038 12.7057 19.1674 12.7057 17.8934C12.7058 16.8431 12.0331 15.9549 11.1156 15.6752ZM10.5003 18.9147C9.96278 18.9147 9.52539 18.4566 9.52539 17.8934C9.52539 17.3302 9.96274 16.872 10.5003 16.872C11.0379 16.872 11.4753 17.3302 11.4753 17.8934C11.4753 18.4566 11.0379 18.9147 10.5003 18.9147Z" fill="#424242"/>
<path d="M6.27344 0.5V22.5H14.7241V0.5H6.27344ZM13.4937 7.56875H12.6907V8.85781H13.4937V10.4052H12.6907V11.6943H13.4937V13.2417H12.6907V14.5308H13.4937V21.2109H7.50391V14.5308H8.30695V13.2417H7.50391V11.6943H8.30695V10.4052H7.50391V8.85781H8.30695V7.56875H7.50391V6.02131H8.30695V4.73225H7.50391V1.78906H13.4936V4.73225H12.6907V6.02131H13.4937V7.56875Z" fill="#424242"/>
</g>
<defs>
<clipPath id="clip0">
<rect width="21" height="22" fill="white" transform="translate(0 0.5)"/>
</clipPath>
</defs>
</svg>
