<svg width="23" height="23" viewBox="0 0 23 23" fill="none" xmlns="http://www.w3.org/2000/svg">
<g clip-path="url(#clip0)">
<path d="M5.44852 0.695343C3.53192 0.695343 1.97266 2.29564 1.97266 4.26267C1.97266 6.22971 3.53192 7.82996 5.44852 7.82996C7.36511 7.82996 8.92437 6.22966 8.92437 4.26267C8.92437 2.29568 7.36511 0.695343 5.44852 0.695343Z" fill="#424242"/>
<path d="M10.489 9.80577C10.3645 9.61656 10.1565 9.50308 9.93403 9.50308H0.962633C0.74015 9.50308 0.532156 9.61651 0.40763 9.80577C0.283105 9.99498 0.258331 10.2354 0.341538 10.4472L4.82721 21.8738C4.92933 22.1339 5.1751 22.3043 5.44831 22.3043C5.72152 22.3043 5.96733 22.1339 6.0694 21.8738L10.5551 10.4471C10.6382 10.2353 10.6135 9.99498 10.489 9.80577Z" fill="#424242"/>
<path d="M17.55 0.695312C15.6334 0.695312 14.0742 2.29561 14.0742 4.26264C14.0742 6.22968 15.6335 7.82993 17.55 7.82993C19.4666 7.82993 21.0259 6.22963 21.0259 4.26264C21.0259 2.29565 19.4666 0.695312 17.55 0.695312Z" fill="#424242"/>
<path d="M22.6566 21.3611L18.1709 9.93435C18.0688 9.67425 17.823 9.50391 17.5498 9.50391C17.2766 9.50391 17.0309 9.67425 16.9287 9.93435L12.4431 21.3611C12.3599 21.5729 12.3847 21.8132 12.5092 22.0024C12.6337 22.1917 12.8416 22.3051 13.0642 22.3051H22.0355C22.258 22.3051 22.466 22.1917 22.5905 22.0024C22.715 21.8132 22.7398 21.5729 22.6566 21.3611Z" fill="#424242"/>
</g>
<defs>
<clipPath id="clip0">
<rect width="22.4103" height="23" fill="white" transform="translate(0.292969)"/>
</clipPath>
</defs>
</svg>
