<svg width="15" height="16" viewBox="0 0 15 16" fill="none" xmlns="http://www.w3.org/2000/svg">
<g clip-path="url(#clip0)">
<path d="M3.45152 0.483643C2.16867 0.483643 1.125 1.59689 1.125 2.96526C1.125 4.33363 2.16867 5.44685 3.45152 5.44685C4.73437 5.44685 5.77804 4.3336 5.77804 2.96526C5.77804 1.59692 4.73437 0.483643 3.45152 0.483643Z" fill="#9F9F9F"/>
<path d="M6.82457 6.81994C6.74122 6.68831 6.60203 6.60938 6.45311 6.60938H0.448231C0.299315 6.60938 0.160097 6.68828 0.0767471 6.81994C-0.00660236 6.95156 -0.0231844 7.11878 0.0325089 7.26612L3.03493 15.2151C3.10328 15.396 3.26779 15.5145 3.45066 15.5145C3.63353 15.5145 3.79806 15.396 3.86638 15.2151L6.8688 7.26609C6.92447 7.11875 6.90789 6.95156 6.82457 6.81994Z" fill="#9F9F9F"/>
<path d="M11.5491 0.484375C10.2663 0.484375 9.22266 1.59762 9.22266 2.966C9.22266 4.33437 10.2663 5.44758 11.5491 5.44758C12.832 5.44758 13.8757 4.33434 13.8757 2.966C13.8756 1.59765 12.832 0.484375 11.5491 0.484375Z" fill="#9F9F9F"/>
<path d="M14.9703 14.8617L11.9679 6.91272C11.8996 6.73178 11.7351 6.61328 11.5522 6.61328C11.3693 6.61328 11.2048 6.73178 11.1365 6.91272L8.13405 14.8617C8.07839 15.0091 8.09497 15.1763 8.17829 15.3079C8.26164 15.4396 8.40083 15.5185 8.54977 15.5185H14.5546C14.7035 15.5185 14.8428 15.4396 14.9261 15.3079C15.0095 15.1763 15.026 15.0091 14.9703 14.8617Z" fill="#9F9F9F"/>
</g>
<defs>
<clipPath id="clip0">
<rect width="15" height="16" fill="white"/>
</clipPath>
</defs>
</svg>
