<svg width="397" height="160" viewBox="0 0 397 160" fill="none" xmlns="http://www.w3.org/2000/svg">
<rect width="397" height="160" rx="14" fill="#2763BD"/>
<path d="M48.876 42H43.404V29.994H48.75C49.782 29.994 50.598 30.276 51.198 30.84C51.81 31.404 52.116 32.142 52.116 33.054C52.116 33.774 51.912 34.386 51.504 34.89C51.096 35.382 50.598 35.688 50.01 35.808C50.646 35.904 51.192 36.24 51.648 36.816C52.116 37.392 52.35 38.04 52.35 38.76C52.35 39.732 52.038 40.518 51.414 41.118C50.802 41.706 49.956 42 48.876 42ZM48.498 35.196C49.158 35.196 49.668 35.016 50.028 34.656C50.388 34.296 50.568 33.834 50.568 33.27C50.568 32.706 50.382 32.244 50.01 31.884C49.65 31.512 49.146 31.326 48.498 31.326H44.898V35.196H48.498ZM48.57 40.668C49.266 40.668 49.812 40.482 50.208 40.11C50.604 39.738 50.802 39.234 50.802 38.598C50.802 38.01 50.604 37.518 50.208 37.122C49.824 36.726 49.278 36.528 48.57 36.528H44.898V40.668H48.57ZM63.5949 42.216C62.3709 42.216 61.3929 41.706 60.6609 40.686V45.312H59.3109V33.306H60.6609V34.602C60.9849 34.146 61.4049 33.78 61.9209 33.504C62.4369 33.228 62.9949 33.09 63.5949 33.09C64.7469 33.09 65.6769 33.504 66.3849 34.332C67.1049 35.148 67.4649 36.252 67.4649 37.644C67.4649 39.036 67.1049 40.146 66.3849 40.974C65.6769 41.802 64.7469 42.216 63.5949 42.216ZM63.2529 41.01C64.1049 41.01 64.7829 40.698 65.2869 40.074C65.7909 39.438 66.0429 38.628 66.0429 37.644C66.0429 36.66 65.7909 35.856 65.2869 35.232C64.7829 34.608 64.1049 34.296 63.2529 34.296C62.7369 34.296 62.2329 34.434 61.7409 34.71C61.2609 34.974 60.9009 35.298 60.6609 35.682V39.606C60.9009 40.002 61.2609 40.338 61.7409 40.614C62.2329 40.878 62.7369 41.01 63.2529 41.01ZM73.5357 42.216C72.2397 42.216 71.1777 41.796 70.3497 40.956C69.5217 40.104 69.1077 39 69.1077 37.644C69.1077 36.372 69.5157 35.298 70.3317 34.422C71.1477 33.534 72.1677 33.09 73.3917 33.09C74.6757 33.09 75.6897 33.534 76.4337 34.422C77.1897 35.298 77.5677 36.408 77.5677 37.752V38.094H70.5297C70.5897 38.946 70.9017 39.66 71.4657 40.236C72.0297 40.812 72.7617 41.1 73.6617 41.1C74.7417 41.1 75.6357 40.734 76.3437 40.002L76.9917 40.884C76.1037 41.772 74.9517 42.216 73.5357 42.216ZM76.2357 37.104C76.2237 36.36 75.9717 35.694 75.4797 35.106C74.9877 34.506 74.2857 34.206 73.3737 34.206C72.5097 34.206 71.8257 34.5 71.3217 35.088C70.8297 35.676 70.5657 36.348 70.5297 37.104H76.2357ZM87.4043 42H85.6763L82.5443 38.094L81.1043 39.516V42H79.7543V33.306H81.1043V37.932L85.6763 33.306H87.3863L83.5343 37.248L87.4043 42ZM87.9744 42.216V41.1C88.3824 41.1 88.7184 40.83 88.9824 40.29C89.2464 39.75 89.4624 38.85 89.6304 37.59L90.1884 33.306H96.2364V42H94.8864V34.494H91.3764L90.9804 37.752C90.7884 39.348 90.4524 40.494 89.9724 41.19C89.4924 41.874 88.8264 42.216 87.9744 42.216ZM105.718 42H104.368V41.01C103.636 41.814 102.676 42.216 101.488 42.216C100.684 42.216 99.976 41.958 99.364 41.442C98.752 40.926 98.446 40.224 98.446 39.336C98.446 38.424 98.746 37.722 99.346 37.23C99.958 36.726 100.672 36.474 101.488 36.474C102.724 36.474 103.684 36.87 104.368 37.662V36.096C104.368 35.52 104.164 35.07 103.756 34.746C103.348 34.422 102.82 34.26 102.172 34.26C101.152 34.26 100.264 34.662 99.508 35.466L98.878 34.53C99.802 33.57 100.96 33.09 102.352 33.09C103.348 33.09 104.158 33.33 104.782 33.81C105.406 34.29 105.718 35.028 105.718 36.024V42ZM101.974 41.244C103.054 41.244 103.852 40.884 104.368 40.164V38.526C103.852 37.806 103.054 37.446 101.974 37.446C101.35 37.446 100.834 37.626 100.426 37.986C100.03 38.334 99.832 38.79 99.832 39.354C99.832 39.906 100.03 40.362 100.426 40.722C100.834 41.07 101.35 41.244 101.974 41.244ZM117.298 42H115.948V35.178L113.122 42H112.618L109.774 35.178V42H108.424V33.306H110.206L112.87 39.75L115.498 33.306H117.298V42ZM121.341 42H119.991V33.306H121.341V36.924H125.877V33.306H127.227V42H125.877V38.112H121.341V42ZM129.922 33.306H131.272V36.672H134.53C135.394 36.672 136.066 36.93 136.546 37.446C137.026 37.95 137.266 38.58 137.266 39.336C137.266 40.092 137.02 40.728 136.528 41.244C136.048 41.748 135.382 42 134.53 42H129.922V33.306ZM134.386 37.86H131.272V40.812H134.386C134.866 40.812 135.232 40.68 135.484 40.416C135.748 40.14 135.88 39.78 135.88 39.336C135.88 38.892 135.748 38.538 135.484 38.274C135.232 37.998 134.866 37.86 134.386 37.86ZM140.038 42H138.688V33.306H140.038V42ZM149.937 42H148.371L145.761 38.436L143.151 42H141.603L144.933 37.536L141.783 33.306H143.349L145.761 36.618L148.173 33.306H149.739L146.589 37.536L149.937 42ZM157.481 42H156.131V33.306H157.481V36.924H162.017V33.306H163.367V42H162.017V38.112H157.481V42ZM172.975 40.902C172.195 41.778 171.157 42.216 169.861 42.216C168.565 42.216 167.521 41.778 166.729 40.902C165.949 40.026 165.559 38.94 165.559 37.644C165.559 36.348 165.949 35.268 166.729 34.404C167.521 33.528 168.565 33.09 169.861 33.09C171.157 33.09 172.195 33.528 172.975 34.404C173.767 35.268 174.163 36.348 174.163 37.644C174.163 38.94 173.767 40.026 172.975 40.902ZM167.737 40.038C168.265 40.686 168.973 41.01 169.861 41.01C170.749 41.01 171.451 40.686 171.967 40.038C172.483 39.378 172.741 38.58 172.741 37.644C172.741 36.708 172.483 35.916 171.967 35.268C171.451 34.62 170.749 34.296 169.861 34.296C168.973 34.296 168.265 34.626 167.737 35.286C167.221 35.934 166.963 36.72 166.963 37.644C166.963 38.58 167.221 39.378 167.737 40.038ZM180.198 42.216C178.914 42.216 177.87 41.784 177.066 40.92C176.262 40.044 175.86 38.952 175.86 37.644C175.86 36.336 176.262 35.25 177.066 34.386C177.87 33.522 178.914 33.09 180.198 33.09C181.542 33.09 182.604 33.594 183.384 34.602L182.484 35.43C181.932 34.674 181.194 34.296 180.27 34.296C179.358 34.296 178.626 34.608 178.074 35.232C177.534 35.856 177.264 36.66 177.264 37.644C177.264 38.628 177.534 39.438 178.074 40.074C178.626 40.698 179.358 41.01 180.27 41.01C181.182 41.01 181.92 40.632 182.484 39.876L183.384 40.704C182.604 41.712 181.542 42.216 180.198 42.216ZM186.572 42H185.276V33.306H186.626V39.948L191.18 33.306H192.512V42H191.162V35.232L186.572 42ZM198.141 42H196.791V34.494H194.271V33.306H200.679V34.494H198.141V42ZM206.374 42.216C205.078 42.216 204.016 41.796 203.188 40.956C202.36 40.104 201.946 39 201.946 37.644C201.946 36.372 202.354 35.298 203.17 34.422C203.986 33.534 205.006 33.09 206.23 33.09C207.514 33.09 208.528 33.534 209.272 34.422C210.028 35.298 210.406 36.408 210.406 37.752V38.094H203.368C203.428 38.946 203.74 39.66 204.304 40.236C204.868 40.812 205.6 41.1 206.5 41.1C207.58 41.1 208.474 40.734 209.182 40.002L209.83 40.884C208.942 41.772 207.79 42.216 206.374 42.216ZM209.074 37.104C209.062 36.36 208.81 35.694 208.318 35.106C207.826 34.506 207.124 34.206 206.212 34.206C205.348 34.206 204.664 34.5 204.16 35.088C203.668 35.676 203.404 36.348 203.368 37.104H209.074ZM211.566 42.216V41.1C211.974 41.1 212.31 40.83 212.574 40.29C212.838 39.75 213.054 38.85 213.222 37.59L213.78 33.306H219.828V42H218.478V34.494H214.968L214.572 37.752C214.38 39.348 214.044 40.494 213.564 41.19C213.084 41.874 212.418 42.216 211.566 42.216ZM223.82 42H222.236L224.558 38.58C223.898 38.496 223.358 38.22 222.938 37.752C222.53 37.284 222.326 36.69 222.326 35.97C222.326 35.202 222.572 34.566 223.064 34.062C223.556 33.558 224.228 33.306 225.08 33.306H229.67V42H228.32V38.634H225.944L223.82 42ZM225.224 37.446H228.32V34.494H225.224C224.756 34.494 224.384 34.632 224.108 34.908C223.844 35.172 223.712 35.526 223.712 35.97C223.712 36.414 223.844 36.774 224.108 37.05C224.372 37.314 224.744 37.446 225.224 37.446ZM239.568 42H238.002L235.392 38.436L232.782 42H231.234L234.564 37.536L231.414 33.306H232.98L235.392 36.618L237.804 33.306H239.37L236.22 37.536L239.568 42ZM245.276 45.402L245.492 44.178C245.708 44.274 245.954 44.322 246.23 44.322C246.542 44.322 246.8 44.256 247.004 44.124C247.208 43.992 247.382 43.752 247.526 43.404L248.102 42.09L244.466 33.306H245.924L248.822 40.434L251.702 33.306H253.178L248.822 43.764C248.342 44.916 247.49 45.504 246.266 45.528C245.906 45.528 245.576 45.486 245.276 45.402ZM261.822 42H260.472V34.494H255.936V42H254.586V33.306H261.822V42ZM271.43 40.902C270.65 41.778 269.612 42.216 268.316 42.216C267.02 42.216 265.976 41.778 265.184 40.902C264.404 40.026 264.014 38.94 264.014 37.644C264.014 36.348 264.404 35.268 265.184 34.404C265.976 33.528 267.02 33.09 268.316 33.09C269.612 33.09 270.65 33.528 271.43 34.404C272.222 35.268 272.618 36.348 272.618 37.644C272.618 38.94 272.222 40.026 271.43 40.902ZM266.192 40.038C266.72 40.686 267.428 41.01 268.316 41.01C269.204 41.01 269.906 40.686 270.422 40.038C270.938 39.378 271.196 38.58 271.196 37.644C271.196 36.708 270.938 35.916 270.422 35.268C269.906 34.62 269.204 34.296 268.316 34.296C267.428 34.296 266.72 34.626 266.192 35.286C265.676 35.934 265.418 36.72 265.418 37.644C265.418 38.58 265.676 39.378 266.192 40.038ZM277.753 42H276.403V34.494H273.883V33.306H280.291V34.494H277.753V42ZM286.345 42.216C285.121 42.216 284.143 41.706 283.411 40.686V45.312H282.061V33.306H283.411V34.602C283.735 34.146 284.155 33.78 284.671 33.504C285.187 33.228 285.745 33.09 286.345 33.09C287.497 33.09 288.427 33.504 289.135 34.332C289.855 35.148 290.215 36.252 290.215 37.644C290.215 39.036 289.855 40.146 289.135 40.974C288.427 41.802 287.497 42.216 286.345 42.216ZM286.003 41.01C286.855 41.01 287.533 40.698 288.037 40.074C288.541 39.438 288.793 38.628 288.793 37.644C288.793 36.66 288.541 35.856 288.037 35.232C287.533 34.608 286.855 34.296 286.003 34.296C285.487 34.296 284.983 34.434 284.491 34.71C284.011 34.974 283.651 35.298 283.411 35.682V39.606C283.651 40.002 284.011 40.338 284.491 40.614C284.983 40.878 285.487 41.01 286.003 41.01ZM296.286 42.216C294.99 42.216 293.928 41.796 293.1 40.956C292.272 40.104 291.858 39 291.858 37.644C291.858 36.372 292.266 35.298 293.082 34.422C293.898 33.534 294.918 33.09 296.142 33.09C297.426 33.09 298.44 33.534 299.184 34.422C299.94 35.298 300.318 36.408 300.318 37.752V38.094H293.28C293.34 38.946 293.652 39.66 294.216 40.236C294.78 40.812 295.512 41.1 296.412 41.1C297.492 41.1 298.386 40.734 299.094 40.002L299.742 40.884C298.854 41.772 297.702 42.216 296.286 42.216ZM298.986 37.104C298.974 36.36 298.722 35.694 298.23 35.106C297.738 34.506 297.036 34.206 296.124 34.206C295.26 34.206 294.576 34.5 294.072 35.088C293.58 35.676 293.316 36.348 293.28 37.104H298.986ZM304.178 40.038C304.706 40.686 305.414 41.01 306.302 41.01C307.19 41.01 307.892 40.686 308.408 40.038C308.924 39.378 309.182 38.574 309.182 37.626C309.182 36.702 308.924 35.916 308.408 35.268C307.892 34.62 307.19 34.296 306.302 34.296C305.414 34.296 304.706 34.62 304.178 35.268C303.662 35.916 303.404 36.702 303.404 37.626C303.404 38.574 303.662 39.378 304.178 40.038ZM306.302 42.216C304.994 42.216 303.95 41.754 303.17 40.83C302.39 39.906 302 38.712 302 37.248C302 35.184 302.372 33.66 303.116 32.676C303.86 31.68 305.006 31.08 306.554 30.876C307.478 30.732 308.114 30.594 308.462 30.462C308.822 30.33 309.002 30.174 309.002 29.994H310.316C310.316 30.33 310.214 30.624 310.01 30.876C309.806 31.116 309.512 31.308 309.128 31.452C308.756 31.596 308.402 31.71 308.066 31.794C307.742 31.866 307.352 31.932 306.896 31.992C305.696 32.16 304.826 32.49 304.286 32.982C303.758 33.474 303.41 34.128 303.242 34.944C304.034 33.708 305.126 33.09 306.518 33.09C307.718 33.09 308.696 33.528 309.452 34.404C310.208 35.28 310.586 36.354 310.586 37.626C310.586 38.922 310.196 40.014 309.416 40.902C308.636 41.778 307.598 42.216 306.302 42.216ZM311.867 42.216V41.1C312.275 41.1 312.611 40.83 312.875 40.29C313.139 39.75 313.355 38.85 313.523 37.59L314.081 33.306H320.129V42H318.779V34.494H315.269L314.873 37.752C314.681 39.348 314.345 40.494 313.865 41.19C313.385 41.874 312.719 42.216 311.867 42.216ZM324.121 42H322.537L324.859 38.58C324.199 38.496 323.659 38.22 323.239 37.752C322.831 37.284 322.627 36.69 322.627 35.97C322.627 35.202 322.873 34.566 323.365 34.062C323.857 33.558 324.529 33.306 325.381 33.306H329.971V42H328.621V38.634H326.245L324.121 42ZM325.525 37.446H328.621V34.494H325.525C325.057 34.494 324.685 34.632 324.409 34.908C324.145 35.172 324.013 35.526 324.013 35.97C324.013 36.414 324.145 36.774 324.409 37.05C324.673 37.314 325.045 37.446 325.525 37.446ZM336.592 42.216C335.296 42.216 334.234 41.796 333.406 40.956C332.578 40.104 332.164 39 332.164 37.644C332.164 36.372 332.572 35.298 333.388 34.422C334.204 33.534 335.224 33.09 336.448 33.09C337.732 33.09 338.746 33.534 339.49 34.422C340.246 35.298 340.624 36.408 340.624 37.752V38.094H333.586C333.646 38.946 333.958 39.66 334.522 40.236C335.086 40.812 335.818 41.1 336.718 41.1C337.798 41.1 338.692 40.734 339.4 40.002L340.048 40.884C339.16 41.772 338.008 42.216 336.592 42.216ZM339.292 37.104C339.28 36.36 339.028 35.694 338.536 35.106C338.044 34.506 337.342 34.206 336.43 34.206C335.566 34.206 334.882 34.5 334.378 35.088C333.886 35.676 333.622 36.348 333.586 37.104H339.292ZM351.685 42H350.335V35.178L347.509 42H347.005L344.161 35.178V42H342.811V33.306H344.593L347.257 39.75L349.885 33.306H351.685V42ZM50.244 66.214V64H43.35V55.306H44.7V62.812H49.236V55.306H50.586V62.812H51.594V66.214H50.244ZM54.7358 64H53.4398V55.306H54.7898V61.948L59.3438 55.306H60.6758V64H59.3258V57.232L54.7358 64ZM66.3055 64H64.9555V56.494H62.4355V55.306H68.8435V56.494H66.3055V64ZM77.3997 64H76.0497V63.01C75.3177 63.814 74.3577 64.216 73.1697 64.216C72.3657 64.216 71.6577 63.958 71.0457 63.442C70.4337 62.926 70.1277 62.224 70.1277 61.336C70.1277 60.424 70.4277 59.722 71.0277 59.23C71.6397 58.726 72.3537 58.474 73.1697 58.474C74.4057 58.474 75.3657 58.87 76.0497 59.662V58.096C76.0497 57.52 75.8457 57.07 75.4377 56.746C75.0297 56.422 74.5017 56.26 73.8537 56.26C72.8337 56.26 71.9457 56.662 71.1897 57.466L70.5597 56.53C71.4837 55.57 72.6417 55.09 74.0337 55.09C75.0297 55.09 75.8397 55.33 76.4637 55.81C77.0877 56.29 77.3997 57.028 77.3997 58.024V64ZM73.6557 63.244C74.7357 63.244 75.5337 62.884 76.0497 62.164V60.526C75.5337 59.806 74.7357 59.446 73.6557 59.446C73.0317 59.446 72.5157 59.626 72.1077 59.986C71.7117 60.334 71.5137 60.79 71.5137 61.354C71.5137 61.906 71.7117 62.362 72.1077 62.722C72.5157 63.07 73.0317 63.244 73.6557 63.244ZM83.0399 64H81.6899V56.494H79.1699V55.306H85.5779V56.494H83.0399V64ZM87.348 55.306H88.698V58.672H91.956C92.82 58.672 93.492 58.93 93.972 59.446C94.452 59.95 94.692 60.58 94.692 61.336C94.692 62.092 94.446 62.728 93.954 63.244C93.474 63.748 92.808 64 91.956 64H87.348V55.306ZM91.812 59.86H88.698V62.812H91.812C92.292 62.812 92.658 62.68 92.91 62.416C93.174 62.14 93.306 61.78 93.306 61.336C93.306 60.892 93.174 60.538 92.91 60.274C92.658 59.998 92.292 59.86 91.812 59.86ZM97.464 64H96.114V55.306H97.464V64ZM106.099 64H104.803V55.306H106.153V61.948L110.707 55.306H112.039V64H110.689V57.232L106.099 64ZM117.813 64.216C116.145 64.216 114.837 63.742 113.889 62.794L114.555 61.93C115.371 62.71 116.457 63.1 117.813 63.1C118.593 63.1 119.211 62.962 119.667 62.686C120.135 62.41 120.369 62.044 120.369 61.588C120.369 60.628 119.457 60.148 117.633 60.148H115.689V59.05H117.633C118.389 59.05 119.007 58.93 119.487 58.69C119.967 58.438 120.207 58.072 120.207 57.592C120.207 57.184 119.967 56.854 119.487 56.602C119.007 56.338 118.401 56.206 117.669 56.206C116.457 56.206 115.485 56.578 114.753 57.322L114.051 56.494C114.951 55.57 116.139 55.108 117.615 55.108C118.803 55.096 119.763 55.3 120.495 55.72C121.239 56.128 121.611 56.698 121.611 57.43C121.611 58.03 121.365 58.516 120.873 58.888C120.393 59.26 119.859 59.482 119.271 59.554C119.883 59.602 120.453 59.806 120.981 60.166C121.521 60.526 121.791 61.03 121.791 61.678C121.791 62.422 121.431 63.034 120.711 63.514C120.003 63.982 119.037 64.216 117.813 64.216ZM128.859 64H123.981V55.306H128.769C129.525 55.306 130.119 55.51 130.551 55.918C130.995 56.326 131.217 56.866 131.217 57.538C131.217 58.03 131.079 58.456 130.803 58.816C130.539 59.164 130.209 59.398 129.813 59.518C130.257 59.626 130.629 59.884 130.929 60.292C131.241 60.7 131.397 61.15 131.397 61.642C131.397 62.35 131.169 62.92 130.713 63.352C130.269 63.784 129.651 64 128.859 64ZM128.589 62.812C129.021 62.812 129.363 62.692 129.615 62.452C129.867 62.212 129.993 61.888 129.993 61.48C129.993 61.108 129.867 60.79 129.615 60.526C129.363 60.262 129.021 60.13 128.589 60.13H125.331V62.812H128.589ZM128.535 58.942C128.943 58.942 129.261 58.834 129.489 58.618C129.717 58.39 129.831 58.096 129.831 57.736C129.831 57.352 129.717 57.052 129.489 56.836C129.261 56.608 128.943 56.494 128.535 56.494H125.331V58.942H128.535ZM137.872 64.216C136.576 64.216 135.514 63.796 134.686 62.956C133.858 62.104 133.444 61 133.444 59.644C133.444 58.372 133.852 57.298 134.668 56.422C135.484 55.534 136.504 55.09 137.728 55.09C139.012 55.09 140.026 55.534 140.77 56.422C141.526 57.298 141.904 58.408 141.904 59.752V60.094H134.866C134.926 60.946 135.238 61.66 135.802 62.236C136.366 62.812 137.098 63.1 137.998 63.1C139.078 63.1 139.972 62.734 140.68 62.002L141.328 62.884C140.44 63.772 139.288 64.216 137.872 64.216ZM140.572 59.104C140.56 58.36 140.308 57.694 139.816 57.106C139.324 56.506 138.622 56.206 137.71 56.206C136.846 56.206 136.162 56.5 135.658 57.088C135.166 57.676 134.902 58.348 134.866 59.104H140.572ZM147.924 64.216C146.64 64.216 145.596 63.784 144.792 62.92C143.988 62.044 143.586 60.952 143.586 59.644C143.586 58.336 143.988 57.25 144.792 56.386C145.596 55.522 146.64 55.09 147.924 55.09C149.268 55.09 150.33 55.594 151.11 56.602L150.21 57.43C149.658 56.674 148.92 56.296 147.996 56.296C147.084 56.296 146.352 56.608 145.8 57.232C145.26 57.856 144.99 58.66 144.99 59.644C144.99 60.628 145.26 61.438 145.8 62.074C146.352 62.698 147.084 63.01 147.996 63.01C148.908 63.01 149.646 62.632 150.21 61.876L151.11 62.704C150.33 63.712 149.268 64.216 147.924 64.216ZM155.936 64H154.586V56.494H152.066V55.306H158.474V56.494H155.936V64ZM161.595 64H160.245V55.306H161.595V58.924H166.131V55.306H167.481V64H166.131V60.112H161.595V64ZM170.176 55.306H171.526V58.672H174.784C175.648 58.672 176.32 58.93 176.8 59.446C177.28 59.95 177.52 60.58 177.52 61.336C177.52 62.092 177.274 62.728 176.782 63.244C176.302 63.748 175.636 64 174.784 64H170.176V55.306ZM174.64 59.86H171.526V62.812H174.64C175.12 62.812 175.486 62.68 175.738 62.416C176.002 62.14 176.134 61.78 176.134 61.336C176.134 60.892 176.002 60.538 175.738 60.274C175.486 59.998 175.12 59.86 174.64 59.86ZM180.292 64H178.942V55.306H180.292V64ZM190.191 64H188.625L186.015 60.436L183.405 64H181.857L185.187 59.536L182.037 55.306H183.603L186.015 58.618L188.427 55.306H189.993L186.843 59.536L190.191 64ZM200.219 64.216C198.935 64.216 197.891 63.784 197.087 62.92C196.283 62.044 195.881 60.952 195.881 59.644C195.881 58.336 196.283 57.25 197.087 56.386C197.891 55.522 198.935 55.09 200.219 55.09C201.563 55.09 202.625 55.594 203.405 56.602L202.505 57.43C201.953 56.674 201.215 56.296 200.291 56.296C199.379 56.296 198.647 56.608 198.095 57.232C197.555 57.856 197.285 58.66 197.285 59.644C197.285 60.628 197.555 61.438 198.095 62.074C198.647 62.698 199.379 63.01 200.291 63.01C201.203 63.01 201.941 62.632 202.505 61.876L203.405 62.704C202.625 63.712 201.563 64.216 200.219 64.216ZM209.221 64.216C207.925 64.216 206.863 63.796 206.035 62.956C205.207 62.104 204.793 61 204.793 59.644C204.793 58.372 205.201 57.298 206.017 56.422C206.833 55.534 207.853 55.09 209.077 55.09C210.361 55.09 211.375 55.534 212.119 56.422C212.875 57.298 213.253 58.408 213.253 59.752V60.094H206.215C206.275 60.946 206.587 61.66 207.151 62.236C207.715 62.812 208.447 63.1 209.347 63.1C210.427 63.1 211.321 62.734 212.029 62.002L212.677 62.884C211.789 63.772 210.637 64.216 209.221 64.216ZM211.921 59.104C211.909 58.36 211.657 57.694 211.165 57.106C210.673 56.506 209.971 56.206 209.059 56.206C208.195 56.206 207.511 56.5 207.007 57.088C206.515 57.676 206.251 58.348 206.215 59.104H211.921ZM219.724 64.216C218.5 64.216 217.522 63.706 216.79 62.686V67.312H215.44V55.306H216.79V56.602C217.114 56.146 217.534 55.78 218.05 55.504C218.566 55.228 219.124 55.09 219.724 55.09C220.876 55.09 221.806 55.504 222.514 56.332C223.234 57.148 223.594 58.252 223.594 59.644C223.594 61.036 223.234 62.146 222.514 62.974C221.806 63.802 220.876 64.216 219.724 64.216ZM219.382 63.01C220.234 63.01 220.912 62.698 221.416 62.074C221.92 61.438 222.172 60.628 222.172 59.644C222.172 58.66 221.92 57.856 221.416 57.232C220.912 56.608 220.234 56.296 219.382 56.296C218.866 56.296 218.362 56.434 217.87 56.71C217.39 56.974 217.03 57.298 216.79 57.682V61.606C217.03 62.002 217.39 62.338 217.87 62.614C218.362 62.878 218.866 63.01 219.382 63.01ZM228.531 55.09C229.515 55.09 230.307 55.6 230.907 56.62V51.994H232.257V56.602C232.521 56.146 232.857 55.78 233.265 55.504C233.685 55.228 234.135 55.09 234.615 55.09C235.551 55.09 236.307 55.504 236.883 56.332C237.459 57.148 237.747 58.252 237.747 59.644C237.747 61.036 237.453 62.146 236.865 62.974C236.289 63.802 235.539 64.216 234.615 64.216C233.631 64.216 232.845 63.706 232.257 62.686V67.312H230.907V62.704C230.643 63.16 230.301 63.526 229.881 63.802C229.461 64.078 229.011 64.216 228.531 64.216C227.595 64.216 226.839 63.808 226.263 62.992C225.687 62.164 225.399 61.054 225.399 59.662C225.399 58.27 225.687 57.16 226.263 56.332C226.851 55.504 227.607 55.09 228.531 55.09ZM228.909 56.296C228.249 56.296 227.727 56.614 227.343 57.25C226.959 57.874 226.767 58.678 226.767 59.662C226.767 60.646 226.959 61.45 227.343 62.074C227.727 62.698 228.249 63.01 228.909 63.01C229.317 63.01 229.707 62.878 230.079 62.614C230.451 62.35 230.727 62.02 230.907 61.624V57.7C230.715 57.304 230.433 56.974 230.061 56.71C229.689 56.434 229.305 56.296 228.909 56.296ZM234.237 63.01C234.897 63.01 235.419 62.698 235.803 62.074C236.187 61.438 236.379 60.628 236.379 59.644C236.379 58.66 236.187 57.856 235.803 57.232C235.419 56.608 234.897 56.296 234.237 56.296C233.841 56.296 233.457 56.434 233.085 56.71C232.713 56.974 232.437 57.298 232.257 57.682V61.606C232.449 62.002 232.725 62.338 233.085 62.614C233.457 62.878 233.841 63.01 234.237 63.01ZM244.026 64.216C242.73 64.216 241.668 63.796 240.84 62.956C240.012 62.104 239.598 61 239.598 59.644C239.598 58.372 240.006 57.298 240.822 56.422C241.638 55.534 242.658 55.09 243.882 55.09C245.166 55.09 246.18 55.534 246.924 56.422C247.68 57.298 248.058 58.408 248.058 59.752V60.094H241.02C241.08 60.946 241.392 61.66 241.956 62.236C242.52 62.812 243.252 63.1 244.152 63.1C245.232 63.1 246.126 62.734 246.834 62.002L247.482 62.884C246.594 63.772 245.442 64.216 244.026 64.216ZM246.726 59.104C246.714 58.36 246.462 57.694 245.97 57.106C245.478 56.506 244.776 56.206 243.864 56.206C243 56.206 242.316 56.5 241.812 57.088C241.32 57.676 241.056 58.348 241.02 59.104H246.726ZM254.529 64.216C253.305 64.216 252.327 63.706 251.595 62.686V67.312H250.245V55.306H251.595V56.602C251.919 56.146 252.339 55.78 252.855 55.504C253.371 55.228 253.929 55.09 254.529 55.09C255.681 55.09 256.611 55.504 257.319 56.332C258.039 57.148 258.399 58.252 258.399 59.644C258.399 61.036 258.039 62.146 257.319 62.974C256.611 63.802 255.681 64.216 254.529 64.216ZM254.187 63.01C255.039 63.01 255.717 62.698 256.221 62.074C256.725 61.438 256.977 60.628 256.977 59.644C256.977 58.66 256.725 57.856 256.221 57.232C255.717 56.608 255.039 56.296 254.187 56.296C253.671 56.296 253.167 56.434 252.675 56.71C252.195 56.974 251.835 57.298 251.595 57.682V61.606C251.835 62.002 252.195 62.338 252.675 62.614C253.167 62.878 253.671 63.01 254.187 63.01ZM267.457 62.902C266.677 63.778 265.639 64.216 264.343 64.216C263.047 64.216 262.003 63.778 261.211 62.902C260.431 62.026 260.041 60.94 260.041 59.644C260.041 58.348 260.431 57.268 261.211 56.404C262.003 55.528 263.047 55.09 264.343 55.09C265.639 55.09 266.677 55.528 267.457 56.404C268.249 57.268 268.645 58.348 268.645 59.644C268.645 60.94 268.249 62.026 267.457 62.902ZM262.219 62.038C262.747 62.686 263.455 63.01 264.343 63.01C265.231 63.01 265.933 62.686 266.449 62.038C266.965 61.378 267.223 60.58 267.223 59.644C267.223 58.708 266.965 57.916 266.449 57.268C265.933 56.62 265.231 56.296 264.343 56.296C263.455 56.296 262.747 56.626 262.219 57.286C261.703 57.934 261.445 58.72 261.445 59.644C261.445 60.58 261.703 61.378 262.219 62.038ZM275.724 64H270.846V55.306H275.634C276.39 55.306 276.984 55.51 277.416 55.918C277.86 56.326 278.082 56.866 278.082 57.538C278.082 58.03 277.944 58.456 277.668 58.816C277.404 59.164 277.074 59.398 276.678 59.518C277.122 59.626 277.494 59.884 277.794 60.292C278.106 60.7 278.262 61.15 278.262 61.642C278.262 62.35 278.034 62.92 277.578 63.352C277.134 63.784 276.516 64 275.724 64ZM275.454 62.812C275.886 62.812 276.228 62.692 276.48 62.452C276.732 62.212 276.858 61.888 276.858 61.48C276.858 61.108 276.732 60.79 276.48 60.526C276.228 60.262 275.886 60.13 275.454 60.13H272.196V62.812H275.454ZM275.4 58.942C275.808 58.942 276.126 58.834 276.354 58.618C276.582 58.39 276.696 58.096 276.696 57.736C276.696 57.352 276.582 57.052 276.354 56.836C276.126 56.608 275.808 56.494 275.4 56.494H272.196V58.942H275.4ZM282.631 63.568C282.631 64.096 282.493 64.6 282.217 65.08C281.941 65.572 281.587 65.974 281.155 66.286L280.489 65.728C280.789 65.536 281.047 65.278 281.263 64.954C281.491 64.642 281.623 64.342 281.659 64.054C281.611 64.078 281.527 64.09 281.407 64.09C281.155 64.09 280.945 64.006 280.777 63.838C280.621 63.658 280.543 63.436 280.543 63.172C280.543 62.908 280.633 62.68 280.813 62.488C281.005 62.296 281.233 62.2 281.497 62.2C281.809 62.2 282.073 62.326 282.289 62.578C282.517 62.818 282.631 63.148 282.631 63.568ZM289.422 55.306H290.772V57.754C290.772 58.534 290.952 59.074 291.312 59.374C291.672 59.674 292.23 59.824 292.986 59.824C293.922 59.824 294.69 59.668 295.29 59.356V55.306H296.64V64H295.29V60.454C294.522 60.838 293.64 61.03 292.644 61.03C291.516 61.03 290.694 60.802 290.178 60.346C289.674 59.89 289.422 59.164 289.422 58.168V55.306ZM302.274 64H300.924V56.494H298.404V55.306H304.812V56.494H302.274V64ZM313.494 62.902C312.714 63.778 311.676 64.216 310.38 64.216C309.084 64.216 308.04 63.778 307.248 62.902C306.468 62.026 306.078 60.94 306.078 59.644C306.078 58.348 306.468 57.268 307.248 56.404C308.04 55.528 309.084 55.09 310.38 55.09C311.676 55.09 312.714 55.528 313.494 56.404C314.286 57.268 314.682 58.348 314.682 59.644C314.682 60.94 314.286 62.026 313.494 62.902ZM308.256 62.038C308.784 62.686 309.492 63.01 310.38 63.01C311.268 63.01 311.97 62.686 312.486 62.038C313.002 61.378 313.26 60.58 313.26 59.644C313.26 58.708 313.002 57.916 312.486 57.268C311.97 56.62 311.268 56.296 310.38 56.296C309.492 56.296 308.784 56.626 308.256 57.286C307.74 57.934 307.482 58.72 307.482 59.644C307.482 60.58 307.74 61.378 308.256 62.038ZM318.557 62.038C319.085 62.686 319.793 63.01 320.681 63.01C321.569 63.01 322.271 62.686 322.787 62.038C323.303 61.378 323.561 60.574 323.561 59.626C323.561 58.702 323.303 57.916 322.787 57.268C322.271 56.62 321.569 56.296 320.681 56.296C319.793 56.296 319.085 56.62 318.557 57.268C318.041 57.916 317.783 58.702 317.783 59.626C317.783 60.574 318.041 61.378 318.557 62.038ZM320.681 64.216C319.373 64.216 318.329 63.754 317.549 62.83C316.769 61.906 316.379 60.712 316.379 59.248C316.379 57.184 316.751 55.66 317.495 54.676C318.239 53.68 319.385 53.08 320.933 52.876C321.857 52.732 322.493 52.594 322.841 52.462C323.201 52.33 323.381 52.174 323.381 51.994H324.695C324.695 52.33 324.593 52.624 324.389 52.876C324.185 53.116 323.891 53.308 323.507 53.452C323.135 53.596 322.781 53.71 322.445 53.794C322.121 53.866 321.731 53.932 321.275 53.992C320.075 54.16 319.205 54.49 318.665 54.982C318.137 55.474 317.789 56.128 317.621 56.944C318.413 55.708 319.505 55.09 320.897 55.09C322.097 55.09 323.075 55.528 323.831 56.404C324.587 57.28 324.965 58.354 324.965 59.626C324.965 60.922 324.575 62.014 323.795 62.902C323.015 63.778 321.977 64.216 320.681 64.216ZM327.272 55.306H328.622V58.672H331.88C332.744 58.672 333.416 58.93 333.896 59.446C334.376 59.95 334.616 60.58 334.616 61.336C334.616 62.092 334.37 62.728 333.878 63.244C333.398 63.748 332.732 64 331.88 64H327.272V55.306ZM331.736 59.86H328.622V62.812H331.736C332.216 62.812 332.582 62.68 332.834 62.416C333.098 62.14 333.23 61.78 333.23 61.336C333.23 60.892 333.098 60.538 332.834 60.274C332.582 59.998 332.216 59.86 331.736 59.86ZM337.388 64H336.038V55.306H337.388V64ZM47.634 86.216C46.41 86.216 45.432 85.706 44.7 84.686V89.312H43.35V77.306H44.7V78.602C45.024 78.146 45.444 77.78 45.96 77.504C46.476 77.228 47.034 77.09 47.634 77.09C48.786 77.09 49.716 77.504 50.424 78.332C51.144 79.148 51.504 80.252 51.504 81.644C51.504 83.036 51.144 84.146 50.424 84.974C49.716 85.802 48.786 86.216 47.634 86.216ZM47.292 85.01C48.144 85.01 48.822 84.698 49.326 84.074C49.83 83.438 50.082 82.628 50.082 81.644C50.082 80.66 49.83 79.856 49.326 79.232C48.822 78.608 48.144 78.296 47.292 78.296C46.776 78.296 46.272 78.434 45.78 78.71C45.3 78.974 44.94 79.298 44.7 79.682V83.606C44.94 84.002 45.3 84.338 45.78 84.614C46.272 84.878 46.776 85.01 47.292 85.01ZM60.4368 86H59.0868V85.01C58.3548 85.814 57.3948 86.216 56.2068 86.216C55.4028 86.216 54.6948 85.958 54.0828 85.442C53.4708 84.926 53.1648 84.224 53.1648 83.336C53.1648 82.424 53.4648 81.722 54.0648 81.23C54.6768 80.726 55.3908 80.474 56.2068 80.474C57.4428 80.474 58.4028 80.87 59.0868 81.662V80.096C59.0868 79.52 58.8828 79.07 58.4748 78.746C58.0668 78.422 57.5388 78.26 56.8908 78.26C55.8708 78.26 54.9828 78.662 54.2268 79.466L53.5968 78.53C54.5208 77.57 55.6788 77.09 57.0708 77.09C58.0668 77.09 58.8768 77.33 59.5008 77.81C60.1248 78.29 60.4368 79.028 60.4368 80.024V86ZM56.6928 85.244C57.7728 85.244 58.5708 84.884 59.0868 84.164V82.526C58.5708 81.806 57.7728 81.446 56.6928 81.446C56.0688 81.446 55.5528 81.626 55.1448 81.986C54.7488 82.334 54.5508 82.79 54.5508 83.354C54.5508 83.906 54.7488 84.362 55.1448 84.722C55.5528 85.07 56.0688 85.244 56.6928 85.244ZM66.977 86.216C65.693 86.216 64.649 85.784 63.845 84.92C63.041 84.044 62.639 82.952 62.639 81.644C62.639 80.336 63.041 79.25 63.845 78.386C64.649 77.522 65.693 77.09 66.977 77.09C68.321 77.09 69.383 77.594 70.163 78.602L69.263 79.43C68.711 78.674 67.973 78.296 67.049 78.296C66.137 78.296 65.405 78.608 64.853 79.232C64.313 79.856 64.043 80.66 64.043 81.644C64.043 82.628 64.313 83.438 64.853 84.074C65.405 84.698 66.137 85.01 67.049 85.01C67.961 85.01 68.699 84.632 69.263 83.876L70.163 84.704C69.383 85.712 68.321 86.216 66.977 86.216ZM82.0991 77.306H83.4491V86H72.0551V77.306H73.4051V84.812H77.0771V77.306H78.4271V84.812H82.0991V77.306ZM87.4487 86H86.1527V77.306H87.5027V83.948L92.0567 77.306H93.3887V86H92.0387V79.232L87.4487 86ZM100.368 86.216C99.1444 86.216 98.1664 85.706 97.4344 84.686V89.312H96.0844V77.306H97.4344V78.602C97.7584 78.146 98.1784 77.78 98.6944 77.504C99.2104 77.228 99.7684 77.09 100.368 77.09C101.52 77.09 102.45 77.504 103.158 78.332C103.878 79.148 104.238 80.252 104.238 81.644C104.238 83.036 103.878 84.146 103.158 84.974C102.45 85.802 101.52 86.216 100.368 86.216ZM100.026 85.01C100.878 85.01 101.556 84.698 102.06 84.074C102.564 83.438 102.816 82.628 102.816 81.644C102.816 80.66 102.564 79.856 102.06 79.232C101.556 78.608 100.878 78.296 100.026 78.296C99.5104 78.296 99.0064 78.434 98.5144 78.71C98.0344 78.974 97.6744 79.298 97.4344 79.682V83.606C97.6744 84.002 98.0344 84.338 98.5144 84.614C99.0064 84.878 99.5104 85.01 100.026 85.01ZM107.681 86H106.097L108.419 82.58C107.759 82.496 107.219 82.22 106.799 81.752C106.391 81.284 106.187 80.69 106.187 79.97C106.187 79.202 106.433 78.566 106.925 78.062C107.417 77.558 108.089 77.306 108.941 77.306H113.531V86H112.181V82.634H109.805L107.681 86ZM109.085 81.446H112.181V78.494H109.085C108.617 78.494 108.245 78.632 107.969 78.908C107.705 79.172 107.573 79.526 107.573 79.97C107.573 80.414 107.705 80.774 107.969 81.05C108.233 81.314 108.605 81.446 109.085 81.446ZM119.163 86H117.813V78.494H115.293V77.306H121.701V78.494H119.163V86ZM123.471 77.306H124.821V80.672H128.079C128.943 80.672 129.615 80.93 130.095 81.446C130.575 81.95 130.815 82.58 130.815 83.336C130.815 84.092 130.569 84.728 130.077 85.244C129.597 85.748 128.931 86 128.079 86H123.471V77.306ZM127.935 81.86H124.821V84.812H127.935C128.415 84.812 128.781 84.68 129.033 84.416C129.297 84.14 129.429 83.78 129.429 83.336C129.429 82.892 129.297 82.538 129.033 82.274C128.781 81.998 128.415 81.86 127.935 81.86ZM145.166 86H143.438L140.306 82.094L138.866 83.516V86H137.516V77.306H138.866V81.932L143.438 77.306H145.148L141.296 81.248L145.166 86ZM151.046 86.216C149.822 86.216 148.844 85.706 148.112 84.686V89.312H146.762V77.306H148.112V78.602C148.436 78.146 148.856 77.78 149.372 77.504C149.888 77.228 150.446 77.09 151.046 77.09C152.198 77.09 153.128 77.504 153.836 78.332C154.556 79.148 154.916 80.252 154.916 81.644C154.916 83.036 154.556 84.146 153.836 84.974C153.128 85.802 152.198 86.216 151.046 86.216ZM150.704 85.01C151.556 85.01 152.234 84.698 152.738 84.074C153.242 83.438 153.494 82.628 153.494 81.644C153.494 80.66 153.242 79.856 152.738 79.232C152.234 78.608 151.556 78.296 150.704 78.296C150.188 78.296 149.684 78.434 149.192 78.71C148.712 78.974 148.352 79.298 148.112 79.682V83.606C148.352 84.002 148.712 84.338 149.192 84.614C149.684 84.878 150.188 85.01 150.704 85.01ZM156.577 89.402L156.793 88.178C157.009 88.274 157.255 88.322 157.531 88.322C157.843 88.322 158.101 88.256 158.305 88.124C158.509 87.992 158.683 87.752 158.827 87.404L159.403 86.09L155.767 77.306H157.225L160.123 84.434L163.003 77.306H164.479L160.123 87.764C159.643 88.916 158.791 89.504 157.567 89.528C157.207 89.528 156.877 89.486 156.577 89.402ZM171.971 77.306V78.494H167.237V86H165.887V77.306H171.971ZM180.639 84.902C179.859 85.778 178.821 86.216 177.525 86.216C176.229 86.216 175.185 85.778 174.393 84.902C173.613 84.026 173.223 82.94 173.223 81.644C173.223 80.348 173.613 79.268 174.393 78.404C175.185 77.528 176.229 77.09 177.525 77.09C178.821 77.09 179.859 77.528 180.639 78.404C181.431 79.268 181.827 80.348 181.827 81.644C181.827 82.94 181.431 84.026 180.639 84.902ZM175.401 84.038C175.929 84.686 176.637 85.01 177.525 85.01C178.413 85.01 179.115 84.686 179.631 84.038C180.147 83.378 180.405 82.58 180.405 81.644C180.405 80.708 180.147 79.916 179.631 79.268C179.115 78.62 178.413 78.296 177.525 78.296C176.637 78.296 175.929 78.626 175.401 79.286C174.885 79.934 174.627 80.72 174.627 81.644C174.627 82.58 174.885 83.378 175.401 84.038ZM187.106 86.216C185.438 86.216 184.13 85.742 183.182 84.794L183.848 83.93C184.664 84.71 185.75 85.1 187.106 85.1C187.886 85.1 188.504 84.962 188.96 84.686C189.428 84.41 189.662 84.044 189.662 83.588C189.662 82.628 188.75 82.148 186.926 82.148H184.982V81.05H186.926C187.682 81.05 188.3 80.93 188.78 80.69C189.26 80.438 189.5 80.072 189.5 79.592C189.5 79.184 189.26 78.854 188.78 78.602C188.3 78.338 187.694 78.206 186.962 78.206C185.75 78.206 184.778 78.578 184.046 79.322L183.344 78.494C184.244 77.57 185.432 77.108 186.908 77.108C188.096 77.096 189.056 77.3 189.788 77.72C190.532 78.128 190.904 78.698 190.904 79.43C190.904 80.03 190.658 80.516 190.166 80.888C189.686 81.26 189.152 81.482 188.564 81.554C189.176 81.602 189.746 81.806 190.274 82.166C190.814 82.526 191.084 83.03 191.084 83.678C191.084 84.422 190.724 85.034 190.004 85.514C189.296 85.982 188.33 86.216 187.106 86.216ZM200.186 84.902C199.406 85.778 198.368 86.216 197.072 86.216C195.776 86.216 194.732 85.778 193.94 84.902C193.16 84.026 192.77 82.94 192.77 81.644C192.77 80.348 193.16 79.268 193.94 78.404C194.732 77.528 195.776 77.09 197.072 77.09C198.368 77.09 199.406 77.528 200.186 78.404C200.978 79.268 201.374 80.348 201.374 81.644C201.374 82.94 200.978 84.026 200.186 84.902ZM194.948 84.038C195.476 84.686 196.184 85.01 197.072 85.01C197.96 85.01 198.662 84.686 199.178 84.038C199.694 83.378 199.952 82.58 199.952 81.644C199.952 80.708 199.694 79.916 199.178 79.268C198.662 78.62 197.96 78.296 197.072 78.296C196.184 78.296 195.476 78.626 194.948 79.286C194.432 79.934 194.174 80.72 194.174 81.644C194.174 82.58 194.432 83.378 194.948 84.038ZM207.859 86.216C206.635 86.216 205.657 85.706 204.925 84.686V89.312H203.575V77.306H204.925V78.602C205.249 78.146 205.669 77.78 206.185 77.504C206.701 77.228 207.259 77.09 207.859 77.09C209.011 77.09 209.941 77.504 210.649 78.332C211.369 79.148 211.729 80.252 211.729 81.644C211.729 83.036 211.369 84.146 210.649 84.974C209.941 85.802 209.011 86.216 207.859 86.216ZM207.517 85.01C208.369 85.01 209.047 84.698 209.551 84.074C210.055 83.438 210.307 82.628 210.307 81.644C210.307 80.66 210.055 79.856 209.551 79.232C209.047 78.608 208.369 78.296 207.517 78.296C207.001 78.296 206.497 78.434 206.005 78.71C205.525 78.974 205.165 79.298 204.925 79.682V83.606C205.165 84.002 205.525 84.338 206.005 84.614C206.497 84.878 207.001 85.01 207.517 85.01ZM218.336 77.306H219.686V79.754C219.686 80.534 219.866 81.074 220.226 81.374C220.586 81.674 221.144 81.824 221.9 81.824C222.836 81.824 223.604 81.668 224.204 81.356V77.306H225.554V86H224.204V82.454C223.436 82.838 222.554 83.03 221.558 83.03C220.43 83.03 219.608 82.802 219.092 82.346C218.588 81.89 218.336 81.164 218.336 80.168V77.306ZM232.178 86.216C230.882 86.216 229.82 85.796 228.992 84.956C228.164 84.104 227.75 83 227.75 81.644C227.75 80.372 228.158 79.298 228.974 78.422C229.79 77.534 230.81 77.09 232.034 77.09C233.318 77.09 234.332 77.534 235.076 78.422C235.832 79.298 236.21 80.408 236.21 81.752V82.094H229.172C229.232 82.946 229.544 83.66 230.108 84.236C230.672 84.812 231.404 85.1 232.304 85.1C233.384 85.1 234.278 84.734 234.986 84.002L235.634 84.884C234.746 85.772 233.594 86.216 232.178 86.216ZM234.878 81.104C234.866 80.36 234.614 79.694 234.122 79.106C233.63 78.506 232.928 78.206 232.016 78.206C231.152 78.206 230.468 78.5 229.964 79.088C229.472 79.676 229.208 80.348 229.172 81.104H234.878ZM237.371 86.216V85.1C237.779 85.1 238.115 84.83 238.379 84.29C238.643 83.75 238.859 82.85 239.027 81.59L239.585 77.306H245.633V86H244.283V78.494H240.773L240.377 81.752C240.185 83.348 239.849 84.494 239.369 85.19C238.889 85.874 238.223 86.216 237.371 86.216ZM255.241 84.902C254.461 85.778 253.423 86.216 252.127 86.216C250.831 86.216 249.787 85.778 248.995 84.902C248.215 84.026 247.825 82.94 247.825 81.644C247.825 80.348 248.215 79.268 248.995 78.404C249.787 77.528 250.831 77.09 252.127 77.09C253.423 77.09 254.461 77.528 255.241 78.404C256.033 79.268 256.429 80.348 256.429 81.644C256.429 82.94 256.033 84.026 255.241 84.902ZM250.003 84.038C250.531 84.686 251.239 85.01 252.127 85.01C253.015 85.01 253.717 84.686 254.233 84.038C254.749 83.378 255.007 82.58 255.007 81.644C255.007 80.708 254.749 79.916 254.233 79.268C253.717 78.62 253.015 78.296 252.127 78.296C251.239 78.296 250.531 78.626 250.003 79.286C249.487 79.934 249.229 80.72 249.229 81.644C249.229 82.58 249.487 83.378 250.003 84.038ZM263.507 86H258.629V77.306H263.417C264.173 77.306 264.767 77.51 265.199 77.918C265.643 78.326 265.865 78.866 265.865 79.538C265.865 80.03 265.727 80.456 265.451 80.816C265.187 81.164 264.857 81.398 264.461 81.518C264.905 81.626 265.277 81.884 265.577 82.292C265.889 82.7 266.045 83.15 266.045 83.642C266.045 84.35 265.817 84.92 265.361 85.352C264.917 85.784 264.299 86 263.507 86ZM263.237 84.812C263.669 84.812 264.011 84.692 264.263 84.452C264.515 84.212 264.641 83.888 264.641 83.48C264.641 83.108 264.515 82.79 264.263 82.526C264.011 82.262 263.669 82.13 263.237 82.13H259.979V84.812H263.237ZM263.183 80.942C263.591 80.942 263.909 80.834 264.137 80.618C264.365 80.39 264.479 80.096 264.479 79.736C264.479 79.352 264.365 79.052 264.137 78.836C263.909 78.608 263.591 78.494 263.183 78.494H259.979V80.942H263.183ZM272.52 86.216C271.224 86.216 270.162 85.796 269.334 84.956C268.506 84.104 268.092 83 268.092 81.644C268.092 80.372 268.5 79.298 269.316 78.422C270.132 77.534 271.152 77.09 272.376 77.09C273.66 77.09 274.674 77.534 275.418 78.422C276.174 79.298 276.552 80.408 276.552 81.752V82.094H269.514C269.574 82.946 269.886 83.66 270.45 84.236C271.014 84.812 271.746 85.1 272.646 85.1C273.726 85.1 274.62 84.734 275.328 84.002L275.976 84.884C275.088 85.772 273.936 86.216 272.52 86.216ZM275.22 81.104C275.208 80.36 274.956 79.694 274.464 79.106C273.972 78.506 273.27 78.206 272.358 78.206C271.494 78.206 270.81 78.5 270.306 79.088C269.814 79.676 269.55 80.348 269.514 81.104H275.22ZM286.389 86H284.661L281.529 82.094L280.089 83.516V86H278.739V77.306H280.089V81.932L284.661 77.306H286.371L282.519 81.248L286.389 86ZM294.771 86H293.421V85.01C292.689 85.814 291.729 86.216 290.541 86.216C289.737 86.216 289.029 85.958 288.417 85.442C287.805 84.926 287.499 84.224 287.499 83.336C287.499 82.424 287.799 81.722 288.399 81.23C289.011 80.726 289.725 80.474 290.541 80.474C291.777 80.474 292.737 80.87 293.421 81.662V80.096C293.421 79.52 293.217 79.07 292.809 78.746C292.401 78.422 291.873 78.26 291.225 78.26C290.205 78.26 289.317 78.662 288.561 79.466L287.931 78.53C288.855 77.57 290.013 77.09 291.405 77.09C292.401 77.09 293.211 77.33 293.835 77.81C294.459 78.29 294.771 79.028 294.771 80.024V86ZM291.027 85.244C292.107 85.244 292.905 84.884 293.421 84.164V82.526C292.905 81.806 292.107 81.446 291.027 81.446C290.403 81.446 289.887 81.626 289.479 81.986C289.083 82.334 288.885 82.79 288.885 83.354C288.885 83.906 289.083 84.362 289.479 84.722C289.887 85.07 290.403 85.244 291.027 85.244ZM306.996 86H302.118V77.306H306.906C307.662 77.306 308.256 77.51 308.688 77.918C309.132 78.326 309.354 78.866 309.354 79.538C309.354 80.03 309.216 80.456 308.94 80.816C308.676 81.164 308.346 81.398 307.95 81.518C308.394 81.626 308.766 81.884 309.066 82.292C309.378 82.7 309.534 83.15 309.534 83.642C309.534 84.35 309.306 84.92 308.85 85.352C308.406 85.784 307.788 86 306.996 86ZM306.726 84.812C307.158 84.812 307.5 84.692 307.752 84.452C308.004 84.212 308.13 83.888 308.13 83.48C308.13 83.108 308.004 82.79 307.752 82.526C307.5 82.262 307.158 82.13 306.726 82.13H303.468V84.812H306.726ZM306.672 80.942C307.08 80.942 307.398 80.834 307.626 80.618C307.854 80.39 307.968 80.096 307.968 79.736C307.968 79.352 307.854 79.052 307.626 78.836C307.398 78.608 307.08 78.494 306.672 78.494H303.468V80.942H306.672ZM44.646 108H43.35V99.306H44.7V105.948L49.254 99.306H50.586V108H49.236V101.232L44.646 108ZM54.6316 108H53.2816V99.306H54.6316V102.924H59.1676V99.306H60.5176V108H59.1676V104.112H54.6316V108ZM66.1473 108H64.7973V100.494H62.2773V99.306H68.6853V100.494H66.1473V108ZM74.3795 108.216C73.0835 108.216 72.0215 107.796 71.1935 106.956C70.3655 106.104 69.9515 105 69.9515 103.644C69.9515 102.372 70.3595 101.298 71.1755 100.422C71.9915 99.534 73.0115 99.09 74.2355 99.09C75.5195 99.09 76.5335 99.534 77.2775 100.422C78.0335 101.298 78.4115 102.408 78.4115 103.752V104.094H71.3735C71.4335 104.946 71.7455 105.66 72.3095 106.236C72.8735 106.812 73.6055 107.1 74.5055 107.1C75.5855 107.1 76.4795 106.734 77.1875 106.002L77.8355 106.884C76.9475 107.772 75.7955 108.216 74.3795 108.216ZM77.0795 103.104C77.0675 102.36 76.8155 101.694 76.3235 101.106C75.8315 100.506 75.1295 100.206 74.2175 100.206C73.3535 100.206 72.6695 100.5 72.1655 101.088C71.6735 101.676 71.4095 102.348 71.3735 103.104H77.0795ZM84.882 108.216C83.658 108.216 82.68 107.706 81.948 106.686V111.312H80.598V99.306H81.948V100.602C82.272 100.146 82.692 99.78 83.208 99.504C83.724 99.228 84.282 99.09 84.882 99.09C86.034 99.09 86.964 99.504 87.672 100.332C88.392 101.148 88.752 102.252 88.752 103.644C88.752 105.036 88.392 106.146 87.672 106.974C86.964 107.802 86.034 108.216 84.882 108.216ZM84.54 107.01C85.392 107.01 86.07 106.698 86.574 106.074C87.078 105.438 87.33 104.628 87.33 103.644C87.33 102.66 87.078 101.856 86.574 101.232C86.07 100.608 85.392 100.296 84.54 100.296C84.024 100.296 83.52 100.434 83.028 100.71C82.548 100.974 82.188 101.298 81.948 101.682V105.606C82.188 106.002 82.548 106.338 83.028 106.614C83.52 106.878 84.024 107.01 84.54 107.01ZM94.8228 108.216C93.5268 108.216 92.4648 107.796 91.6368 106.956C90.8088 106.104 90.3948 105 90.3948 103.644C90.3948 102.372 90.8028 101.298 91.6188 100.422C92.4348 99.534 93.4548 99.09 94.6788 99.09C95.9628 99.09 96.9768 99.534 97.7208 100.422C98.4768 101.298 98.8548 102.408 98.8548 103.752V104.094H91.8168C91.8768 104.946 92.1888 105.66 92.7528 106.236C93.3168 106.812 94.0488 107.1 94.9488 107.1C96.0288 107.1 96.9228 106.734 97.6308 106.002L98.2788 106.884C97.3908 107.772 96.2388 108.216 94.8228 108.216ZM97.5228 103.104C97.5108 102.36 97.2588 101.694 96.7668 101.106C96.2748 100.506 95.5728 100.206 94.6608 100.206C93.7968 100.206 93.1128 100.5 92.6088 101.088C92.1168 101.676 91.8528 102.348 91.8168 103.104H97.5228ZM104.875 108.216C103.591 108.216 102.547 107.784 101.743 106.92C100.939 106.044 100.537 104.952 100.537 103.644C100.537 102.336 100.939 101.25 101.743 100.386C102.547 99.522 103.591 99.09 104.875 99.09C106.219 99.09 107.281 99.594 108.061 100.602L107.161 101.43C106.609 100.674 105.871 100.296 104.947 100.296C104.035 100.296 103.303 100.608 102.751 101.232C102.211 101.856 101.941 102.66 101.941 103.644C101.941 104.628 102.211 105.438 102.751 106.074C103.303 106.698 104.035 107.01 104.947 107.01C105.859 107.01 106.597 106.632 107.161 105.876L108.061 106.704C107.281 107.712 106.219 108.216 104.875 108.216ZM109.468 111.402L109.684 110.178C109.9 110.274 110.146 110.322 110.422 110.322C110.734 110.322 110.992 110.256 111.196 110.124C111.4 109.992 111.574 109.752 111.718 109.404L112.294 108.09L108.658 99.306H110.116L113.014 106.434L115.894 99.306H117.37L113.014 109.764C112.534 110.916 111.682 111.504 110.458 111.528C110.098 111.528 109.768 111.486 109.468 111.402ZM126.068 108.216C124.868 108.216 123.878 107.832 123.098 107.064C122.33 106.284 121.898 105.3 121.802 104.112H120.128V108H118.778V99.306H120.128V102.924H121.82C121.964 101.808 122.414 100.89 123.17 100.17C123.938 99.45 124.904 99.09 126.068 99.09C127.364 99.09 128.408 99.528 129.2 100.404C129.992 101.268 130.388 102.348 130.388 103.644C130.388 104.94 129.992 106.026 129.2 106.902C128.408 107.778 127.364 108.216 126.068 108.216ZM126.068 107.01C126.968 107.01 127.676 106.686 128.192 106.038C128.708 105.378 128.966 104.58 128.966 103.644C128.966 102.708 128.708 101.916 128.192 101.268C127.676 100.62 126.968 100.296 126.068 100.296C125.192 100.296 124.49 100.626 123.962 101.286C123.446 101.934 123.188 102.72 123.188 103.644C123.188 104.58 123.446 105.378 123.962 106.038C124.478 106.686 125.18 107.01 126.068 107.01ZM142.621 99.306H143.971V106.812H145.087V110.214H143.737V108H132.577V99.306H133.927V106.812H137.599V99.306H138.949V106.812H142.621V99.306ZM150.862 108.216C149.566 108.216 148.504 107.796 147.676 106.956C146.848 106.104 146.434 105 146.434 103.644C146.434 102.372 146.842 101.298 147.658 100.422C148.474 99.534 149.494 99.09 150.718 99.09C152.002 99.09 153.016 99.534 153.76 100.422C154.516 101.298 154.894 102.408 154.894 103.752V104.094H147.856C147.916 104.946 148.228 105.66 148.792 106.236C149.356 106.812 150.088 107.1 150.988 107.1C152.068 107.1 152.962 106.734 153.67 106.002L154.318 106.884C153.43 107.772 152.278 108.216 150.862 108.216ZM153.562 103.104C153.55 102.36 153.298 101.694 152.806 101.106C152.314 100.506 151.612 100.206 150.7 100.206C149.836 100.206 149.152 100.5 148.648 101.088C148.156 101.676 147.892 102.348 147.856 103.104H153.562ZM158.376 108H157.08V99.306H158.43V105.948L162.984 99.306H164.316V108H162.966V101.232L158.376 108ZM163.848 96.732C163.068 97.788 162.018 98.316 160.698 98.316C159.39 98.316 158.334 97.788 157.53 96.732L158.196 96.156C158.82 97.02 159.654 97.452 160.698 97.452C161.754 97.452 162.582 97.02 163.182 96.156L163.848 96.732ZM174.587 108H173.237V100.494H170.717V99.306H177.125V100.494H174.587V108ZM182.819 108.216C181.523 108.216 180.461 107.796 179.633 106.956C178.805 106.104 178.391 105 178.391 103.644C178.391 102.372 178.799 101.298 179.615 100.422C180.431 99.534 181.451 99.09 182.675 99.09C183.959 99.09 184.973 99.534 185.717 100.422C186.473 101.298 186.851 102.408 186.851 103.752V104.094H179.813C179.873 104.946 180.185 105.66 180.749 106.236C181.313 106.812 182.045 107.1 182.945 107.1C184.025 107.1 184.919 106.734 185.627 106.002L186.275 106.884C185.387 107.772 184.235 108.216 182.819 108.216ZM185.519 103.104C185.507 102.36 185.255 101.694 184.763 101.106C184.271 100.506 183.569 100.206 182.657 100.206C181.793 100.206 181.109 100.5 180.605 101.088C180.113 101.676 179.849 102.348 179.813 103.104H185.519ZM197.912 108H196.562V101.178L193.736 108H193.232L190.388 101.178V108H189.038V99.306H190.82L193.484 105.75L196.112 99.306H197.912V108ZM204.528 108.216C203.232 108.216 202.17 107.796 201.342 106.956C200.514 106.104 200.1 105 200.1 103.644C200.1 102.372 200.508 101.298 201.324 100.422C202.14 99.534 203.16 99.09 204.384 99.09C205.668 99.09 206.682 99.534 207.426 100.422C208.182 101.298 208.56 102.408 208.56 103.752V104.094H201.522C201.582 104.946 201.894 105.66 202.458 106.236C203.022 106.812 203.754 107.1 204.654 107.1C205.734 107.1 206.628 106.734 207.336 106.002L207.984 106.884C207.096 107.772 205.944 108.216 204.528 108.216ZM207.228 103.104C207.216 102.36 206.964 101.694 206.472 101.106C205.98 100.506 205.278 100.206 204.366 100.206C203.502 100.206 202.818 100.5 202.314 101.088C201.822 101.676 201.558 102.348 201.522 103.104H207.228ZM216.683 108H215.387V99.306H216.737V105.948L221.291 99.306H222.623V108H221.273V101.232L216.683 108ZM237.195 108H235.845V100.494H231.309V108H229.959V99.306H237.195V108ZM246.803 106.902C246.023 107.778 244.985 108.216 243.689 108.216C242.393 108.216 241.349 107.778 240.557 106.902C239.777 106.026 239.387 104.94 239.387 103.644C239.387 102.348 239.777 101.268 240.557 100.404C241.349 99.528 242.393 99.09 243.689 99.09C244.985 99.09 246.023 99.528 246.803 100.404C247.595 101.268 247.991 102.348 247.991 103.644C247.991 104.94 247.595 106.026 246.803 106.902ZM241.565 106.038C242.093 106.686 242.801 107.01 243.689 107.01C244.577 107.01 245.279 106.686 245.795 106.038C246.311 105.378 246.569 104.58 246.569 103.644C246.569 102.708 246.311 101.916 245.795 101.268C245.279 100.62 244.577 100.296 243.689 100.296C242.801 100.296 242.093 100.626 241.565 101.286C241.049 101.934 240.791 102.72 240.791 103.644C240.791 104.58 241.049 105.378 241.565 106.038ZM249.166 110.214V106.884C249.61 106.8 249.958 106.536 250.21 106.092C250.462 105.636 250.666 104.802 250.822 103.59L251.38 99.306H257.428V106.812H258.436V110.214H257.086V108H250.516V110.214H249.166ZM252.568 100.494L252.172 103.752C251.968 105.276 251.548 106.296 250.912 106.812H256.078V100.494H252.568ZM259.256 110.214V106.884C259.7 106.8 260.048 106.536 260.3 106.092C260.552 105.636 260.756 104.802 260.912 103.59L261.47 99.306H267.518V106.812H268.526V110.214H267.176V108H260.606V110.214H259.256ZM262.658 100.494L262.262 103.752C262.058 105.276 261.638 106.296 261.002 106.812H266.168V100.494H262.658ZM274.295 108.216C272.999 108.216 271.937 107.796 271.109 106.956C270.281 106.104 269.867 105 269.867 103.644C269.867 102.372 270.275 101.298 271.091 100.422C271.907 99.534 272.927 99.09 274.151 99.09C275.435 99.09 276.449 99.534 277.193 100.422C277.949 101.298 278.327 102.408 278.327 103.752V104.094H271.289C271.349 104.946 271.661 105.66 272.225 106.236C272.789 106.812 273.521 107.1 274.421 107.1C275.501 107.1 276.395 106.734 277.103 106.002L277.751 106.884C276.863 107.772 275.711 108.216 274.295 108.216ZM276.995 103.104C276.983 102.36 276.731 101.694 276.239 101.106C275.747 100.506 275.045 100.206 274.133 100.206C273.269 100.206 272.585 100.5 272.081 101.088C271.589 101.676 271.325 102.348 271.289 103.104H276.995ZM284.798 108.216C283.574 108.216 282.596 107.706 281.864 106.686V111.312H280.514V99.306H281.864V100.602C282.188 100.146 282.608 99.78 283.124 99.504C283.64 99.228 284.198 99.09 284.798 99.09C285.95 99.09 286.88 99.504 287.588 100.332C288.308 101.148 288.668 102.252 288.668 103.644C288.668 105.036 288.308 106.146 287.588 106.974C286.88 107.802 285.95 108.216 284.798 108.216ZM284.456 107.01C285.308 107.01 285.986 106.698 286.49 106.074C286.994 105.438 287.246 104.628 287.246 103.644C287.246 102.66 286.994 101.856 286.49 101.232C285.986 100.608 285.308 100.296 284.456 100.296C283.94 100.296 283.436 100.434 282.944 100.71C282.464 100.974 282.104 101.298 281.864 101.682V105.606C282.104 106.002 282.464 106.338 282.944 106.614C283.436 106.878 283.94 107.01 284.456 107.01ZM290.777 108H289.049L292.919 103.248L289.067 99.306H290.777L294.521 103.14V99.306H295.871V103.122L299.615 99.306H301.325L297.455 103.248L301.343 108H299.615L296.483 104.094L295.871 104.706V108H294.521V104.706L293.909 104.094L290.777 108ZM304.24 108H302.944V99.306H304.294V105.948L308.848 99.306H310.18V108H308.83V101.232L304.24 108ZM317.753 108H312.875V99.306H317.663C318.419 99.306 319.013 99.51 319.445 99.918C319.889 100.326 320.111 100.866 320.111 101.538C320.111 102.03 319.973 102.456 319.697 102.816C319.433 103.164 319.103 103.398 318.707 103.518C319.151 103.626 319.523 103.884 319.823 104.292C320.135 104.7 320.291 105.15 320.291 105.642C320.291 106.35 320.063 106.92 319.607 107.352C319.163 107.784 318.545 108 317.753 108ZM317.483 106.812C317.915 106.812 318.257 106.692 318.509 106.452C318.761 106.212 318.887 105.888 318.887 105.48C318.887 105.108 318.761 104.79 318.509 104.526C318.257 104.262 317.915 104.13 317.483 104.13H314.225V106.812H317.483ZM317.429 102.942C317.837 102.942 318.155 102.834 318.383 102.618C318.611 102.39 318.725 102.096 318.725 101.736C318.725 101.352 318.611 101.052 318.383 100.836C318.155 100.608 317.837 100.494 317.429 100.494H314.225V102.942H317.429ZM329.628 108H328.278V107.01C327.546 107.814 326.586 108.216 325.398 108.216C324.594 108.216 323.886 107.958 323.274 107.442C322.662 106.926 322.356 106.224 322.356 105.336C322.356 104.424 322.656 103.722 323.256 103.23C323.868 102.726 324.582 102.474 325.398 102.474C326.634 102.474 327.594 102.87 328.278 103.662V102.096C328.278 101.52 328.074 101.07 327.666 100.746C327.258 100.422 326.73 100.26 326.082 100.26C325.062 100.26 324.174 100.662 323.418 101.466L322.788 100.53C323.712 99.57 324.87 99.09 326.262 99.09C327.258 99.09 328.068 99.33 328.692 99.81C329.316 100.29 329.628 101.028 329.628 102.024V108ZM325.884 107.244C326.964 107.244 327.762 106.884 328.278 106.164V104.526C327.762 103.806 326.964 103.446 325.884 103.446C325.26 103.446 324.744 103.626 324.336 103.986C323.94 104.334 323.742 104.79 323.742 105.354C323.742 105.906 323.94 106.362 324.336 106.722C324.744 107.07 325.26 107.244 325.884 107.244ZM335.268 108H333.918V100.494H331.398V99.306H337.806V100.494H335.268V108ZM339.577 99.306H340.927V102.672H344.185C345.049 102.672 345.721 102.93 346.201 103.446C346.681 103.95 346.921 104.58 346.921 105.336C346.921 106.092 346.675 106.728 346.183 107.244C345.703 107.748 345.037 108 344.185 108H339.577V99.306ZM344.041 103.86H340.927V106.812H344.041C344.521 106.812 344.887 106.68 345.139 106.416C345.403 106.14 345.535 105.78 345.535 105.336C345.535 104.892 345.403 104.538 345.139 104.274C344.887 103.998 344.521 103.86 344.041 103.86ZM46.284 130H44.934V122.494H42.414V121.306H48.822V122.494H46.284V130ZM54.8762 130.216C53.6522 130.216 52.6742 129.706 51.9422 128.686V133.312H50.5922V121.306H51.9422V122.602C52.2662 122.146 52.6862 121.78 53.2022 121.504C53.7182 121.228 54.2762 121.09 54.8762 121.09C56.0282 121.09 56.9582 121.504 57.6662 122.332C58.3862 123.148 58.7462 124.252 58.7462 125.644C58.7462 127.036 58.3862 128.146 57.6662 128.974C56.9582 129.802 56.0282 130.216 54.8762 130.216ZM54.5342 129.01C55.3862 129.01 56.0642 128.698 56.5682 128.074C57.0722 127.438 57.3242 126.628 57.3242 125.644C57.3242 124.66 57.0722 123.856 56.5682 123.232C56.0642 122.608 55.3862 122.296 54.5342 122.296C54.0182 122.296 53.5142 122.434 53.0222 122.71C52.5422 122.974 52.1822 123.298 51.9422 123.682V127.606C52.1822 128.002 52.5422 128.338 53.0222 128.614C53.5142 128.878 54.0182 129.01 54.5342 129.01ZM67.679 130H66.329V129.01C65.597 129.814 64.637 130.216 63.449 130.216C62.645 130.216 61.937 129.958 61.325 129.442C60.713 128.926 60.407 128.224 60.407 127.336C60.407 126.424 60.707 125.722 61.307 125.23C61.919 124.726 62.633 124.474 63.449 124.474C64.685 124.474 65.645 124.87 66.329 125.662V124.096C66.329 123.52 66.125 123.07 65.717 122.746C65.309 122.422 64.781 122.26 64.133 122.26C63.113 122.26 62.225 122.662 61.469 123.466L60.839 122.53C61.763 121.57 62.921 121.09 64.313 121.09C65.309 121.09 66.119 121.33 66.743 121.81C67.367 122.29 67.679 123.028 67.679 124.024V130ZM63.935 129.244C65.015 129.244 65.813 128.884 66.329 128.164V126.526C65.813 125.806 65.015 125.446 63.935 125.446C63.311 125.446 62.795 125.626 62.387 125.986C61.991 126.334 61.793 126.79 61.793 127.354C61.793 127.906 61.991 128.362 62.387 128.722C62.795 129.07 63.311 129.244 63.935 129.244ZM69.3592 132.214V128.884C69.8032 128.8 70.1512 128.536 70.4032 128.092C70.6552 127.636 70.8592 126.802 71.0152 125.59L71.5732 121.306H77.6212V128.812H78.6292V132.214H77.2792V130H70.7092V132.214H69.3592ZM72.7612 122.494L72.3652 125.752C72.1612 127.276 71.7412 128.296 71.1052 128.812H76.2712V122.494H72.7612ZM81.771 130H80.475V121.306H81.825V127.948L86.379 121.306H87.711V130H86.361V123.232L81.771 130ZM97.3006 132.214V130H90.4066V121.306H91.7566V128.812H96.2926V121.306H97.6426V128.812H98.6506V132.214H97.3006ZM101.792 130H100.496V121.306H101.846V127.948L106.4 121.306H107.732V130H106.382V123.232L101.792 130ZM117.718 130.216C116.518 130.216 115.528 129.832 114.748 129.064C113.98 128.284 113.548 127.3 113.452 126.112H111.778V130H110.428V121.306H111.778V124.924H113.47C113.614 123.808 114.064 122.89 114.82 122.17C115.588 121.45 116.554 121.09 117.718 121.09C119.014 121.09 120.058 121.528 120.85 122.404C121.642 123.268 122.038 124.348 122.038 125.644C122.038 126.94 121.642 128.026 120.85 128.902C120.058 129.778 119.014 130.216 117.718 130.216ZM117.718 129.01C118.618 129.01 119.326 128.686 119.842 128.038C120.358 127.378 120.616 126.58 120.616 125.644C120.616 124.708 120.358 123.916 119.842 123.268C119.326 122.62 118.618 122.296 117.718 122.296C116.842 122.296 116.14 122.626 115.612 123.286C115.096 123.934 114.838 124.72 114.838 125.644C114.838 126.58 115.096 127.378 115.612 128.038C116.128 128.686 116.83 129.01 117.718 129.01Z" fill="white"/>
</svg>
