<svg width="160" height="159" viewBox="0 0 160 159" fill="none" xmlns="http://www.w3.org/2000/svg">
<ellipse rx="79.7433" ry="79.5" transform="matrix(-1 0 0 1 79.9657 79.5)" fill="white"/>
<path d="M118.475 56.6416L93.8433 99.4306C91.59 103.893 88.3801 107.804 84.4428 110.882C81.0665 113.284 77.002 114.524 72.8608 114.415C69.1607 114.48 65.502 113.627 62.2109 111.934C59.2179 110.371 56.7235 107.999 55.0118 105.087C53.268 102.073 52.3639 98.6461 52.3939 95.1636C52.4337 92.3974 52.8952 89.6534 53.7624 87.0265C54.6888 84.0758 55.9045 81.2239 57.3916 78.5124L79.6037 38.0852L66.9111 31L44.2825 70.5738C41.8687 74.6546 39.8752 78.9702 38.3329 83.4542C37.1187 87.0521 36.4502 90.8117 36.3497 94.6079C36.1532 100.639 37.6988 106.599 40.8013 111.774C43.9037 116.948 48.4314 121.117 53.8417 123.782C59.7599 126.669 66.2779 128.111 72.8608 127.99C79.8152 128.157 86.667 126.288 92.574 122.611C98.8696 118.304 104.022 112.528 107.587 105.781L131.624 64.1039L118.475 56.6416Z" fill="#2763BD"/>
</svg>
