<svg width="19" height="23" viewBox="0 0 19 23" fill="none" xmlns="http://www.w3.org/2000/svg">
<path fill-rule="evenodd" clip-rule="evenodd" d="M3.83818 0.0253977C3.8563 0.0254013 3.87444 0.0254049 3.89259 0.0254049H15.6069C15.625 0.0254049 15.6432 0.0254013 15.6613 0.0253977C16.0854 0.0253144 16.4975 0.0252335 16.8374 0.0709338C17.2206 0.122454 17.6579 0.247976 18.0211 0.611191C18.3843 0.974407 18.5098 1.41168 18.5613 1.79489C18.607 2.1348 18.607 2.54694 18.6069 2.97102C18.6069 2.98913 18.6069 3.00726 18.6069 3.0254L18.6069 19.1115C18.607 19.9173 18.607 20.6317 18.5273 21.1749C18.4461 21.728 18.2354 22.4516 17.5032 22.8186C16.771 23.1857 16.0652 22.9216 15.5734 22.6558C15.0905 22.3947 14.5181 21.9672 13.8724 21.485L10.348 18.8535C10.041 18.6242 9.87854 18.5049 9.75499 18.4333C9.7532 18.4322 9.75145 18.4312 9.74973 18.4302C9.74802 18.4312 9.74627 18.4322 9.74448 18.4333C9.62093 18.5049 9.45851 18.6242 9.15145 18.8535L5.627 21.4851C4.98139 21.9672 4.409 22.3947 3.92608 22.6558C3.43429 22.9216 2.72843 23.1857 1.99625 22.8186C1.26408 22.4516 1.05337 21.728 0.972174 21.1749C0.892443 20.6317 0.892511 19.9173 0.892588 19.1115L0.892592 3.0254C0.892592 3.00725 0.892589 2.98911 0.892585 2.971C0.892502 2.54693 0.892421 2.1348 0.938121 1.79489C0.989641 1.41168 1.11516 0.974407 1.47838 0.611191C1.84159 0.247976 2.27887 0.122454 2.66207 0.0709338C3.00199 0.0252335 3.41411 0.0253144 3.83818 0.0253977ZM2.92129 2.0541C2.92095 2.05647 2.92062 2.0589 2.92029 2.06138C2.89472 2.25157 2.89259 2.52573 2.89259 3.0254V19.0361C2.89259 19.9407 2.89522 20.5046 2.95097 20.8844C2.95212 20.8923 2.95328 20.8999 2.95445 20.9074C2.9611 20.9038 2.96793 20.9002 2.97493 20.8964C3.31259 20.7139 3.76598 20.3786 4.49088 19.8373L7.98998 17.2247C8.24751 17.0323 8.50465 16.8402 8.74152 16.7029C9.01187 16.5462 9.3431 16.4067 9.74974 16.4067C10.1564 16.4067 10.4876 16.5462 10.758 16.7029C10.9948 16.8402 11.252 17.0323 11.5095 17.2247L15.0086 19.8373C15.7335 20.3786 16.1869 20.7139 16.5245 20.8964C16.5315 20.9002 16.5384 20.9038 16.545 20.9074C16.5462 20.8999 16.5473 20.8923 16.5485 20.8844C16.6042 20.5046 16.6069 19.9407 16.6069 19.0361V3.0254C16.6069 2.52573 16.6048 2.25157 16.5792 2.06138C16.5789 2.0589 16.5785 2.05647 16.5782 2.0541C16.5758 2.05377 16.5734 2.05343 16.5709 2.0531C16.3807 2.02753 16.1066 2.0254 15.6069 2.0254H3.89259C3.39292 2.0254 3.11876 2.02753 2.92857 2.0531C2.92609 2.05343 2.92366 2.05377 2.92129 2.0541ZM16.4888 21.1365C16.4887 21.1362 16.4899 21.1332 16.493 21.1281C16.4904 21.1342 16.4889 21.1367 16.4888 21.1365ZM16.7531 20.9977C16.7589 20.9983 16.7621 20.9991 16.7623 20.9993C16.7624 20.9996 16.7595 20.9993 16.7531 20.9977ZM2.73721 20.9993C2.73735 20.9991 2.74055 20.9983 2.74637 20.9977C2.73999 20.9993 2.73707 20.9996 2.73721 20.9993ZM3.00653 21.1282C3.00953 21.1332 3.01082 21.1362 3.01071 21.1365C3.0106 21.1367 3.00911 21.1342 3.00653 21.1282Z" fill="#101010" fill-opacity="0.3"/>
</svg>
