<svg width="14" height="14" viewBox="0 0 14 14" fill="none" xmlns="http://www.w3.org/2000/svg">
<path d="M7.8378 0.134172C7.65671 -0.0447925 7.34317 -0.0446558 7.1622 0.134172C5.12303 2.14943 4 4.75918 4 7.4827V13.5895C4 13.8792 4.32624 14.078 4.62608 13.9703C4.9014 13.8714 7.22569 13.0361 7.5 12.9376C7.7724 13.0354 10.0986 13.8714 10.3739 13.9703C10.6728 14.0777 11 13.8803 11 13.5895V7.4827C11 4.75918 9.87697 2.14941 7.8378 0.134172ZM6.89129 1.75877C7.08145 1.51058 7.28431 1.2691 7.5 1.03542C7.7157 1.2691 7.91855 1.51058 8.10871 1.7588V6.58968H6.89129V1.75877ZM8.10871 12.2728L7.66956 12.115C7.56075 12.0759 7.43928 12.0758 7.33045 12.115L6.89129 12.2728V10.1168H8.10871V12.2728ZM10.087 12.9837L9.02177 12.6009V9.70665C9.02177 9.48013 8.81736 9.29649 8.56524 9.29649H6.43479C6.18267 9.29649 5.97827 9.48013 5.97827 9.70665V12.6009L4.91306 12.9837V7.4827C4.91306 5.98257 5.28194 4.51995 5.97827 3.18833V6.99981C5.97827 7.22632 6.18267 7.40996 6.43479 7.40996H8.56524C8.81736 7.40996 9.02177 7.22632 9.02177 6.99981V3.18833C9.71813 4.51992 10.087 5.98254 10.087 7.4827V12.9837Z" fill="white"/>
</svg>
