<svg width="19" height="19" viewBox="0 0 19 19" fill="none" xmlns="http://www.w3.org/2000/svg">
<path d="M17.2141 13.4413H16.6552C16.3478 13.4413 16.0986 13.6905 16.0986 13.9979C16.0986 14.3053 16.3478 14.5546 16.6552 14.5546H17.2141C17.585 14.5546 17.8867 14.8558 17.8867 15.2261C17.8867 15.4786 17.7499 15.706 17.5298 15.8194C16.7802 16.2057 15.8508 16.048 15.2697 15.436C14.0761 14.1787 12.0777 14.1797 10.885 15.436C10.131 16.2302 8.8684 16.2295 8.11504 15.436C6.92134 14.1787 4.92304 14.1797 3.73031 15.436C3.14929 16.048 2.21992 16.2056 1.47027 15.8194C1.25007 15.706 1.11328 15.4786 1.11328 15.2261C1.11328 14.8558 1.41498 14.5546 1.78585 14.5546H2.34483C2.65224 14.5546 2.90147 14.3053 2.90147 13.9979C2.90147 13.6905 2.65224 13.4413 2.34483 13.4413H1.78585C0.801117 13.4413 0 14.2419 0 15.2261C0 15.8973 0.367977 16.5038 0.960354 16.809C2.14707 17.4205 3.61813 17.1711 4.53766 16.2025C5.29165 15.4083 6.55426 15.409 7.30762 16.2025C8.50128 17.4599 10.4997 17.4588 11.6923 16.2025C12.4463 15.4083 13.7089 15.409 14.4624 16.2025C15.3819 17.1711 16.853 17.4205 18.0396 16.809C18.632 16.5038 19 15.8973 19 15.2261C19 14.2419 18.1989 13.4413 17.2141 13.4413Z" fill="#424242"/>
<path d="M15.2685 12.1168C14.0749 10.8595 12.0765 10.8605 10.8838 12.1168C10.1299 12.9109 8.86721 12.9103 8.11385 12.1168C6.92019 10.8595 4.92185 10.8605 3.72912 12.1168C3.51745 12.3397 3.52662 12.6921 3.74957 12.9037C3.97248 13.1154 4.3248 13.1063 4.53647 12.8833C5.29054 12.0891 6.55303 12.0898 7.30647 12.8833C8.50005 14.1405 10.4985 14.1396 11.6912 12.8833C12.4452 12.0891 13.7078 12.0898 14.4612 12.8833C14.6729 13.1063 15.0252 13.1154 15.2481 12.9037C15.4711 12.6921 15.4802 12.3397 15.2685 12.1168Z" fill="#424242"/>
<path d="M12.8398 5.19181H11.4887C11.4438 5.03157 11.38 4.87916 11.2998 4.73711L11.7303 4.30697C11.9477 4.0897 11.9479 3.73723 11.7306 3.51977C11.5133 3.30227 11.1609 3.30216 10.9434 3.51944L10.5124 3.95009C10.3701 3.86971 10.2173 3.80588 10.0566 3.76087V2.4115C10.0566 2.10408 9.80745 1.85486 9.5 1.85486C9.19259 1.85486 8.94336 2.10408 8.94336 2.4115V3.76087C8.78271 3.80588 8.62997 3.86971 8.48762 3.95005L8.05663 3.51944C7.83917 3.30216 7.48671 3.30227 7.26943 3.51977C7.05215 3.73723 7.0523 4.0897 7.26976 4.30697L7.70027 4.73711C7.62004 4.87916 7.55629 5.03153 7.51131 5.19177H6.16016C5.85274 5.19177 5.60352 5.441 5.60352 5.74841C5.60352 6.05582 5.85274 6.30509 6.16016 6.30509H7.51127C7.55625 6.46536 7.62 6.61773 7.70023 6.75979L7.26973 7.18992C7.05227 7.4072 7.05212 7.75966 7.26939 7.97712C7.48667 8.19458 7.8391 8.19477 8.05659 7.97746L8.48758 7.54684C8.62993 7.62718 8.78268 7.69105 8.94332 7.73602V9.08539C8.94332 9.39281 9.19255 9.64203 9.49996 9.64203C9.80741 9.64203 10.0566 9.39281 10.0566 9.08539V7.73602C10.2172 7.69101 10.37 7.62718 10.5124 7.5468L10.9434 7.97742C11.1609 8.19477 11.5134 8.19447 11.7306 7.97709C11.9479 7.75959 11.9477 7.40716 11.7302 7.18988L11.2997 6.75979C11.38 6.61773 11.4437 6.46536 11.4887 6.30509H12.8398C13.1473 6.30509 13.3965 6.05586 13.3965 5.74845C13.3965 5.44103 13.1473 5.19181 12.8398 5.19181ZM9.5 6.69952C8.97487 6.69952 8.54762 6.27288 8.54762 5.74845C8.54762 5.22405 8.97487 4.79741 9.5 4.79741C10.0251 4.79737 10.4524 5.22405 10.4524 5.74845C10.4524 6.27288 10.0251 6.69952 9.5 6.69952Z" fill="#424242"/>
</svg>
