<svg width="14" height="14" viewBox="0 0 14 14" fill="none" xmlns="http://www.w3.org/2000/svg">
<path d="M9.87956 8.90184C9.10322 8.90184 8.37251 8.6004 7.82197 8.05303C7.80838 8.0395 7.79503 8.0258 7.78175 8.01204C8.00279 8.07554 8.2339 8.10895 8.47026 8.10895C9.13302 8.10895 9.75611 7.85085 10.2247 7.38223C11.4643 6.14266 11.4643 4.12572 10.2247 2.88617C8.62128 1.28273 6.0123 1.28273 4.40889 2.88617C3.46159 3.83347 2.90604 5.09167 2.8446 6.42897L2.84411 6.43988L2.84419 6.45079C2.84898 7.10409 2.59815 7.71922 2.1379 8.18286C1.6776 8.6465 1.0643 8.90184 0.410157 8.90184H0V11.7695H0.410157C0.862834 11.7695 1.06704 11.8712 1.3256 11.9999C1.62348 12.1482 1.9611 12.3164 2.60671 12.3164C3.25233 12.3164 3.58994 12.1483 3.88782 11.9999C4.14639 11.8712 4.35062 11.7695 4.80329 11.7695C5.25597 11.7695 5.46017 11.8712 5.71874 11.9999C6.01662 12.1482 6.35424 12.3164 6.99985 12.3164C7.64546 12.3164 7.98308 12.1483 8.28096 11.9999C8.53952 11.8712 8.74376 11.7695 9.19643 11.7695C9.64916 11.7695 9.85339 11.8712 10.112 11.9999C10.4099 12.1483 10.7475 12.3164 11.3931 12.3164C12.0388 12.3164 12.3764 12.1483 12.6743 11.9999C12.9329 11.8712 13.1371 11.7695 13.5898 11.7695H14V8.90184H9.87956ZM13.1797 10.9751C12.7868 11.0277 12.5361 11.1524 12.3087 11.2656C12.0501 11.3944 11.8459 11.4961 11.3932 11.4961C10.9404 11.4961 10.7362 11.3944 10.4776 11.2656C10.1797 11.1173 9.8421 10.9492 9.19646 10.9492C8.55084 10.9492 8.21323 11.1173 7.91532 11.2656C7.65676 11.3944 7.45253 11.4961 6.99985 11.4961C6.54717 11.4961 6.34297 11.3944 6.08438 11.2656C5.7865 11.1173 5.44888 10.9492 4.80327 10.9492C4.15765 10.9492 3.82004 11.1173 3.52216 11.2656C3.26359 11.3944 3.05936 11.4961 2.60668 11.4961C2.15401 11.4961 1.9498 11.3944 1.69124 11.2656C1.46391 11.1524 1.21322 11.0278 0.820287 10.9751V9.69689C1.53844 9.60739 2.20178 9.28282 2.72 8.7608C3.33272 8.14357 3.66787 7.32555 3.66448 6.45629C3.71889 5.32765 4.18902 4.26611 4.98888 3.46622C6.27248 2.18262 8.36102 2.18262 9.64465 3.46622C10.5644 4.38595 10.5644 5.88245 9.64465 6.80219C8.99704 7.44977 7.9434 7.44977 7.29579 6.80219C6.85176 6.35815 6.85176 5.63568 7.29579 5.19164C7.43713 5.0503 7.62507 4.97245 7.82498 4.97245C8.02486 4.97245 8.21282 5.0503 8.35416 5.19164L8.9342 4.6116C8.63793 4.3153 8.24399 4.15214 7.82498 4.15214C7.40596 4.15214 7.01205 4.3153 6.71575 4.6116C6.33173 4.99561 6.14093 5.50071 6.14303 6.00515L6.14095 6.00517C6.1467 6.99969 6.53829 7.93359 7.24357 8.63483C7.94884 9.33606 8.88499 9.72223 9.87954 9.72223H13.1797V10.9751Z" fill="white"/>
</svg>
