<svg width="21" height="19" viewBox="0 0 21 19" fill="none" xmlns="http://www.w3.org/2000/svg">
<path d="M20.074 6.98981L18.5033 2.9011C18.1392 1.95314 17.1807 1.31623 16.1182 1.31623H14.1656L13.7313 0.339959C13.6396 0.133891 13.427 0 13.1916 0H7.80873C7.57326 0 7.36064 0.133891 7.269 0.339959L6.8347 1.31627H4.88217C3.81967 1.31627 2.86115 1.95318 2.49701 2.9011L0.926305 6.98985C0.811657 7.28817 0.982946 7.61726 1.30193 7.71196L4.29299 8.59999C4.58103 8.68556 4.89013 8.5493 5.00752 8.28534L5.2099 7.83023L5.59724 11.0597L4.45384 17.4421C4.40287 17.7265 4.58916 18.0008 4.88295 18.0739L8.53084 18.9819C8.83123 19.0567 9.14353 18.8929 9.23756 18.6126L10.0838 16.0934C10.4222 16.1793 10.5727 16.1807 10.9167 16.0934L11.7629 18.6126C11.8587 18.8981 12.1737 19.0557 12.4696 18.9819L16.1175 18.0739C16.4113 18.0008 16.5976 17.7265 16.5466 17.4421C16.5144 17.2621 15.4297 11.2076 15.4032 11.0597L15.7905 7.83023L15.9929 8.28534C16.1103 8.54933 16.4196 8.68556 16.7074 8.59999L19.6985 7.71196C20.0175 7.61726 20.1887 7.2881 20.074 6.98981ZM8.1972 1.11328H12.8031C13.5828 2.86607 12.7722 1.04374 14.8615 5.7413L14.2743 10.6375L10.5002 11.612L6.72595 10.6375L6.13873 5.7413C8.05451 1.43402 7.54162 2.58719 8.1972 1.11328ZM4.13494 7.38673L2.23767 6.82345L3.59783 3.28281C3.79388 2.77244 4.30998 2.42955 4.88217 2.42955H6.33951C4.75306 5.99658 5.26963 4.83505 4.13494 7.38673ZM5.69908 17.1263L5.96185 15.6596L7.3081 17.5267L5.69908 17.1263ZM11.8525 15.2179C11.7504 14.9136 11.3987 14.7524 11.0835 14.8677C10.866 14.9474 10.6013 15.027 10.5001 15.044C10.399 15.027 10.1343 14.9474 9.91697 14.8678C9.6022 14.7524 9.25017 14.9128 9.14771 15.2178L8.48541 17.1895L6.24455 14.0816L6.65802 11.7736L10.3465 12.726C10.4451 12.7515 10.5511 12.7526 10.6539 12.726L14.3423 11.7736L14.7558 14.0817L12.5149 17.1896L11.8525 15.2179ZM13.6923 17.5267L15.0385 15.6598L15.3012 17.1263L13.6923 17.5267ZM16.8654 7.38673C15.6821 4.7258 16.291 6.09488 14.6608 2.42955H16.1181C16.6903 2.42955 17.2064 2.77244 17.4025 3.28281L18.7626 6.82345L16.8654 7.38673Z" fill="#424242"/>
</svg>
