<svg width="14" height="14" viewBox="0 0 14 14" fill="none" xmlns="http://www.w3.org/2000/svg">
<path fill-rule="evenodd" clip-rule="evenodd" d="M14 0.67413L11.1512 0.000732422L10.9728 0.0850664L11.2139 0.54102C10.9728 0.0850664 10.9717 0.0855802 10.9714 0.0857382L10.9694 0.0866498L10.9642 0.0891975L10.9478 0.0972225C10.9344 0.103886 10.9159 0.113196 10.8928 0.125248C10.8466 0.14935 10.7816 0.184432 10.7004 0.231264C10.538 0.324909 10.3106 0.465666 10.0384 0.659706C9.49421 1.04772 8.77029 1.64961 8.0313 2.51468C7.1796 3.5117 6.31317 4.85234 5.67757 6.60701C4.84585 6.45098 4.07213 6.71179 3.83096 7.39318C3.56986 8.13087 4.12119 8.82485 4.99837 9.14329C4.88029 9.79174 4.79355 10.4815 4.7451 11.2144L4.73625 11.3484H0V12.266C0 13.2232 0.820715 13.9992 1.83312 13.9992H11.8614C12.6356 13.9992 13.2632 13.4058 13.2632 12.6738C13.2632 11.9418 12.6356 11.3484 11.8614 11.3484H6.42565L12.2254 9.06351L14 0.67413ZM5.00298 7.60821C5.07963 7.58407 5.19779 7.56836 5.3602 7.5883C5.3103 7.76267 5.2627 7.94061 5.21759 8.12217C5.04919 8.04039 4.95307 7.95231 4.90324 7.88464C4.8358 7.79306 4.84653 7.73651 4.85353 7.71673C4.86066 7.69658 4.88902 7.64409 5.00298 7.60821ZM9.92496 8.8653L6.39814 7.86491C6.17524 8.64594 6.00072 9.50659 5.89458 10.4531L9.92496 8.8653ZM6.71486 6.89032L11.3098 8.19366L12.3892 3.09059H8.92587C8.90731 3.11197 8.88874 3.13354 8.87016 3.1553C8.10319 4.05313 7.30705 5.27399 6.71486 6.89032ZM9.93649 2.07104H12.6049L12.741 1.42745L11.2914 1.0848L11.2619 1.10168C11.1273 1.17928 10.9294 1.30138 10.6877 1.47374C10.4683 1.63016 10.213 1.82783 9.93649 2.07104ZM1.83312 13.0816C1.35669 13.0816 0.970475 12.7164 0.970475 12.266H11.8614C12.0996 12.266 12.2927 12.4486 12.2927 12.6738C12.2927 12.899 12.0996 13.0816 11.8614 13.0816H1.83312Z" fill="#424242"/>
</svg>
