<svg width="1027" height="62" viewBox="0 0 1027 62" fill="none" xmlns="http://www.w3.org/2000/svg">
<rect x="0.5" y="0.5" width="656" height="61" fill="white" stroke="#B6B6B6"/>
<rect x="656" width="178" height="62" fill="#101010"/>
<rect x="834" width="150" height="62" fill="#2763BD"/>
<rect x="984" width="41" height="62" fill="#A7D22C"/>
<path d="M18.473 38H16.541L22.19 25.547H14.651V23.993H24.206V25.19L18.473 38ZM31.2336 38.252C30.3096 38.252 29.4906 38.042 28.7766 37.622C28.0766 37.188 27.5166 36.614 27.0966 35.9C26.6906 35.186 26.3826 34.416 26.1726 33.59C25.9766 32.764 25.8786 31.903 25.8786 31.007C25.8786 30.111 25.9766 29.25 26.1726 28.424C26.3826 27.598 26.6906 26.835 27.0966 26.135C27.5166 25.421 28.0766 24.854 28.7766 24.434C29.4906 24 30.3096 23.783 31.2336 23.783C32.1436 23.783 32.9556 24 33.6696 24.434C34.3836 24.854 34.9436 25.421 35.3496 26.135C35.7696 26.835 36.0776 27.598 36.2736 28.424C36.4836 29.25 36.5886 30.111 36.5886 31.007C36.5886 31.903 36.4836 32.764 36.2736 33.59C36.0776 34.416 35.7696 35.186 35.3496 35.9C34.9436 36.614 34.3836 37.188 33.6696 37.622C32.9556 38.042 32.1436 38.252 31.2336 38.252ZM29.1336 35.837C29.6936 36.411 30.3936 36.698 31.2336 36.698C32.0736 36.698 32.7736 36.411 33.3336 35.837C33.8936 35.249 34.2786 34.549 34.4886 33.737C34.6986 32.925 34.8036 32.015 34.8036 31.007C34.8036 29.999 34.6986 29.089 34.4886 28.277C34.2786 27.465 33.8936 26.772 33.3336 26.198C32.7736 25.624 32.0736 25.337 31.2336 25.337C30.3936 25.337 29.6936 25.624 29.1336 26.198C28.5736 26.772 28.1886 27.465 27.9786 28.277C27.7686 29.089 27.6636 29.999 27.6636 31.007C27.6636 32.015 27.7686 32.925 27.9786 33.737C28.1886 34.549 28.5736 35.249 29.1336 35.837ZM44.113 29.726C43.483 30.37 42.671 30.692 41.677 30.692C40.683 30.692 39.871 30.37 39.241 29.726C38.625 29.068 38.317 28.249 38.317 27.269C38.317 26.275 38.632 25.449 39.262 24.791C39.892 24.119 40.697 23.783 41.677 23.783C42.671 23.783 43.483 24.119 44.113 24.791C44.757 25.449 45.079 26.275 45.079 27.269C45.079 28.249 44.757 29.068 44.113 29.726ZM41.488 38H40.354L49.3 23.993H50.455L41.488 38ZM51.421 37.286C50.791 37.93 49.979 38.252 48.985 38.252C47.991 38.252 47.179 37.93 46.549 37.286C45.933 36.628 45.625 35.809 45.625 34.829C45.625 33.835 45.94 33.009 46.57 32.351C47.2 31.679 48.005 31.343 48.985 31.343C49.979 31.343 50.791 31.679 51.421 32.351C52.051 33.009 52.366 33.835 52.366 34.829C52.366 35.809 52.051 36.628 51.421 37.286ZM40.165 28.97C40.557 29.418 41.061 29.642 41.677 29.642C42.293 29.642 42.804 29.418 43.21 28.97C43.616 28.508 43.819 27.941 43.819 27.269C43.819 26.569 43.616 25.995 43.21 25.547C42.818 25.085 42.307 24.854 41.677 24.854C41.061 24.854 40.557 25.085 40.165 25.547C39.773 25.995 39.577 26.569 39.577 27.269C39.577 27.941 39.773 28.508 40.165 28.97ZM47.452 36.53C47.858 36.978 48.369 37.202 48.985 37.202C49.601 37.202 50.112 36.978 50.518 36.53C50.924 36.068 51.127 35.501 51.127 34.829C51.127 34.129 50.924 33.555 50.518 33.107C50.126 32.645 49.615 32.414 48.985 32.414C48.355 32.414 47.844 32.645 47.452 33.107C47.06 33.555 46.864 34.129 46.864 34.829C46.864 35.501 47.06 36.068 47.452 36.53Z" fill="black"/>
<path d="M669.481 38H667.738V26.303L665.491 28.676L664.441 27.605L667.948 23.993H669.481V38ZM680.188 38H678.445V34.451H671.788V33.002L677.794 23.993H680.188V32.918H682.162V34.451H680.188V38ZM678.445 32.918V25.61L673.531 32.918H678.445ZM689.273 29.726C688.643 30.37 687.831 30.692 686.837 30.692C685.843 30.692 685.031 30.37 684.401 29.726C683.785 29.068 683.477 28.249 683.477 27.269C683.477 26.275 683.792 25.449 684.422 24.791C685.052 24.119 685.857 23.783 686.837 23.783C687.831 23.783 688.643 24.119 689.273 24.791C689.917 25.449 690.239 26.275 690.239 27.269C690.239 28.249 689.917 29.068 689.273 29.726ZM686.648 38H685.514L694.46 23.993H695.615L686.648 38ZM696.581 37.286C695.951 37.93 695.139 38.252 694.145 38.252C693.151 38.252 692.339 37.93 691.709 37.286C691.093 36.628 690.785 35.809 690.785 34.829C690.785 33.835 691.1 33.009 691.73 32.351C692.36 31.679 693.165 31.343 694.145 31.343C695.139 31.343 695.951 31.679 696.581 32.351C697.211 33.009 697.526 33.835 697.526 34.829C697.526 35.809 697.211 36.628 696.581 37.286ZM685.325 28.97C685.717 29.418 686.221 29.642 686.837 29.642C687.453 29.642 687.964 29.418 688.37 28.97C688.776 28.508 688.979 27.941 688.979 27.269C688.979 26.569 688.776 25.995 688.37 25.547C687.978 25.085 687.467 24.854 686.837 24.854C686.221 24.854 685.717 25.085 685.325 25.547C684.933 25.995 684.737 26.569 684.737 27.269C684.737 27.941 684.933 28.508 685.325 28.97ZM692.612 36.53C693.018 36.978 693.529 37.202 694.145 37.202C694.761 37.202 695.272 36.978 695.678 36.53C696.084 36.068 696.287 35.501 696.287 34.829C696.287 34.129 696.084 33.555 695.678 33.107C695.286 32.645 694.775 32.414 694.145 32.414C693.515 32.414 693.004 32.645 692.612 33.107C692.22 33.555 692.024 34.129 692.024 34.829C692.024 35.501 692.22 36.068 692.612 36.53Z" fill="white"/>
<path d="M849.481 38H847.738V26.303L845.491 28.676L844.441 27.605L847.948 23.993H849.481V38ZM856.702 38.252C855.582 38.252 854.588 38.035 853.72 37.601C852.852 37.167 852.187 36.614 851.725 35.942L852.754 34.85C853.174 35.41 853.727 35.858 854.413 36.194C855.099 36.53 855.848 36.698 856.66 36.698C857.682 36.698 858.48 36.467 859.054 36.005C859.642 35.529 859.936 34.885 859.936 34.073C859.936 33.233 859.621 32.61 858.991 32.204C858.375 31.798 857.528 31.595 856.45 31.595C855.624 31.595 855.141 31.602 855.001 31.616V30.02C855.155 30.034 855.638 30.041 856.45 30.041C857.402 30.041 858.179 29.852 858.781 29.474C859.397 29.082 859.705 28.501 859.705 27.731C859.705 26.989 859.404 26.408 858.802 25.988C858.214 25.554 857.472 25.337 856.576 25.337C855.162 25.337 853.93 25.904 852.88 27.038L851.914 25.946C853.104 24.504 854.7 23.783 856.702 23.783C858.088 23.783 859.222 24.119 860.104 24.791C861 25.449 861.448 26.359 861.448 27.521C861.448 28.445 861.14 29.187 860.524 29.747C859.908 30.293 859.208 30.636 858.424 30.776C859.194 30.846 859.922 31.182 860.608 31.784C861.308 32.386 861.658 33.198 861.658 34.22C861.658 35.41 861.21 36.383 860.314 37.139C859.418 37.881 858.214 38.252 856.702 38.252ZM869.253 29.726C868.623 30.37 867.811 30.692 866.817 30.692C865.823 30.692 865.011 30.37 864.381 29.726C863.765 29.068 863.457 28.249 863.457 27.269C863.457 26.275 863.772 25.449 864.402 24.791C865.032 24.119 865.837 23.783 866.817 23.783C867.811 23.783 868.623 24.119 869.253 24.791C869.897 25.449 870.219 26.275 870.219 27.269C870.219 28.249 869.897 29.068 869.253 29.726ZM866.628 38H865.494L874.44 23.993H875.595L866.628 38ZM876.561 37.286C875.931 37.93 875.119 38.252 874.125 38.252C873.131 38.252 872.319 37.93 871.689 37.286C871.073 36.628 870.765 35.809 870.765 34.829C870.765 33.835 871.08 33.009 871.71 32.351C872.34 31.679 873.145 31.343 874.125 31.343C875.119 31.343 875.931 31.679 876.561 32.351C877.191 33.009 877.506 33.835 877.506 34.829C877.506 35.809 877.191 36.628 876.561 37.286ZM865.305 28.97C865.697 29.418 866.201 29.642 866.817 29.642C867.433 29.642 867.944 29.418 868.35 28.97C868.756 28.508 868.959 27.941 868.959 27.269C868.959 26.569 868.756 25.995 868.35 25.547C867.958 25.085 867.447 24.854 866.817 24.854C866.201 24.854 865.697 25.085 865.305 25.547C864.913 25.995 864.717 26.569 864.717 27.269C864.717 27.941 864.913 28.508 865.305 28.97ZM872.592 36.53C872.998 36.978 873.509 37.202 874.125 37.202C874.741 37.202 875.252 36.978 875.658 36.53C876.064 36.068 876.267 35.501 876.267 34.829C876.267 34.129 876.064 33.555 875.658 33.107C875.266 32.645 874.755 32.414 874.125 32.414C873.495 32.414 872.984 32.645 872.592 33.107C872.2 33.555 872.004 34.129 872.004 34.829C872.004 35.501 872.2 36.068 872.592 36.53Z" fill="white"/>
<path d="M997.586 40.252C996.466 40.252 995.472 40.035 994.604 39.601C993.736 39.167 993.071 38.614 992.609 37.942L993.638 36.85C994.058 37.41 994.611 37.858 995.297 38.194C995.983 38.53 996.732 38.698 997.544 38.698C998.566 38.698 999.364 38.467 999.938 38.005C1000.53 37.529 1000.82 36.885 1000.82 36.073C1000.82 35.233 1000.51 34.61 999.875 34.204C999.259 33.798 998.412 33.595 997.334 33.595C996.508 33.595 996.025 33.602 995.885 33.616V32.02C996.039 32.034 996.522 32.041 997.334 32.041C998.286 32.041 999.063 31.852 999.665 31.474C1000.28 31.082 1000.59 30.501 1000.59 29.731C1000.59 28.989 1000.29 28.408 999.686 27.988C999.098 27.554 998.356 27.337 997.46 27.337C996.046 27.337 994.814 27.904 993.764 29.038L992.798 27.946C993.988 26.504 995.584 25.783 997.586 25.783C998.972 25.783 1000.11 26.119 1000.99 26.791C1001.88 27.449 1002.33 28.359 1002.33 29.521C1002.33 30.445 1002.02 31.187 1001.41 31.747C1000.79 32.293 1000.09 32.636 999.308 32.776C1000.08 32.846 1000.81 33.182 1001.49 33.784C1002.19 34.386 1002.54 35.198 1002.54 36.22C1002.54 37.41 1002.09 38.383 1001.2 39.139C1000.3 39.881 999.098 40.252 997.586 40.252ZM1010.14 31.726C1009.51 32.37 1008.69 32.692 1007.7 32.692C1006.71 32.692 1005.89 32.37 1005.26 31.726C1004.65 31.068 1004.34 30.249 1004.34 29.269C1004.34 28.275 1004.66 27.449 1005.29 26.791C1005.92 26.119 1006.72 25.783 1007.7 25.783C1008.69 25.783 1009.51 26.119 1010.14 26.791C1010.78 27.449 1011.1 28.275 1011.1 29.269C1011.1 30.249 1010.78 31.068 1010.14 31.726ZM1007.51 40H1006.38L1015.32 25.993H1016.48L1007.51 40ZM1017.44 39.286C1016.81 39.93 1016 40.252 1015.01 40.252C1014.01 40.252 1013.2 39.93 1012.57 39.286C1011.96 38.628 1011.65 37.809 1011.65 36.829C1011.65 35.835 1011.96 35.009 1012.59 34.351C1013.22 33.679 1014.03 33.343 1015.01 33.343C1016 33.343 1016.81 33.679 1017.44 34.351C1018.07 35.009 1018.39 35.835 1018.39 36.829C1018.39 37.809 1018.07 38.628 1017.44 39.286ZM1006.19 30.97C1006.58 31.418 1007.08 31.642 1007.7 31.642C1008.32 31.642 1008.83 31.418 1009.23 30.97C1009.64 30.508 1009.84 29.941 1009.84 29.269C1009.84 28.569 1009.64 27.995 1009.23 27.547C1008.84 27.085 1008.33 26.854 1007.7 26.854C1007.08 26.854 1006.58 27.085 1006.19 27.547C1005.8 27.995 1005.6 28.569 1005.6 29.269C1005.6 29.941 1005.8 30.508 1006.19 30.97ZM1013.48 38.53C1013.88 38.978 1014.39 39.202 1015.01 39.202C1015.62 39.202 1016.14 38.978 1016.54 38.53C1016.95 38.068 1017.15 37.501 1017.15 36.829C1017.15 36.129 1016.95 35.555 1016.54 35.107C1016.15 34.645 1015.64 34.414 1015.01 34.414C1014.38 34.414 1013.87 34.645 1013.48 35.107C1013.08 35.555 1012.89 36.129 1012.89 36.829C1012.89 37.501 1013.08 38.068 1013.48 38.53Z" fill="black"/>
</svg>
