<svg width="545" height="115" viewBox="0 0 545 115" fill="none" xmlns="http://www.w3.org/2000/svg">
<g opacity="0.7">
<rect opacity="0.1" x="62.3281" y="114.117" width="33.9949" height="114.115" transform="rotate(-180 62.3281 114.117)" fill="#2763BD"/>
<rect opacity="0.3" x="118.98" y="114.117" width="45.3265" height="114.115" transform="rotate(-180 118.98 114.117)" fill="#2763BD"/>
<rect opacity="0.2" width="16.9975" height="114.115" fill="#2763BD"/>
<rect opacity="0.1" x="164.305" y="114.117" width="33.9949" height="114.115" transform="rotate(-180 164.305 114.117)" fill="#2763BD"/>
<rect opacity="0.1" x="339.957" y="114.117" width="33.9949" height="114.115" transform="rotate(-180 339.957 114.117)" fill="#2763BD"/>
<rect opacity="0.1" x="515.664" y="114.117" width="33.9949" height="114.115" transform="rotate(-180 515.664 114.117)" fill="#2763BD"/>
<rect opacity="0.1" x="237.969" y="114.117" width="33.9949" height="114.115" transform="rotate(-180 237.969 114.117)" fill="#2763BD"/>
<rect opacity="0.1" x="413.688" y="114.117" width="33.9949" height="114.115" transform="rotate(-180 413.688 114.117)" fill="#2763BD"/>
<rect opacity="0.3" x="294.621" y="114.117" width="45.3265" height="114.115" transform="rotate(-180 294.621 114.117)" fill="#2763BD"/>
<rect opacity="0.3" x="470.34" y="114.117" width="45.3265" height="114.115" transform="rotate(-180 470.34 114.117)" fill="#2763BD"/>
<rect opacity="0.2" x="175.637" width="16.9975" height="114.115" fill="#2763BD"/>
<rect opacity="0.2" x="351.281" width="16.9975" height="114.115" fill="#2763BD"/>
<rect opacity="0.2" x="527.004" width="16.9975" height="114.115" fill="#2763BD"/>
</g>
</svg>
