<svg width="121" height="121" viewBox="0 0 121 121" fill="none" xmlns="http://www.w3.org/2000/svg">
<path fill-rule="evenodd" clip-rule="evenodd" d="M60.5 121C93.9132 121 121 93.9132 121 60.5C121 27.0868 93.9132 0 60.5 0C27.0868 0 0 27.0868 0 60.5C0 93.9132 27.0868 121 60.5 121ZM71.8679 76.6157L91.5131 43.0903L102 48.9371L82.8293 81.5917C79.9863 86.8776 75.8767 91.4034 70.8556 94.7779C66.1443 97.6585 60.6796 99.1232 55.1331 98.9919C49.8828 99.0872 44.6844 97.9575 39.9642 95.6953C35.6492 93.6075 32.0381 90.3407 29.5637 86.2865C27.0893 82.2323 25.8566 77.5626 26.0133 72.8371C26.0935 69.8628 26.6266 66.9171 27.595 64.0981C28.8251 60.5849 30.415 57.2036 32.3402 54.0063L50.3879 23L60.511 28.5513L42.7955 60.2262C41.6094 62.3507 40.6399 64.5851 39.9009 66.8971C39.2093 68.9553 38.8413 71.1052 38.8095 73.2725C38.7856 76.0011 39.5067 78.686 40.8974 81.0474C42.2626 83.3289 44.252 85.1877 46.6391 86.4121C49.264 87.7389 52.182 88.4067 55.1331 88.3558C58.4359 88.4414 61.6777 87.4701 64.3704 85.588C67.5107 83.176 70.0707 80.1124 71.8679 76.6157Z" fill="#2763BD"/>
</svg>
