<svg width="121" height="122" viewBox="0 0 121 122" fill="none" xmlns="http://www.w3.org/2000/svg">
<path fill-rule="evenodd" clip-rule="evenodd" d="M60.5 121.926C93.9132 121.926 121 94.839 121 61.4258C121 28.0126 93.9132 0.925781 60.5 0.925781C27.0868 0.925781 0 28.0126 0 61.4258C0 94.839 27.0868 121.926 60.5 121.926ZM71.8679 77.5415L91.5131 44.0161L102 49.8628L82.8293 82.5174C79.9863 87.8034 75.8767 92.3292 70.8556 95.7037C66.1443 98.5843 60.6796 100.049 55.1331 99.9177C49.8828 100.013 44.6844 98.8832 39.9642 96.6211C35.6492 94.5333 32.0381 91.2665 29.5637 87.2122C27.0893 83.158 25.8566 78.4884 26.0133 73.7629C26.0935 70.7886 26.6266 67.8429 27.595 65.0239C28.8251 61.5107 30.415 58.1294 32.3402 54.9321L50.3879 23.9258L60.511 29.4771L42.7955 61.152C41.6094 63.2764 40.6399 65.5109 39.9009 67.8229C39.2093 69.8811 38.8413 72.0309 38.8095 74.1983C38.7856 76.9269 39.5067 79.6118 40.8974 81.9732C42.2626 84.2547 44.252 86.1134 46.6391 87.3379C49.264 88.6647 52.182 89.3325 55.1331 89.2816C58.4359 89.3672 61.6777 88.3959 64.3704 86.5137C67.5107 84.1018 70.0707 81.0381 71.8679 77.5415Z" fill="#030303"/>
</svg>
