<svg width="441" height="131" viewBox="0 0 441 131" fill="none" xmlns="http://www.w3.org/2000/svg">
<rect width="440.807" height="130.525" fill="#2763BD"/>
<path d="M206.819 24.5091C205.063 26.4209 203.703 28.6615 202.817 31.1017C201.931 33.5419 201.537 36.1333 201.658 38.7265V104.126H213.373V61.3747H226.581V51.7069H213.373V37.646C213.229 35.1334 214.041 32.6594 215.648 30.7221C216.548 29.8636 217.617 29.2027 218.788 28.7816C219.958 28.3605 221.203 28.1885 222.444 28.2767C224.354 28.2977 226.258 28.4976 228.131 28.8738V19.9169C225.522 19.3816 222.86 19.1431 220.197 19.2061C217.722 19.1204 215.256 19.5473 212.954 20.4599C210.652 21.3725 208.563 22.7511 206.819 24.5091Z" fill="white"/>
<path d="M48.8733 57.505L38.651 55.2871C36.4628 54.8216 34.3583 54.0258 32.4096 52.927C31.6368 52.3702 30.9266 51.7315 30.2912 51.0219C28.2006 48.683 27.0952 45.6265 27.206 42.4915C27.1614 40.6107 27.5634 38.7461 28.3789 37.0507C29.1945 35.3553 30.4004 33.8775 31.8977 32.7384C35.3489 30.0546 39.6435 28.6886 44.0109 28.8855C46.4517 28.806 48.882 29.2394 51.1449 30.1578C53.4077 31.0761 55.4527 32.459 57.1478 34.217C59.3706 36.5299 60.9532 39.3816 61.74 42.4915L67.5975 38.1268L71.8627 35.1696C71.5499 34.4587 71.1945 33.7478 70.8248 33.0654C70.6258 32.7242 70.441 32.383 70.2277 32.056C67.645 27.7457 63.8936 24.2555 59.4083 21.9901C54.5828 19.4821 49.2066 18.2211 43.7692 18.322C38.5709 18.2301 33.416 19.2834 28.6704 21.4072C24.5094 23.2016 20.9584 26.1649 18.4481 29.9376C15.9624 33.6463 14.6724 38.0275 14.7516 42.4915C14.7516 55.0312 22.4006 62.8839 37.6984 66.0496L47.807 68.296C51.6223 69.0064 55.1629 70.7694 58.0292 73.3858C59.1927 74.4433 60.1308 75.7248 60.7874 77.1534C61.2644 78.3915 61.5055 79.7079 61.4983 81.0347C61.5317 82.9859 61.1035 84.9173 60.2486 86.6715C59.3937 88.4257 58.1364 89.9531 56.5791 91.129C52.8793 93.8388 48.3647 95.2032 43.7834 94.9962C38.5902 95.1892 33.5327 93.3125 29.7225 89.7784C27.296 87.3901 25.5954 84.3636 24.8175 81.0489L23.609 81.8309V81.6887L13.7422 88.1292C13.9697 88.6979 14.2256 89.2524 14.4957 89.8068C14.7658 90.3613 15.2208 91.2286 15.6331 91.8541C18.3611 96.0712 22.1846 99.4671 26.6942 101.678C31.767 104.122 37.3432 105.34 42.9731 105.233C48.3832 105.343 53.7558 104.311 58.7401 102.204C63.0466 100.319 66.7507 97.2841 69.4458 93.4323C72.0129 89.691 73.3543 85.2445 73.2844 80.7077C73.2844 68.6419 65.1474 60.9077 48.8733 57.505Z" fill="white"/>
<path d="M138.687 53.1969L121.029 83.8495C119.413 87.0466 117.112 89.8477 114.29 92.053C111.869 93.7738 108.956 94.6619 105.987 94.5836C103.334 94.6301 100.711 94.0196 98.3521 92.8065C96.2065 91.687 94.4183 89.9875 93.1912 87.9015C91.9411 85.7424 91.2931 83.2876 91.3145 80.7928C91.3431 78.8112 91.6739 76.8455 92.2955 74.9637C92.9597 72.8499 93.8312 70.8068 94.8973 68.8645L110.821 39.9037L101.722 34.8281L85.4996 63.1775C83.7692 66.1009 82.3401 69.1924 81.2344 72.4046C80.364 74.982 79.8848 77.6753 79.8127 80.3947C79.6719 84.7153 80.7799 88.9848 83.004 92.6916C85.2281 96.3984 88.4739 99.3853 92.3524 101.294C96.5951 103.363 101.268 104.395 105.987 104.308C110.972 104.428 115.884 103.089 120.119 100.455C124.632 97.3701 128.326 93.2321 130.881 88.3991L148.113 58.5427L138.687 53.1969Z" fill="white"/>
<path d="M173.379 46.0544C169.924 49.1964 168.26 51.7413 167.194 57.4282H166.825L167.322 42.3436H155.82V104.189H167.322V74.6881C167.363 71.1471 167.943 67.633 169.042 64.2668C170.377 60.944 172.627 58.0683 175.531 55.9743C178.436 53.8803 181.875 52.6539 185.449 52.438H185.606C187.39 52.4293 189.171 52.5959 190.923 52.9356V42.0877C189.589 41.7493 188.218 41.5821 186.843 41.5901C181.824 41.5901 176.919 42.8412 173.379 46.0544Z" fill="white"/>
<path d="M420.201 70.9234C420.316 65.0907 419.009 59.3177 416.391 54.1042C414.063 49.3179 410.462 45.2648 405.984 42.3891C401.464 39.5842 396.232 38.1382 390.913 38.2235C385.343 38.1221 379.865 39.6597 375.16 42.645C370.535 45.5435 366.793 49.6544 364.341 54.5308C361.738 59.8364 360.428 65.6826 360.517 71.5916C360.42 77.6419 361.77 83.6277 364.455 89.0505C366.971 94.0126 370.847 98.1565 375.631 100.999C380.414 103.841 385.906 105.264 391.468 105.102C396.42 105.208 401.346 104.368 405.984 102.628C409.415 101.087 412.417 98.7293 414.727 95.7611C415.483 94.9204 416.094 93.9594 416.533 92.9176L410.05 86.5624C408.673 88.975 406.78 91.0531 404.505 92.6475C400.651 95.3043 396.048 96.6593 391.368 96.5146C387.821 96.4535 384.366 95.3726 381.416 93.401C378.515 91.4374 376.145 88.7849 374.521 85.681C372.861 82.298 372.018 78.5727 372.061 74.8047H419.931C420.136 73.5215 420.226 72.2226 420.201 70.9234ZM372.09 67.3832C372.091 62.0217 374.059 56.847 377.62 52.8389C379.278 51.0019 381.312 49.5433 383.584 48.562C385.855 47.5808 388.311 47.0999 390.785 47.1519C394.098 47.0925 397.354 48.0178 400.14 49.8106C402.951 51.6068 405.21 54.1459 406.666 57.1467C408.258 60.3259 409.058 63.8426 408.998 67.3975L372.09 67.3832Z" fill="white"/>
<path d="M283.095 64.8116C283.095 59.9777 282.299 54.5466 280.066 50.779C277.877 46.9831 274.645 43.8944 270.754 41.879C266.598 39.6596 261.944 38.5389 257.233 38.6232C252.651 38.5308 248.11 39.5042 243.969 41.4667C242.567 42.1378 241.217 42.9124 239.931 43.7841C239.079 44.3566 238.275 44.9986 237.528 45.7034L240.372 55.6556C241.617 54.1947 243.165 53.0209 244.907 52.215C248.387 50.0709 252.393 48.934 256.48 48.9308C260.745 48.9308 265.309 49.3715 268.039 52.215C270.768 55.0585 271.621 59.8213 271.621 64.2429V67.0863L259.096 68.2095C250.167 68.9678 243.305 71.1004 238.509 74.6073C236.255 76.0934 234.414 78.1253 233.156 80.5141C231.898 82.9029 231.265 85.5709 231.315 88.2702C231.191 90.6068 231.588 92.9418 232.479 95.1059C233.369 97.2699 234.729 99.2086 236.462 100.781C240.016 103.796 244.812 105.303 250.85 105.303C256.395 105.303 261.243 104.265 264.968 101.421C268.693 98.5778 269.489 97.156 271.764 92.5923H272.19C272.19 99.5303 272.602 101.251 273.427 104.165H284.588C283.538 98.2536 283.062 92.2545 283.166 86.2513L283.095 64.8116ZM271.721 78.8583C271.918 83.8048 270.231 88.642 267.001 92.3932C265.516 94.1125 263.665 95.4774 261.583 96.3876C259.502 97.2979 257.243 97.7305 254.973 97.6536C251.765 97.8159 248.602 96.839 246.044 94.8955C244.951 94.007 244.079 92.8769 243.496 91.5939C242.914 90.311 242.638 88.9104 242.689 87.5024C242.65 85.7712 243.051 84.0584 243.854 82.5242C244.657 80.9901 245.836 79.6847 247.281 78.7303C250.343 76.465 254.726 75.086 260.432 74.5931L271.721 73.5837V78.8583Z" fill="white"/>
<path d="M317.019 51.8057C320.371 49.9513 324.136 48.9733 327.967 48.9622C331.253 48.939 334.492 49.7355 337.393 51.2797C340.288 52.8294 342.941 54.7931 345.269 57.1088L352.193 50.1707C350.637 48.0554 348.71 46.2395 346.506 44.8108C343.957 42.9896 341.135 41.5836 338.146 40.6451C334.868 39.5137 331.42 38.9511 327.953 38.9816C323.634 38.9589 319.355 39.805 315.37 41.4697C311.435 43.0493 307.843 45.3764 304.792 48.3224C301.706 51.281 299.254 54.8363 297.584 58.7722C295.842 62.9486 294.985 67.4412 295.068 71.9659C294.927 78.0958 296.398 84.1552 299.333 89.5385C302.068 94.3833 306.049 98.4085 310.863 101.197C315.87 103.943 321.503 105.344 327.213 105.263C330.574 105.294 333.924 104.858 337.165 103.969C340.047 103.209 342.822 102.091 345.426 100.642C347.539 99.5362 349.459 98.0959 351.113 96.3771L345.923 88.2305C343.88 90.1838 341.544 91.8053 338.999 93.036C335.891 94.5048 332.485 95.2347 329.047 95.1686C325.066 95.1943 321.129 94.3399 317.517 92.6664C313.996 90.9385 311.038 88.2466 308.987 84.9037C306.748 80.9645 305.65 76.4797 305.816 71.9517C305.692 67.6624 306.792 63.4265 308.987 59.739C310.923 56.4362 313.693 53.7003 317.019 51.8057Z" fill="white"/>
</svg>
