<svg width="121" height="124" viewBox="0 0 121 124" fill="none" xmlns="http://www.w3.org/2000/svg">
<rect width="121" height="124" fill="#030303"/>
<path fill-rule="evenodd" clip-rule="evenodd" d="M60.5 124C93.9132 124 121 96.9132 121 63.5C121 30.0868 93.9132 3 60.5 3C27.0868 3 0 30.0868 0 63.5C0 96.9132 27.0868 124 60.5 124ZM71.8679 79.6157L91.5131 46.0903L102 51.9371L82.8293 84.5917C79.9863 89.8776 75.8767 94.4034 70.8556 97.7779C66.1443 100.659 60.6796 102.123 55.1331 101.992C49.8828 102.087 44.6844 100.957 39.9642 98.6953C35.6492 96.6075 32.0381 93.3407 29.5637 89.2865C27.0893 85.2323 25.8566 80.5626 26.0133 75.8371C26.0935 72.8628 26.6266 69.9171 27.595 67.0981C28.8251 63.5849 30.415 60.2036 32.3402 57.0063L50.3879 26L60.511 31.5513L42.7955 63.2262C41.6094 65.3507 40.6399 67.5851 39.9009 69.8971C39.2093 71.9553 38.8413 74.1052 38.8095 76.2725C38.7856 79.0011 39.5067 81.686 40.8974 84.0474C42.2626 86.3289 44.252 88.1877 46.6391 89.4121C49.264 90.7389 52.182 91.4067 55.1331 91.3558C58.4359 91.4414 61.6777 90.4701 64.3704 88.588C67.5107 86.176 70.0707 83.1124 71.8679 79.6157Z" fill="white"/>
</svg>
