<svg width="353" height="76" viewBox="0 0 353 76" fill="none" xmlns="http://www.w3.org/2000/svg">
<path d="M167.203 5.35962C165.682 7.01524 164.504 8.95564 163.737 11.0689C162.97 13.1821 162.629 15.4263 162.733 17.672V74.3088H172.879V37.2855H184.317V28.9131H172.879V16.7362C172.754 14.5603 173.457 12.4178 174.849 10.7401C175.628 9.99668 176.554 9.42428 177.568 9.0596C178.581 8.69492 179.66 8.546 180.734 8.62239C182.388 8.64057 184.037 8.8137 185.659 9.13951V1.38273C183.399 0.919104 181.095 0.712585 178.789 0.767114C176.645 0.692979 174.51 1.06266 172.516 1.85296C170.522 2.64326 168.713 3.83712 167.203 5.35962Z" fill="white"/>
<path d="M30.4238 33.9377L21.5712 32.017C19.6763 31.6138 17.8537 30.9246 16.1661 29.9731C15.4969 29.4909 14.8818 28.9378 14.3316 28.3233C12.5211 26.2978 11.5638 23.6508 11.6598 20.9359C11.6212 19.307 11.9693 17.6923 12.6756 16.2241C13.3818 14.7559 14.4262 13.476 15.7229 12.4896C18.7116 10.1654 22.4308 8.98239 26.213 9.15294C28.3267 9.08408 30.4314 9.45942 32.3911 10.2547C34.3507 11.05 36.1217 12.2476 37.5896 13.7701C39.5146 15.7731 40.8852 18.2426 41.5665 20.9359L46.6392 17.156L50.3329 14.595C50.062 13.9794 49.7542 13.3638 49.4341 12.7728C49.2617 12.4773 49.1017 12.1818 48.917 11.8986C46.6803 8.16581 43.4315 5.14333 39.5473 3.18145C35.3684 1.0095 30.7125 -0.0825067 26.0037 0.00485896C21.5019 -0.0747401 17.0377 0.837429 12.928 2.67664C9.32446 4.23065 6.24928 6.79687 4.07539 10.064C1.92274 13.2759 0.805554 17.07 0.874177 20.9359C0.874177 31.7953 7.49822 38.5959 20.7463 41.3374L29.5004 43.2828C32.8045 43.898 35.8707 45.4248 38.353 47.6906C39.3605 48.6064 40.173 49.7162 40.7416 50.9534C41.1547 52.0256 41.3635 53.1656 41.3572 54.3146C41.3861 56.0044 41.0153 57.677 40.275 59.1962C39.5346 60.7153 38.4458 62.038 37.0971 63.0564C33.8931 65.4031 29.9834 66.5847 26.016 66.4054C21.5186 66.5725 17.1388 64.9473 13.8391 61.8867C11.7377 59.8185 10.265 57.1974 9.59132 54.327L8.54477 55.0041V54.881L0 60.4585C0.196998 60.951 0.41862 61.4312 0.652554 61.9114C0.886489 62.3915 1.28049 63.1426 1.63754 63.6843C4.00003 67.3364 7.31117 70.2773 11.2166 72.1922C15.6096 74.3088 20.4387 75.3632 25.3142 75.2703C29.9994 75.3657 34.6521 74.4721 38.9686 72.6477C42.6981 71.0151 45.9058 68.3867 48.2398 65.051C50.463 61.811 51.6246 57.9604 51.5641 54.0315C51.5641 43.5824 44.5174 36.8845 30.4238 33.9377Z" fill="white"/>
<path d="M108.203 30.2083L92.9109 56.7538C91.512 59.5224 89.5192 61.9482 87.0748 63.858C84.9787 65.3483 82.4553 66.1174 79.8844 66.0496C77.5873 66.0899 75.3159 65.5611 73.2727 64.5105C71.4145 63.541 69.866 62.0693 68.8033 60.2628C67.7207 58.393 67.1594 56.2671 67.1781 54.1066C67.2028 52.3905 67.4893 50.6882 68.0276 49.0585C68.6028 47.2279 69.3575 45.4587 70.2808 43.7765L84.0706 18.6963L76.1907 14.3008L62.1423 38.8516C60.6437 41.3833 59.4061 44.0606 58.4486 46.8423C57.6948 49.0744 57.2798 51.4068 57.2174 53.7619C57.0954 57.5035 58.055 61.2009 59.9811 64.4111C61.9071 67.6212 64.718 70.2079 68.0769 71.861C71.7511 73.6522 75.7976 74.5467 79.8844 74.4712C84.2019 74.5752 88.4556 73.4155 92.1229 71.1346C96.0313 68.4627 99.2303 64.8791 101.443 60.6937L116.366 34.8378L108.203 30.2083Z" fill="white"/>
<path d="M138.245 24.0226C135.253 26.7436 133.812 28.9475 132.889 33.8724H132.569L133 20.809H123.039V74.3678H133V48.8196C133.035 45.7531 133.537 42.7099 134.49 39.7947C135.645 36.9171 137.594 34.4268 140.109 32.6133C142.624 30.7999 145.603 29.7378 148.698 29.5508H148.833C150.379 29.5433 151.921 29.6876 153.438 29.9817V20.5874C152.283 20.2944 151.096 20.1496 149.905 20.1565C145.558 20.1565 141.311 21.24 138.245 24.0226Z" fill="white"/>
<path d="M351.996 45.5608C352.096 40.5096 350.964 35.5102 348.696 30.9952C346.681 26.8502 343.562 23.3402 339.684 20.8499C335.769 18.4208 331.239 17.1685 326.633 17.2424C321.808 17.1546 317.065 18.4861 312.991 21.0715C308.985 23.5816 305.745 27.1416 303.621 31.3646C301.367 35.9594 300.232 41.0222 300.309 46.1394C300.225 51.379 301.394 56.5629 303.719 61.259C305.899 65.5562 309.256 69.1449 313.398 71.6063C317.54 74.0676 322.297 75.3 327.113 75.1597C331.401 75.2515 335.668 74.5244 339.684 73.0173C342.655 71.6827 345.255 69.641 347.256 67.0704C347.911 66.3424 348.439 65.5101 348.82 64.608L343.205 59.1043C342.013 61.1937 340.373 62.9933 338.403 64.374C335.065 66.6749 331.079 67.8484 327.027 67.723C323.955 67.6701 320.963 66.734 318.408 65.0266C315.895 63.3261 313.844 61.029 312.437 58.341C310.999 55.4114 310.27 52.1851 310.307 48.922H351.762C351.94 47.8107 352.018 46.6859 351.996 45.5608ZM310.331 42.495C310.333 37.8519 312.037 33.3705 315.121 29.8995C316.556 28.3086 318.318 27.0455 320.285 26.1957C322.252 25.3459 324.379 24.9294 326.522 24.9745C329.391 24.923 332.21 25.7243 334.623 27.2769C337.058 28.8325 339.014 31.0314 340.275 33.6301C341.653 36.3833 342.346 39.4288 342.294 42.5073L310.331 42.495Z" fill="white"/>
<path d="M233.267 40.2627C233.267 36.0765 232.578 31.3732 230.645 28.1104C228.749 24.8231 225.95 22.1482 222.58 20.4029C218.981 18.4809 214.95 17.5103 210.871 17.5833C206.903 17.5033 202.97 18.3463 199.384 20.0458C198.17 20.627 197.001 21.2978 195.887 22.0527C195.149 22.5485 194.453 23.1045 193.806 23.7149L196.268 32.3335C197.347 31.0684 198.687 30.0519 200.196 29.3539C203.209 27.4971 206.679 26.5126 210.218 26.5098C213.912 26.5098 217.864 26.8915 220.228 29.3539C222.592 31.8164 223.331 35.941 223.331 39.7702V42.2327L212.484 43.2053C204.752 43.862 198.809 45.7088 194.656 48.7459C192.704 50.0328 191.109 51.7925 190.02 53.8612C188.93 55.9299 188.382 58.2405 188.426 60.5781C188.318 62.6016 188.662 64.6238 189.433 66.4978C190.204 68.3719 191.382 70.0508 192.883 71.4129C195.961 74.0232 200.114 75.3283 205.343 75.3283C210.144 75.3283 214.343 74.4295 217.569 71.967C220.795 69.5045 221.484 68.2733 223.454 64.321H223.824C223.824 70.3294 224.181 71.8192 224.895 74.3433H234.56C233.651 69.2238 233.239 64.0285 233.329 58.8297L233.267 40.2627ZM223.417 52.4273C223.588 56.711 222.127 60.9 219.33 64.1486C218.044 65.6375 216.441 66.8195 214.638 67.6079C212.836 68.3962 210.879 68.7708 208.913 68.7042C206.135 68.8448 203.396 67.9987 201.181 66.3156C200.234 65.5462 199.479 64.5675 198.975 63.4565C198.47 62.3454 198.231 61.1325 198.275 59.9132C198.242 58.4139 198.589 56.9306 199.284 55.602C199.98 54.2734 201.001 53.143 202.252 52.3165C204.904 50.3547 208.7 49.1604 213.641 48.7336L223.417 47.8594V52.4273Z" fill="white"/>
<path d="M262.639 29.0013C265.542 27.3954 268.803 26.5484 272.12 26.5388C274.965 26.5187 277.771 27.2085 280.283 28.5457C282.79 29.8878 285.088 31.5884 287.104 33.5938L293.1 27.5854C291.752 25.7535 290.084 24.1809 288.175 22.9436C285.968 21.3664 283.524 20.1489 280.935 19.3361C278.096 18.3563 275.111 17.8691 272.108 17.8956C268.368 17.8759 264.662 18.6086 261.211 20.0502C257.803 21.4182 254.692 23.4335 252.051 25.9848C249.378 28.5469 247.254 31.6258 245.808 35.0343C244.299 38.6511 243.557 42.5418 243.629 46.4602C243.507 51.7687 244.781 57.0162 247.323 61.6783C249.691 65.8739 253.139 69.3597 257.308 71.7744C261.644 74.153 266.522 75.3663 271.467 75.2957C274.378 75.3225 277.279 74.9454 280.086 74.1753C282.581 73.5168 284.984 72.5489 287.239 71.2942C289.069 70.3363 290.732 69.089 292.164 67.6005L287.67 60.5455C285.901 62.2371 283.878 63.6413 281.674 64.7071C278.982 65.9791 276.032 66.6112 273.056 66.554C269.608 66.5762 266.198 65.8363 263.07 64.387C260.021 62.8907 257.459 60.5595 255.683 57.6644C253.744 54.2531 252.793 50.3692 252.937 46.4479C252.83 42.7333 253.782 39.065 255.683 35.8716C257.359 33.0113 259.758 30.642 262.639 29.0013Z" fill="white"/>
</svg>
