<svg width="134" height="135" viewBox="0 0 134 135" fill="none" xmlns="http://www.w3.org/2000/svg">
<rect x="0.5" y="0.5" width="132.999" height="32.9998" stroke="#2763BD"/>
<rect x="0.5" y="101" width="132.999" height="33.4998" stroke="#2763BD"/>
<rect x="101.117" y="134.441" width="133.939" height="32.3822" transform="rotate(-90 101.117 134.441)" stroke="#2763BD"/>
<rect x="0.5" y="134.5" width="133.999" height="32.4998" transform="rotate(-90 0.5 134.5)" stroke="#2763BD"/>
<path d="M57.5 13.4989C57.5 12.2106 57.9718 11.137 58.9153 10.2781C59.8588 9.42604 61.0381 9 62.4534 9C63.7923 9 64.9266 9.39195 65.8562 10.1759C66.7859 10.9598 67.2507 11.9175 67.2507 13.0491C67.2507 13.867 67.0183 14.6578 66.5535 15.4212C66.1025 16.1711 65.2457 17.1867 63.9831 18.4682L60.1848 22.323V22.3639H67.5004V23.9999H57.5937V22.732L62.88 17.2617C63.886 16.2188 64.5555 15.428 64.8885 14.8895C65.2145 14.351 65.3775 13.775 65.3775 13.1615C65.3775 12.4526 65.0896 11.8493 64.5138 11.3517C63.9311 10.8541 63.2269 10.6053 62.4014 10.6053C61.5203 10.6053 60.7849 10.8814 60.1952 11.4335C59.6055 11.9857 59.3107 12.6741 59.3107 13.4989V13.5092H57.5V13.4989Z" fill="#2763BD"/>
<path d="M73.6714 19.777L70.9345 23.9999H68.9157L72.7556 18.4887L68.9781 12.9775H70.9969L73.7338 17.139H73.7754L76.481 12.9775H78.4999L74.7016 18.4171L78.4478 23.9999H76.429L73.713 19.777H73.6714Z" fill="#2763BD"/>
<path d="M15.2139 121.594L12.5011 126H10.5L14.3062 120.25L10.5619 114.5H12.563L15.2758 118.842H15.317L17.9989 114.5H19.9999L16.235 120.175L19.9484 126H17.9473L15.2551 121.594H15.2139Z" fill="#2763BD"/>
<path fill-rule="evenodd" clip-rule="evenodd" d="M66.999 101.279C85.6229 101.279 100.721 86.1815 100.721 67.5576C100.721 48.9336 85.6229 33.8359 66.999 33.8359C48.375 33.8359 33.2773 48.9336 33.2773 67.5576C33.2773 86.1815 48.375 101.279 66.999 101.279ZM73.3374 76.5368L84.2873 57.8503L90.1325 61.1092L79.4472 79.3103C77.8625 82.2566 75.5719 84.7792 72.7732 86.6601C70.1472 88.2657 67.1013 89.0821 64.0098 89.0089C61.0833 89.062 58.1858 88.4323 55.5549 87.1714C53.1498 86.0077 51.137 84.1869 49.7578 81.9271C48.3787 79.6674 47.6916 77.0646 47.7789 74.4307C47.8236 72.7728 48.1208 71.1309 48.6605 69.5597C49.3462 67.6015 50.2323 65.7168 51.3054 63.9347L61.3649 46.6523L67.0073 49.7465L57.133 67.4016C56.4719 68.5857 55.9315 69.8312 55.5196 71.1198C55.1341 72.267 54.929 73.4653 54.9113 74.6734C54.898 76.1942 55.2999 77.6907 56.0751 79.0069C56.836 80.2786 57.9449 81.3146 59.2754 81.9971C60.7384 82.7367 62.3649 83.1089 64.0098 83.0805C65.8507 83.1282 67.6576 82.5868 69.1585 81.5378C70.9088 80.1934 72.3357 78.4858 73.3374 76.5368Z" fill="#2763BD"/>
</svg>
