<svg width="354" height="110" viewBox="0 0 354 110" fill="none" xmlns="http://www.w3.org/2000/svg">
<path d="M167.68 39.3766C166.155 41.037 164.974 42.9829 164.205 45.1022C163.435 47.2214 163.093 49.472 163.198 51.7241V108.522H173.373V71.3936H184.843V62.9973H173.373V50.7857C173.247 48.6036 173.953 46.455 175.348 44.7725C176.13 44.0269 177.058 43.4529 178.075 43.0872C179.091 42.7214 180.173 42.5721 181.25 42.6487C182.909 42.6669 184.563 42.8406 186.189 43.1673V35.3884C183.923 34.9235 181.612 34.7164 179.299 34.771C177.15 34.6967 175.008 35.0674 173.009 35.86C171.009 36.6525 169.195 37.8498 167.68 39.3766Z" fill="black"/>
<path d="M30.5105 68.0344L21.6327 66.1082C19.7324 65.7039 17.9046 65.0128 16.2122 64.0586C15.5411 63.575 14.9242 63.0202 14.3724 62.404C12.5568 60.3727 11.5968 57.7182 11.693 54.9955C11.6543 53.3621 12.0034 51.7427 12.7117 50.2703C13.42 48.7979 14.4673 47.5144 15.7677 46.5252C18.7649 44.1943 22.4947 43.008 26.2877 43.179C28.4075 43.11 30.5182 43.4864 32.4834 44.284C34.4486 45.0815 36.2247 46.2825 37.6968 47.8093C39.6273 49.818 41.0017 52.2946 41.685 54.9955L46.7721 51.2049L50.4764 48.6366C50.2047 48.0192 49.896 47.4019 49.575 46.8092C49.4021 46.5128 49.2416 46.2165 49.0564 45.9325C46.8133 42.1891 43.5553 39.158 39.66 37.1905C35.4692 35.0124 30.8001 33.9173 26.0778 34.0049C21.5632 33.925 17.0863 34.8398 12.9648 36.6843C9.35104 38.2427 6.26709 40.8162 4.08701 44.0927C1.92822 47.3137 0.80785 51.1186 0.876669 54.9955C0.876669 65.886 7.51959 72.7059 20.8055 75.4553L29.5845 77.4062C32.898 78.0232 35.973 79.5542 38.4623 81.8265C39.4728 82.745 40.2875 83.8579 40.8577 85.0986C41.272 86.1739 41.4814 87.3172 41.4751 88.4695C41.5041 90.164 41.1322 91.8414 40.3898 93.3649C39.6473 94.8884 38.5554 96.2149 37.2029 97.2361C33.9897 99.5895 30.0689 100.774 26.0902 100.595C21.5799 100.762 17.1876 99.1324 13.8785 96.0631C11.7712 93.989 10.2942 91.3605 9.61866 88.4818L8.56913 89.1609V89.0374L0 94.6308C0.197559 95.1247 0.419813 95.6063 0.654414 96.0878C0.889016 96.5694 1.28414 97.3226 1.64221 97.8659C4.01143 101.528 7.33201 104.478 11.2485 106.398C15.6541 108.521 20.497 109.578 25.3864 109.485C30.0849 109.581 34.7509 108.684 39.0797 106.855C42.8198 105.218 46.0367 102.582 48.3773 99.2364C50.6068 95.9872 51.7718 92.1256 51.7111 88.1855C51.7111 77.7066 44.6443 70.9896 30.5105 68.0344Z" fill="black"/>
<path d="M108.512 64.2927L93.1767 90.9138C91.7738 93.6904 89.7754 96.1231 87.324 98.0383C85.222 99.5328 82.6914 100.304 80.1131 100.236C77.8094 100.277 75.5316 99.7463 73.4825 98.6927C71.6191 97.7205 70.0661 96.2445 69.0004 94.4329C67.9147 92.5578 67.3519 90.4258 67.3705 88.2591C67.3953 86.5381 67.6826 84.831 68.2225 83.1967C68.7993 81.3609 69.5562 79.5866 70.4821 77.8996L84.3112 52.7479L76.4089 48.3398L62.3204 72.9607C60.8176 75.4995 59.5765 78.1845 58.6162 80.9741C57.8603 83.2126 57.444 85.5516 57.3815 87.9134C57.2592 91.6657 58.2214 95.3737 60.153 98.593C62.0846 101.812 64.9035 104.406 68.2719 106.064C71.9566 107.86 76.0146 108.758 80.1131 108.682C84.4429 108.786 88.7088 107.623 92.3865 105.336C96.3061 102.656 99.5142 99.0624 101.733 94.865L116.699 68.9354L108.512 64.2927Z" fill="black"/>
<path d="M138.64 58.0922C135.639 60.821 134.195 63.0312 133.269 67.9701H132.948L133.38 54.8695H123.391V108.581H133.38V82.9599C133.415 79.8847 133.919 76.8328 134.874 73.9093C136.032 71.0235 137.987 68.526 140.509 66.7074C143.032 64.8888 146.019 63.8238 149.123 63.6362H149.259C150.808 63.6286 152.355 63.7734 153.876 64.0683V54.6472C152.718 54.3534 151.528 54.2082 150.333 54.2151C145.974 54.2151 141.714 55.3017 138.64 58.0922Z" fill="black"/>
<path d="M352.995 79.6884C353.095 74.6228 351.96 69.6091 349.686 65.0813C347.664 60.9245 344.537 57.4045 340.648 54.907C336.722 52.471 332.179 51.2152 327.559 51.2892C322.721 51.2013 317.964 52.5366 313.878 55.1293C309.862 57.6465 306.612 61.2167 304.482 65.4518C302.222 70.0596 301.083 75.1369 301.16 80.2687C301.076 85.5232 302.249 90.7218 304.581 95.4314C306.766 99.7408 310.133 103.34 314.287 105.808C318.441 108.276 323.211 109.512 328.041 109.372C332.342 109.464 336.62 108.735 340.648 107.223C343.628 105.885 346.235 103.837 348.241 101.259C348.898 100.529 349.428 99.6946 349.809 98.7899L344.179 93.2706C342.983 95.3659 341.339 97.1706 339.363 98.5553C336.016 100.863 332.018 102.039 327.954 101.914C324.874 101.861 321.873 100.922 319.311 99.2097C316.791 97.5044 314.734 95.2007 313.323 92.505C311.881 89.567 311.149 86.3316 311.187 83.0592H352.76C352.938 81.9448 353.017 80.8167 352.995 79.6884ZM311.211 76.6139C311.213 71.9575 312.922 67.4633 316.014 63.9824C317.454 62.3871 319.221 61.1203 321.194 60.2681C323.166 59.4159 325.3 58.9982 327.448 59.0434C330.325 58.9918 333.153 59.7954 335.573 61.3524C338.014 62.9124 339.975 65.1176 341.24 67.7237C342.623 70.4847 343.317 73.5389 343.265 76.6262L311.211 76.6139Z" fill="black"/>
<path d="M233.934 74.3781C233.934 70.18 233.243 65.4633 231.304 62.1912C229.403 58.8945 226.596 56.212 223.216 54.4617C219.607 52.5342 215.565 51.5609 211.474 51.6341C207.495 51.5539 203.551 52.3993 199.954 54.1036C198.737 54.6865 197.564 55.3592 196.447 56.1162C195.707 56.6135 195.009 57.171 194.36 57.7832L196.83 66.4264C197.912 65.1576 199.255 64.1382 200.769 63.4383C203.791 61.5762 207.27 60.5888 210.82 60.586C214.524 60.586 218.487 60.9688 220.858 63.4383C223.229 65.9078 223.97 70.0442 223.97 73.8842V76.3537L213.092 77.3292C205.337 77.9877 199.378 79.8398 195.212 82.8855C193.255 84.1761 191.656 85.9408 190.563 88.0154C189.471 90.09 188.921 92.4072 188.965 94.7514C188.857 96.7807 189.202 98.8087 189.975 100.688C190.748 102.567 191.93 104.251 193.434 105.617C196.521 108.235 200.686 109.544 205.93 109.544C210.746 109.544 214.956 108.642 218.191 106.173C221.426 103.703 222.118 102.469 224.093 98.505H224.464C224.464 104.531 224.822 106.025 225.538 108.556H235.231C234.319 103.422 233.905 98.2117 233.996 92.9981L233.934 74.3781ZM224.056 86.5774C224.227 90.8734 222.762 95.0743 219.957 98.3322C218.667 99.8253 217.06 101.011 215.252 101.801C213.444 102.592 211.483 102.968 209.511 102.901C206.724 103.042 203.978 102.193 201.757 100.505C200.807 99.7338 200.049 98.7522 199.544 97.638C199.038 96.5238 198.798 95.3074 198.843 94.0847C198.809 92.5811 199.157 91.0936 199.854 89.7612C200.552 88.4288 201.576 87.2951 202.831 86.4663C205.49 84.4989 209.297 83.3012 214.252 82.8732L224.056 81.9965V86.5774Z" fill="black"/>
<path d="M263.393 63.0837C266.304 61.4732 269.574 60.6238 272.9 60.6142C275.754 60.5941 278.568 61.2858 281.087 62.6269C283.601 63.9728 285.905 65.6782 287.927 67.6893L293.94 61.6638C292.589 59.8267 290.915 58.2496 289.001 57.0088C286.787 55.4271 284.337 54.2061 281.741 53.391C278.894 52.4084 275.9 51.9198 272.888 51.9463C269.137 51.9266 265.421 52.6614 261.96 54.1071C258.543 55.479 255.423 57.5001 252.774 60.0586C250.094 62.6281 247.964 65.7158 246.514 69.134C245 72.7611 244.256 76.6629 244.328 80.5924C244.206 85.9161 245.483 91.1785 248.033 95.8539C250.408 100.061 253.865 103.557 258.046 105.979C262.394 108.364 267.287 109.581 272.246 109.51C275.165 109.537 278.074 109.159 280.889 108.387C283.391 107.726 285.801 106.755 288.063 105.497C289.898 104.537 291.566 103.286 293.002 101.793L288.495 94.7179C286.721 96.4143 284.692 97.8225 282.482 98.8913C279.782 100.167 276.824 100.801 273.839 100.743C270.381 100.766 266.962 100.024 263.825 98.5703C260.767 97.0697 258.198 94.7319 256.416 91.8286C254.472 88.4075 253.518 84.5125 253.663 80.5801C253.556 76.8549 254.511 73.1761 256.416 69.9736C258.098 67.1052 260.504 64.7292 263.393 63.0837Z" fill="black"/>
<path d="M119.09 21.7817C140.145 21.7817 149.862 1 177.395 1C204.928 1 213.026 21.7817 235.7 21.7817" stroke="#287AF5" stroke-width="2"/>
<path d="M0 21.7817C21.5027 21.7817 31.427 1 59.5458 1C87.6647 1 95.9349 21.7817 119.092 21.7817" stroke="#287AF5" stroke-width="2"/>
<path d="M233.91 21.7817C255.413 21.7817 265.337 1 293.456 1C321.575 1 329.845 21.7817 353.002 21.7817" stroke="#287AF5" stroke-width="2"/>
</svg>
