<svg width="351" height="120" viewBox="0 0 351 120" fill="none" xmlns="http://www.w3.org/2000/svg">
<rect width="351" height="120" rx="14" fill="#A7D22C"/>
<path d="M41.876 44H36.404V31.994H41.75C42.782 31.994 43.598 32.276 44.198 32.84C44.81 33.404 45.116 34.142 45.116 35.054C45.116 35.774 44.912 36.386 44.504 36.89C44.096 37.382 43.598 37.688 43.01 37.808C43.646 37.904 44.192 38.24 44.648 38.816C45.116 39.392 45.35 40.04 45.35 40.76C45.35 41.732 45.038 42.518 44.414 43.118C43.802 43.706 42.956 44 41.876 44ZM41.498 37.196C42.158 37.196 42.668 37.016 43.028 36.656C43.388 36.296 43.568 35.834 43.568 35.27C43.568 34.706 43.382 34.244 43.01 33.884C42.65 33.512 42.146 33.326 41.498 33.326H37.898V37.196H41.498ZM41.57 42.668C42.266 42.668 42.812 42.482 43.208 42.11C43.604 41.738 43.802 41.234 43.802 40.598C43.802 40.01 43.604 39.518 43.208 39.122C42.824 38.726 42.278 38.528 41.57 38.528H37.898V42.668H41.57ZM59.2229 42.902C58.4429 43.778 57.4049 44.216 56.1089 44.216C54.8129 44.216 53.7689 43.778 52.9769 42.902C52.1969 42.026 51.8069 40.94 51.8069 39.644C51.8069 38.348 52.1969 37.268 52.9769 36.404C53.7689 35.528 54.8129 35.09 56.1089 35.09C57.4049 35.09 58.4429 35.528 59.2229 36.404C60.0149 37.268 60.4109 38.348 60.4109 39.644C60.4109 40.94 60.0149 42.026 59.2229 42.902ZM53.9849 42.038C54.5129 42.686 55.2209 43.01 56.1089 43.01C56.9969 43.01 57.6989 42.686 58.2149 42.038C58.7309 41.378 58.9889 40.58 58.9889 39.644C58.9889 38.708 58.7309 37.916 58.2149 37.268C57.6989 36.62 56.9969 36.296 56.1089 36.296C55.2209 36.296 54.5129 36.626 53.9849 37.286C53.4689 37.934 53.2109 38.72 53.2109 39.644C53.2109 40.58 53.4689 41.378 53.9849 42.038ZM69.8477 44H68.4977V36.494H63.9617V44H62.6117V35.306H69.8477V44ZM73.8394 44H72.5434V35.306H73.8934V41.948L78.4474 35.306H79.7794V44H78.4294V37.232L73.8394 44ZM86.309 44.216C85.025 44.216 83.981 43.784 83.177 42.92C82.373 42.044 81.971 40.952 81.971 39.644C81.971 38.336 82.373 37.25 83.177 36.386C83.981 35.522 85.025 35.09 86.309 35.09C87.653 35.09 88.715 35.594 89.495 36.602L88.595 37.43C88.043 36.674 87.305 36.296 86.381 36.296C85.469 36.296 84.737 36.608 84.185 37.232C83.645 37.856 83.375 38.66 83.375 39.644C83.375 40.628 83.645 41.438 84.185 42.074C84.737 42.698 85.469 43.01 86.381 43.01C87.293 43.01 88.031 42.632 88.595 41.876L89.495 42.704C88.715 43.712 87.653 44.216 86.309 44.216ZM98.1731 44H96.8231V43.01C96.0911 43.814 95.1311 44.216 93.9431 44.216C93.1391 44.216 92.4311 43.958 91.8191 43.442C91.2071 42.926 90.9011 42.224 90.9011 41.336C90.9011 40.424 91.2011 39.722 91.8011 39.23C92.4131 38.726 93.1271 38.474 93.9431 38.474C95.1791 38.474 96.1391 38.87 96.8231 39.662V38.096C96.8231 37.52 96.6191 37.07 96.2111 36.746C95.8031 36.422 95.2751 36.26 94.6271 36.26C93.6071 36.26 92.7191 36.662 91.9631 37.466L91.3331 36.53C92.2571 35.57 93.4151 35.09 94.8071 35.09C95.8031 35.09 96.6131 35.33 97.2371 35.81C97.8611 36.29 98.1731 37.028 98.1731 38.024V44ZM94.4291 43.244C95.5091 43.244 96.3071 42.884 96.8231 42.164V40.526C96.3071 39.806 95.5091 39.446 94.4291 39.446C93.8051 39.446 93.2891 39.626 92.8811 39.986C92.4851 40.334 92.2871 40.79 92.2871 41.354C92.2871 41.906 92.4851 42.362 92.8811 42.722C93.2891 43.07 93.8051 43.244 94.4291 43.244ZM103.813 44H102.463V36.494H99.9433V35.306H106.351V36.494H103.813V44ZM112.045 44.216C110.749 44.216 109.687 43.796 108.859 42.956C108.031 42.104 107.617 41 107.617 39.644C107.617 38.372 108.025 37.298 108.841 36.422C109.657 35.534 110.677 35.09 111.901 35.09C113.185 35.09 114.199 35.534 114.943 36.422C115.699 37.298 116.077 38.408 116.077 39.752V40.094H109.039C109.099 40.946 109.411 41.66 109.975 42.236C110.539 42.812 111.271 43.1 112.171 43.1C113.251 43.1 114.145 42.734 114.853 42.002L115.501 42.884C114.613 43.772 113.461 44.216 112.045 44.216ZM114.745 39.104C114.733 38.36 114.481 37.694 113.989 37.106C113.497 36.506 112.795 36.206 111.883 36.206C111.019 36.206 110.335 36.5 109.831 37.088C109.339 37.676 109.075 38.348 109.039 39.104H114.745ZM117.238 44.216V43.1C117.646 43.1 117.982 42.83 118.246 42.29C118.51 41.75 118.726 40.85 118.894 39.59L119.452 35.306H125.5V44H124.15V36.494H120.64L120.244 39.752C120.052 41.348 119.716 42.494 119.236 43.19C118.756 43.874 118.09 44.216 117.238 44.216ZM128.196 35.306H129.546V38.672H132.804C133.668 38.672 134.34 38.93 134.82 39.446C135.3 39.95 135.54 40.58 135.54 41.336C135.54 42.092 135.294 42.728 134.802 43.244C134.322 43.748 133.656 44 132.804 44H128.196V35.306ZM132.66 39.86H129.546V42.812H132.66C133.14 42.812 133.506 42.68 133.758 42.416C134.022 42.14 134.154 41.78 134.154 41.336C134.154 40.892 134.022 40.538 133.758 40.274C133.506 39.998 133.14 39.86 132.66 39.86ZM138.95 44H137.6V35.306H138.95V38.924H143.486V35.306H144.836V44H143.486V40.112H138.95V44ZM147.532 35.306H148.882V38.672H152.14C153.004 38.672 153.676 38.93 154.156 39.446C154.636 39.95 154.876 40.58 154.876 41.336C154.876 42.092 154.63 42.728 154.138 43.244C153.658 43.748 152.992 44 152.14 44H147.532V35.306ZM151.996 39.86H148.882V42.812H151.996C152.476 42.812 152.842 42.68 153.094 42.416C153.358 42.14 153.49 41.78 153.49 41.336C153.49 40.892 153.358 40.538 153.094 40.274C152.842 39.998 152.476 39.86 151.996 39.86ZM157.648 44H156.298V35.306H157.648V44ZM167.546 44H165.98L163.37 40.436L160.76 44H159.212L162.542 39.536L159.392 35.306H160.958L163.37 38.618L165.782 35.306H167.348L164.198 39.536L167.546 44ZM175.415 42.038C175.943 42.686 176.651 43.01 177.539 43.01C178.427 43.01 179.129 42.686 179.645 42.038C180.161 41.378 180.419 40.574 180.419 39.626C180.419 38.702 180.161 37.916 179.645 37.268C179.129 36.62 178.427 36.296 177.539 36.296C176.651 36.296 175.943 36.62 175.415 37.268C174.899 37.916 174.641 38.702 174.641 39.626C174.641 40.574 174.899 41.378 175.415 42.038ZM177.539 44.216C176.231 44.216 175.187 43.754 174.407 42.83C173.627 41.906 173.237 40.712 173.237 39.248C173.237 37.184 173.609 35.66 174.353 34.676C175.097 33.68 176.243 33.08 177.791 32.876C178.715 32.732 179.351 32.594 179.699 32.462C180.059 32.33 180.239 32.174 180.239 31.994H181.553C181.553 32.33 181.451 32.624 181.247 32.876C181.043 33.116 180.749 33.308 180.365 33.452C179.993 33.596 179.639 33.71 179.303 33.794C178.979 33.866 178.589 33.932 178.133 33.992C176.933 34.16 176.063 34.49 175.523 34.982C174.995 35.474 174.647 36.128 174.479 36.944C175.271 35.708 176.363 35.09 177.755 35.09C178.955 35.09 179.933 35.528 180.689 36.404C181.445 37.28 181.823 38.354 181.823 39.626C181.823 40.922 181.433 42.014 180.653 42.902C179.873 43.778 178.835 44.216 177.539 44.216ZM183.103 44.216V43.1C183.511 43.1 183.847 42.83 184.111 42.29C184.375 41.75 184.591 40.85 184.759 39.59L185.317 35.306H191.365V44H190.015V36.494H186.505L186.109 39.752C185.917 41.348 185.581 42.494 185.101 43.19C184.621 43.874 183.955 44.216 183.103 44.216ZM200.973 42.902C200.193 43.778 199.155 44.216 197.859 44.216C196.563 44.216 195.519 43.778 194.727 42.902C193.947 42.026 193.557 40.94 193.557 39.644C193.557 38.348 193.947 37.268 194.727 36.404C195.519 35.528 196.563 35.09 197.859 35.09C199.155 35.09 200.193 35.528 200.973 36.404C201.765 37.268 202.161 38.348 202.161 39.644C202.161 40.94 201.765 42.026 200.973 42.902ZM195.735 42.038C196.263 42.686 196.971 43.01 197.859 43.01C198.747 43.01 199.449 42.686 199.965 42.038C200.481 41.378 200.739 40.58 200.739 39.644C200.739 38.708 200.481 37.916 199.965 37.268C199.449 36.62 198.747 36.296 197.859 36.296C196.971 36.296 196.263 36.626 195.735 37.286C195.219 37.934 194.961 38.72 194.961 39.644C194.961 40.58 195.219 41.378 195.735 42.038ZM212.012 44H210.284L207.152 40.094L205.712 41.516V44H204.362V35.306H205.712V39.932L210.284 35.306H211.994L208.142 39.248L212.012 44ZM220.394 44H219.044V43.01C218.312 43.814 217.352 44.216 216.164 44.216C215.36 44.216 214.652 43.958 214.04 43.442C213.428 42.926 213.122 42.224 213.122 41.336C213.122 40.424 213.422 39.722 214.022 39.23C214.634 38.726 215.348 38.474 216.164 38.474C217.4 38.474 218.36 38.87 219.044 39.662V38.096C219.044 37.52 218.84 37.07 218.432 36.746C218.024 36.422 217.496 36.26 216.848 36.26C215.828 36.26 214.94 36.662 214.184 37.466L213.554 36.53C214.478 35.57 215.636 35.09 217.028 35.09C218.024 35.09 218.834 35.33 219.458 35.81C220.082 36.29 220.394 37.028 220.394 38.024V44ZM216.65 43.244C217.73 43.244 218.528 42.884 219.044 42.164V40.526C218.528 39.806 217.73 39.446 216.65 39.446C216.026 39.446 215.51 39.626 215.102 39.986C214.706 40.334 214.508 40.79 214.508 41.354C214.508 41.906 214.706 42.362 215.102 42.722C215.51 43.07 216.026 43.244 216.65 43.244ZM230.3 44H228.734L226.124 40.436L223.514 44H221.966L225.296 39.536L222.146 35.306H223.712L226.124 38.618L228.536 35.306H230.102L226.952 39.536L230.3 44ZM240.329 44.216C239.045 44.216 238.001 43.784 237.197 42.92C236.393 42.044 235.991 40.952 235.991 39.644C235.991 38.336 236.393 37.25 237.197 36.386C238.001 35.522 239.045 35.09 240.329 35.09C241.673 35.09 242.735 35.594 243.515 36.602L242.615 37.43C242.063 36.674 241.325 36.296 240.401 36.296C239.489 36.296 238.757 36.608 238.205 37.232C237.665 37.856 237.395 38.66 237.395 39.644C237.395 40.628 237.665 41.438 238.205 42.074C238.757 42.698 239.489 43.01 240.401 43.01C241.313 43.01 242.051 42.632 242.615 41.876L243.515 42.704C242.735 43.712 241.673 44.216 240.329 44.216ZM252.319 42.902C251.539 43.778 250.501 44.216 249.205 44.216C247.909 44.216 246.865 43.778 246.073 42.902C245.293 42.026 244.903 40.94 244.903 39.644C244.903 38.348 245.293 37.268 246.073 36.404C246.865 35.528 247.909 35.09 249.205 35.09C250.501 35.09 251.539 35.528 252.319 36.404C253.111 37.268 253.507 38.348 253.507 39.644C253.507 40.94 253.111 42.026 252.319 42.902ZM247.081 42.038C247.609 42.686 248.317 43.01 249.205 43.01C250.093 43.01 250.795 42.686 251.311 42.038C251.827 41.378 252.085 40.58 252.085 39.644C252.085 38.708 251.827 37.916 251.311 37.268C250.795 36.62 250.093 36.296 249.205 36.296C248.317 36.296 247.609 36.626 247.081 37.286C246.565 37.934 246.307 38.72 246.307 39.644C246.307 40.58 246.565 41.378 247.081 42.038ZM255.527 35.306H256.877V37.754C256.877 38.534 257.057 39.074 257.417 39.374C257.777 39.674 258.335 39.824 259.091 39.824C260.027 39.824 260.795 39.668 261.395 39.356V35.306H262.745V44H261.395V40.454C260.627 40.838 259.745 41.03 258.749 41.03C257.621 41.03 256.799 40.802 256.283 40.346C255.779 39.89 255.527 39.164 255.527 38.168V35.306ZM269.37 44.216C268.074 44.216 267.012 43.796 266.184 42.956C265.356 42.104 264.942 41 264.942 39.644C264.942 38.372 265.35 37.298 266.166 36.422C266.982 35.534 268.002 35.09 269.226 35.09C270.51 35.09 271.524 35.534 272.268 36.422C273.024 37.298 273.402 38.408 273.402 39.752V40.094H266.364C266.424 40.946 266.736 41.66 267.3 42.236C267.864 42.812 268.596 43.1 269.496 43.1C270.576 43.1 271.47 42.734 272.178 42.002L272.826 42.884C271.938 43.772 270.786 44.216 269.37 44.216ZM272.07 39.104C272.058 38.36 271.806 37.694 271.314 37.106C270.822 36.506 270.12 36.206 269.208 36.206C268.344 36.206 267.66 36.5 267.156 37.088C266.664 37.676 266.4 38.348 266.364 39.104H272.07ZM278.522 44H277.172V36.494H274.652V35.306H281.06V36.494H278.522V44ZM289.616 44H288.266V43.01C287.534 43.814 286.574 44.216 285.386 44.216C284.582 44.216 283.874 43.958 283.262 43.442C282.65 42.926 282.344 42.224 282.344 41.336C282.344 40.424 282.644 39.722 283.244 39.23C283.856 38.726 284.57 38.474 285.386 38.474C286.622 38.474 287.582 38.87 288.266 39.662V38.096C288.266 37.52 288.062 37.07 287.654 36.746C287.246 36.422 286.718 36.26 286.07 36.26C285.05 36.26 284.162 36.662 283.406 37.466L282.776 36.53C283.7 35.57 284.858 35.09 286.25 35.09C287.246 35.09 288.056 35.33 288.68 35.81C289.304 36.29 289.616 37.028 289.616 38.024V44ZM285.872 43.244C286.952 43.244 287.75 42.884 288.266 42.164V40.526C287.75 39.806 286.952 39.446 285.872 39.446C285.248 39.446 284.732 39.626 284.324 39.986C283.928 40.334 283.73 40.79 283.73 41.354C283.73 41.906 283.928 42.362 284.324 42.722C284.732 43.07 285.248 43.244 285.872 43.244ZM296.247 44.216C294.951 44.216 293.889 43.796 293.061 42.956C292.233 42.104 291.819 41 291.819 39.644C291.819 38.372 292.227 37.298 293.043 36.422C293.859 35.534 294.879 35.09 296.103 35.09C297.387 35.09 298.401 35.534 299.145 36.422C299.901 37.298 300.279 38.408 300.279 39.752V40.094H293.241C293.301 40.946 293.613 41.66 294.177 42.236C294.741 42.812 295.473 43.1 296.373 43.1C297.453 43.1 298.347 42.734 299.055 42.002L299.703 42.884C298.815 43.772 297.663 44.216 296.247 44.216ZM298.947 39.104C298.935 38.36 298.683 37.694 298.191 37.106C297.699 36.506 296.997 36.206 296.085 36.206C295.221 36.206 294.537 36.5 294.033 37.088C293.541 37.676 293.277 38.348 293.241 39.104H298.947ZM311.339 44H309.989V37.178L307.163 44H306.659L303.815 37.178V44H302.465V35.306H304.247L306.911 41.75L309.539 35.306H311.339V44ZM39.14 57.09C40.124 57.09 40.916 57.6 41.516 58.62V53.994H42.866V58.602C43.13 58.146 43.466 57.78 43.874 57.504C44.294 57.228 44.744 57.09 45.224 57.09C46.16 57.09 46.916 57.504 47.492 58.332C48.068 59.148 48.356 60.252 48.356 61.644C48.356 63.036 48.062 64.146 47.474 64.974C46.898 65.802 46.148 66.216 45.224 66.216C44.24 66.216 43.454 65.706 42.866 64.686V69.312H41.516V64.704C41.252 65.16 40.91 65.526 40.49 65.802C40.07 66.078 39.62 66.216 39.14 66.216C38.204 66.216 37.448 65.808 36.872 64.992C36.296 64.164 36.008 63.054 36.008 61.662C36.008 60.27 36.296 59.16 36.872 58.332C37.46 57.504 38.216 57.09 39.14 57.09ZM39.518 58.296C38.858 58.296 38.336 58.614 37.952 59.25C37.568 59.874 37.376 60.678 37.376 61.662C37.376 62.646 37.568 63.45 37.952 64.074C38.336 64.698 38.858 65.01 39.518 65.01C39.926 65.01 40.316 64.878 40.688 64.614C41.06 64.35 41.336 64.02 41.516 63.624V59.7C41.324 59.304 41.042 58.974 40.67 58.71C40.298 58.434 39.914 58.296 39.518 58.296ZM44.846 65.01C45.506 65.01 46.028 64.698 46.412 64.074C46.796 63.438 46.988 62.628 46.988 61.644C46.988 60.66 46.796 59.856 46.412 59.232C46.028 58.608 45.506 58.296 44.846 58.296C44.45 58.296 44.066 58.434 43.694 58.71C43.322 58.974 43.046 59.298 42.866 59.682V63.606C43.058 64.002 43.334 64.338 43.694 64.614C44.066 64.878 44.45 65.01 44.846 65.01ZM57.4973 66H56.1473V65.01C55.4153 65.814 54.4553 66.216 53.2673 66.216C52.4633 66.216 51.7553 65.958 51.1433 65.442C50.5313 64.926 50.2253 64.224 50.2253 63.336C50.2253 62.424 50.5253 61.722 51.1253 61.23C51.7373 60.726 52.4513 60.474 53.2673 60.474C54.5033 60.474 55.4633 60.87 56.1473 61.662V60.096C56.1473 59.52 55.9433 59.07 55.5353 58.746C55.1273 58.422 54.5993 58.26 53.9513 58.26C52.9313 58.26 52.0433 58.662 51.2873 59.466L50.6573 58.53C51.5813 57.57 52.7393 57.09 54.1313 57.09C55.1273 57.09 55.9373 57.33 56.5613 57.81C57.1853 58.29 57.4973 59.028 57.4973 60.024V66ZM53.7533 65.244C54.8333 65.244 55.6313 64.884 56.1473 64.164V62.526C55.6313 61.806 54.8333 61.446 53.7533 61.446C53.1293 61.446 52.6133 61.626 52.2053 61.986C51.8093 62.334 51.6113 62.79 51.6113 63.354C51.6113 63.906 51.8093 64.362 52.2053 64.722C52.6133 65.07 53.1293 65.244 53.7533 65.244ZM67.8535 66H66.1255L62.9935 62.094L61.5535 63.516V66H60.2035V57.306H61.5535V61.932L66.1255 57.306H67.8355L63.9835 61.248L67.8535 66ZM72.3836 66H71.0336V58.494H68.5136V57.306H74.9216V58.494H72.3836V66ZM76.6918 57.306H78.0418V60.672H81.2998C82.1638 60.672 82.8358 60.93 83.3158 61.446C83.7958 61.95 84.0358 62.58 84.0358 63.336C84.0358 64.092 83.7898 64.728 83.2978 65.244C82.8178 65.748 82.1518 66 81.2998 66H76.6918V57.306ZM81.1558 61.86H78.0418V64.812H81.1558C81.6358 64.812 82.0018 64.68 82.2538 64.416C82.5178 64.14 82.6498 63.78 82.6498 63.336C82.6498 62.892 82.5178 62.538 82.2538 62.274C82.0018 61.998 81.6358 61.86 81.1558 61.86ZM86.8078 66H85.4578V57.306H86.8078V66ZM101.059 64.902C100.279 65.778 99.2409 66.216 97.9449 66.216C96.6489 66.216 95.6049 65.778 94.8129 64.902C94.0329 64.026 93.6429 62.94 93.6429 61.644C93.6429 60.348 94.0329 59.268 94.8129 58.404C95.6049 57.528 96.6489 57.09 97.9449 57.09C99.2409 57.09 100.279 57.528 101.059 58.404C101.851 59.268 102.247 60.348 102.247 61.644C102.247 62.94 101.851 64.026 101.059 64.902ZM95.8209 64.038C96.3489 64.686 97.0569 65.01 97.9449 65.01C98.8329 65.01 99.5349 64.686 100.051 64.038C100.567 63.378 100.825 62.58 100.825 61.644C100.825 60.708 100.567 59.916 100.051 59.268C99.5349 58.62 98.8329 58.296 97.9449 58.296C97.0569 58.296 96.3489 58.626 95.8209 59.286C95.3049 59.934 95.0469 60.72 95.0469 61.644C95.0469 62.58 95.3049 63.378 95.8209 64.038ZM117.962 66H116.612V59.178L113.786 66H113.282L110.438 59.178V66H109.088V57.306H110.87L113.534 63.75L116.162 57.306H117.962V66ZM121.951 66H120.655V57.306H122.005V63.948L126.559 57.306H127.891V66H126.541V59.232L121.951 66ZM134.87 66.216C133.646 66.216 132.668 65.706 131.936 64.686V69.312H130.586V57.306H131.936V58.602C132.26 58.146 132.68 57.78 133.196 57.504C133.712 57.228 134.27 57.09 134.87 57.09C136.022 57.09 136.952 57.504 137.66 58.332C138.38 59.148 138.74 60.252 138.74 61.644C138.74 63.036 138.38 64.146 137.66 64.974C136.952 65.802 136.022 66.216 134.87 66.216ZM134.528 65.01C135.38 65.01 136.058 64.698 136.562 64.074C137.066 63.438 137.318 62.628 137.318 61.644C137.318 60.66 137.066 59.856 136.562 59.232C136.058 58.608 135.38 58.296 134.528 58.296C134.012 58.296 133.508 58.434 133.016 58.71C132.536 58.974 132.176 59.298 131.936 59.682V63.606C132.176 64.002 132.536 64.338 133.016 64.614C133.508 64.878 134.012 65.01 134.528 65.01ZM144.811 66.216C143.515 66.216 142.453 65.796 141.625 64.956C140.797 64.104 140.383 63 140.383 61.644C140.383 60.372 140.791 59.298 141.607 58.422C142.423 57.534 143.443 57.09 144.667 57.09C145.951 57.09 146.965 57.534 147.709 58.422C148.465 59.298 148.843 60.408 148.843 61.752V62.094H141.805C141.865 62.946 142.177 63.66 142.741 64.236C143.305 64.812 144.037 65.1 144.937 65.1C146.017 65.1 146.911 64.734 147.619 64.002L148.267 64.884C147.379 65.772 146.227 66.216 144.811 66.216ZM147.511 61.104C147.499 60.36 147.247 59.694 146.755 59.106C146.263 58.506 145.561 58.206 144.649 58.206C143.785 58.206 143.101 58.5 142.597 59.088C142.105 59.676 141.841 60.348 141.805 61.104H147.511ZM159.504 66.216C158.22 66.216 157.176 65.784 156.372 64.92C155.568 64.044 155.166 62.952 155.166 61.644C155.166 60.336 155.568 59.25 156.372 58.386C157.176 57.522 158.22 57.09 159.504 57.09C160.848 57.09 161.91 57.594 162.69 58.602L161.79 59.43C161.238 58.674 160.5 58.296 159.576 58.296C158.664 58.296 157.932 58.608 157.38 59.232C156.84 59.856 156.57 60.66 156.57 61.644C156.57 62.628 156.84 63.438 157.38 64.074C157.932 64.698 158.664 65.01 159.576 65.01C160.488 65.01 161.226 64.632 161.79 63.876L162.69 64.704C161.91 65.712 160.848 66.216 159.504 66.216ZM168.506 66.216C167.21 66.216 166.148 65.796 165.32 64.956C164.492 64.104 164.078 63 164.078 61.644C164.078 60.372 164.486 59.298 165.302 58.422C166.118 57.534 167.138 57.09 168.362 57.09C169.646 57.09 170.66 57.534 171.404 58.422C172.16 59.298 172.538 60.408 172.538 61.752V62.094H165.5C165.56 62.946 165.872 63.66 166.436 64.236C167 64.812 167.732 65.1 168.632 65.1C169.712 65.1 170.606 64.734 171.314 64.002L171.962 64.884C171.074 65.772 169.922 66.216 168.506 66.216ZM171.206 61.104C171.194 60.36 170.942 59.694 170.45 59.106C169.958 58.506 169.256 58.206 168.344 58.206C167.48 58.206 166.796 58.5 166.292 59.088C165.8 59.676 165.536 60.348 165.5 61.104H171.206ZM179.009 66.216C177.785 66.216 176.807 65.706 176.075 64.686V69.312H174.725V57.306H176.075V58.602C176.399 58.146 176.819 57.78 177.335 57.504C177.851 57.228 178.409 57.09 179.009 57.09C180.161 57.09 181.091 57.504 181.799 58.332C182.519 59.148 182.879 60.252 182.879 61.644C182.879 63.036 182.519 64.146 181.799 64.974C181.091 65.802 180.161 66.216 179.009 66.216ZM178.667 65.01C179.519 65.01 180.197 64.698 180.701 64.074C181.205 63.438 181.457 62.628 181.457 61.644C181.457 60.66 181.205 59.856 180.701 59.232C180.197 58.608 179.519 58.296 178.667 58.296C178.151 58.296 177.647 58.434 177.155 58.71C176.675 58.974 176.315 59.298 176.075 59.682V63.606C176.315 64.002 176.675 64.338 177.155 64.614C177.647 64.878 178.151 65.01 178.667 65.01ZM187.816 57.09C188.8 57.09 189.592 57.6 190.192 58.62V53.994H191.542V58.602C191.806 58.146 192.142 57.78 192.55 57.504C192.97 57.228 193.42 57.09 193.9 57.09C194.836 57.09 195.592 57.504 196.168 58.332C196.744 59.148 197.032 60.252 197.032 61.644C197.032 63.036 196.738 64.146 196.15 64.974C195.574 65.802 194.824 66.216 193.9 66.216C192.916 66.216 192.13 65.706 191.542 64.686V69.312H190.192V64.704C189.928 65.16 189.586 65.526 189.166 65.802C188.746 66.078 188.296 66.216 187.816 66.216C186.88 66.216 186.124 65.808 185.548 64.992C184.972 64.164 184.684 63.054 184.684 61.662C184.684 60.27 184.972 59.16 185.548 58.332C186.136 57.504 186.892 57.09 187.816 57.09ZM188.194 58.296C187.534 58.296 187.012 58.614 186.628 59.25C186.244 59.874 186.052 60.678 186.052 61.662C186.052 62.646 186.244 63.45 186.628 64.074C187.012 64.698 187.534 65.01 188.194 65.01C188.602 65.01 188.992 64.878 189.364 64.614C189.736 64.35 190.012 64.02 190.192 63.624V59.7C190 59.304 189.718 58.974 189.346 58.71C188.974 58.434 188.59 58.296 188.194 58.296ZM193.522 65.01C194.182 65.01 194.704 64.698 195.088 64.074C195.472 63.438 195.664 62.628 195.664 61.644C195.664 60.66 195.472 59.856 195.088 59.232C194.704 58.608 194.182 58.296 193.522 58.296C193.126 58.296 192.742 58.434 192.37 58.71C191.998 58.974 191.722 59.298 191.542 59.682V63.606C191.734 64.002 192.01 64.338 192.37 64.614C192.742 64.878 193.126 65.01 193.522 65.01ZM200.683 66H199.387V57.306H200.737V63.948L205.291 57.306H206.623V66H205.273V59.232L200.683 66ZM210.669 66H209.319V57.306H210.669V60.924H215.205V57.306H216.555V66H215.205V62.112H210.669V66ZM225.334 57.306V58.494H220.6V66H219.25V57.306H225.334ZM233.876 66H232.526V65.01C231.794 65.814 230.834 66.216 229.646 66.216C228.842 66.216 228.134 65.958 227.522 65.442C226.91 64.926 226.604 64.224 226.604 63.336C226.604 62.424 226.904 61.722 227.504 61.23C228.116 60.726 228.83 60.474 229.646 60.474C230.882 60.474 231.842 60.87 232.526 61.662V60.096C232.526 59.52 232.322 59.07 231.914 58.746C231.506 58.422 230.978 58.26 230.33 58.26C229.31 58.26 228.422 58.662 227.666 59.466L227.036 58.53C227.96 57.57 229.118 57.09 230.51 57.09C231.506 57.09 232.316 57.33 232.94 57.81C233.564 58.29 233.876 59.028 233.876 60.024V66ZM230.132 65.244C231.212 65.244 232.01 64.884 232.526 64.164V62.526C232.01 61.806 231.212 61.446 230.132 61.446C229.508 61.446 228.992 61.626 228.584 61.986C228.188 62.334 227.99 62.79 227.99 63.354C227.99 63.906 228.188 64.362 228.584 64.722C228.992 65.07 229.508 65.244 230.132 65.244ZM40.184 88.216C38.9 88.216 37.856 87.784 37.052 86.92C36.248 86.044 35.846 84.952 35.846 83.644C35.846 82.336 36.248 81.25 37.052 80.386C37.856 79.522 38.9 79.09 40.184 79.09C41.528 79.09 42.59 79.594 43.37 80.602L42.47 81.43C41.918 80.674 41.18 80.296 40.256 80.296C39.344 80.296 38.612 80.608 38.06 81.232C37.52 81.856 37.25 82.66 37.25 83.644C37.25 84.628 37.52 85.438 38.06 86.074C38.612 86.698 39.344 87.01 40.256 87.01C41.168 87.01 41.906 86.632 42.47 85.876L43.37 86.704C42.59 87.712 41.528 88.216 40.184 88.216ZM58.7767 88H57.4267V81.178L54.6007 88H54.0967L51.2527 81.178V88H49.9027V79.306H51.6847L54.3487 85.75L56.9767 79.306H58.7767V88ZM68.3811 86.902C67.6011 87.778 66.5631 88.216 65.2671 88.216C63.9711 88.216 62.9271 87.778 62.1351 86.902C61.3551 86.026 60.9651 84.94 60.9651 83.644C60.9651 82.348 61.3551 81.268 62.1351 80.404C62.9271 79.528 63.9711 79.09 65.2671 79.09C66.5631 79.09 67.6011 79.528 68.3811 80.404C69.1731 81.268 69.5691 82.348 69.5691 83.644C69.5691 84.94 69.1731 86.026 68.3811 86.902ZM63.1431 86.038C63.6711 86.686 64.3791 87.01 65.2671 87.01C66.1551 87.01 66.8571 86.686 67.3731 86.038C67.8891 85.378 68.1471 84.58 68.1471 83.644C68.1471 82.708 67.8891 81.916 67.3731 81.268C66.8571 80.62 66.1551 80.296 65.2671 80.296C64.3791 80.296 63.6711 80.626 63.1431 81.286C62.6271 81.934 62.3691 82.72 62.3691 83.644C62.3691 84.58 62.6271 85.378 63.1431 86.038ZM74.7039 88H73.3539V80.494H70.8339V79.306H77.2419V80.494H74.7039V88ZM80.3081 88H79.0121V79.306H80.3621V85.948L84.9161 79.306H86.2481V88H84.8981V81.232L80.3081 88ZM93.8218 88H88.9438V79.306H93.7318C94.4878 79.306 95.0818 79.51 95.5138 79.918C95.9578 80.326 96.1798 80.866 96.1798 81.538C96.1798 82.03 96.0418 82.456 95.7658 82.816C95.5018 83.164 95.1718 83.398 94.7758 83.518C95.2198 83.626 95.5918 83.884 95.8918 84.292C96.2038 84.7 96.3598 85.15 96.3598 85.642C96.3598 86.35 96.1318 86.92 95.6758 87.352C95.2318 87.784 94.6138 88 93.8218 88ZM93.5518 86.812C93.9838 86.812 94.3258 86.692 94.5778 86.452C94.8298 86.212 94.9558 85.888 94.9558 85.48C94.9558 85.108 94.8298 84.79 94.5778 84.526C94.3258 84.262 93.9838 84.13 93.5518 84.13H90.2938V86.812H93.5518ZM93.4978 82.942C93.9058 82.942 94.2238 82.834 94.4518 82.618C94.6798 82.39 94.7938 82.096 94.7938 81.736C94.7938 81.352 94.6798 81.052 94.4518 80.836C94.2238 80.608 93.9058 80.494 93.4978 80.494H90.2938V82.942H93.4978ZM100.207 88H98.9105V79.306H100.261V85.948L104.815 79.306H106.147V88H104.797V81.232L100.207 88ZM113.126 88.216C111.902 88.216 110.924 87.706 110.192 86.686V91.312H108.842V79.306H110.192V80.602C110.516 80.146 110.936 79.78 111.452 79.504C111.968 79.228 112.526 79.09 113.126 79.09C114.278 79.09 115.208 79.504 115.916 80.332C116.636 81.148 116.996 82.252 116.996 83.644C116.996 85.036 116.636 86.146 115.916 86.974C115.208 87.802 114.278 88.216 113.126 88.216ZM112.784 87.01C113.636 87.01 114.314 86.698 114.818 86.074C115.322 85.438 115.574 84.628 115.574 83.644C115.574 82.66 115.322 81.856 114.818 81.232C114.314 80.608 113.636 80.296 112.784 80.296C112.268 80.296 111.764 80.434 111.272 80.71C110.792 80.974 110.432 81.298 110.192 81.682V85.606C110.432 86.002 110.792 86.338 111.272 86.614C111.764 86.878 112.268 87.01 112.784 87.01ZM118.657 91.402L118.873 90.178C119.089 90.274 119.335 90.322 119.611 90.322C119.923 90.322 120.181 90.256 120.385 90.124C120.589 89.992 120.763 89.752 120.907 89.404L121.483 88.09L117.847 79.306H119.305L122.203 86.434L125.083 79.306H126.559L122.203 89.764C121.723 90.916 120.871 91.504 119.647 91.528C119.287 91.528 118.957 91.486 118.657 91.402ZM135.257 88.216C134.057 88.216 133.067 87.832 132.287 87.064C131.519 86.284 131.087 85.3 130.991 84.112H129.317V88H127.967V79.306H129.317V82.924H131.009C131.153 81.808 131.603 80.89 132.359 80.17C133.127 79.45 134.093 79.09 135.257 79.09C136.553 79.09 137.597 79.528 138.389 80.404C139.181 81.268 139.577 82.348 139.577 83.644C139.577 84.94 139.181 86.026 138.389 86.902C137.597 87.778 136.553 88.216 135.257 88.216ZM135.257 87.01C136.157 87.01 136.865 86.686 137.381 86.038C137.897 85.378 138.155 84.58 138.155 83.644C138.155 82.708 137.897 81.916 137.381 81.268C136.865 80.62 136.157 80.296 135.257 80.296C134.381 80.296 133.679 80.626 133.151 81.286C132.635 81.934 132.377 82.72 132.377 83.644C132.377 84.58 132.635 85.378 133.151 86.038C133.667 86.686 134.369 87.01 135.257 87.01ZM151.81 79.306H153.16V86.812H154.276V90.214H152.926V88H141.766V79.306H143.116V86.812H146.788V79.306H148.138V86.812H151.81V79.306ZM157.423 88H156.127V79.306H157.477V85.948L162.031 79.306H163.363V88H162.013V81.232L157.423 88ZM174.933 88H173.583V81.178L170.757 88H170.253L167.409 81.178V88H166.059V79.306H167.841L170.505 85.75L173.133 79.306H174.933V88ZM178.921 88H177.625V79.306H178.975V85.948L183.529 79.306H184.861V88H183.511V81.232L178.921 88ZM194.988 79.09C195.972 79.09 196.764 79.6 197.364 80.62V75.994H198.714V80.602C198.978 80.146 199.314 79.78 199.722 79.504C200.142 79.228 200.592 79.09 201.072 79.09C202.008 79.09 202.764 79.504 203.34 80.332C203.916 81.148 204.204 82.252 204.204 83.644C204.204 85.036 203.91 86.146 203.322 86.974C202.746 87.802 201.996 88.216 201.072 88.216C200.088 88.216 199.302 87.706 198.714 86.686V91.312H197.364V86.704C197.1 87.16 196.758 87.526 196.338 87.802C195.918 88.078 195.468 88.216 194.988 88.216C194.052 88.216 193.296 87.808 192.72 86.992C192.144 86.164 191.856 85.054 191.856 83.662C191.856 82.27 192.144 81.16 192.72 80.332C193.308 79.504 194.064 79.09 194.988 79.09ZM195.366 80.296C194.706 80.296 194.184 80.614 193.8 81.25C193.416 81.874 193.224 82.678 193.224 83.662C193.224 84.646 193.416 85.45 193.8 86.074C194.184 86.698 194.706 87.01 195.366 87.01C195.774 87.01 196.164 86.878 196.536 86.614C196.908 86.35 197.184 86.02 197.364 85.624V81.7C197.172 81.304 196.89 80.974 196.518 80.71C196.146 80.434 195.762 80.296 195.366 80.296ZM200.694 87.01C201.354 87.01 201.876 86.698 202.26 86.074C202.644 85.438 202.836 84.628 202.836 83.644C202.836 82.66 202.644 81.856 202.26 81.232C201.876 80.608 201.354 80.296 200.694 80.296C200.298 80.296 199.914 80.434 199.542 80.71C199.17 80.974 198.894 81.298 198.714 81.682V85.606C198.906 86.002 199.182 86.338 199.542 86.614C199.914 86.878 200.298 87.01 200.694 87.01ZM210.843 88.216C209.619 88.216 208.641 87.706 207.909 86.686V91.312H206.559V79.306H207.909V80.602C208.233 80.146 208.653 79.78 209.169 79.504C209.685 79.228 210.243 79.09 210.843 79.09C211.995 79.09 212.925 79.504 213.633 80.332C214.353 81.148 214.713 82.252 214.713 83.644C214.713 85.036 214.353 86.146 213.633 86.974C212.925 87.802 211.995 88.216 210.843 88.216ZM210.501 87.01C211.353 87.01 212.031 86.698 212.535 86.074C213.039 85.438 213.291 84.628 213.291 83.644C213.291 82.66 213.039 81.856 212.535 81.232C212.031 80.608 211.353 80.296 210.501 80.296C209.985 80.296 209.481 80.434 208.989 80.71C208.509 80.974 208.149 81.298 207.909 81.682V85.606C208.149 86.002 208.509 86.338 208.989 86.614C209.481 86.878 209.985 87.01 210.501 87.01ZM223.646 88H222.296V87.01C221.564 87.814 220.604 88.216 219.416 88.216C218.612 88.216 217.904 87.958 217.292 87.442C216.68 86.926 216.374 86.224 216.374 85.336C216.374 84.424 216.674 83.722 217.274 83.23C217.886 82.726 218.6 82.474 219.416 82.474C220.652 82.474 221.612 82.87 222.296 83.662V82.096C222.296 81.52 222.092 81.07 221.684 80.746C221.276 80.422 220.748 80.26 220.1 80.26C219.08 80.26 218.192 80.662 217.436 81.466L216.806 80.53C217.73 79.57 218.888 79.09 220.28 79.09C221.276 79.09 222.086 79.33 222.71 79.81C223.334 80.29 223.646 81.028 223.646 82.024V88ZM219.902 87.244C220.982 87.244 221.78 86.884 222.296 86.164V84.526C221.78 83.806 220.982 83.446 219.902 83.446C219.278 83.446 218.762 83.626 218.354 83.986C217.958 84.334 217.76 84.79 217.76 85.354C217.76 85.906 217.958 86.362 218.354 86.722C218.762 87.07 219.278 87.244 219.902 87.244ZM229.43 88.216C227.762 88.216 226.454 87.742 225.506 86.794L226.172 85.93C226.988 86.71 228.074 87.1 229.43 87.1C230.21 87.1 230.828 86.962 231.284 86.686C231.752 86.41 231.986 86.044 231.986 85.588C231.986 84.628 231.074 84.148 229.25 84.148H227.306V83.05H229.25C230.006 83.05 230.624 82.93 231.104 82.69C231.584 82.438 231.824 82.072 231.824 81.592C231.824 81.184 231.584 80.854 231.104 80.602C230.624 80.338 230.018 80.206 229.286 80.206C228.074 80.206 227.102 80.578 226.37 81.322L225.668 80.494C226.568 79.57 227.756 79.108 229.232 79.108C230.42 79.096 231.38 79.3 232.112 79.72C232.856 80.128 233.228 80.698 233.228 81.43C233.228 82.03 232.982 82.516 232.49 82.888C232.01 83.26 231.476 83.482 230.888 83.554C231.5 83.602 232.07 83.806 232.598 84.166C233.138 84.526 233.408 85.03 233.408 85.678C233.408 86.422 233.048 87.034 232.328 87.514C231.62 87.982 230.654 88.216 229.43 88.216ZM242.384 88H241.034V87.01C240.302 87.814 239.342 88.216 238.154 88.216C237.35 88.216 236.642 87.958 236.03 87.442C235.418 86.926 235.112 86.224 235.112 85.336C235.112 84.424 235.412 83.722 236.012 83.23C236.624 82.726 237.338 82.474 238.154 82.474C239.39 82.474 240.35 82.87 241.034 83.662V82.096C241.034 81.52 240.83 81.07 240.422 80.746C240.014 80.422 239.486 80.26 238.838 80.26C237.818 80.26 236.93 80.662 236.174 81.466L235.544 80.53C236.468 79.57 237.626 79.09 239.018 79.09C240.014 79.09 240.824 79.33 241.448 79.81C242.072 80.29 242.384 81.028 242.384 82.024V88ZM238.64 87.244C239.72 87.244 240.518 86.884 241.034 86.164V84.526C240.518 83.806 239.72 83.446 238.64 83.446C238.016 83.446 237.5 83.626 237.092 83.986C236.696 84.334 236.498 84.79 236.498 85.354C236.498 85.906 236.696 86.362 237.092 86.722C237.5 87.07 238.016 87.244 238.64 87.244ZM253.964 88H252.614V81.178L249.788 88H249.284L246.44 81.178V88H245.09V79.306H246.872L249.536 85.75L252.164 79.306H253.964V88ZM257.953 88H256.657V79.306H258.007V85.948L262.561 79.306H263.893V88H262.543V81.232L257.953 88ZM268.01 87.892C267.818 88.084 267.584 88.18 267.308 88.18C267.032 88.18 266.798 88.084 266.606 87.892C266.414 87.7 266.318 87.466 266.318 87.19C266.318 86.914 266.414 86.68 266.606 86.488C266.798 86.296 267.032 86.2 267.308 86.2C267.584 86.2 267.818 86.296 268.01 86.488C268.202 86.68 268.298 86.914 268.298 87.19C268.298 87.466 268.202 87.7 268.01 87.892Z" fill="white"/>
</svg>
