<svg width="351" height="120" viewBox="0 0 351 120" fill="none" xmlns="http://www.w3.org/2000/svg">
<rect width="351" height="120" rx="14" fill="#2763BD"/>
<path d="M48.158 44H46.664V34.118L42.578 44H41.966L37.898 34.118V44H36.404V31.994H38.546L42.272 41.03L46.016 31.994H48.158V44ZM50.9047 35.306H52.2547V38.672H55.5127C56.3767 38.672 57.0487 38.93 57.5287 39.446C58.0087 39.95 58.2487 40.58 58.2487 41.336C58.2487 42.092 58.0027 42.728 57.5107 43.244C57.0307 43.748 56.3647 44 55.5127 44H50.9047V35.306ZM55.3687 39.86H52.2547V42.812H55.3687C55.8487 42.812 56.2147 42.68 56.4667 42.416C56.7307 42.14 56.8627 41.78 56.8627 41.336C56.8627 40.892 56.7307 40.538 56.4667 40.274C56.2147 39.998 55.8487 39.86 55.3687 39.86ZM61.0207 44H59.6707V35.306H61.0207V44ZM75.2718 42.902C74.4918 43.778 73.4538 44.216 72.1578 44.216C70.8618 44.216 69.8178 43.778 69.0258 42.902C68.2458 42.026 67.8558 40.94 67.8558 39.644C67.8558 38.348 68.2458 37.268 69.0258 36.404C69.8178 35.528 70.8618 35.09 72.1578 35.09C73.4538 35.09 74.4918 35.528 75.2718 36.404C76.0638 37.268 76.4598 38.348 76.4598 39.644C76.4598 40.94 76.0638 42.026 75.2718 42.902ZM70.0338 42.038C70.5618 42.686 71.2698 43.01 72.1578 43.01C73.0458 43.01 73.7478 42.686 74.2638 42.038C74.7798 41.378 75.0378 40.58 75.0378 39.644C75.0378 38.708 74.7798 37.916 74.2638 37.268C73.7478 36.62 73.0458 36.296 72.1578 36.296C71.2698 36.296 70.5618 36.626 70.0338 37.286C69.5178 37.934 69.2598 38.72 69.2598 39.644C69.2598 40.58 69.5178 41.378 70.0338 42.038ZM80.3345 42.038C80.8625 42.686 81.5705 43.01 82.4585 43.01C83.3465 43.01 84.0485 42.686 84.5645 42.038C85.0805 41.378 85.3385 40.574 85.3385 39.626C85.3385 38.702 85.0805 37.916 84.5645 37.268C84.0485 36.62 83.3465 36.296 82.4585 36.296C81.5705 36.296 80.8625 36.62 80.3345 37.268C79.8185 37.916 79.5605 38.702 79.5605 39.626C79.5605 40.574 79.8185 41.378 80.3345 42.038ZM82.4585 44.216C81.1505 44.216 80.1065 43.754 79.3265 42.83C78.5465 41.906 78.1565 40.712 78.1565 39.248C78.1565 37.184 78.5285 35.66 79.2725 34.676C80.0165 33.68 81.1625 33.08 82.7105 32.876C83.6345 32.732 84.2705 32.594 84.6185 32.462C84.9785 32.33 85.1585 32.174 85.1585 31.994H86.4725C86.4725 32.33 86.3705 32.624 86.1665 32.876C85.9625 33.116 85.6685 33.308 85.2845 33.452C84.9125 33.596 84.5585 33.71 84.2225 33.794C83.8985 33.866 83.5085 33.932 83.0525 33.992C81.8525 34.16 80.9825 34.49 80.4425 34.982C79.9145 35.474 79.5665 36.128 79.3985 36.944C80.1905 35.708 81.2825 35.09 82.6745 35.09C83.8745 35.09 84.8525 35.528 85.6085 36.404C86.3645 37.28 86.7425 38.354 86.7425 39.626C86.7425 40.922 86.3525 42.014 85.5725 42.902C84.7925 43.778 83.7545 44.216 82.4585 44.216ZM93.3332 44.216C92.1092 44.216 91.1312 43.706 90.3992 42.686V47.312H89.0492V35.306H90.3992V36.602C90.7232 36.146 91.1432 35.78 91.6592 35.504C92.1752 35.228 92.7332 35.09 93.3332 35.09C94.4852 35.09 95.4152 35.504 96.1232 36.332C96.8432 37.148 97.2032 38.252 97.2032 39.644C97.2032 41.036 96.8432 42.146 96.1232 42.974C95.4152 43.802 94.4852 44.216 93.3332 44.216ZM92.9912 43.01C93.8432 43.01 94.5212 42.698 95.0252 42.074C95.5292 41.438 95.7812 40.628 95.7812 39.644C95.7812 38.66 95.5292 37.856 95.0252 37.232C94.5212 36.608 93.8432 36.296 92.9912 36.296C92.4752 36.296 91.9712 36.434 91.4792 36.71C90.9992 36.974 90.6392 37.298 90.3992 37.682V41.606C90.6392 42.002 90.9992 42.338 91.4792 42.614C91.9712 42.878 92.4752 43.01 92.9912 43.01ZM106.136 44H104.786V43.01C104.054 43.814 103.094 44.216 101.906 44.216C101.102 44.216 100.394 43.958 99.782 43.442C99.17 42.926 98.864 42.224 98.864 41.336C98.864 40.424 99.164 39.722 99.764 39.23C100.376 38.726 101.09 38.474 101.906 38.474C103.142 38.474 104.102 38.87 104.786 39.662V38.096C104.786 37.52 104.582 37.07 104.174 36.746C103.766 36.422 103.238 36.26 102.59 36.26C101.57 36.26 100.682 36.662 99.926 37.466L99.296 36.53C100.22 35.57 101.378 35.09 102.77 35.09C103.766 35.09 104.576 35.33 105.2 35.81C105.824 36.29 106.136 37.028 106.136 38.024V44ZM102.392 43.244C103.472 43.244 104.27 42.884 104.786 42.164V40.526C104.27 39.806 103.472 39.446 102.392 39.446C101.768 39.446 101.252 39.626 100.844 39.986C100.448 40.334 100.25 40.79 100.25 41.354C100.25 41.906 100.448 42.362 100.844 42.722C101.252 43.07 101.768 43.244 102.392 43.244ZM118.886 35.306H120.236V42.812H121.352V46.214H120.002V44H108.842V35.306H110.192V42.812H113.864V35.306H115.214V42.812H118.886V35.306ZM129.99 44H128.64V43.01C127.908 43.814 126.948 44.216 125.76 44.216C124.956 44.216 124.248 43.958 123.636 43.442C123.024 42.926 122.718 42.224 122.718 41.336C122.718 40.424 123.018 39.722 123.618 39.23C124.23 38.726 124.944 38.474 125.76 38.474C126.996 38.474 127.956 38.87 128.64 39.662V38.096C128.64 37.52 128.436 37.07 128.028 36.746C127.62 36.422 127.092 36.26 126.444 36.26C125.424 36.26 124.536 36.662 123.78 37.466L123.15 36.53C124.074 35.57 125.232 35.09 126.624 35.09C127.62 35.09 128.43 35.33 129.054 35.81C129.678 36.29 129.99 37.028 129.99 38.024V44ZM126.246 43.244C127.326 43.244 128.124 42.884 128.64 42.164V40.526C128.124 39.806 127.326 39.446 126.246 39.446C125.622 39.446 125.106 39.626 124.698 39.986C124.302 40.334 124.104 40.79 124.104 41.354C124.104 41.906 124.302 42.362 124.698 42.722C125.106 43.07 125.622 43.244 126.246 43.244ZM136.62 44.216C135.324 44.216 134.262 43.796 133.434 42.956C132.606 42.104 132.192 41 132.192 39.644C132.192 38.372 132.6 37.298 133.416 36.422C134.232 35.534 135.252 35.09 136.476 35.09C137.76 35.09 138.774 35.534 139.518 36.422C140.274 37.298 140.652 38.408 140.652 39.752V40.094H133.614C133.674 40.946 133.986 41.66 134.55 42.236C135.114 42.812 135.846 43.1 136.746 43.1C137.826 43.1 138.72 42.734 139.428 42.002L140.076 42.884C139.188 43.772 138.036 44.216 136.62 44.216ZM139.32 39.104C139.308 38.36 139.056 37.694 138.564 37.106C138.072 36.506 137.37 36.206 136.458 36.206C135.594 36.206 134.91 36.5 134.406 37.088C133.914 37.676 133.65 38.348 133.614 39.104H139.32ZM151.712 44H150.362V37.178L147.536 44H147.032L144.188 37.178V44H142.838V35.306H144.62L147.284 41.75L149.912 35.306H151.712V44ZM158.239 44.216C156.955 44.216 155.911 43.784 155.107 42.92C154.303 42.044 153.901 40.952 153.901 39.644C153.901 38.336 154.303 37.25 155.107 36.386C155.911 35.522 156.955 35.09 158.239 35.09C159.583 35.09 160.645 35.594 161.425 36.602L160.525 37.43C159.973 36.674 159.235 36.296 158.311 36.296C157.399 36.296 156.667 36.608 156.115 37.232C155.575 37.856 155.305 38.66 155.305 39.644C155.305 40.628 155.575 41.438 156.115 42.074C156.667 42.698 157.399 43.01 158.311 43.01C159.223 43.01 159.961 42.632 160.525 41.876L161.425 42.704C160.645 43.712 159.583 44.216 158.239 44.216ZM164.613 44H163.029L165.351 40.58C164.691 40.496 164.151 40.22 163.731 39.752C163.323 39.284 163.119 38.69 163.119 37.97C163.119 37.202 163.365 36.566 163.857 36.062C164.349 35.558 165.021 35.306 165.873 35.306H170.463V44H169.113V40.634H166.737L164.613 44ZM166.017 39.446H169.113V36.494H166.017C165.549 36.494 165.177 36.632 164.901 36.908C164.637 37.172 164.505 37.526 164.505 37.97C164.505 38.414 164.637 38.774 164.901 39.05C165.165 39.314 165.537 39.446 166.017 39.446ZM185.451 44H183.723L180.591 40.094L179.151 41.516V44H177.801V35.306H179.151V39.932L183.723 35.306H185.433L181.581 39.248L185.451 44ZM198.924 44H197.574V36.494H193.038V44H191.688V35.306H198.924V44ZM208.532 42.902C207.752 43.778 206.714 44.216 205.418 44.216C204.122 44.216 203.078 43.778 202.286 42.902C201.506 42.026 201.116 40.94 201.116 39.644C201.116 38.348 201.506 37.268 202.286 36.404C203.078 35.528 204.122 35.09 205.418 35.09C206.714 35.09 207.752 35.528 208.532 36.404C209.324 37.268 209.72 38.348 209.72 39.644C209.72 40.94 209.324 42.026 208.532 42.902ZM203.294 42.038C203.822 42.686 204.53 43.01 205.418 43.01C206.306 43.01 207.008 42.686 207.524 42.038C208.04 41.378 208.298 40.58 208.298 39.644C208.298 38.708 208.04 37.916 207.524 37.268C207.008 36.62 206.306 36.296 205.418 36.296C204.53 36.296 203.822 36.626 203.294 37.286C202.778 37.934 202.52 38.72 202.52 39.644C202.52 40.58 202.778 41.378 203.294 42.038ZM210.894 44.216V43.1C211.302 43.1 211.638 42.83 211.902 42.29C212.166 41.75 212.382 40.85 212.55 39.59L213.108 35.306H219.156V44H217.806V36.494H214.296L213.9 39.752C213.708 41.348 213.372 42.494 212.892 43.19C212.412 43.874 211.746 44.216 210.894 44.216ZM221.852 35.306H223.202V38.672H226.46C227.324 38.672 227.996 38.93 228.476 39.446C228.956 39.95 229.196 40.58 229.196 41.336C229.196 42.092 228.95 42.728 228.458 43.244C227.978 43.748 227.312 44 226.46 44H221.852V35.306ZM226.316 39.86H223.202V42.812H226.316C226.796 42.812 227.162 42.68 227.414 42.416C227.678 42.14 227.81 41.78 227.81 41.336C227.81 40.892 227.678 40.538 227.414 40.274C227.162 39.998 226.796 39.86 226.316 39.86ZM234.334 44.216C232.666 44.216 231.358 43.742 230.41 42.794L231.076 41.93C231.892 42.71 232.978 43.1 234.334 43.1C235.114 43.1 235.732 42.962 236.188 42.686C236.656 42.41 236.89 42.044 236.89 41.588C236.89 40.628 235.978 40.148 234.154 40.148H232.21V39.05H234.154C234.91 39.05 235.528 38.93 236.008 38.69C236.488 38.438 236.728 38.072 236.728 37.592C236.728 37.184 236.488 36.854 236.008 36.602C235.528 36.338 234.922 36.206 234.19 36.206C232.978 36.206 232.006 36.578 231.274 37.322L230.572 36.494C231.472 35.57 232.66 35.108 234.136 35.108C235.324 35.096 236.284 35.3 237.016 35.72C237.76 36.128 238.132 36.698 238.132 37.43C238.132 38.03 237.886 38.516 237.394 38.888C236.914 39.26 236.38 39.482 235.792 39.554C236.404 39.602 236.974 39.806 237.502 40.166C238.042 40.526 238.312 41.03 238.312 41.678C238.312 42.422 237.952 43.034 237.232 43.514C236.524 43.982 235.558 44.216 234.334 44.216ZM247.414 42.902C246.634 43.778 245.596 44.216 244.3 44.216C243.004 44.216 241.96 43.778 241.168 42.902C240.388 42.026 239.998 40.94 239.998 39.644C239.998 38.348 240.388 37.268 241.168 36.404C241.96 35.528 243.004 35.09 244.3 35.09C245.596 35.09 246.634 35.528 247.414 36.404C248.206 37.268 248.602 38.348 248.602 39.644C248.602 40.94 248.206 42.026 247.414 42.902ZM242.176 42.038C242.704 42.686 243.412 43.01 244.3 43.01C245.188 43.01 245.89 42.686 246.406 42.038C246.922 41.378 247.18 40.58 247.18 39.644C247.18 38.708 246.922 37.916 246.406 37.268C245.89 36.62 245.188 36.296 244.3 36.296C243.412 36.296 242.704 36.626 242.176 37.286C241.66 37.934 241.402 38.72 241.402 39.644C241.402 40.58 241.66 41.378 242.176 42.038ZM255.681 44H250.803V35.306H255.591C256.347 35.306 256.941 35.51 257.373 35.918C257.817 36.326 258.039 36.866 258.039 37.538C258.039 38.03 257.901 38.456 257.625 38.816C257.361 39.164 257.031 39.398 256.635 39.518C257.079 39.626 257.451 39.884 257.751 40.292C258.063 40.7 258.219 41.15 258.219 41.642C258.219 42.35 257.991 42.92 257.535 43.352C257.091 43.784 256.473 44 255.681 44ZM255.411 42.812C255.843 42.812 256.185 42.692 256.437 42.452C256.689 42.212 256.815 41.888 256.815 41.48C256.815 41.108 256.689 40.79 256.437 40.526C256.185 40.262 255.843 40.13 255.411 40.13H252.153V42.812H255.411ZM255.357 38.942C255.765 38.942 256.083 38.834 256.311 38.618C256.539 38.39 256.653 38.096 256.653 37.736C256.653 37.352 256.539 37.052 256.311 36.836C256.083 36.608 255.765 36.494 255.357 36.494H252.153V38.942H255.357ZM267.556 44H266.206V43.01C265.474 43.814 264.514 44.216 263.326 44.216C262.522 44.216 261.814 43.958 261.202 43.442C260.59 42.926 260.284 42.224 260.284 41.336C260.284 40.424 260.584 39.722 261.184 39.23C261.796 38.726 262.51 38.474 263.326 38.474C264.562 38.474 265.522 38.87 266.206 39.662V38.096C266.206 37.52 266.002 37.07 265.594 36.746C265.186 36.422 264.658 36.26 264.01 36.26C262.99 36.26 262.102 36.662 261.346 37.466L260.716 36.53C261.64 35.57 262.798 35.09 264.19 35.09C265.186 35.09 265.996 35.33 266.62 35.81C267.244 36.29 267.556 37.028 267.556 38.024V44ZM263.812 43.244C264.892 43.244 265.69 42.884 266.206 42.164V40.526C265.69 39.806 264.892 39.446 263.812 39.446C263.188 39.446 262.672 39.626 262.264 39.986C261.868 40.334 261.67 40.79 261.67 41.354C261.67 41.906 261.868 42.362 262.264 42.722C262.672 43.07 263.188 43.244 263.812 43.244ZM273.196 44H271.846V36.494H269.326V35.306H275.734V36.494H273.196V44ZM281.428 44.216C280.132 44.216 279.07 43.796 278.242 42.956C277.414 42.104 277 41 277 39.644C277 38.372 277.408 37.298 278.224 36.422C279.04 35.534 280.06 35.09 281.284 35.09C282.568 35.09 283.582 35.534 284.326 36.422C285.082 37.298 285.46 38.408 285.46 39.752V40.094H278.422C278.482 40.946 278.794 41.66 279.358 42.236C279.922 42.812 280.654 43.1 281.554 43.1C282.634 43.1 283.528 42.734 284.236 42.002L284.884 42.884C283.996 43.772 282.844 44.216 281.428 44.216ZM284.128 39.104C284.116 38.36 283.864 37.694 283.372 37.106C282.88 36.506 282.178 36.206 281.266 36.206C280.402 36.206 279.718 36.5 279.214 37.088C278.722 37.676 278.458 38.348 278.422 39.104H284.128ZM286.621 44.216V43.1C287.029 43.1 287.365 42.83 287.629 42.29C287.893 41.75 288.109 40.85 288.277 39.59L288.835 35.306H294.883V44H293.533V36.494H290.023L289.627 39.752C289.435 41.348 289.099 42.494 288.619 43.19C288.139 43.874 287.473 44.216 286.621 44.216ZM304.869 44.216C303.669 44.216 302.679 43.832 301.899 43.064C301.131 42.284 300.699 41.3 300.603 40.112H298.929V44H297.579V35.306H298.929V38.924H300.621C300.765 37.808 301.215 36.89 301.971 36.17C302.739 35.45 303.705 35.09 304.869 35.09C306.165 35.09 307.209 35.528 308.001 36.404C308.793 37.268 309.189 38.348 309.189 39.644C309.189 40.94 308.793 42.026 308.001 42.902C307.209 43.778 306.165 44.216 304.869 44.216ZM304.869 43.01C305.769 43.01 306.477 42.686 306.993 42.038C307.509 41.378 307.767 40.58 307.767 39.644C307.767 38.708 307.509 37.916 306.993 37.268C306.477 36.62 305.769 36.296 304.869 36.296C303.993 36.296 303.291 36.626 302.763 37.286C302.247 37.934 301.989 38.72 301.989 39.644C301.989 40.58 302.247 41.378 302.763 42.038C303.279 42.686 303.981 43.01 304.869 43.01ZM35.324 68.214V64.884C35.768 64.8 36.116 64.536 36.368 64.092C36.62 63.636 36.824 62.802 36.98 61.59L37.538 57.306H43.586V64.812H44.594V68.214H43.244V66H36.674V68.214H35.324ZM38.726 58.494L38.33 61.752C38.126 63.276 37.706 64.296 37.07 64.812H42.236V58.494H38.726ZM50.7238 66.216C49.4998 66.216 48.5218 65.706 47.7898 64.686V69.312H46.4398V57.306H47.7898V58.602C48.1138 58.146 48.5338 57.78 49.0498 57.504C49.5658 57.228 50.1238 57.09 50.7238 57.09C51.8758 57.09 52.8058 57.504 53.5138 58.332C54.2338 59.148 54.5938 60.252 54.5938 61.644C54.5938 63.036 54.2338 64.146 53.5138 64.974C52.8058 65.802 51.8758 66.216 50.7238 66.216ZM50.3818 65.01C51.2338 65.01 51.9118 64.698 52.4158 64.074C52.9198 63.438 53.1718 62.628 53.1718 61.644C53.1718 60.66 52.9198 59.856 52.4158 59.232C51.9118 58.608 51.2338 58.296 50.3818 58.296C49.8658 58.296 49.3618 58.434 48.8698 58.71C48.3898 58.974 48.0298 59.298 47.7898 59.682V63.606C48.0298 64.002 48.3898 64.338 48.8698 64.614C49.3618 64.878 49.8658 65.01 50.3818 65.01ZM56.2546 69.402L56.4706 68.178C56.6866 68.274 56.9326 68.322 57.2086 68.322C57.5206 68.322 57.7786 68.256 57.9826 68.124C58.1866 67.992 58.3606 67.752 58.5046 67.404L59.0806 66.09L55.4446 57.306H56.9026L59.8006 64.434L62.6806 57.306H64.1566L59.8006 67.764C59.3206 68.916 58.4686 69.504 57.2446 69.528C56.8846 69.528 56.5546 69.486 56.2546 69.402ZM66.1948 66H64.4668L68.3368 61.248L64.4848 57.306H66.1948L69.9388 61.14V57.306H71.2888V61.122L75.0328 57.306H76.7428L72.8728 61.248L76.7608 66H75.0328L71.9008 62.094L71.2888 62.706V66H69.9388V62.706L69.3268 62.094L66.1948 66ZM82.233 66.216C80.937 66.216 79.875 65.796 79.047 64.956C78.219 64.104 77.805 63 77.805 61.644C77.805 60.372 78.213 59.298 79.029 58.422C79.845 57.534 80.865 57.09 82.089 57.09C83.373 57.09 84.387 57.534 85.131 58.422C85.887 59.298 86.265 60.408 86.265 61.752V62.094H79.227C79.287 62.946 79.599 63.66 80.163 64.236C80.727 64.812 81.459 65.1 82.359 65.1C83.439 65.1 84.333 64.734 85.041 64.002L85.689 64.884C84.801 65.772 83.649 66.216 82.233 66.216ZM84.933 61.104C84.921 60.36 84.669 59.694 84.177 59.106C83.685 58.506 82.983 58.206 82.071 58.206C81.207 58.206 80.523 58.5 80.019 59.088C79.527 59.676 79.263 60.348 79.227 61.104H84.933ZM87.4256 66.216V65.1C87.8336 65.1 88.1696 64.83 88.4336 64.29C88.6976 63.75 88.9136 62.85 89.0816 61.59L89.6396 57.306H95.6876V66H94.3376V58.494H90.8276L90.4316 61.752C90.2396 63.348 89.9036 64.494 89.4236 65.19C88.9436 65.874 88.2776 66.216 87.4256 66.216ZM105.673 66.216C104.473 66.216 103.483 65.832 102.703 65.064C101.935 64.284 101.503 63.3 101.407 62.112H99.7332V66H98.3832V57.306H99.7332V60.924H101.425C101.569 59.808 102.019 58.89 102.775 58.17C103.543 57.45 104.509 57.09 105.673 57.09C106.969 57.09 108.013 57.528 108.805 58.404C109.597 59.268 109.993 60.348 109.993 61.644C109.993 62.94 109.597 64.026 108.805 64.902C108.013 65.778 106.969 66.216 105.673 66.216ZM105.673 65.01C106.573 65.01 107.281 64.686 107.797 64.038C108.313 63.378 108.571 62.58 108.571 61.644C108.571 60.708 108.313 59.916 107.797 59.268C107.281 58.62 106.573 58.296 105.673 58.296C104.797 58.296 104.095 58.626 103.567 59.286C103.051 59.934 102.793 60.72 102.793 61.644C102.793 62.58 103.051 63.378 103.567 64.038C104.083 64.686 104.785 65.01 105.673 65.01ZM113.856 64.038C114.384 64.686 115.092 65.01 115.98 65.01C116.868 65.01 117.57 64.686 118.086 64.038C118.602 63.378 118.86 62.574 118.86 61.626C118.86 60.702 118.602 59.916 118.086 59.268C117.57 58.62 116.868 58.296 115.98 58.296C115.092 58.296 114.384 58.62 113.856 59.268C113.34 59.916 113.082 60.702 113.082 61.626C113.082 62.574 113.34 63.378 113.856 64.038ZM115.98 66.216C114.672 66.216 113.628 65.754 112.848 64.83C112.068 63.906 111.678 62.712 111.678 61.248C111.678 59.184 112.05 57.66 112.794 56.676C113.538 55.68 114.684 55.08 116.232 54.876C117.156 54.732 117.792 54.594 118.14 54.462C118.5 54.33 118.68 54.174 118.68 53.994H119.994C119.994 54.33 119.892 54.624 119.688 54.876C119.484 55.116 119.19 55.308 118.806 55.452C118.434 55.596 118.08 55.71 117.744 55.794C117.42 55.866 117.03 55.932 116.574 55.992C115.374 56.16 114.504 56.49 113.964 56.982C113.436 57.474 113.088 58.128 112.92 58.944C113.712 57.708 114.804 57.09 116.196 57.09C117.396 57.09 118.374 57.528 119.13 58.404C119.886 59.28 120.264 60.354 120.264 61.626C120.264 62.922 119.874 64.014 119.094 64.902C118.314 65.778 117.276 66.216 115.98 66.216ZM123.921 66H122.571V57.306H123.921V60.924H128.457V57.306H129.807V66H128.457V62.112H123.921V66ZM139.414 64.902C138.634 65.778 137.596 66.216 136.3 66.216C135.004 66.216 133.96 65.778 133.168 64.902C132.388 64.026 131.998 62.94 131.998 61.644C131.998 60.348 132.388 59.268 133.168 58.404C133.96 57.528 135.004 57.09 136.3 57.09C137.596 57.09 138.634 57.528 139.414 58.404C140.206 59.268 140.602 60.348 140.602 61.644C140.602 62.94 140.206 64.026 139.414 64.902ZM134.176 64.038C134.704 64.686 135.412 65.01 136.3 65.01C137.188 65.01 137.89 64.686 138.406 64.038C138.922 63.378 139.18 62.58 139.18 61.644C139.18 60.708 138.922 59.916 138.406 59.268C137.89 58.62 137.188 58.296 136.3 58.296C135.412 58.296 134.704 58.626 134.176 59.286C133.66 59.934 133.402 60.72 133.402 61.644C133.402 62.58 133.66 63.378 134.176 64.038ZM144.498 65.568C144.498 66.096 144.36 66.6 144.084 67.08C143.808 67.572 143.454 67.974 143.022 68.286L142.356 67.728C142.656 67.536 142.914 67.278 143.13 66.954C143.358 66.642 143.49 66.342 143.526 66.054C143.478 66.078 143.394 66.09 143.274 66.09C143.022 66.09 142.812 66.006 142.644 65.838C142.488 65.658 142.41 65.436 142.41 65.172C142.41 64.908 142.5 64.68 142.68 64.488C142.872 64.296 143.1 64.2 143.364 64.2C143.676 64.2 143.94 64.326 144.156 64.578C144.384 64.818 144.498 65.148 144.498 65.568ZM157.553 57.306V58.494H152.819V66H151.469V57.306H157.553ZM166.221 64.902C165.441 65.778 164.403 66.216 163.107 66.216C161.811 66.216 160.767 65.778 159.975 64.902C159.195 64.026 158.805 62.94 158.805 61.644C158.805 60.348 159.195 59.268 159.975 58.404C160.767 57.528 161.811 57.09 163.107 57.09C164.403 57.09 165.441 57.528 166.221 58.404C167.013 59.268 167.409 60.348 167.409 61.644C167.409 62.94 167.013 64.026 166.221 64.902ZM160.983 64.038C161.511 64.686 162.219 65.01 163.107 65.01C163.995 65.01 164.697 64.686 165.213 64.038C165.729 63.378 165.987 62.58 165.987 61.644C165.987 60.708 165.729 59.916 165.213 59.268C164.697 58.62 163.995 58.296 163.107 58.296C162.219 58.296 161.511 58.626 160.983 59.286C160.467 59.934 160.209 60.72 160.209 61.644C160.209 62.58 160.467 63.378 160.983 64.038ZM174.488 66H169.61V57.306H174.398C175.154 57.306 175.748 57.51 176.18 57.918C176.624 58.326 176.846 58.866 176.846 59.538C176.846 60.03 176.708 60.456 176.432 60.816C176.168 61.164 175.838 61.398 175.442 61.518C175.886 61.626 176.258 61.884 176.558 62.292C176.87 62.7 177.026 63.15 177.026 63.642C177.026 64.35 176.798 64.92 176.342 65.352C175.898 65.784 175.28 66 174.488 66ZM174.218 64.812C174.65 64.812 174.992 64.692 175.244 64.452C175.496 64.212 175.622 63.888 175.622 63.48C175.622 63.108 175.496 62.79 175.244 62.526C174.992 62.262 174.65 62.13 174.218 62.13H170.96V64.812H174.218ZM174.164 60.942C174.572 60.942 174.89 60.834 175.118 60.618C175.346 60.39 175.46 60.096 175.46 59.736C175.46 59.352 175.346 59.052 175.118 58.836C174.89 58.608 174.572 58.494 174.164 58.494H170.96V60.942H174.164ZM186.489 64.902C185.709 65.778 184.671 66.216 183.375 66.216C182.079 66.216 181.035 65.778 180.243 64.902C179.463 64.026 179.073 62.94 179.073 61.644C179.073 60.348 179.463 59.268 180.243 58.404C181.035 57.528 182.079 57.09 183.375 57.09C184.671 57.09 185.709 57.528 186.489 58.404C187.281 59.268 187.677 60.348 187.677 61.644C187.677 62.94 187.281 64.026 186.489 64.902ZM181.251 64.038C181.779 64.686 182.487 65.01 183.375 65.01C184.263 65.01 184.965 64.686 185.481 64.038C185.997 63.378 186.255 62.58 186.255 61.644C186.255 60.708 185.997 59.916 185.481 59.268C184.965 58.62 184.263 58.296 183.375 58.296C182.487 58.296 181.779 58.626 181.251 59.286C180.735 59.934 180.477 60.72 180.477 61.644C180.477 62.58 180.735 63.378 181.251 64.038ZM194.161 66.216C192.937 66.216 191.959 65.706 191.227 64.686V69.312H189.877V57.306H191.227V58.602C191.551 58.146 191.971 57.78 192.487 57.504C193.003 57.228 193.561 57.09 194.161 57.09C195.313 57.09 196.243 57.504 196.951 58.332C197.671 59.148 198.031 60.252 198.031 61.644C198.031 63.036 197.671 64.146 196.951 64.974C196.243 65.802 195.313 66.216 194.161 66.216ZM193.819 65.01C194.671 65.01 195.349 64.698 195.853 64.074C196.357 63.438 196.609 62.628 196.609 61.644C196.609 60.66 196.357 59.856 195.853 59.232C195.349 58.608 194.671 58.296 193.819 58.296C193.303 58.296 192.799 58.434 192.307 58.71C191.827 58.974 191.467 59.298 191.227 59.682V63.606C191.467 64.002 191.827 64.338 192.307 64.614C192.799 64.878 193.303 65.01 193.819 65.01ZM201.474 66H200.178V57.306H201.528V63.948L206.082 57.306H207.414V66H206.064V59.232L201.474 66ZM218.984 66H217.634V59.178L214.808 66H214.304L211.46 59.178V66H210.11V57.306H211.892L214.556 63.75L217.184 57.306H218.984V66ZM230.151 66.216C228.867 66.216 227.823 65.784 227.019 64.92C226.215 64.044 225.813 62.952 225.813 61.644C225.813 60.336 226.215 59.25 227.019 58.386C227.823 57.522 228.867 57.09 230.151 57.09C231.495 57.09 232.557 57.594 233.337 58.602L232.437 59.43C231.885 58.674 231.147 58.296 230.223 58.296C229.311 58.296 228.579 58.608 228.027 59.232C227.487 59.856 227.217 60.66 227.217 61.644C227.217 62.628 227.487 63.438 228.027 64.074C228.579 64.698 229.311 65.01 230.223 65.01C231.135 65.01 231.873 64.632 232.437 63.876L233.337 64.704C232.557 65.712 231.495 66.216 230.151 66.216ZM241.22 66H239.87V57.306H241.22V60.924H245.756V57.306H247.106V66H245.756V62.112H241.22V66ZM251.097 66H249.801V57.306H251.151V63.948L255.705 57.306H257.037V66H255.687V59.232L251.097 66ZM268.607 66H267.257V59.178L264.431 66H263.927L261.083 59.178V66H259.733V57.306H261.515L264.179 63.75L266.807 57.306H268.607V66ZM37.7 88H36.35V79.306H37.7V82.924H42.236V79.306H43.586V88H42.236V84.112H37.7V88ZM53.0676 88H51.7176V87.01C50.9856 87.814 50.0256 88.216 48.8376 88.216C48.0336 88.216 47.3256 87.958 46.7136 87.442C46.1016 86.926 45.7956 86.224 45.7956 85.336C45.7956 84.424 46.0956 83.722 46.6956 83.23C47.3076 82.726 48.0216 82.474 48.8376 82.474C50.0736 82.474 51.0336 82.87 51.7176 83.662V82.096C51.7176 81.52 51.5136 81.07 51.1056 80.746C50.6976 80.422 50.1696 80.26 49.5216 80.26C48.5016 80.26 47.6136 80.662 46.8576 81.466L46.2276 80.53C47.1516 79.57 48.3096 79.09 49.7016 79.09C50.6976 79.09 51.5076 79.33 52.1316 79.81C52.7556 80.29 53.0676 81.028 53.0676 82.024V88ZM49.3236 87.244C50.4036 87.244 51.2016 86.884 51.7176 86.164V84.526C51.2016 83.806 50.4036 83.446 49.3236 83.446C48.6996 83.446 48.1836 83.626 47.7756 83.986C47.3796 84.334 47.1816 84.79 47.1816 85.354C47.1816 85.906 47.3796 86.362 47.7756 86.722C48.1836 87.07 48.6996 87.244 49.3236 87.244ZM67.3265 86.902C66.5465 87.778 65.5085 88.216 64.2125 88.216C62.9165 88.216 61.8725 87.778 61.0805 86.902C60.3005 86.026 59.9105 84.94 59.9105 83.644C59.9105 82.348 60.3005 81.268 61.0805 80.404C61.8725 79.528 62.9165 79.09 64.2125 79.09C65.5085 79.09 66.5465 79.528 67.3265 80.404C68.1185 81.268 68.5145 82.348 68.5145 83.644C68.5145 84.94 68.1185 86.026 67.3265 86.902ZM62.0885 86.038C62.6165 86.686 63.3245 87.01 64.2125 87.01C65.1005 87.01 65.8025 86.686 66.3185 86.038C66.8345 85.378 67.0925 84.58 67.0925 83.644C67.0925 82.708 66.8345 81.916 66.3185 81.268C65.8025 80.62 65.1005 80.296 64.2125 80.296C63.3245 80.296 62.6165 80.626 62.0885 81.286C61.5725 81.934 61.3145 82.72 61.3145 83.644C61.3145 84.58 61.5725 85.378 62.0885 86.038ZM69.6892 90.214V86.884C70.1332 86.8 70.4812 86.536 70.7332 86.092C70.9852 85.636 71.1892 84.802 71.3452 83.59L71.9032 79.306H77.9512V86.812H78.9592V90.214H77.6092V88H71.0392V90.214H69.6892ZM73.0912 80.494L72.6952 83.752C72.4912 85.276 72.0712 86.296 71.4352 86.812H76.6012V80.494H73.0912ZM82.1551 88H80.8051V79.306H82.1551V82.924H86.6911V79.306H88.0411V88H86.6911V84.112H82.1551V88ZM97.6487 86.902C96.8687 87.778 95.8307 88.216 94.5347 88.216C93.2387 88.216 92.1947 87.778 91.4027 86.902C90.6227 86.026 90.2327 84.94 90.2327 83.644C90.2327 82.348 90.6227 81.268 91.4027 80.404C92.1947 79.528 93.2387 79.09 94.5347 79.09C95.8307 79.09 96.8687 79.528 97.6487 80.404C98.4407 81.268 98.8367 82.348 98.8367 83.644C98.8367 84.94 98.4407 86.026 97.6487 86.902ZM92.4107 86.038C92.9387 86.686 93.6467 87.01 94.5347 87.01C95.4227 87.01 96.1247 86.686 96.6407 86.038C97.1567 85.378 97.4147 84.58 97.4147 83.644C97.4147 82.708 97.1567 81.916 96.6407 81.268C96.1247 80.62 95.4227 80.296 94.5347 80.296C93.6467 80.296 92.9387 80.626 92.4107 81.286C91.8947 81.934 91.6367 82.72 91.6367 83.644C91.6367 84.58 91.8947 85.378 92.4107 86.038ZM109.912 88H108.562V81.178L105.736 88H105.232L102.388 81.178V88H101.038V79.306H102.82L105.484 85.75L108.112 79.306H109.912V88ZM118.541 88H116.957L119.279 84.58C118.619 84.496 118.079 84.22 117.659 83.752C117.251 83.284 117.047 82.69 117.047 81.97C117.047 81.202 117.293 80.566 117.785 80.062C118.277 79.558 118.949 79.306 119.801 79.306H124.391V88H123.041V84.634H120.665L118.541 88ZM119.945 83.446H123.041V80.494H119.945C119.477 80.494 119.105 80.632 118.829 80.908C118.565 81.172 118.433 81.526 118.433 81.97C118.433 82.414 118.565 82.774 118.829 83.05C119.093 83.314 119.465 83.446 119.945 83.446ZM130.166 88.216C128.498 88.216 127.19 87.742 126.242 86.794L126.908 85.93C127.724 86.71 128.81 87.1 130.166 87.1C130.946 87.1 131.564 86.962 132.02 86.686C132.488 86.41 132.722 86.044 132.722 85.588C132.722 84.628 131.81 84.148 129.986 84.148H128.042V83.05H129.986C130.742 83.05 131.36 82.93 131.84 82.69C132.32 82.438 132.56 82.072 132.56 81.592C132.56 81.184 132.32 80.854 131.84 80.602C131.36 80.338 130.754 80.206 130.022 80.206C128.81 80.206 127.838 80.578 127.106 81.322L126.404 80.494C127.304 79.57 128.492 79.108 129.968 79.108C131.156 79.096 132.116 79.3 132.848 79.72C133.592 80.128 133.964 80.698 133.964 81.43C133.964 82.03 133.718 82.516 133.226 82.888C132.746 83.26 132.212 83.482 131.624 83.554C132.236 83.602 132.806 83.806 133.334 84.166C133.874 84.526 134.144 85.03 134.144 85.678C134.144 86.422 133.784 87.034 133.064 87.514C132.356 87.982 131.39 88.216 130.166 88.216ZM136.334 79.306H137.684V82.672H140.942C141.806 82.672 142.478 82.93 142.958 83.446C143.438 83.95 143.678 84.58 143.678 85.336C143.678 86.092 143.432 86.728 142.94 87.244C142.46 87.748 141.794 88 140.942 88H136.334V79.306ZM140.798 83.86H137.684V86.812H140.798C141.278 86.812 141.644 86.68 141.896 86.416C142.16 86.14 142.292 85.78 142.292 85.336C142.292 84.892 142.16 84.538 141.896 84.274C141.644 83.998 141.278 83.86 140.798 83.86ZM146.45 88H145.1V79.306H146.45V88ZM156.799 88H155.071L151.939 84.094L150.499 85.516V88H149.149V79.306H150.499V83.932L155.071 79.306H156.781L152.929 83.248L156.799 88ZM162.266 88.216C160.97 88.216 159.908 87.796 159.08 86.956C158.252 86.104 157.838 85 157.838 83.644C157.838 82.372 158.246 81.298 159.062 80.422C159.878 79.534 160.898 79.09 162.122 79.09C163.406 79.09 164.42 79.534 165.164 80.422C165.92 81.298 166.298 82.408 166.298 83.752V84.094H159.26C159.32 84.946 159.632 85.66 160.196 86.236C160.76 86.812 161.492 87.1 162.392 87.1C163.472 87.1 164.366 86.734 165.074 86.002L165.722 86.884C164.834 87.772 163.682 88.216 162.266 88.216ZM164.966 83.104C164.954 82.36 164.702 81.694 164.21 81.106C163.718 80.506 163.016 80.206 162.104 80.206C161.24 80.206 160.556 80.5 160.052 81.088C159.56 81.676 159.296 82.348 159.26 83.104H164.966ZM169.784 87.892C169.592 88.084 169.358 88.18 169.082 88.18C168.806 88.18 168.572 88.084 168.38 87.892C168.188 87.7 168.092 87.466 168.092 87.19C168.092 86.914 168.188 86.68 168.38 86.488C168.572 86.296 168.806 86.2 169.082 86.2C169.358 86.2 169.592 86.296 169.784 86.488C169.976 86.68 170.072 86.914 170.072 87.19C170.072 87.466 169.976 87.7 169.784 87.892Z" fill="white"/>
</svg>
