<svg width="351" height="120" viewBox="0 0 351 120" fill="none" xmlns="http://www.w3.org/2000/svg">
<rect width="351" height="120" rx="14" fill="#A7D22C"/>
<path d="M37.61 44.216C37.118 44.216 36.662 44.126 36.242 43.946C35.822 43.766 35.498 43.538 35.27 43.262L35.9 42.074C36.416 42.614 36.962 42.884 37.538 42.884C37.994 42.884 38.354 42.764 38.618 42.524C38.894 42.284 39.206 41.834 39.554 41.174L39.77 40.76L35.162 31.994H36.872L40.634 39.428L44.396 31.994H46.106L40.868 41.876C40.448 42.668 39.998 43.256 39.518 43.64C39.038 44.024 38.402 44.216 37.61 44.216ZM51.7397 44H46.8617V35.306H51.6497C52.4057 35.306 52.9997 35.51 53.4317 35.918C53.8757 36.326 54.0977 36.866 54.0977 37.538C54.0977 38.03 53.9597 38.456 53.6837 38.816C53.4197 39.164 53.0897 39.398 52.6937 39.518C53.1377 39.626 53.5097 39.884 53.8097 40.292C54.1217 40.7 54.2777 41.15 54.2777 41.642C54.2777 42.35 54.0497 42.92 53.5937 43.352C53.1497 43.784 52.5317 44 51.7397 44ZM51.4697 42.812C51.9017 42.812 52.2437 42.692 52.4957 42.452C52.7477 42.212 52.8737 41.888 52.8737 41.48C52.8737 41.108 52.7477 40.79 52.4957 40.526C52.2437 40.262 51.9017 40.13 51.4697 40.13H48.2117V42.812H51.4697ZM51.4157 38.942C51.8237 38.942 52.1417 38.834 52.3697 38.618C52.5977 38.39 52.7117 38.096 52.7117 37.736C52.7117 37.352 52.5977 37.052 52.3697 36.836C52.1417 36.608 51.8237 36.494 51.4157 36.494H48.2117V38.942H51.4157ZM63.6145 44H62.2645V43.01C61.5325 43.814 60.5725 44.216 59.3845 44.216C58.5805 44.216 57.8725 43.958 57.2605 43.442C56.6485 42.926 56.3425 42.224 56.3425 41.336C56.3425 40.424 56.6425 39.722 57.2425 39.23C57.8545 38.726 58.5685 38.474 59.3845 38.474C60.6205 38.474 61.5805 38.87 62.2645 39.662V38.096C62.2645 37.52 62.0605 37.07 61.6525 36.746C61.2445 36.422 60.7165 36.26 60.0685 36.26C59.0485 36.26 58.1605 36.662 57.4045 37.466L56.7745 36.53C57.6985 35.57 58.8565 35.09 60.2485 35.09C61.2445 35.09 62.0545 35.33 62.6785 35.81C63.3025 36.29 63.6145 37.028 63.6145 38.024V44ZM59.8705 43.244C60.9505 43.244 61.7485 42.884 62.2645 42.164V40.526C61.7485 39.806 60.9505 39.446 59.8705 39.446C59.2465 39.446 58.7305 39.626 58.3225 39.986C57.9265 40.334 57.7285 40.79 57.7285 41.354C57.7285 41.906 57.9265 42.362 58.3225 42.722C58.7305 43.07 59.2465 43.244 59.8705 43.244ZM66.9507 44H65.2227L69.0927 39.248L65.2407 35.306H66.9507L70.6947 39.14V35.306H72.0447V39.122L75.7887 35.306H77.4987L73.6287 39.248L77.5167 44H75.7887L72.6567 40.094L72.0447 40.706V44H70.6947V40.706L70.0827 40.094L66.9507 44ZM85.9036 44H84.5536V43.01C83.8216 43.814 82.8616 44.216 81.6736 44.216C80.8696 44.216 80.1616 43.958 79.5496 43.442C78.9376 42.926 78.6316 42.224 78.6316 41.336C78.6316 40.424 78.9316 39.722 79.5316 39.23C80.1436 38.726 80.8576 38.474 81.6736 38.474C82.9096 38.474 83.8696 38.87 84.5536 39.662V38.096C84.5536 37.52 84.3496 37.07 83.9416 36.746C83.5336 36.422 83.0056 36.26 82.3576 36.26C81.3376 36.26 80.4496 36.662 79.6936 37.466L79.0636 36.53C79.9876 35.57 81.1456 35.09 82.5376 35.09C83.5336 35.09 84.3436 35.33 84.9676 35.81C85.5916 36.29 85.9036 37.028 85.9036 38.024V44ZM82.1596 43.244C83.2396 43.244 84.0376 42.884 84.5536 42.164V40.526C84.0376 39.806 83.2396 39.446 82.1596 39.446C81.5356 39.446 81.0196 39.626 80.6116 39.986C80.2156 40.334 80.0176 40.79 80.0176 41.354C80.0176 41.906 80.2156 42.362 80.6116 42.722C81.0196 43.07 81.5356 43.244 82.1596 43.244ZM92.5338 44.216C91.2378 44.216 90.1758 43.796 89.3478 42.956C88.5198 42.104 88.1058 41 88.1058 39.644C88.1058 38.372 88.5138 37.298 89.3298 36.422C90.1458 35.534 91.1658 35.09 92.3898 35.09C93.6738 35.09 94.6878 35.534 95.4318 36.422C96.1878 37.298 96.5658 38.408 96.5658 39.752V40.094H89.5278C89.5878 40.946 89.8998 41.66 90.4638 42.236C91.0278 42.812 91.7598 43.1 92.6598 43.1C93.7398 43.1 94.6338 42.734 95.3418 42.002L95.9898 42.884C95.1018 43.772 93.9498 44.216 92.5338 44.216ZM95.2338 39.104C95.2218 38.36 94.9698 37.694 94.4778 37.106C93.9858 36.506 93.2838 36.206 92.3718 36.206C91.5078 36.206 90.8238 36.5 90.3198 37.088C89.8278 37.676 89.5638 38.348 89.5278 39.104H95.2338ZM107.626 44H106.276V37.178L103.45 44H102.946L100.102 37.178V44H98.7523V35.306H100.534L103.198 41.75L105.826 35.306H107.626V44ZM119.837 44H114.959V35.306H119.747C120.503 35.306 121.097 35.51 121.529 35.918C121.973 36.326 122.195 36.866 122.195 37.538C122.195 38.03 122.057 38.456 121.781 38.816C121.517 39.164 121.187 39.398 120.791 39.518C121.235 39.626 121.607 39.884 121.907 40.292C122.219 40.7 122.375 41.15 122.375 41.642C122.375 42.35 122.147 42.92 121.691 43.352C121.247 43.784 120.629 44 119.837 44ZM119.567 42.812C119.999 42.812 120.341 42.692 120.593 42.452C120.845 42.212 120.971 41.888 120.971 41.48C120.971 41.108 120.845 40.79 120.593 40.526C120.341 40.262 119.999 40.13 119.567 40.13H116.309V42.812H119.567ZM119.513 38.942C119.921 38.942 120.239 38.834 120.467 38.618C120.695 38.39 120.809 38.096 120.809 37.736C120.809 37.352 120.695 37.052 120.467 36.836C120.239 36.608 119.921 36.494 119.513 36.494H116.309V38.942H119.513ZM129.21 44.216C127.986 44.216 127.008 43.706 126.276 42.686V47.312H124.926V35.306H126.276V36.602C126.6 36.146 127.02 35.78 127.536 35.504C128.052 35.228 128.61 35.09 129.21 35.09C130.362 35.09 131.292 35.504 132 36.332C132.72 37.148 133.08 38.252 133.08 39.644C133.08 41.036 132.72 42.146 132 42.974C131.292 43.802 130.362 44.216 129.21 44.216ZM128.868 43.01C129.72 43.01 130.398 42.698 130.902 42.074C131.406 41.438 131.658 40.628 131.658 39.644C131.658 38.66 131.406 37.856 130.902 37.232C130.398 36.608 129.72 36.296 128.868 36.296C128.352 36.296 127.848 36.434 127.356 36.71C126.876 36.974 126.516 37.298 126.276 37.682V41.606C126.516 42.002 126.876 42.338 127.356 42.614C127.848 42.878 128.352 43.01 128.868 43.01ZM139.151 44.216C137.855 44.216 136.793 43.796 135.965 42.956C135.137 42.104 134.723 41 134.723 39.644C134.723 38.372 135.131 37.298 135.947 36.422C136.763 35.534 137.783 35.09 139.007 35.09C140.291 35.09 141.305 35.534 142.049 36.422C142.805 37.298 143.183 38.408 143.183 39.752V40.094H136.145C136.205 40.946 136.517 41.66 137.081 42.236C137.645 42.812 138.377 43.1 139.277 43.1C140.357 43.1 141.251 42.734 141.959 42.002L142.607 42.884C141.719 43.772 140.567 44.216 139.151 44.216ZM141.851 39.104C141.839 38.36 141.587 37.694 141.095 37.106C140.603 36.506 139.901 36.206 138.989 36.206C138.125 36.206 137.441 36.5 136.937 37.088C136.445 37.676 136.181 38.348 136.145 39.104H141.851ZM154.244 44H152.894V37.178L150.068 44H149.564L146.72 37.178V44H145.37V35.306H147.152L149.816 41.75L152.444 35.306H154.244V44ZM158.232 44H156.648L158.97 40.58C158.31 40.496 157.77 40.22 157.35 39.752C156.942 39.284 156.738 38.69 156.738 37.97C156.738 37.202 156.984 36.566 157.476 36.062C157.968 35.558 158.64 35.306 159.492 35.306H164.082V44H162.732V40.634H160.356L158.232 44ZM159.636 39.446H162.732V36.494H159.636C159.168 36.494 158.796 36.632 158.52 36.908C158.256 37.172 158.124 37.526 158.124 37.97C158.124 38.414 158.256 38.774 158.52 39.05C158.784 39.314 159.156 39.446 159.636 39.446ZM171.24 35.306H172.59V37.754C172.59 38.534 172.77 39.074 173.13 39.374C173.49 39.674 174.048 39.824 174.804 39.824C175.74 39.824 176.508 39.668 177.108 39.356V35.306H178.458V44H177.108V40.454C176.34 40.838 175.458 41.03 174.462 41.03C173.334 41.03 172.512 40.802 171.996 40.346C171.492 39.89 171.24 39.164 171.24 38.168V35.306ZM185.083 44.216C183.787 44.216 182.725 43.796 181.897 42.956C181.069 42.104 180.655 41 180.655 39.644C180.655 38.372 181.063 37.298 181.879 36.422C182.695 35.534 183.715 35.09 184.939 35.09C186.223 35.09 187.237 35.534 187.981 36.422C188.737 37.298 189.115 38.408 189.115 39.752V40.094H182.077C182.137 40.946 182.449 41.66 183.013 42.236C183.577 42.812 184.309 43.1 185.209 43.1C186.289 43.1 187.183 42.734 187.891 42.002L188.539 42.884C187.651 43.772 186.499 44.216 185.083 44.216ZM187.783 39.104C187.771 38.36 187.519 37.694 187.027 37.106C186.535 36.506 185.833 36.206 184.921 36.206C184.057 36.206 183.373 36.5 182.869 37.088C182.377 37.676 182.113 38.348 182.077 39.104H187.783ZM190.275 44.216V43.1C190.683 43.1 191.019 42.83 191.283 42.29C191.547 41.75 191.763 40.85 191.931 39.59L192.489 35.306H198.537V44H197.187V36.494H193.677L193.281 39.752C193.089 41.348 192.753 42.494 192.273 43.19C191.793 43.874 191.127 44.216 190.275 44.216ZM208.145 42.902C207.365 43.778 206.327 44.216 205.031 44.216C203.735 44.216 202.691 43.778 201.899 42.902C201.119 42.026 200.729 40.94 200.729 39.644C200.729 38.348 201.119 37.268 201.899 36.404C202.691 35.528 203.735 35.09 205.031 35.09C206.327 35.09 207.365 35.528 208.145 36.404C208.937 37.268 209.333 38.348 209.333 39.644C209.333 40.94 208.937 42.026 208.145 42.902ZM202.907 42.038C203.435 42.686 204.143 43.01 205.031 43.01C205.919 43.01 206.621 42.686 207.137 42.038C207.653 41.378 207.911 40.58 207.911 39.644C207.911 38.708 207.653 37.916 207.137 37.268C206.621 36.62 205.919 36.296 205.031 36.296C204.143 36.296 203.435 36.626 202.907 37.286C202.391 37.934 202.133 38.72 202.133 39.644C202.133 40.58 202.391 41.378 202.907 42.038ZM216.412 44H211.534V35.306H216.322C217.078 35.306 217.672 35.51 218.104 35.918C218.548 36.326 218.77 36.866 218.77 37.538C218.77 38.03 218.632 38.456 218.356 38.816C218.092 39.164 217.762 39.398 217.366 39.518C217.81 39.626 218.182 39.884 218.482 40.292C218.794 40.7 218.95 41.15 218.95 41.642C218.95 42.35 218.722 42.92 218.266 43.352C217.822 43.784 217.204 44 216.412 44ZM216.142 42.812C216.574 42.812 216.916 42.692 217.168 42.452C217.42 42.212 217.546 41.888 217.546 41.48C217.546 41.108 217.42 40.79 217.168 40.526C216.916 40.262 216.574 40.13 216.142 40.13H212.884V42.812H216.142ZM216.088 38.942C216.496 38.942 216.814 38.834 217.042 38.618C217.27 38.39 217.384 38.096 217.384 37.736C217.384 37.352 217.27 37.052 217.042 36.836C216.814 36.608 216.496 36.494 216.088 36.494H212.884V38.942H216.088ZM225.424 44.216C224.128 44.216 223.066 43.796 222.238 42.956C221.41 42.104 220.996 41 220.996 39.644C220.996 38.372 221.404 37.298 222.22 36.422C223.036 35.534 224.056 35.09 225.28 35.09C226.564 35.09 227.578 35.534 228.322 36.422C229.078 37.298 229.456 38.408 229.456 39.752V40.094H222.418C222.478 40.946 222.79 41.66 223.354 42.236C223.918 42.812 224.65 43.1 225.55 43.1C226.63 43.1 227.524 42.734 228.232 42.002L228.88 42.884C227.992 43.772 226.84 44.216 225.424 44.216ZM228.124 39.104C228.112 38.36 227.86 37.694 227.368 37.106C226.876 36.506 226.174 36.206 225.262 36.206C224.398 36.206 223.714 36.5 223.21 37.088C222.718 37.676 222.454 38.348 222.418 39.104H228.124ZM239.293 44H237.565L234.433 40.094L232.993 41.516V44H231.643V35.306H232.993V39.932L237.565 35.306H239.275L235.423 39.248L239.293 44ZM247.675 44H246.325V43.01C245.593 43.814 244.633 44.216 243.445 44.216C242.641 44.216 241.933 43.958 241.321 43.442C240.709 42.926 240.403 42.224 240.403 41.336C240.403 40.424 240.703 39.722 241.303 39.23C241.915 38.726 242.629 38.474 243.445 38.474C244.681 38.474 245.641 38.87 246.325 39.662V38.096C246.325 37.52 246.121 37.07 245.713 36.746C245.305 36.422 244.777 36.26 244.129 36.26C243.109 36.26 242.221 36.662 241.465 37.466L240.835 36.53C241.759 35.57 242.917 35.09 244.309 35.09C245.305 35.09 246.115 35.33 246.739 35.81C247.363 36.29 247.675 37.028 247.675 38.024V44ZM243.931 43.244C245.011 43.244 245.809 42.884 246.325 42.164V40.526C245.809 39.806 245.011 39.446 243.931 39.446C243.307 39.446 242.791 39.626 242.383 39.986C241.987 40.334 241.789 40.79 241.789 41.354C241.789 41.906 241.987 42.362 242.383 42.722C242.791 43.07 243.307 43.244 243.931 43.244ZM37.646 66H36.35V57.306H37.7V63.948L42.254 57.306H43.586V66H42.236V59.232L37.646 66ZM49.8963 68.214V64.884C50.3403 64.8 50.6883 64.536 50.9403 64.092C51.1923 63.636 51.3963 62.802 51.5523 61.59L52.1103 57.306H58.1583V64.812H59.1663V68.214H57.8163V66H51.2463V68.214H49.8963ZM53.2983 58.494L52.9023 61.752C52.6983 63.276 52.2783 64.296 51.6423 64.812H56.8083V58.494H53.2983ZM67.9241 64.902C67.1441 65.778 66.1061 66.216 64.8101 66.216C63.5141 66.216 62.4701 65.778 61.6781 64.902C60.8981 64.026 60.5081 62.94 60.5081 61.644C60.5081 60.348 60.8981 59.268 61.6781 58.404C62.4701 57.528 63.5141 57.09 64.8101 57.09C66.1061 57.09 67.1441 57.528 67.9241 58.404C68.7161 59.268 69.1121 60.348 69.1121 61.644C69.1121 62.94 68.7161 64.026 67.9241 64.902ZM62.6861 64.038C63.2141 64.686 63.9221 65.01 64.8101 65.01C65.6981 65.01 66.4001 64.686 66.9161 64.038C67.4321 63.378 67.6901 62.58 67.6901 61.644C67.6901 60.708 67.4321 59.916 66.9161 59.268C66.4001 58.62 65.6981 58.296 64.8101 58.296C63.9221 58.296 63.2141 58.626 62.6861 59.286C62.1701 59.934 61.9121 60.72 61.9121 61.644C61.9121 62.58 62.1701 63.378 62.6861 64.038ZM72.6629 66H71.3129V57.306H72.6629V60.924H77.1989V57.306H78.5489V66H77.1989V62.112H72.6629V66ZM88.1565 64.902C87.3765 65.778 86.3385 66.216 85.0425 66.216C83.7465 66.216 82.7025 65.778 81.9105 64.902C81.1305 64.026 80.7405 62.94 80.7405 61.644C80.7405 60.348 81.1305 59.268 81.9105 58.404C82.7025 57.528 83.7465 57.09 85.0425 57.09C86.3385 57.09 87.3765 57.528 88.1565 58.404C88.9485 59.268 89.3445 60.348 89.3445 61.644C89.3445 62.94 88.9485 64.026 88.1565 64.902ZM82.9185 64.038C83.4465 64.686 84.1545 65.01 85.0425 65.01C85.9305 65.01 86.6325 64.686 87.1485 64.038C87.6645 63.378 87.9225 62.58 87.9225 61.644C87.9225 60.708 87.6645 59.916 87.1485 59.268C86.6325 58.62 85.9305 58.296 85.0425 58.296C84.1545 58.296 83.4465 58.626 82.9185 59.286C82.4025 59.934 82.1445 60.72 82.1445 61.644C82.1445 62.58 82.4025 63.378 82.9185 64.038ZM95.3793 66.216C94.0953 66.216 93.0513 65.784 92.2473 64.92C91.4433 64.044 91.0413 62.952 91.0413 61.644C91.0413 60.336 91.4433 59.25 92.2473 58.386C93.0513 57.522 94.0953 57.09 95.3793 57.09C96.7233 57.09 97.7853 57.594 98.5653 58.602L97.6653 59.43C97.1133 58.674 96.3753 58.296 95.4513 58.296C94.5393 58.296 93.8073 58.608 93.2553 59.232C92.7153 59.856 92.4453 60.66 92.4453 61.644C92.4453 62.628 92.7153 63.438 93.2553 64.074C93.8073 64.698 94.5393 65.01 95.4513 65.01C96.3633 65.01 97.1013 64.632 97.6653 63.876L98.5653 64.704C97.7853 65.712 96.7233 66.216 95.3793 66.216ZM101.753 66H100.457V57.306H101.807V63.948L106.361 57.306H107.693V66H106.343V59.232L101.753 66ZM119.263 66H117.913V59.178L115.087 66H114.583L111.739 59.178V66H110.389V57.306H112.171L114.835 63.75L117.463 57.306H119.263V66ZM127.892 66H126.596V57.306H127.946V63.948L132.5 57.306H133.832V66H132.482V59.232L127.892 66ZM137.878 66H136.528V57.306H137.878V60.924H142.414V57.306H143.764V66H142.414V62.112H137.878V66ZM149.249 57.09C150.233 57.09 151.025 57.6 151.625 58.62V53.994H152.975V58.602C153.239 58.146 153.575 57.78 153.983 57.504C154.403 57.228 154.853 57.09 155.333 57.09C156.269 57.09 157.025 57.504 157.601 58.332C158.177 59.148 158.465 60.252 158.465 61.644C158.465 63.036 158.171 64.146 157.583 64.974C157.007 65.802 156.257 66.216 155.333 66.216C154.349 66.216 153.563 65.706 152.975 64.686V69.312H151.625V64.704C151.361 65.16 151.019 65.526 150.599 65.802C150.179 66.078 149.729 66.216 149.249 66.216C148.313 66.216 147.557 65.808 146.981 64.992C146.405 64.164 146.117 63.054 146.117 61.662C146.117 60.27 146.405 59.16 146.981 58.332C147.569 57.504 148.325 57.09 149.249 57.09ZM149.627 58.296C148.967 58.296 148.445 58.614 148.061 59.25C147.677 59.874 147.485 60.678 147.485 61.662C147.485 62.646 147.677 63.45 148.061 64.074C148.445 64.698 148.967 65.01 149.627 65.01C150.035 65.01 150.425 64.878 150.797 64.614C151.169 64.35 151.445 64.02 151.625 63.624V59.7C151.433 59.304 151.151 58.974 150.779 58.71C150.407 58.434 150.023 58.296 149.627 58.296ZM154.955 65.01C155.615 65.01 156.137 64.698 156.521 64.074C156.905 63.438 157.097 62.628 157.097 61.644C157.097 60.66 156.905 59.856 156.521 59.232C156.137 58.608 155.615 58.296 154.955 58.296C154.559 58.296 154.175 58.434 153.803 58.71C153.431 58.974 153.155 59.298 152.975 59.682V63.606C153.167 64.002 153.443 64.338 153.803 64.614C154.175 64.878 154.559 65.01 154.955 65.01ZM167.733 64.902C166.953 65.778 165.915 66.216 164.619 66.216C163.323 66.216 162.279 65.778 161.487 64.902C160.707 64.026 160.317 62.94 160.317 61.644C160.317 60.348 160.707 59.268 161.487 58.404C162.279 57.528 163.323 57.09 164.619 57.09C165.915 57.09 166.953 57.528 167.733 58.404C168.525 59.268 168.921 60.348 168.921 61.644C168.921 62.94 168.525 64.026 167.733 64.902ZM162.495 64.038C163.023 64.686 163.731 65.01 164.619 65.01C165.507 65.01 166.209 64.686 166.725 64.038C167.241 63.378 167.499 62.58 167.499 61.644C167.499 60.708 167.241 59.916 166.725 59.268C166.209 58.62 165.507 58.296 164.619 58.296C163.731 58.296 163.023 58.626 162.495 59.286C161.979 59.934 161.721 60.72 161.721 61.644C161.721 62.58 161.979 63.378 162.495 64.038ZM175.405 66.216C174.181 66.216 173.203 65.706 172.471 64.686V69.312H171.121V57.306H172.471V58.602C172.795 58.146 173.215 57.78 173.731 57.504C174.247 57.228 174.805 57.09 175.405 57.09C176.557 57.09 177.487 57.504 178.195 58.332C178.915 59.148 179.275 60.252 179.275 61.644C179.275 63.036 178.915 64.146 178.195 64.974C177.487 65.802 176.557 66.216 175.405 66.216ZM175.063 65.01C175.915 65.01 176.593 64.698 177.097 64.074C177.601 63.438 177.853 62.628 177.853 61.644C177.853 60.66 177.601 59.856 177.097 59.232C176.593 58.608 175.915 58.296 175.063 58.296C174.547 58.296 174.043 58.434 173.551 58.71C173.071 58.974 172.711 59.298 172.471 59.682V63.606C172.711 64.002 173.071 64.338 173.551 64.614C174.043 64.878 174.547 65.01 175.063 65.01ZM190.296 66H188.946V59.178L186.12 66H185.616L182.772 59.178V66H181.422V57.306H183.204L185.868 63.75L188.496 57.306H190.296V66ZM199.775 66H198.425V65.01C197.693 65.814 196.733 66.216 195.545 66.216C194.741 66.216 194.033 65.958 193.421 65.442C192.809 64.926 192.503 64.224 192.503 63.336C192.503 62.424 192.803 61.722 193.403 61.23C194.015 60.726 194.729 60.474 195.545 60.474C196.781 60.474 197.741 60.87 198.425 61.662V60.096C198.425 59.52 198.221 59.07 197.813 58.746C197.405 58.422 196.877 58.26 196.229 58.26C195.209 58.26 194.321 58.662 193.565 59.466L192.935 58.53C193.859 57.57 195.017 57.09 196.409 57.09C197.405 57.09 198.215 57.33 198.839 57.81C199.463 58.29 199.775 59.028 199.775 60.024V66ZM196.031 65.244C197.111 65.244 197.909 64.884 198.425 64.164V62.526C197.909 61.806 197.111 61.446 196.031 61.446C195.407 61.446 194.891 61.626 194.483 61.986C194.087 62.334 193.889 62.79 193.889 63.354C193.889 63.906 194.087 64.362 194.483 64.722C194.891 65.07 195.407 65.244 196.031 65.244ZM209.375 68.214V66H202.481V57.306H203.831V64.812H208.367V57.306H209.717V64.812H210.725V68.214H209.375ZM213.867 66H212.571V57.306H213.921V63.948L218.475 57.306H219.807V66H218.457V59.232L213.867 66ZM229.792 66.216C228.592 66.216 227.602 65.832 226.822 65.064C226.054 64.284 225.622 63.3 225.526 62.112H223.852V66H222.502V57.306H223.852V60.924H225.544C225.688 59.808 226.138 58.89 226.894 58.17C227.662 57.45 228.628 57.09 229.792 57.09C231.088 57.09 232.132 57.528 232.924 58.404C233.716 59.268 234.112 60.348 234.112 61.644C234.112 62.94 233.716 64.026 232.924 64.902C232.132 65.778 231.088 66.216 229.792 66.216ZM229.792 65.01C230.692 65.01 231.4 64.686 231.916 64.038C232.432 63.378 232.69 62.58 232.69 61.644C232.69 60.708 232.432 59.916 231.916 59.268C231.4 58.62 230.692 58.296 229.792 58.296C228.916 58.296 228.214 58.626 227.686 59.286C227.17 59.934 226.912 60.72 226.912 61.644C226.912 62.58 227.17 63.378 227.686 64.038C228.202 64.686 228.904 65.01 229.792 65.01ZM248.592 66H246.864L243.732 62.094L242.292 63.516V66H240.942V57.306H242.292V61.932L246.864 57.306H248.574L244.722 61.248L248.592 66ZM254.472 66.216C253.248 66.216 252.27 65.706 251.538 64.686V69.312H250.188V57.306H251.538V58.602C251.862 58.146 252.282 57.78 252.798 57.504C253.314 57.228 253.872 57.09 254.472 57.09C255.624 57.09 256.554 57.504 257.262 58.332C257.982 59.148 258.342 60.252 258.342 61.644C258.342 63.036 257.982 64.146 257.262 64.974C256.554 65.802 255.624 66.216 254.472 66.216ZM254.13 65.01C254.982 65.01 255.66 64.698 256.164 64.074C256.668 63.438 256.92 62.628 256.92 61.644C256.92 60.66 256.668 59.856 256.164 59.232C255.66 58.608 254.982 58.296 254.13 58.296C253.614 58.296 253.11 58.434 252.618 58.71C252.138 58.974 251.778 59.298 251.538 59.682V63.606C251.778 64.002 252.138 64.338 252.618 64.614C253.11 64.878 253.614 65.01 254.13 65.01ZM267.275 66H265.925V65.01C265.193 65.814 264.233 66.216 263.045 66.216C262.241 66.216 261.533 65.958 260.921 65.442C260.309 64.926 260.003 64.224 260.003 63.336C260.003 62.424 260.303 61.722 260.903 61.23C261.515 60.726 262.229 60.474 263.045 60.474C264.281 60.474 265.241 60.87 265.925 61.662V60.096C265.925 59.52 265.721 59.07 265.313 58.746C264.905 58.422 264.377 58.26 263.729 58.26C262.709 58.26 261.821 58.662 261.065 59.466L260.435 58.53C261.359 57.57 262.517 57.09 263.909 57.09C264.905 57.09 265.715 57.33 266.339 57.81C266.963 58.29 267.275 59.028 267.275 60.024V66ZM263.531 65.244C264.611 65.244 265.409 64.884 265.925 64.164V62.526C265.409 61.806 264.611 61.446 263.531 61.446C262.907 61.446 262.391 61.626 261.983 61.986C261.587 62.334 261.389 62.79 261.389 63.354C261.389 63.906 261.587 64.362 261.983 64.722C262.391 65.07 262.907 65.244 263.531 65.244ZM272.915 66H271.565V58.494H269.045V57.306H275.453V58.494H272.915V66ZM284.873 66H283.145L280.013 62.094L278.573 63.516V66H277.223V57.306H278.573V61.932L283.145 57.306H284.855L281.003 61.248L284.873 66ZM293.328 64.902C292.548 65.778 291.51 66.216 290.214 66.216C288.918 66.216 287.874 65.778 287.082 64.902C286.302 64.026 285.912 62.94 285.912 61.644C285.912 60.348 286.302 59.268 287.082 58.404C287.874 57.528 288.918 57.09 290.214 57.09C291.51 57.09 292.548 57.528 293.328 58.404C294.12 59.268 294.516 60.348 294.516 61.644C294.516 62.94 294.12 64.026 293.328 64.902ZM288.09 64.038C288.618 64.686 289.326 65.01 290.214 65.01C291.102 65.01 291.804 64.686 292.32 64.038C292.836 63.378 293.094 62.58 293.094 61.644C293.094 60.708 292.836 59.916 292.32 59.268C291.804 58.62 291.102 58.296 290.214 58.296C289.326 58.296 288.618 58.626 288.09 59.286C287.574 59.934 287.316 60.72 287.316 61.644C287.316 62.58 287.574 63.378 288.09 64.038ZM37.646 88H36.35V79.306H37.7V85.948L42.254 79.306H43.586V88H42.236V81.232L37.646 88ZM58.1583 88H56.8083V80.494H52.2723V88H50.9223V79.306H58.1583V88ZM67.7659 86.902C66.9859 87.778 65.9479 88.216 64.6519 88.216C63.3559 88.216 62.3119 87.778 61.5199 86.902C60.7399 86.026 60.3499 84.94 60.3499 83.644C60.3499 82.348 60.7399 81.268 61.5199 80.404C62.3119 79.528 63.3559 79.09 64.6519 79.09C65.9479 79.09 66.9859 79.528 67.7659 80.404C68.5579 81.268 68.9539 82.348 68.9539 83.644C68.9539 84.94 68.5579 86.026 67.7659 86.902ZM62.5279 86.038C63.0559 86.686 63.7639 87.01 64.6519 87.01C65.5399 87.01 66.2419 86.686 66.7579 86.038C67.2739 85.378 67.5319 84.58 67.5319 83.644C67.5319 82.708 67.2739 81.916 66.7579 81.268C66.2419 80.62 65.5399 80.296 64.6519 80.296C63.7639 80.296 63.0559 80.626 62.5279 81.286C62.0119 81.934 61.7539 82.72 61.7539 83.644C61.7539 84.58 62.0119 85.378 62.5279 86.038ZM74.6647 84.238H70.3447V83.05H74.6647V84.238ZM75.5252 90.214V86.884C75.9692 86.8 76.3172 86.536 76.5692 86.092C76.8212 85.636 77.0252 84.802 77.1812 83.59L77.7392 79.306H83.7872V86.812H84.7952V90.214H83.4452V88H76.8752V90.214H75.5252ZM78.9272 80.494L78.5312 83.752C78.3272 85.276 77.9072 86.296 77.2712 86.812H82.4372V80.494H78.9272ZM90.565 88.216C89.269 88.216 88.207 87.796 87.379 86.956C86.551 86.104 86.137 85 86.137 83.644C86.137 82.372 86.545 81.298 87.361 80.422C88.177 79.534 89.197 79.09 90.421 79.09C91.705 79.09 92.719 79.534 93.463 80.422C94.219 81.298 94.597 82.408 94.597 83.752V84.094H87.559C87.619 84.946 87.931 85.66 88.495 86.236C89.059 86.812 89.791 87.1 90.691 87.1C91.771 87.1 92.665 86.734 93.373 86.002L94.021 86.884C93.133 87.772 91.981 88.216 90.565 88.216ZM93.265 83.104C93.253 82.36 93.001 81.694 92.509 81.106C92.017 80.506 91.315 80.206 90.403 80.206C89.539 80.206 88.855 80.5 88.351 81.088C87.859 81.676 87.595 82.348 87.559 83.104H93.265ZM95.7576 88.216V87.1C96.1656 87.1 96.5016 86.83 96.7656 86.29C97.0296 85.75 97.2456 84.85 97.4136 83.59L97.9716 79.306H104.02V88H102.67V80.494H99.1596L98.7636 83.752C98.5716 85.348 98.2356 86.494 97.7556 87.19C97.2756 87.874 96.6096 88.216 95.7576 88.216ZM106.229 91.402L106.445 90.178C106.661 90.274 106.907 90.322 107.183 90.322C107.495 90.322 107.753 90.256 107.957 90.124C108.161 89.992 108.335 89.752 108.479 89.404L109.055 88.09L105.419 79.306H106.877L109.775 86.434L112.655 79.306H114.131L109.775 89.764C109.295 90.916 108.443 91.504 107.219 91.528C106.859 91.528 106.529 91.486 106.229 91.402ZM115.942 87.892C115.75 88.084 115.516 88.18 115.24 88.18C114.964 88.18 114.73 88.084 114.538 87.892C114.346 87.7 114.25 87.466 114.25 87.19C114.25 86.914 114.346 86.68 114.538 86.488C114.73 86.296 114.964 86.2 115.24 86.2C115.516 86.2 115.75 86.296 115.942 86.488C116.134 86.68 116.23 86.914 116.23 87.19C116.23 87.466 116.134 87.7 115.942 87.892Z" fill="white"/>
</svg>
