<svg width="1012" height="506" viewBox="0 0 1012 506" fill="none" xmlns="http://www.w3.org/2000/svg">
<g clip-path="url(#clip0)">
<rect width="1012" height="506" fill="#2763BD"/>
<path d="M63.856 106.36C60.256 106.36 56.992 105.64 54.064 104.2C51.136 102.76 48.592 100.816 46.432 98.368C44.32 95.872 42.688 93.088 41.536 90.016C40.384 86.896 39.808 83.704 39.808 80.44C39.808 77.032 40.408 73.792 41.608 70.72C42.856 67.6 44.56 64.84 46.72 62.44C48.928 59.992 51.496 58.072 54.424 56.68C57.352 55.24 60.544 54.52 64 54.52C67.6 54.52 70.864 55.264 73.792 56.752C76.72 58.24 79.24 60.232 81.352 62.728C83.464 65.224 85.096 68.008 86.248 71.08C87.4 74.152 87.976 77.296 87.976 80.512C87.976 83.92 87.376 87.184 86.176 90.304C84.976 93.376 83.272 96.136 81.064 98.584C78.904 100.984 76.36 102.88 73.432 104.272C70.504 105.664 67.312 106.36 63.856 106.36ZM46.36 80.44C46.36 83.032 46.768 85.552 47.584 88C48.448 90.4 49.648 92.536 51.184 94.408C52.72 96.28 54.568 97.768 56.728 98.872C58.888 99.976 61.288 100.528 63.928 100.528C66.664 100.528 69.112 99.952 71.272 98.8C73.432 97.648 75.256 96.112 76.744 94.192C78.28 92.272 79.432 90.112 80.2 87.712C81.016 85.312 81.424 82.888 81.424 80.44C81.424 77.848 80.992 75.352 80.128 72.952C79.312 70.552 78.112 68.416 76.528 66.544C74.992 64.624 73.144 63.136 70.984 62.08C68.872 60.976 66.52 60.424 63.928 60.424C61.192 60.424 58.744 61 56.584 62.152C54.424 63.256 52.576 64.768 51.04 66.688C49.552 68.608 48.4 70.768 47.584 73.168C46.768 75.52 46.36 77.944 46.36 80.44ZM105.115 106V74.032H92.1554V68.416H124.411V74.032H111.451V106H105.115ZM130.704 106V68.416H137.04V83.896H141.216L153.024 68.416H160.224L146.184 86.632L161.88 106H154.536L141.216 89.728H137.04V106H130.704ZM188.344 106.72C185.272 106.72 182.536 105.952 180.136 104.416C177.736 102.88 175.84 100.936 174.448 98.584V121.336H168.112V68.416H173.728V75.472C175.216 73.168 177.16 71.32 179.56 69.928C181.96 68.488 184.576 67.768 187.408 67.768C190 67.768 192.376 68.296 194.536 69.352C196.696 70.408 198.568 71.848 200.152 73.672C201.736 75.496 202.96 77.584 203.824 79.936C204.736 82.24 205.192 84.664 205.192 87.208C205.192 90.76 204.472 94.024 203.032 97C201.64 99.976 199.672 102.352 197.128 104.128C194.584 105.856 191.656 106.72 188.344 106.72ZM186.4 101.248C188.896 101.248 191.056 100.576 192.88 99.232C194.704 97.888 196.12 96.136 197.128 93.976C198.184 91.816 198.712 89.56 198.712 87.208C198.712 84.664 198.136 82.336 196.984 80.224C195.88 78.112 194.344 76.432 192.376 75.184C190.456 73.888 188.272 73.24 185.824 73.24C184.336 73.24 182.752 73.624 181.072 74.392C179.44 75.16 178 76.192 176.752 77.488C175.552 78.736 174.784 80.128 174.448 81.664V92.392C175.504 94.888 177.112 97 179.272 98.728C181.48 100.408 183.856 101.248 186.4 101.248ZM212.899 106V68.416H219.235V81.232H226.867C231.283 81.232 234.619 82.36 236.875 84.616C239.179 86.824 240.331 89.728 240.331 93.328C240.331 96.928 239.227 99.952 237.019 102.4C234.811 104.8 231.571 106 227.299 106H212.899ZM246.811 106V68.488H253.147V106H246.811ZM219.235 101.032H226.435C229.075 101.032 230.971 100.288 232.123 98.8C233.323 97.264 233.923 95.488 233.923 93.472C233.923 91.504 233.371 89.8 232.267 88.36C231.163 86.92 229.171 86.2 226.291 86.2H219.235V101.032ZM272.529 106V74.032H259.569V68.416H291.825V74.032H278.865V106H272.529ZM295.238 95.128C295.238 92.728 295.91 90.664 297.254 88.936C298.646 87.16 300.542 85.792 302.942 84.832C305.342 83.872 308.126 83.392 311.294 83.392C312.974 83.392 314.75 83.536 316.622 83.824C318.494 84.064 320.15 84.448 321.59 84.976V82.24C321.59 79.36 320.726 77.104 318.998 75.472C317.27 73.792 314.822 72.952 311.654 72.952C309.59 72.952 307.598 73.336 305.678 74.104C303.806 74.824 301.814 75.88 299.702 77.272L297.398 72.808C299.846 71.128 302.294 69.88 304.742 69.064C307.19 68.2 309.734 67.768 312.374 67.768C317.174 67.768 320.966 69.112 323.75 71.8C326.534 74.44 327.926 78.136 327.926 82.888V98.8C327.926 100.288 328.598 101.056 329.942 101.104V106C329.318 106.096 328.766 106.168 328.286 106.216C327.854 106.264 327.494 106.288 327.206 106.288C325.718 106.288 324.59 105.88 323.822 105.064C323.102 104.248 322.694 103.384 322.598 102.472L322.454 100.096C320.822 102.208 318.686 103.84 316.046 104.992C313.406 106.144 310.79 106.72 308.198 106.72C305.702 106.72 303.47 106.216 301.502 105.208C299.534 104.152 297.998 102.76 296.894 101.032C295.79 99.256 295.238 97.288 295.238 95.128ZM319.718 97.792C320.294 97.12 320.75 96.448 321.086 95.776C321.422 95.056 321.59 94.456 321.59 93.976V89.296C318.518 88.096 315.35 87.496 312.086 87.496C308.87 87.496 306.254 88.144 304.238 89.44C302.27 90.688 301.286 92.416 301.286 94.624C301.286 95.824 301.598 97 302.222 98.152C302.894 99.256 303.854 100.168 305.102 100.888C306.398 101.608 307.982 101.968 309.854 101.968C311.822 101.968 313.694 101.584 315.47 100.816C317.246 100 318.662 98.992 319.718 97.792ZM335.249 106L345.905 90.88C343.457 90.4 341.489 89.248 340.001 87.424C338.513 85.552 337.769 83.056 337.769 79.936C337.769 77.68 338.297 75.688 339.353 73.96C340.409 72.232 341.873 70.864 343.745 69.856C345.665 68.848 347.897 68.344 350.441 68.344H365.849V106H359.513V91.888H352.169L342.233 106H335.249ZM350.873 87.208H359.513V73.312H351.593C349.337 73.312 347.537 73.96 346.193 75.256C344.849 76.504 344.177 78.112 344.177 80.08C344.177 82.048 344.729 83.728 345.833 85.12C346.985 86.512 348.665 87.208 350.873 87.208Z" fill="white"/>
<path d="M120.744 187.72C117 187.72 113.688 186.832 110.808 185.056C107.928 183.232 105.672 180.832 104.04 177.856C102.408 174.88 101.592 171.64 101.592 168.136C101.592 164.584 102.384 161.344 103.968 158.416C105.552 155.488 107.784 153.16 110.664 151.432C113.544 149.656 116.88 148.768 120.672 148.768C124.368 148.768 127.584 149.608 130.32 151.288C133.104 152.92 135.168 155.128 136.512 157.912L130.32 159.856C129.36 158.08 128.016 156.712 126.288 155.752C124.56 154.744 122.64 154.24 120.528 154.24C118.224 154.24 116.112 154.84 114.192 156.04C112.32 157.24 110.832 158.896 109.728 161.008C108.624 163.072 108.072 165.448 108.072 168.136C108.072 170.776 108.624 173.176 109.728 175.336C110.88 177.448 112.392 179.128 114.264 180.376C116.184 181.624 118.296 182.248 120.6 182.248C122.088 182.248 123.504 181.984 124.848 181.456C126.24 180.928 127.44 180.232 128.448 179.368C129.504 178.456 130.224 177.472 130.608 176.416L136.8 178.288C135.696 181.024 133.68 183.28 130.752 185.056C127.872 186.832 124.536 187.72 120.744 187.72ZM155.355 187.504C150.075 187.504 146.163 185.896 143.619 182.68C141.123 179.416 140.403 175.048 141.459 169.576C142.419 164.488 144.531 160.24 147.795 156.832C151.107 153.424 155.019 151.432 159.531 150.856C156.747 151.768 154.275 153.712 152.115 156.688C149.955 159.664 148.491 163.192 147.723 167.272C146.667 172.648 147.123 176.896 149.091 180.016C151.107 183.088 154.347 184.624 158.811 184.624C163.995 184.624 168.555 182.848 172.491 179.296C168.219 184.768 162.507 187.504 155.355 187.504ZM149.739 169.288C155.835 168.808 160.659 167.632 164.211 165.76C167.811 163.84 169.899 161.416 170.475 158.488C170.811 156.664 170.595 155.08 169.827 153.736C169.059 152.344 167.859 151.384 166.227 150.856C169.443 151.048 171.867 151.888 173.499 153.376C175.179 154.864 175.779 156.784 175.299 159.136C174.675 162.4 172.155 164.92 167.739 166.696C163.323 168.424 157.323 169.288 149.739 169.288ZM204.571 187.72C201.499 187.72 198.763 186.952 196.363 185.416C193.963 183.88 192.067 181.936 190.675 179.584V202.336H184.339V149.416H189.955V156.472C191.443 154.168 193.387 152.32 195.787 150.928C198.187 149.488 200.803 148.768 203.635 148.768C206.227 148.768 208.603 149.296 210.763 150.352C212.923 151.408 214.795 152.848 216.379 154.672C217.963 156.496 219.187 158.584 220.051 160.936C220.963 163.24 221.419 165.664 221.419 168.208C221.419 171.76 220.699 175.024 219.259 178C217.867 180.976 215.899 183.352 213.355 185.128C210.811 186.856 207.883 187.72 204.571 187.72ZM202.627 182.248C205.123 182.248 207.283 181.576 209.107 180.232C210.931 178.888 212.347 177.136 213.355 174.976C214.411 172.816 214.939 170.56 214.939 168.208C214.939 165.664 214.363 163.336 213.211 161.224C212.107 159.112 210.571 157.432 208.603 156.184C206.683 154.888 204.499 154.24 202.051 154.24C200.563 154.24 198.979 154.624 197.299 155.392C195.667 156.16 194.227 157.192 192.979 158.488C191.779 159.736 191.011 161.128 190.675 162.664V173.392C191.731 175.888 193.339 178 195.499 179.728C197.707 181.408 200.083 182.248 202.627 182.248ZM246.55 202.336V187H245.11C241.318 187 238.03 186.136 235.246 184.408C232.51 182.68 230.398 180.4 228.91 177.568C227.422 174.736 226.678 171.64 226.678 168.28C226.678 164.872 227.422 161.752 228.91 158.92C230.446 156.088 232.582 153.808 235.318 152.08C238.102 150.352 241.366 149.488 245.11 149.488H246.55V134.44H252.886V149.488H254.398C258.142 149.488 261.382 150.352 264.118 152.08C266.902 153.808 269.038 156.088 270.526 158.92C272.062 161.752 272.83 164.872 272.83 168.28C272.83 171.64 272.086 174.736 270.598 177.568C269.11 180.4 266.974 182.68 264.19 184.408C261.454 186.136 258.19 187 254.398 187H252.886V202.336H246.55ZM245.11 181.816H246.838V154.672H245.11C242.758 154.672 240.646 155.296 238.774 156.544C236.95 157.744 235.51 159.376 234.454 161.44C233.398 163.504 232.87 165.808 232.87 168.352C232.87 170.896 233.374 173.2 234.382 175.264C235.438 177.28 236.878 178.888 238.702 180.088C240.526 181.24 242.662 181.816 245.11 181.816ZM252.598 181.816H254.398C256.798 181.816 258.91 181.24 260.734 180.088C262.606 178.888 264.046 177.28 265.054 175.264C266.11 173.2 266.638 170.896 266.638 168.352C266.638 165.808 266.11 163.504 265.054 161.44C263.998 159.376 262.558 157.744 260.734 156.544C258.91 155.296 256.798 154.672 254.398 154.672H252.598V181.816ZM280.022 170.224V164.464H301.262V170.224H280.022ZM310.899 187V149.416H330.339C332.595 149.416 334.467 149.872 335.955 150.784C337.443 151.648 338.547 152.776 339.267 154.168C340.035 155.56 340.419 157.048 340.419 158.632C340.419 160.648 339.939 162.472 338.979 164.104C338.019 165.688 336.627 166.888 334.803 167.704C336.963 168.328 338.715 169.456 340.059 171.088C341.403 172.672 342.075 174.64 342.075 176.992C342.075 180.16 340.947 182.632 338.691 184.408C336.483 186.136 333.579 187 329.979 187H310.899ZM316.947 165.976H328.683C330.363 165.976 331.731 165.352 332.787 164.104C333.891 162.808 334.443 161.344 334.443 159.712C334.443 158.128 333.915 156.76 332.859 155.608C331.851 154.456 330.531 153.88 328.899 153.88H316.947V165.976ZM316.947 182.536H329.835C331.563 182.536 333.003 181.912 334.155 180.664C335.355 179.416 335.955 177.976 335.955 176.344C335.955 174.664 335.379 173.224 334.227 172.024C333.123 170.776 331.731 170.152 330.051 170.152H316.947V182.536ZM366.767 187.72C363.023 187.72 359.711 186.832 356.831 185.056C353.951 183.232 351.695 180.832 350.063 177.856C348.431 174.88 347.615 171.64 347.615 168.136C347.615 164.584 348.407 161.344 349.991 158.416C351.575 155.488 353.807 153.16 356.687 151.432C359.567 149.656 362.903 148.768 366.695 148.768C370.391 148.768 373.607 149.608 376.343 151.288C379.127 152.92 381.191 155.128 382.535 157.912L376.343 159.856C375.383 158.08 374.039 156.712 372.311 155.752C370.583 154.744 368.663 154.24 366.551 154.24C364.247 154.24 362.135 154.84 360.215 156.04C358.343 157.24 356.855 158.896 355.751 161.008C354.647 163.072 354.095 165.448 354.095 168.136C354.095 170.776 354.647 173.176 355.751 175.336C356.903 177.448 358.415 179.128 360.287 180.376C362.207 181.624 364.319 182.248 366.623 182.248C368.111 182.248 369.527 181.984 370.871 181.456C372.263 180.928 373.463 180.232 374.471 179.368C375.527 178.456 376.247 177.472 376.631 176.416L382.823 178.288C381.719 181.024 379.703 183.28 376.775 185.056C373.895 186.832 370.559 187.72 366.767 187.72ZM399.147 187V155.032H386.187V149.416H418.443V155.032H405.483V187H399.147ZM445.039 187.72C441.967 187.72 439.231 186.952 436.831 185.416C434.431 183.88 432.535 181.936 431.143 179.584V202.336H424.807V149.416H430.423V156.472C431.911 154.168 433.855 152.32 436.255 150.928C438.655 149.488 441.271 148.768 444.103 148.768C446.695 148.768 449.071 149.296 451.231 150.352C453.391 151.408 455.263 152.848 456.847 154.672C458.431 156.496 459.655 158.584 460.519 160.936C461.431 163.24 461.887 165.664 461.887 168.208C461.887 171.76 461.167 175.024 459.727 178C458.335 180.976 456.367 183.352 453.823 185.128C451.279 186.856 448.351 187.72 445.039 187.72ZM443.095 182.248C445.591 182.248 447.751 181.576 449.575 180.232C451.399 178.888 452.815 177.136 453.823 174.976C454.879 172.816 455.407 170.56 455.407 168.208C455.407 165.664 454.831 163.336 453.679 161.224C452.575 159.112 451.039 157.432 449.071 156.184C447.151 154.888 444.967 154.24 442.519 154.24C441.031 154.24 439.447 154.624 437.767 155.392C436.135 156.16 434.695 157.192 433.447 158.488C432.247 159.736 431.479 161.128 431.143 162.664V173.392C432.199 175.888 433.807 178 435.967 179.728C438.175 181.408 440.551 182.248 443.095 182.248ZM486.299 187.72C482.555 187.72 479.243 186.832 476.363 185.056C473.483 183.28 471.227 180.904 469.595 177.928C467.963 174.952 467.147 171.712 467.147 168.208C467.147 164.656 467.963 161.416 469.595 158.488C471.227 155.56 473.483 153.208 476.363 151.432C479.291 149.656 482.627 148.768 486.371 148.768C490.163 148.768 493.451 149.68 496.235 151.504C499.067 153.28 501.251 155.632 502.787 158.56C504.371 161.44 505.163 164.56 505.163 167.92C505.163 168.976 505.115 169.792 505.019 170.368H473.843C474.035 172.816 474.707 175 475.859 176.92C477.059 178.792 478.595 180.28 480.467 181.384C482.339 182.44 484.355 182.968 486.515 182.968C488.819 182.968 490.979 182.392 492.995 181.24C495.059 180.088 496.475 178.576 497.243 176.704L502.715 178.216C501.515 181 499.427 183.28 496.451 185.056C493.475 186.832 490.091 187.72 486.299 187.72ZM473.627 165.976H499.259C499.067 163.528 498.371 161.368 497.171 159.496C495.971 157.624 494.435 156.16 492.563 155.104C490.691 154.048 488.627 153.52 486.371 153.52C484.163 153.52 482.123 154.048 480.251 155.104C478.379 156.16 476.843 157.624 475.643 159.496C474.491 161.368 473.819 163.528 473.627 165.976ZM533.518 187V171.952C530.59 173.344 527.278 174.04 523.582 174.04C515.23 174.04 511.054 169.768 511.054 161.224V149.416H517.39V160.36C517.39 163.384 518.014 165.592 519.262 166.984C520.51 168.376 522.502 169.072 525.238 169.072C526.774 169.072 528.286 168.904 529.774 168.568C531.31 168.232 532.558 167.776 533.518 167.2V149.416H539.926V187H533.518ZM547.223 176.128C547.223 173.728 547.895 171.664 549.239 169.936C550.631 168.16 552.527 166.792 554.927 165.832C557.327 164.872 560.111 164.392 563.279 164.392C564.959 164.392 566.735 164.536 568.607 164.824C570.479 165.064 572.135 165.448 573.575 165.976V163.24C573.575 160.36 572.711 158.104 570.983 156.472C569.255 154.792 566.807 153.952 563.639 153.952C561.575 153.952 559.583 154.336 557.663 155.104C555.791 155.824 553.799 156.88 551.687 158.272L549.383 153.808C551.831 152.128 554.279 150.88 556.727 150.064C559.175 149.2 561.719 148.768 564.359 148.768C569.159 148.768 572.951 150.112 575.735 152.8C578.519 155.44 579.911 159.136 579.911 163.888V179.8C579.911 181.288 580.583 182.056 581.927 182.104V187C581.303 187.096 580.751 187.168 580.271 187.216C579.839 187.264 579.479 187.288 579.191 187.288C577.703 187.288 576.575 186.88 575.807 186.064C575.087 185.248 574.679 184.384 574.583 183.472L574.439 181.096C572.807 183.208 570.671 184.84 568.031 185.992C565.391 187.144 562.775 187.72 560.183 187.72C557.687 187.72 555.455 187.216 553.487 186.208C551.519 185.152 549.983 183.76 548.879 182.032C547.775 180.256 547.223 178.288 547.223 176.128ZM571.703 178.792C572.279 178.12 572.735 177.448 573.071 176.776C573.407 176.056 573.575 175.456 573.575 174.976V170.296C570.503 169.096 567.335 168.496 564.07 168.496C560.855 168.496 558.239 169.144 556.223 170.44C554.255 171.688 553.271 173.416 553.271 175.624C553.271 176.824 553.583 178 554.207 179.152C554.879 180.256 555.839 181.168 557.087 181.888C558.383 182.608 559.967 182.968 561.839 182.968C563.807 182.968 565.679 182.584 567.455 181.816C569.231 181 570.647 179.992 571.703 178.792Z" fill="white"/>
<path d="M42.04 275V237.416H61.48C63.736 237.416 65.608 237.872 67.096 238.784C68.584 239.648 69.688 240.776 70.408 242.168C71.176 243.56 71.56 245.048 71.56 246.632C71.56 248.648 71.08 250.472 70.12 252.104C69.16 253.688 67.768 254.888 65.944 255.704C68.104 256.328 69.856 257.456 71.2 259.088C72.544 260.672 73.216 262.64 73.216 264.992C73.216 268.16 72.088 270.632 69.832 272.408C67.624 274.136 64.72 275 61.12 275H42.04ZM48.088 253.976H59.824C61.504 253.976 62.872 253.352 63.928 252.104C65.032 250.808 65.584 249.344 65.584 247.712C65.584 246.128 65.056 244.76 64 243.608C62.992 242.456 61.672 241.88 60.04 241.88H48.088V253.976ZM48.088 270.536H60.976C62.704 270.536 64.144 269.912 65.296 268.664C66.496 267.416 67.096 265.976 67.096 264.344C67.096 262.664 66.52 261.224 65.368 260.024C64.264 258.776 62.872 258.152 61.192 258.152H48.088V270.536ZM144.703 275V235.976L127.855 266H123.895L106.975 235.976V275H100.495V223.88H107.335L125.839 257.072L144.415 223.88H151.183V275H144.703ZM177.609 275.288C180.681 274.472 183.393 272.432 185.745 269.168C188.097 265.904 189.753 261.848 190.713 257C191.625 252.152 191.529 248.096 190.425 244.832C189.369 241.568 187.449 239.528 184.665 238.712C189.321 239.288 192.729 241.208 194.889 244.472C197.049 247.736 197.649 251.912 196.689 257C195.681 262.088 193.449 266.264 189.993 269.528C186.585 272.792 182.457 274.712 177.609 275.288ZM171.921 275.288C167.265 274.712 163.857 272.792 161.697 269.528C159.585 266.264 159.033 262.088 160.041 257C161.001 251.912 163.161 247.736 166.521 244.472C169.929 241.208 174.081 239.288 178.977 238.712C175.905 239.528 173.193 241.568 170.841 244.832C168.489 248.096 166.857 252.152 165.945 257C165.033 261.896 165.105 265.976 166.161 269.24C167.217 272.456 169.137 274.472 171.921 275.288ZM223.838 275.72C220.094 275.72 216.782 274.832 213.902 273.056C211.022 271.232 208.766 268.832 207.134 265.856C205.502 262.88 204.686 259.64 204.686 256.136C204.686 252.584 205.478 249.344 207.062 246.416C208.646 243.488 210.878 241.16 213.758 239.432C216.638 237.656 219.974 236.768 223.766 236.768C227.462 236.768 230.678 237.608 233.414 239.288C236.198 240.92 238.262 243.128 239.606 245.912L233.414 247.856C232.454 246.08 231.11 244.712 229.382 243.752C227.654 242.744 225.734 242.24 223.622 242.24C221.318 242.24 219.206 242.84 217.286 244.04C215.414 245.24 213.926 246.896 212.822 249.008C211.718 251.072 211.166 253.448 211.166 256.136C211.166 258.776 211.718 261.176 212.822 263.336C213.974 265.448 215.486 267.128 217.358 268.376C219.278 269.624 221.39 270.248 223.694 270.248C225.182 270.248 226.598 269.984 227.942 269.456C229.334 268.928 230.534 268.232 231.542 267.368C232.598 266.456 233.318 265.472 233.702 264.416L239.894 266.288C238.79 269.024 236.774 271.28 233.846 273.056C230.966 274.832 227.63 275.72 223.838 275.72ZM247.001 275V237.416H253.337V252.896H257.513L269.321 237.416H276.521L262.481 255.632L278.177 275H270.833L257.513 258.728H253.337V275H247.001ZM284.337 275V237.416H303.777C306.033 237.416 307.905 237.872 309.393 238.784C310.881 239.648 311.985 240.776 312.705 242.168C313.473 243.56 313.857 245.048 313.857 246.632C313.857 248.648 313.377 250.472 312.417 252.104C311.457 253.688 310.065 254.888 308.241 255.704C310.401 256.328 312.153 257.456 313.497 259.088C314.841 260.672 315.513 262.64 315.513 264.992C315.513 268.16 314.385 270.632 312.129 272.408C309.921 274.136 307.017 275 303.417 275H284.337ZM290.385 253.976H302.121C303.801 253.976 305.169 253.352 306.225 252.104C307.329 250.808 307.881 249.344 307.881 247.712C307.881 246.128 307.353 244.76 306.297 243.608C305.289 242.456 303.969 241.88 302.337 241.88H290.385V253.976ZM290.385 270.536H303.273C305.001 270.536 306.441 269.912 307.593 268.664C308.793 267.416 309.393 265.976 309.393 264.344C309.393 262.664 308.817 261.224 307.665 260.024C306.561 258.776 305.169 258.152 303.489 258.152H290.385V270.536ZM340.205 275.72C336.461 275.72 333.149 274.832 330.269 273.056C327.389 271.28 325.133 268.904 323.501 265.928C321.869 262.952 321.053 259.712 321.053 256.208C321.053 252.656 321.869 249.416 323.501 246.488C325.133 243.56 327.389 241.208 330.269 239.432C333.197 237.656 336.533 236.768 340.277 236.768C344.069 236.768 347.357 237.68 350.141 239.504C352.973 241.28 355.157 243.632 356.693 246.56C358.277 249.44 359.069 252.56 359.069 255.92C359.069 256.976 359.021 257.792 358.925 258.368H327.749C327.941 260.816 328.613 263 329.765 264.92C330.965 266.792 332.501 268.28 334.373 269.384C336.245 270.44 338.261 270.968 340.421 270.968C342.725 270.968 344.885 270.392 346.901 269.24C348.965 268.088 350.381 266.576 351.149 264.704L356.621 266.216C355.421 269 353.333 271.28 350.357 273.056C347.381 274.832 343.997 275.72 340.205 275.72ZM327.533 253.976H353.165C352.973 251.528 352.277 249.368 351.077 247.496C349.877 245.624 348.341 244.16 346.469 243.104C344.597 242.048 342.533 241.52 340.277 241.52C338.069 241.52 336.029 242.048 334.157 243.104C332.285 244.16 330.749 245.624 329.549 247.496C328.397 249.368 327.725 251.528 327.533 253.976Z" fill="white"/>
<path d="M38.776 446V433.496H40.408V438.848H42.28L46.48 433.496H48.352L43.576 439.568L48.952 446H47.032L42.28 440.36H40.408V446H38.776ZM50.0688 446.072V444.584C50.4848 444.584 50.8608 444.472 51.1968 444.248C51.5488 444.024 51.8528 443.632 52.1088 443.072C52.3808 442.512 52.5968 441.736 52.7568 440.744C52.9168 439.752 53.0208 438.496 53.0688 436.976L53.2128 433.496H61.3248V446H59.6928V434.96H54.6528L54.6048 437.12C54.5248 439.44 54.3088 441.248 53.9568 442.544C53.6048 443.84 53.1008 444.752 52.4448 445.28C51.8048 445.792 51.0128 446.056 50.0688 446.072ZM66.3008 451.232C65.7728 451.232 65.2128 451.064 64.6208 450.728L65.2208 449.576C65.5568 449.8 65.8848 449.912 66.2048 449.912C67.0048 449.912 67.7488 449.096 68.4368 447.464L69.0608 445.904L63.4928 433.496H65.2208L69.8048 444.32L74.0288 433.496H75.6608L69.7088 447.968C69.2288 449.104 68.7088 449.928 68.1488 450.44C67.5888 450.968 66.9728 451.232 66.3008 451.232ZM83.6766 446.24C81.6606 446.24 80.1326 445.624 79.0926 444.392C78.0686 443.144 77.5566 441.424 77.5566 439.232C77.5566 437.68 77.6846 436.368 77.9406 435.296C78.1966 434.224 78.5726 433.336 79.0686 432.632C79.5646 431.928 80.1726 431.36 80.8926 430.928C81.6286 430.48 82.4686 430.112 83.4126 429.824L88.6686 428.096L88.8126 429.512L83.7486 431.168C82.7886 431.504 81.9806 431.912 81.3246 432.392C80.6846 432.872 80.1806 433.504 79.8126 434.288C79.4606 435.056 79.2366 436.04 79.1406 437.24C79.5406 436.312 80.1726 435.6 81.0366 435.104C81.9166 434.592 82.9246 434.336 84.0606 434.336C85.2766 434.336 86.3086 434.584 87.1566 435.08C88.0206 435.576 88.6766 436.264 89.1246 437.144C89.5726 438.024 89.7966 439.04 89.7966 440.192C89.7966 442.016 89.2686 443.48 88.2126 444.584C87.1726 445.688 85.6606 446.24 83.6766 446.24ZM83.6766 444.8C85.1006 444.8 86.1966 444.392 86.9646 443.576C87.7486 442.744 88.1406 441.64 88.1406 440.264C88.1406 438.92 87.7566 437.824 86.9886 436.976C86.2206 436.128 85.1166 435.704 83.6766 435.704C82.8446 435.704 82.0926 435.88 81.4206 436.232C80.7486 436.584 80.2126 437.096 79.8126 437.768C79.4286 438.44 79.2366 439.272 79.2366 440.264C79.2366 441.576 79.6126 442.664 80.3646 443.528C81.1326 444.376 82.2366 444.8 83.6766 444.8ZM108.955 432.152C108.475 431.624 107.835 431.192 107.035 430.856C106.235 430.504 105.323 430.328 104.299 430.328C102.795 430.328 101.699 430.616 101.011 431.192C100.323 431.752 99.9794 432.52 99.9794 433.496C99.9794 434.168 100.147 434.696 100.483 435.08C100.819 435.464 101.331 435.784 102.019 436.04C102.723 436.28 103.619 436.52 104.707 436.76C105.923 437.016 106.971 437.32 107.851 437.672C108.731 438.024 109.411 438.504 109.891 439.112C110.371 439.704 110.611 440.512 110.611 441.536C110.611 442.576 110.347 443.44 109.819 444.128C109.291 444.816 108.563 445.328 107.635 445.664C106.707 445.984 105.651 446.144 104.467 446.144C101.811 446.144 99.5314 445.32 97.6274 443.672L98.4674 442.304C99.0754 442.944 99.9074 443.496 100.963 443.96C102.035 444.424 103.219 444.656 104.515 444.656C105.859 444.656 106.915 444.408 107.683 443.912C108.451 443.416 108.835 442.68 108.835 441.704C108.835 441 108.643 440.44 108.259 440.024C107.875 439.592 107.299 439.24 106.531 438.968C105.763 438.696 104.819 438.432 103.699 438.176C102.515 437.904 101.515 437.6 100.699 437.264C99.8994 436.928 99.2914 436.488 98.8754 435.944C98.4594 435.4 98.2514 434.664 98.2514 433.736C98.2514 432.68 98.5074 431.792 99.0194 431.072C99.5474 430.336 100.267 429.784 101.179 429.416C102.091 429.032 103.139 428.84 104.323 428.84C105.443 428.84 106.451 429.016 107.347 429.368C108.243 429.704 109.051 430.184 109.771 430.808L108.955 432.152ZM113.118 440.84V433.496H114.75V440.552C114.75 443.384 115.718 444.8 117.654 444.8C118.614 444.8 119.51 444.488 120.342 443.864C121.19 443.24 121.798 442.408 122.166 441.368V433.496H123.798V444.032C123.798 444.464 123.99 444.688 124.374 444.704V446C124.182 446.032 124.03 446.048 123.918 446.048C123.822 446.048 123.718 446.048 123.606 446.048C123.27 446.016 122.982 445.888 122.742 445.664C122.518 445.44 122.406 445.168 122.406 444.848L122.358 443.168C121.814 444.144 121.07 444.904 120.126 445.448C119.198 445.976 118.19 446.24 117.102 446.24C114.446 446.24 113.118 444.44 113.118 440.84ZM133.728 434.936C132.64 434.968 131.68 435.272 130.848 435.848C130.032 436.424 129.456 437.216 129.12 438.224V446H127.488V433.496H129.024V436.496C129.456 435.616 130.024 434.904 130.728 434.36C131.448 433.816 132.208 433.512 133.008 433.448C133.168 433.432 133.304 433.424 133.416 433.424C133.528 433.424 133.632 433.432 133.728 433.448V434.936ZM136.502 446V434.792H134.774V433.496H136.502V433.16C136.502 431.624 136.83 430.424 137.486 429.56C138.158 428.68 139.054 428.24 140.174 428.24C140.654 428.24 141.126 428.312 141.59 428.456C142.07 428.6 142.478 428.792 142.814 429.032L142.31 430.208C141.83 429.84 141.222 429.656 140.486 429.656C139.734 429.656 139.15 429.952 138.734 430.544C138.334 431.136 138.134 431.992 138.134 433.112V433.496H141.59V434.792H138.134V446H136.502ZM159.567 433.496H161.175L155.799 446H154.383L151.767 439.784L149.175 446H147.759L142.383 433.496H143.967L148.527 444.32L150.831 438.68L148.719 433.52H150.183L151.767 437.576L153.375 433.52H154.815L152.727 438.68L155.031 444.32L159.567 433.496ZM162.034 442.4C162.034 441.632 162.258 440.968 162.706 440.408C163.154 439.832 163.77 439.384 164.554 439.064C165.354 438.744 166.274 438.584 167.314 438.584C167.922 438.584 168.554 438.64 169.21 438.752C169.866 438.848 170.45 438.984 170.962 439.16V438.104C170.962 437.048 170.65 436.208 170.026 435.584C169.402 434.96 168.538 434.648 167.434 434.648C166.778 434.648 166.122 434.776 165.466 435.032C164.81 435.272 164.13 435.632 163.426 436.112L162.802 434.96C163.618 434.4 164.418 433.984 165.202 433.712C165.986 433.424 166.786 433.28 167.602 433.28C169.138 433.28 170.354 433.72 171.25 434.6C172.146 435.48 172.594 436.696 172.594 438.248V444.032C172.594 444.464 172.794 444.688 173.194 444.704V446C172.842 446.048 172.594 446.064 172.45 446.048C172.05 446.032 171.746 445.904 171.538 445.664C171.33 445.424 171.218 445.168 171.202 444.896L171.178 443.984C170.618 444.704 169.89 445.264 168.994 445.664C168.098 446.048 167.186 446.24 166.258 446.24C165.442 446.24 164.714 446.072 164.074 445.736C163.434 445.384 162.93 444.92 162.562 444.344C162.21 443.752 162.034 443.104 162.034 442.4ZM170.41 443.36C170.778 442.928 170.962 442.528 170.962 442.16V440.336C169.858 439.904 168.706 439.688 167.506 439.688C166.338 439.688 165.394 439.92 164.674 440.384C163.954 440.848 163.594 441.48 163.594 442.28C163.594 442.968 163.858 443.592 164.386 444.152C164.93 444.712 165.682 444.992 166.642 444.992C167.426 444.992 168.154 444.84 168.826 444.536C169.514 444.232 170.042 443.84 170.41 443.36ZM176.465 449.84C176.689 449.856 176.905 449.864 177.113 449.864C177.321 449.88 177.473 449.872 177.569 449.84C177.761 449.824 177.937 449.712 178.097 449.504C178.273 449.312 178.481 448.944 178.721 448.4C178.977 447.872 179.321 447.072 179.753 446L174.305 433.496H176.033L180.617 444.32L184.841 433.496H186.473L179.993 449.624C179.817 450.088 179.521 450.488 179.105 450.824C178.689 451.16 178.137 451.336 177.449 451.352C177.305 451.368 177.153 451.368 176.993 451.352C176.833 451.352 176.657 451.336 176.465 451.304V449.84ZM209.646 446V432.128L203.478 442.904H202.422L196.23 432.128V446H194.55V428.96H196.278L202.926 440.624L209.622 428.96H211.326V446H209.646ZM220.401 446.24C219.201 446.24 218.129 445.944 217.185 445.352C216.257 444.76 215.529 443.976 215.001 443C214.473 442.008 214.209 440.936 214.209 439.784C214.209 438.616 214.473 437.544 215.001 436.568C215.545 435.576 216.281 434.784 217.209 434.192C218.153 433.584 219.217 433.28 220.401 433.28C221.601 433.28 222.665 433.584 223.593 434.192C224.537 434.784 225.273 435.576 225.801 436.568C226.345 437.544 226.617 438.616 226.617 439.784C226.617 440.936 226.353 442.008 225.825 443C225.297 443.976 224.561 444.76 223.617 445.352C222.689 445.944 221.617 446.24 220.401 446.24ZM215.865 439.808C215.865 440.736 216.065 441.584 216.465 442.352C216.881 443.104 217.433 443.704 218.121 444.152C218.809 444.584 219.569 444.8 220.401 444.8C221.233 444.8 221.993 444.576 222.681 444.128C223.369 443.68 223.921 443.072 224.337 442.304C224.753 441.536 224.961 440.688 224.961 439.76C224.961 438.832 224.753 437.984 224.337 437.216C223.921 436.448 223.369 435.84 222.681 435.392C221.993 434.944 221.233 434.72 220.401 434.72C219.585 434.72 218.833 434.952 218.145 435.416C217.457 435.864 216.905 436.472 216.489 437.24C216.073 438.008 215.865 438.864 215.865 439.808ZM233.451 446.24C232.427 446.24 231.475 446.072 230.595 445.736C229.731 445.384 228.971 444.872 228.315 444.2L228.987 443.048C229.691 443.704 230.395 444.184 231.099 444.488C231.819 444.776 232.579 444.92 233.379 444.92C234.339 444.92 235.123 444.728 235.731 444.344C236.355 443.944 236.667 443.376 236.667 442.64C236.667 442.144 236.515 441.768 236.211 441.512C235.923 441.24 235.499 441.024 234.939 440.864C234.395 440.704 233.739 440.52 232.971 440.312C232.107 440.072 231.379 439.824 230.787 439.568C230.211 439.296 229.771 438.96 229.467 438.56C229.179 438.144 229.035 437.608 229.035 436.952C229.035 436.152 229.235 435.48 229.635 434.936C230.051 434.392 230.611 433.984 231.315 433.712C232.035 433.424 232.835 433.28 233.715 433.28C234.675 433.28 235.523 433.432 236.259 433.736C236.995 434.04 237.595 434.464 238.059 435.008L237.267 436.112C236.835 435.6 236.299 435.224 235.659 434.984C235.035 434.728 234.355 434.6 233.619 434.6C233.107 434.6 232.619 434.672 232.155 434.816C231.691 434.944 231.307 435.168 231.003 435.488C230.715 435.792 230.571 436.216 230.571 436.76C230.571 437.432 230.819 437.896 231.315 438.152C231.811 438.408 232.563 438.68 233.571 438.968C234.515 439.224 235.339 439.48 236.043 439.736C236.747 439.992 237.291 440.336 237.675 440.768C238.059 441.184 238.251 441.768 238.251 442.52C238.251 443.688 237.811 444.6 236.931 445.256C236.051 445.912 234.891 446.24 233.451 446.24ZM246.372 446.24C245.156 446.24 244.076 445.944 243.132 445.352C242.188 444.744 241.444 443.952 240.9 442.976C240.356 441.984 240.084 440.896 240.084 439.712C240.084 438.528 240.348 437.456 240.876 436.496C241.404 435.52 242.14 434.744 243.084 434.168C244.028 433.576 245.116 433.28 246.348 433.28C247.516 433.28 248.54 433.552 249.42 434.096C250.316 434.624 250.988 435.344 251.436 436.256L249.852 436.76C249.5 436.12 249.004 435.624 248.364 435.272C247.74 434.904 247.044 434.72 246.276 434.72C245.428 434.72 244.66 434.936 243.972 435.368C243.3 435.8 242.756 436.4 242.34 437.168C241.94 437.92 241.74 438.768 241.74 439.712C241.74 440.656 241.948 441.512 242.364 442.28C242.78 443.048 243.332 443.664 244.02 444.128C244.708 444.576 245.468 444.8 246.3 444.8C246.844 444.8 247.372 444.704 247.884 444.512C248.396 444.32 248.836 444.064 249.204 443.744C249.572 443.408 249.82 443.048 249.948 442.664L251.556 443.144C251.332 443.736 250.964 444.272 250.452 444.752C249.94 445.216 249.332 445.584 248.628 445.856C247.924 446.112 247.172 446.24 246.372 446.24ZM259.331 446.24C258.131 446.24 257.059 445.944 256.115 445.352C255.187 444.76 254.459 443.976 253.931 443C253.403 442.008 253.139 440.936 253.139 439.784C253.139 438.616 253.403 437.544 253.931 436.568C254.475 435.576 255.211 434.784 256.139 434.192C257.083 433.584 258.147 433.28 259.331 433.28C260.531 433.28 261.595 433.584 262.523 434.192C263.467 434.784 264.203 435.576 264.731 436.568C265.275 437.544 265.547 438.616 265.547 439.784C265.547 440.936 265.283 442.008 264.755 443C264.227 443.976 263.491 444.76 262.547 445.352C261.619 445.944 260.547 446.24 259.331 446.24ZM254.795 439.808C254.795 440.736 254.995 441.584 255.395 442.352C255.811 443.104 256.363 443.704 257.051 444.152C257.739 444.584 258.499 444.8 259.331 444.8C260.163 444.8 260.923 444.576 261.611 444.128C262.299 443.68 262.851 443.072 263.267 442.304C263.683 441.536 263.891 440.688 263.891 439.76C263.891 438.832 263.683 437.984 263.267 437.216C262.851 436.448 262.299 435.84 261.611 435.392C260.923 434.944 260.163 434.72 259.331 434.72C258.515 434.72 257.763 434.952 257.075 435.416C256.387 435.864 255.835 436.472 255.419 437.24C255.003 438.008 254.795 438.864 254.795 439.808ZM283.599 433.496H285.207L279.831 446H278.415L275.799 439.784L273.207 446H271.791L266.415 433.496H267.999L272.559 444.32L274.863 438.68L272.751 433.52H274.215L275.799 437.576L277.407 433.52H278.847L276.759 438.68L279.063 444.32L283.599 433.496ZM38.056 474C38.056 473.28 38.144 472.552 38.32 471.816C38.512 471.064 38.888 470.344 39.448 469.656C40.024 468.952 40.888 468.304 42.04 467.712C42.504 467.472 42.984 467.24 43.48 467.016C43.976 466.776 44.44 466.52 44.872 466.248C45.304 465.96 45.656 465.64 45.928 465.288C46.2 464.92 46.336 464.488 46.336 463.992C46.336 463.592 46.216 463.208 45.976 462.84C45.736 462.456 45.384 462.144 44.92 461.904C44.456 461.648 43.872 461.52 43.168 461.52C42.496 461.52 41.896 461.64 41.368 461.88C40.856 462.12 40.424 462.4 40.072 462.72C39.736 463.024 39.48 463.272 39.304 463.464L38.272 462.336C38.368 462.24 38.552 462.072 38.824 461.832C39.096 461.576 39.448 461.312 39.88 461.04C40.328 460.768 40.848 460.536 41.44 460.344C42.032 460.152 42.696 460.056 43.432 460.056C44.408 460.056 45.24 460.232 45.928 460.584C46.632 460.936 47.168 461.4 47.536 461.976C47.904 462.536 48.088 463.152 48.088 463.824C48.088 464.48 47.944 465.048 47.656 465.528C47.384 465.992 47.024 466.4 46.576 466.752C46.144 467.088 45.688 467.384 45.208 467.64C44.744 467.88 44.32 468.088 43.936 468.264C42.928 468.744 42.136 469.224 41.56 469.704C40.984 470.168 40.56 470.632 40.288 471.096C40.032 471.56 39.856 472.032 39.76 472.512H48.352V474H38.056ZM62.8836 466.968C62.8836 468.376 62.6196 469.632 62.0916 470.736C61.5636 471.824 60.8436 472.68 59.9316 473.304C59.0356 473.928 58.0116 474.24 56.8596 474.24C55.7076 474.24 54.6756 473.928 53.7636 473.304C52.8516 472.68 52.1316 471.824 51.6036 470.736C51.0916 469.632 50.8356 468.376 50.8356 466.968C50.8356 465.56 51.0916 464.312 51.6036 463.224C52.1316 462.12 52.8516 461.256 53.7636 460.632C54.6756 459.992 55.7076 459.672 56.8596 459.672C58.0116 459.672 59.0356 459.992 59.9316 460.632C60.8436 461.256 61.5636 462.12 62.0916 463.224C62.6196 464.312 62.8836 465.56 62.8836 466.968ZM61.2276 466.968C61.2276 465.832 61.0436 464.832 60.6756 463.968C60.3076 463.088 59.7956 462.408 59.1396 461.928C58.4836 461.448 57.7236 461.208 56.8596 461.208C55.9956 461.208 55.2356 461.448 54.5796 461.928C53.9236 462.408 53.4036 463.088 53.0196 463.968C52.6516 464.832 52.4676 465.832 52.4676 466.968C52.4676 468.104 52.6516 469.104 53.0196 469.968C53.4036 470.832 53.9236 471.504 54.5796 471.984C55.2356 472.464 55.9956 472.704 56.8596 472.704C57.7236 472.704 58.4836 472.464 59.1396 471.984C59.7956 471.504 60.3076 470.832 60.6756 469.968C61.0436 469.104 61.2276 468.104 61.2276 466.968ZM65.7709 463.92V461.568H67.1629V463.92H65.7709ZM65.7709 474V471.648H67.1629V474H65.7709ZM82.1024 466.968C82.1024 468.376 81.8384 469.632 81.3104 470.736C80.7824 471.824 80.0624 472.68 79.1504 473.304C78.2544 473.928 77.2304 474.24 76.0784 474.24C74.9264 474.24 73.8944 473.928 72.9824 473.304C72.0704 472.68 71.3504 471.824 70.8224 470.736C70.3104 469.632 70.0544 468.376 70.0544 466.968C70.0544 465.56 70.3104 464.312 70.8224 463.224C71.3504 462.12 72.0704 461.256 72.9824 460.632C73.8944 459.992 74.9264 459.672 76.0784 459.672C77.2304 459.672 78.2544 459.992 79.1504 460.632C80.0624 461.256 80.7824 462.12 81.3104 463.224C81.8384 464.312 82.1024 465.56 82.1024 466.968ZM80.4464 466.968C80.4464 465.832 80.2624 464.832 79.8944 463.968C79.5264 463.088 79.0144 462.408 78.3584 461.928C77.7024 461.448 76.9424 461.208 76.0784 461.208C75.2144 461.208 74.4544 461.448 73.7984 461.928C73.1424 462.408 72.6224 463.088 72.2384 463.968C71.8704 464.832 71.6864 465.832 71.6864 466.968C71.6864 468.104 71.8704 469.104 72.2384 469.968C72.6224 470.832 73.1424 471.504 73.7984 471.984C74.4544 472.464 75.2144 472.704 76.0784 472.704C76.9424 472.704 77.7024 472.464 78.3584 471.984C79.0144 471.504 79.5264 470.832 79.8944 469.968C80.2624 469.104 80.4464 468.104 80.4464 466.968ZM96.7977 466.968C96.7977 468.376 96.5337 469.632 96.0057 470.736C95.4777 471.824 94.7577 472.68 93.8457 473.304C92.9497 473.928 91.9257 474.24 90.7737 474.24C89.6217 474.24 88.5897 473.928 87.6777 473.304C86.7657 472.68 86.0457 471.824 85.5177 470.736C85.0057 469.632 84.7497 468.376 84.7497 466.968C84.7497 465.56 85.0057 464.312 85.5177 463.224C86.0457 462.12 86.7657 461.256 87.6777 460.632C88.5897 459.992 89.6217 459.672 90.7737 459.672C91.9257 459.672 92.9497 459.992 93.8457 460.632C94.7577 461.256 95.4777 462.12 96.0057 463.224C96.5337 464.312 96.7977 465.56 96.7977 466.968ZM95.1417 466.968C95.1417 465.832 94.9577 464.832 94.5897 463.968C94.2217 463.088 93.7097 462.408 93.0537 461.928C92.3977 461.448 91.6377 461.208 90.7737 461.208C89.9097 461.208 89.1497 461.448 88.4937 461.928C87.8377 462.408 87.3177 463.088 86.9337 463.968C86.5657 464.832 86.3817 465.832 86.3817 466.968C86.3817 468.104 86.5657 469.104 86.9337 469.968C87.3177 470.832 87.8377 471.504 88.4937 471.984C89.1497 472.464 89.9097 472.704 90.7737 472.704C91.6377 472.704 92.3977 472.464 93.0537 471.984C93.7097 471.504 94.2217 470.832 94.5897 469.968C94.9577 469.104 95.1417 468.104 95.1417 466.968ZM113.986 472.512V474H105.85V472.512H109.258V462.24C109.082 462.48 108.762 462.752 108.298 463.056C107.834 463.36 107.33 463.624 106.786 463.848C106.242 464.056 105.762 464.16 105.346 464.16V462.576C105.714 462.576 106.114 462.472 106.546 462.264C106.994 462.056 107.41 461.816 107.794 461.544C108.194 461.256 108.53 460.992 108.802 460.752C109.074 460.512 109.226 460.36 109.258 460.296H110.938V472.512H113.986ZM115.564 474C115.564 473.28 115.652 472.552 115.828 471.816C116.02 471.064 116.396 470.344 116.956 469.656C117.532 468.952 118.396 468.304 119.548 467.712C120.012 467.472 120.492 467.24 120.988 467.016C121.484 466.776 121.948 466.52 122.38 466.248C122.812 465.96 123.164 465.64 123.436 465.288C123.708 464.92 123.844 464.488 123.844 463.992C123.844 463.592 123.724 463.208 123.484 462.84C123.244 462.456 122.892 462.144 122.428 461.904C121.964 461.648 121.38 461.52 120.676 461.52C120.004 461.52 119.404 461.64 118.876 461.88C118.364 462.12 117.932 462.4 117.58 462.72C117.244 463.024 116.988 463.272 116.812 463.464L115.78 462.336C115.876 462.24 116.06 462.072 116.332 461.832C116.604 461.576 116.956 461.312 117.388 461.04C117.836 460.768 118.356 460.536 118.948 460.344C119.54 460.152 120.204 460.056 120.94 460.056C121.916 460.056 122.748 460.232 123.436 460.584C124.14 460.936 124.676 461.4 125.044 461.976C125.412 462.536 125.596 463.152 125.596 463.824C125.596 464.48 125.452 465.048 125.164 465.528C124.892 465.992 124.532 466.4 124.084 466.752C123.652 467.088 123.196 467.384 122.716 467.64C122.252 467.88 121.828 468.088 121.444 468.264C120.436 468.744 119.644 469.224 119.068 469.704C118.492 470.168 118.068 470.632 117.796 471.096C117.54 471.56 117.364 472.032 117.268 472.512H125.86V474H115.564ZM128.583 474V471.648H129.999V474H128.583ZM144.938 466.968C144.938 468.376 144.674 469.632 144.146 470.736C143.618 471.824 142.898 472.68 141.986 473.304C141.09 473.928 140.066 474.24 138.914 474.24C137.762 474.24 136.73 473.928 135.818 473.304C134.906 472.68 134.186 471.824 133.658 470.736C133.146 469.632 132.89 468.376 132.89 466.968C132.89 465.56 133.146 464.312 133.658 463.224C134.186 462.12 134.906 461.256 135.818 460.632C136.73 459.992 137.762 459.672 138.914 459.672C140.066 459.672 141.09 459.992 141.986 460.632C142.898 461.256 143.618 462.12 144.146 463.224C144.674 464.312 144.938 465.56 144.938 466.968ZM143.282 466.968C143.282 465.832 143.098 464.832 142.73 463.968C142.362 463.088 141.85 462.408 141.194 461.928C140.538 461.448 139.778 461.208 138.914 461.208C138.05 461.208 137.29 461.448 136.634 461.928C135.978 462.408 135.458 463.088 135.074 463.968C134.706 464.832 134.522 465.832 134.522 466.968C134.522 468.104 134.706 469.104 135.074 469.968C135.458 470.832 135.978 471.504 136.634 471.984C137.29 472.464 138.05 472.704 138.914 472.704C139.778 472.704 140.538 472.464 141.194 471.984C141.85 471.504 142.362 470.832 142.73 469.968C143.098 469.104 143.282 468.104 143.282 466.968ZM147.322 474C147.322 473.28 147.41 472.552 147.586 471.816C147.778 471.064 148.154 470.344 148.714 469.656C149.29 468.952 150.154 468.304 151.306 467.712C151.77 467.472 152.25 467.24 152.746 467.016C153.242 466.776 153.706 466.52 154.138 466.248C154.57 465.96 154.922 465.64 155.194 465.288C155.466 464.92 155.602 464.488 155.602 463.992C155.602 463.592 155.482 463.208 155.242 462.84C155.002 462.456 154.65 462.144 154.186 461.904C153.722 461.648 153.138 461.52 152.434 461.52C151.762 461.52 151.162 461.64 150.634 461.88C150.122 462.12 149.69 462.4 149.338 462.72C149.002 463.024 148.746 463.272 148.57 463.464L147.538 462.336C147.634 462.24 147.818 462.072 148.09 461.832C148.362 461.576 148.714 461.312 149.146 461.04C149.594 460.768 150.114 460.536 150.706 460.344C151.298 460.152 151.962 460.056 152.698 460.056C153.674 460.056 154.506 460.232 155.194 460.584C155.898 460.936 156.434 461.4 156.802 461.976C157.17 462.536 157.354 463.152 157.354 463.824C157.354 464.48 157.21 465.048 156.922 465.528C156.65 465.992 156.29 466.4 155.842 466.752C155.41 467.088 154.954 467.384 154.474 467.64C154.01 467.88 153.586 468.088 153.202 468.264C152.194 468.744 151.402 469.224 150.826 469.704C150.25 470.168 149.826 470.632 149.554 471.096C149.298 471.56 149.122 472.032 149.026 472.512H157.618V474H147.322Z" fill="white"/>
<path d="M821.284 24.5685C818.68 27.4024 816.664 30.7239 815.351 34.3411C814.038 37.9584 813.454 41.7998 813.633 45.6439V142.591H830.999V79.217H850.578V64.8857H830.999V44.0421C830.785 40.3176 831.99 36.6502 834.371 33.7784C835.705 32.5059 837.291 31.5261 839.026 30.9018C840.76 30.2776 842.606 30.0227 844.445 30.1534C847.277 30.1846 850.099 30.4809 852.876 31.0386V17.7611C849.008 16.9675 845.063 16.614 841.116 16.7073C837.447 16.5804 833.791 17.2132 830.378 18.566C826.966 19.9188 823.869 21.9624 821.284 24.5685V24.5685Z" fill="white"/>
<path d="M720.291 67.0966L694.115 112.535C691.721 117.274 688.31 121.427 684.126 124.696C680.538 127.247 676.218 128.563 671.818 128.447C667.885 128.516 663.997 127.611 660.5 125.813C657.319 124.153 654.669 121.634 652.85 118.542C650.997 115.341 650.036 111.702 650.068 108.004C650.11 105.066 650.6 102.153 651.522 99.3631C652.506 96.2296 653.798 93.2011 655.379 90.3217L678.983 47.3911L665.495 39.8672L641.448 81.8916C638.883 86.2251 636.764 90.8079 635.125 95.5695C633.835 99.3902 633.125 103.383 633.018 107.414C632.809 113.819 634.451 120.148 637.748 125.642C641.045 131.137 645.857 135.565 651.606 138.395C657.895 141.461 664.822 142.992 671.818 142.863C679.208 143.041 686.489 141.056 692.766 137.151C699.457 132.578 704.932 126.444 708.721 119.279L734.264 75.021L720.291 67.0966Z" fill="white"/>
<path d="M771.72 56.5116C766.598 61.1693 764.132 64.9418 762.552 73.372H762.004L762.741 51.011H745.691V142.689H762.741V98.9575C762.802 93.7085 763.662 88.4993 765.292 83.5092C767.269 78.5836 770.605 74.3208 774.91 71.2167C779.216 68.1125 784.314 66.2946 789.613 65.9745H789.844C792.49 65.9616 795.13 66.2087 797.727 66.7121V50.6316C795.75 50.13 793.717 49.8821 791.678 49.894C784.238 49.894 776.967 51.7486 771.72 56.5116Z" fill="white"/>
<path d="M934.376 84.3142C934.376 77.1486 933.195 69.0977 929.886 63.5128C926.641 57.8857 921.85 53.3071 916.082 50.3196C909.921 47.0296 903.022 45.3684 896.039 45.4933C889.247 45.3564 882.516 46.7993 876.376 49.7084C874.298 50.7032 872.298 51.8515 870.391 53.1437C869.127 53.9923 867.936 54.944 866.829 55.9888L871.044 70.7416C872.89 68.576 875.184 66.836 877.767 65.6414C882.925 62.463 888.864 60.7777 894.922 60.773C901.245 60.773 908.01 61.4263 912.057 65.6414C916.103 69.8565 917.368 76.9167 917.368 83.4712V87.6863L898.8 89.3512C885.565 90.4752 875.393 93.6366 868.283 98.8352C864.942 101.038 862.212 104.05 860.348 107.591C858.483 111.132 857.545 115.087 857.619 119.089C857.435 122.552 858.024 126.014 859.343 129.222C860.663 132.43 862.68 135.303 865.248 137.635C870.517 142.103 877.626 144.337 886.577 144.337C894.796 144.337 901.983 142.798 907.504 138.583C913.026 134.368 914.206 132.261 917.578 125.496H918.211C918.211 135.78 918.822 138.33 920.044 142.651H936.588C935.033 133.888 934.327 124.995 934.481 116.096L934.376 84.3142ZM917.515 105.137C917.807 112.469 915.307 119.64 910.518 125.2C908.317 127.749 905.573 129.772 902.488 131.122C899.402 132.471 896.054 133.112 892.688 132.998C887.933 133.239 883.245 131.791 879.453 128.91C877.832 127.593 876.539 125.917 875.676 124.016C874.813 122.114 874.403 120.038 874.479 117.951C874.421 115.384 875.016 112.845 876.206 110.571C877.397 108.297 879.145 106.362 881.287 104.947C885.825 101.589 892.323 99.5447 900.781 98.8141L917.515 97.3177V105.137Z" fill="white"/>
<path d="M984.652 65.0381C989.62 62.2893 995.202 60.8394 1000.88 60.8231C1005.75 60.7887 1010.55 61.9694 1014.85 64.2583C1019.14 66.5556 1023.08 69.4666 1026.53 72.8993L1036.79 62.6145C1034.48 59.4788 1031.63 56.7869 1028.36 54.669C1024.58 51.9693 1020.4 49.8852 1015.97 48.4939C1011.11 46.8168 1006 45.9828 1000.86 46.0281C994.457 45.9944 988.114 47.2487 982.207 49.7163C976.373 52.0579 971.048 55.5076 966.527 59.8747C961.952 64.2604 958.317 69.5307 955.842 75.3651C953.258 81.5561 951.988 88.2159 952.111 94.9231C951.903 104.01 954.083 112.992 958.434 120.972C962.488 128.154 968.389 134.121 975.526 138.254C982.948 142.326 991.299 144.403 999.763 144.282C1004.75 144.328 1009.71 143.682 1014.52 142.364C1018.79 141.237 1022.9 139.58 1026.76 137.432C1029.89 135.793 1032.74 133.657 1035.19 131.11L1027.5 119.033C1024.47 121.929 1021.01 124.332 1017.23 126.157C1012.63 128.334 1007.58 129.416 1002.48 129.318C996.58 129.356 990.744 128.09 985.389 125.609C980.17 123.048 975.785 119.057 972.744 114.102C969.425 108.262 967.798 101.614 968.044 94.902C967.861 88.5437 969.491 82.2644 972.744 76.7982C975.614 71.9022 979.72 67.8466 984.652 65.0381V65.0381Z" fill="white"/>
<path d="M720.291 67.0976L694.115 112.536C691.721 117.275 688.31 121.428 684.126 124.697C680.538 127.248 676.218 128.564 671.818 128.448C667.885 128.517 663.997 127.612 660.5 125.814C657.319 124.154 654.669 121.635 652.85 118.543C650.997 115.342 650.036 111.703 650.068 108.005C650.11 105.067 650.6 102.154 651.522 99.3641C652.506 96.2306 653.798 93.202 655.379 90.3227L678.983 47.3921L665.495 39.8682L641.448 81.8925C638.883 86.226 636.764 90.8089 635.125 95.5705C633.835 99.3911 633.125 103.384 633.018 107.415C632.809 113.82 634.451 120.149 637.748 125.643C641.045 131.138 645.857 135.566 651.606 138.396C657.895 141.462 664.822 142.993 671.818 142.864C679.208 143.042 686.489 141.057 692.766 137.152C699.457 132.579 704.932 126.445 708.721 119.28L734.264 75.022L720.291 67.0976Z" fill="white"/>
<rect x="658.609" y="7.83105" width="79.4126" height="158.825" fill="#2763BD"/>
<path fill-rule="evenodd" clip-rule="evenodd" d="M658.609 164.529C662.883 165.775 667.335 166.373 671.815 166.29C679.205 166.468 686.487 164.483 692.764 160.579C699.454 156.005 704.93 149.871 708.718 142.707L734.261 98.4487L720.288 90.5244L694.113 135.963C691.718 140.702 688.307 144.854 684.123 148.123C680.535 150.674 676.216 151.991 671.815 151.875C667.883 151.944 663.995 151.039 660.498 149.24C659.845 148.9 659.215 148.523 658.609 148.113V164.529ZM658.609 107.869V75.3236L665.492 63.2949L678.981 70.8188L658.609 107.869Z" fill="white"/>
<rect x="777.098" y="7.83105" width="119.749" height="143.699" fill="#2763BD"/>
<path fill-rule="evenodd" clip-rule="evenodd" d="M896.848 32.8501C896.579 32.8496 896.309 32.8517 896.039 32.8566C889.247 32.7196 882.516 34.1626 876.376 37.0716C874.298 38.0665 872.298 39.2147 870.391 40.5069C869.127 41.3556 867.936 42.3072 866.829 43.3521L871.044 58.1049C872.89 55.9393 875.184 54.1993 877.767 53.0047C882.925 49.8263 888.864 48.141 894.922 48.1362C895.561 48.1362 896.204 48.1429 896.848 48.1592V32.8501ZM896.848 76.8973C884.561 78.158 875.039 81.2584 868.283 86.1984C864.942 88.4013 862.212 91.4134 860.348 94.9544C858.483 98.4955 857.545 102.451 857.619 106.452C857.435 109.916 858.024 113.377 859.343 116.585C860.663 119.793 862.68 122.667 865.248 124.998C870.517 129.466 877.626 131.7 886.577 131.7C890.222 131.7 893.664 131.398 896.848 130.693V120.117C895.476 120.326 894.084 120.409 892.688 120.362C887.933 120.602 883.245 119.154 879.453 116.273C877.832 114.956 876.539 113.281 875.676 111.379C874.813 109.477 874.403 107.401 874.479 105.314C874.421 102.748 875.016 100.208 876.206 97.9343C877.397 95.6601 879.145 93.7251 881.287 92.3103C885.094 89.493 890.281 87.6003 896.848 86.6324V76.8973Z" fill="white"/>
<path fill-rule="evenodd" clip-rule="evenodd" d="M815.351 21.7005C816.664 18.0832 818.68 14.7618 821.284 11.9278C823.869 9.32173 826.966 7.27816 830.378 5.92538C833.791 4.5726 837.447 3.9398 841.116 4.0667C845.063 3.97336 849.008 4.32687 852.876 5.12047V18.398C850.099 17.8403 847.277 17.5439 844.445 17.5128C842.606 17.3821 840.76 17.637 839.026 18.2612C837.291 18.8854 835.705 19.8652 834.371 21.1378C831.99 24.0096 830.785 27.677 830.999 31.4015V52.2451L850.578 52.2451V66.5764L830.999 66.5764V129.95H813.633V33.0032C813.454 29.1592 814.038 25.3178 815.351 21.7005Z" fill="white"/>
<path fill-rule="evenodd" clip-rule="evenodd" d="M777.105 57.1468V40.2611C781.475 38.1391 786.539 37.2524 791.683 37.2524C793.723 37.2405 795.755 37.4884 797.732 37.99V54.0705C795.135 53.5671 792.495 53.32 789.85 53.3329H789.618C785.193 53.6003 780.907 54.9127 777.105 57.1468Z" fill="white"/>
<rect x="949.789" y="20.4355" width="63.0258" height="126.052" fill="#2763BD"/>
<path fill-rule="evenodd" clip-rule="evenodd" d="M1012.81 141.353V156.284C1008.54 157.308 1004.16 157.806 999.763 157.765C991.299 157.886 982.948 155.809 975.526 151.738C968.389 147.604 962.488 141.637 958.434 134.456C954.083 126.476 951.903 117.493 952.111 108.406C951.988 101.699 953.258 95.0395 955.842 88.8485C958.317 83.0141 961.952 77.7438 966.527 73.3581C971.048 68.991 976.373 65.5413 982.207 63.1997C988.114 60.7321 994.457 59.4778 1000.86 59.5115C1004.9 59.4759 1008.92 59.9832 1012.81 61.0159V76.7556C1009.06 75.1153 1004.99 74.2774 1000.88 74.3065C995.202 74.3228 989.62 75.7727 984.652 78.5215C979.72 81.33 975.614 85.3856 972.744 90.2816C969.491 95.7478 967.861 102.027 968.044 108.385C967.798 115.098 969.425 121.746 972.744 127.585C975.785 132.541 980.17 136.531 985.389 139.092C990.744 141.573 996.58 142.84 1002.48 142.802C1005.99 142.869 1009.48 142.377 1012.81 141.353Z" fill="white"/>
<path d="M929.205 200.518C926.602 203.352 924.586 206.673 923.273 210.29C921.96 213.908 921.376 217.749 921.555 221.593V318.54H938.921V255.166H958.5V240.835H938.921V219.991C938.707 216.267 939.912 212.599 942.293 209.728C943.627 208.455 945.213 207.475 946.947 206.851C948.682 206.227 950.528 205.972 952.367 206.103C955.199 206.134 958.021 206.43 960.797 206.988V193.71C956.93 192.917 952.985 192.563 949.037 192.657C945.368 192.53 941.713 193.162 938.3 194.515C934.887 195.868 931.791 197.912 929.205 200.518V200.518Z" fill="white"/>
<path d="M695.077 249.435L679.924 246.147C676.68 245.457 673.561 244.277 670.672 242.649C669.527 241.823 668.474 240.876 667.532 239.825C664.433 236.357 662.794 231.827 662.958 227.179C662.892 224.391 663.488 221.627 664.697 219.114C665.906 216.601 667.694 214.41 669.913 212.722C675.029 208.743 681.395 206.718 687.87 207.01C691.488 206.892 695.09 207.535 698.445 208.896C701.799 210.257 704.831 212.307 707.343 214.913C710.638 218.342 712.984 222.569 714.151 227.179L722.834 220.709L729.156 216.325C728.693 215.272 728.166 214.218 727.618 213.206C727.323 212.7 727.049 212.195 726.733 211.71C722.904 205.32 717.343 200.147 710.694 196.789C703.541 193.071 695.572 191.202 687.511 191.351C679.805 191.215 672.164 192.776 665.129 195.924C658.961 198.585 653.697 202.977 649.976 208.57C646.291 214.067 644.379 220.562 644.496 227.179C644.496 245.768 655.835 257.408 678.512 262.101L693.497 265.431C699.152 266.484 704.401 269.098 708.65 272.976C710.375 274.544 711.765 276.443 712.739 278.561C713.446 280.396 713.803 282.348 713.792 284.315C713.842 287.207 713.207 290.07 711.94 292.671C710.673 295.271 708.809 297.535 706.5 299.278C701.016 303.295 694.324 305.318 687.532 305.011C679.834 305.297 672.337 302.515 666.689 297.276C663.092 293.736 660.571 289.249 659.418 284.336L657.626 285.495L643 294.831C643.337 295.674 643.717 296.496 644.117 297.318C644.517 298.14 645.192 299.426 645.803 300.353C649.847 306.604 655.515 311.638 662.2 314.916C669.719 318.539 677.986 320.344 686.331 320.185C694.351 320.348 702.315 318.819 709.704 315.696C716.088 312.901 721.578 308.402 725.573 302.692C729.379 297.146 731.367 290.555 731.264 283.83C731.264 265.944 719.202 254.479 695.077 249.435Z" fill="white"/>
<path d="M828.213 243.047L802.037 288.485C799.643 293.225 796.232 297.377 792.047 300.646C788.46 303.197 784.14 304.513 779.739 304.397C775.807 304.466 771.919 303.561 768.422 301.763C765.241 300.103 762.591 297.584 760.772 294.492C758.918 291.291 757.958 287.652 757.99 283.954C758.032 281.017 758.522 278.103 759.444 275.313C760.428 272.18 761.72 269.151 763.301 266.272L786.905 223.341L773.417 215.817L749.37 257.842C746.805 262.175 744.686 266.758 743.047 271.52C741.757 275.34 741.046 279.333 740.94 283.364C740.731 289.769 742.373 296.098 745.67 301.593C748.967 307.088 753.779 311.515 759.528 314.345C765.817 317.411 772.744 318.942 779.739 318.813C787.13 318.991 794.411 317.006 800.688 313.101C807.379 308.528 812.854 302.394 816.642 295.23L842.186 250.971L828.213 243.047Z" fill="white"/>
<path d="M879.641 232.461C874.52 237.119 872.054 240.891 870.474 249.321H869.926L870.663 226.96L853.613 226.96V318.638H870.663V274.907C870.724 269.658 871.584 264.448 873.213 259.458C875.191 254.533 878.527 250.27 882.832 247.166C887.138 244.062 892.236 242.244 897.534 241.924H897.766C900.411 241.911 903.052 242.158 905.648 242.661V226.581C903.672 226.079 901.639 225.831 899.6 225.843C892.16 225.843 884.889 227.698 879.641 232.461Z" fill="white"/>
<path d="M1042.29 260.264C1042.29 253.099 1041.11 245.048 1037.8 239.463C1034.56 233.836 1029.77 229.257 1024 226.27C1017.84 222.98 1010.94 221.319 1003.96 221.443C997.165 221.307 990.434 222.75 984.294 225.659C982.216 226.653 980.216 227.802 978.309 229.094C977.045 229.943 975.854 230.894 974.747 231.939L978.962 246.692C980.808 244.526 983.102 242.786 985.685 241.592C990.843 238.413 996.782 236.728 1002.84 236.723C1009.16 236.723 1015.93 237.376 1019.97 241.592C1024.02 245.807 1025.29 252.867 1025.29 259.421V263.636L1006.72 265.301C993.483 266.425 983.31 269.587 976.201 274.785C972.86 276.988 970.13 280 968.266 283.541C966.401 287.082 965.462 291.038 965.537 295.039C965.353 298.503 965.942 301.964 967.261 305.172C968.581 308.38 970.598 311.254 973.166 313.585C978.435 318.053 985.544 320.287 994.494 320.287C1002.71 320.287 1009.9 318.749 1015.42 314.534C1020.94 310.318 1022.12 308.211 1025.5 301.446H1026.13C1026.13 311.731 1026.74 314.281 1027.96 318.601H1044.51C1042.95 309.838 1042.24 300.945 1042.4 292.046L1042.29 260.264ZM1025.43 281.087C1025.73 288.42 1023.22 295.59 1018.44 301.151C1016.24 303.699 1013.49 305.723 1010.41 307.072C1007.32 308.421 1003.97 309.063 1000.61 308.949C995.85 309.189 991.163 307.741 987.371 304.86C985.75 303.543 984.457 301.868 983.594 299.966C982.731 298.064 982.321 295.988 982.397 293.901C982.339 291.334 982.934 288.795 984.124 286.521C985.315 284.247 987.063 282.312 989.205 280.897C993.743 277.539 1000.24 275.495 1008.7 274.764L1025.43 273.268V281.087Z" fill="white"/>
<path d="M695.077 249.435L679.924 246.147C676.68 245.457 673.561 244.277 670.672 242.649C669.527 241.823 668.474 240.876 667.532 239.825C664.433 236.357 662.794 231.827 662.958 227.179C662.892 224.391 663.488 221.627 664.697 219.114C665.906 216.601 667.694 214.41 669.913 212.722C675.029 208.743 681.395 206.718 687.87 207.01C691.488 206.892 695.09 207.535 698.445 208.896C701.799 210.257 704.831 212.307 707.343 214.913C710.638 218.342 712.984 222.569 714.151 227.179L722.834 220.709L729.156 216.325C728.693 215.272 728.166 214.218 727.618 213.206C727.323 212.7 727.049 212.195 726.733 211.71C722.904 205.32 717.343 200.147 710.694 196.789C703.541 193.071 695.572 191.202 687.511 191.351C679.805 191.215 672.164 192.776 665.129 195.924C658.961 198.585 653.697 202.977 649.976 208.57C646.291 214.067 644.379 220.562 644.496 227.179C644.496 245.768 655.835 257.408 678.512 262.101L693.497 265.431C699.152 266.484 704.401 269.098 708.65 272.976C710.375 274.544 711.765 276.443 712.739 278.561C713.446 280.396 713.803 282.348 713.792 284.315C713.842 287.207 713.207 290.07 711.94 292.671C710.673 295.271 708.809 297.535 706.5 299.278C701.016 303.295 694.324 305.318 687.532 305.011C679.834 305.297 672.337 302.515 666.689 297.276C663.092 293.736 660.571 289.249 659.418 284.336L657.626 285.495L643 294.831C643.337 295.674 643.717 296.496 644.117 297.318C644.517 298.14 645.192 299.426 645.803 300.353C649.847 306.604 655.515 311.638 662.2 314.916C669.719 318.539 677.986 320.344 686.331 320.185C694.351 320.348 702.315 318.819 709.704 315.696C716.088 312.901 721.578 308.402 725.573 302.692C729.379 297.146 731.367 290.555 731.264 283.83C731.264 265.944 719.202 254.479 695.077 249.435Z" fill="white"/>
<path d="M828.213 243.047L802.037 288.485C799.643 293.225 796.232 297.377 792.047 300.646C788.46 303.197 784.14 304.513 779.739 304.397C775.807 304.466 771.919 303.561 768.422 301.763C765.241 300.103 762.591 297.584 760.772 294.492C758.918 291.291 757.958 287.652 757.99 283.954C758.032 281.017 758.522 278.103 759.444 275.313C760.428 272.18 761.72 269.151 763.301 266.272L786.905 223.341L773.417 215.817L749.37 257.842C746.805 262.175 744.686 266.758 743.047 271.52C741.757 275.34 741.046 279.333 740.94 283.364C740.731 289.769 742.373 296.098 745.67 301.593C748.967 307.088 753.779 311.515 759.528 314.345C765.817 317.411 772.744 318.942 779.739 318.813C787.13 318.991 794.411 317.006 800.688 313.101C807.379 308.528 812.854 302.394 816.642 295.23L842.186 250.971L828.213 243.047Z" fill="white"/>
<rect x="766.531" y="183.78" width="79.4126" height="158.825" fill="#2763BD"/>
<path fill-rule="evenodd" clip-rule="evenodd" d="M766.531 340.478C770.805 341.724 775.257 342.322 779.737 342.24C787.127 342.418 794.409 340.433 800.686 336.528C807.376 331.955 812.852 325.821 816.64 318.656L842.183 274.398L828.21 266.474L802.035 311.912C799.64 316.651 796.229 320.804 792.045 324.073C788.457 326.624 784.138 327.94 779.737 327.824C775.805 327.893 771.917 326.988 768.419 325.19C767.767 324.849 767.137 324.473 766.531 324.062V340.478ZM766.531 283.818V251.273L773.414 239.244L786.903 246.768L766.531 283.818Z" fill="white"/>
<rect x="885.016" y="183.78" width="119.749" height="143.699" fill="#2763BD"/>
<path fill-rule="evenodd" clip-rule="evenodd" d="M1004.77 208.799C1004.5 208.799 1004.23 208.801 1003.96 208.806C997.169 208.669 990.437 210.112 984.298 213.021C982.22 214.016 980.22 215.164 978.312 216.456C977.049 217.305 975.858 218.256 974.751 219.301L978.966 234.054C980.812 231.889 983.106 230.149 985.689 228.954C990.847 225.776 996.786 224.09 1002.84 224.085C1003.48 224.085 1004.13 224.092 1004.77 224.108V208.799ZM1004.77 252.847C992.483 254.107 982.961 257.208 976.205 262.148C972.864 264.351 970.134 267.363 968.27 270.904C966.405 274.445 965.466 278.4 965.541 282.401C965.357 285.865 965.946 289.326 967.265 292.534C968.585 295.742 970.602 298.616 973.17 300.947C978.439 305.415 985.548 307.649 994.498 307.649C998.144 307.649 1001.59 307.347 1004.77 306.642V296.067C1003.4 296.276 1002.01 296.358 1000.61 296.311C995.854 296.551 991.167 295.103 987.375 292.222C985.754 290.905 984.461 289.23 983.598 287.328C982.735 285.426 982.325 283.35 982.401 281.263C982.343 278.697 982.937 276.158 984.128 273.883C985.319 271.609 987.067 269.674 989.208 268.26C993.016 265.442 998.203 263.55 1004.77 262.582V252.847Z" fill="white"/>
<path fill-rule="evenodd" clip-rule="evenodd" d="M923.273 197.65C924.586 194.032 926.602 190.711 929.205 187.877C931.791 185.271 934.887 183.227 938.3 181.875C941.713 180.522 945.368 179.889 949.037 180.016C952.985 179.923 956.93 180.276 960.797 181.07V194.347C958.021 193.79 955.199 193.493 952.367 193.462C950.528 193.331 948.682 193.586 946.947 194.21C945.213 194.835 943.627 195.814 942.293 197.087C939.912 199.959 938.707 203.626 938.921 207.351V228.194H958.5V242.526H938.921V305.899H921.555V208.952C921.376 205.108 921.96 201.267 923.273 197.65Z" fill="white"/>
<path fill-rule="evenodd" clip-rule="evenodd" d="M885.027 233.096V216.21C889.397 214.088 894.461 213.202 899.605 213.202C901.645 213.19 903.677 213.438 905.654 213.939V230.02C903.057 229.516 900.417 229.269 897.772 229.282H897.54C893.114 229.55 888.828 230.862 885.027 233.096Z" fill="white"/>
<path d="M840.284 363.912C837.68 366.746 835.664 370.068 834.351 373.685C833.038 377.302 832.454 381.144 832.633 384.988V481.935H849.999V418.561H869.578V404.229H849.999V383.386C849.785 379.661 850.99 375.994 853.371 373.122C854.705 371.85 856.291 370.87 858.026 370.246C859.76 369.621 861.606 369.366 863.445 369.497C866.277 369.528 869.099 369.825 871.876 370.382V357.105C868.008 356.311 864.063 355.958 860.116 356.051C856.447 355.924 852.791 356.557 849.378 357.91C845.966 359.263 842.869 361.306 840.284 363.912V363.912Z" fill="white"/>
<path d="M739.291 406.44L713.115 451.879C710.721 456.618 707.31 460.77 703.126 464.039C699.538 466.59 695.218 467.907 690.818 467.791C686.885 467.86 682.997 466.955 679.5 465.156C676.319 463.497 673.669 460.978 671.85 457.885C669.997 454.685 669.036 451.046 669.068 447.348C669.11 444.41 669.6 441.496 670.522 438.707C671.506 435.573 672.798 432.545 674.379 429.665L697.983 386.735L684.495 379.211L660.448 421.235C657.883 425.569 655.764 430.152 654.125 434.913C652.835 438.734 652.125 442.726 652.018 446.758C651.809 453.162 653.451 459.491 656.748 464.986C660.045 470.481 664.857 474.909 670.606 477.738C676.895 480.804 683.822 482.336 690.818 482.206C698.208 482.384 705.489 480.399 711.766 476.495C718.457 471.921 723.932 465.787 727.721 458.623L753.264 414.365L739.291 406.44Z" fill="white"/>
<path d="M790.72 395.855C785.598 400.513 783.132 404.286 781.552 412.716H781.004L781.741 390.355H764.691V482.033H781.741V438.301C781.802 433.052 782.662 427.843 784.292 422.853C786.269 417.927 789.605 413.665 793.91 410.56C798.216 407.456 803.314 405.638 808.613 405.318H808.844C811.49 405.305 814.13 405.552 816.727 406.056V389.975C814.75 389.474 812.717 389.226 810.678 389.238C803.238 389.238 795.967 391.092 790.72 395.855Z" fill="white"/>
<path d="M953.376 423.658C953.376 416.492 952.195 408.441 948.886 402.857C945.641 397.229 940.85 392.651 935.082 389.663C928.921 386.373 922.022 384.712 915.039 384.837C908.247 384.7 901.516 386.143 895.376 389.052C893.298 390.047 891.298 391.195 889.391 392.487C888.127 393.336 886.936 394.288 885.829 395.333L890.044 410.085C891.89 407.92 894.184 406.18 896.767 404.985C901.925 401.807 907.864 400.121 913.922 400.117C920.245 400.117 927.01 400.77 931.057 404.985C935.103 409.2 936.368 416.26 936.368 422.815V427.03L917.8 428.695C904.565 429.819 894.393 432.98 887.283 438.179C883.942 440.382 881.212 443.394 879.348 446.935C877.483 450.476 876.545 454.431 876.619 458.432C876.435 461.896 877.024 465.358 878.343 468.565C879.663 471.773 881.68 474.647 884.248 476.979C889.517 481.447 896.626 483.681 905.577 483.681C913.796 483.681 920.983 482.142 926.504 477.927C932.026 473.712 933.206 471.605 936.578 464.839H937.211C937.211 475.124 937.822 477.674 939.044 481.995H955.588C954.033 473.232 953.327 464.339 953.481 455.44L953.376 423.658ZM936.515 444.48C936.807 451.813 934.307 458.984 929.518 464.544C927.317 467.093 924.573 469.116 921.488 470.465C918.402 471.815 915.054 472.456 911.688 472.342C906.933 472.583 902.245 471.135 898.453 468.254C896.832 466.937 895.539 465.261 894.676 463.359C893.813 461.458 893.403 459.381 893.479 457.294C893.421 454.728 894.016 452.189 895.206 449.915C896.397 447.641 898.145 445.706 900.287 444.291C904.825 440.933 911.323 438.888 919.781 438.158L936.515 436.661V444.48Z" fill="white"/>
<path d="M1003.65 404.382C1008.62 401.633 1014.2 400.183 1019.88 400.167C1024.75 400.132 1029.55 401.313 1033.85 403.602C1038.14 405.899 1042.08 408.81 1045.53 412.243L1055.79 401.958C1053.48 398.823 1050.63 396.131 1047.36 394.013C1043.58 391.313 1039.4 389.229 1034.97 387.838C1030.11 386.161 1025 385.327 1019.86 385.372C1013.46 385.338 1007.11 386.592 1001.21 389.06C995.373 391.402 990.048 394.851 985.527 399.218C980.952 403.604 977.317 408.874 974.842 414.709C972.258 420.9 970.988 427.56 971.111 434.267C970.903 443.354 973.083 452.336 977.434 460.316C981.488 467.498 987.389 473.465 994.526 477.598C1001.95 481.669 1010.3 483.746 1018.76 483.625C1023.75 483.671 1028.71 483.026 1033.52 481.708C1037.79 480.58 1041.9 478.924 1045.76 476.776C1048.89 475.136 1051.74 473.001 1054.19 470.453L1046.5 458.377C1043.47 461.273 1040.01 463.676 1036.23 465.501C1031.63 467.678 1026.58 468.76 1021.48 468.662C1015.58 468.7 1009.74 467.433 1004.39 464.953C999.17 462.391 994.785 458.401 991.744 453.445C988.425 447.606 986.798 440.958 987.044 434.246C986.861 427.887 988.491 421.608 991.744 416.142C994.614 411.246 998.72 407.19 1003.65 404.382V404.382Z" fill="white"/>
<path d="M739.291 406.441L713.115 451.88C710.721 456.619 707.31 460.771 703.126 464.04C699.538 466.591 695.218 467.908 690.818 467.792C686.885 467.861 682.997 466.956 679.5 465.157C676.319 463.498 673.669 460.979 671.85 457.886C669.997 454.686 669.036 451.047 669.068 447.349C669.11 444.411 669.6 441.497 670.522 438.708C671.506 435.574 672.798 432.546 674.379 429.666L697.983 386.736L684.495 379.212L660.448 421.236C657.883 425.57 655.764 430.153 654.125 434.914C652.835 438.735 652.125 442.727 652.018 446.759C651.809 453.163 653.451 459.492 656.748 464.987C660.045 470.482 664.857 474.91 670.606 477.739C676.895 480.805 683.822 482.337 690.818 482.207C698.208 482.385 705.489 480.4 711.766 476.496C718.457 471.922 723.932 465.788 727.721 458.624L753.264 414.366L739.291 406.441Z" fill="white"/>
<rect x="677.609" y="347.174" width="79.4126" height="158.825" fill="#2763BD"/>
<path fill-rule="evenodd" clip-rule="evenodd" d="M677.609 503.873C681.883 505.119 686.335 505.717 690.815 505.634C698.205 505.812 705.487 503.827 711.764 499.923C718.454 495.349 723.93 489.215 727.718 482.051L753.261 437.792L739.288 429.868L713.113 475.307C710.718 480.046 707.307 484.198 703.123 487.467C699.535 490.018 695.216 491.335 690.815 491.219C686.883 491.288 682.995 490.383 679.498 488.584C678.845 488.244 678.215 487.867 677.609 487.457V503.873ZM677.609 447.213V414.667L684.492 402.639L697.981 410.163L677.609 447.213Z" fill="white"/>
<rect x="796.098" y="347.176" width="119.749" height="143.699" fill="#2763BD"/>
<path fill-rule="evenodd" clip-rule="evenodd" d="M915.848 372.194C915.579 372.193 915.309 372.195 915.039 372.2C908.247 372.063 901.516 373.506 895.376 376.415C893.298 377.41 891.298 378.558 889.391 379.851C888.127 380.699 886.936 381.651 885.829 382.696L890.044 397.449C891.89 395.283 894.184 393.543 896.767 392.348C901.925 389.17 907.864 387.485 913.922 387.48C914.561 387.48 915.204 387.487 915.848 387.503V372.194ZM915.848 416.241C903.561 417.502 894.039 420.602 887.283 425.542C883.942 427.745 881.212 430.757 879.348 434.298C877.483 437.839 876.545 441.794 876.619 445.796C876.435 449.259 877.024 452.721 878.343 455.929C879.663 459.137 881.68 462.01 884.248 464.342C889.517 468.81 896.626 471.044 905.577 471.044C909.222 471.044 912.664 470.741 915.848 470.037V459.461C914.476 459.67 913.084 459.753 911.688 459.705C906.933 459.946 902.245 458.498 898.453 455.617C896.832 454.3 895.539 452.624 894.676 450.723C893.813 448.821 893.403 446.745 893.479 444.658C893.421 442.091 894.016 439.552 895.206 437.278C896.397 435.004 898.145 433.069 900.287 431.654C904.094 428.837 909.281 426.944 915.848 425.976V416.241Z" fill="white"/>
<path fill-rule="evenodd" clip-rule="evenodd" d="M834.351 361.044C835.664 357.427 837.68 354.106 840.284 351.272C842.869 348.665 845.966 346.622 849.378 345.269C852.791 343.916 856.447 343.284 860.116 343.41C864.063 343.317 868.008 343.671 871.876 344.464V357.742C869.099 357.184 866.277 356.888 863.445 356.857C861.606 356.726 859.76 356.981 858.026 357.605C856.291 358.229 854.705 359.209 853.371 360.482C850.99 363.353 849.785 367.021 849.999 370.745V391.589H869.578V405.92H849.999V469.294H832.633V372.347C832.454 368.503 833.038 364.662 834.351 361.044Z" fill="white"/>
<path fill-rule="evenodd" clip-rule="evenodd" d="M796.105 396.49V379.604C800.475 377.482 805.539 376.595 810.683 376.595C812.723 376.583 814.755 376.831 816.732 377.333V393.413C814.135 392.91 811.495 392.663 808.85 392.676H808.618C804.193 392.943 799.907 394.255 796.105 396.49Z" fill="white"/>
<rect x="968.789" y="359.78" width="63.0258" height="126.052" fill="#2763BD"/>
<path fill-rule="evenodd" clip-rule="evenodd" d="M1031.81 480.696V495.628C1027.54 496.651 1023.16 497.149 1018.76 497.109C1010.3 497.23 1001.95 495.153 994.526 491.081C987.389 486.948 981.488 480.981 977.434 473.799C973.083 465.819 970.903 456.837 971.111 447.75C970.988 441.043 972.258 434.383 974.842 428.192C977.317 422.358 980.952 417.088 985.527 412.702C990.048 408.335 995.373 404.885 1001.21 402.543C1007.11 400.076 1013.46 398.822 1019.86 398.855C1023.9 398.82 1027.92 399.327 1031.81 400.36V416.099C1028.06 414.459 1023.99 413.621 1019.88 413.65C1014.2 413.667 1008.62 415.116 1003.65 417.865C998.72 420.674 994.614 424.729 991.744 429.625C988.491 435.092 986.861 441.371 987.044 447.729C986.798 454.441 988.425 461.09 991.744 466.929C994.785 471.884 999.17 475.875 1004.39 478.436C1009.74 480.917 1015.58 482.183 1021.48 482.145C1024.99 482.213 1028.48 481.721 1031.81 480.696Z" fill="white"/>
</g>
<defs>
<clipPath id="clip0">
<rect width="1012" height="506" fill="white"/>
</clipPath>
</defs>
</svg>
